M48
;DRILL file {KiCad (5.0.1-3-g963ef8bb5)} date Sunday, July 12, 2020 at 11:03:11 PM
;FORMAT={-:-/ absolute / inch / decimal}
FMAT,2
INCH,TZ
T1C0.0079
T2C0.0315
T3C0.0390
T4C0.0394
T5C0.1000
T6C0.1260
%
G90
G05
M72
T1
X5.0197Y-3.4252
X5.1181Y-3.3071
X5.1772Y-3.5039
X5.2165Y-3.0512
X5.3543Y-3.0512
X5.4921Y-3.5236
X5.5413Y-3.248
X5.5512Y-3.3858
X5.6693Y-3.4843
X5.7087Y-3.2677
X5.8071Y-3.2185
X5.8268Y-3.0807
X5.8268Y-3.1201
X5.8268Y-3.1496
X5.8328Y-2.9785
X5.8366Y-3.0217
X5.8366Y-3.0512
X5.8366Y-3.1791
X5.8661Y-3.1791
X5.8661Y-3.4843
X5.8858Y-2.7756
X5.8929Y-2.8553
X5.8957Y-3.1791
X5.9154Y-2.9921
X5.9185Y-2.8553
X5.935Y-2.9729
X5.9646Y-2.96
X5.9941Y-3.0704
X6.0236Y-3.189
X6.0239Y-3.1009
X6.1024Y-2.7948
X6.1024Y-2.8937
X6.1024Y-3.2382
X6.1614Y-3.3268
X6.1644Y-3.093
X6.1909Y-3.1323
X6.2992Y-3.4547
X6.302Y-3.0146
X6.302Y-3.3689
X6.3976Y-3.0413
X6.4764Y-3.189
X6.4764Y-3.3945
X6.4764Y-3.4547
X6.5354Y-3.4449
X6.5551Y-3.3071
X6.5551Y-3.4055
X6.7224Y-2.9776
X6.7618Y-2.9968
X6.7913Y-3.0315
X6.8504Y-3.2087
X6.8701Y-3.4547
X6.9193Y-2.8543
X6.9193Y-3.0807
X6.9669Y-3.1749
X6.9685Y-2.9823
X7.0177Y-2.8543
X7.0266Y-3.162
X7.0669Y-2.9823
X7.0669Y-3.162
X7.0669Y-3.4547
X7.1161Y-2.8543
X7.1286Y-3.1492
X7.1654Y-2.9823
X7.1654Y-3.1496
X7.2047Y-3.4843
X7.2146Y-2.7756
X7.2638Y-2.9823
X7.2638Y-3.1496
X7.2662Y-3.4508
X7.3228Y-3.0315
X7.3228Y-3.4646
X7.3463Y-3.1107
X7.4016Y-3.4055
X7.4213Y-2.8937
X7.4213Y-3.6122
X7.4606Y-3.4843
X7.5394Y-3.0315
X7.5591Y-3.189
X7.5591Y-3.4744
X7.5787Y-3.3661
X7.6772Y-3.1102
X7.6969Y-3.3465
X7.7165Y-3.3858
X7.7461Y-3.1988
X7.7559Y-3.1693
X7.8346Y-3.1693
X7.8937Y-3.0709
X7.9331Y-3.3661
X8.0217Y-3.2082
X8.0512Y-3.189
T2
X5.1181Y-3.4252
X5.2165Y-3.4252
X5.1181Y-3.189
X5.2165Y-3.189
T3
X6.5945Y-2.8346
X6.5945Y-3.0118
X6.8504Y-2.8346
X6.8504Y-3.0118
X6.2205Y-2.8346
X6.2205Y-3.0118
X6.4764Y-2.8346
X6.4764Y-3.0118
T4
X4.7244Y-3.248
X4.8244Y-3.248
X4.9244Y-3.248
X6.7717Y-3.563
X6.8701Y-3.563
X6.9685Y-3.563
X7.0669Y-3.563
X7.1654Y-3.563
X7.2638Y-3.563
X7.6181Y-3.6614
X7.7181Y-3.6614
X7.8181Y-3.6614
X7.9181Y-3.6614
X5.0772Y-2.8346
X5.0772Y-2.9346
X5.1772Y-2.8346
X5.1772Y-2.9346
X5.2772Y-2.8346
X5.2772Y-2.9346
X6.2008Y-3.563
X6.2992Y-3.563
X6.3976Y-3.563
X6.4961Y-3.563
X5.6283Y-3.4055
X5.7283Y-3.4055
X5.8283Y-3.4055
X5.4134Y-3.2071
X5.4134Y-3.3071
X5.4134Y-3.4071
T5
X4.9705Y-3.6417
X5.1476Y-3.6417
X5.3937Y-3.6417
X5.5709Y-3.6417
X5.8071Y-3.6417
X5.9843Y-3.6417
T6
X8.1693Y-2.9528
X4.7244Y-3.5433
X4.7244Y-2.9528
X8.1693Y-3.5433
T0
M30
