G04 #@! TF.GenerationSoftware,KiCad,Pcbnew,(5.0.1-3-g963ef8bb5)*
G04 #@! TF.CreationDate,2020-07-12T22:57:35-05:00*
G04 #@! TF.ProjectId,SmartNerfBlaster,536D6172744E657266426C6173746572,v1*
G04 #@! TF.SameCoordinates,Original*
G04 #@! TF.FileFunction,Copper,L4,Bot,Signal*
G04 #@! TF.FilePolarity,Positive*
%FSLAX46Y46*%
G04 Gerber Fmt 4.6, Leading zero omitted, Abs format (unit mm)*
G04 Created by KiCad (PCBNEW (5.0.1-3-g963ef8bb5)) date Sunday, July 12, 2020 at 10:57:35 PM*
%MOMM*%
%LPD*%
G01*
G04 APERTURE LIST*
G04 #@! TA.AperFunction,Conductor*
%ADD10C,0.100000*%
G04 #@! TD*
G04 #@! TA.AperFunction,ComponentPad*
%ADD11C,3.810000*%
G04 #@! TD*
G04 #@! TA.AperFunction,ComponentPad*
%ADD12C,6.400000*%
G04 #@! TD*
G04 #@! TA.AperFunction,ComponentPad*
%ADD13C,1.600000*%
G04 #@! TD*
G04 #@! TA.AperFunction,ComponentPad*
%ADD14R,1.600000X1.600000*%
G04 #@! TD*
G04 #@! TA.AperFunction,ComponentPad*
%ADD15C,1.750000*%
G04 #@! TD*
G04 #@! TA.AperFunction,ComponentPad*
%ADD16R,1.750000X1.750000*%
G04 #@! TD*
G04 #@! TA.AperFunction,ComponentPad*
%ADD17R,1.800000X1.800000*%
G04 #@! TD*
G04 #@! TA.AperFunction,ComponentPad*
%ADD18O,1.800000X1.800000*%
G04 #@! TD*
G04 #@! TA.AperFunction,ComponentPad*
%ADD19C,2.000000*%
G04 #@! TD*
G04 #@! TA.AperFunction,ComponentPad*
%ADD20R,2.000000X2.000000*%
G04 #@! TD*
G04 #@! TA.AperFunction,ComponentPad*
%ADD21O,1.700000X1.700000*%
G04 #@! TD*
G04 #@! TA.AperFunction,ComponentPad*
%ADD22R,1.700000X1.700000*%
G04 #@! TD*
G04 #@! TA.AperFunction,ViaPad*
%ADD23C,0.450000*%
G04 #@! TD*
G04 #@! TA.AperFunction,Conductor*
%ADD24C,0.127000*%
G04 #@! TD*
G04 APERTURE END LIST*
D10*
G04 #@! TO.N,/Pusher_Power*
G04 #@! TO.C,J4*
G36*
X153045861Y-90599587D02*
X153138324Y-90613302D01*
X153228996Y-90636014D01*
X153317006Y-90667505D01*
X153401505Y-90707470D01*
X153481681Y-90755525D01*
X153556760Y-90811208D01*
X153626019Y-90873981D01*
X153688792Y-90943240D01*
X153744475Y-91018319D01*
X153792530Y-91098495D01*
X153832495Y-91182994D01*
X153863986Y-91271004D01*
X153886698Y-91361676D01*
X153900413Y-91454139D01*
X153905000Y-91547500D01*
X153905000Y-93452500D01*
X153900413Y-93545861D01*
X153886698Y-93638324D01*
X153863986Y-93728996D01*
X153832495Y-93817006D01*
X153792530Y-93901505D01*
X153744475Y-93981681D01*
X153688792Y-94056760D01*
X153626019Y-94126019D01*
X153556760Y-94188792D01*
X153481681Y-94244475D01*
X153401505Y-94292530D01*
X153317006Y-94332495D01*
X153228996Y-94363986D01*
X153138324Y-94386698D01*
X153045861Y-94400413D01*
X152952500Y-94405000D01*
X151047500Y-94405000D01*
X150954139Y-94400413D01*
X150861676Y-94386698D01*
X150771004Y-94363986D01*
X150682994Y-94332495D01*
X150598495Y-94292530D01*
X150518319Y-94244475D01*
X150443240Y-94188792D01*
X150373981Y-94126019D01*
X150311208Y-94056760D01*
X150255525Y-93981681D01*
X150207470Y-93901505D01*
X150167505Y-93817006D01*
X150136014Y-93728996D01*
X150113302Y-93638324D01*
X150099587Y-93545861D01*
X150095000Y-93452500D01*
X150095000Y-91547500D01*
X150099587Y-91454139D01*
X150113302Y-91361676D01*
X150136014Y-91271004D01*
X150167505Y-91182994D01*
X150207470Y-91098495D01*
X150255525Y-91018319D01*
X150311208Y-90943240D01*
X150373981Y-90873981D01*
X150443240Y-90811208D01*
X150518319Y-90755525D01*
X150598495Y-90707470D01*
X150682994Y-90667505D01*
X150771004Y-90636014D01*
X150861676Y-90613302D01*
X150954139Y-90599587D01*
X151047500Y-90595000D01*
X152952500Y-90595000D01*
X153045861Y-90599587D01*
X153045861Y-90599587D01*
G37*
D11*
G04 #@! TD*
G04 #@! TO.P,J4,2*
G04 #@! TO.N,/Pusher_Power*
X152000000Y-92500000D03*
D10*
G04 #@! TO.N,+BATT*
G04 #@! TO.C,J4*
G36*
X148545861Y-90599587D02*
X148638324Y-90613302D01*
X148728996Y-90636014D01*
X148817006Y-90667505D01*
X148901505Y-90707470D01*
X148981681Y-90755525D01*
X149056760Y-90811208D01*
X149126019Y-90873981D01*
X149188792Y-90943240D01*
X149244475Y-91018319D01*
X149292530Y-91098495D01*
X149332495Y-91182994D01*
X149363986Y-91271004D01*
X149386698Y-91361676D01*
X149400413Y-91454139D01*
X149405000Y-91547500D01*
X149405000Y-93452500D01*
X149400413Y-93545861D01*
X149386698Y-93638324D01*
X149363986Y-93728996D01*
X149332495Y-93817006D01*
X149292530Y-93901505D01*
X149244475Y-93981681D01*
X149188792Y-94056760D01*
X149126019Y-94126019D01*
X149056760Y-94188792D01*
X148981681Y-94244475D01*
X148901505Y-94292530D01*
X148817006Y-94332495D01*
X148728996Y-94363986D01*
X148638324Y-94386698D01*
X148545861Y-94400413D01*
X148452500Y-94405000D01*
X146547500Y-94405000D01*
X146454139Y-94400413D01*
X146361676Y-94386698D01*
X146271004Y-94363986D01*
X146182994Y-94332495D01*
X146098495Y-94292530D01*
X146018319Y-94244475D01*
X145943240Y-94188792D01*
X145873981Y-94126019D01*
X145811208Y-94056760D01*
X145755525Y-93981681D01*
X145707470Y-93901505D01*
X145667505Y-93817006D01*
X145636014Y-93728996D01*
X145613302Y-93638324D01*
X145599587Y-93545861D01*
X145595000Y-93452500D01*
X145595000Y-91547500D01*
X145599587Y-91454139D01*
X145613302Y-91361676D01*
X145636014Y-91271004D01*
X145667505Y-91182994D01*
X145707470Y-91098495D01*
X145755525Y-91018319D01*
X145811208Y-90943240D01*
X145873981Y-90873981D01*
X145943240Y-90811208D01*
X146018319Y-90755525D01*
X146098495Y-90707470D01*
X146182994Y-90667505D01*
X146271004Y-90636014D01*
X146361676Y-90613302D01*
X146454139Y-90599587D01*
X146547500Y-90595000D01*
X148452500Y-90595000D01*
X148545861Y-90599587D01*
X148545861Y-90599587D01*
G37*
D11*
G04 #@! TD*
G04 #@! TO.P,J4,1*
G04 #@! TO.N,+BATT*
X147500000Y-92500000D03*
D10*
G04 #@! TO.N,GND*
G04 #@! TO.C,J1*
G36*
X142545861Y-90599587D02*
X142638324Y-90613302D01*
X142728996Y-90636014D01*
X142817006Y-90667505D01*
X142901505Y-90707470D01*
X142981681Y-90755525D01*
X143056760Y-90811208D01*
X143126019Y-90873981D01*
X143188792Y-90943240D01*
X143244475Y-91018319D01*
X143292530Y-91098495D01*
X143332495Y-91182994D01*
X143363986Y-91271004D01*
X143386698Y-91361676D01*
X143400413Y-91454139D01*
X143405000Y-91547500D01*
X143405000Y-93452500D01*
X143400413Y-93545861D01*
X143386698Y-93638324D01*
X143363986Y-93728996D01*
X143332495Y-93817006D01*
X143292530Y-93901505D01*
X143244475Y-93981681D01*
X143188792Y-94056760D01*
X143126019Y-94126019D01*
X143056760Y-94188792D01*
X142981681Y-94244475D01*
X142901505Y-94292530D01*
X142817006Y-94332495D01*
X142728996Y-94363986D01*
X142638324Y-94386698D01*
X142545861Y-94400413D01*
X142452500Y-94405000D01*
X140547500Y-94405000D01*
X140454139Y-94400413D01*
X140361676Y-94386698D01*
X140271004Y-94363986D01*
X140182994Y-94332495D01*
X140098495Y-94292530D01*
X140018319Y-94244475D01*
X139943240Y-94188792D01*
X139873981Y-94126019D01*
X139811208Y-94056760D01*
X139755525Y-93981681D01*
X139707470Y-93901505D01*
X139667505Y-93817006D01*
X139636014Y-93728996D01*
X139613302Y-93638324D01*
X139599587Y-93545861D01*
X139595000Y-93452500D01*
X139595000Y-91547500D01*
X139599587Y-91454139D01*
X139613302Y-91361676D01*
X139636014Y-91271004D01*
X139667505Y-91182994D01*
X139707470Y-91098495D01*
X139755525Y-91018319D01*
X139811208Y-90943240D01*
X139873981Y-90873981D01*
X139943240Y-90811208D01*
X140018319Y-90755525D01*
X140098495Y-90707470D01*
X140182994Y-90667505D01*
X140271004Y-90636014D01*
X140361676Y-90613302D01*
X140454139Y-90599587D01*
X140547500Y-90595000D01*
X142452500Y-90595000D01*
X142545861Y-90599587D01*
X142545861Y-90599587D01*
G37*
D11*
G04 #@! TD*
G04 #@! TO.P,J1,2*
G04 #@! TO.N,GND*
X141500000Y-92500000D03*
D10*
G04 #@! TO.N,+BATT*
G04 #@! TO.C,J1*
G36*
X138045861Y-90599587D02*
X138138324Y-90613302D01*
X138228996Y-90636014D01*
X138317006Y-90667505D01*
X138401505Y-90707470D01*
X138481681Y-90755525D01*
X138556760Y-90811208D01*
X138626019Y-90873981D01*
X138688792Y-90943240D01*
X138744475Y-91018319D01*
X138792530Y-91098495D01*
X138832495Y-91182994D01*
X138863986Y-91271004D01*
X138886698Y-91361676D01*
X138900413Y-91454139D01*
X138905000Y-91547500D01*
X138905000Y-93452500D01*
X138900413Y-93545861D01*
X138886698Y-93638324D01*
X138863986Y-93728996D01*
X138832495Y-93817006D01*
X138792530Y-93901505D01*
X138744475Y-93981681D01*
X138688792Y-94056760D01*
X138626019Y-94126019D01*
X138556760Y-94188792D01*
X138481681Y-94244475D01*
X138401505Y-94292530D01*
X138317006Y-94332495D01*
X138228996Y-94363986D01*
X138138324Y-94386698D01*
X138045861Y-94400413D01*
X137952500Y-94405000D01*
X136047500Y-94405000D01*
X135954139Y-94400413D01*
X135861676Y-94386698D01*
X135771004Y-94363986D01*
X135682994Y-94332495D01*
X135598495Y-94292530D01*
X135518319Y-94244475D01*
X135443240Y-94188792D01*
X135373981Y-94126019D01*
X135311208Y-94056760D01*
X135255525Y-93981681D01*
X135207470Y-93901505D01*
X135167505Y-93817006D01*
X135136014Y-93728996D01*
X135113302Y-93638324D01*
X135099587Y-93545861D01*
X135095000Y-93452500D01*
X135095000Y-91547500D01*
X135099587Y-91454139D01*
X135113302Y-91361676D01*
X135136014Y-91271004D01*
X135167505Y-91182994D01*
X135207470Y-91098495D01*
X135255525Y-91018319D01*
X135311208Y-90943240D01*
X135373981Y-90873981D01*
X135443240Y-90811208D01*
X135518319Y-90755525D01*
X135598495Y-90707470D01*
X135682994Y-90667505D01*
X135771004Y-90636014D01*
X135861676Y-90613302D01*
X135954139Y-90599587D01*
X136047500Y-90595000D01*
X137952500Y-90595000D01*
X138045861Y-90599587D01*
X138045861Y-90599587D01*
G37*
D11*
G04 #@! TD*
G04 #@! TO.P,J1,1*
G04 #@! TO.N,+BATT*
X137000000Y-92500000D03*
D10*
G04 #@! TO.N,/Flywheel_Power*
G04 #@! TO.C,J5*
G36*
X131795861Y-90599587D02*
X131888324Y-90613302D01*
X131978996Y-90636014D01*
X132067006Y-90667505D01*
X132151505Y-90707470D01*
X132231681Y-90755525D01*
X132306760Y-90811208D01*
X132376019Y-90873981D01*
X132438792Y-90943240D01*
X132494475Y-91018319D01*
X132542530Y-91098495D01*
X132582495Y-91182994D01*
X132613986Y-91271004D01*
X132636698Y-91361676D01*
X132650413Y-91454139D01*
X132655000Y-91547500D01*
X132655000Y-93452500D01*
X132650413Y-93545861D01*
X132636698Y-93638324D01*
X132613986Y-93728996D01*
X132582495Y-93817006D01*
X132542530Y-93901505D01*
X132494475Y-93981681D01*
X132438792Y-94056760D01*
X132376019Y-94126019D01*
X132306760Y-94188792D01*
X132231681Y-94244475D01*
X132151505Y-94292530D01*
X132067006Y-94332495D01*
X131978996Y-94363986D01*
X131888324Y-94386698D01*
X131795861Y-94400413D01*
X131702500Y-94405000D01*
X129797500Y-94405000D01*
X129704139Y-94400413D01*
X129611676Y-94386698D01*
X129521004Y-94363986D01*
X129432994Y-94332495D01*
X129348495Y-94292530D01*
X129268319Y-94244475D01*
X129193240Y-94188792D01*
X129123981Y-94126019D01*
X129061208Y-94056760D01*
X129005525Y-93981681D01*
X128957470Y-93901505D01*
X128917505Y-93817006D01*
X128886014Y-93728996D01*
X128863302Y-93638324D01*
X128849587Y-93545861D01*
X128845000Y-93452500D01*
X128845000Y-91547500D01*
X128849587Y-91454139D01*
X128863302Y-91361676D01*
X128886014Y-91271004D01*
X128917505Y-91182994D01*
X128957470Y-91098495D01*
X129005525Y-91018319D01*
X129061208Y-90943240D01*
X129123981Y-90873981D01*
X129193240Y-90811208D01*
X129268319Y-90755525D01*
X129348495Y-90707470D01*
X129432994Y-90667505D01*
X129521004Y-90636014D01*
X129611676Y-90613302D01*
X129704139Y-90599587D01*
X129797500Y-90595000D01*
X131702500Y-90595000D01*
X131795861Y-90599587D01*
X131795861Y-90599587D01*
G37*
D11*
G04 #@! TD*
G04 #@! TO.P,J5,2*
G04 #@! TO.N,/Flywheel_Power*
X130750000Y-92500000D03*
D10*
G04 #@! TO.N,+BATT*
G04 #@! TO.C,J5*
G36*
X127295861Y-90599587D02*
X127388324Y-90613302D01*
X127478996Y-90636014D01*
X127567006Y-90667505D01*
X127651505Y-90707470D01*
X127731681Y-90755525D01*
X127806760Y-90811208D01*
X127876019Y-90873981D01*
X127938792Y-90943240D01*
X127994475Y-91018319D01*
X128042530Y-91098495D01*
X128082495Y-91182994D01*
X128113986Y-91271004D01*
X128136698Y-91361676D01*
X128150413Y-91454139D01*
X128155000Y-91547500D01*
X128155000Y-93452500D01*
X128150413Y-93545861D01*
X128136698Y-93638324D01*
X128113986Y-93728996D01*
X128082495Y-93817006D01*
X128042530Y-93901505D01*
X127994475Y-93981681D01*
X127938792Y-94056760D01*
X127876019Y-94126019D01*
X127806760Y-94188792D01*
X127731681Y-94244475D01*
X127651505Y-94292530D01*
X127567006Y-94332495D01*
X127478996Y-94363986D01*
X127388324Y-94386698D01*
X127295861Y-94400413D01*
X127202500Y-94405000D01*
X125297500Y-94405000D01*
X125204139Y-94400413D01*
X125111676Y-94386698D01*
X125021004Y-94363986D01*
X124932994Y-94332495D01*
X124848495Y-94292530D01*
X124768319Y-94244475D01*
X124693240Y-94188792D01*
X124623981Y-94126019D01*
X124561208Y-94056760D01*
X124505525Y-93981681D01*
X124457470Y-93901505D01*
X124417505Y-93817006D01*
X124386014Y-93728996D01*
X124363302Y-93638324D01*
X124349587Y-93545861D01*
X124345000Y-93452500D01*
X124345000Y-91547500D01*
X124349587Y-91454139D01*
X124363302Y-91361676D01*
X124386014Y-91271004D01*
X124417505Y-91182994D01*
X124457470Y-91098495D01*
X124505525Y-91018319D01*
X124561208Y-90943240D01*
X124623981Y-90873981D01*
X124693240Y-90811208D01*
X124768319Y-90755525D01*
X124848495Y-90707470D01*
X124932994Y-90667505D01*
X125021004Y-90636014D01*
X125111676Y-90613302D01*
X125204139Y-90599587D01*
X125297500Y-90595000D01*
X127202500Y-90595000D01*
X127295861Y-90599587D01*
X127295861Y-90599587D01*
G37*
D11*
G04 #@! TD*
G04 #@! TO.P,J5,1*
G04 #@! TO.N,+BATT*
X126250000Y-92500000D03*
D12*
G04 #@! TO.P,H1,1*
G04 #@! TO.N,GND*
X120000000Y-75000000D03*
G04 #@! TD*
D13*
G04 #@! TO.P,C1,2*
G04 #@! TO.N,GND*
X132500000Y-87000000D03*
D14*
G04 #@! TO.P,C1,1*
G04 #@! TO.N,+BATT*
X130000000Y-87000000D03*
G04 #@! TD*
G04 #@! TO.P,C2,1*
G04 #@! TO.N,+5V*
X132500000Y-81000000D03*
D13*
G04 #@! TO.P,C2,2*
G04 #@! TO.N,GND*
X130000000Y-81000000D03*
G04 #@! TD*
D15*
G04 #@! TO.P,J2,6*
G04 #@! TO.N,/Pusher_Reset*
X184500000Y-90500000D03*
G04 #@! TO.P,J2,5*
G04 #@! TO.N,GND*
X182000000Y-90500000D03*
G04 #@! TO.P,J2,4*
G04 #@! TO.N,/Flywheel_Button*
X179500000Y-90500000D03*
G04 #@! TO.P,J2,3*
G04 #@! TO.N,GND*
X177000000Y-90500000D03*
G04 #@! TO.P,J2,2*
G04 #@! TO.N,/Trigger*
X174500000Y-90500000D03*
D16*
G04 #@! TO.P,J2,1*
G04 #@! TO.N,GND*
X172000000Y-90500000D03*
G04 #@! TD*
D15*
G04 #@! TO.P,J3,4*
G04 #@! TO.N,/Magazine*
X165000000Y-90500000D03*
G04 #@! TO.P,J3,3*
G04 #@! TO.N,GND*
X162500000Y-90500000D03*
G04 #@! TO.P,J3,2*
G04 #@! TO.N,/Door*
X160000000Y-90500000D03*
D16*
G04 #@! TO.P,J3,1*
G04 #@! TO.N,GND*
X157500000Y-90500000D03*
G04 #@! TD*
D17*
G04 #@! TO.P,Q1,1*
G04 #@! TO.N,/Pusher*
X148040000Y-86500000D03*
D18*
G04 #@! TO.P,Q1,2*
G04 #@! TO.N,/Pusher_Power*
X145500000Y-86500000D03*
G04 #@! TO.P,Q1,3*
G04 #@! TO.N,GND*
X142960000Y-86500000D03*
G04 #@! TD*
G04 #@! TO.P,Q2,3*
G04 #@! TO.N,GND*
X120000000Y-82500000D03*
G04 #@! TO.P,Q2,2*
G04 #@! TO.N,/Flywheel_Power*
X122540000Y-82500000D03*
D17*
G04 #@! TO.P,Q2,1*
G04 #@! TO.N,/Flywheel*
X125080000Y-82500000D03*
G04 #@! TD*
D18*
G04 #@! TO.P,U1,3*
G04 #@! TO.N,+5V*
X137500000Y-81460000D03*
G04 #@! TO.P,U1,2*
G04 #@! TO.N,GND*
X137500000Y-84000000D03*
D17*
G04 #@! TO.P,U1,1*
G04 #@! TO.N,+BATT*
X137500000Y-86540000D03*
G04 #@! TD*
D19*
G04 #@! TO.P,SW1,4*
G04 #@! TO.N,/Fire_Select*
X164500000Y-76500000D03*
G04 #@! TO.P,SW1,3*
G04 #@! TO.N,Net-(R12-Pad2)*
X158000000Y-76500000D03*
G04 #@! TO.P,SW1,2*
G04 #@! TO.N,GND*
X164500000Y-72000000D03*
D20*
G04 #@! TO.P,SW1,1*
X158000000Y-72000000D03*
G04 #@! TD*
G04 #@! TO.P,SW2,1*
G04 #@! TO.N,GND*
X167500000Y-72000000D03*
D19*
G04 #@! TO.P,SW2,2*
X174000000Y-72000000D03*
G04 #@! TO.P,SW2,3*
G04 #@! TO.N,Net-(R13-Pad2)*
X167500000Y-76500000D03*
G04 #@! TO.P,SW2,4*
G04 #@! TO.N,/Safety_Select*
X174000000Y-76500000D03*
G04 #@! TD*
D21*
G04 #@! TO.P,J6,6*
G04 #@! TO.N,GND*
X128960000Y-74540000D03*
G04 #@! TO.P,J6,5*
G04 #@! TO.N,/Reset*
X128960000Y-72000000D03*
G04 #@! TO.P,J6,4*
G04 #@! TO.N,/Flywheel*
X131500000Y-74540000D03*
G04 #@! TO.P,J6,3*
G04 #@! TO.N,Net-(J6-Pad3)*
X131500000Y-72000000D03*
G04 #@! TO.P,J6,2*
G04 #@! TO.N,+5V*
X134040000Y-74540000D03*
D22*
G04 #@! TO.P,J6,1*
G04 #@! TO.N,/LED4*
X134040000Y-72000000D03*
G04 #@! TD*
D12*
G04 #@! TO.P,H2,1*
G04 #@! TO.N,GND*
X207500000Y-75000000D03*
G04 #@! TD*
G04 #@! TO.P,H3,1*
G04 #@! TO.N,GND*
X120000000Y-90000000D03*
G04 #@! TD*
G04 #@! TO.P,H4,1*
G04 #@! TO.N,GND*
X207500000Y-90000000D03*
G04 #@! TD*
D21*
G04 #@! TO.P,J8,4*
G04 #@! TO.N,/SDA*
X201120000Y-93000000D03*
G04 #@! TO.P,J8,3*
G04 #@! TO.N,/SCL*
X198580000Y-93000000D03*
G04 #@! TO.P,J8,2*
G04 #@! TO.N,GND*
X196040000Y-93000000D03*
D22*
G04 #@! TO.P,J8,1*
G04 #@! TO.N,+5V*
X193500000Y-93000000D03*
G04 #@! TD*
D23*
G04 #@! TO.N,GND*
X192500000Y-85500000D03*
X196000000Y-86000000D03*
X183000000Y-88500000D03*
X186000000Y-88000000D03*
X166500000Y-84000000D03*
X166000000Y-87500000D03*
X141000000Y-86000000D03*
X145000000Y-83000000D03*
X136000000Y-77500000D03*
X132500000Y-77500000D03*
X131500000Y-89000000D03*
X127500000Y-87000000D03*
X139500000Y-89500000D03*
X144000000Y-88500000D03*
X149000000Y-88500000D03*
X130000000Y-84000000D03*
X197000000Y-80500000D03*
X200500000Y-78000000D03*
X195000000Y-79000000D03*
X192000000Y-81000000D03*
X189500000Y-88500000D03*
X188000000Y-86500000D03*
X201500000Y-85500000D03*
X195500000Y-85000000D03*
G04 #@! TO.N,/Pusher_Reset*
X172500000Y-77000000D03*
X150250000Y-76000000D03*
X184560418Y-87650152D03*
G04 #@! TO.N,/Flywheel_Button*
X179500000Y-87750000D03*
X171750000Y-76119982D03*
X150750000Y-75511490D03*
G04 #@! TO.N,/Trigger*
X174500000Y-87750000D03*
X170750000Y-75631472D03*
X151500000Y-75184479D03*
G04 #@! TO.N,/Magazine*
X164500000Y-87750000D03*
X162500000Y-77250000D03*
X148250000Y-77500000D03*
X164500000Y-86221010D03*
G04 #@! TO.N,/Door*
X160000000Y-87750000D03*
X148250000Y-76750000D03*
X160069936Y-85569936D03*
X160069936Y-76569936D03*
G04 #@! TO.N,/Reset*
X188500000Y-91750000D03*
X155000000Y-73500000D03*
X188500000Y-73500000D03*
X155000000Y-70988510D03*
G04 #@! TO.N,/Flywheel*
X148153501Y-75653501D03*
X148250000Y-80750000D03*
G04 #@! TO.N,Net-(J6-Pad3)*
X149750000Y-80750000D03*
X150329021Y-72525000D03*
G04 #@! TO.N,/Pusher*
X147500000Y-81750000D03*
X140750000Y-82500000D03*
G04 #@! TO.N,/LED1*
X180750000Y-72500000D03*
X148000000Y-79250000D03*
X181066919Y-79988510D03*
G04 #@! TO.N,Net-(D1-Pad1)*
X182000000Y-80000000D03*
X182000000Y-75750000D03*
G04 #@! TO.N,Net-(D2-Pad1)*
X179500000Y-75750000D03*
X179500000Y-80315521D03*
G04 #@! TO.N,/LED2*
X178250000Y-72500000D03*
X148000000Y-80000000D03*
X178476049Y-80315521D03*
G04 #@! TO.N,/LED3*
X175750000Y-72500000D03*
X175750000Y-78250000D03*
X148000000Y-78250000D03*
G04 #@! TO.N,Net-(D3-Pad1)*
X177000000Y-75750000D03*
X176959308Y-80642532D03*
G04 #@! TO.N,Net-(R12-Pad2)*
X156500000Y-84500000D03*
G04 #@! TO.N,Net-(R13-Pad2)*
X166500000Y-86500000D03*
G04 #@! TO.N,/Fire_Select*
X164500000Y-81000000D03*
X153000000Y-81000000D03*
G04 #@! TO.N,/Safety_Select*
X174000000Y-81500000D03*
X155000000Y-82250000D03*
G04 #@! TO.N,Net-(C8-Pad1)*
X196750000Y-81250000D03*
X203750000Y-81488510D03*
G04 #@! TO.N,/LED4*
X149000000Y-80750000D03*
X183250000Y-70500000D03*
X149500000Y-70500000D03*
X149679010Y-72524995D03*
G04 #@! TO.N,Net-(D4-Pad1)*
X184500000Y-80000000D03*
X184500000Y-75750000D03*
G04 #@! TO.N,/SDA*
X157250000Y-79560055D03*
X204500000Y-81000000D03*
G04 #@! TO.N,/SCL*
X199000000Y-80500000D03*
X156575643Y-78561409D03*
G04 #@! TO.N,/RX*
X153005881Y-78763528D03*
X186596845Y-79011490D03*
G04 #@! TO.N,/TX*
X186000000Y-77000000D03*
X152250000Y-77988510D03*
G04 #@! TO.N,Net-(R15-Pad2)*
X192000000Y-88250000D03*
X191500000Y-77000000D03*
G04 #@! TD*
D24*
G04 #@! TO.N,GND*
G36*
X149011500Y-70597169D02*
X149085870Y-70776713D01*
X149223287Y-70914130D01*
X149402831Y-70988500D01*
X149597169Y-70988500D01*
X149776713Y-70914130D01*
X149914130Y-70776713D01*
X149988500Y-70597169D01*
X149988500Y-70563500D01*
X154749553Y-70563500D01*
X154723287Y-70574380D01*
X154585870Y-70711797D01*
X154511500Y-70891341D01*
X154511500Y-71085679D01*
X154585870Y-71265223D01*
X154723287Y-71402640D01*
X154902831Y-71477010D01*
X155097169Y-71477010D01*
X155276713Y-71402640D01*
X155414130Y-71265223D01*
X155488500Y-71085679D01*
X155488500Y-70891341D01*
X155414130Y-70711797D01*
X155276713Y-70574380D01*
X155250447Y-70563500D01*
X156628278Y-70563500D01*
X156515506Y-70676271D01*
X156428500Y-70886321D01*
X156428500Y-71666625D01*
X156571375Y-71809500D01*
X157809500Y-71809500D01*
X157809500Y-71789500D01*
X158190500Y-71789500D01*
X158190500Y-71809500D01*
X159428625Y-71809500D01*
X159571500Y-71666625D01*
X159571500Y-70886321D01*
X159484494Y-70676271D01*
X159371722Y-70563500D01*
X163809393Y-70563500D01*
X163718997Y-70600943D01*
X163611573Y-70842165D01*
X164500000Y-71730592D01*
X165388427Y-70842165D01*
X165281003Y-70600943D01*
X165165227Y-70563500D01*
X166128278Y-70563500D01*
X166015506Y-70676271D01*
X165928500Y-70886321D01*
X165928500Y-71290079D01*
X165899057Y-71218997D01*
X165657835Y-71111573D01*
X164769408Y-72000000D01*
X165657835Y-72888427D01*
X165899057Y-72781003D01*
X165928500Y-72689964D01*
X165928500Y-73113679D01*
X166015506Y-73323729D01*
X166176272Y-73484494D01*
X166386322Y-73571500D01*
X167166625Y-73571500D01*
X167309500Y-73428625D01*
X167309500Y-72190500D01*
X167690500Y-72190500D01*
X167690500Y-73428625D01*
X167833375Y-73571500D01*
X168613678Y-73571500D01*
X168823728Y-73484494D01*
X168984494Y-73323729D01*
X169053209Y-73157835D01*
X173111573Y-73157835D01*
X173218997Y-73399057D01*
X173813844Y-73591436D01*
X174437030Y-73541535D01*
X174771891Y-73402831D01*
X188011500Y-73402831D01*
X188011500Y-73597169D01*
X188085870Y-73776713D01*
X188223287Y-73914130D01*
X188402831Y-73988500D01*
X188597169Y-73988500D01*
X188776713Y-73914130D01*
X188914130Y-73776713D01*
X188988500Y-73597169D01*
X188988500Y-73402831D01*
X188914130Y-73223287D01*
X188776713Y-73085870D01*
X188597169Y-73011500D01*
X188402831Y-73011500D01*
X188223287Y-73085870D01*
X188085870Y-73223287D01*
X188011500Y-73402831D01*
X174771891Y-73402831D01*
X174781003Y-73399057D01*
X174888427Y-73157835D01*
X174000000Y-72269408D01*
X173111573Y-73157835D01*
X169053209Y-73157835D01*
X169071500Y-73113679D01*
X169071500Y-72333375D01*
X168928625Y-72190500D01*
X167690500Y-72190500D01*
X167309500Y-72190500D01*
X167289500Y-72190500D01*
X167289500Y-71813844D01*
X172408564Y-71813844D01*
X172458465Y-72437030D01*
X172600943Y-72781003D01*
X172842165Y-72888427D01*
X173730592Y-72000000D01*
X174269408Y-72000000D01*
X175157835Y-72888427D01*
X175358307Y-72799150D01*
X175473287Y-72914130D01*
X175652831Y-72988500D01*
X175847169Y-72988500D01*
X176026713Y-72914130D01*
X176164130Y-72776713D01*
X176238500Y-72597169D01*
X176238500Y-72402831D01*
X177761500Y-72402831D01*
X177761500Y-72597169D01*
X177835870Y-72776713D01*
X177973287Y-72914130D01*
X178152831Y-72988500D01*
X178347169Y-72988500D01*
X178526713Y-72914130D01*
X178664130Y-72776713D01*
X178738500Y-72597169D01*
X178738500Y-72402831D01*
X180261500Y-72402831D01*
X180261500Y-72597169D01*
X180335870Y-72776713D01*
X180473287Y-72914130D01*
X180652831Y-72988500D01*
X180847169Y-72988500D01*
X181026713Y-72914130D01*
X181164130Y-72776713D01*
X181238500Y-72597169D01*
X181238500Y-72402831D01*
X181175482Y-72250692D01*
X205020099Y-72250692D01*
X207500000Y-74730592D01*
X209979901Y-72250692D01*
X209603369Y-71780863D01*
X208211349Y-71220981D01*
X206711033Y-71236420D01*
X205396631Y-71780863D01*
X205020099Y-72250692D01*
X181175482Y-72250692D01*
X181164130Y-72223287D01*
X181026713Y-72085870D01*
X180847169Y-72011500D01*
X180652831Y-72011500D01*
X180473287Y-72085870D01*
X180335870Y-72223287D01*
X180261500Y-72402831D01*
X178738500Y-72402831D01*
X178664130Y-72223287D01*
X178526713Y-72085870D01*
X178347169Y-72011500D01*
X178152831Y-72011500D01*
X177973287Y-72085870D01*
X177835870Y-72223287D01*
X177761500Y-72402831D01*
X176238500Y-72402831D01*
X176164130Y-72223287D01*
X176026713Y-72085870D01*
X175847169Y-72011500D01*
X175652831Y-72011500D01*
X175579871Y-72041721D01*
X175541535Y-71562970D01*
X175399057Y-71218997D01*
X175157835Y-71111573D01*
X174269408Y-72000000D01*
X173730592Y-72000000D01*
X172842165Y-71111573D01*
X172600943Y-71218997D01*
X172408564Y-71813844D01*
X167289500Y-71813844D01*
X167289500Y-71809500D01*
X167309500Y-71809500D01*
X167309500Y-71789500D01*
X167690500Y-71789500D01*
X167690500Y-71809500D01*
X168928625Y-71809500D01*
X169071500Y-71666625D01*
X169071500Y-70886321D01*
X168984494Y-70676271D01*
X168871722Y-70563500D01*
X173309393Y-70563500D01*
X173218997Y-70600943D01*
X173111573Y-70842165D01*
X174000000Y-71730592D01*
X174888427Y-70842165D01*
X174781003Y-70600943D01*
X174665227Y-70563500D01*
X182761500Y-70563500D01*
X182761500Y-70597169D01*
X182835870Y-70776713D01*
X182973287Y-70914130D01*
X183152831Y-70988500D01*
X183347169Y-70988500D01*
X183526713Y-70914130D01*
X183664130Y-70776713D01*
X183738500Y-70597169D01*
X183738500Y-70563500D01*
X211936500Y-70563500D01*
X211936500Y-94436500D01*
X153635639Y-94436500D01*
X153815992Y-94315992D01*
X154080707Y-93919818D01*
X154173662Y-93452500D01*
X154173662Y-91547500D01*
X154080707Y-91080182D01*
X153915796Y-90833375D01*
X156053500Y-90833375D01*
X156053500Y-91488679D01*
X156140506Y-91698729D01*
X156301272Y-91859494D01*
X156511322Y-91946500D01*
X157166625Y-91946500D01*
X157309500Y-91803625D01*
X157309500Y-90690500D01*
X156196375Y-90690500D01*
X156053500Y-90833375D01*
X153915796Y-90833375D01*
X153815992Y-90684008D01*
X153419818Y-90419293D01*
X152952500Y-90326338D01*
X151047500Y-90326338D01*
X150580182Y-90419293D01*
X150184008Y-90684008D01*
X149919293Y-91080182D01*
X149826338Y-91547500D01*
X149826338Y-93452500D01*
X149919293Y-93919818D01*
X150184008Y-94315992D01*
X150364361Y-94436500D01*
X149135639Y-94436500D01*
X149315992Y-94315992D01*
X149580707Y-93919818D01*
X149673662Y-93452500D01*
X149673662Y-91547500D01*
X149580707Y-91080182D01*
X149315992Y-90684008D01*
X148919818Y-90419293D01*
X148452500Y-90326338D01*
X146547500Y-90326338D01*
X146080182Y-90419293D01*
X145684008Y-90684008D01*
X145419293Y-91080182D01*
X145326338Y-91547500D01*
X145326338Y-93452500D01*
X145419293Y-93919818D01*
X145684008Y-94315992D01*
X145864361Y-94436500D01*
X143976500Y-94436500D01*
X143976500Y-92833375D01*
X143833625Y-92690500D01*
X141690500Y-92690500D01*
X141690500Y-92710500D01*
X141309500Y-92710500D01*
X141309500Y-92690500D01*
X141289500Y-92690500D01*
X141289500Y-92309500D01*
X141309500Y-92309500D01*
X141309500Y-90166375D01*
X141690500Y-90166375D01*
X141690500Y-92309500D01*
X143833625Y-92309500D01*
X143976500Y-92166625D01*
X143976500Y-90481321D01*
X143889494Y-90271271D01*
X143728728Y-90110506D01*
X143518678Y-90023500D01*
X141833375Y-90023500D01*
X141690500Y-90166375D01*
X141309500Y-90166375D01*
X141166625Y-90023500D01*
X139481322Y-90023500D01*
X139271272Y-90110506D01*
X139110506Y-90271271D01*
X139023500Y-90481321D01*
X139023500Y-90994566D01*
X138815992Y-90684008D01*
X138419818Y-90419293D01*
X137952500Y-90326338D01*
X136047500Y-90326338D01*
X135580182Y-90419293D01*
X135184008Y-90684008D01*
X134919293Y-91080182D01*
X134826338Y-91547500D01*
X134826338Y-93452500D01*
X134919293Y-93919818D01*
X135184008Y-94315992D01*
X135364361Y-94436500D01*
X132385639Y-94436500D01*
X132565992Y-94315992D01*
X132830707Y-93919818D01*
X132923662Y-93452500D01*
X132923662Y-91547500D01*
X132830707Y-91080182D01*
X132565992Y-90684008D01*
X132169818Y-90419293D01*
X131702500Y-90326338D01*
X129797500Y-90326338D01*
X129330182Y-90419293D01*
X128934008Y-90684008D01*
X128669293Y-91080182D01*
X128576338Y-91547500D01*
X128576338Y-93452500D01*
X128669293Y-93919818D01*
X128934008Y-94315992D01*
X129114361Y-94436500D01*
X127885639Y-94436500D01*
X128065992Y-94315992D01*
X128330707Y-93919818D01*
X128423662Y-93452500D01*
X128423662Y-91547500D01*
X128330707Y-91080182D01*
X128065992Y-90684008D01*
X127669818Y-90419293D01*
X127202500Y-90326338D01*
X125297500Y-90326338D01*
X124830182Y-90419293D01*
X124434008Y-90684008D01*
X124169293Y-91080182D01*
X124076338Y-91547500D01*
X124076338Y-93452500D01*
X124169293Y-93919818D01*
X124434008Y-94315992D01*
X124614361Y-94436500D01*
X115563500Y-94436500D01*
X115563500Y-92749308D01*
X117520099Y-92749308D01*
X117896631Y-93219137D01*
X119288651Y-93779019D01*
X120788967Y-93763580D01*
X122103369Y-93219137D01*
X122479901Y-92749308D01*
X120000000Y-90269408D01*
X117520099Y-92749308D01*
X115563500Y-92749308D01*
X115563500Y-89288651D01*
X116220981Y-89288651D01*
X116236420Y-90788967D01*
X116780863Y-92103369D01*
X117250692Y-92479901D01*
X119730592Y-90000000D01*
X120269408Y-90000000D01*
X122749308Y-92479901D01*
X123219137Y-92103369D01*
X123779019Y-90711349D01*
X123766671Y-89511321D01*
X156053500Y-89511321D01*
X156053500Y-90166625D01*
X156196375Y-90309500D01*
X157309500Y-90309500D01*
X157309500Y-89196375D01*
X157690500Y-89196375D01*
X157690500Y-90309500D01*
X157710500Y-90309500D01*
X157710500Y-90690500D01*
X157690500Y-90690500D01*
X157690500Y-91803625D01*
X157833375Y-91946500D01*
X158488678Y-91946500D01*
X158698728Y-91859494D01*
X158859494Y-91698729D01*
X158946500Y-91488679D01*
X158946500Y-90931671D01*
X159034826Y-91144909D01*
X159355091Y-91465174D01*
X159773538Y-91638500D01*
X160226462Y-91638500D01*
X160399411Y-91566862D01*
X161702545Y-91566862D01*
X161794491Y-91795148D01*
X162343826Y-91966547D01*
X162916938Y-91914678D01*
X163205509Y-91795148D01*
X163297455Y-91566862D01*
X162500000Y-90769408D01*
X161702545Y-91566862D01*
X160399411Y-91566862D01*
X160644909Y-91465174D01*
X160965174Y-91144909D01*
X161080710Y-90865980D01*
X161085322Y-90916938D01*
X161204852Y-91205509D01*
X161433138Y-91297455D01*
X162230592Y-90500000D01*
X162769408Y-90500000D01*
X163566862Y-91297455D01*
X163795148Y-91205509D01*
X163908907Y-90840912D01*
X164034826Y-91144909D01*
X164355091Y-91465174D01*
X164773538Y-91638500D01*
X165226462Y-91638500D01*
X165644909Y-91465174D01*
X165965174Y-91144909D01*
X166094215Y-90833375D01*
X170553500Y-90833375D01*
X170553500Y-91488679D01*
X170640506Y-91698729D01*
X170801272Y-91859494D01*
X171011322Y-91946500D01*
X171666625Y-91946500D01*
X171809500Y-91803625D01*
X171809500Y-90690500D01*
X170696375Y-90690500D01*
X170553500Y-90833375D01*
X166094215Y-90833375D01*
X166138500Y-90726462D01*
X166138500Y-90273538D01*
X165965174Y-89855091D01*
X165644909Y-89534826D01*
X165588163Y-89511321D01*
X170553500Y-89511321D01*
X170553500Y-90166625D01*
X170696375Y-90309500D01*
X171809500Y-90309500D01*
X171809500Y-89196375D01*
X172190500Y-89196375D01*
X172190500Y-90309500D01*
X172210500Y-90309500D01*
X172210500Y-90690500D01*
X172190500Y-90690500D01*
X172190500Y-91803625D01*
X172333375Y-91946500D01*
X172988678Y-91946500D01*
X173198728Y-91859494D01*
X173359494Y-91698729D01*
X173446500Y-91488679D01*
X173446500Y-90931671D01*
X173534826Y-91144909D01*
X173855091Y-91465174D01*
X174273538Y-91638500D01*
X174726462Y-91638500D01*
X174899411Y-91566862D01*
X176202545Y-91566862D01*
X176294491Y-91795148D01*
X176843826Y-91966547D01*
X177416938Y-91914678D01*
X177705509Y-91795148D01*
X177797455Y-91566862D01*
X177000000Y-90769408D01*
X176202545Y-91566862D01*
X174899411Y-91566862D01*
X175144909Y-91465174D01*
X175465174Y-91144909D01*
X175580710Y-90865980D01*
X175585322Y-90916938D01*
X175704852Y-91205509D01*
X175933138Y-91297455D01*
X176730592Y-90500000D01*
X177269408Y-90500000D01*
X178066862Y-91297455D01*
X178295148Y-91205509D01*
X178408907Y-90840912D01*
X178534826Y-91144909D01*
X178855091Y-91465174D01*
X179273538Y-91638500D01*
X179726462Y-91638500D01*
X179899411Y-91566862D01*
X181202545Y-91566862D01*
X181294491Y-91795148D01*
X181843826Y-91966547D01*
X182416938Y-91914678D01*
X182705509Y-91795148D01*
X182762829Y-91652831D01*
X188011500Y-91652831D01*
X188011500Y-91847169D01*
X188085870Y-92026713D01*
X188223287Y-92164130D01*
X188402831Y-92238500D01*
X188597169Y-92238500D01*
X188776713Y-92164130D01*
X188790843Y-92150000D01*
X192381338Y-92150000D01*
X192381338Y-93850000D01*
X192401789Y-93952812D01*
X192460027Y-94039973D01*
X192547188Y-94098211D01*
X192650000Y-94118662D01*
X194350000Y-94118662D01*
X194452812Y-94098211D01*
X194539973Y-94039973D01*
X194598211Y-93952812D01*
X194618662Y-93850000D01*
X194618662Y-93190502D01*
X194774181Y-93190502D01*
X194678451Y-93408523D01*
X194938428Y-93898468D01*
X195366109Y-94251630D01*
X195631480Y-94361533D01*
X195849500Y-94264354D01*
X195849500Y-93190500D01*
X195829500Y-93190500D01*
X195829500Y-92809500D01*
X195849500Y-92809500D01*
X195849500Y-91735646D01*
X196230500Y-91735646D01*
X196230500Y-92809500D01*
X196250500Y-92809500D01*
X196250500Y-93190500D01*
X196230500Y-93190500D01*
X196230500Y-94264354D01*
X196448520Y-94361533D01*
X196713891Y-94251630D01*
X197141572Y-93898468D01*
X197401549Y-93408523D01*
X197305819Y-93190502D01*
X197461500Y-93190502D01*
X197461500Y-93084529D01*
X197531107Y-93434466D01*
X197777212Y-93802788D01*
X198145534Y-94048893D01*
X198470334Y-94113500D01*
X198689666Y-94113500D01*
X199014466Y-94048893D01*
X199382788Y-93802788D01*
X199628893Y-93434466D01*
X199715314Y-93000000D01*
X199984686Y-93000000D01*
X200071107Y-93434466D01*
X200317212Y-93802788D01*
X200685534Y-94048893D01*
X201010334Y-94113500D01*
X201229666Y-94113500D01*
X201554466Y-94048893D01*
X201922788Y-93802788D01*
X202168893Y-93434466D01*
X202255314Y-93000000D01*
X202205449Y-92749308D01*
X205020099Y-92749308D01*
X205396631Y-93219137D01*
X206788651Y-93779019D01*
X208288967Y-93763580D01*
X209603369Y-93219137D01*
X209979901Y-92749308D01*
X207500000Y-90269408D01*
X205020099Y-92749308D01*
X202205449Y-92749308D01*
X202168893Y-92565534D01*
X201922788Y-92197212D01*
X201554466Y-91951107D01*
X201229666Y-91886500D01*
X201010334Y-91886500D01*
X200685534Y-91951107D01*
X200317212Y-92197212D01*
X200071107Y-92565534D01*
X199984686Y-93000000D01*
X199715314Y-93000000D01*
X199628893Y-92565534D01*
X199382788Y-92197212D01*
X199014466Y-91951107D01*
X198689666Y-91886500D01*
X198470334Y-91886500D01*
X198145534Y-91951107D01*
X197777212Y-92197212D01*
X197531107Y-92565534D01*
X197461500Y-92915471D01*
X197461500Y-92809498D01*
X197305819Y-92809498D01*
X197401549Y-92591477D01*
X197141572Y-92101532D01*
X196713891Y-91748370D01*
X196448520Y-91638467D01*
X196230500Y-91735646D01*
X195849500Y-91735646D01*
X195631480Y-91638467D01*
X195366109Y-91748370D01*
X194938428Y-92101532D01*
X194678451Y-92591477D01*
X194774181Y-92809498D01*
X194618662Y-92809498D01*
X194618662Y-92150000D01*
X194598211Y-92047188D01*
X194539973Y-91960027D01*
X194452812Y-91901789D01*
X194350000Y-91881338D01*
X192650000Y-91881338D01*
X192547188Y-91901789D01*
X192460027Y-91960027D01*
X192401789Y-92047188D01*
X192381338Y-92150000D01*
X188790843Y-92150000D01*
X188914130Y-92026713D01*
X188988500Y-91847169D01*
X188988500Y-91652831D01*
X188914130Y-91473287D01*
X188776713Y-91335870D01*
X188597169Y-91261500D01*
X188402831Y-91261500D01*
X188223287Y-91335870D01*
X188085870Y-91473287D01*
X188011500Y-91652831D01*
X182762829Y-91652831D01*
X182797455Y-91566862D01*
X182000000Y-90769408D01*
X181202545Y-91566862D01*
X179899411Y-91566862D01*
X180144909Y-91465174D01*
X180465174Y-91144909D01*
X180580710Y-90865980D01*
X180585322Y-90916938D01*
X180704852Y-91205509D01*
X180933138Y-91297455D01*
X181730592Y-90500000D01*
X182269408Y-90500000D01*
X183066862Y-91297455D01*
X183295148Y-91205509D01*
X183408907Y-90840912D01*
X183534826Y-91144909D01*
X183855091Y-91465174D01*
X184273538Y-91638500D01*
X184726462Y-91638500D01*
X185144909Y-91465174D01*
X185465174Y-91144909D01*
X185638500Y-90726462D01*
X185638500Y-90273538D01*
X185465174Y-89855091D01*
X185144909Y-89534826D01*
X184726462Y-89361500D01*
X184273538Y-89361500D01*
X183855091Y-89534826D01*
X183534826Y-89855091D01*
X183419290Y-90134020D01*
X183414678Y-90083062D01*
X183295148Y-89794491D01*
X183066862Y-89702545D01*
X182269408Y-90500000D01*
X181730592Y-90500000D01*
X180933138Y-89702545D01*
X180704852Y-89794491D01*
X180591093Y-90159088D01*
X180465174Y-89855091D01*
X180144909Y-89534826D01*
X179899412Y-89433138D01*
X181202545Y-89433138D01*
X182000000Y-90230592D01*
X182797455Y-89433138D01*
X182739261Y-89288651D01*
X203720981Y-89288651D01*
X203736420Y-90788967D01*
X204280863Y-92103369D01*
X204750692Y-92479901D01*
X207230592Y-90000000D01*
X207769408Y-90000000D01*
X210249308Y-92479901D01*
X210719137Y-92103369D01*
X211279019Y-90711349D01*
X211263580Y-89211033D01*
X210719137Y-87896631D01*
X210249308Y-87520099D01*
X207769408Y-90000000D01*
X207230592Y-90000000D01*
X204750692Y-87520099D01*
X204280863Y-87896631D01*
X203720981Y-89288651D01*
X182739261Y-89288651D01*
X182705509Y-89204852D01*
X182156174Y-89033453D01*
X181583062Y-89085322D01*
X181294491Y-89204852D01*
X181202545Y-89433138D01*
X179899412Y-89433138D01*
X179726462Y-89361500D01*
X179273538Y-89361500D01*
X178855091Y-89534826D01*
X178534826Y-89855091D01*
X178419290Y-90134020D01*
X178414678Y-90083062D01*
X178295148Y-89794491D01*
X178066862Y-89702545D01*
X177269408Y-90500000D01*
X176730592Y-90500000D01*
X175933138Y-89702545D01*
X175704852Y-89794491D01*
X175591093Y-90159088D01*
X175465174Y-89855091D01*
X175144909Y-89534826D01*
X174899412Y-89433138D01*
X176202545Y-89433138D01*
X177000000Y-90230592D01*
X177797455Y-89433138D01*
X177705509Y-89204852D01*
X177156174Y-89033453D01*
X176583062Y-89085322D01*
X176294491Y-89204852D01*
X176202545Y-89433138D01*
X174899412Y-89433138D01*
X174726462Y-89361500D01*
X174273538Y-89361500D01*
X173855091Y-89534826D01*
X173534826Y-89855091D01*
X173446500Y-90068329D01*
X173446500Y-89511321D01*
X173359494Y-89301271D01*
X173198728Y-89140506D01*
X172988678Y-89053500D01*
X172333375Y-89053500D01*
X172190500Y-89196375D01*
X171809500Y-89196375D01*
X171666625Y-89053500D01*
X171011322Y-89053500D01*
X170801272Y-89140506D01*
X170640506Y-89301271D01*
X170553500Y-89511321D01*
X165588163Y-89511321D01*
X165226462Y-89361500D01*
X164773538Y-89361500D01*
X164355091Y-89534826D01*
X164034826Y-89855091D01*
X163919290Y-90134020D01*
X163914678Y-90083062D01*
X163795148Y-89794491D01*
X163566862Y-89702545D01*
X162769408Y-90500000D01*
X162230592Y-90500000D01*
X161433138Y-89702545D01*
X161204852Y-89794491D01*
X161091093Y-90159088D01*
X160965174Y-89855091D01*
X160644909Y-89534826D01*
X160399412Y-89433138D01*
X161702545Y-89433138D01*
X162500000Y-90230592D01*
X163297455Y-89433138D01*
X163205509Y-89204852D01*
X162656174Y-89033453D01*
X162083062Y-89085322D01*
X161794491Y-89204852D01*
X161702545Y-89433138D01*
X160399412Y-89433138D01*
X160226462Y-89361500D01*
X159773538Y-89361500D01*
X159355091Y-89534826D01*
X159034826Y-89855091D01*
X158946500Y-90068329D01*
X158946500Y-89511321D01*
X158859494Y-89301271D01*
X158698728Y-89140506D01*
X158488678Y-89053500D01*
X157833375Y-89053500D01*
X157690500Y-89196375D01*
X157309500Y-89196375D01*
X157166625Y-89053500D01*
X156511322Y-89053500D01*
X156301272Y-89140506D01*
X156140506Y-89301271D01*
X156053500Y-89511321D01*
X123766671Y-89511321D01*
X123763580Y-89211033D01*
X123219137Y-87896631D01*
X122749308Y-87520099D01*
X120269408Y-90000000D01*
X119730592Y-90000000D01*
X117250692Y-87520099D01*
X116780863Y-87896631D01*
X116220981Y-89288651D01*
X115563500Y-89288651D01*
X115563500Y-87250692D01*
X117520099Y-87250692D01*
X120000000Y-89730592D01*
X122479901Y-87250692D01*
X122103369Y-86780863D01*
X120711349Y-86220981D01*
X119211033Y-86236420D01*
X117896631Y-86780863D01*
X117520099Y-87250692D01*
X115563500Y-87250692D01*
X115563500Y-86200000D01*
X128931338Y-86200000D01*
X128931338Y-87800000D01*
X128951789Y-87902812D01*
X129010027Y-87989973D01*
X129097188Y-88048211D01*
X129200000Y-88068662D01*
X130800000Y-88068662D01*
X130902812Y-88048211D01*
X130956717Y-88012193D01*
X131757215Y-88012193D01*
X131839840Y-88232730D01*
X132361837Y-88391525D01*
X132904867Y-88338475D01*
X133160160Y-88232730D01*
X133242785Y-88012193D01*
X132500000Y-87269408D01*
X131757215Y-88012193D01*
X130956717Y-88012193D01*
X130989973Y-87989973D01*
X131048211Y-87902812D01*
X131068662Y-87800000D01*
X131068662Y-86861837D01*
X131108475Y-86861837D01*
X131161525Y-87404867D01*
X131267270Y-87660160D01*
X131487807Y-87742785D01*
X132230592Y-87000000D01*
X132769408Y-87000000D01*
X133512193Y-87742785D01*
X133732730Y-87660160D01*
X133891525Y-87138163D01*
X133838475Y-86595133D01*
X133732730Y-86339840D01*
X133512193Y-86257215D01*
X132769408Y-87000000D01*
X132230592Y-87000000D01*
X131487807Y-86257215D01*
X131267270Y-86339840D01*
X131108475Y-86861837D01*
X131068662Y-86861837D01*
X131068662Y-86200000D01*
X131048211Y-86097188D01*
X130989973Y-86010027D01*
X130956718Y-85987807D01*
X131757215Y-85987807D01*
X132500000Y-86730592D01*
X133242785Y-85987807D01*
X133160160Y-85767270D01*
X132638163Y-85608475D01*
X132095133Y-85661525D01*
X131839840Y-85767270D01*
X131757215Y-85987807D01*
X130956718Y-85987807D01*
X130902812Y-85951789D01*
X130800000Y-85931338D01*
X129200000Y-85931338D01*
X129097188Y-85951789D01*
X129010027Y-86010027D01*
X128951789Y-86097188D01*
X128931338Y-86200000D01*
X115563500Y-86200000D01*
X115563500Y-84416413D01*
X136088633Y-84416413D01*
X136355421Y-84924822D01*
X136796461Y-85292436D01*
X136986973Y-85371338D01*
X136600000Y-85371338D01*
X136497188Y-85391789D01*
X136410027Y-85450027D01*
X136351789Y-85537188D01*
X136331338Y-85640000D01*
X136331338Y-87440000D01*
X136351789Y-87542812D01*
X136410027Y-87629973D01*
X136497188Y-87688211D01*
X136600000Y-87708662D01*
X138400000Y-87708662D01*
X138502812Y-87688211D01*
X138589973Y-87629973D01*
X138648211Y-87542812D01*
X138668662Y-87440000D01*
X138668662Y-86916411D01*
X141548648Y-86916411D01*
X141667564Y-87203539D01*
X142035178Y-87644579D01*
X142543587Y-87911367D01*
X142769500Y-87816257D01*
X142769500Y-86690500D01*
X141645103Y-86690500D01*
X141548648Y-86916411D01*
X138668662Y-86916411D01*
X138668662Y-86083589D01*
X141548648Y-86083589D01*
X141645103Y-86309500D01*
X142769500Y-86309500D01*
X142769500Y-85183743D01*
X143150500Y-85183743D01*
X143150500Y-86309500D01*
X143170500Y-86309500D01*
X143170500Y-86690500D01*
X143150500Y-86690500D01*
X143150500Y-87816257D01*
X143376413Y-87911367D01*
X143884822Y-87644579D01*
X144252436Y-87203539D01*
X144371352Y-86916411D01*
X144274898Y-86690502D01*
X144351599Y-86690502D01*
X144404007Y-86953975D01*
X144661163Y-87338837D01*
X145046025Y-87595993D01*
X145385407Y-87663500D01*
X145614593Y-87663500D01*
X145953975Y-87595993D01*
X146338837Y-87338837D01*
X146595993Y-86953975D01*
X146686294Y-86500000D01*
X146595993Y-86046025D01*
X146338837Y-85661163D01*
X146247300Y-85600000D01*
X146871338Y-85600000D01*
X146871338Y-87400000D01*
X146891789Y-87502812D01*
X146950027Y-87589973D01*
X147037188Y-87648211D01*
X147140000Y-87668662D01*
X148940000Y-87668662D01*
X149019586Y-87652831D01*
X159511500Y-87652831D01*
X159511500Y-87847169D01*
X159585870Y-88026713D01*
X159723287Y-88164130D01*
X159902831Y-88238500D01*
X160097169Y-88238500D01*
X160276713Y-88164130D01*
X160414130Y-88026713D01*
X160488500Y-87847169D01*
X160488500Y-87652831D01*
X164011500Y-87652831D01*
X164011500Y-87847169D01*
X164085870Y-88026713D01*
X164223287Y-88164130D01*
X164402831Y-88238500D01*
X164597169Y-88238500D01*
X164776713Y-88164130D01*
X164914130Y-88026713D01*
X164988500Y-87847169D01*
X164988500Y-87652831D01*
X174011500Y-87652831D01*
X174011500Y-87847169D01*
X174085870Y-88026713D01*
X174223287Y-88164130D01*
X174402831Y-88238500D01*
X174597169Y-88238500D01*
X174776713Y-88164130D01*
X174914130Y-88026713D01*
X174988500Y-87847169D01*
X174988500Y-87652831D01*
X179011500Y-87652831D01*
X179011500Y-87847169D01*
X179085870Y-88026713D01*
X179223287Y-88164130D01*
X179402831Y-88238500D01*
X179597169Y-88238500D01*
X179776713Y-88164130D01*
X179788012Y-88152831D01*
X191511500Y-88152831D01*
X191511500Y-88347169D01*
X191585870Y-88526713D01*
X191723287Y-88664130D01*
X191902831Y-88738500D01*
X192097169Y-88738500D01*
X192276713Y-88664130D01*
X192414130Y-88526713D01*
X192488500Y-88347169D01*
X192488500Y-88152831D01*
X192414130Y-87973287D01*
X192276713Y-87835870D01*
X192097169Y-87761500D01*
X191902831Y-87761500D01*
X191723287Y-87835870D01*
X191585870Y-87973287D01*
X191511500Y-88152831D01*
X179788012Y-88152831D01*
X179914130Y-88026713D01*
X179988500Y-87847169D01*
X179988500Y-87652831D01*
X179947142Y-87552983D01*
X184071918Y-87552983D01*
X184071918Y-87747321D01*
X184146288Y-87926865D01*
X184283705Y-88064282D01*
X184463249Y-88138652D01*
X184657587Y-88138652D01*
X184837131Y-88064282D01*
X184974548Y-87926865D01*
X185048918Y-87747321D01*
X185048918Y-87552983D01*
X184974548Y-87373439D01*
X184851801Y-87250692D01*
X205020099Y-87250692D01*
X207500000Y-89730592D01*
X209979901Y-87250692D01*
X209603369Y-86780863D01*
X208211349Y-86220981D01*
X206711033Y-86236420D01*
X205396631Y-86780863D01*
X205020099Y-87250692D01*
X184851801Y-87250692D01*
X184837131Y-87236022D01*
X184657587Y-87161652D01*
X184463249Y-87161652D01*
X184283705Y-87236022D01*
X184146288Y-87373439D01*
X184071918Y-87552983D01*
X179947142Y-87552983D01*
X179914130Y-87473287D01*
X179776713Y-87335870D01*
X179597169Y-87261500D01*
X179402831Y-87261500D01*
X179223287Y-87335870D01*
X179085870Y-87473287D01*
X179011500Y-87652831D01*
X174988500Y-87652831D01*
X174914130Y-87473287D01*
X174776713Y-87335870D01*
X174597169Y-87261500D01*
X174402831Y-87261500D01*
X174223287Y-87335870D01*
X174085870Y-87473287D01*
X174011500Y-87652831D01*
X164988500Y-87652831D01*
X164914130Y-87473287D01*
X164776713Y-87335870D01*
X164597169Y-87261500D01*
X164402831Y-87261500D01*
X164223287Y-87335870D01*
X164085870Y-87473287D01*
X164011500Y-87652831D01*
X160488500Y-87652831D01*
X160414130Y-87473287D01*
X160276713Y-87335870D01*
X160097169Y-87261500D01*
X159902831Y-87261500D01*
X159723287Y-87335870D01*
X159585870Y-87473287D01*
X159511500Y-87652831D01*
X149019586Y-87652831D01*
X149042812Y-87648211D01*
X149129973Y-87589973D01*
X149188211Y-87502812D01*
X149208662Y-87400000D01*
X149208662Y-86123841D01*
X164011500Y-86123841D01*
X164011500Y-86318179D01*
X164085870Y-86497723D01*
X164223287Y-86635140D01*
X164402831Y-86709510D01*
X164597169Y-86709510D01*
X164776713Y-86635140D01*
X164914130Y-86497723D01*
X164953435Y-86402831D01*
X166011500Y-86402831D01*
X166011500Y-86597169D01*
X166085870Y-86776713D01*
X166223287Y-86914130D01*
X166402831Y-86988500D01*
X166597169Y-86988500D01*
X166776713Y-86914130D01*
X166914130Y-86776713D01*
X166988500Y-86597169D01*
X166988500Y-86402831D01*
X166914130Y-86223287D01*
X166776713Y-86085870D01*
X166597169Y-86011500D01*
X166402831Y-86011500D01*
X166223287Y-86085870D01*
X166085870Y-86223287D01*
X166011500Y-86402831D01*
X164953435Y-86402831D01*
X164988500Y-86318179D01*
X164988500Y-86123841D01*
X164914130Y-85944297D01*
X164776713Y-85806880D01*
X164597169Y-85732510D01*
X164402831Y-85732510D01*
X164223287Y-85806880D01*
X164085870Y-85944297D01*
X164011500Y-86123841D01*
X149208662Y-86123841D01*
X149208662Y-85600000D01*
X149188211Y-85497188D01*
X149171894Y-85472767D01*
X159581436Y-85472767D01*
X159581436Y-85667105D01*
X159655806Y-85846649D01*
X159793223Y-85984066D01*
X159972767Y-86058436D01*
X160167105Y-86058436D01*
X160346649Y-85984066D01*
X160484066Y-85846649D01*
X160558436Y-85667105D01*
X160558436Y-85472767D01*
X160484066Y-85293223D01*
X160346649Y-85155806D01*
X160167105Y-85081436D01*
X159972767Y-85081436D01*
X159793223Y-85155806D01*
X159655806Y-85293223D01*
X159581436Y-85472767D01*
X149171894Y-85472767D01*
X149129973Y-85410027D01*
X149042812Y-85351789D01*
X148940000Y-85331338D01*
X147140000Y-85331338D01*
X147037188Y-85351789D01*
X146950027Y-85410027D01*
X146891789Y-85497188D01*
X146871338Y-85600000D01*
X146247300Y-85600000D01*
X145953975Y-85404007D01*
X145614593Y-85336500D01*
X145385407Y-85336500D01*
X145046025Y-85404007D01*
X144661163Y-85661163D01*
X144404007Y-86046025D01*
X144351599Y-86309498D01*
X144274898Y-86309498D01*
X144371352Y-86083589D01*
X144252436Y-85796461D01*
X143884822Y-85355421D01*
X143376413Y-85088633D01*
X143150500Y-85183743D01*
X142769500Y-85183743D01*
X142543587Y-85088633D01*
X142035178Y-85355421D01*
X141667564Y-85796461D01*
X141548648Y-86083589D01*
X138668662Y-86083589D01*
X138668662Y-85640000D01*
X138648211Y-85537188D01*
X138589973Y-85450027D01*
X138502812Y-85391789D01*
X138400000Y-85371338D01*
X138013027Y-85371338D01*
X138203539Y-85292436D01*
X138644579Y-84924822D01*
X138911367Y-84416413D01*
X138905649Y-84402831D01*
X156011500Y-84402831D01*
X156011500Y-84597169D01*
X156085870Y-84776713D01*
X156223287Y-84914130D01*
X156402831Y-84988500D01*
X156597169Y-84988500D01*
X156776713Y-84914130D01*
X156914130Y-84776713D01*
X156988500Y-84597169D01*
X156988500Y-84402831D01*
X156914130Y-84223287D01*
X156776713Y-84085870D01*
X156597169Y-84011500D01*
X156402831Y-84011500D01*
X156223287Y-84085870D01*
X156085870Y-84223287D01*
X156011500Y-84402831D01*
X138905649Y-84402831D01*
X138816257Y-84190500D01*
X137690500Y-84190500D01*
X137690500Y-84210500D01*
X137309500Y-84210500D01*
X137309500Y-84190500D01*
X136183743Y-84190500D01*
X136088633Y-84416413D01*
X115563500Y-84416413D01*
X115563500Y-82916411D01*
X118588648Y-82916411D01*
X118707564Y-83203539D01*
X119075178Y-83644579D01*
X119583587Y-83911367D01*
X119809500Y-83816257D01*
X119809500Y-82690500D01*
X118685103Y-82690500D01*
X118588648Y-82916411D01*
X115563500Y-82916411D01*
X115563500Y-82083589D01*
X118588648Y-82083589D01*
X118685103Y-82309500D01*
X119809500Y-82309500D01*
X119809500Y-81183743D01*
X120190500Y-81183743D01*
X120190500Y-82309500D01*
X120210500Y-82309500D01*
X120210500Y-82690500D01*
X120190500Y-82690500D01*
X120190500Y-83816257D01*
X120416413Y-83911367D01*
X120924822Y-83644579D01*
X121292436Y-83203539D01*
X121411352Y-82916411D01*
X121314898Y-82690502D01*
X121391599Y-82690502D01*
X121444007Y-82953975D01*
X121701163Y-83338837D01*
X122086025Y-83595993D01*
X122425407Y-83663500D01*
X122654593Y-83663500D01*
X122993975Y-83595993D01*
X123378837Y-83338837D01*
X123635993Y-82953975D01*
X123726294Y-82500000D01*
X123635993Y-82046025D01*
X123378837Y-81661163D01*
X123287300Y-81600000D01*
X123911338Y-81600000D01*
X123911338Y-83400000D01*
X123931789Y-83502812D01*
X123990027Y-83589973D01*
X124077188Y-83648211D01*
X124180000Y-83668662D01*
X125980000Y-83668662D01*
X126082812Y-83648211D01*
X126169973Y-83589973D01*
X126174239Y-83583587D01*
X136088633Y-83583587D01*
X136183743Y-83809500D01*
X137309500Y-83809500D01*
X137309500Y-83789500D01*
X137690500Y-83789500D01*
X137690500Y-83809500D01*
X138816257Y-83809500D01*
X138911367Y-83583587D01*
X138644579Y-83075178D01*
X138203539Y-82707564D01*
X137916411Y-82588648D01*
X137690502Y-82685102D01*
X137690502Y-82608401D01*
X137953975Y-82555993D01*
X138183198Y-82402831D01*
X140261500Y-82402831D01*
X140261500Y-82597169D01*
X140335870Y-82776713D01*
X140473287Y-82914130D01*
X140652831Y-82988500D01*
X140847169Y-82988500D01*
X141026713Y-82914130D01*
X141164130Y-82776713D01*
X141238500Y-82597169D01*
X141238500Y-82402831D01*
X141164130Y-82223287D01*
X141026713Y-82085870D01*
X140847169Y-82011500D01*
X140652831Y-82011500D01*
X140473287Y-82085870D01*
X140335870Y-82223287D01*
X140261500Y-82402831D01*
X138183198Y-82402831D01*
X138338837Y-82298837D01*
X138595993Y-81913975D01*
X138647937Y-81652831D01*
X147011500Y-81652831D01*
X147011500Y-81847169D01*
X147085870Y-82026713D01*
X147223287Y-82164130D01*
X147402831Y-82238500D01*
X147597169Y-82238500D01*
X147776713Y-82164130D01*
X147788012Y-82152831D01*
X154511500Y-82152831D01*
X154511500Y-82347169D01*
X154585870Y-82526713D01*
X154723287Y-82664130D01*
X154902831Y-82738500D01*
X155097169Y-82738500D01*
X155276713Y-82664130D01*
X155414130Y-82526713D01*
X155488500Y-82347169D01*
X155488500Y-82152831D01*
X155414130Y-81973287D01*
X155276713Y-81835870D01*
X155097169Y-81761500D01*
X154902831Y-81761500D01*
X154723287Y-81835870D01*
X154585870Y-81973287D01*
X154511500Y-82152831D01*
X147788012Y-82152831D01*
X147914130Y-82026713D01*
X147988500Y-81847169D01*
X147988500Y-81652831D01*
X147914130Y-81473287D01*
X147776713Y-81335870D01*
X147597169Y-81261500D01*
X147402831Y-81261500D01*
X147223287Y-81335870D01*
X147085870Y-81473287D01*
X147011500Y-81652831D01*
X138647937Y-81652831D01*
X138686294Y-81460000D01*
X138595993Y-81006025D01*
X138338837Y-80621163D01*
X137953975Y-80364007D01*
X137614593Y-80296500D01*
X137385407Y-80296500D01*
X137046025Y-80364007D01*
X136661163Y-80621163D01*
X136404007Y-81006025D01*
X136313706Y-81460000D01*
X136404007Y-81913975D01*
X136661163Y-82298837D01*
X137046025Y-82555993D01*
X137309498Y-82608401D01*
X137309498Y-82685102D01*
X137083589Y-82588648D01*
X136796461Y-82707564D01*
X136355421Y-83075178D01*
X136088633Y-83583587D01*
X126174239Y-83583587D01*
X126228211Y-83502812D01*
X126248662Y-83400000D01*
X126248662Y-82012193D01*
X129257215Y-82012193D01*
X129339840Y-82232730D01*
X129861837Y-82391525D01*
X130404867Y-82338475D01*
X130660160Y-82232730D01*
X130742785Y-82012193D01*
X130000000Y-81269408D01*
X129257215Y-82012193D01*
X126248662Y-82012193D01*
X126248662Y-81600000D01*
X126228211Y-81497188D01*
X126169973Y-81410027D01*
X126082812Y-81351789D01*
X125980000Y-81331338D01*
X124180000Y-81331338D01*
X124077188Y-81351789D01*
X123990027Y-81410027D01*
X123931789Y-81497188D01*
X123911338Y-81600000D01*
X123287300Y-81600000D01*
X122993975Y-81404007D01*
X122654593Y-81336500D01*
X122425407Y-81336500D01*
X122086025Y-81404007D01*
X121701163Y-81661163D01*
X121444007Y-82046025D01*
X121391599Y-82309498D01*
X121314898Y-82309498D01*
X121411352Y-82083589D01*
X121292436Y-81796461D01*
X120924822Y-81355421D01*
X120416413Y-81088633D01*
X120190500Y-81183743D01*
X119809500Y-81183743D01*
X119583587Y-81088633D01*
X119075178Y-81355421D01*
X118707564Y-81796461D01*
X118588648Y-82083589D01*
X115563500Y-82083589D01*
X115563500Y-80861837D01*
X128608475Y-80861837D01*
X128661525Y-81404867D01*
X128767270Y-81660160D01*
X128987807Y-81742785D01*
X129730592Y-81000000D01*
X130269408Y-81000000D01*
X131012193Y-81742785D01*
X131232730Y-81660160D01*
X131391525Y-81138163D01*
X131338475Y-80595133D01*
X131232730Y-80339840D01*
X131012193Y-80257215D01*
X130269408Y-81000000D01*
X129730592Y-81000000D01*
X128987807Y-80257215D01*
X128767270Y-80339840D01*
X128608475Y-80861837D01*
X115563500Y-80861837D01*
X115563500Y-79987807D01*
X129257215Y-79987807D01*
X130000000Y-80730592D01*
X130530592Y-80200000D01*
X131431338Y-80200000D01*
X131431338Y-81800000D01*
X131451789Y-81902812D01*
X131510027Y-81989973D01*
X131597188Y-82048211D01*
X131700000Y-82068662D01*
X133300000Y-82068662D01*
X133402812Y-82048211D01*
X133489973Y-81989973D01*
X133548211Y-81902812D01*
X133568662Y-81800000D01*
X133568662Y-80200000D01*
X133548211Y-80097188D01*
X133489973Y-80010027D01*
X133402812Y-79951789D01*
X133300000Y-79931338D01*
X131700000Y-79931338D01*
X131597188Y-79951789D01*
X131510027Y-80010027D01*
X131451789Y-80097188D01*
X131431338Y-80200000D01*
X130530592Y-80200000D01*
X130742785Y-79987807D01*
X130660160Y-79767270D01*
X130138163Y-79608475D01*
X129595133Y-79661525D01*
X129339840Y-79767270D01*
X129257215Y-79987807D01*
X115563500Y-79987807D01*
X115563500Y-79152831D01*
X147511500Y-79152831D01*
X147511500Y-79347169D01*
X147585870Y-79526713D01*
X147684157Y-79625000D01*
X147585870Y-79723287D01*
X147511500Y-79902831D01*
X147511500Y-80097169D01*
X147585870Y-80276713D01*
X147723287Y-80414130D01*
X147844725Y-80464432D01*
X147835870Y-80473287D01*
X147761500Y-80652831D01*
X147761500Y-80847169D01*
X147835870Y-81026713D01*
X147973287Y-81164130D01*
X148152831Y-81238500D01*
X148347169Y-81238500D01*
X148526713Y-81164130D01*
X148625000Y-81065843D01*
X148723287Y-81164130D01*
X148902831Y-81238500D01*
X149097169Y-81238500D01*
X149276713Y-81164130D01*
X149375000Y-81065843D01*
X149473287Y-81164130D01*
X149652831Y-81238500D01*
X149847169Y-81238500D01*
X150026713Y-81164130D01*
X150164130Y-81026713D01*
X150215443Y-80902831D01*
X152511500Y-80902831D01*
X152511500Y-81097169D01*
X152585870Y-81276713D01*
X152723287Y-81414130D01*
X152902831Y-81488500D01*
X153097169Y-81488500D01*
X153276713Y-81414130D01*
X153414130Y-81276713D01*
X153488500Y-81097169D01*
X153488500Y-80902831D01*
X164011500Y-80902831D01*
X164011500Y-81097169D01*
X164085870Y-81276713D01*
X164223287Y-81414130D01*
X164402831Y-81488500D01*
X164597169Y-81488500D01*
X164776713Y-81414130D01*
X164788012Y-81402831D01*
X173511500Y-81402831D01*
X173511500Y-81597169D01*
X173585870Y-81776713D01*
X173723287Y-81914130D01*
X173902831Y-81988500D01*
X174097169Y-81988500D01*
X174276713Y-81914130D01*
X174414130Y-81776713D01*
X174488500Y-81597169D01*
X174488500Y-81402831D01*
X174414130Y-81223287D01*
X174343674Y-81152831D01*
X196261500Y-81152831D01*
X196261500Y-81347169D01*
X196335870Y-81526713D01*
X196473287Y-81664130D01*
X196652831Y-81738500D01*
X196847169Y-81738500D01*
X197026713Y-81664130D01*
X197164130Y-81526713D01*
X197220203Y-81391341D01*
X203261500Y-81391341D01*
X203261500Y-81585679D01*
X203335870Y-81765223D01*
X203473287Y-81902640D01*
X203652831Y-81977010D01*
X203847169Y-81977010D01*
X204026713Y-81902640D01*
X204164130Y-81765223D01*
X204238500Y-81585679D01*
X204238500Y-81420431D01*
X204402831Y-81488500D01*
X204597169Y-81488500D01*
X204776713Y-81414130D01*
X204914130Y-81276713D01*
X204988500Y-81097169D01*
X204988500Y-80902831D01*
X204914130Y-80723287D01*
X204776713Y-80585870D01*
X204597169Y-80511500D01*
X204402831Y-80511500D01*
X204223287Y-80585870D01*
X204085870Y-80723287D01*
X204011500Y-80902831D01*
X204011500Y-81068079D01*
X203847169Y-81000010D01*
X203652831Y-81000010D01*
X203473287Y-81074380D01*
X203335870Y-81211797D01*
X203261500Y-81391341D01*
X197220203Y-81391341D01*
X197238500Y-81347169D01*
X197238500Y-81152831D01*
X197164130Y-80973287D01*
X197026713Y-80835870D01*
X196847169Y-80761500D01*
X196652831Y-80761500D01*
X196473287Y-80835870D01*
X196335870Y-80973287D01*
X196261500Y-81152831D01*
X174343674Y-81152831D01*
X174276713Y-81085870D01*
X174097169Y-81011500D01*
X173902831Y-81011500D01*
X173723287Y-81085870D01*
X173585870Y-81223287D01*
X173511500Y-81402831D01*
X164788012Y-81402831D01*
X164914130Y-81276713D01*
X164988500Y-81097169D01*
X164988500Y-80902831D01*
X164914130Y-80723287D01*
X164776713Y-80585870D01*
X164678922Y-80545363D01*
X176470808Y-80545363D01*
X176470808Y-80739701D01*
X176545178Y-80919245D01*
X176682595Y-81056662D01*
X176862139Y-81131032D01*
X177056477Y-81131032D01*
X177236021Y-81056662D01*
X177373438Y-80919245D01*
X177447808Y-80739701D01*
X177447808Y-80545363D01*
X177373438Y-80365819D01*
X177236021Y-80228402D01*
X177211759Y-80218352D01*
X177987549Y-80218352D01*
X177987549Y-80412690D01*
X178061919Y-80592234D01*
X178199336Y-80729651D01*
X178378880Y-80804021D01*
X178573218Y-80804021D01*
X178752762Y-80729651D01*
X178890179Y-80592234D01*
X178964549Y-80412690D01*
X178964549Y-80218352D01*
X179011500Y-80218352D01*
X179011500Y-80412690D01*
X179085870Y-80592234D01*
X179223287Y-80729651D01*
X179402831Y-80804021D01*
X179597169Y-80804021D01*
X179776713Y-80729651D01*
X179914130Y-80592234D01*
X179988500Y-80412690D01*
X179988500Y-80218352D01*
X179914130Y-80038808D01*
X179776713Y-79901391D01*
X179752451Y-79891341D01*
X180578419Y-79891341D01*
X180578419Y-80085679D01*
X180652789Y-80265223D01*
X180790206Y-80402640D01*
X180969750Y-80477010D01*
X181164088Y-80477010D01*
X181343632Y-80402640D01*
X181481049Y-80265223D01*
X181531080Y-80144439D01*
X181585870Y-80276713D01*
X181723287Y-80414130D01*
X181902831Y-80488500D01*
X182097169Y-80488500D01*
X182276713Y-80414130D01*
X182414130Y-80276713D01*
X182488500Y-80097169D01*
X182488500Y-79902831D01*
X184011500Y-79902831D01*
X184011500Y-80097169D01*
X184085870Y-80276713D01*
X184223287Y-80414130D01*
X184402831Y-80488500D01*
X184597169Y-80488500D01*
X184776713Y-80414130D01*
X184788012Y-80402831D01*
X198511500Y-80402831D01*
X198511500Y-80597169D01*
X198585870Y-80776713D01*
X198723287Y-80914130D01*
X198902831Y-80988500D01*
X199097169Y-80988500D01*
X199276713Y-80914130D01*
X199414130Y-80776713D01*
X199488500Y-80597169D01*
X199488500Y-80402831D01*
X199414130Y-80223287D01*
X199276713Y-80085870D01*
X199097169Y-80011500D01*
X198902831Y-80011500D01*
X198723287Y-80085870D01*
X198585870Y-80223287D01*
X198511500Y-80402831D01*
X184788012Y-80402831D01*
X184914130Y-80276713D01*
X184988500Y-80097169D01*
X184988500Y-79902831D01*
X184914130Y-79723287D01*
X184776713Y-79585870D01*
X184597169Y-79511500D01*
X184402831Y-79511500D01*
X184223287Y-79585870D01*
X184085870Y-79723287D01*
X184011500Y-79902831D01*
X182488500Y-79902831D01*
X182414130Y-79723287D01*
X182276713Y-79585870D01*
X182097169Y-79511500D01*
X181902831Y-79511500D01*
X181723287Y-79585870D01*
X181585870Y-79723287D01*
X181535839Y-79844071D01*
X181481049Y-79711797D01*
X181343632Y-79574380D01*
X181164088Y-79500010D01*
X180969750Y-79500010D01*
X180790206Y-79574380D01*
X180652789Y-79711797D01*
X180578419Y-79891341D01*
X179752451Y-79891341D01*
X179597169Y-79827021D01*
X179402831Y-79827021D01*
X179223287Y-79901391D01*
X179085870Y-80038808D01*
X179011500Y-80218352D01*
X178964549Y-80218352D01*
X178890179Y-80038808D01*
X178752762Y-79901391D01*
X178573218Y-79827021D01*
X178378880Y-79827021D01*
X178199336Y-79901391D01*
X178061919Y-80038808D01*
X177987549Y-80218352D01*
X177211759Y-80218352D01*
X177056477Y-80154032D01*
X176862139Y-80154032D01*
X176682595Y-80228402D01*
X176545178Y-80365819D01*
X176470808Y-80545363D01*
X164678922Y-80545363D01*
X164597169Y-80511500D01*
X164402831Y-80511500D01*
X164223287Y-80585870D01*
X164085870Y-80723287D01*
X164011500Y-80902831D01*
X153488500Y-80902831D01*
X153414130Y-80723287D01*
X153276713Y-80585870D01*
X153097169Y-80511500D01*
X152902831Y-80511500D01*
X152723287Y-80585870D01*
X152585870Y-80723287D01*
X152511500Y-80902831D01*
X150215443Y-80902831D01*
X150238500Y-80847169D01*
X150238500Y-80652831D01*
X150164130Y-80473287D01*
X150026713Y-80335870D01*
X149847169Y-80261500D01*
X149652831Y-80261500D01*
X149473287Y-80335870D01*
X149375000Y-80434157D01*
X149276713Y-80335870D01*
X149097169Y-80261500D01*
X148902831Y-80261500D01*
X148723287Y-80335870D01*
X148625000Y-80434157D01*
X148526713Y-80335870D01*
X148405275Y-80285568D01*
X148414130Y-80276713D01*
X148488500Y-80097169D01*
X148488500Y-79902831D01*
X148414130Y-79723287D01*
X148315843Y-79625000D01*
X148414130Y-79526713D01*
X148440568Y-79462886D01*
X156761500Y-79462886D01*
X156761500Y-79657224D01*
X156835870Y-79836768D01*
X156973287Y-79974185D01*
X157152831Y-80048555D01*
X157347169Y-80048555D01*
X157526713Y-79974185D01*
X157664130Y-79836768D01*
X157738500Y-79657224D01*
X157738500Y-79462886D01*
X157664130Y-79283342D01*
X157526713Y-79145925D01*
X157347169Y-79071555D01*
X157152831Y-79071555D01*
X156973287Y-79145925D01*
X156835870Y-79283342D01*
X156761500Y-79462886D01*
X148440568Y-79462886D01*
X148488500Y-79347169D01*
X148488500Y-79152831D01*
X148414130Y-78973287D01*
X148276713Y-78835870D01*
X148097169Y-78761500D01*
X147902831Y-78761500D01*
X147723287Y-78835870D01*
X147585870Y-78973287D01*
X147511500Y-79152831D01*
X115563500Y-79152831D01*
X115563500Y-77749308D01*
X117520099Y-77749308D01*
X117896631Y-78219137D01*
X119288651Y-78779019D01*
X120788967Y-78763580D01*
X122103369Y-78219137D01*
X122156508Y-78152831D01*
X147511500Y-78152831D01*
X147511500Y-78347169D01*
X147585870Y-78526713D01*
X147723287Y-78664130D01*
X147902831Y-78738500D01*
X148097169Y-78738500D01*
X148271331Y-78666359D01*
X152517381Y-78666359D01*
X152517381Y-78860697D01*
X152591751Y-79040241D01*
X152729168Y-79177658D01*
X152908712Y-79252028D01*
X153103050Y-79252028D01*
X153282594Y-79177658D01*
X153420011Y-79040241D01*
X153494381Y-78860697D01*
X153494381Y-78666359D01*
X153420011Y-78486815D01*
X153397436Y-78464240D01*
X156087143Y-78464240D01*
X156087143Y-78658578D01*
X156161513Y-78838122D01*
X156298930Y-78975539D01*
X156478474Y-79049909D01*
X156672812Y-79049909D01*
X156852356Y-78975539D01*
X156913574Y-78914321D01*
X186108345Y-78914321D01*
X186108345Y-79108659D01*
X186182715Y-79288203D01*
X186320132Y-79425620D01*
X186499676Y-79499990D01*
X186694014Y-79499990D01*
X186873558Y-79425620D01*
X187010975Y-79288203D01*
X187085345Y-79108659D01*
X187085345Y-78914321D01*
X187010975Y-78734777D01*
X186873558Y-78597360D01*
X186694014Y-78522990D01*
X186499676Y-78522990D01*
X186320132Y-78597360D01*
X186182715Y-78734777D01*
X186108345Y-78914321D01*
X156913574Y-78914321D01*
X156989773Y-78838122D01*
X157064143Y-78658578D01*
X157064143Y-78464240D01*
X156989773Y-78284696D01*
X156857908Y-78152831D01*
X175261500Y-78152831D01*
X175261500Y-78347169D01*
X175335870Y-78526713D01*
X175473287Y-78664130D01*
X175652831Y-78738500D01*
X175847169Y-78738500D01*
X176026713Y-78664130D01*
X176164130Y-78526713D01*
X176238500Y-78347169D01*
X176238500Y-78152831D01*
X176164130Y-77973287D01*
X176026713Y-77835870D01*
X175847169Y-77761500D01*
X175652831Y-77761500D01*
X175473287Y-77835870D01*
X175335870Y-77973287D01*
X175261500Y-78152831D01*
X156857908Y-78152831D01*
X156852356Y-78147279D01*
X156672812Y-78072909D01*
X156478474Y-78072909D01*
X156298930Y-78147279D01*
X156161513Y-78284696D01*
X156087143Y-78464240D01*
X153397436Y-78464240D01*
X153282594Y-78349398D01*
X153103050Y-78275028D01*
X152908712Y-78275028D01*
X152729168Y-78349398D01*
X152591751Y-78486815D01*
X152517381Y-78666359D01*
X148271331Y-78666359D01*
X148276713Y-78664130D01*
X148414130Y-78526713D01*
X148488500Y-78347169D01*
X148488500Y-78152831D01*
X148414130Y-77973287D01*
X148405275Y-77964432D01*
X148526713Y-77914130D01*
X148549502Y-77891341D01*
X151761500Y-77891341D01*
X151761500Y-78085679D01*
X151835870Y-78265223D01*
X151973287Y-78402640D01*
X152152831Y-78477010D01*
X152347169Y-78477010D01*
X152526713Y-78402640D01*
X152664130Y-78265223D01*
X152738500Y-78085679D01*
X152738500Y-77891341D01*
X152664130Y-77711797D01*
X152526713Y-77574380D01*
X152347169Y-77500010D01*
X152152831Y-77500010D01*
X151973287Y-77574380D01*
X151835870Y-77711797D01*
X151761500Y-77891341D01*
X148549502Y-77891341D01*
X148664130Y-77776713D01*
X148738500Y-77597169D01*
X148738500Y-77402831D01*
X148664130Y-77223287D01*
X148565843Y-77125000D01*
X148664130Y-77026713D01*
X148738500Y-76847169D01*
X148738500Y-76652831D01*
X148664130Y-76473287D01*
X148526713Y-76335870D01*
X148347169Y-76261500D01*
X148152831Y-76261500D01*
X147973287Y-76335870D01*
X147835870Y-76473287D01*
X147761500Y-76652831D01*
X147761500Y-76847169D01*
X147835870Y-77026713D01*
X147934157Y-77125000D01*
X147835870Y-77223287D01*
X147761500Y-77402831D01*
X147761500Y-77597169D01*
X147835870Y-77776713D01*
X147844725Y-77785568D01*
X147723287Y-77835870D01*
X147585870Y-77973287D01*
X147511500Y-78152831D01*
X122156508Y-78152831D01*
X122479901Y-77749308D01*
X120000000Y-75269408D01*
X117520099Y-77749308D01*
X115563500Y-77749308D01*
X115563500Y-74288651D01*
X116220981Y-74288651D01*
X116236420Y-75788967D01*
X116780863Y-77103369D01*
X117250692Y-77479901D01*
X119730592Y-75000000D01*
X120269408Y-75000000D01*
X122749308Y-77479901D01*
X123219137Y-77103369D01*
X123779019Y-75711349D01*
X123771170Y-74948523D01*
X127598451Y-74948523D01*
X127858428Y-75438468D01*
X128286109Y-75791630D01*
X128551480Y-75901533D01*
X128769500Y-75804354D01*
X128769500Y-74730500D01*
X127694182Y-74730500D01*
X127598451Y-74948523D01*
X123771170Y-74948523D01*
X123763580Y-74211033D01*
X123730627Y-74131477D01*
X127598451Y-74131477D01*
X127694182Y-74349500D01*
X128769500Y-74349500D01*
X128769500Y-73275646D01*
X129150500Y-73275646D01*
X129150500Y-74349500D01*
X129170500Y-74349500D01*
X129170500Y-74730500D01*
X129150500Y-74730500D01*
X129150500Y-75804354D01*
X129368520Y-75901533D01*
X129633891Y-75791630D01*
X130061572Y-75438468D01*
X130321549Y-74948523D01*
X130225819Y-74730502D01*
X130381500Y-74730502D01*
X130381500Y-74624529D01*
X130451107Y-74974466D01*
X130697212Y-75342788D01*
X131065534Y-75588893D01*
X131390334Y-75653500D01*
X131609666Y-75653500D01*
X131934466Y-75588893D01*
X132302788Y-75342788D01*
X132548893Y-74974466D01*
X132635314Y-74540000D01*
X132904686Y-74540000D01*
X132991107Y-74974466D01*
X133237212Y-75342788D01*
X133605534Y-75588893D01*
X133930334Y-75653500D01*
X134149666Y-75653500D01*
X134474466Y-75588893D01*
X134523196Y-75556332D01*
X147665001Y-75556332D01*
X147665001Y-75750670D01*
X147739371Y-75930214D01*
X147876788Y-76067631D01*
X148056332Y-76142001D01*
X148250670Y-76142001D01*
X148430214Y-76067631D01*
X148567631Y-75930214D01*
X148578973Y-75902831D01*
X149761500Y-75902831D01*
X149761500Y-76097169D01*
X149835870Y-76276713D01*
X149973287Y-76414130D01*
X150152831Y-76488500D01*
X150347169Y-76488500D01*
X150526713Y-76414130D01*
X150664130Y-76276713D01*
X150675744Y-76248674D01*
X156736500Y-76248674D01*
X156736500Y-76751326D01*
X156928857Y-77215715D01*
X157284285Y-77571143D01*
X157748674Y-77763500D01*
X158251326Y-77763500D01*
X158715715Y-77571143D01*
X159071143Y-77215715D01*
X159097190Y-77152831D01*
X162011500Y-77152831D01*
X162011500Y-77347169D01*
X162085870Y-77526713D01*
X162223287Y-77664130D01*
X162402831Y-77738500D01*
X162597169Y-77738500D01*
X162776713Y-77664130D01*
X162914130Y-77526713D01*
X162988500Y-77347169D01*
X162988500Y-77152831D01*
X162914130Y-76973287D01*
X162776713Y-76835870D01*
X162597169Y-76761500D01*
X162402831Y-76761500D01*
X162223287Y-76835870D01*
X162085870Y-76973287D01*
X162011500Y-77152831D01*
X159097190Y-77152831D01*
X159263500Y-76751326D01*
X159263500Y-76472767D01*
X159581436Y-76472767D01*
X159581436Y-76667105D01*
X159655806Y-76846649D01*
X159793223Y-76984066D01*
X159972767Y-77058436D01*
X160167105Y-77058436D01*
X160346649Y-76984066D01*
X160484066Y-76846649D01*
X160558436Y-76667105D01*
X160558436Y-76472767D01*
X160484066Y-76293223D01*
X160439517Y-76248674D01*
X163236500Y-76248674D01*
X163236500Y-76751326D01*
X163428857Y-77215715D01*
X163784285Y-77571143D01*
X164248674Y-77763500D01*
X164751326Y-77763500D01*
X165215715Y-77571143D01*
X165571143Y-77215715D01*
X165763500Y-76751326D01*
X165763500Y-76248674D01*
X166236500Y-76248674D01*
X166236500Y-76751326D01*
X166428857Y-77215715D01*
X166784285Y-77571143D01*
X167248674Y-77763500D01*
X167751326Y-77763500D01*
X168215715Y-77571143D01*
X168571143Y-77215715D01*
X168700744Y-76902831D01*
X172011500Y-76902831D01*
X172011500Y-77097169D01*
X172085870Y-77276713D01*
X172223287Y-77414130D01*
X172402831Y-77488500D01*
X172597169Y-77488500D01*
X172776713Y-77414130D01*
X172914130Y-77276713D01*
X172936309Y-77223167D01*
X173284285Y-77571143D01*
X173748674Y-77763500D01*
X174251326Y-77763500D01*
X174285588Y-77749308D01*
X205020099Y-77749308D01*
X205396631Y-78219137D01*
X206788651Y-78779019D01*
X208288967Y-78763580D01*
X209603369Y-78219137D01*
X209979901Y-77749308D01*
X207500000Y-75269408D01*
X205020099Y-77749308D01*
X174285588Y-77749308D01*
X174715715Y-77571143D01*
X175071143Y-77215715D01*
X175200744Y-76902831D01*
X185511500Y-76902831D01*
X185511500Y-77097169D01*
X185585870Y-77276713D01*
X185723287Y-77414130D01*
X185902831Y-77488500D01*
X186097169Y-77488500D01*
X186276713Y-77414130D01*
X186414130Y-77276713D01*
X186488500Y-77097169D01*
X186488500Y-76902831D01*
X191011500Y-76902831D01*
X191011500Y-77097169D01*
X191085870Y-77276713D01*
X191223287Y-77414130D01*
X191402831Y-77488500D01*
X191597169Y-77488500D01*
X191776713Y-77414130D01*
X191914130Y-77276713D01*
X191988500Y-77097169D01*
X191988500Y-76902831D01*
X191914130Y-76723287D01*
X191776713Y-76585870D01*
X191597169Y-76511500D01*
X191402831Y-76511500D01*
X191223287Y-76585870D01*
X191085870Y-76723287D01*
X191011500Y-76902831D01*
X186488500Y-76902831D01*
X186414130Y-76723287D01*
X186276713Y-76585870D01*
X186097169Y-76511500D01*
X185902831Y-76511500D01*
X185723287Y-76585870D01*
X185585870Y-76723287D01*
X185511500Y-76902831D01*
X175200744Y-76902831D01*
X175263500Y-76751326D01*
X175263500Y-76248674D01*
X175071143Y-75784285D01*
X174939689Y-75652831D01*
X176511500Y-75652831D01*
X176511500Y-75847169D01*
X176585870Y-76026713D01*
X176723287Y-76164130D01*
X176902831Y-76238500D01*
X177097169Y-76238500D01*
X177276713Y-76164130D01*
X177414130Y-76026713D01*
X177488500Y-75847169D01*
X177488500Y-75652831D01*
X179011500Y-75652831D01*
X179011500Y-75847169D01*
X179085870Y-76026713D01*
X179223287Y-76164130D01*
X179402831Y-76238500D01*
X179597169Y-76238500D01*
X179776713Y-76164130D01*
X179914130Y-76026713D01*
X179988500Y-75847169D01*
X179988500Y-75652831D01*
X181511500Y-75652831D01*
X181511500Y-75847169D01*
X181585870Y-76026713D01*
X181723287Y-76164130D01*
X181902831Y-76238500D01*
X182097169Y-76238500D01*
X182276713Y-76164130D01*
X182414130Y-76026713D01*
X182488500Y-75847169D01*
X182488500Y-75652831D01*
X184011500Y-75652831D01*
X184011500Y-75847169D01*
X184085870Y-76026713D01*
X184223287Y-76164130D01*
X184402831Y-76238500D01*
X184597169Y-76238500D01*
X184776713Y-76164130D01*
X184914130Y-76026713D01*
X184988500Y-75847169D01*
X184988500Y-75808076D01*
X194836500Y-75808076D01*
X194836500Y-76091924D01*
X194945124Y-76354165D01*
X195145835Y-76554876D01*
X195408076Y-76663500D01*
X195691924Y-76663500D01*
X195954165Y-76554876D01*
X196154876Y-76354165D01*
X196263500Y-76091924D01*
X196263500Y-75808076D01*
X199236500Y-75808076D01*
X199236500Y-76091924D01*
X199345124Y-76354165D01*
X199545835Y-76554876D01*
X199808076Y-76663500D01*
X200091924Y-76663500D01*
X200354165Y-76554876D01*
X200554876Y-76354165D01*
X200663500Y-76091924D01*
X200663500Y-75808076D01*
X200554876Y-75545835D01*
X200354165Y-75345124D01*
X200091924Y-75236500D01*
X199808076Y-75236500D01*
X199545835Y-75345124D01*
X199345124Y-75545835D01*
X199236500Y-75808076D01*
X196263500Y-75808076D01*
X196154876Y-75545835D01*
X195954165Y-75345124D01*
X195691924Y-75236500D01*
X195408076Y-75236500D01*
X195145835Y-75345124D01*
X194945124Y-75545835D01*
X194836500Y-75808076D01*
X184988500Y-75808076D01*
X184988500Y-75652831D01*
X184914130Y-75473287D01*
X184776713Y-75335870D01*
X184597169Y-75261500D01*
X184402831Y-75261500D01*
X184223287Y-75335870D01*
X184085870Y-75473287D01*
X184011500Y-75652831D01*
X182488500Y-75652831D01*
X182414130Y-75473287D01*
X182276713Y-75335870D01*
X182097169Y-75261500D01*
X181902831Y-75261500D01*
X181723287Y-75335870D01*
X181585870Y-75473287D01*
X181511500Y-75652831D01*
X179988500Y-75652831D01*
X179914130Y-75473287D01*
X179776713Y-75335870D01*
X179597169Y-75261500D01*
X179402831Y-75261500D01*
X179223287Y-75335870D01*
X179085870Y-75473287D01*
X179011500Y-75652831D01*
X177488500Y-75652831D01*
X177414130Y-75473287D01*
X177276713Y-75335870D01*
X177097169Y-75261500D01*
X176902831Y-75261500D01*
X176723287Y-75335870D01*
X176585870Y-75473287D01*
X176511500Y-75652831D01*
X174939689Y-75652831D01*
X174715715Y-75428857D01*
X174251326Y-75236500D01*
X173748674Y-75236500D01*
X173284285Y-75428857D01*
X172928857Y-75784285D01*
X172736500Y-76248674D01*
X172736500Y-76569213D01*
X172597169Y-76511500D01*
X172402831Y-76511500D01*
X172223287Y-76585870D01*
X172085870Y-76723287D01*
X172011500Y-76902831D01*
X168700744Y-76902831D01*
X168763500Y-76751326D01*
X168763500Y-76248674D01*
X168571143Y-75784285D01*
X168321161Y-75534303D01*
X170261500Y-75534303D01*
X170261500Y-75728641D01*
X170335870Y-75908185D01*
X170473287Y-76045602D01*
X170652831Y-76119972D01*
X170847169Y-76119972D01*
X171026713Y-76045602D01*
X171049502Y-76022813D01*
X171261500Y-76022813D01*
X171261500Y-76217151D01*
X171335870Y-76396695D01*
X171473287Y-76534112D01*
X171652831Y-76608482D01*
X171847169Y-76608482D01*
X172026713Y-76534112D01*
X172164130Y-76396695D01*
X172238500Y-76217151D01*
X172238500Y-76022813D01*
X172164130Y-75843269D01*
X172026713Y-75705852D01*
X171847169Y-75631482D01*
X171652831Y-75631482D01*
X171473287Y-75705852D01*
X171335870Y-75843269D01*
X171261500Y-76022813D01*
X171049502Y-76022813D01*
X171164130Y-75908185D01*
X171238500Y-75728641D01*
X171238500Y-75534303D01*
X171164130Y-75354759D01*
X171026713Y-75217342D01*
X170847169Y-75142972D01*
X170652831Y-75142972D01*
X170473287Y-75217342D01*
X170335870Y-75354759D01*
X170261500Y-75534303D01*
X168321161Y-75534303D01*
X168215715Y-75428857D01*
X167751326Y-75236500D01*
X167248674Y-75236500D01*
X166784285Y-75428857D01*
X166428857Y-75784285D01*
X166236500Y-76248674D01*
X165763500Y-76248674D01*
X165571143Y-75784285D01*
X165215715Y-75428857D01*
X164751326Y-75236500D01*
X164248674Y-75236500D01*
X163784285Y-75428857D01*
X163428857Y-75784285D01*
X163236500Y-76248674D01*
X160439517Y-76248674D01*
X160346649Y-76155806D01*
X160167105Y-76081436D01*
X159972767Y-76081436D01*
X159793223Y-76155806D01*
X159655806Y-76293223D01*
X159581436Y-76472767D01*
X159263500Y-76472767D01*
X159263500Y-76248674D01*
X159071143Y-75784285D01*
X158715715Y-75428857D01*
X158251326Y-75236500D01*
X157748674Y-75236500D01*
X157284285Y-75428857D01*
X156928857Y-75784285D01*
X156736500Y-76248674D01*
X150675744Y-76248674D01*
X150738500Y-76097169D01*
X150738500Y-75999990D01*
X150847169Y-75999990D01*
X151026713Y-75925620D01*
X151164130Y-75788203D01*
X151238500Y-75608659D01*
X151238500Y-75604910D01*
X151402831Y-75672979D01*
X151597169Y-75672979D01*
X151776713Y-75598609D01*
X151914130Y-75461192D01*
X151988500Y-75281648D01*
X151988500Y-75087310D01*
X151914130Y-74907766D01*
X151776713Y-74770349D01*
X151597169Y-74695979D01*
X151402831Y-74695979D01*
X151223287Y-74770349D01*
X151085870Y-74907766D01*
X151011500Y-75087310D01*
X151011500Y-75091059D01*
X150847169Y-75022990D01*
X150652831Y-75022990D01*
X150473287Y-75097360D01*
X150335870Y-75234777D01*
X150261500Y-75414321D01*
X150261500Y-75511500D01*
X150152831Y-75511500D01*
X149973287Y-75585870D01*
X149835870Y-75723287D01*
X149761500Y-75902831D01*
X148578973Y-75902831D01*
X148642001Y-75750670D01*
X148642001Y-75556332D01*
X148567631Y-75376788D01*
X148430214Y-75239371D01*
X148250670Y-75165001D01*
X148056332Y-75165001D01*
X147876788Y-75239371D01*
X147739371Y-75376788D01*
X147665001Y-75556332D01*
X134523196Y-75556332D01*
X134842788Y-75342788D01*
X135088893Y-74974466D01*
X135175314Y-74540000D01*
X135125318Y-74288651D01*
X203720981Y-74288651D01*
X203736420Y-75788967D01*
X204280863Y-77103369D01*
X204750692Y-77479901D01*
X207230592Y-75000000D01*
X207769408Y-75000000D01*
X210249308Y-77479901D01*
X210719137Y-77103369D01*
X211279019Y-75711349D01*
X211263580Y-74211033D01*
X210719137Y-72896631D01*
X210249308Y-72520099D01*
X207769408Y-75000000D01*
X207230592Y-75000000D01*
X204750692Y-72520099D01*
X204280863Y-72896631D01*
X203720981Y-74288651D01*
X135125318Y-74288651D01*
X135088893Y-74105534D01*
X134842788Y-73737212D01*
X134474466Y-73491107D01*
X134149666Y-73426500D01*
X133930334Y-73426500D01*
X133605534Y-73491107D01*
X133237212Y-73737212D01*
X132991107Y-74105534D01*
X132904686Y-74540000D01*
X132635314Y-74540000D01*
X132548893Y-74105534D01*
X132302788Y-73737212D01*
X131934466Y-73491107D01*
X131609666Y-73426500D01*
X131390334Y-73426500D01*
X131065534Y-73491107D01*
X130697212Y-73737212D01*
X130451107Y-74105534D01*
X130381500Y-74455471D01*
X130381500Y-74349498D01*
X130225819Y-74349498D01*
X130321549Y-74131477D01*
X130061572Y-73641532D01*
X129772504Y-73402831D01*
X154511500Y-73402831D01*
X154511500Y-73597169D01*
X154585870Y-73776713D01*
X154723287Y-73914130D01*
X154902831Y-73988500D01*
X155097169Y-73988500D01*
X155276713Y-73914130D01*
X155414130Y-73776713D01*
X155488500Y-73597169D01*
X155488500Y-73402831D01*
X155414130Y-73223287D01*
X155276713Y-73085870D01*
X155097169Y-73011500D01*
X154902831Y-73011500D01*
X154723287Y-73085870D01*
X154585870Y-73223287D01*
X154511500Y-73402831D01*
X129772504Y-73402831D01*
X129633891Y-73288370D01*
X129368520Y-73178467D01*
X129150500Y-73275646D01*
X128769500Y-73275646D01*
X128551480Y-73178467D01*
X128286109Y-73288370D01*
X127858428Y-73641532D01*
X127598451Y-74131477D01*
X123730627Y-74131477D01*
X123219137Y-72896631D01*
X122749308Y-72520099D01*
X120269408Y-75000000D01*
X119730592Y-75000000D01*
X117250692Y-72520099D01*
X116780863Y-72896631D01*
X116220981Y-74288651D01*
X115563500Y-74288651D01*
X115563500Y-72250692D01*
X117520099Y-72250692D01*
X120000000Y-74730592D01*
X122479901Y-72250692D01*
X122278991Y-72000000D01*
X127824686Y-72000000D01*
X127911107Y-72434466D01*
X128157212Y-72802788D01*
X128525534Y-73048893D01*
X128850334Y-73113500D01*
X129069666Y-73113500D01*
X129394466Y-73048893D01*
X129762788Y-72802788D01*
X130008893Y-72434466D01*
X130095314Y-72000000D01*
X130364686Y-72000000D01*
X130451107Y-72434466D01*
X130697212Y-72802788D01*
X131065534Y-73048893D01*
X131390334Y-73113500D01*
X131609666Y-73113500D01*
X131934466Y-73048893D01*
X132302788Y-72802788D01*
X132548893Y-72434466D01*
X132635314Y-72000000D01*
X132548893Y-71565534D01*
X132302788Y-71197212D01*
X132232131Y-71150000D01*
X132921338Y-71150000D01*
X132921338Y-72850000D01*
X132941789Y-72952812D01*
X133000027Y-73039973D01*
X133087188Y-73098211D01*
X133190000Y-73118662D01*
X134890000Y-73118662D01*
X134992812Y-73098211D01*
X135079973Y-73039973D01*
X135138211Y-72952812D01*
X135158662Y-72850000D01*
X135158662Y-72427826D01*
X149190510Y-72427826D01*
X149190510Y-72622164D01*
X149264880Y-72801708D01*
X149402297Y-72939125D01*
X149581841Y-73013495D01*
X149776179Y-73013495D01*
X149955723Y-72939125D01*
X150004013Y-72890835D01*
X150052308Y-72939130D01*
X150231852Y-73013500D01*
X150426190Y-73013500D01*
X150605734Y-72939130D01*
X150743151Y-72801713D01*
X150817521Y-72622169D01*
X150817521Y-72427831D01*
X150778396Y-72333375D01*
X156428500Y-72333375D01*
X156428500Y-73113679D01*
X156515506Y-73323729D01*
X156676272Y-73484494D01*
X156886322Y-73571500D01*
X157666625Y-73571500D01*
X157809500Y-73428625D01*
X157809500Y-72190500D01*
X158190500Y-72190500D01*
X158190500Y-73428625D01*
X158333375Y-73571500D01*
X159113678Y-73571500D01*
X159323728Y-73484494D01*
X159484494Y-73323729D01*
X159553209Y-73157835D01*
X163611573Y-73157835D01*
X163718997Y-73399057D01*
X164313844Y-73591436D01*
X164937030Y-73541535D01*
X165281003Y-73399057D01*
X165388427Y-73157835D01*
X164500000Y-72269408D01*
X163611573Y-73157835D01*
X159553209Y-73157835D01*
X159571500Y-73113679D01*
X159571500Y-72333375D01*
X159428625Y-72190500D01*
X158190500Y-72190500D01*
X157809500Y-72190500D01*
X156571375Y-72190500D01*
X156428500Y-72333375D01*
X150778396Y-72333375D01*
X150743151Y-72248287D01*
X150605734Y-72110870D01*
X150426190Y-72036500D01*
X150231852Y-72036500D01*
X150052308Y-72110870D01*
X150004018Y-72159160D01*
X149955723Y-72110865D01*
X149776179Y-72036495D01*
X149581841Y-72036495D01*
X149402297Y-72110865D01*
X149264880Y-72248282D01*
X149190510Y-72427826D01*
X135158662Y-72427826D01*
X135158662Y-71813844D01*
X162908564Y-71813844D01*
X162958465Y-72437030D01*
X163100943Y-72781003D01*
X163342165Y-72888427D01*
X164230592Y-72000000D01*
X163342165Y-71111573D01*
X163100943Y-71218997D01*
X162908564Y-71813844D01*
X135158662Y-71813844D01*
X135158662Y-71150000D01*
X135138211Y-71047188D01*
X135079973Y-70960027D01*
X134992812Y-70901789D01*
X134890000Y-70881338D01*
X133190000Y-70881338D01*
X133087188Y-70901789D01*
X133000027Y-70960027D01*
X132941789Y-71047188D01*
X132921338Y-71150000D01*
X132232131Y-71150000D01*
X131934466Y-70951107D01*
X131609666Y-70886500D01*
X131390334Y-70886500D01*
X131065534Y-70951107D01*
X130697212Y-71197212D01*
X130451107Y-71565534D01*
X130364686Y-72000000D01*
X130095314Y-72000000D01*
X130008893Y-71565534D01*
X129762788Y-71197212D01*
X129394466Y-70951107D01*
X129069666Y-70886500D01*
X128850334Y-70886500D01*
X128525534Y-70951107D01*
X128157212Y-71197212D01*
X127911107Y-71565534D01*
X127824686Y-72000000D01*
X122278991Y-72000000D01*
X122103369Y-71780863D01*
X120711349Y-71220981D01*
X119211033Y-71236420D01*
X117896631Y-71780863D01*
X117520099Y-72250692D01*
X115563500Y-72250692D01*
X115563500Y-70563500D01*
X149011500Y-70563500D01*
X149011500Y-70597169D01*
X149011500Y-70597169D01*
G37*
X149011500Y-70597169D02*
X149085870Y-70776713D01*
X149223287Y-70914130D01*
X149402831Y-70988500D01*
X149597169Y-70988500D01*
X149776713Y-70914130D01*
X149914130Y-70776713D01*
X149988500Y-70597169D01*
X149988500Y-70563500D01*
X154749553Y-70563500D01*
X154723287Y-70574380D01*
X154585870Y-70711797D01*
X154511500Y-70891341D01*
X154511500Y-71085679D01*
X154585870Y-71265223D01*
X154723287Y-71402640D01*
X154902831Y-71477010D01*
X155097169Y-71477010D01*
X155276713Y-71402640D01*
X155414130Y-71265223D01*
X155488500Y-71085679D01*
X155488500Y-70891341D01*
X155414130Y-70711797D01*
X155276713Y-70574380D01*
X155250447Y-70563500D01*
X156628278Y-70563500D01*
X156515506Y-70676271D01*
X156428500Y-70886321D01*
X156428500Y-71666625D01*
X156571375Y-71809500D01*
X157809500Y-71809500D01*
X157809500Y-71789500D01*
X158190500Y-71789500D01*
X158190500Y-71809500D01*
X159428625Y-71809500D01*
X159571500Y-71666625D01*
X159571500Y-70886321D01*
X159484494Y-70676271D01*
X159371722Y-70563500D01*
X163809393Y-70563500D01*
X163718997Y-70600943D01*
X163611573Y-70842165D01*
X164500000Y-71730592D01*
X165388427Y-70842165D01*
X165281003Y-70600943D01*
X165165227Y-70563500D01*
X166128278Y-70563500D01*
X166015506Y-70676271D01*
X165928500Y-70886321D01*
X165928500Y-71290079D01*
X165899057Y-71218997D01*
X165657835Y-71111573D01*
X164769408Y-72000000D01*
X165657835Y-72888427D01*
X165899057Y-72781003D01*
X165928500Y-72689964D01*
X165928500Y-73113679D01*
X166015506Y-73323729D01*
X166176272Y-73484494D01*
X166386322Y-73571500D01*
X167166625Y-73571500D01*
X167309500Y-73428625D01*
X167309500Y-72190500D01*
X167690500Y-72190500D01*
X167690500Y-73428625D01*
X167833375Y-73571500D01*
X168613678Y-73571500D01*
X168823728Y-73484494D01*
X168984494Y-73323729D01*
X169053209Y-73157835D01*
X173111573Y-73157835D01*
X173218997Y-73399057D01*
X173813844Y-73591436D01*
X174437030Y-73541535D01*
X174771891Y-73402831D01*
X188011500Y-73402831D01*
X188011500Y-73597169D01*
X188085870Y-73776713D01*
X188223287Y-73914130D01*
X188402831Y-73988500D01*
X188597169Y-73988500D01*
X188776713Y-73914130D01*
X188914130Y-73776713D01*
X188988500Y-73597169D01*
X188988500Y-73402831D01*
X188914130Y-73223287D01*
X188776713Y-73085870D01*
X188597169Y-73011500D01*
X188402831Y-73011500D01*
X188223287Y-73085870D01*
X188085870Y-73223287D01*
X188011500Y-73402831D01*
X174771891Y-73402831D01*
X174781003Y-73399057D01*
X174888427Y-73157835D01*
X174000000Y-72269408D01*
X173111573Y-73157835D01*
X169053209Y-73157835D01*
X169071500Y-73113679D01*
X169071500Y-72333375D01*
X168928625Y-72190500D01*
X167690500Y-72190500D01*
X167309500Y-72190500D01*
X167289500Y-72190500D01*
X167289500Y-71813844D01*
X172408564Y-71813844D01*
X172458465Y-72437030D01*
X172600943Y-72781003D01*
X172842165Y-72888427D01*
X173730592Y-72000000D01*
X174269408Y-72000000D01*
X175157835Y-72888427D01*
X175358307Y-72799150D01*
X175473287Y-72914130D01*
X175652831Y-72988500D01*
X175847169Y-72988500D01*
X176026713Y-72914130D01*
X176164130Y-72776713D01*
X176238500Y-72597169D01*
X176238500Y-72402831D01*
X177761500Y-72402831D01*
X177761500Y-72597169D01*
X177835870Y-72776713D01*
X177973287Y-72914130D01*
X178152831Y-72988500D01*
X178347169Y-72988500D01*
X178526713Y-72914130D01*
X178664130Y-72776713D01*
X178738500Y-72597169D01*
X178738500Y-72402831D01*
X180261500Y-72402831D01*
X180261500Y-72597169D01*
X180335870Y-72776713D01*
X180473287Y-72914130D01*
X180652831Y-72988500D01*
X180847169Y-72988500D01*
X181026713Y-72914130D01*
X181164130Y-72776713D01*
X181238500Y-72597169D01*
X181238500Y-72402831D01*
X181175482Y-72250692D01*
X205020099Y-72250692D01*
X207500000Y-74730592D01*
X209979901Y-72250692D01*
X209603369Y-71780863D01*
X208211349Y-71220981D01*
X206711033Y-71236420D01*
X205396631Y-71780863D01*
X205020099Y-72250692D01*
X181175482Y-72250692D01*
X181164130Y-72223287D01*
X181026713Y-72085870D01*
X180847169Y-72011500D01*
X180652831Y-72011500D01*
X180473287Y-72085870D01*
X180335870Y-72223287D01*
X180261500Y-72402831D01*
X178738500Y-72402831D01*
X178664130Y-72223287D01*
X178526713Y-72085870D01*
X178347169Y-72011500D01*
X178152831Y-72011500D01*
X177973287Y-72085870D01*
X177835870Y-72223287D01*
X177761500Y-72402831D01*
X176238500Y-72402831D01*
X176164130Y-72223287D01*
X176026713Y-72085870D01*
X175847169Y-72011500D01*
X175652831Y-72011500D01*
X175579871Y-72041721D01*
X175541535Y-71562970D01*
X175399057Y-71218997D01*
X175157835Y-71111573D01*
X174269408Y-72000000D01*
X173730592Y-72000000D01*
X172842165Y-71111573D01*
X172600943Y-71218997D01*
X172408564Y-71813844D01*
X167289500Y-71813844D01*
X167289500Y-71809500D01*
X167309500Y-71809500D01*
X167309500Y-71789500D01*
X167690500Y-71789500D01*
X167690500Y-71809500D01*
X168928625Y-71809500D01*
X169071500Y-71666625D01*
X169071500Y-70886321D01*
X168984494Y-70676271D01*
X168871722Y-70563500D01*
X173309393Y-70563500D01*
X173218997Y-70600943D01*
X173111573Y-70842165D01*
X174000000Y-71730592D01*
X174888427Y-70842165D01*
X174781003Y-70600943D01*
X174665227Y-70563500D01*
X182761500Y-70563500D01*
X182761500Y-70597169D01*
X182835870Y-70776713D01*
X182973287Y-70914130D01*
X183152831Y-70988500D01*
X183347169Y-70988500D01*
X183526713Y-70914130D01*
X183664130Y-70776713D01*
X183738500Y-70597169D01*
X183738500Y-70563500D01*
X211936500Y-70563500D01*
X211936500Y-94436500D01*
X153635639Y-94436500D01*
X153815992Y-94315992D01*
X154080707Y-93919818D01*
X154173662Y-93452500D01*
X154173662Y-91547500D01*
X154080707Y-91080182D01*
X153915796Y-90833375D01*
X156053500Y-90833375D01*
X156053500Y-91488679D01*
X156140506Y-91698729D01*
X156301272Y-91859494D01*
X156511322Y-91946500D01*
X157166625Y-91946500D01*
X157309500Y-91803625D01*
X157309500Y-90690500D01*
X156196375Y-90690500D01*
X156053500Y-90833375D01*
X153915796Y-90833375D01*
X153815992Y-90684008D01*
X153419818Y-90419293D01*
X152952500Y-90326338D01*
X151047500Y-90326338D01*
X150580182Y-90419293D01*
X150184008Y-90684008D01*
X149919293Y-91080182D01*
X149826338Y-91547500D01*
X149826338Y-93452500D01*
X149919293Y-93919818D01*
X150184008Y-94315992D01*
X150364361Y-94436500D01*
X149135639Y-94436500D01*
X149315992Y-94315992D01*
X149580707Y-93919818D01*
X149673662Y-93452500D01*
X149673662Y-91547500D01*
X149580707Y-91080182D01*
X149315992Y-90684008D01*
X148919818Y-90419293D01*
X148452500Y-90326338D01*
X146547500Y-90326338D01*
X146080182Y-90419293D01*
X145684008Y-90684008D01*
X145419293Y-91080182D01*
X145326338Y-91547500D01*
X145326338Y-93452500D01*
X145419293Y-93919818D01*
X145684008Y-94315992D01*
X145864361Y-94436500D01*
X143976500Y-94436500D01*
X143976500Y-92833375D01*
X143833625Y-92690500D01*
X141690500Y-92690500D01*
X141690500Y-92710500D01*
X141309500Y-92710500D01*
X141309500Y-92690500D01*
X141289500Y-92690500D01*
X141289500Y-92309500D01*
X141309500Y-92309500D01*
X141309500Y-90166375D01*
X141690500Y-90166375D01*
X141690500Y-92309500D01*
X143833625Y-92309500D01*
X143976500Y-92166625D01*
X143976500Y-90481321D01*
X143889494Y-90271271D01*
X143728728Y-90110506D01*
X143518678Y-90023500D01*
X141833375Y-90023500D01*
X141690500Y-90166375D01*
X141309500Y-90166375D01*
X141166625Y-90023500D01*
X139481322Y-90023500D01*
X139271272Y-90110506D01*
X139110506Y-90271271D01*
X139023500Y-90481321D01*
X139023500Y-90994566D01*
X138815992Y-90684008D01*
X138419818Y-90419293D01*
X137952500Y-90326338D01*
X136047500Y-90326338D01*
X135580182Y-90419293D01*
X135184008Y-90684008D01*
X134919293Y-91080182D01*
X134826338Y-91547500D01*
X134826338Y-93452500D01*
X134919293Y-93919818D01*
X135184008Y-94315992D01*
X135364361Y-94436500D01*
X132385639Y-94436500D01*
X132565992Y-94315992D01*
X132830707Y-93919818D01*
X132923662Y-93452500D01*
X132923662Y-91547500D01*
X132830707Y-91080182D01*
X132565992Y-90684008D01*
X132169818Y-90419293D01*
X131702500Y-90326338D01*
X129797500Y-90326338D01*
X129330182Y-90419293D01*
X128934008Y-90684008D01*
X128669293Y-91080182D01*
X128576338Y-91547500D01*
X128576338Y-93452500D01*
X128669293Y-93919818D01*
X128934008Y-94315992D01*
X129114361Y-94436500D01*
X127885639Y-94436500D01*
X128065992Y-94315992D01*
X128330707Y-93919818D01*
X128423662Y-93452500D01*
X128423662Y-91547500D01*
X128330707Y-91080182D01*
X128065992Y-90684008D01*
X127669818Y-90419293D01*
X127202500Y-90326338D01*
X125297500Y-90326338D01*
X124830182Y-90419293D01*
X124434008Y-90684008D01*
X124169293Y-91080182D01*
X124076338Y-91547500D01*
X124076338Y-93452500D01*
X124169293Y-93919818D01*
X124434008Y-94315992D01*
X124614361Y-94436500D01*
X115563500Y-94436500D01*
X115563500Y-92749308D01*
X117520099Y-92749308D01*
X117896631Y-93219137D01*
X119288651Y-93779019D01*
X120788967Y-93763580D01*
X122103369Y-93219137D01*
X122479901Y-92749308D01*
X120000000Y-90269408D01*
X117520099Y-92749308D01*
X115563500Y-92749308D01*
X115563500Y-89288651D01*
X116220981Y-89288651D01*
X116236420Y-90788967D01*
X116780863Y-92103369D01*
X117250692Y-92479901D01*
X119730592Y-90000000D01*
X120269408Y-90000000D01*
X122749308Y-92479901D01*
X123219137Y-92103369D01*
X123779019Y-90711349D01*
X123766671Y-89511321D01*
X156053500Y-89511321D01*
X156053500Y-90166625D01*
X156196375Y-90309500D01*
X157309500Y-90309500D01*
X157309500Y-89196375D01*
X157690500Y-89196375D01*
X157690500Y-90309500D01*
X157710500Y-90309500D01*
X157710500Y-90690500D01*
X157690500Y-90690500D01*
X157690500Y-91803625D01*
X157833375Y-91946500D01*
X158488678Y-91946500D01*
X158698728Y-91859494D01*
X158859494Y-91698729D01*
X158946500Y-91488679D01*
X158946500Y-90931671D01*
X159034826Y-91144909D01*
X159355091Y-91465174D01*
X159773538Y-91638500D01*
X160226462Y-91638500D01*
X160399411Y-91566862D01*
X161702545Y-91566862D01*
X161794491Y-91795148D01*
X162343826Y-91966547D01*
X162916938Y-91914678D01*
X163205509Y-91795148D01*
X163297455Y-91566862D01*
X162500000Y-90769408D01*
X161702545Y-91566862D01*
X160399411Y-91566862D01*
X160644909Y-91465174D01*
X160965174Y-91144909D01*
X161080710Y-90865980D01*
X161085322Y-90916938D01*
X161204852Y-91205509D01*
X161433138Y-91297455D01*
X162230592Y-90500000D01*
X162769408Y-90500000D01*
X163566862Y-91297455D01*
X163795148Y-91205509D01*
X163908907Y-90840912D01*
X164034826Y-91144909D01*
X164355091Y-91465174D01*
X164773538Y-91638500D01*
X165226462Y-91638500D01*
X165644909Y-91465174D01*
X165965174Y-91144909D01*
X166094215Y-90833375D01*
X170553500Y-90833375D01*
X170553500Y-91488679D01*
X170640506Y-91698729D01*
X170801272Y-91859494D01*
X171011322Y-91946500D01*
X171666625Y-91946500D01*
X171809500Y-91803625D01*
X171809500Y-90690500D01*
X170696375Y-90690500D01*
X170553500Y-90833375D01*
X166094215Y-90833375D01*
X166138500Y-90726462D01*
X166138500Y-90273538D01*
X165965174Y-89855091D01*
X165644909Y-89534826D01*
X165588163Y-89511321D01*
X170553500Y-89511321D01*
X170553500Y-90166625D01*
X170696375Y-90309500D01*
X171809500Y-90309500D01*
X171809500Y-89196375D01*
X172190500Y-89196375D01*
X172190500Y-90309500D01*
X172210500Y-90309500D01*
X172210500Y-90690500D01*
X172190500Y-90690500D01*
X172190500Y-91803625D01*
X172333375Y-91946500D01*
X172988678Y-91946500D01*
X173198728Y-91859494D01*
X173359494Y-91698729D01*
X173446500Y-91488679D01*
X173446500Y-90931671D01*
X173534826Y-91144909D01*
X173855091Y-91465174D01*
X174273538Y-91638500D01*
X174726462Y-91638500D01*
X174899411Y-91566862D01*
X176202545Y-91566862D01*
X176294491Y-91795148D01*
X176843826Y-91966547D01*
X177416938Y-91914678D01*
X177705509Y-91795148D01*
X177797455Y-91566862D01*
X177000000Y-90769408D01*
X176202545Y-91566862D01*
X174899411Y-91566862D01*
X175144909Y-91465174D01*
X175465174Y-91144909D01*
X175580710Y-90865980D01*
X175585322Y-90916938D01*
X175704852Y-91205509D01*
X175933138Y-91297455D01*
X176730592Y-90500000D01*
X177269408Y-90500000D01*
X178066862Y-91297455D01*
X178295148Y-91205509D01*
X178408907Y-90840912D01*
X178534826Y-91144909D01*
X178855091Y-91465174D01*
X179273538Y-91638500D01*
X179726462Y-91638500D01*
X179899411Y-91566862D01*
X181202545Y-91566862D01*
X181294491Y-91795148D01*
X181843826Y-91966547D01*
X182416938Y-91914678D01*
X182705509Y-91795148D01*
X182762829Y-91652831D01*
X188011500Y-91652831D01*
X188011500Y-91847169D01*
X188085870Y-92026713D01*
X188223287Y-92164130D01*
X188402831Y-92238500D01*
X188597169Y-92238500D01*
X188776713Y-92164130D01*
X188790843Y-92150000D01*
X192381338Y-92150000D01*
X192381338Y-93850000D01*
X192401789Y-93952812D01*
X192460027Y-94039973D01*
X192547188Y-94098211D01*
X192650000Y-94118662D01*
X194350000Y-94118662D01*
X194452812Y-94098211D01*
X194539973Y-94039973D01*
X194598211Y-93952812D01*
X194618662Y-93850000D01*
X194618662Y-93190502D01*
X194774181Y-93190502D01*
X194678451Y-93408523D01*
X194938428Y-93898468D01*
X195366109Y-94251630D01*
X195631480Y-94361533D01*
X195849500Y-94264354D01*
X195849500Y-93190500D01*
X195829500Y-93190500D01*
X195829500Y-92809500D01*
X195849500Y-92809500D01*
X195849500Y-91735646D01*
X196230500Y-91735646D01*
X196230500Y-92809500D01*
X196250500Y-92809500D01*
X196250500Y-93190500D01*
X196230500Y-93190500D01*
X196230500Y-94264354D01*
X196448520Y-94361533D01*
X196713891Y-94251630D01*
X197141572Y-93898468D01*
X197401549Y-93408523D01*
X197305819Y-93190502D01*
X197461500Y-93190502D01*
X197461500Y-93084529D01*
X197531107Y-93434466D01*
X197777212Y-93802788D01*
X198145534Y-94048893D01*
X198470334Y-94113500D01*
X198689666Y-94113500D01*
X199014466Y-94048893D01*
X199382788Y-93802788D01*
X199628893Y-93434466D01*
X199715314Y-93000000D01*
X199984686Y-93000000D01*
X200071107Y-93434466D01*
X200317212Y-93802788D01*
X200685534Y-94048893D01*
X201010334Y-94113500D01*
X201229666Y-94113500D01*
X201554466Y-94048893D01*
X201922788Y-93802788D01*
X202168893Y-93434466D01*
X202255314Y-93000000D01*
X202205449Y-92749308D01*
X205020099Y-92749308D01*
X205396631Y-93219137D01*
X206788651Y-93779019D01*
X208288967Y-93763580D01*
X209603369Y-93219137D01*
X209979901Y-92749308D01*
X207500000Y-90269408D01*
X205020099Y-92749308D01*
X202205449Y-92749308D01*
X202168893Y-92565534D01*
X201922788Y-92197212D01*
X201554466Y-91951107D01*
X201229666Y-91886500D01*
X201010334Y-91886500D01*
X200685534Y-91951107D01*
X200317212Y-92197212D01*
X200071107Y-92565534D01*
X199984686Y-93000000D01*
X199715314Y-93000000D01*
X199628893Y-92565534D01*
X199382788Y-92197212D01*
X199014466Y-91951107D01*
X198689666Y-91886500D01*
X198470334Y-91886500D01*
X198145534Y-91951107D01*
X197777212Y-92197212D01*
X197531107Y-92565534D01*
X197461500Y-92915471D01*
X197461500Y-92809498D01*
X197305819Y-92809498D01*
X197401549Y-92591477D01*
X197141572Y-92101532D01*
X196713891Y-91748370D01*
X196448520Y-91638467D01*
X196230500Y-91735646D01*
X195849500Y-91735646D01*
X195631480Y-91638467D01*
X195366109Y-91748370D01*
X194938428Y-92101532D01*
X194678451Y-92591477D01*
X194774181Y-92809498D01*
X194618662Y-92809498D01*
X194618662Y-92150000D01*
X194598211Y-92047188D01*
X194539973Y-91960027D01*
X194452812Y-91901789D01*
X194350000Y-91881338D01*
X192650000Y-91881338D01*
X192547188Y-91901789D01*
X192460027Y-91960027D01*
X192401789Y-92047188D01*
X192381338Y-92150000D01*
X188790843Y-92150000D01*
X188914130Y-92026713D01*
X188988500Y-91847169D01*
X188988500Y-91652831D01*
X188914130Y-91473287D01*
X188776713Y-91335870D01*
X188597169Y-91261500D01*
X188402831Y-91261500D01*
X188223287Y-91335870D01*
X188085870Y-91473287D01*
X188011500Y-91652831D01*
X182762829Y-91652831D01*
X182797455Y-91566862D01*
X182000000Y-90769408D01*
X181202545Y-91566862D01*
X179899411Y-91566862D01*
X180144909Y-91465174D01*
X180465174Y-91144909D01*
X180580710Y-90865980D01*
X180585322Y-90916938D01*
X180704852Y-91205509D01*
X180933138Y-91297455D01*
X181730592Y-90500000D01*
X182269408Y-90500000D01*
X183066862Y-91297455D01*
X183295148Y-91205509D01*
X183408907Y-90840912D01*
X183534826Y-91144909D01*
X183855091Y-91465174D01*
X184273538Y-91638500D01*
X184726462Y-91638500D01*
X185144909Y-91465174D01*
X185465174Y-91144909D01*
X185638500Y-90726462D01*
X185638500Y-90273538D01*
X185465174Y-89855091D01*
X185144909Y-89534826D01*
X184726462Y-89361500D01*
X184273538Y-89361500D01*
X183855091Y-89534826D01*
X183534826Y-89855091D01*
X183419290Y-90134020D01*
X183414678Y-90083062D01*
X183295148Y-89794491D01*
X183066862Y-89702545D01*
X182269408Y-90500000D01*
X181730592Y-90500000D01*
X180933138Y-89702545D01*
X180704852Y-89794491D01*
X180591093Y-90159088D01*
X180465174Y-89855091D01*
X180144909Y-89534826D01*
X179899412Y-89433138D01*
X181202545Y-89433138D01*
X182000000Y-90230592D01*
X182797455Y-89433138D01*
X182739261Y-89288651D01*
X203720981Y-89288651D01*
X203736420Y-90788967D01*
X204280863Y-92103369D01*
X204750692Y-92479901D01*
X207230592Y-90000000D01*
X207769408Y-90000000D01*
X210249308Y-92479901D01*
X210719137Y-92103369D01*
X211279019Y-90711349D01*
X211263580Y-89211033D01*
X210719137Y-87896631D01*
X210249308Y-87520099D01*
X207769408Y-90000000D01*
X207230592Y-90000000D01*
X204750692Y-87520099D01*
X204280863Y-87896631D01*
X203720981Y-89288651D01*
X182739261Y-89288651D01*
X182705509Y-89204852D01*
X182156174Y-89033453D01*
X181583062Y-89085322D01*
X181294491Y-89204852D01*
X181202545Y-89433138D01*
X179899412Y-89433138D01*
X179726462Y-89361500D01*
X179273538Y-89361500D01*
X178855091Y-89534826D01*
X178534826Y-89855091D01*
X178419290Y-90134020D01*
X178414678Y-90083062D01*
X178295148Y-89794491D01*
X178066862Y-89702545D01*
X177269408Y-90500000D01*
X176730592Y-90500000D01*
X175933138Y-89702545D01*
X175704852Y-89794491D01*
X175591093Y-90159088D01*
X175465174Y-89855091D01*
X175144909Y-89534826D01*
X174899412Y-89433138D01*
X176202545Y-89433138D01*
X177000000Y-90230592D01*
X177797455Y-89433138D01*
X177705509Y-89204852D01*
X177156174Y-89033453D01*
X176583062Y-89085322D01*
X176294491Y-89204852D01*
X176202545Y-89433138D01*
X174899412Y-89433138D01*
X174726462Y-89361500D01*
X174273538Y-89361500D01*
X173855091Y-89534826D01*
X173534826Y-89855091D01*
X173446500Y-90068329D01*
X173446500Y-89511321D01*
X173359494Y-89301271D01*
X173198728Y-89140506D01*
X172988678Y-89053500D01*
X172333375Y-89053500D01*
X172190500Y-89196375D01*
X171809500Y-89196375D01*
X171666625Y-89053500D01*
X171011322Y-89053500D01*
X170801272Y-89140506D01*
X170640506Y-89301271D01*
X170553500Y-89511321D01*
X165588163Y-89511321D01*
X165226462Y-89361500D01*
X164773538Y-89361500D01*
X164355091Y-89534826D01*
X164034826Y-89855091D01*
X163919290Y-90134020D01*
X163914678Y-90083062D01*
X163795148Y-89794491D01*
X163566862Y-89702545D01*
X162769408Y-90500000D01*
X162230592Y-90500000D01*
X161433138Y-89702545D01*
X161204852Y-89794491D01*
X161091093Y-90159088D01*
X160965174Y-89855091D01*
X160644909Y-89534826D01*
X160399412Y-89433138D01*
X161702545Y-89433138D01*
X162500000Y-90230592D01*
X163297455Y-89433138D01*
X163205509Y-89204852D01*
X162656174Y-89033453D01*
X162083062Y-89085322D01*
X161794491Y-89204852D01*
X161702545Y-89433138D01*
X160399412Y-89433138D01*
X160226462Y-89361500D01*
X159773538Y-89361500D01*
X159355091Y-89534826D01*
X159034826Y-89855091D01*
X158946500Y-90068329D01*
X158946500Y-89511321D01*
X158859494Y-89301271D01*
X158698728Y-89140506D01*
X158488678Y-89053500D01*
X157833375Y-89053500D01*
X157690500Y-89196375D01*
X157309500Y-89196375D01*
X157166625Y-89053500D01*
X156511322Y-89053500D01*
X156301272Y-89140506D01*
X156140506Y-89301271D01*
X156053500Y-89511321D01*
X123766671Y-89511321D01*
X123763580Y-89211033D01*
X123219137Y-87896631D01*
X122749308Y-87520099D01*
X120269408Y-90000000D01*
X119730592Y-90000000D01*
X117250692Y-87520099D01*
X116780863Y-87896631D01*
X116220981Y-89288651D01*
X115563500Y-89288651D01*
X115563500Y-87250692D01*
X117520099Y-87250692D01*
X120000000Y-89730592D01*
X122479901Y-87250692D01*
X122103369Y-86780863D01*
X120711349Y-86220981D01*
X119211033Y-86236420D01*
X117896631Y-86780863D01*
X117520099Y-87250692D01*
X115563500Y-87250692D01*
X115563500Y-86200000D01*
X128931338Y-86200000D01*
X128931338Y-87800000D01*
X128951789Y-87902812D01*
X129010027Y-87989973D01*
X129097188Y-88048211D01*
X129200000Y-88068662D01*
X130800000Y-88068662D01*
X130902812Y-88048211D01*
X130956717Y-88012193D01*
X131757215Y-88012193D01*
X131839840Y-88232730D01*
X132361837Y-88391525D01*
X132904867Y-88338475D01*
X133160160Y-88232730D01*
X133242785Y-88012193D01*
X132500000Y-87269408D01*
X131757215Y-88012193D01*
X130956717Y-88012193D01*
X130989973Y-87989973D01*
X131048211Y-87902812D01*
X131068662Y-87800000D01*
X131068662Y-86861837D01*
X131108475Y-86861837D01*
X131161525Y-87404867D01*
X131267270Y-87660160D01*
X131487807Y-87742785D01*
X132230592Y-87000000D01*
X132769408Y-87000000D01*
X133512193Y-87742785D01*
X133732730Y-87660160D01*
X133891525Y-87138163D01*
X133838475Y-86595133D01*
X133732730Y-86339840D01*
X133512193Y-86257215D01*
X132769408Y-87000000D01*
X132230592Y-87000000D01*
X131487807Y-86257215D01*
X131267270Y-86339840D01*
X131108475Y-86861837D01*
X131068662Y-86861837D01*
X131068662Y-86200000D01*
X131048211Y-86097188D01*
X130989973Y-86010027D01*
X130956718Y-85987807D01*
X131757215Y-85987807D01*
X132500000Y-86730592D01*
X133242785Y-85987807D01*
X133160160Y-85767270D01*
X132638163Y-85608475D01*
X132095133Y-85661525D01*
X131839840Y-85767270D01*
X131757215Y-85987807D01*
X130956718Y-85987807D01*
X130902812Y-85951789D01*
X130800000Y-85931338D01*
X129200000Y-85931338D01*
X129097188Y-85951789D01*
X129010027Y-86010027D01*
X128951789Y-86097188D01*
X128931338Y-86200000D01*
X115563500Y-86200000D01*
X115563500Y-84416413D01*
X136088633Y-84416413D01*
X136355421Y-84924822D01*
X136796461Y-85292436D01*
X136986973Y-85371338D01*
X136600000Y-85371338D01*
X136497188Y-85391789D01*
X136410027Y-85450027D01*
X136351789Y-85537188D01*
X136331338Y-85640000D01*
X136331338Y-87440000D01*
X136351789Y-87542812D01*
X136410027Y-87629973D01*
X136497188Y-87688211D01*
X136600000Y-87708662D01*
X138400000Y-87708662D01*
X138502812Y-87688211D01*
X138589973Y-87629973D01*
X138648211Y-87542812D01*
X138668662Y-87440000D01*
X138668662Y-86916411D01*
X141548648Y-86916411D01*
X141667564Y-87203539D01*
X142035178Y-87644579D01*
X142543587Y-87911367D01*
X142769500Y-87816257D01*
X142769500Y-86690500D01*
X141645103Y-86690500D01*
X141548648Y-86916411D01*
X138668662Y-86916411D01*
X138668662Y-86083589D01*
X141548648Y-86083589D01*
X141645103Y-86309500D01*
X142769500Y-86309500D01*
X142769500Y-85183743D01*
X143150500Y-85183743D01*
X143150500Y-86309500D01*
X143170500Y-86309500D01*
X143170500Y-86690500D01*
X143150500Y-86690500D01*
X143150500Y-87816257D01*
X143376413Y-87911367D01*
X143884822Y-87644579D01*
X144252436Y-87203539D01*
X144371352Y-86916411D01*
X144274898Y-86690502D01*
X144351599Y-86690502D01*
X144404007Y-86953975D01*
X144661163Y-87338837D01*
X145046025Y-87595993D01*
X145385407Y-87663500D01*
X145614593Y-87663500D01*
X145953975Y-87595993D01*
X146338837Y-87338837D01*
X146595993Y-86953975D01*
X146686294Y-86500000D01*
X146595993Y-86046025D01*
X146338837Y-85661163D01*
X146247300Y-85600000D01*
X146871338Y-85600000D01*
X146871338Y-87400000D01*
X146891789Y-87502812D01*
X146950027Y-87589973D01*
X147037188Y-87648211D01*
X147140000Y-87668662D01*
X148940000Y-87668662D01*
X149019586Y-87652831D01*
X159511500Y-87652831D01*
X159511500Y-87847169D01*
X159585870Y-88026713D01*
X159723287Y-88164130D01*
X159902831Y-88238500D01*
X160097169Y-88238500D01*
X160276713Y-88164130D01*
X160414130Y-88026713D01*
X160488500Y-87847169D01*
X160488500Y-87652831D01*
X164011500Y-87652831D01*
X164011500Y-87847169D01*
X164085870Y-88026713D01*
X164223287Y-88164130D01*
X164402831Y-88238500D01*
X164597169Y-88238500D01*
X164776713Y-88164130D01*
X164914130Y-88026713D01*
X164988500Y-87847169D01*
X164988500Y-87652831D01*
X174011500Y-87652831D01*
X174011500Y-87847169D01*
X174085870Y-88026713D01*
X174223287Y-88164130D01*
X174402831Y-88238500D01*
X174597169Y-88238500D01*
X174776713Y-88164130D01*
X174914130Y-88026713D01*
X174988500Y-87847169D01*
X174988500Y-87652831D01*
X179011500Y-87652831D01*
X179011500Y-87847169D01*
X179085870Y-88026713D01*
X179223287Y-88164130D01*
X179402831Y-88238500D01*
X179597169Y-88238500D01*
X179776713Y-88164130D01*
X179788012Y-88152831D01*
X191511500Y-88152831D01*
X191511500Y-88347169D01*
X191585870Y-88526713D01*
X191723287Y-88664130D01*
X191902831Y-88738500D01*
X192097169Y-88738500D01*
X192276713Y-88664130D01*
X192414130Y-88526713D01*
X192488500Y-88347169D01*
X192488500Y-88152831D01*
X192414130Y-87973287D01*
X192276713Y-87835870D01*
X192097169Y-87761500D01*
X191902831Y-87761500D01*
X191723287Y-87835870D01*
X191585870Y-87973287D01*
X191511500Y-88152831D01*
X179788012Y-88152831D01*
X179914130Y-88026713D01*
X179988500Y-87847169D01*
X179988500Y-87652831D01*
X179947142Y-87552983D01*
X184071918Y-87552983D01*
X184071918Y-87747321D01*
X184146288Y-87926865D01*
X184283705Y-88064282D01*
X184463249Y-88138652D01*
X184657587Y-88138652D01*
X184837131Y-88064282D01*
X184974548Y-87926865D01*
X185048918Y-87747321D01*
X185048918Y-87552983D01*
X184974548Y-87373439D01*
X184851801Y-87250692D01*
X205020099Y-87250692D01*
X207500000Y-89730592D01*
X209979901Y-87250692D01*
X209603369Y-86780863D01*
X208211349Y-86220981D01*
X206711033Y-86236420D01*
X205396631Y-86780863D01*
X205020099Y-87250692D01*
X184851801Y-87250692D01*
X184837131Y-87236022D01*
X184657587Y-87161652D01*
X184463249Y-87161652D01*
X184283705Y-87236022D01*
X184146288Y-87373439D01*
X184071918Y-87552983D01*
X179947142Y-87552983D01*
X179914130Y-87473287D01*
X179776713Y-87335870D01*
X179597169Y-87261500D01*
X179402831Y-87261500D01*
X179223287Y-87335870D01*
X179085870Y-87473287D01*
X179011500Y-87652831D01*
X174988500Y-87652831D01*
X174914130Y-87473287D01*
X174776713Y-87335870D01*
X174597169Y-87261500D01*
X174402831Y-87261500D01*
X174223287Y-87335870D01*
X174085870Y-87473287D01*
X174011500Y-87652831D01*
X164988500Y-87652831D01*
X164914130Y-87473287D01*
X164776713Y-87335870D01*
X164597169Y-87261500D01*
X164402831Y-87261500D01*
X164223287Y-87335870D01*
X164085870Y-87473287D01*
X164011500Y-87652831D01*
X160488500Y-87652831D01*
X160414130Y-87473287D01*
X160276713Y-87335870D01*
X160097169Y-87261500D01*
X159902831Y-87261500D01*
X159723287Y-87335870D01*
X159585870Y-87473287D01*
X159511500Y-87652831D01*
X149019586Y-87652831D01*
X149042812Y-87648211D01*
X149129973Y-87589973D01*
X149188211Y-87502812D01*
X149208662Y-87400000D01*
X149208662Y-86123841D01*
X164011500Y-86123841D01*
X164011500Y-86318179D01*
X164085870Y-86497723D01*
X164223287Y-86635140D01*
X164402831Y-86709510D01*
X164597169Y-86709510D01*
X164776713Y-86635140D01*
X164914130Y-86497723D01*
X164953435Y-86402831D01*
X166011500Y-86402831D01*
X166011500Y-86597169D01*
X166085870Y-86776713D01*
X166223287Y-86914130D01*
X166402831Y-86988500D01*
X166597169Y-86988500D01*
X166776713Y-86914130D01*
X166914130Y-86776713D01*
X166988500Y-86597169D01*
X166988500Y-86402831D01*
X166914130Y-86223287D01*
X166776713Y-86085870D01*
X166597169Y-86011500D01*
X166402831Y-86011500D01*
X166223287Y-86085870D01*
X166085870Y-86223287D01*
X166011500Y-86402831D01*
X164953435Y-86402831D01*
X164988500Y-86318179D01*
X164988500Y-86123841D01*
X164914130Y-85944297D01*
X164776713Y-85806880D01*
X164597169Y-85732510D01*
X164402831Y-85732510D01*
X164223287Y-85806880D01*
X164085870Y-85944297D01*
X164011500Y-86123841D01*
X149208662Y-86123841D01*
X149208662Y-85600000D01*
X149188211Y-85497188D01*
X149171894Y-85472767D01*
X159581436Y-85472767D01*
X159581436Y-85667105D01*
X159655806Y-85846649D01*
X159793223Y-85984066D01*
X159972767Y-86058436D01*
X160167105Y-86058436D01*
X160346649Y-85984066D01*
X160484066Y-85846649D01*
X160558436Y-85667105D01*
X160558436Y-85472767D01*
X160484066Y-85293223D01*
X160346649Y-85155806D01*
X160167105Y-85081436D01*
X159972767Y-85081436D01*
X159793223Y-85155806D01*
X159655806Y-85293223D01*
X159581436Y-85472767D01*
X149171894Y-85472767D01*
X149129973Y-85410027D01*
X149042812Y-85351789D01*
X148940000Y-85331338D01*
X147140000Y-85331338D01*
X147037188Y-85351789D01*
X146950027Y-85410027D01*
X146891789Y-85497188D01*
X146871338Y-85600000D01*
X146247300Y-85600000D01*
X145953975Y-85404007D01*
X145614593Y-85336500D01*
X145385407Y-85336500D01*
X145046025Y-85404007D01*
X144661163Y-85661163D01*
X144404007Y-86046025D01*
X144351599Y-86309498D01*
X144274898Y-86309498D01*
X144371352Y-86083589D01*
X144252436Y-85796461D01*
X143884822Y-85355421D01*
X143376413Y-85088633D01*
X143150500Y-85183743D01*
X142769500Y-85183743D01*
X142543587Y-85088633D01*
X142035178Y-85355421D01*
X141667564Y-85796461D01*
X141548648Y-86083589D01*
X138668662Y-86083589D01*
X138668662Y-85640000D01*
X138648211Y-85537188D01*
X138589973Y-85450027D01*
X138502812Y-85391789D01*
X138400000Y-85371338D01*
X138013027Y-85371338D01*
X138203539Y-85292436D01*
X138644579Y-84924822D01*
X138911367Y-84416413D01*
X138905649Y-84402831D01*
X156011500Y-84402831D01*
X156011500Y-84597169D01*
X156085870Y-84776713D01*
X156223287Y-84914130D01*
X156402831Y-84988500D01*
X156597169Y-84988500D01*
X156776713Y-84914130D01*
X156914130Y-84776713D01*
X156988500Y-84597169D01*
X156988500Y-84402831D01*
X156914130Y-84223287D01*
X156776713Y-84085870D01*
X156597169Y-84011500D01*
X156402831Y-84011500D01*
X156223287Y-84085870D01*
X156085870Y-84223287D01*
X156011500Y-84402831D01*
X138905649Y-84402831D01*
X138816257Y-84190500D01*
X137690500Y-84190500D01*
X137690500Y-84210500D01*
X137309500Y-84210500D01*
X137309500Y-84190500D01*
X136183743Y-84190500D01*
X136088633Y-84416413D01*
X115563500Y-84416413D01*
X115563500Y-82916411D01*
X118588648Y-82916411D01*
X118707564Y-83203539D01*
X119075178Y-83644579D01*
X119583587Y-83911367D01*
X119809500Y-83816257D01*
X119809500Y-82690500D01*
X118685103Y-82690500D01*
X118588648Y-82916411D01*
X115563500Y-82916411D01*
X115563500Y-82083589D01*
X118588648Y-82083589D01*
X118685103Y-82309500D01*
X119809500Y-82309500D01*
X119809500Y-81183743D01*
X120190500Y-81183743D01*
X120190500Y-82309500D01*
X120210500Y-82309500D01*
X120210500Y-82690500D01*
X120190500Y-82690500D01*
X120190500Y-83816257D01*
X120416413Y-83911367D01*
X120924822Y-83644579D01*
X121292436Y-83203539D01*
X121411352Y-82916411D01*
X121314898Y-82690502D01*
X121391599Y-82690502D01*
X121444007Y-82953975D01*
X121701163Y-83338837D01*
X122086025Y-83595993D01*
X122425407Y-83663500D01*
X122654593Y-83663500D01*
X122993975Y-83595993D01*
X123378837Y-83338837D01*
X123635993Y-82953975D01*
X123726294Y-82500000D01*
X123635993Y-82046025D01*
X123378837Y-81661163D01*
X123287300Y-81600000D01*
X123911338Y-81600000D01*
X123911338Y-83400000D01*
X123931789Y-83502812D01*
X123990027Y-83589973D01*
X124077188Y-83648211D01*
X124180000Y-83668662D01*
X125980000Y-83668662D01*
X126082812Y-83648211D01*
X126169973Y-83589973D01*
X126174239Y-83583587D01*
X136088633Y-83583587D01*
X136183743Y-83809500D01*
X137309500Y-83809500D01*
X137309500Y-83789500D01*
X137690500Y-83789500D01*
X137690500Y-83809500D01*
X138816257Y-83809500D01*
X138911367Y-83583587D01*
X138644579Y-83075178D01*
X138203539Y-82707564D01*
X137916411Y-82588648D01*
X137690502Y-82685102D01*
X137690502Y-82608401D01*
X137953975Y-82555993D01*
X138183198Y-82402831D01*
X140261500Y-82402831D01*
X140261500Y-82597169D01*
X140335870Y-82776713D01*
X140473287Y-82914130D01*
X140652831Y-82988500D01*
X140847169Y-82988500D01*
X141026713Y-82914130D01*
X141164130Y-82776713D01*
X141238500Y-82597169D01*
X141238500Y-82402831D01*
X141164130Y-82223287D01*
X141026713Y-82085870D01*
X140847169Y-82011500D01*
X140652831Y-82011500D01*
X140473287Y-82085870D01*
X140335870Y-82223287D01*
X140261500Y-82402831D01*
X138183198Y-82402831D01*
X138338837Y-82298837D01*
X138595993Y-81913975D01*
X138647937Y-81652831D01*
X147011500Y-81652831D01*
X147011500Y-81847169D01*
X147085870Y-82026713D01*
X147223287Y-82164130D01*
X147402831Y-82238500D01*
X147597169Y-82238500D01*
X147776713Y-82164130D01*
X147788012Y-82152831D01*
X154511500Y-82152831D01*
X154511500Y-82347169D01*
X154585870Y-82526713D01*
X154723287Y-82664130D01*
X154902831Y-82738500D01*
X155097169Y-82738500D01*
X155276713Y-82664130D01*
X155414130Y-82526713D01*
X155488500Y-82347169D01*
X155488500Y-82152831D01*
X155414130Y-81973287D01*
X155276713Y-81835870D01*
X155097169Y-81761500D01*
X154902831Y-81761500D01*
X154723287Y-81835870D01*
X154585870Y-81973287D01*
X154511500Y-82152831D01*
X147788012Y-82152831D01*
X147914130Y-82026713D01*
X147988500Y-81847169D01*
X147988500Y-81652831D01*
X147914130Y-81473287D01*
X147776713Y-81335870D01*
X147597169Y-81261500D01*
X147402831Y-81261500D01*
X147223287Y-81335870D01*
X147085870Y-81473287D01*
X147011500Y-81652831D01*
X138647937Y-81652831D01*
X138686294Y-81460000D01*
X138595993Y-81006025D01*
X138338837Y-80621163D01*
X137953975Y-80364007D01*
X137614593Y-80296500D01*
X137385407Y-80296500D01*
X137046025Y-80364007D01*
X136661163Y-80621163D01*
X136404007Y-81006025D01*
X136313706Y-81460000D01*
X136404007Y-81913975D01*
X136661163Y-82298837D01*
X137046025Y-82555993D01*
X137309498Y-82608401D01*
X137309498Y-82685102D01*
X137083589Y-82588648D01*
X136796461Y-82707564D01*
X136355421Y-83075178D01*
X136088633Y-83583587D01*
X126174239Y-83583587D01*
X126228211Y-83502812D01*
X126248662Y-83400000D01*
X126248662Y-82012193D01*
X129257215Y-82012193D01*
X129339840Y-82232730D01*
X129861837Y-82391525D01*
X130404867Y-82338475D01*
X130660160Y-82232730D01*
X130742785Y-82012193D01*
X130000000Y-81269408D01*
X129257215Y-82012193D01*
X126248662Y-82012193D01*
X126248662Y-81600000D01*
X126228211Y-81497188D01*
X126169973Y-81410027D01*
X126082812Y-81351789D01*
X125980000Y-81331338D01*
X124180000Y-81331338D01*
X124077188Y-81351789D01*
X123990027Y-81410027D01*
X123931789Y-81497188D01*
X123911338Y-81600000D01*
X123287300Y-81600000D01*
X122993975Y-81404007D01*
X122654593Y-81336500D01*
X122425407Y-81336500D01*
X122086025Y-81404007D01*
X121701163Y-81661163D01*
X121444007Y-82046025D01*
X121391599Y-82309498D01*
X121314898Y-82309498D01*
X121411352Y-82083589D01*
X121292436Y-81796461D01*
X120924822Y-81355421D01*
X120416413Y-81088633D01*
X120190500Y-81183743D01*
X119809500Y-81183743D01*
X119583587Y-81088633D01*
X119075178Y-81355421D01*
X118707564Y-81796461D01*
X118588648Y-82083589D01*
X115563500Y-82083589D01*
X115563500Y-80861837D01*
X128608475Y-80861837D01*
X128661525Y-81404867D01*
X128767270Y-81660160D01*
X128987807Y-81742785D01*
X129730592Y-81000000D01*
X130269408Y-81000000D01*
X131012193Y-81742785D01*
X131232730Y-81660160D01*
X131391525Y-81138163D01*
X131338475Y-80595133D01*
X131232730Y-80339840D01*
X131012193Y-80257215D01*
X130269408Y-81000000D01*
X129730592Y-81000000D01*
X128987807Y-80257215D01*
X128767270Y-80339840D01*
X128608475Y-80861837D01*
X115563500Y-80861837D01*
X115563500Y-79987807D01*
X129257215Y-79987807D01*
X130000000Y-80730592D01*
X130530592Y-80200000D01*
X131431338Y-80200000D01*
X131431338Y-81800000D01*
X131451789Y-81902812D01*
X131510027Y-81989973D01*
X131597188Y-82048211D01*
X131700000Y-82068662D01*
X133300000Y-82068662D01*
X133402812Y-82048211D01*
X133489973Y-81989973D01*
X133548211Y-81902812D01*
X133568662Y-81800000D01*
X133568662Y-80200000D01*
X133548211Y-80097188D01*
X133489973Y-80010027D01*
X133402812Y-79951789D01*
X133300000Y-79931338D01*
X131700000Y-79931338D01*
X131597188Y-79951789D01*
X131510027Y-80010027D01*
X131451789Y-80097188D01*
X131431338Y-80200000D01*
X130530592Y-80200000D01*
X130742785Y-79987807D01*
X130660160Y-79767270D01*
X130138163Y-79608475D01*
X129595133Y-79661525D01*
X129339840Y-79767270D01*
X129257215Y-79987807D01*
X115563500Y-79987807D01*
X115563500Y-79152831D01*
X147511500Y-79152831D01*
X147511500Y-79347169D01*
X147585870Y-79526713D01*
X147684157Y-79625000D01*
X147585870Y-79723287D01*
X147511500Y-79902831D01*
X147511500Y-80097169D01*
X147585870Y-80276713D01*
X147723287Y-80414130D01*
X147844725Y-80464432D01*
X147835870Y-80473287D01*
X147761500Y-80652831D01*
X147761500Y-80847169D01*
X147835870Y-81026713D01*
X147973287Y-81164130D01*
X148152831Y-81238500D01*
X148347169Y-81238500D01*
X148526713Y-81164130D01*
X148625000Y-81065843D01*
X148723287Y-81164130D01*
X148902831Y-81238500D01*
X149097169Y-81238500D01*
X149276713Y-81164130D01*
X149375000Y-81065843D01*
X149473287Y-81164130D01*
X149652831Y-81238500D01*
X149847169Y-81238500D01*
X150026713Y-81164130D01*
X150164130Y-81026713D01*
X150215443Y-80902831D01*
X152511500Y-80902831D01*
X152511500Y-81097169D01*
X152585870Y-81276713D01*
X152723287Y-81414130D01*
X152902831Y-81488500D01*
X153097169Y-81488500D01*
X153276713Y-81414130D01*
X153414130Y-81276713D01*
X153488500Y-81097169D01*
X153488500Y-80902831D01*
X164011500Y-80902831D01*
X164011500Y-81097169D01*
X164085870Y-81276713D01*
X164223287Y-81414130D01*
X164402831Y-81488500D01*
X164597169Y-81488500D01*
X164776713Y-81414130D01*
X164788012Y-81402831D01*
X173511500Y-81402831D01*
X173511500Y-81597169D01*
X173585870Y-81776713D01*
X173723287Y-81914130D01*
X173902831Y-81988500D01*
X174097169Y-81988500D01*
X174276713Y-81914130D01*
X174414130Y-81776713D01*
X174488500Y-81597169D01*
X174488500Y-81402831D01*
X174414130Y-81223287D01*
X174343674Y-81152831D01*
X196261500Y-81152831D01*
X196261500Y-81347169D01*
X196335870Y-81526713D01*
X196473287Y-81664130D01*
X196652831Y-81738500D01*
X196847169Y-81738500D01*
X197026713Y-81664130D01*
X197164130Y-81526713D01*
X197220203Y-81391341D01*
X203261500Y-81391341D01*
X203261500Y-81585679D01*
X203335870Y-81765223D01*
X203473287Y-81902640D01*
X203652831Y-81977010D01*
X203847169Y-81977010D01*
X204026713Y-81902640D01*
X204164130Y-81765223D01*
X204238500Y-81585679D01*
X204238500Y-81420431D01*
X204402831Y-81488500D01*
X204597169Y-81488500D01*
X204776713Y-81414130D01*
X204914130Y-81276713D01*
X204988500Y-81097169D01*
X204988500Y-80902831D01*
X204914130Y-80723287D01*
X204776713Y-80585870D01*
X204597169Y-80511500D01*
X204402831Y-80511500D01*
X204223287Y-80585870D01*
X204085870Y-80723287D01*
X204011500Y-80902831D01*
X204011500Y-81068079D01*
X203847169Y-81000010D01*
X203652831Y-81000010D01*
X203473287Y-81074380D01*
X203335870Y-81211797D01*
X203261500Y-81391341D01*
X197220203Y-81391341D01*
X197238500Y-81347169D01*
X197238500Y-81152831D01*
X197164130Y-80973287D01*
X197026713Y-80835870D01*
X196847169Y-80761500D01*
X196652831Y-80761500D01*
X196473287Y-80835870D01*
X196335870Y-80973287D01*
X196261500Y-81152831D01*
X174343674Y-81152831D01*
X174276713Y-81085870D01*
X174097169Y-81011500D01*
X173902831Y-81011500D01*
X173723287Y-81085870D01*
X173585870Y-81223287D01*
X173511500Y-81402831D01*
X164788012Y-81402831D01*
X164914130Y-81276713D01*
X164988500Y-81097169D01*
X164988500Y-80902831D01*
X164914130Y-80723287D01*
X164776713Y-80585870D01*
X164678922Y-80545363D01*
X176470808Y-80545363D01*
X176470808Y-80739701D01*
X176545178Y-80919245D01*
X176682595Y-81056662D01*
X176862139Y-81131032D01*
X177056477Y-81131032D01*
X177236021Y-81056662D01*
X177373438Y-80919245D01*
X177447808Y-80739701D01*
X177447808Y-80545363D01*
X177373438Y-80365819D01*
X177236021Y-80228402D01*
X177211759Y-80218352D01*
X177987549Y-80218352D01*
X177987549Y-80412690D01*
X178061919Y-80592234D01*
X178199336Y-80729651D01*
X178378880Y-80804021D01*
X178573218Y-80804021D01*
X178752762Y-80729651D01*
X178890179Y-80592234D01*
X178964549Y-80412690D01*
X178964549Y-80218352D01*
X179011500Y-80218352D01*
X179011500Y-80412690D01*
X179085870Y-80592234D01*
X179223287Y-80729651D01*
X179402831Y-80804021D01*
X179597169Y-80804021D01*
X179776713Y-80729651D01*
X179914130Y-80592234D01*
X179988500Y-80412690D01*
X179988500Y-80218352D01*
X179914130Y-80038808D01*
X179776713Y-79901391D01*
X179752451Y-79891341D01*
X180578419Y-79891341D01*
X180578419Y-80085679D01*
X180652789Y-80265223D01*
X180790206Y-80402640D01*
X180969750Y-80477010D01*
X181164088Y-80477010D01*
X181343632Y-80402640D01*
X181481049Y-80265223D01*
X181531080Y-80144439D01*
X181585870Y-80276713D01*
X181723287Y-80414130D01*
X181902831Y-80488500D01*
X182097169Y-80488500D01*
X182276713Y-80414130D01*
X182414130Y-80276713D01*
X182488500Y-80097169D01*
X182488500Y-79902831D01*
X184011500Y-79902831D01*
X184011500Y-80097169D01*
X184085870Y-80276713D01*
X184223287Y-80414130D01*
X184402831Y-80488500D01*
X184597169Y-80488500D01*
X184776713Y-80414130D01*
X184788012Y-80402831D01*
X198511500Y-80402831D01*
X198511500Y-80597169D01*
X198585870Y-80776713D01*
X198723287Y-80914130D01*
X198902831Y-80988500D01*
X199097169Y-80988500D01*
X199276713Y-80914130D01*
X199414130Y-80776713D01*
X199488500Y-80597169D01*
X199488500Y-80402831D01*
X199414130Y-80223287D01*
X199276713Y-80085870D01*
X199097169Y-80011500D01*
X198902831Y-80011500D01*
X198723287Y-80085870D01*
X198585870Y-80223287D01*
X198511500Y-80402831D01*
X184788012Y-80402831D01*
X184914130Y-80276713D01*
X184988500Y-80097169D01*
X184988500Y-79902831D01*
X184914130Y-79723287D01*
X184776713Y-79585870D01*
X184597169Y-79511500D01*
X184402831Y-79511500D01*
X184223287Y-79585870D01*
X184085870Y-79723287D01*
X184011500Y-79902831D01*
X182488500Y-79902831D01*
X182414130Y-79723287D01*
X182276713Y-79585870D01*
X182097169Y-79511500D01*
X181902831Y-79511500D01*
X181723287Y-79585870D01*
X181585870Y-79723287D01*
X181535839Y-79844071D01*
X181481049Y-79711797D01*
X181343632Y-79574380D01*
X181164088Y-79500010D01*
X180969750Y-79500010D01*
X180790206Y-79574380D01*
X180652789Y-79711797D01*
X180578419Y-79891341D01*
X179752451Y-79891341D01*
X179597169Y-79827021D01*
X179402831Y-79827021D01*
X179223287Y-79901391D01*
X179085870Y-80038808D01*
X179011500Y-80218352D01*
X178964549Y-80218352D01*
X178890179Y-80038808D01*
X178752762Y-79901391D01*
X178573218Y-79827021D01*
X178378880Y-79827021D01*
X178199336Y-79901391D01*
X178061919Y-80038808D01*
X177987549Y-80218352D01*
X177211759Y-80218352D01*
X177056477Y-80154032D01*
X176862139Y-80154032D01*
X176682595Y-80228402D01*
X176545178Y-80365819D01*
X176470808Y-80545363D01*
X164678922Y-80545363D01*
X164597169Y-80511500D01*
X164402831Y-80511500D01*
X164223287Y-80585870D01*
X164085870Y-80723287D01*
X164011500Y-80902831D01*
X153488500Y-80902831D01*
X153414130Y-80723287D01*
X153276713Y-80585870D01*
X153097169Y-80511500D01*
X152902831Y-80511500D01*
X152723287Y-80585870D01*
X152585870Y-80723287D01*
X152511500Y-80902831D01*
X150215443Y-80902831D01*
X150238500Y-80847169D01*
X150238500Y-80652831D01*
X150164130Y-80473287D01*
X150026713Y-80335870D01*
X149847169Y-80261500D01*
X149652831Y-80261500D01*
X149473287Y-80335870D01*
X149375000Y-80434157D01*
X149276713Y-80335870D01*
X149097169Y-80261500D01*
X148902831Y-80261500D01*
X148723287Y-80335870D01*
X148625000Y-80434157D01*
X148526713Y-80335870D01*
X148405275Y-80285568D01*
X148414130Y-80276713D01*
X148488500Y-80097169D01*
X148488500Y-79902831D01*
X148414130Y-79723287D01*
X148315843Y-79625000D01*
X148414130Y-79526713D01*
X148440568Y-79462886D01*
X156761500Y-79462886D01*
X156761500Y-79657224D01*
X156835870Y-79836768D01*
X156973287Y-79974185D01*
X157152831Y-80048555D01*
X157347169Y-80048555D01*
X157526713Y-79974185D01*
X157664130Y-79836768D01*
X157738500Y-79657224D01*
X157738500Y-79462886D01*
X157664130Y-79283342D01*
X157526713Y-79145925D01*
X157347169Y-79071555D01*
X157152831Y-79071555D01*
X156973287Y-79145925D01*
X156835870Y-79283342D01*
X156761500Y-79462886D01*
X148440568Y-79462886D01*
X148488500Y-79347169D01*
X148488500Y-79152831D01*
X148414130Y-78973287D01*
X148276713Y-78835870D01*
X148097169Y-78761500D01*
X147902831Y-78761500D01*
X147723287Y-78835870D01*
X147585870Y-78973287D01*
X147511500Y-79152831D01*
X115563500Y-79152831D01*
X115563500Y-77749308D01*
X117520099Y-77749308D01*
X117896631Y-78219137D01*
X119288651Y-78779019D01*
X120788967Y-78763580D01*
X122103369Y-78219137D01*
X122156508Y-78152831D01*
X147511500Y-78152831D01*
X147511500Y-78347169D01*
X147585870Y-78526713D01*
X147723287Y-78664130D01*
X147902831Y-78738500D01*
X148097169Y-78738500D01*
X148271331Y-78666359D01*
X152517381Y-78666359D01*
X152517381Y-78860697D01*
X152591751Y-79040241D01*
X152729168Y-79177658D01*
X152908712Y-79252028D01*
X153103050Y-79252028D01*
X153282594Y-79177658D01*
X153420011Y-79040241D01*
X153494381Y-78860697D01*
X153494381Y-78666359D01*
X153420011Y-78486815D01*
X153397436Y-78464240D01*
X156087143Y-78464240D01*
X156087143Y-78658578D01*
X156161513Y-78838122D01*
X156298930Y-78975539D01*
X156478474Y-79049909D01*
X156672812Y-79049909D01*
X156852356Y-78975539D01*
X156913574Y-78914321D01*
X186108345Y-78914321D01*
X186108345Y-79108659D01*
X186182715Y-79288203D01*
X186320132Y-79425620D01*
X186499676Y-79499990D01*
X186694014Y-79499990D01*
X186873558Y-79425620D01*
X187010975Y-79288203D01*
X187085345Y-79108659D01*
X187085345Y-78914321D01*
X187010975Y-78734777D01*
X186873558Y-78597360D01*
X186694014Y-78522990D01*
X186499676Y-78522990D01*
X186320132Y-78597360D01*
X186182715Y-78734777D01*
X186108345Y-78914321D01*
X156913574Y-78914321D01*
X156989773Y-78838122D01*
X157064143Y-78658578D01*
X157064143Y-78464240D01*
X156989773Y-78284696D01*
X156857908Y-78152831D01*
X175261500Y-78152831D01*
X175261500Y-78347169D01*
X175335870Y-78526713D01*
X175473287Y-78664130D01*
X175652831Y-78738500D01*
X175847169Y-78738500D01*
X176026713Y-78664130D01*
X176164130Y-78526713D01*
X176238500Y-78347169D01*
X176238500Y-78152831D01*
X176164130Y-77973287D01*
X176026713Y-77835870D01*
X175847169Y-77761500D01*
X175652831Y-77761500D01*
X175473287Y-77835870D01*
X175335870Y-77973287D01*
X175261500Y-78152831D01*
X156857908Y-78152831D01*
X156852356Y-78147279D01*
X156672812Y-78072909D01*
X156478474Y-78072909D01*
X156298930Y-78147279D01*
X156161513Y-78284696D01*
X156087143Y-78464240D01*
X153397436Y-78464240D01*
X153282594Y-78349398D01*
X153103050Y-78275028D01*
X152908712Y-78275028D01*
X152729168Y-78349398D01*
X152591751Y-78486815D01*
X152517381Y-78666359D01*
X148271331Y-78666359D01*
X148276713Y-78664130D01*
X148414130Y-78526713D01*
X148488500Y-78347169D01*
X148488500Y-78152831D01*
X148414130Y-77973287D01*
X148405275Y-77964432D01*
X148526713Y-77914130D01*
X148549502Y-77891341D01*
X151761500Y-77891341D01*
X151761500Y-78085679D01*
X151835870Y-78265223D01*
X151973287Y-78402640D01*
X152152831Y-78477010D01*
X152347169Y-78477010D01*
X152526713Y-78402640D01*
X152664130Y-78265223D01*
X152738500Y-78085679D01*
X152738500Y-77891341D01*
X152664130Y-77711797D01*
X152526713Y-77574380D01*
X152347169Y-77500010D01*
X152152831Y-77500010D01*
X151973287Y-77574380D01*
X151835870Y-77711797D01*
X151761500Y-77891341D01*
X148549502Y-77891341D01*
X148664130Y-77776713D01*
X148738500Y-77597169D01*
X148738500Y-77402831D01*
X148664130Y-77223287D01*
X148565843Y-77125000D01*
X148664130Y-77026713D01*
X148738500Y-76847169D01*
X148738500Y-76652831D01*
X148664130Y-76473287D01*
X148526713Y-76335870D01*
X148347169Y-76261500D01*
X148152831Y-76261500D01*
X147973287Y-76335870D01*
X147835870Y-76473287D01*
X147761500Y-76652831D01*
X147761500Y-76847169D01*
X147835870Y-77026713D01*
X147934157Y-77125000D01*
X147835870Y-77223287D01*
X147761500Y-77402831D01*
X147761500Y-77597169D01*
X147835870Y-77776713D01*
X147844725Y-77785568D01*
X147723287Y-77835870D01*
X147585870Y-77973287D01*
X147511500Y-78152831D01*
X122156508Y-78152831D01*
X122479901Y-77749308D01*
X120000000Y-75269408D01*
X117520099Y-77749308D01*
X115563500Y-77749308D01*
X115563500Y-74288651D01*
X116220981Y-74288651D01*
X116236420Y-75788967D01*
X116780863Y-77103369D01*
X117250692Y-77479901D01*
X119730592Y-75000000D01*
X120269408Y-75000000D01*
X122749308Y-77479901D01*
X123219137Y-77103369D01*
X123779019Y-75711349D01*
X123771170Y-74948523D01*
X127598451Y-74948523D01*
X127858428Y-75438468D01*
X128286109Y-75791630D01*
X128551480Y-75901533D01*
X128769500Y-75804354D01*
X128769500Y-74730500D01*
X127694182Y-74730500D01*
X127598451Y-74948523D01*
X123771170Y-74948523D01*
X123763580Y-74211033D01*
X123730627Y-74131477D01*
X127598451Y-74131477D01*
X127694182Y-74349500D01*
X128769500Y-74349500D01*
X128769500Y-73275646D01*
X129150500Y-73275646D01*
X129150500Y-74349500D01*
X129170500Y-74349500D01*
X129170500Y-74730500D01*
X129150500Y-74730500D01*
X129150500Y-75804354D01*
X129368520Y-75901533D01*
X129633891Y-75791630D01*
X130061572Y-75438468D01*
X130321549Y-74948523D01*
X130225819Y-74730502D01*
X130381500Y-74730502D01*
X130381500Y-74624529D01*
X130451107Y-74974466D01*
X130697212Y-75342788D01*
X131065534Y-75588893D01*
X131390334Y-75653500D01*
X131609666Y-75653500D01*
X131934466Y-75588893D01*
X132302788Y-75342788D01*
X132548893Y-74974466D01*
X132635314Y-74540000D01*
X132904686Y-74540000D01*
X132991107Y-74974466D01*
X133237212Y-75342788D01*
X133605534Y-75588893D01*
X133930334Y-75653500D01*
X134149666Y-75653500D01*
X134474466Y-75588893D01*
X134523196Y-75556332D01*
X147665001Y-75556332D01*
X147665001Y-75750670D01*
X147739371Y-75930214D01*
X147876788Y-76067631D01*
X148056332Y-76142001D01*
X148250670Y-76142001D01*
X148430214Y-76067631D01*
X148567631Y-75930214D01*
X148578973Y-75902831D01*
X149761500Y-75902831D01*
X149761500Y-76097169D01*
X149835870Y-76276713D01*
X149973287Y-76414130D01*
X150152831Y-76488500D01*
X150347169Y-76488500D01*
X150526713Y-76414130D01*
X150664130Y-76276713D01*
X150675744Y-76248674D01*
X156736500Y-76248674D01*
X156736500Y-76751326D01*
X156928857Y-77215715D01*
X157284285Y-77571143D01*
X157748674Y-77763500D01*
X158251326Y-77763500D01*
X158715715Y-77571143D01*
X159071143Y-77215715D01*
X159097190Y-77152831D01*
X162011500Y-77152831D01*
X162011500Y-77347169D01*
X162085870Y-77526713D01*
X162223287Y-77664130D01*
X162402831Y-77738500D01*
X162597169Y-77738500D01*
X162776713Y-77664130D01*
X162914130Y-77526713D01*
X162988500Y-77347169D01*
X162988500Y-77152831D01*
X162914130Y-76973287D01*
X162776713Y-76835870D01*
X162597169Y-76761500D01*
X162402831Y-76761500D01*
X162223287Y-76835870D01*
X162085870Y-76973287D01*
X162011500Y-77152831D01*
X159097190Y-77152831D01*
X159263500Y-76751326D01*
X159263500Y-76472767D01*
X159581436Y-76472767D01*
X159581436Y-76667105D01*
X159655806Y-76846649D01*
X159793223Y-76984066D01*
X159972767Y-77058436D01*
X160167105Y-77058436D01*
X160346649Y-76984066D01*
X160484066Y-76846649D01*
X160558436Y-76667105D01*
X160558436Y-76472767D01*
X160484066Y-76293223D01*
X160439517Y-76248674D01*
X163236500Y-76248674D01*
X163236500Y-76751326D01*
X163428857Y-77215715D01*
X163784285Y-77571143D01*
X164248674Y-77763500D01*
X164751326Y-77763500D01*
X165215715Y-77571143D01*
X165571143Y-77215715D01*
X165763500Y-76751326D01*
X165763500Y-76248674D01*
X166236500Y-76248674D01*
X166236500Y-76751326D01*
X166428857Y-77215715D01*
X166784285Y-77571143D01*
X167248674Y-77763500D01*
X167751326Y-77763500D01*
X168215715Y-77571143D01*
X168571143Y-77215715D01*
X168700744Y-76902831D01*
X172011500Y-76902831D01*
X172011500Y-77097169D01*
X172085870Y-77276713D01*
X172223287Y-77414130D01*
X172402831Y-77488500D01*
X172597169Y-77488500D01*
X172776713Y-77414130D01*
X172914130Y-77276713D01*
X172936309Y-77223167D01*
X173284285Y-77571143D01*
X173748674Y-77763500D01*
X174251326Y-77763500D01*
X174285588Y-77749308D01*
X205020099Y-77749308D01*
X205396631Y-78219137D01*
X206788651Y-78779019D01*
X208288967Y-78763580D01*
X209603369Y-78219137D01*
X209979901Y-77749308D01*
X207500000Y-75269408D01*
X205020099Y-77749308D01*
X174285588Y-77749308D01*
X174715715Y-77571143D01*
X175071143Y-77215715D01*
X175200744Y-76902831D01*
X185511500Y-76902831D01*
X185511500Y-77097169D01*
X185585870Y-77276713D01*
X185723287Y-77414130D01*
X185902831Y-77488500D01*
X186097169Y-77488500D01*
X186276713Y-77414130D01*
X186414130Y-77276713D01*
X186488500Y-77097169D01*
X186488500Y-76902831D01*
X191011500Y-76902831D01*
X191011500Y-77097169D01*
X191085870Y-77276713D01*
X191223287Y-77414130D01*
X191402831Y-77488500D01*
X191597169Y-77488500D01*
X191776713Y-77414130D01*
X191914130Y-77276713D01*
X191988500Y-77097169D01*
X191988500Y-76902831D01*
X191914130Y-76723287D01*
X191776713Y-76585870D01*
X191597169Y-76511500D01*
X191402831Y-76511500D01*
X191223287Y-76585870D01*
X191085870Y-76723287D01*
X191011500Y-76902831D01*
X186488500Y-76902831D01*
X186414130Y-76723287D01*
X186276713Y-76585870D01*
X186097169Y-76511500D01*
X185902831Y-76511500D01*
X185723287Y-76585870D01*
X185585870Y-76723287D01*
X185511500Y-76902831D01*
X175200744Y-76902831D01*
X175263500Y-76751326D01*
X175263500Y-76248674D01*
X175071143Y-75784285D01*
X174939689Y-75652831D01*
X176511500Y-75652831D01*
X176511500Y-75847169D01*
X176585870Y-76026713D01*
X176723287Y-76164130D01*
X176902831Y-76238500D01*
X177097169Y-76238500D01*
X177276713Y-76164130D01*
X177414130Y-76026713D01*
X177488500Y-75847169D01*
X177488500Y-75652831D01*
X179011500Y-75652831D01*
X179011500Y-75847169D01*
X179085870Y-76026713D01*
X179223287Y-76164130D01*
X179402831Y-76238500D01*
X179597169Y-76238500D01*
X179776713Y-76164130D01*
X179914130Y-76026713D01*
X179988500Y-75847169D01*
X179988500Y-75652831D01*
X181511500Y-75652831D01*
X181511500Y-75847169D01*
X181585870Y-76026713D01*
X181723287Y-76164130D01*
X181902831Y-76238500D01*
X182097169Y-76238500D01*
X182276713Y-76164130D01*
X182414130Y-76026713D01*
X182488500Y-75847169D01*
X182488500Y-75652831D01*
X184011500Y-75652831D01*
X184011500Y-75847169D01*
X184085870Y-76026713D01*
X184223287Y-76164130D01*
X184402831Y-76238500D01*
X184597169Y-76238500D01*
X184776713Y-76164130D01*
X184914130Y-76026713D01*
X184988500Y-75847169D01*
X184988500Y-75808076D01*
X194836500Y-75808076D01*
X194836500Y-76091924D01*
X194945124Y-76354165D01*
X195145835Y-76554876D01*
X195408076Y-76663500D01*
X195691924Y-76663500D01*
X195954165Y-76554876D01*
X196154876Y-76354165D01*
X196263500Y-76091924D01*
X196263500Y-75808076D01*
X199236500Y-75808076D01*
X199236500Y-76091924D01*
X199345124Y-76354165D01*
X199545835Y-76554876D01*
X199808076Y-76663500D01*
X200091924Y-76663500D01*
X200354165Y-76554876D01*
X200554876Y-76354165D01*
X200663500Y-76091924D01*
X200663500Y-75808076D01*
X200554876Y-75545835D01*
X200354165Y-75345124D01*
X200091924Y-75236500D01*
X199808076Y-75236500D01*
X199545835Y-75345124D01*
X199345124Y-75545835D01*
X199236500Y-75808076D01*
X196263500Y-75808076D01*
X196154876Y-75545835D01*
X195954165Y-75345124D01*
X195691924Y-75236500D01*
X195408076Y-75236500D01*
X195145835Y-75345124D01*
X194945124Y-75545835D01*
X194836500Y-75808076D01*
X184988500Y-75808076D01*
X184988500Y-75652831D01*
X184914130Y-75473287D01*
X184776713Y-75335870D01*
X184597169Y-75261500D01*
X184402831Y-75261500D01*
X184223287Y-75335870D01*
X184085870Y-75473287D01*
X184011500Y-75652831D01*
X182488500Y-75652831D01*
X182414130Y-75473287D01*
X182276713Y-75335870D01*
X182097169Y-75261500D01*
X181902831Y-75261500D01*
X181723287Y-75335870D01*
X181585870Y-75473287D01*
X181511500Y-75652831D01*
X179988500Y-75652831D01*
X179914130Y-75473287D01*
X179776713Y-75335870D01*
X179597169Y-75261500D01*
X179402831Y-75261500D01*
X179223287Y-75335870D01*
X179085870Y-75473287D01*
X179011500Y-75652831D01*
X177488500Y-75652831D01*
X177414130Y-75473287D01*
X177276713Y-75335870D01*
X177097169Y-75261500D01*
X176902831Y-75261500D01*
X176723287Y-75335870D01*
X176585870Y-75473287D01*
X176511500Y-75652831D01*
X174939689Y-75652831D01*
X174715715Y-75428857D01*
X174251326Y-75236500D01*
X173748674Y-75236500D01*
X173284285Y-75428857D01*
X172928857Y-75784285D01*
X172736500Y-76248674D01*
X172736500Y-76569213D01*
X172597169Y-76511500D01*
X172402831Y-76511500D01*
X172223287Y-76585870D01*
X172085870Y-76723287D01*
X172011500Y-76902831D01*
X168700744Y-76902831D01*
X168763500Y-76751326D01*
X168763500Y-76248674D01*
X168571143Y-75784285D01*
X168321161Y-75534303D01*
X170261500Y-75534303D01*
X170261500Y-75728641D01*
X170335870Y-75908185D01*
X170473287Y-76045602D01*
X170652831Y-76119972D01*
X170847169Y-76119972D01*
X171026713Y-76045602D01*
X171049502Y-76022813D01*
X171261500Y-76022813D01*
X171261500Y-76217151D01*
X171335870Y-76396695D01*
X171473287Y-76534112D01*
X171652831Y-76608482D01*
X171847169Y-76608482D01*
X172026713Y-76534112D01*
X172164130Y-76396695D01*
X172238500Y-76217151D01*
X172238500Y-76022813D01*
X172164130Y-75843269D01*
X172026713Y-75705852D01*
X171847169Y-75631482D01*
X171652831Y-75631482D01*
X171473287Y-75705852D01*
X171335870Y-75843269D01*
X171261500Y-76022813D01*
X171049502Y-76022813D01*
X171164130Y-75908185D01*
X171238500Y-75728641D01*
X171238500Y-75534303D01*
X171164130Y-75354759D01*
X171026713Y-75217342D01*
X170847169Y-75142972D01*
X170652831Y-75142972D01*
X170473287Y-75217342D01*
X170335870Y-75354759D01*
X170261500Y-75534303D01*
X168321161Y-75534303D01*
X168215715Y-75428857D01*
X167751326Y-75236500D01*
X167248674Y-75236500D01*
X166784285Y-75428857D01*
X166428857Y-75784285D01*
X166236500Y-76248674D01*
X165763500Y-76248674D01*
X165571143Y-75784285D01*
X165215715Y-75428857D01*
X164751326Y-75236500D01*
X164248674Y-75236500D01*
X163784285Y-75428857D01*
X163428857Y-75784285D01*
X163236500Y-76248674D01*
X160439517Y-76248674D01*
X160346649Y-76155806D01*
X160167105Y-76081436D01*
X159972767Y-76081436D01*
X159793223Y-76155806D01*
X159655806Y-76293223D01*
X159581436Y-76472767D01*
X159263500Y-76472767D01*
X159263500Y-76248674D01*
X159071143Y-75784285D01*
X158715715Y-75428857D01*
X158251326Y-75236500D01*
X157748674Y-75236500D01*
X157284285Y-75428857D01*
X156928857Y-75784285D01*
X156736500Y-76248674D01*
X150675744Y-76248674D01*
X150738500Y-76097169D01*
X150738500Y-75999990D01*
X150847169Y-75999990D01*
X151026713Y-75925620D01*
X151164130Y-75788203D01*
X151238500Y-75608659D01*
X151238500Y-75604910D01*
X151402831Y-75672979D01*
X151597169Y-75672979D01*
X151776713Y-75598609D01*
X151914130Y-75461192D01*
X151988500Y-75281648D01*
X151988500Y-75087310D01*
X151914130Y-74907766D01*
X151776713Y-74770349D01*
X151597169Y-74695979D01*
X151402831Y-74695979D01*
X151223287Y-74770349D01*
X151085870Y-74907766D01*
X151011500Y-75087310D01*
X151011500Y-75091059D01*
X150847169Y-75022990D01*
X150652831Y-75022990D01*
X150473287Y-75097360D01*
X150335870Y-75234777D01*
X150261500Y-75414321D01*
X150261500Y-75511500D01*
X150152831Y-75511500D01*
X149973287Y-75585870D01*
X149835870Y-75723287D01*
X149761500Y-75902831D01*
X148578973Y-75902831D01*
X148642001Y-75750670D01*
X148642001Y-75556332D01*
X148567631Y-75376788D01*
X148430214Y-75239371D01*
X148250670Y-75165001D01*
X148056332Y-75165001D01*
X147876788Y-75239371D01*
X147739371Y-75376788D01*
X147665001Y-75556332D01*
X134523196Y-75556332D01*
X134842788Y-75342788D01*
X135088893Y-74974466D01*
X135175314Y-74540000D01*
X135125318Y-74288651D01*
X203720981Y-74288651D01*
X203736420Y-75788967D01*
X204280863Y-77103369D01*
X204750692Y-77479901D01*
X207230592Y-75000000D01*
X207769408Y-75000000D01*
X210249308Y-77479901D01*
X210719137Y-77103369D01*
X211279019Y-75711349D01*
X211263580Y-74211033D01*
X210719137Y-72896631D01*
X210249308Y-72520099D01*
X207769408Y-75000000D01*
X207230592Y-75000000D01*
X204750692Y-72520099D01*
X204280863Y-72896631D01*
X203720981Y-74288651D01*
X135125318Y-74288651D01*
X135088893Y-74105534D01*
X134842788Y-73737212D01*
X134474466Y-73491107D01*
X134149666Y-73426500D01*
X133930334Y-73426500D01*
X133605534Y-73491107D01*
X133237212Y-73737212D01*
X132991107Y-74105534D01*
X132904686Y-74540000D01*
X132635314Y-74540000D01*
X132548893Y-74105534D01*
X132302788Y-73737212D01*
X131934466Y-73491107D01*
X131609666Y-73426500D01*
X131390334Y-73426500D01*
X131065534Y-73491107D01*
X130697212Y-73737212D01*
X130451107Y-74105534D01*
X130381500Y-74455471D01*
X130381500Y-74349498D01*
X130225819Y-74349498D01*
X130321549Y-74131477D01*
X130061572Y-73641532D01*
X129772504Y-73402831D01*
X154511500Y-73402831D01*
X154511500Y-73597169D01*
X154585870Y-73776713D01*
X154723287Y-73914130D01*
X154902831Y-73988500D01*
X155097169Y-73988500D01*
X155276713Y-73914130D01*
X155414130Y-73776713D01*
X155488500Y-73597169D01*
X155488500Y-73402831D01*
X155414130Y-73223287D01*
X155276713Y-73085870D01*
X155097169Y-73011500D01*
X154902831Y-73011500D01*
X154723287Y-73085870D01*
X154585870Y-73223287D01*
X154511500Y-73402831D01*
X129772504Y-73402831D01*
X129633891Y-73288370D01*
X129368520Y-73178467D01*
X129150500Y-73275646D01*
X128769500Y-73275646D01*
X128551480Y-73178467D01*
X128286109Y-73288370D01*
X127858428Y-73641532D01*
X127598451Y-74131477D01*
X123730627Y-74131477D01*
X123219137Y-72896631D01*
X122749308Y-72520099D01*
X120269408Y-75000000D01*
X119730592Y-75000000D01*
X117250692Y-72520099D01*
X116780863Y-72896631D01*
X116220981Y-74288651D01*
X115563500Y-74288651D01*
X115563500Y-72250692D01*
X117520099Y-72250692D01*
X120000000Y-74730592D01*
X122479901Y-72250692D01*
X122278991Y-72000000D01*
X127824686Y-72000000D01*
X127911107Y-72434466D01*
X128157212Y-72802788D01*
X128525534Y-73048893D01*
X128850334Y-73113500D01*
X129069666Y-73113500D01*
X129394466Y-73048893D01*
X129762788Y-72802788D01*
X130008893Y-72434466D01*
X130095314Y-72000000D01*
X130364686Y-72000000D01*
X130451107Y-72434466D01*
X130697212Y-72802788D01*
X131065534Y-73048893D01*
X131390334Y-73113500D01*
X131609666Y-73113500D01*
X131934466Y-73048893D01*
X132302788Y-72802788D01*
X132548893Y-72434466D01*
X132635314Y-72000000D01*
X132548893Y-71565534D01*
X132302788Y-71197212D01*
X132232131Y-71150000D01*
X132921338Y-71150000D01*
X132921338Y-72850000D01*
X132941789Y-72952812D01*
X133000027Y-73039973D01*
X133087188Y-73098211D01*
X133190000Y-73118662D01*
X134890000Y-73118662D01*
X134992812Y-73098211D01*
X135079973Y-73039973D01*
X135138211Y-72952812D01*
X135158662Y-72850000D01*
X135158662Y-72427826D01*
X149190510Y-72427826D01*
X149190510Y-72622164D01*
X149264880Y-72801708D01*
X149402297Y-72939125D01*
X149581841Y-73013495D01*
X149776179Y-73013495D01*
X149955723Y-72939125D01*
X150004013Y-72890835D01*
X150052308Y-72939130D01*
X150231852Y-73013500D01*
X150426190Y-73013500D01*
X150605734Y-72939130D01*
X150743151Y-72801713D01*
X150817521Y-72622169D01*
X150817521Y-72427831D01*
X150778396Y-72333375D01*
X156428500Y-72333375D01*
X156428500Y-73113679D01*
X156515506Y-73323729D01*
X156676272Y-73484494D01*
X156886322Y-73571500D01*
X157666625Y-73571500D01*
X157809500Y-73428625D01*
X157809500Y-72190500D01*
X158190500Y-72190500D01*
X158190500Y-73428625D01*
X158333375Y-73571500D01*
X159113678Y-73571500D01*
X159323728Y-73484494D01*
X159484494Y-73323729D01*
X159553209Y-73157835D01*
X163611573Y-73157835D01*
X163718997Y-73399057D01*
X164313844Y-73591436D01*
X164937030Y-73541535D01*
X165281003Y-73399057D01*
X165388427Y-73157835D01*
X164500000Y-72269408D01*
X163611573Y-73157835D01*
X159553209Y-73157835D01*
X159571500Y-73113679D01*
X159571500Y-72333375D01*
X159428625Y-72190500D01*
X158190500Y-72190500D01*
X157809500Y-72190500D01*
X156571375Y-72190500D01*
X156428500Y-72333375D01*
X150778396Y-72333375D01*
X150743151Y-72248287D01*
X150605734Y-72110870D01*
X150426190Y-72036500D01*
X150231852Y-72036500D01*
X150052308Y-72110870D01*
X150004018Y-72159160D01*
X149955723Y-72110865D01*
X149776179Y-72036495D01*
X149581841Y-72036495D01*
X149402297Y-72110865D01*
X149264880Y-72248282D01*
X149190510Y-72427826D01*
X135158662Y-72427826D01*
X135158662Y-71813844D01*
X162908564Y-71813844D01*
X162958465Y-72437030D01*
X163100943Y-72781003D01*
X163342165Y-72888427D01*
X164230592Y-72000000D01*
X163342165Y-71111573D01*
X163100943Y-71218997D01*
X162908564Y-71813844D01*
X135158662Y-71813844D01*
X135158662Y-71150000D01*
X135138211Y-71047188D01*
X135079973Y-70960027D01*
X134992812Y-70901789D01*
X134890000Y-70881338D01*
X133190000Y-70881338D01*
X133087188Y-70901789D01*
X133000027Y-70960027D01*
X132941789Y-71047188D01*
X132921338Y-71150000D01*
X132232131Y-71150000D01*
X131934466Y-70951107D01*
X131609666Y-70886500D01*
X131390334Y-70886500D01*
X131065534Y-70951107D01*
X130697212Y-71197212D01*
X130451107Y-71565534D01*
X130364686Y-72000000D01*
X130095314Y-72000000D01*
X130008893Y-71565534D01*
X129762788Y-71197212D01*
X129394466Y-70951107D01*
X129069666Y-70886500D01*
X128850334Y-70886500D01*
X128525534Y-70951107D01*
X128157212Y-71197212D01*
X127911107Y-71565534D01*
X127824686Y-72000000D01*
X122278991Y-72000000D01*
X122103369Y-71780863D01*
X120711349Y-71220981D01*
X119211033Y-71236420D01*
X117896631Y-71780863D01*
X117520099Y-72250692D01*
X115563500Y-72250692D01*
X115563500Y-70563500D01*
X149011500Y-70563500D01*
X149011500Y-70597169D01*
G04 #@! TD*
M02*
