G04 #@! TF.GenerationSoftware,KiCad,Pcbnew,(5.0.1-3-g963ef8bb5)*
G04 #@! TF.CreationDate,2020-07-12T22:57:35-05:00*
G04 #@! TF.ProjectId,SmartNerfBlaster,536D6172744E657266426C6173746572,v1*
G04 #@! TF.SameCoordinates,Original*
G04 #@! TF.FileFunction,Paste,Top*
G04 #@! TF.FilePolarity,Positive*
%FSLAX46Y46*%
G04 Gerber Fmt 4.6, Leading zero omitted, Abs format (unit mm)*
G04 Created by KiCad (PCBNEW (5.0.1-3-g963ef8bb5)) date Sunday, July 12, 2020 at 10:57:35 PM*
%MOMM*%
%LPD*%
G01*
G04 APERTURE LIST*
%ADD10R,1.200000X0.750000*%
%ADD11R,1.500000X1.250000*%
%ADD12R,1.300000X1.500000*%
%ADD13R,1.200000X0.900000*%
%ADD14R,0.900000X1.200000*%
%ADD15R,1.600000X0.550000*%
%ADD16R,0.550000X1.600000*%
%ADD17R,1.250000X1.500000*%
%ADD18R,2.000000X2.500000*%
%ADD19R,0.500000X2.300000*%
%ADD20R,1.800000X2.100000*%
%ADD21R,0.450000X1.750000*%
G04 APERTURE END LIST*
D10*
G04 #@! TO.C,C3*
X154150000Y-84750000D03*
X152250000Y-84750000D03*
G04 #@! TD*
G04 #@! TO.C,C4*
X149900000Y-71500000D03*
X148000000Y-71500000D03*
G04 #@! TD*
D11*
G04 #@! TO.C,C5*
X143750000Y-72000000D03*
X141250000Y-72000000D03*
G04 #@! TD*
G04 #@! TO.C,C6*
X143750000Y-80000000D03*
X141250000Y-80000000D03*
G04 #@! TD*
D12*
G04 #@! TO.C,D1*
X182000000Y-71500000D03*
X182000000Y-74200000D03*
G04 #@! TD*
G04 #@! TO.C,D2*
X179500000Y-74200000D03*
X179500000Y-71500000D03*
G04 #@! TD*
G04 #@! TO.C,D3*
X177000000Y-71500000D03*
X177000000Y-74200000D03*
G04 #@! TD*
D13*
G04 #@! TO.C,R1*
X142850000Y-83500000D03*
X140650000Y-83500000D03*
G04 #@! TD*
G04 #@! TO.C,R2*
X125000000Y-79500000D03*
X122800000Y-79500000D03*
G04 #@! TD*
G04 #@! TO.C,R3*
X154000000Y-71500000D03*
X151800000Y-71500000D03*
G04 #@! TD*
G04 #@! TO.C,R4*
X172300000Y-86500000D03*
X174500000Y-86500000D03*
G04 #@! TD*
G04 #@! TO.C,R5*
X179500000Y-86500000D03*
X177300000Y-86500000D03*
G04 #@! TD*
G04 #@! TO.C,R6*
X182300000Y-86500000D03*
X184500000Y-86500000D03*
G04 #@! TD*
G04 #@! TO.C,R7*
X160000000Y-86500000D03*
X157800000Y-86500000D03*
G04 #@! TD*
G04 #@! TO.C,R8*
X162300000Y-86500000D03*
X164500000Y-86500000D03*
G04 #@! TD*
D14*
G04 #@! TO.C,R9*
X182000000Y-83700000D03*
X182000000Y-81500000D03*
G04 #@! TD*
G04 #@! TO.C,R10*
X179500000Y-81500000D03*
X179500000Y-83700000D03*
G04 #@! TD*
G04 #@! TO.C,R11*
X177000000Y-83700000D03*
X177000000Y-81500000D03*
G04 #@! TD*
D13*
G04 #@! TO.C,R12*
X160000000Y-84500000D03*
X157800000Y-84500000D03*
G04 #@! TD*
G04 #@! TO.C,R13*
X168000000Y-86500000D03*
X170200000Y-86500000D03*
G04 #@! TD*
D15*
G04 #@! TO.C,U2*
X155250000Y-75200000D03*
X155250000Y-76000000D03*
X155250000Y-76800000D03*
X155250000Y-77600000D03*
X155250000Y-78400000D03*
X155250000Y-79200000D03*
X155250000Y-80000000D03*
X155250000Y-80800000D03*
D16*
X153800000Y-82250000D03*
X153000000Y-82250000D03*
X152200000Y-82250000D03*
X151400000Y-82250000D03*
X150600000Y-82250000D03*
X149800000Y-82250000D03*
X149000000Y-82250000D03*
X148200000Y-82250000D03*
D15*
X146750000Y-80800000D03*
X146750000Y-80000000D03*
X146750000Y-79200000D03*
X146750000Y-78400000D03*
X146750000Y-77600000D03*
X146750000Y-76800000D03*
X146750000Y-76000000D03*
X146750000Y-75200000D03*
D16*
X148200000Y-73750000D03*
X149000000Y-73750000D03*
X149800000Y-73750000D03*
X150600000Y-73750000D03*
X151400000Y-73750000D03*
X152200000Y-73750000D03*
X153000000Y-73750000D03*
X153800000Y-73750000D03*
G04 #@! TD*
D17*
G04 #@! TO.C,C7*
X200250000Y-83750000D03*
X200250000Y-81250000D03*
G04 #@! TD*
D10*
G04 #@! TO.C,C8*
X193500000Y-80750000D03*
X195400000Y-80750000D03*
G04 #@! TD*
G04 #@! TO.C,C9*
X188550000Y-93000000D03*
X190450000Y-93000000D03*
G04 #@! TD*
D12*
G04 #@! TO.C,D4*
X184500000Y-71500000D03*
X184500000Y-74200000D03*
G04 #@! TD*
G04 #@! TO.C,FB1*
X202250000Y-83850000D03*
X202250000Y-81150000D03*
G04 #@! TD*
D18*
G04 #@! TO.C,J7*
X193300000Y-72950000D03*
X193300000Y-78450000D03*
X202200000Y-72950000D03*
X202200000Y-78450000D03*
D19*
X196150000Y-78550000D03*
X196950000Y-78550000D03*
X197750000Y-78550000D03*
X198550000Y-78550000D03*
X199350000Y-78550000D03*
G04 #@! TD*
D13*
G04 #@! TO.C,R14*
X189700000Y-78750000D03*
X187500000Y-78750000D03*
G04 #@! TD*
G04 #@! TO.C,R15*
X187500000Y-77000000D03*
X189700000Y-77000000D03*
G04 #@! TD*
D14*
G04 #@! TO.C,R16*
X184500000Y-83700000D03*
X184500000Y-81500000D03*
G04 #@! TD*
D20*
G04 #@! TO.C,Y1*
X141500000Y-77400000D03*
X141500000Y-74500000D03*
X143800000Y-74500000D03*
X143800000Y-77400000D03*
G04 #@! TD*
D21*
G04 #@! TO.C,U3*
X189275000Y-82800000D03*
X189925000Y-82800000D03*
X190575000Y-82800000D03*
X191225000Y-82800000D03*
X191875000Y-82800000D03*
X192525000Y-82800000D03*
X193175000Y-82800000D03*
X193825000Y-82800000D03*
X194475000Y-82800000D03*
X195125000Y-82800000D03*
X195775000Y-82800000D03*
X196425000Y-82800000D03*
X197075000Y-82800000D03*
X197725000Y-82800000D03*
X197725000Y-90000000D03*
X197075000Y-90000000D03*
X196425000Y-90000000D03*
X195775000Y-90000000D03*
X195125000Y-90000000D03*
X194475000Y-90000000D03*
X193825000Y-90000000D03*
X193175000Y-90000000D03*
X192525000Y-90000000D03*
X191875000Y-90000000D03*
X191225000Y-90000000D03*
X190575000Y-90000000D03*
X189925000Y-90000000D03*
X189275000Y-90000000D03*
G04 #@! TD*
M02*
