G04 #@! TF.GenerationSoftware,KiCad,Pcbnew,(5.0.1-3-g963ef8bb5)*
G04 #@! TF.CreationDate,2020-07-12T22:57:35-05:00*
G04 #@! TF.ProjectId,SmartNerfBlaster,536D6172744E657266426C6173746572,v1*
G04 #@! TF.SameCoordinates,Original*
G04 #@! TF.FileFunction,Soldermask,Top*
G04 #@! TF.FilePolarity,Negative*
%FSLAX46Y46*%
G04 Gerber Fmt 4.6, Leading zero omitted, Abs format (unit mm)*
G04 Created by KiCad (PCBNEW (5.0.1-3-g963ef8bb5)) date Sunday, July 12, 2020 at 10:57:35 PM*
%MOMM*%
%LPD*%
G01*
G04 APERTURE LIST*
%ADD10C,0.100000*%
G04 APERTURE END LIST*
D10*
G36*
X153218985Y-90562184D02*
X153390616Y-90614247D01*
X153548787Y-90698792D01*
X153687429Y-90812571D01*
X153801208Y-90951213D01*
X153885753Y-91109384D01*
X153937816Y-91281015D01*
X153956000Y-91465640D01*
X153956000Y-93534360D01*
X153937816Y-93718985D01*
X153885753Y-93890616D01*
X153801208Y-94048787D01*
X153687429Y-94187429D01*
X153548787Y-94301208D01*
X153390616Y-94385753D01*
X153218985Y-94437816D01*
X153034360Y-94456000D01*
X150965640Y-94456000D01*
X150781015Y-94437816D01*
X150609384Y-94385753D01*
X150451213Y-94301208D01*
X150312571Y-94187429D01*
X150198792Y-94048787D01*
X150114247Y-93890616D01*
X150062184Y-93718985D01*
X150044000Y-93534360D01*
X150044000Y-91465640D01*
X150062184Y-91281015D01*
X150114247Y-91109384D01*
X150198792Y-90951213D01*
X150312571Y-90812571D01*
X150451213Y-90698792D01*
X150609384Y-90614247D01*
X150781015Y-90562184D01*
X150965640Y-90544000D01*
X153034360Y-90544000D01*
X153218985Y-90562184D01*
X153218985Y-90562184D01*
G37*
G36*
X148718985Y-90562184D02*
X148890616Y-90614247D01*
X149048787Y-90698792D01*
X149187429Y-90812571D01*
X149301208Y-90951213D01*
X149385753Y-91109384D01*
X149437816Y-91281015D01*
X149456000Y-91465640D01*
X149456000Y-93534360D01*
X149437816Y-93718985D01*
X149385753Y-93890616D01*
X149301208Y-94048787D01*
X149187429Y-94187429D01*
X149048787Y-94301208D01*
X148890616Y-94385753D01*
X148718985Y-94437816D01*
X148534360Y-94456000D01*
X146465640Y-94456000D01*
X146281015Y-94437816D01*
X146109384Y-94385753D01*
X145951213Y-94301208D01*
X145812571Y-94187429D01*
X145698792Y-94048787D01*
X145614247Y-93890616D01*
X145562184Y-93718985D01*
X145544000Y-93534360D01*
X145544000Y-91465640D01*
X145562184Y-91281015D01*
X145614247Y-91109384D01*
X145698792Y-90951213D01*
X145812571Y-90812571D01*
X145951213Y-90698792D01*
X146109384Y-90614247D01*
X146281015Y-90562184D01*
X146465640Y-90544000D01*
X148534360Y-90544000D01*
X148718985Y-90562184D01*
X148718985Y-90562184D01*
G37*
G36*
X142718985Y-90562184D02*
X142890616Y-90614247D01*
X143048787Y-90698792D01*
X143187429Y-90812571D01*
X143301208Y-90951213D01*
X143385753Y-91109384D01*
X143437816Y-91281015D01*
X143456000Y-91465640D01*
X143456000Y-93534360D01*
X143437816Y-93718985D01*
X143385753Y-93890616D01*
X143301208Y-94048787D01*
X143187429Y-94187429D01*
X143048787Y-94301208D01*
X142890616Y-94385753D01*
X142718985Y-94437816D01*
X142534360Y-94456000D01*
X140465640Y-94456000D01*
X140281015Y-94437816D01*
X140109384Y-94385753D01*
X139951213Y-94301208D01*
X139812571Y-94187429D01*
X139698792Y-94048787D01*
X139614247Y-93890616D01*
X139562184Y-93718985D01*
X139544000Y-93534360D01*
X139544000Y-91465640D01*
X139562184Y-91281015D01*
X139614247Y-91109384D01*
X139698792Y-90951213D01*
X139812571Y-90812571D01*
X139951213Y-90698792D01*
X140109384Y-90614247D01*
X140281015Y-90562184D01*
X140465640Y-90544000D01*
X142534360Y-90544000D01*
X142718985Y-90562184D01*
X142718985Y-90562184D01*
G37*
G36*
X138218985Y-90562184D02*
X138390616Y-90614247D01*
X138548787Y-90698792D01*
X138687429Y-90812571D01*
X138801208Y-90951213D01*
X138885753Y-91109384D01*
X138937816Y-91281015D01*
X138956000Y-91465640D01*
X138956000Y-93534360D01*
X138937816Y-93718985D01*
X138885753Y-93890616D01*
X138801208Y-94048787D01*
X138687429Y-94187429D01*
X138548787Y-94301208D01*
X138390616Y-94385753D01*
X138218985Y-94437816D01*
X138034360Y-94456000D01*
X135965640Y-94456000D01*
X135781015Y-94437816D01*
X135609384Y-94385753D01*
X135451213Y-94301208D01*
X135312571Y-94187429D01*
X135198792Y-94048787D01*
X135114247Y-93890616D01*
X135062184Y-93718985D01*
X135044000Y-93534360D01*
X135044000Y-91465640D01*
X135062184Y-91281015D01*
X135114247Y-91109384D01*
X135198792Y-90951213D01*
X135312571Y-90812571D01*
X135451213Y-90698792D01*
X135609384Y-90614247D01*
X135781015Y-90562184D01*
X135965640Y-90544000D01*
X138034360Y-90544000D01*
X138218985Y-90562184D01*
X138218985Y-90562184D01*
G37*
G36*
X131968985Y-90562184D02*
X132140616Y-90614247D01*
X132298787Y-90698792D01*
X132437429Y-90812571D01*
X132551208Y-90951213D01*
X132635753Y-91109384D01*
X132687816Y-91281015D01*
X132706000Y-91465640D01*
X132706000Y-93534360D01*
X132687816Y-93718985D01*
X132635753Y-93890616D01*
X132551208Y-94048787D01*
X132437429Y-94187429D01*
X132298787Y-94301208D01*
X132140616Y-94385753D01*
X131968985Y-94437816D01*
X131784360Y-94456000D01*
X129715640Y-94456000D01*
X129531015Y-94437816D01*
X129359384Y-94385753D01*
X129201213Y-94301208D01*
X129062571Y-94187429D01*
X128948792Y-94048787D01*
X128864247Y-93890616D01*
X128812184Y-93718985D01*
X128794000Y-93534360D01*
X128794000Y-91465640D01*
X128812184Y-91281015D01*
X128864247Y-91109384D01*
X128948792Y-90951213D01*
X129062571Y-90812571D01*
X129201213Y-90698792D01*
X129359384Y-90614247D01*
X129531015Y-90562184D01*
X129715640Y-90544000D01*
X131784360Y-90544000D01*
X131968985Y-90562184D01*
X131968985Y-90562184D01*
G37*
G36*
X127468985Y-90562184D02*
X127640616Y-90614247D01*
X127798787Y-90698792D01*
X127937429Y-90812571D01*
X128051208Y-90951213D01*
X128135753Y-91109384D01*
X128187816Y-91281015D01*
X128206000Y-91465640D01*
X128206000Y-93534360D01*
X128187816Y-93718985D01*
X128135753Y-93890616D01*
X128051208Y-94048787D01*
X127937429Y-94187429D01*
X127798787Y-94301208D01*
X127640616Y-94385753D01*
X127468985Y-94437816D01*
X127284360Y-94456000D01*
X125215640Y-94456000D01*
X125031015Y-94437816D01*
X124859384Y-94385753D01*
X124701213Y-94301208D01*
X124562571Y-94187429D01*
X124448792Y-94048787D01*
X124364247Y-93890616D01*
X124312184Y-93718985D01*
X124294000Y-93534360D01*
X124294000Y-91465640D01*
X124312184Y-91281015D01*
X124364247Y-91109384D01*
X124448792Y-90951213D01*
X124562571Y-90812571D01*
X124701213Y-90698792D01*
X124859384Y-90614247D01*
X125031015Y-90562184D01*
X125215640Y-90544000D01*
X127284360Y-90544000D01*
X127468985Y-90562184D01*
X127468985Y-90562184D01*
G37*
G36*
X194401000Y-93901000D02*
X192599000Y-93901000D01*
X192599000Y-92099000D01*
X194401000Y-92099000D01*
X194401000Y-93901000D01*
X194401000Y-93901000D01*
G37*
G36*
X196150443Y-92105519D02*
X196216627Y-92112037D01*
X196329853Y-92146384D01*
X196386467Y-92163557D01*
X196525087Y-92237652D01*
X196542991Y-92247222D01*
X196578729Y-92276552D01*
X196680186Y-92359814D01*
X196763448Y-92461271D01*
X196792778Y-92497009D01*
X196792779Y-92497011D01*
X196876443Y-92653533D01*
X196876443Y-92653534D01*
X196927963Y-92823373D01*
X196945359Y-93000000D01*
X196927963Y-93176627D01*
X196905402Y-93251000D01*
X196876443Y-93346467D01*
X196833931Y-93426000D01*
X196792778Y-93502991D01*
X196767034Y-93534360D01*
X196680186Y-93640186D01*
X196584168Y-93718985D01*
X196542991Y-93752778D01*
X196542989Y-93752779D01*
X196386467Y-93836443D01*
X196334311Y-93852264D01*
X196216627Y-93887963D01*
X196150442Y-93894482D01*
X196084260Y-93901000D01*
X195995740Y-93901000D01*
X195929557Y-93894481D01*
X195863373Y-93887963D01*
X195745689Y-93852264D01*
X195693533Y-93836443D01*
X195537011Y-93752779D01*
X195537009Y-93752778D01*
X195495832Y-93718985D01*
X195399814Y-93640186D01*
X195312966Y-93534360D01*
X195287222Y-93502991D01*
X195246069Y-93426000D01*
X195203557Y-93346467D01*
X195174598Y-93251000D01*
X195152037Y-93176627D01*
X195134641Y-93000000D01*
X195152037Y-92823373D01*
X195203557Y-92653534D01*
X195203557Y-92653533D01*
X195287221Y-92497011D01*
X195287222Y-92497009D01*
X195316552Y-92461271D01*
X195399814Y-92359814D01*
X195501271Y-92276552D01*
X195537009Y-92247222D01*
X195554913Y-92237652D01*
X195693533Y-92163557D01*
X195750147Y-92146384D01*
X195863373Y-92112037D01*
X195929558Y-92105518D01*
X195995740Y-92099000D01*
X196084260Y-92099000D01*
X196150443Y-92105519D01*
X196150443Y-92105519D01*
G37*
G36*
X198690443Y-92105519D02*
X198756627Y-92112037D01*
X198869853Y-92146384D01*
X198926467Y-92163557D01*
X199065087Y-92237652D01*
X199082991Y-92247222D01*
X199118729Y-92276552D01*
X199220186Y-92359814D01*
X199303448Y-92461271D01*
X199332778Y-92497009D01*
X199332779Y-92497011D01*
X199416443Y-92653533D01*
X199416443Y-92653534D01*
X199467963Y-92823373D01*
X199485359Y-93000000D01*
X199467963Y-93176627D01*
X199445402Y-93251000D01*
X199416443Y-93346467D01*
X199373931Y-93426000D01*
X199332778Y-93502991D01*
X199307034Y-93534360D01*
X199220186Y-93640186D01*
X199124168Y-93718985D01*
X199082991Y-93752778D01*
X199082989Y-93752779D01*
X198926467Y-93836443D01*
X198874311Y-93852264D01*
X198756627Y-93887963D01*
X198690442Y-93894482D01*
X198624260Y-93901000D01*
X198535740Y-93901000D01*
X198469557Y-93894481D01*
X198403373Y-93887963D01*
X198285689Y-93852264D01*
X198233533Y-93836443D01*
X198077011Y-93752779D01*
X198077009Y-93752778D01*
X198035832Y-93718985D01*
X197939814Y-93640186D01*
X197852966Y-93534360D01*
X197827222Y-93502991D01*
X197786069Y-93426000D01*
X197743557Y-93346467D01*
X197714598Y-93251000D01*
X197692037Y-93176627D01*
X197674641Y-93000000D01*
X197692037Y-92823373D01*
X197743557Y-92653534D01*
X197743557Y-92653533D01*
X197827221Y-92497011D01*
X197827222Y-92497009D01*
X197856552Y-92461271D01*
X197939814Y-92359814D01*
X198041271Y-92276552D01*
X198077009Y-92247222D01*
X198094913Y-92237652D01*
X198233533Y-92163557D01*
X198290147Y-92146384D01*
X198403373Y-92112037D01*
X198469558Y-92105518D01*
X198535740Y-92099000D01*
X198624260Y-92099000D01*
X198690443Y-92105519D01*
X198690443Y-92105519D01*
G37*
G36*
X201230443Y-92105519D02*
X201296627Y-92112037D01*
X201409853Y-92146384D01*
X201466467Y-92163557D01*
X201605087Y-92237652D01*
X201622991Y-92247222D01*
X201658729Y-92276552D01*
X201760186Y-92359814D01*
X201843448Y-92461271D01*
X201872778Y-92497009D01*
X201872779Y-92497011D01*
X201956443Y-92653533D01*
X201956443Y-92653534D01*
X202007963Y-92823373D01*
X202025359Y-93000000D01*
X202007963Y-93176627D01*
X201985402Y-93251000D01*
X201956443Y-93346467D01*
X201913931Y-93426000D01*
X201872778Y-93502991D01*
X201847034Y-93534360D01*
X201760186Y-93640186D01*
X201664168Y-93718985D01*
X201622991Y-93752778D01*
X201622989Y-93752779D01*
X201466467Y-93836443D01*
X201414311Y-93852264D01*
X201296627Y-93887963D01*
X201230442Y-93894482D01*
X201164260Y-93901000D01*
X201075740Y-93901000D01*
X201009557Y-93894481D01*
X200943373Y-93887963D01*
X200825689Y-93852264D01*
X200773533Y-93836443D01*
X200617011Y-93752779D01*
X200617009Y-93752778D01*
X200575832Y-93718985D01*
X200479814Y-93640186D01*
X200392966Y-93534360D01*
X200367222Y-93502991D01*
X200326069Y-93426000D01*
X200283557Y-93346467D01*
X200254598Y-93251000D01*
X200232037Y-93176627D01*
X200214641Y-93000000D01*
X200232037Y-92823373D01*
X200283557Y-92653534D01*
X200283557Y-92653533D01*
X200367221Y-92497011D01*
X200367222Y-92497009D01*
X200396552Y-92461271D01*
X200479814Y-92359814D01*
X200581271Y-92276552D01*
X200617009Y-92247222D01*
X200634913Y-92237652D01*
X200773533Y-92163557D01*
X200830147Y-92146384D01*
X200943373Y-92112037D01*
X201009558Y-92105518D01*
X201075740Y-92099000D01*
X201164260Y-92099000D01*
X201230443Y-92105519D01*
X201230443Y-92105519D01*
G37*
G36*
X189201000Y-93426000D02*
X187899000Y-93426000D01*
X187899000Y-92574000D01*
X189201000Y-92574000D01*
X189201000Y-93426000D01*
X189201000Y-93426000D01*
G37*
G36*
X191101000Y-93426000D02*
X189799000Y-93426000D01*
X189799000Y-92574000D01*
X191101000Y-92574000D01*
X191101000Y-93426000D01*
X191101000Y-93426000D01*
G37*
G36*
X120634239Y-86811467D02*
X120948282Y-86873934D01*
X121539926Y-87119001D01*
X122036797Y-87451000D01*
X122072395Y-87474786D01*
X122525214Y-87927605D01*
X122525216Y-87927608D01*
X122880999Y-88460074D01*
X122880999Y-88460075D01*
X123126066Y-89051719D01*
X123250918Y-89679389D01*
X123251000Y-89679804D01*
X123251000Y-90320196D01*
X123126066Y-90948282D01*
X122880999Y-91539926D01*
X122527615Y-92068802D01*
X122525214Y-92072395D01*
X122072395Y-92525214D01*
X122072392Y-92525216D01*
X121539926Y-92880999D01*
X120948282Y-93126066D01*
X120634239Y-93188533D01*
X120320197Y-93251000D01*
X119679803Y-93251000D01*
X119365761Y-93188533D01*
X119051718Y-93126066D01*
X118460074Y-92880999D01*
X117927608Y-92525216D01*
X117927605Y-92525214D01*
X117474786Y-92072395D01*
X117472385Y-92068802D01*
X117119001Y-91539926D01*
X116873934Y-90948282D01*
X116749000Y-90320196D01*
X116749000Y-89679804D01*
X116749083Y-89679389D01*
X116873934Y-89051719D01*
X117119001Y-88460075D01*
X117119001Y-88460074D01*
X117474784Y-87927608D01*
X117474786Y-87927605D01*
X117927605Y-87474786D01*
X117963203Y-87451000D01*
X118460074Y-87119001D01*
X119051718Y-86873934D01*
X119365761Y-86811467D01*
X119679803Y-86749000D01*
X120320197Y-86749000D01*
X120634239Y-86811467D01*
X120634239Y-86811467D01*
G37*
G36*
X208134239Y-86811467D02*
X208448282Y-86873934D01*
X209039926Y-87119001D01*
X209536797Y-87451000D01*
X209572395Y-87474786D01*
X210025214Y-87927605D01*
X210025216Y-87927608D01*
X210380999Y-88460074D01*
X210380999Y-88460075D01*
X210626066Y-89051719D01*
X210750918Y-89679389D01*
X210751000Y-89679804D01*
X210751000Y-90320196D01*
X210626066Y-90948282D01*
X210380999Y-91539926D01*
X210027615Y-92068802D01*
X210025214Y-92072395D01*
X209572395Y-92525214D01*
X209572392Y-92525216D01*
X209039926Y-92880999D01*
X208448282Y-93126066D01*
X208134239Y-93188533D01*
X207820197Y-93251000D01*
X207179803Y-93251000D01*
X206865761Y-93188533D01*
X206551718Y-93126066D01*
X205960074Y-92880999D01*
X205427608Y-92525216D01*
X205427605Y-92525214D01*
X204974786Y-92072395D01*
X204972385Y-92068802D01*
X204619001Y-91539926D01*
X204373934Y-90948282D01*
X204249000Y-90320196D01*
X204249000Y-89679804D01*
X204249083Y-89679389D01*
X204373934Y-89051719D01*
X204619001Y-88460075D01*
X204619001Y-88460074D01*
X204974784Y-87927608D01*
X204974786Y-87927605D01*
X205427605Y-87474786D01*
X205463203Y-87451000D01*
X205960074Y-87119001D01*
X206551718Y-86873934D01*
X206865761Y-86811467D01*
X207179803Y-86749000D01*
X207820197Y-86749000D01*
X208134239Y-86811467D01*
X208134239Y-86811467D01*
G37*
G36*
X165270104Y-89609585D02*
X165438626Y-89679389D01*
X165590291Y-89780728D01*
X165719272Y-89909709D01*
X165820611Y-90061374D01*
X165890415Y-90229896D01*
X165926000Y-90408797D01*
X165926000Y-90591203D01*
X165890415Y-90770104D01*
X165820611Y-90938626D01*
X165719272Y-91090291D01*
X165590291Y-91219272D01*
X165438626Y-91320611D01*
X165270104Y-91390415D01*
X165091203Y-91426000D01*
X164908797Y-91426000D01*
X164729896Y-91390415D01*
X164561374Y-91320611D01*
X164409709Y-91219272D01*
X164280728Y-91090291D01*
X164179389Y-90938626D01*
X164109585Y-90770104D01*
X164074000Y-90591203D01*
X164074000Y-90408797D01*
X164109585Y-90229896D01*
X164179389Y-90061374D01*
X164280728Y-89909709D01*
X164409709Y-89780728D01*
X164561374Y-89679389D01*
X164729896Y-89609585D01*
X164908797Y-89574000D01*
X165091203Y-89574000D01*
X165270104Y-89609585D01*
X165270104Y-89609585D01*
G37*
G36*
X184770104Y-89609585D02*
X184938626Y-89679389D01*
X185090291Y-89780728D01*
X185219272Y-89909709D01*
X185320611Y-90061374D01*
X185390415Y-90229896D01*
X185426000Y-90408797D01*
X185426000Y-90591203D01*
X185390415Y-90770104D01*
X185320611Y-90938626D01*
X185219272Y-91090291D01*
X185090291Y-91219272D01*
X184938626Y-91320611D01*
X184770104Y-91390415D01*
X184591203Y-91426000D01*
X184408797Y-91426000D01*
X184229896Y-91390415D01*
X184061374Y-91320611D01*
X183909709Y-91219272D01*
X183780728Y-91090291D01*
X183679389Y-90938626D01*
X183609585Y-90770104D01*
X183574000Y-90591203D01*
X183574000Y-90408797D01*
X183609585Y-90229896D01*
X183679389Y-90061374D01*
X183780728Y-89909709D01*
X183909709Y-89780728D01*
X184061374Y-89679389D01*
X184229896Y-89609585D01*
X184408797Y-89574000D01*
X184591203Y-89574000D01*
X184770104Y-89609585D01*
X184770104Y-89609585D01*
G37*
G36*
X158426000Y-91426000D02*
X156574000Y-91426000D01*
X156574000Y-89574000D01*
X158426000Y-89574000D01*
X158426000Y-91426000D01*
X158426000Y-91426000D01*
G37*
G36*
X160270104Y-89609585D02*
X160438626Y-89679389D01*
X160590291Y-89780728D01*
X160719272Y-89909709D01*
X160820611Y-90061374D01*
X160890415Y-90229896D01*
X160926000Y-90408797D01*
X160926000Y-90591203D01*
X160890415Y-90770104D01*
X160820611Y-90938626D01*
X160719272Y-91090291D01*
X160590291Y-91219272D01*
X160438626Y-91320611D01*
X160270104Y-91390415D01*
X160091203Y-91426000D01*
X159908797Y-91426000D01*
X159729896Y-91390415D01*
X159561374Y-91320611D01*
X159409709Y-91219272D01*
X159280728Y-91090291D01*
X159179389Y-90938626D01*
X159109585Y-90770104D01*
X159074000Y-90591203D01*
X159074000Y-90408797D01*
X159109585Y-90229896D01*
X159179389Y-90061374D01*
X159280728Y-89909709D01*
X159409709Y-89780728D01*
X159561374Y-89679389D01*
X159729896Y-89609585D01*
X159908797Y-89574000D01*
X160091203Y-89574000D01*
X160270104Y-89609585D01*
X160270104Y-89609585D01*
G37*
G36*
X162770104Y-89609585D02*
X162938626Y-89679389D01*
X163090291Y-89780728D01*
X163219272Y-89909709D01*
X163320611Y-90061374D01*
X163390415Y-90229896D01*
X163426000Y-90408797D01*
X163426000Y-90591203D01*
X163390415Y-90770104D01*
X163320611Y-90938626D01*
X163219272Y-91090291D01*
X163090291Y-91219272D01*
X162938626Y-91320611D01*
X162770104Y-91390415D01*
X162591203Y-91426000D01*
X162408797Y-91426000D01*
X162229896Y-91390415D01*
X162061374Y-91320611D01*
X161909709Y-91219272D01*
X161780728Y-91090291D01*
X161679389Y-90938626D01*
X161609585Y-90770104D01*
X161574000Y-90591203D01*
X161574000Y-90408797D01*
X161609585Y-90229896D01*
X161679389Y-90061374D01*
X161780728Y-89909709D01*
X161909709Y-89780728D01*
X162061374Y-89679389D01*
X162229896Y-89609585D01*
X162408797Y-89574000D01*
X162591203Y-89574000D01*
X162770104Y-89609585D01*
X162770104Y-89609585D01*
G37*
G36*
X182270104Y-89609585D02*
X182438626Y-89679389D01*
X182590291Y-89780728D01*
X182719272Y-89909709D01*
X182820611Y-90061374D01*
X182890415Y-90229896D01*
X182926000Y-90408797D01*
X182926000Y-90591203D01*
X182890415Y-90770104D01*
X182820611Y-90938626D01*
X182719272Y-91090291D01*
X182590291Y-91219272D01*
X182438626Y-91320611D01*
X182270104Y-91390415D01*
X182091203Y-91426000D01*
X181908797Y-91426000D01*
X181729896Y-91390415D01*
X181561374Y-91320611D01*
X181409709Y-91219272D01*
X181280728Y-91090291D01*
X181179389Y-90938626D01*
X181109585Y-90770104D01*
X181074000Y-90591203D01*
X181074000Y-90408797D01*
X181109585Y-90229896D01*
X181179389Y-90061374D01*
X181280728Y-89909709D01*
X181409709Y-89780728D01*
X181561374Y-89679389D01*
X181729896Y-89609585D01*
X181908797Y-89574000D01*
X182091203Y-89574000D01*
X182270104Y-89609585D01*
X182270104Y-89609585D01*
G37*
G36*
X179770104Y-89609585D02*
X179938626Y-89679389D01*
X180090291Y-89780728D01*
X180219272Y-89909709D01*
X180320611Y-90061374D01*
X180390415Y-90229896D01*
X180426000Y-90408797D01*
X180426000Y-90591203D01*
X180390415Y-90770104D01*
X180320611Y-90938626D01*
X180219272Y-91090291D01*
X180090291Y-91219272D01*
X179938626Y-91320611D01*
X179770104Y-91390415D01*
X179591203Y-91426000D01*
X179408797Y-91426000D01*
X179229896Y-91390415D01*
X179061374Y-91320611D01*
X178909709Y-91219272D01*
X178780728Y-91090291D01*
X178679389Y-90938626D01*
X178609585Y-90770104D01*
X178574000Y-90591203D01*
X178574000Y-90408797D01*
X178609585Y-90229896D01*
X178679389Y-90061374D01*
X178780728Y-89909709D01*
X178909709Y-89780728D01*
X179061374Y-89679389D01*
X179229896Y-89609585D01*
X179408797Y-89574000D01*
X179591203Y-89574000D01*
X179770104Y-89609585D01*
X179770104Y-89609585D01*
G37*
G36*
X177270104Y-89609585D02*
X177438626Y-89679389D01*
X177590291Y-89780728D01*
X177719272Y-89909709D01*
X177820611Y-90061374D01*
X177890415Y-90229896D01*
X177926000Y-90408797D01*
X177926000Y-90591203D01*
X177890415Y-90770104D01*
X177820611Y-90938626D01*
X177719272Y-91090291D01*
X177590291Y-91219272D01*
X177438626Y-91320611D01*
X177270104Y-91390415D01*
X177091203Y-91426000D01*
X176908797Y-91426000D01*
X176729896Y-91390415D01*
X176561374Y-91320611D01*
X176409709Y-91219272D01*
X176280728Y-91090291D01*
X176179389Y-90938626D01*
X176109585Y-90770104D01*
X176074000Y-90591203D01*
X176074000Y-90408797D01*
X176109585Y-90229896D01*
X176179389Y-90061374D01*
X176280728Y-89909709D01*
X176409709Y-89780728D01*
X176561374Y-89679389D01*
X176729896Y-89609585D01*
X176908797Y-89574000D01*
X177091203Y-89574000D01*
X177270104Y-89609585D01*
X177270104Y-89609585D01*
G37*
G36*
X174770104Y-89609585D02*
X174938626Y-89679389D01*
X175090291Y-89780728D01*
X175219272Y-89909709D01*
X175320611Y-90061374D01*
X175390415Y-90229896D01*
X175426000Y-90408797D01*
X175426000Y-90591203D01*
X175390415Y-90770104D01*
X175320611Y-90938626D01*
X175219272Y-91090291D01*
X175090291Y-91219272D01*
X174938626Y-91320611D01*
X174770104Y-91390415D01*
X174591203Y-91426000D01*
X174408797Y-91426000D01*
X174229896Y-91390415D01*
X174061374Y-91320611D01*
X173909709Y-91219272D01*
X173780728Y-91090291D01*
X173679389Y-90938626D01*
X173609585Y-90770104D01*
X173574000Y-90591203D01*
X173574000Y-90408797D01*
X173609585Y-90229896D01*
X173679389Y-90061374D01*
X173780728Y-89909709D01*
X173909709Y-89780728D01*
X174061374Y-89679389D01*
X174229896Y-89609585D01*
X174408797Y-89574000D01*
X174591203Y-89574000D01*
X174770104Y-89609585D01*
X174770104Y-89609585D01*
G37*
G36*
X172926000Y-91426000D02*
X171074000Y-91426000D01*
X171074000Y-89574000D01*
X172926000Y-89574000D01*
X172926000Y-91426000D01*
X172926000Y-91426000D01*
G37*
G36*
X198001000Y-90926000D02*
X188999000Y-90926000D01*
X188999000Y-89074000D01*
X198001000Y-89074000D01*
X198001000Y-90926000D01*
X198001000Y-90926000D01*
G37*
G36*
X130851000Y-87851000D02*
X129149000Y-87851000D01*
X129149000Y-86149000D01*
X130851000Y-86149000D01*
X130851000Y-87851000D01*
X130851000Y-87851000D01*
G37*
G36*
X132748228Y-86181703D02*
X132903100Y-86245853D01*
X133042481Y-86338985D01*
X133161015Y-86457519D01*
X133254147Y-86596900D01*
X133318297Y-86751772D01*
X133351000Y-86916184D01*
X133351000Y-87083816D01*
X133318297Y-87248228D01*
X133254147Y-87403100D01*
X133161015Y-87542481D01*
X133042481Y-87661015D01*
X132903100Y-87754147D01*
X132748228Y-87818297D01*
X132583816Y-87851000D01*
X132416184Y-87851000D01*
X132251772Y-87818297D01*
X132096900Y-87754147D01*
X131957519Y-87661015D01*
X131838985Y-87542481D01*
X131745853Y-87403100D01*
X131681703Y-87248228D01*
X131649000Y-87083816D01*
X131649000Y-86916184D01*
X131681703Y-86751772D01*
X131745853Y-86596900D01*
X131838985Y-86457519D01*
X131957519Y-86338985D01*
X132096900Y-86245853D01*
X132251772Y-86181703D01*
X132416184Y-86149000D01*
X132583816Y-86149000D01*
X132748228Y-86181703D01*
X132748228Y-86181703D01*
G37*
G36*
X138451000Y-87491000D02*
X136549000Y-87491000D01*
X136549000Y-85589000D01*
X138451000Y-85589000D01*
X138451000Y-87491000D01*
X138451000Y-87491000D01*
G37*
G36*
X148991000Y-87451000D02*
X147089000Y-87451000D01*
X147089000Y-85549000D01*
X148991000Y-85549000D01*
X148991000Y-87451000D01*
X148991000Y-87451000D01*
G37*
G36*
X145686425Y-85562760D02*
X145686428Y-85562761D01*
X145686429Y-85562761D01*
X145865693Y-85617140D01*
X145865695Y-85617141D01*
X146030905Y-85705448D01*
X146175712Y-85824288D01*
X146294552Y-85969095D01*
X146294553Y-85969097D01*
X146382860Y-86134307D01*
X146416697Y-86245853D01*
X146437240Y-86313575D01*
X146455601Y-86500000D01*
X146437240Y-86686425D01*
X146382859Y-86865695D01*
X146294552Y-87030905D01*
X146175712Y-87175712D01*
X146030905Y-87294552D01*
X146030903Y-87294553D01*
X145865693Y-87382860D01*
X145686429Y-87437239D01*
X145686428Y-87437239D01*
X145686425Y-87437240D01*
X145546718Y-87451000D01*
X145453282Y-87451000D01*
X145313575Y-87437240D01*
X145313572Y-87437239D01*
X145313571Y-87437239D01*
X145134307Y-87382860D01*
X144969097Y-87294553D01*
X144969095Y-87294552D01*
X144824288Y-87175712D01*
X144705448Y-87030905D01*
X144617141Y-86865695D01*
X144562760Y-86686425D01*
X144544399Y-86500000D01*
X144562760Y-86313575D01*
X144583303Y-86245853D01*
X144617140Y-86134307D01*
X144705447Y-85969097D01*
X144705448Y-85969095D01*
X144824288Y-85824288D01*
X144969095Y-85705448D01*
X145134305Y-85617141D01*
X145134307Y-85617140D01*
X145313571Y-85562761D01*
X145313572Y-85562761D01*
X145313575Y-85562760D01*
X145453282Y-85549000D01*
X145546718Y-85549000D01*
X145686425Y-85562760D01*
X145686425Y-85562760D01*
G37*
G36*
X143146425Y-85562760D02*
X143146428Y-85562761D01*
X143146429Y-85562761D01*
X143325693Y-85617140D01*
X143325695Y-85617141D01*
X143490905Y-85705448D01*
X143635712Y-85824288D01*
X143754552Y-85969095D01*
X143754553Y-85969097D01*
X143842860Y-86134307D01*
X143876697Y-86245853D01*
X143897240Y-86313575D01*
X143915601Y-86500000D01*
X143897240Y-86686425D01*
X143842859Y-86865695D01*
X143754552Y-87030905D01*
X143635712Y-87175712D01*
X143490905Y-87294552D01*
X143490903Y-87294553D01*
X143325693Y-87382860D01*
X143146429Y-87437239D01*
X143146428Y-87437239D01*
X143146425Y-87437240D01*
X143006718Y-87451000D01*
X142913282Y-87451000D01*
X142773575Y-87437240D01*
X142773572Y-87437239D01*
X142773571Y-87437239D01*
X142594307Y-87382860D01*
X142429097Y-87294553D01*
X142429095Y-87294552D01*
X142284288Y-87175712D01*
X142165448Y-87030905D01*
X142077141Y-86865695D01*
X142022760Y-86686425D01*
X142004399Y-86500000D01*
X142022760Y-86313575D01*
X142043303Y-86245853D01*
X142077140Y-86134307D01*
X142165447Y-85969097D01*
X142165448Y-85969095D01*
X142284288Y-85824288D01*
X142429095Y-85705448D01*
X142594305Y-85617141D01*
X142594307Y-85617140D01*
X142773571Y-85562761D01*
X142773572Y-85562761D01*
X142773575Y-85562760D01*
X142913282Y-85549000D01*
X143006718Y-85549000D01*
X143146425Y-85562760D01*
X143146425Y-85562760D01*
G37*
G36*
X180151000Y-87001000D02*
X178849000Y-87001000D01*
X178849000Y-85999000D01*
X180151000Y-85999000D01*
X180151000Y-87001000D01*
X180151000Y-87001000D01*
G37*
G36*
X177951000Y-87001000D02*
X176649000Y-87001000D01*
X176649000Y-85999000D01*
X177951000Y-85999000D01*
X177951000Y-87001000D01*
X177951000Y-87001000D01*
G37*
G36*
X175151000Y-87001000D02*
X173849000Y-87001000D01*
X173849000Y-85999000D01*
X175151000Y-85999000D01*
X175151000Y-87001000D01*
X175151000Y-87001000D01*
G37*
G36*
X172951000Y-87001000D02*
X171649000Y-87001000D01*
X171649000Y-85999000D01*
X172951000Y-85999000D01*
X172951000Y-87001000D01*
X172951000Y-87001000D01*
G37*
G36*
X170851000Y-87001000D02*
X169549000Y-87001000D01*
X169549000Y-85999000D01*
X170851000Y-85999000D01*
X170851000Y-87001000D01*
X170851000Y-87001000D01*
G37*
G36*
X168651000Y-87001000D02*
X167349000Y-87001000D01*
X167349000Y-85999000D01*
X168651000Y-85999000D01*
X168651000Y-87001000D01*
X168651000Y-87001000D01*
G37*
G36*
X165151000Y-87001000D02*
X163849000Y-87001000D01*
X163849000Y-85999000D01*
X165151000Y-85999000D01*
X165151000Y-87001000D01*
X165151000Y-87001000D01*
G37*
G36*
X162951000Y-87001000D02*
X161649000Y-87001000D01*
X161649000Y-85999000D01*
X162951000Y-85999000D01*
X162951000Y-87001000D01*
X162951000Y-87001000D01*
G37*
G36*
X160651000Y-87001000D02*
X159349000Y-87001000D01*
X159349000Y-85999000D01*
X160651000Y-85999000D01*
X160651000Y-87001000D01*
X160651000Y-87001000D01*
G37*
G36*
X158451000Y-87001000D02*
X157149000Y-87001000D01*
X157149000Y-85999000D01*
X158451000Y-85999000D01*
X158451000Y-87001000D01*
X158451000Y-87001000D01*
G37*
G36*
X182951000Y-87001000D02*
X181649000Y-87001000D01*
X181649000Y-85999000D01*
X182951000Y-85999000D01*
X182951000Y-87001000D01*
X182951000Y-87001000D01*
G37*
G36*
X185151000Y-87001000D02*
X183849000Y-87001000D01*
X183849000Y-85999000D01*
X185151000Y-85999000D01*
X185151000Y-87001000D01*
X185151000Y-87001000D01*
G37*
G36*
X154801000Y-85176000D02*
X153499000Y-85176000D01*
X153499000Y-84324000D01*
X154801000Y-84324000D01*
X154801000Y-85176000D01*
X154801000Y-85176000D01*
G37*
G36*
X152901000Y-85176000D02*
X151599000Y-85176000D01*
X151599000Y-84324000D01*
X152901000Y-84324000D01*
X152901000Y-85176000D01*
X152901000Y-85176000D01*
G37*
G36*
X160651000Y-85001000D02*
X159349000Y-85001000D01*
X159349000Y-83999000D01*
X160651000Y-83999000D01*
X160651000Y-85001000D01*
X160651000Y-85001000D01*
G37*
G36*
X158451000Y-85001000D02*
X157149000Y-85001000D01*
X157149000Y-83999000D01*
X158451000Y-83999000D01*
X158451000Y-85001000D01*
X158451000Y-85001000D01*
G37*
G36*
X137686425Y-83062760D02*
X137686428Y-83062761D01*
X137686429Y-83062761D01*
X137865693Y-83117140D01*
X137865695Y-83117141D01*
X138030905Y-83205448D01*
X138175712Y-83324288D01*
X138294552Y-83469095D01*
X138294553Y-83469097D01*
X138382860Y-83634307D01*
X138437239Y-83813571D01*
X138437240Y-83813575D01*
X138455601Y-84000000D01*
X138437240Y-84186425D01*
X138382859Y-84365695D01*
X138294552Y-84530905D01*
X138175712Y-84675712D01*
X138030905Y-84794552D01*
X138030903Y-84794553D01*
X137865693Y-84882860D01*
X137686429Y-84937239D01*
X137686428Y-84937239D01*
X137686425Y-84937240D01*
X137546718Y-84951000D01*
X137453282Y-84951000D01*
X137313575Y-84937240D01*
X137313572Y-84937239D01*
X137313571Y-84937239D01*
X137134307Y-84882860D01*
X136969097Y-84794553D01*
X136969095Y-84794552D01*
X136824288Y-84675712D01*
X136705448Y-84530905D01*
X136617141Y-84365695D01*
X136562760Y-84186425D01*
X136544399Y-84000000D01*
X136562760Y-83813575D01*
X136562761Y-83813571D01*
X136617140Y-83634307D01*
X136705447Y-83469097D01*
X136705448Y-83469095D01*
X136824288Y-83324288D01*
X136969095Y-83205448D01*
X137134305Y-83117141D01*
X137134307Y-83117140D01*
X137313571Y-83062761D01*
X137313572Y-83062761D01*
X137313575Y-83062760D01*
X137453282Y-83049000D01*
X137546718Y-83049000D01*
X137686425Y-83062760D01*
X137686425Y-83062760D01*
G37*
G36*
X202951000Y-84651000D02*
X201549000Y-84651000D01*
X201549000Y-83049000D01*
X202951000Y-83049000D01*
X202951000Y-84651000D01*
X202951000Y-84651000D01*
G37*
G36*
X200926000Y-84551000D02*
X199574000Y-84551000D01*
X199574000Y-82949000D01*
X200926000Y-82949000D01*
X200926000Y-84551000D01*
X200926000Y-84551000D01*
G37*
G36*
X180001000Y-84351000D02*
X178999000Y-84351000D01*
X178999000Y-83049000D01*
X180001000Y-83049000D01*
X180001000Y-84351000D01*
X180001000Y-84351000D01*
G37*
G36*
X185001000Y-84351000D02*
X183999000Y-84351000D01*
X183999000Y-83049000D01*
X185001000Y-83049000D01*
X185001000Y-84351000D01*
X185001000Y-84351000D01*
G37*
G36*
X182501000Y-84351000D02*
X181499000Y-84351000D01*
X181499000Y-83049000D01*
X182501000Y-83049000D01*
X182501000Y-84351000D01*
X182501000Y-84351000D01*
G37*
G36*
X177501000Y-84351000D02*
X176499000Y-84351000D01*
X176499000Y-83049000D01*
X177501000Y-83049000D01*
X177501000Y-84351000D01*
X177501000Y-84351000D01*
G37*
G36*
X143501000Y-84001000D02*
X142199000Y-84001000D01*
X142199000Y-82999000D01*
X143501000Y-82999000D01*
X143501000Y-84001000D01*
X143501000Y-84001000D01*
G37*
G36*
X141301000Y-84001000D02*
X139999000Y-84001000D01*
X139999000Y-82999000D01*
X141301000Y-82999000D01*
X141301000Y-84001000D01*
X141301000Y-84001000D01*
G37*
G36*
X198001000Y-83726000D02*
X188999000Y-83726000D01*
X188999000Y-81874000D01*
X198001000Y-81874000D01*
X198001000Y-83726000D01*
X198001000Y-83726000D01*
G37*
G36*
X120186425Y-81562760D02*
X120186428Y-81562761D01*
X120186429Y-81562761D01*
X120365693Y-81617140D01*
X120365695Y-81617141D01*
X120530905Y-81705448D01*
X120675712Y-81824288D01*
X120794552Y-81969095D01*
X120794553Y-81969097D01*
X120882860Y-82134307D01*
X120919336Y-82254552D01*
X120937240Y-82313575D01*
X120955601Y-82500000D01*
X120937240Y-82686425D01*
X120882859Y-82865695D01*
X120794552Y-83030905D01*
X120675712Y-83175712D01*
X120530905Y-83294552D01*
X120530903Y-83294553D01*
X120365693Y-83382860D01*
X120186429Y-83437239D01*
X120186428Y-83437239D01*
X120186425Y-83437240D01*
X120046718Y-83451000D01*
X119953282Y-83451000D01*
X119813575Y-83437240D01*
X119813572Y-83437239D01*
X119813571Y-83437239D01*
X119634307Y-83382860D01*
X119469097Y-83294553D01*
X119469095Y-83294552D01*
X119324288Y-83175712D01*
X119205448Y-83030905D01*
X119117141Y-82865695D01*
X119062760Y-82686425D01*
X119044399Y-82500000D01*
X119062760Y-82313575D01*
X119080664Y-82254552D01*
X119117140Y-82134307D01*
X119205447Y-81969097D01*
X119205448Y-81969095D01*
X119324288Y-81824288D01*
X119469095Y-81705448D01*
X119634305Y-81617141D01*
X119634307Y-81617140D01*
X119813571Y-81562761D01*
X119813572Y-81562761D01*
X119813575Y-81562760D01*
X119953282Y-81549000D01*
X120046718Y-81549000D01*
X120186425Y-81562760D01*
X120186425Y-81562760D01*
G37*
G36*
X122726425Y-81562760D02*
X122726428Y-81562761D01*
X122726429Y-81562761D01*
X122905693Y-81617140D01*
X122905695Y-81617141D01*
X123070905Y-81705448D01*
X123215712Y-81824288D01*
X123334552Y-81969095D01*
X123334553Y-81969097D01*
X123422860Y-82134307D01*
X123459336Y-82254552D01*
X123477240Y-82313575D01*
X123495601Y-82500000D01*
X123477240Y-82686425D01*
X123422859Y-82865695D01*
X123334552Y-83030905D01*
X123215712Y-83175712D01*
X123070905Y-83294552D01*
X123070903Y-83294553D01*
X122905693Y-83382860D01*
X122726429Y-83437239D01*
X122726428Y-83437239D01*
X122726425Y-83437240D01*
X122586718Y-83451000D01*
X122493282Y-83451000D01*
X122353575Y-83437240D01*
X122353572Y-83437239D01*
X122353571Y-83437239D01*
X122174307Y-83382860D01*
X122009097Y-83294553D01*
X122009095Y-83294552D01*
X121864288Y-83175712D01*
X121745448Y-83030905D01*
X121657141Y-82865695D01*
X121602760Y-82686425D01*
X121584399Y-82500000D01*
X121602760Y-82313575D01*
X121620664Y-82254552D01*
X121657140Y-82134307D01*
X121745447Y-81969097D01*
X121745448Y-81969095D01*
X121864288Y-81824288D01*
X122009095Y-81705448D01*
X122174305Y-81617141D01*
X122174307Y-81617140D01*
X122353571Y-81562761D01*
X122353572Y-81562761D01*
X122353575Y-81562760D01*
X122493282Y-81549000D01*
X122586718Y-81549000D01*
X122726425Y-81562760D01*
X122726425Y-81562760D01*
G37*
G36*
X126031000Y-83451000D02*
X124129000Y-83451000D01*
X124129000Y-81549000D01*
X126031000Y-81549000D01*
X126031000Y-83451000D01*
X126031000Y-83451000D01*
G37*
G36*
X154126000Y-83101000D02*
X147874000Y-83101000D01*
X147874000Y-81399000D01*
X154126000Y-81399000D01*
X154126000Y-83101000D01*
X154126000Y-83101000D01*
G37*
G36*
X137686425Y-80522760D02*
X137686428Y-80522761D01*
X137686429Y-80522761D01*
X137865693Y-80577140D01*
X137865695Y-80577141D01*
X138030905Y-80665448D01*
X138175712Y-80784288D01*
X138294552Y-80929095D01*
X138382859Y-81094305D01*
X138437240Y-81273575D01*
X138455601Y-81460000D01*
X138437240Y-81646425D01*
X138437239Y-81646428D01*
X138437239Y-81646429D01*
X138385104Y-81818297D01*
X138382859Y-81825695D01*
X138294552Y-81990905D01*
X138175712Y-82135712D01*
X138030905Y-82254552D01*
X138030903Y-82254553D01*
X137865693Y-82342860D01*
X137686429Y-82397239D01*
X137686428Y-82397239D01*
X137686425Y-82397240D01*
X137546718Y-82411000D01*
X137453282Y-82411000D01*
X137313575Y-82397240D01*
X137313572Y-82397239D01*
X137313571Y-82397239D01*
X137134307Y-82342860D01*
X136969097Y-82254553D01*
X136969095Y-82254552D01*
X136824288Y-82135712D01*
X136705448Y-81990905D01*
X136617141Y-81825695D01*
X136614897Y-81818297D01*
X136562761Y-81646429D01*
X136562761Y-81646428D01*
X136562760Y-81646425D01*
X136544399Y-81460000D01*
X136562760Y-81273575D01*
X136617141Y-81094305D01*
X136705448Y-80929095D01*
X136824288Y-80784288D01*
X136969095Y-80665448D01*
X137134305Y-80577141D01*
X137134307Y-80577140D01*
X137313571Y-80522761D01*
X137313572Y-80522761D01*
X137313575Y-80522760D01*
X137453282Y-80509000D01*
X137546718Y-80509000D01*
X137686425Y-80522760D01*
X137686425Y-80522760D01*
G37*
G36*
X185001000Y-82151000D02*
X183999000Y-82151000D01*
X183999000Y-80849000D01*
X185001000Y-80849000D01*
X185001000Y-82151000D01*
X185001000Y-82151000D01*
G37*
G36*
X177501000Y-82151000D02*
X176499000Y-82151000D01*
X176499000Y-80849000D01*
X177501000Y-80849000D01*
X177501000Y-82151000D01*
X177501000Y-82151000D01*
G37*
G36*
X182501000Y-82151000D02*
X181499000Y-82151000D01*
X181499000Y-80849000D01*
X182501000Y-80849000D01*
X182501000Y-82151000D01*
X182501000Y-82151000D01*
G37*
G36*
X180001000Y-82151000D02*
X178999000Y-82151000D01*
X178999000Y-80849000D01*
X180001000Y-80849000D01*
X180001000Y-82151000D01*
X180001000Y-82151000D01*
G37*
G36*
X200926000Y-82051000D02*
X199574000Y-82051000D01*
X199574000Y-80449000D01*
X200926000Y-80449000D01*
X200926000Y-82051000D01*
X200926000Y-82051000D01*
G37*
G36*
X202951000Y-81951000D02*
X201549000Y-81951000D01*
X201549000Y-80349000D01*
X202951000Y-80349000D01*
X202951000Y-81951000D01*
X202951000Y-81951000D01*
G37*
G36*
X133351000Y-81851000D02*
X131649000Y-81851000D01*
X131649000Y-80149000D01*
X133351000Y-80149000D01*
X133351000Y-81851000D01*
X133351000Y-81851000D01*
G37*
G36*
X130248228Y-80181703D02*
X130403100Y-80245853D01*
X130542481Y-80338985D01*
X130661015Y-80457519D01*
X130754147Y-80596900D01*
X130818297Y-80751772D01*
X130851000Y-80916184D01*
X130851000Y-81083816D01*
X130818297Y-81248228D01*
X130754147Y-81403100D01*
X130661015Y-81542481D01*
X130542481Y-81661015D01*
X130403100Y-81754147D01*
X130248228Y-81818297D01*
X130083816Y-81851000D01*
X129916184Y-81851000D01*
X129751772Y-81818297D01*
X129596900Y-81754147D01*
X129457519Y-81661015D01*
X129338985Y-81542481D01*
X129245853Y-81403100D01*
X129181703Y-81248228D01*
X129149000Y-81083816D01*
X129149000Y-80916184D01*
X129181703Y-80751772D01*
X129245853Y-80596900D01*
X129338985Y-80457519D01*
X129457519Y-80338985D01*
X129596900Y-80245853D01*
X129751772Y-80181703D01*
X129916184Y-80149000D01*
X130083816Y-80149000D01*
X130248228Y-80181703D01*
X130248228Y-80181703D01*
G37*
G36*
X196051000Y-81176000D02*
X194749000Y-81176000D01*
X194749000Y-80324000D01*
X196051000Y-80324000D01*
X196051000Y-81176000D01*
X196051000Y-81176000D01*
G37*
G36*
X194151000Y-81176000D02*
X192849000Y-81176000D01*
X192849000Y-80324000D01*
X194151000Y-80324000D01*
X194151000Y-81176000D01*
X194151000Y-81176000D01*
G37*
G36*
X156101000Y-81126000D02*
X154399000Y-81126000D01*
X154399000Y-74874000D01*
X156101000Y-74874000D01*
X156101000Y-81126000D01*
X156101000Y-81126000D01*
G37*
G36*
X147601000Y-81126000D02*
X145899000Y-81126000D01*
X145899000Y-74874000D01*
X147601000Y-74874000D01*
X147601000Y-81126000D01*
X147601000Y-81126000D01*
G37*
G36*
X144551000Y-80676000D02*
X142949000Y-80676000D01*
X142949000Y-79324000D01*
X144551000Y-79324000D01*
X144551000Y-80676000D01*
X144551000Y-80676000D01*
G37*
G36*
X142051000Y-80676000D02*
X140449000Y-80676000D01*
X140449000Y-79324000D01*
X142051000Y-79324000D01*
X142051000Y-80676000D01*
X142051000Y-80676000D01*
G37*
G36*
X123451000Y-80001000D02*
X122149000Y-80001000D01*
X122149000Y-78999000D01*
X123451000Y-78999000D01*
X123451000Y-80001000D01*
X123451000Y-80001000D01*
G37*
G36*
X125651000Y-80001000D02*
X124349000Y-80001000D01*
X124349000Y-78999000D01*
X125651000Y-78999000D01*
X125651000Y-80001000D01*
X125651000Y-80001000D01*
G37*
G36*
X203251000Y-79751000D02*
X201149000Y-79751000D01*
X201149000Y-77149000D01*
X203251000Y-77149000D01*
X203251000Y-79751000D01*
X203251000Y-79751000D01*
G37*
G36*
X199651000Y-79751000D02*
X195849000Y-79751000D01*
X195849000Y-77349000D01*
X199651000Y-77349000D01*
X199651000Y-79751000D01*
X199651000Y-79751000D01*
G37*
G36*
X194351000Y-79751000D02*
X192249000Y-79751000D01*
X192249000Y-77149000D01*
X194351000Y-77149000D01*
X194351000Y-79751000D01*
X194351000Y-79751000D01*
G37*
G36*
X190351000Y-79251000D02*
X189049000Y-79251000D01*
X189049000Y-78249000D01*
X190351000Y-78249000D01*
X190351000Y-79251000D01*
X190351000Y-79251000D01*
G37*
G36*
X188151000Y-79251000D02*
X186849000Y-79251000D01*
X186849000Y-78249000D01*
X188151000Y-78249000D01*
X188151000Y-79251000D01*
X188151000Y-79251000D01*
G37*
G36*
X144751000Y-78501000D02*
X142849000Y-78501000D01*
X142849000Y-76299000D01*
X144751000Y-76299000D01*
X144751000Y-78501000D01*
X144751000Y-78501000D01*
G37*
G36*
X142451000Y-78501000D02*
X140549000Y-78501000D01*
X140549000Y-76299000D01*
X142451000Y-76299000D01*
X142451000Y-78501000D01*
X142451000Y-78501000D01*
G37*
G36*
X208134239Y-71811467D02*
X208448282Y-71873934D01*
X209039926Y-72119001D01*
X209380351Y-72346466D01*
X209572395Y-72474786D01*
X210025214Y-72927605D01*
X210025216Y-72927608D01*
X210380999Y-73460074D01*
X210619973Y-74037009D01*
X210626066Y-74051719D01*
X210751000Y-74679803D01*
X210751000Y-75320197D01*
X210717345Y-75489390D01*
X210626066Y-75948282D01*
X210380999Y-76539926D01*
X210338509Y-76603516D01*
X210025214Y-77072395D01*
X209572395Y-77525214D01*
X209572392Y-77525216D01*
X209039926Y-77880999D01*
X208448282Y-78126066D01*
X208134239Y-78188533D01*
X207820197Y-78251000D01*
X207179803Y-78251000D01*
X206865761Y-78188533D01*
X206551718Y-78126066D01*
X205960074Y-77880999D01*
X205427608Y-77525216D01*
X205427605Y-77525214D01*
X204974786Y-77072395D01*
X204661491Y-76603516D01*
X204619001Y-76539926D01*
X204373934Y-75948282D01*
X204282655Y-75489390D01*
X204249000Y-75320197D01*
X204249000Y-74679803D01*
X204373934Y-74051719D01*
X204380027Y-74037009D01*
X204619001Y-73460074D01*
X204974784Y-72927608D01*
X204974786Y-72927605D01*
X205427605Y-72474786D01*
X205619649Y-72346466D01*
X205960074Y-72119001D01*
X206551718Y-71873934D01*
X206865761Y-71811467D01*
X207179803Y-71749000D01*
X207820197Y-71749000D01*
X208134239Y-71811467D01*
X208134239Y-71811467D01*
G37*
G36*
X120634239Y-71811467D02*
X120948282Y-71873934D01*
X121539926Y-72119001D01*
X121880351Y-72346466D01*
X122072395Y-72474786D01*
X122525214Y-72927605D01*
X122525216Y-72927608D01*
X122880999Y-73460074D01*
X123119973Y-74037009D01*
X123126066Y-74051719D01*
X123251000Y-74679803D01*
X123251000Y-75320197D01*
X123217345Y-75489390D01*
X123126066Y-75948282D01*
X122880999Y-76539926D01*
X122838509Y-76603516D01*
X122525214Y-77072395D01*
X122072395Y-77525214D01*
X122072392Y-77525216D01*
X121539926Y-77880999D01*
X120948282Y-78126066D01*
X120634239Y-78188533D01*
X120320197Y-78251000D01*
X119679803Y-78251000D01*
X119365761Y-78188533D01*
X119051718Y-78126066D01*
X118460074Y-77880999D01*
X117927608Y-77525216D01*
X117927605Y-77525214D01*
X117474786Y-77072395D01*
X117161491Y-76603516D01*
X117119001Y-76539926D01*
X116873934Y-75948282D01*
X116782655Y-75489390D01*
X116749000Y-75320197D01*
X116749000Y-74679803D01*
X116873934Y-74051719D01*
X116880027Y-74037009D01*
X117119001Y-73460074D01*
X117474784Y-72927608D01*
X117474786Y-72927605D01*
X117927605Y-72474786D01*
X118119649Y-72346466D01*
X118460074Y-72119001D01*
X119051718Y-71873934D01*
X119365761Y-71811467D01*
X119679803Y-71749000D01*
X120320197Y-71749000D01*
X120634239Y-71811467D01*
X120634239Y-71811467D01*
G37*
G36*
X174306565Y-75489389D02*
X174497834Y-75568615D01*
X174669976Y-75683637D01*
X174816363Y-75830024D01*
X174931385Y-76002166D01*
X175010611Y-76193435D01*
X175051000Y-76396484D01*
X175051000Y-76603516D01*
X175010611Y-76806565D01*
X174931385Y-76997834D01*
X174816363Y-77169976D01*
X174669976Y-77316363D01*
X174497834Y-77431385D01*
X174306565Y-77510611D01*
X174103516Y-77551000D01*
X173896484Y-77551000D01*
X173693435Y-77510611D01*
X173502166Y-77431385D01*
X173330024Y-77316363D01*
X173183637Y-77169976D01*
X173068615Y-76997834D01*
X172989389Y-76806565D01*
X172949000Y-76603516D01*
X172949000Y-76396484D01*
X172989389Y-76193435D01*
X173068615Y-76002166D01*
X173183637Y-75830024D01*
X173330024Y-75683637D01*
X173502166Y-75568615D01*
X173693435Y-75489389D01*
X173896484Y-75449000D01*
X174103516Y-75449000D01*
X174306565Y-75489389D01*
X174306565Y-75489389D01*
G37*
G36*
X167806565Y-75489389D02*
X167997834Y-75568615D01*
X168169976Y-75683637D01*
X168316363Y-75830024D01*
X168431385Y-76002166D01*
X168510611Y-76193435D01*
X168551000Y-76396484D01*
X168551000Y-76603516D01*
X168510611Y-76806565D01*
X168431385Y-76997834D01*
X168316363Y-77169976D01*
X168169976Y-77316363D01*
X167997834Y-77431385D01*
X167806565Y-77510611D01*
X167603516Y-77551000D01*
X167396484Y-77551000D01*
X167193435Y-77510611D01*
X167002166Y-77431385D01*
X166830024Y-77316363D01*
X166683637Y-77169976D01*
X166568615Y-76997834D01*
X166489389Y-76806565D01*
X166449000Y-76603516D01*
X166449000Y-76396484D01*
X166489389Y-76193435D01*
X166568615Y-76002166D01*
X166683637Y-75830024D01*
X166830024Y-75683637D01*
X167002166Y-75568615D01*
X167193435Y-75489389D01*
X167396484Y-75449000D01*
X167603516Y-75449000D01*
X167806565Y-75489389D01*
X167806565Y-75489389D01*
G37*
G36*
X164806565Y-75489389D02*
X164997834Y-75568615D01*
X165169976Y-75683637D01*
X165316363Y-75830024D01*
X165431385Y-76002166D01*
X165510611Y-76193435D01*
X165551000Y-76396484D01*
X165551000Y-76603516D01*
X165510611Y-76806565D01*
X165431385Y-76997834D01*
X165316363Y-77169976D01*
X165169976Y-77316363D01*
X164997834Y-77431385D01*
X164806565Y-77510611D01*
X164603516Y-77551000D01*
X164396484Y-77551000D01*
X164193435Y-77510611D01*
X164002166Y-77431385D01*
X163830024Y-77316363D01*
X163683637Y-77169976D01*
X163568615Y-76997834D01*
X163489389Y-76806565D01*
X163449000Y-76603516D01*
X163449000Y-76396484D01*
X163489389Y-76193435D01*
X163568615Y-76002166D01*
X163683637Y-75830024D01*
X163830024Y-75683637D01*
X164002166Y-75568615D01*
X164193435Y-75489389D01*
X164396484Y-75449000D01*
X164603516Y-75449000D01*
X164806565Y-75489389D01*
X164806565Y-75489389D01*
G37*
G36*
X158306565Y-75489389D02*
X158497834Y-75568615D01*
X158669976Y-75683637D01*
X158816363Y-75830024D01*
X158931385Y-76002166D01*
X159010611Y-76193435D01*
X159051000Y-76396484D01*
X159051000Y-76603516D01*
X159010611Y-76806565D01*
X158931385Y-76997834D01*
X158816363Y-77169976D01*
X158669976Y-77316363D01*
X158497834Y-77431385D01*
X158306565Y-77510611D01*
X158103516Y-77551000D01*
X157896484Y-77551000D01*
X157693435Y-77510611D01*
X157502166Y-77431385D01*
X157330024Y-77316363D01*
X157183637Y-77169976D01*
X157068615Y-76997834D01*
X156989389Y-76806565D01*
X156949000Y-76603516D01*
X156949000Y-76396484D01*
X156989389Y-76193435D01*
X157068615Y-76002166D01*
X157183637Y-75830024D01*
X157330024Y-75683637D01*
X157502166Y-75568615D01*
X157693435Y-75489389D01*
X157896484Y-75449000D01*
X158103516Y-75449000D01*
X158306565Y-75489389D01*
X158306565Y-75489389D01*
G37*
G36*
X190351000Y-77501000D02*
X189049000Y-77501000D01*
X189049000Y-76499000D01*
X190351000Y-76499000D01*
X190351000Y-77501000D01*
X190351000Y-77501000D01*
G37*
G36*
X188151000Y-77501000D02*
X186849000Y-77501000D01*
X186849000Y-76499000D01*
X188151000Y-76499000D01*
X188151000Y-77501000D01*
X188151000Y-77501000D01*
G37*
G36*
X195696136Y-75468253D02*
X195787312Y-75506019D01*
X195869372Y-75560850D01*
X195939150Y-75630628D01*
X195993981Y-75712688D01*
X196031747Y-75803864D01*
X196051000Y-75900656D01*
X196051000Y-75999344D01*
X196031747Y-76096136D01*
X195993981Y-76187312D01*
X195939150Y-76269372D01*
X195869372Y-76339150D01*
X195787312Y-76393981D01*
X195696136Y-76431747D01*
X195599344Y-76451000D01*
X195500656Y-76451000D01*
X195403864Y-76431747D01*
X195312688Y-76393981D01*
X195230628Y-76339150D01*
X195160850Y-76269372D01*
X195106019Y-76187312D01*
X195068253Y-76096136D01*
X195049000Y-75999344D01*
X195049000Y-75900656D01*
X195068253Y-75803864D01*
X195106019Y-75712688D01*
X195160850Y-75630628D01*
X195230628Y-75560850D01*
X195312688Y-75506019D01*
X195403864Y-75468253D01*
X195500656Y-75449000D01*
X195599344Y-75449000D01*
X195696136Y-75468253D01*
X195696136Y-75468253D01*
G37*
G36*
X200096136Y-75468253D02*
X200187312Y-75506019D01*
X200269372Y-75560850D01*
X200339150Y-75630628D01*
X200393981Y-75712688D01*
X200431747Y-75803864D01*
X200451000Y-75900656D01*
X200451000Y-75999344D01*
X200431747Y-76096136D01*
X200393981Y-76187312D01*
X200339150Y-76269372D01*
X200269372Y-76339150D01*
X200187312Y-76393981D01*
X200096136Y-76431747D01*
X199999344Y-76451000D01*
X199900656Y-76451000D01*
X199803864Y-76431747D01*
X199712688Y-76393981D01*
X199630628Y-76339150D01*
X199560850Y-76269372D01*
X199506019Y-76187312D01*
X199468253Y-76096136D01*
X199449000Y-75999344D01*
X199449000Y-75900656D01*
X199468253Y-75803864D01*
X199506019Y-75712688D01*
X199560850Y-75630628D01*
X199630628Y-75560850D01*
X199712688Y-75506019D01*
X199803864Y-75468253D01*
X199900656Y-75449000D01*
X199999344Y-75449000D01*
X200096136Y-75468253D01*
X200096136Y-75468253D01*
G37*
G36*
X144751000Y-75601000D02*
X142849000Y-75601000D01*
X142849000Y-73399000D01*
X144751000Y-73399000D01*
X144751000Y-75601000D01*
X144751000Y-75601000D01*
G37*
G36*
X142451000Y-75601000D02*
X140549000Y-75601000D01*
X140549000Y-73399000D01*
X142451000Y-73399000D01*
X142451000Y-75601000D01*
X142451000Y-75601000D01*
G37*
G36*
X134150442Y-73645518D02*
X134216627Y-73652037D01*
X134329853Y-73686384D01*
X134386467Y-73703557D01*
X134525087Y-73777652D01*
X134542991Y-73787222D01*
X134578729Y-73816552D01*
X134680186Y-73899814D01*
X134763448Y-74001271D01*
X134792778Y-74037009D01*
X134792779Y-74037011D01*
X134876443Y-74193533D01*
X134876443Y-74193534D01*
X134927963Y-74363373D01*
X134945359Y-74540000D01*
X134927963Y-74716627D01*
X134893616Y-74829853D01*
X134876443Y-74886467D01*
X134815223Y-75001000D01*
X134792778Y-75042991D01*
X134763448Y-75078729D01*
X134680186Y-75180186D01*
X134578729Y-75263448D01*
X134542991Y-75292778D01*
X134542989Y-75292779D01*
X134386467Y-75376443D01*
X134329853Y-75393616D01*
X134216627Y-75427963D01*
X134150442Y-75434482D01*
X134084260Y-75441000D01*
X133995740Y-75441000D01*
X133929558Y-75434482D01*
X133863373Y-75427963D01*
X133750147Y-75393616D01*
X133693533Y-75376443D01*
X133537011Y-75292779D01*
X133537009Y-75292778D01*
X133501271Y-75263448D01*
X133399814Y-75180186D01*
X133316552Y-75078729D01*
X133287222Y-75042991D01*
X133264777Y-75001000D01*
X133203557Y-74886467D01*
X133186384Y-74829853D01*
X133152037Y-74716627D01*
X133134641Y-74540000D01*
X133152037Y-74363373D01*
X133203557Y-74193534D01*
X133203557Y-74193533D01*
X133287221Y-74037011D01*
X133287222Y-74037009D01*
X133316552Y-74001271D01*
X133399814Y-73899814D01*
X133501271Y-73816552D01*
X133537009Y-73787222D01*
X133554913Y-73777652D01*
X133693533Y-73703557D01*
X133750147Y-73686384D01*
X133863373Y-73652037D01*
X133929558Y-73645518D01*
X133995740Y-73639000D01*
X134084260Y-73639000D01*
X134150442Y-73645518D01*
X134150442Y-73645518D01*
G37*
G36*
X131610442Y-73645518D02*
X131676627Y-73652037D01*
X131789853Y-73686384D01*
X131846467Y-73703557D01*
X131985087Y-73777652D01*
X132002991Y-73787222D01*
X132038729Y-73816552D01*
X132140186Y-73899814D01*
X132223448Y-74001271D01*
X132252778Y-74037009D01*
X132252779Y-74037011D01*
X132336443Y-74193533D01*
X132336443Y-74193534D01*
X132387963Y-74363373D01*
X132405359Y-74540000D01*
X132387963Y-74716627D01*
X132353616Y-74829853D01*
X132336443Y-74886467D01*
X132275223Y-75001000D01*
X132252778Y-75042991D01*
X132223448Y-75078729D01*
X132140186Y-75180186D01*
X132038729Y-75263448D01*
X132002991Y-75292778D01*
X132002989Y-75292779D01*
X131846467Y-75376443D01*
X131789853Y-75393616D01*
X131676627Y-75427963D01*
X131610442Y-75434482D01*
X131544260Y-75441000D01*
X131455740Y-75441000D01*
X131389558Y-75434482D01*
X131323373Y-75427963D01*
X131210147Y-75393616D01*
X131153533Y-75376443D01*
X130997011Y-75292779D01*
X130997009Y-75292778D01*
X130961271Y-75263448D01*
X130859814Y-75180186D01*
X130776552Y-75078729D01*
X130747222Y-75042991D01*
X130724777Y-75001000D01*
X130663557Y-74886467D01*
X130646384Y-74829853D01*
X130612037Y-74716627D01*
X130594641Y-74540000D01*
X130612037Y-74363373D01*
X130663557Y-74193534D01*
X130663557Y-74193533D01*
X130747221Y-74037011D01*
X130747222Y-74037009D01*
X130776552Y-74001271D01*
X130859814Y-73899814D01*
X130961271Y-73816552D01*
X130997009Y-73787222D01*
X131014913Y-73777652D01*
X131153533Y-73703557D01*
X131210147Y-73686384D01*
X131323373Y-73652037D01*
X131389558Y-73645518D01*
X131455740Y-73639000D01*
X131544260Y-73639000D01*
X131610442Y-73645518D01*
X131610442Y-73645518D01*
G37*
G36*
X129070442Y-73645518D02*
X129136627Y-73652037D01*
X129249853Y-73686384D01*
X129306467Y-73703557D01*
X129445087Y-73777652D01*
X129462991Y-73787222D01*
X129498729Y-73816552D01*
X129600186Y-73899814D01*
X129683448Y-74001271D01*
X129712778Y-74037009D01*
X129712779Y-74037011D01*
X129796443Y-74193533D01*
X129796443Y-74193534D01*
X129847963Y-74363373D01*
X129865359Y-74540000D01*
X129847963Y-74716627D01*
X129813616Y-74829853D01*
X129796443Y-74886467D01*
X129735223Y-75001000D01*
X129712778Y-75042991D01*
X129683448Y-75078729D01*
X129600186Y-75180186D01*
X129498729Y-75263448D01*
X129462991Y-75292778D01*
X129462989Y-75292779D01*
X129306467Y-75376443D01*
X129249853Y-75393616D01*
X129136627Y-75427963D01*
X129070442Y-75434482D01*
X129004260Y-75441000D01*
X128915740Y-75441000D01*
X128849558Y-75434482D01*
X128783373Y-75427963D01*
X128670147Y-75393616D01*
X128613533Y-75376443D01*
X128457011Y-75292779D01*
X128457009Y-75292778D01*
X128421271Y-75263448D01*
X128319814Y-75180186D01*
X128236552Y-75078729D01*
X128207222Y-75042991D01*
X128184777Y-75001000D01*
X128123557Y-74886467D01*
X128106384Y-74829853D01*
X128072037Y-74716627D01*
X128054641Y-74540000D01*
X128072037Y-74363373D01*
X128123557Y-74193534D01*
X128123557Y-74193533D01*
X128207221Y-74037011D01*
X128207222Y-74037009D01*
X128236552Y-74001271D01*
X128319814Y-73899814D01*
X128421271Y-73816552D01*
X128457009Y-73787222D01*
X128474913Y-73777652D01*
X128613533Y-73703557D01*
X128670147Y-73686384D01*
X128783373Y-73652037D01*
X128849558Y-73645518D01*
X128915740Y-73639000D01*
X129004260Y-73639000D01*
X129070442Y-73645518D01*
X129070442Y-73645518D01*
G37*
G36*
X185201000Y-75001000D02*
X183799000Y-75001000D01*
X183799000Y-73399000D01*
X185201000Y-73399000D01*
X185201000Y-75001000D01*
X185201000Y-75001000D01*
G37*
G36*
X177701000Y-75001000D02*
X176299000Y-75001000D01*
X176299000Y-73399000D01*
X177701000Y-73399000D01*
X177701000Y-75001000D01*
X177701000Y-75001000D01*
G37*
G36*
X182701000Y-75001000D02*
X181299000Y-75001000D01*
X181299000Y-73399000D01*
X182701000Y-73399000D01*
X182701000Y-75001000D01*
X182701000Y-75001000D01*
G37*
G36*
X180201000Y-75001000D02*
X178799000Y-75001000D01*
X178799000Y-73399000D01*
X180201000Y-73399000D01*
X180201000Y-75001000D01*
X180201000Y-75001000D01*
G37*
G36*
X154126000Y-74601000D02*
X147874000Y-74601000D01*
X147874000Y-72899000D01*
X154126000Y-72899000D01*
X154126000Y-74601000D01*
X154126000Y-74601000D01*
G37*
G36*
X194351000Y-74251000D02*
X192249000Y-74251000D01*
X192249000Y-71649000D01*
X194351000Y-71649000D01*
X194351000Y-74251000D01*
X194351000Y-74251000D01*
G37*
G36*
X203251000Y-74251000D02*
X201149000Y-74251000D01*
X201149000Y-71649000D01*
X203251000Y-71649000D01*
X203251000Y-74251000D01*
X203251000Y-74251000D01*
G37*
G36*
X159051000Y-73051000D02*
X156949000Y-73051000D01*
X156949000Y-70949000D01*
X159051000Y-70949000D01*
X159051000Y-73051000D01*
X159051000Y-73051000D01*
G37*
G36*
X164806565Y-70989389D02*
X164997834Y-71068615D01*
X165169976Y-71183637D01*
X165316363Y-71330024D01*
X165431385Y-71502166D01*
X165510611Y-71693435D01*
X165551000Y-71896484D01*
X165551000Y-72103516D01*
X165510611Y-72306565D01*
X165431385Y-72497834D01*
X165316363Y-72669976D01*
X165169976Y-72816363D01*
X164997834Y-72931385D01*
X164806565Y-73010611D01*
X164603516Y-73051000D01*
X164396484Y-73051000D01*
X164193435Y-73010611D01*
X164002166Y-72931385D01*
X163830024Y-72816363D01*
X163683637Y-72669976D01*
X163568615Y-72497834D01*
X163489389Y-72306565D01*
X163449000Y-72103516D01*
X163449000Y-71896484D01*
X163489389Y-71693435D01*
X163568615Y-71502166D01*
X163683637Y-71330024D01*
X163830024Y-71183637D01*
X164002166Y-71068615D01*
X164193435Y-70989389D01*
X164396484Y-70949000D01*
X164603516Y-70949000D01*
X164806565Y-70989389D01*
X164806565Y-70989389D01*
G37*
G36*
X168551000Y-73051000D02*
X166449000Y-73051000D01*
X166449000Y-70949000D01*
X168551000Y-70949000D01*
X168551000Y-73051000D01*
X168551000Y-73051000D01*
G37*
G36*
X174306565Y-70989389D02*
X174497834Y-71068615D01*
X174669976Y-71183637D01*
X174816363Y-71330024D01*
X174931385Y-71502166D01*
X175010611Y-71693435D01*
X175051000Y-71896484D01*
X175051000Y-72103516D01*
X175010611Y-72306565D01*
X174931385Y-72497834D01*
X174816363Y-72669976D01*
X174669976Y-72816363D01*
X174497834Y-72931385D01*
X174306565Y-73010611D01*
X174103516Y-73051000D01*
X173896484Y-73051000D01*
X173693435Y-73010611D01*
X173502166Y-72931385D01*
X173330024Y-72816363D01*
X173183637Y-72669976D01*
X173068615Y-72497834D01*
X172989389Y-72306565D01*
X172949000Y-72103516D01*
X172949000Y-71896484D01*
X172989389Y-71693435D01*
X173068615Y-71502166D01*
X173183637Y-71330024D01*
X173330024Y-71183637D01*
X173502166Y-71068615D01*
X173693435Y-70989389D01*
X173896484Y-70949000D01*
X174103516Y-70949000D01*
X174306565Y-70989389D01*
X174306565Y-70989389D01*
G37*
G36*
X129070443Y-71105519D02*
X129136627Y-71112037D01*
X129249853Y-71146384D01*
X129306467Y-71163557D01*
X129344033Y-71183637D01*
X129462991Y-71247222D01*
X129498729Y-71276552D01*
X129600186Y-71359814D01*
X129683448Y-71461271D01*
X129712778Y-71497009D01*
X129712779Y-71497011D01*
X129796443Y-71653533D01*
X129796443Y-71653534D01*
X129847963Y-71823373D01*
X129865359Y-72000000D01*
X129847963Y-72176627D01*
X129813616Y-72289853D01*
X129796443Y-72346467D01*
X129727855Y-72474784D01*
X129712778Y-72502991D01*
X129683448Y-72538729D01*
X129600186Y-72640186D01*
X129498729Y-72723448D01*
X129462991Y-72752778D01*
X129462989Y-72752779D01*
X129306467Y-72836443D01*
X129249853Y-72853616D01*
X129136627Y-72887963D01*
X129070443Y-72894481D01*
X129004260Y-72901000D01*
X128915740Y-72901000D01*
X128849557Y-72894481D01*
X128783373Y-72887963D01*
X128670147Y-72853616D01*
X128613533Y-72836443D01*
X128457011Y-72752779D01*
X128457009Y-72752778D01*
X128421271Y-72723448D01*
X128319814Y-72640186D01*
X128236552Y-72538729D01*
X128207222Y-72502991D01*
X128192145Y-72474784D01*
X128123557Y-72346467D01*
X128106384Y-72289853D01*
X128072037Y-72176627D01*
X128054641Y-72000000D01*
X128072037Y-71823373D01*
X128123557Y-71653534D01*
X128123557Y-71653533D01*
X128207221Y-71497011D01*
X128207222Y-71497009D01*
X128236552Y-71461271D01*
X128319814Y-71359814D01*
X128421271Y-71276552D01*
X128457009Y-71247222D01*
X128575967Y-71183637D01*
X128613533Y-71163557D01*
X128670147Y-71146384D01*
X128783373Y-71112037D01*
X128849557Y-71105519D01*
X128915740Y-71099000D01*
X129004260Y-71099000D01*
X129070443Y-71105519D01*
X129070443Y-71105519D01*
G37*
G36*
X131610443Y-71105519D02*
X131676627Y-71112037D01*
X131789853Y-71146384D01*
X131846467Y-71163557D01*
X131884033Y-71183637D01*
X132002991Y-71247222D01*
X132038729Y-71276552D01*
X132140186Y-71359814D01*
X132223448Y-71461271D01*
X132252778Y-71497009D01*
X132252779Y-71497011D01*
X132336443Y-71653533D01*
X132336443Y-71653534D01*
X132387963Y-71823373D01*
X132405359Y-72000000D01*
X132387963Y-72176627D01*
X132353616Y-72289853D01*
X132336443Y-72346467D01*
X132267855Y-72474784D01*
X132252778Y-72502991D01*
X132223448Y-72538729D01*
X132140186Y-72640186D01*
X132038729Y-72723448D01*
X132002991Y-72752778D01*
X132002989Y-72752779D01*
X131846467Y-72836443D01*
X131789853Y-72853616D01*
X131676627Y-72887963D01*
X131610443Y-72894481D01*
X131544260Y-72901000D01*
X131455740Y-72901000D01*
X131389557Y-72894481D01*
X131323373Y-72887963D01*
X131210147Y-72853616D01*
X131153533Y-72836443D01*
X130997011Y-72752779D01*
X130997009Y-72752778D01*
X130961271Y-72723448D01*
X130859814Y-72640186D01*
X130776552Y-72538729D01*
X130747222Y-72502991D01*
X130732145Y-72474784D01*
X130663557Y-72346467D01*
X130646384Y-72289853D01*
X130612037Y-72176627D01*
X130594641Y-72000000D01*
X130612037Y-71823373D01*
X130663557Y-71653534D01*
X130663557Y-71653533D01*
X130747221Y-71497011D01*
X130747222Y-71497009D01*
X130776552Y-71461271D01*
X130859814Y-71359814D01*
X130961271Y-71276552D01*
X130997009Y-71247222D01*
X131115967Y-71183637D01*
X131153533Y-71163557D01*
X131210147Y-71146384D01*
X131323373Y-71112037D01*
X131389557Y-71105519D01*
X131455740Y-71099000D01*
X131544260Y-71099000D01*
X131610443Y-71105519D01*
X131610443Y-71105519D01*
G37*
G36*
X134941000Y-72901000D02*
X133139000Y-72901000D01*
X133139000Y-71099000D01*
X134941000Y-71099000D01*
X134941000Y-72901000D01*
X134941000Y-72901000D01*
G37*
G36*
X142051000Y-72676000D02*
X140449000Y-72676000D01*
X140449000Y-71324000D01*
X142051000Y-71324000D01*
X142051000Y-72676000D01*
X142051000Y-72676000D01*
G37*
G36*
X144551000Y-72676000D02*
X142949000Y-72676000D01*
X142949000Y-71324000D01*
X144551000Y-71324000D01*
X144551000Y-72676000D01*
X144551000Y-72676000D01*
G37*
G36*
X185201000Y-72301000D02*
X183799000Y-72301000D01*
X183799000Y-70699000D01*
X185201000Y-70699000D01*
X185201000Y-72301000D01*
X185201000Y-72301000D01*
G37*
G36*
X180201000Y-72301000D02*
X178799000Y-72301000D01*
X178799000Y-70699000D01*
X180201000Y-70699000D01*
X180201000Y-72301000D01*
X180201000Y-72301000D01*
G37*
G36*
X177701000Y-72301000D02*
X176299000Y-72301000D01*
X176299000Y-70699000D01*
X177701000Y-70699000D01*
X177701000Y-72301000D01*
X177701000Y-72301000D01*
G37*
G36*
X182701000Y-72301000D02*
X181299000Y-72301000D01*
X181299000Y-70699000D01*
X182701000Y-70699000D01*
X182701000Y-72301000D01*
X182701000Y-72301000D01*
G37*
G36*
X154651000Y-72001000D02*
X153349000Y-72001000D01*
X153349000Y-70999000D01*
X154651000Y-70999000D01*
X154651000Y-72001000D01*
X154651000Y-72001000D01*
G37*
G36*
X152451000Y-72001000D02*
X151149000Y-72001000D01*
X151149000Y-70999000D01*
X152451000Y-70999000D01*
X152451000Y-72001000D01*
X152451000Y-72001000D01*
G37*
G36*
X150551000Y-71926000D02*
X149249000Y-71926000D01*
X149249000Y-71074000D01*
X150551000Y-71074000D01*
X150551000Y-71926000D01*
X150551000Y-71926000D01*
G37*
G36*
X148651000Y-71926000D02*
X147349000Y-71926000D01*
X147349000Y-71074000D01*
X148651000Y-71074000D01*
X148651000Y-71926000D01*
X148651000Y-71926000D01*
G37*
M02*
