G04 #@! TF.GenerationSoftware,KiCad,Pcbnew,(5.0.1-3-g963ef8bb5)*
G04 #@! TF.CreationDate,2020-07-12T22:57:35-05:00*
G04 #@! TF.ProjectId,SmartNerfBlaster,536D6172744E657266426C6173746572,v1*
G04 #@! TF.SameCoordinates,Original*
G04 #@! TF.FileFunction,Copper,L2,Inr,Signal*
G04 #@! TF.FilePolarity,Positive*
%FSLAX46Y46*%
G04 Gerber Fmt 4.6, Leading zero omitted, Abs format (unit mm)*
G04 Created by KiCad (PCBNEW (5.0.1-3-g963ef8bb5)) date Sunday, July 12, 2020 at 10:57:35 PM*
%MOMM*%
%LPD*%
G01*
G04 APERTURE LIST*
G04 #@! TA.AperFunction,Conductor*
%ADD10C,0.100000*%
G04 #@! TD*
G04 #@! TA.AperFunction,ViaPad*
%ADD11C,3.810000*%
G04 #@! TD*
G04 #@! TA.AperFunction,ViaPad*
%ADD12C,6.400000*%
G04 #@! TD*
G04 #@! TA.AperFunction,ViaPad*
%ADD13C,1.600000*%
G04 #@! TD*
G04 #@! TA.AperFunction,ViaPad*
%ADD14R,1.600000X1.600000*%
G04 #@! TD*
G04 #@! TA.AperFunction,ViaPad*
%ADD15C,1.750000*%
G04 #@! TD*
G04 #@! TA.AperFunction,ViaPad*
%ADD16R,1.750000X1.750000*%
G04 #@! TD*
G04 #@! TA.AperFunction,ViaPad*
%ADD17R,1.800000X1.800000*%
G04 #@! TD*
G04 #@! TA.AperFunction,ViaPad*
%ADD18O,1.800000X1.800000*%
G04 #@! TD*
G04 #@! TA.AperFunction,ViaPad*
%ADD19C,2.000000*%
G04 #@! TD*
G04 #@! TA.AperFunction,ViaPad*
%ADD20R,2.000000X2.000000*%
G04 #@! TD*
G04 #@! TA.AperFunction,ViaPad*
%ADD21O,1.700000X1.700000*%
G04 #@! TD*
G04 #@! TA.AperFunction,ViaPad*
%ADD22R,1.700000X1.700000*%
G04 #@! TD*
G04 #@! TA.AperFunction,ViaPad*
%ADD23C,0.450000*%
G04 #@! TD*
G04 #@! TA.AperFunction,Conductor*
%ADD24C,0.127000*%
G04 #@! TD*
G04 #@! TA.AperFunction,Conductor*
%ADD25C,1.270000*%
G04 #@! TD*
G04 APERTURE END LIST*
D10*
G04 #@! TO.N,/Pusher_Power*
G04 #@! TO.C,J4*
G36*
X153045861Y-90599587D02*
X153138324Y-90613302D01*
X153228996Y-90636014D01*
X153317006Y-90667505D01*
X153401505Y-90707470D01*
X153481681Y-90755525D01*
X153556760Y-90811208D01*
X153626019Y-90873981D01*
X153688792Y-90943240D01*
X153744475Y-91018319D01*
X153792530Y-91098495D01*
X153832495Y-91182994D01*
X153863986Y-91271004D01*
X153886698Y-91361676D01*
X153900413Y-91454139D01*
X153905000Y-91547500D01*
X153905000Y-93452500D01*
X153900413Y-93545861D01*
X153886698Y-93638324D01*
X153863986Y-93728996D01*
X153832495Y-93817006D01*
X153792530Y-93901505D01*
X153744475Y-93981681D01*
X153688792Y-94056760D01*
X153626019Y-94126019D01*
X153556760Y-94188792D01*
X153481681Y-94244475D01*
X153401505Y-94292530D01*
X153317006Y-94332495D01*
X153228996Y-94363986D01*
X153138324Y-94386698D01*
X153045861Y-94400413D01*
X152952500Y-94405000D01*
X151047500Y-94405000D01*
X150954139Y-94400413D01*
X150861676Y-94386698D01*
X150771004Y-94363986D01*
X150682994Y-94332495D01*
X150598495Y-94292530D01*
X150518319Y-94244475D01*
X150443240Y-94188792D01*
X150373981Y-94126019D01*
X150311208Y-94056760D01*
X150255525Y-93981681D01*
X150207470Y-93901505D01*
X150167505Y-93817006D01*
X150136014Y-93728996D01*
X150113302Y-93638324D01*
X150099587Y-93545861D01*
X150095000Y-93452500D01*
X150095000Y-91547500D01*
X150099587Y-91454139D01*
X150113302Y-91361676D01*
X150136014Y-91271004D01*
X150167505Y-91182994D01*
X150207470Y-91098495D01*
X150255525Y-91018319D01*
X150311208Y-90943240D01*
X150373981Y-90873981D01*
X150443240Y-90811208D01*
X150518319Y-90755525D01*
X150598495Y-90707470D01*
X150682994Y-90667505D01*
X150771004Y-90636014D01*
X150861676Y-90613302D01*
X150954139Y-90599587D01*
X151047500Y-90595000D01*
X152952500Y-90595000D01*
X153045861Y-90599587D01*
X153045861Y-90599587D01*
G37*
D11*
X152000000Y-92500000D03*
D10*
G04 #@! TO.N,+BATT*
G36*
X148545861Y-90599587D02*
X148638324Y-90613302D01*
X148728996Y-90636014D01*
X148817006Y-90667505D01*
X148901505Y-90707470D01*
X148981681Y-90755525D01*
X149056760Y-90811208D01*
X149126019Y-90873981D01*
X149188792Y-90943240D01*
X149244475Y-91018319D01*
X149292530Y-91098495D01*
X149332495Y-91182994D01*
X149363986Y-91271004D01*
X149386698Y-91361676D01*
X149400413Y-91454139D01*
X149405000Y-91547500D01*
X149405000Y-93452500D01*
X149400413Y-93545861D01*
X149386698Y-93638324D01*
X149363986Y-93728996D01*
X149332495Y-93817006D01*
X149292530Y-93901505D01*
X149244475Y-93981681D01*
X149188792Y-94056760D01*
X149126019Y-94126019D01*
X149056760Y-94188792D01*
X148981681Y-94244475D01*
X148901505Y-94292530D01*
X148817006Y-94332495D01*
X148728996Y-94363986D01*
X148638324Y-94386698D01*
X148545861Y-94400413D01*
X148452500Y-94405000D01*
X146547500Y-94405000D01*
X146454139Y-94400413D01*
X146361676Y-94386698D01*
X146271004Y-94363986D01*
X146182994Y-94332495D01*
X146098495Y-94292530D01*
X146018319Y-94244475D01*
X145943240Y-94188792D01*
X145873981Y-94126019D01*
X145811208Y-94056760D01*
X145755525Y-93981681D01*
X145707470Y-93901505D01*
X145667505Y-93817006D01*
X145636014Y-93728996D01*
X145613302Y-93638324D01*
X145599587Y-93545861D01*
X145595000Y-93452500D01*
X145595000Y-91547500D01*
X145599587Y-91454139D01*
X145613302Y-91361676D01*
X145636014Y-91271004D01*
X145667505Y-91182994D01*
X145707470Y-91098495D01*
X145755525Y-91018319D01*
X145811208Y-90943240D01*
X145873981Y-90873981D01*
X145943240Y-90811208D01*
X146018319Y-90755525D01*
X146098495Y-90707470D01*
X146182994Y-90667505D01*
X146271004Y-90636014D01*
X146361676Y-90613302D01*
X146454139Y-90599587D01*
X146547500Y-90595000D01*
X148452500Y-90595000D01*
X148545861Y-90599587D01*
X148545861Y-90599587D01*
G37*
D11*
X147500000Y-92500000D03*
G04 #@! TD*
D10*
G04 #@! TO.N,GND*
G04 #@! TO.C,J1*
G36*
X142545861Y-90599587D02*
X142638324Y-90613302D01*
X142728996Y-90636014D01*
X142817006Y-90667505D01*
X142901505Y-90707470D01*
X142981681Y-90755525D01*
X143056760Y-90811208D01*
X143126019Y-90873981D01*
X143188792Y-90943240D01*
X143244475Y-91018319D01*
X143292530Y-91098495D01*
X143332495Y-91182994D01*
X143363986Y-91271004D01*
X143386698Y-91361676D01*
X143400413Y-91454139D01*
X143405000Y-91547500D01*
X143405000Y-93452500D01*
X143400413Y-93545861D01*
X143386698Y-93638324D01*
X143363986Y-93728996D01*
X143332495Y-93817006D01*
X143292530Y-93901505D01*
X143244475Y-93981681D01*
X143188792Y-94056760D01*
X143126019Y-94126019D01*
X143056760Y-94188792D01*
X142981681Y-94244475D01*
X142901505Y-94292530D01*
X142817006Y-94332495D01*
X142728996Y-94363986D01*
X142638324Y-94386698D01*
X142545861Y-94400413D01*
X142452500Y-94405000D01*
X140547500Y-94405000D01*
X140454139Y-94400413D01*
X140361676Y-94386698D01*
X140271004Y-94363986D01*
X140182994Y-94332495D01*
X140098495Y-94292530D01*
X140018319Y-94244475D01*
X139943240Y-94188792D01*
X139873981Y-94126019D01*
X139811208Y-94056760D01*
X139755525Y-93981681D01*
X139707470Y-93901505D01*
X139667505Y-93817006D01*
X139636014Y-93728996D01*
X139613302Y-93638324D01*
X139599587Y-93545861D01*
X139595000Y-93452500D01*
X139595000Y-91547500D01*
X139599587Y-91454139D01*
X139613302Y-91361676D01*
X139636014Y-91271004D01*
X139667505Y-91182994D01*
X139707470Y-91098495D01*
X139755525Y-91018319D01*
X139811208Y-90943240D01*
X139873981Y-90873981D01*
X139943240Y-90811208D01*
X140018319Y-90755525D01*
X140098495Y-90707470D01*
X140182994Y-90667505D01*
X140271004Y-90636014D01*
X140361676Y-90613302D01*
X140454139Y-90599587D01*
X140547500Y-90595000D01*
X142452500Y-90595000D01*
X142545861Y-90599587D01*
X142545861Y-90599587D01*
G37*
D11*
X141500000Y-92500000D03*
D10*
G04 #@! TO.N,+BATT*
G36*
X138045861Y-90599587D02*
X138138324Y-90613302D01*
X138228996Y-90636014D01*
X138317006Y-90667505D01*
X138401505Y-90707470D01*
X138481681Y-90755525D01*
X138556760Y-90811208D01*
X138626019Y-90873981D01*
X138688792Y-90943240D01*
X138744475Y-91018319D01*
X138792530Y-91098495D01*
X138832495Y-91182994D01*
X138863986Y-91271004D01*
X138886698Y-91361676D01*
X138900413Y-91454139D01*
X138905000Y-91547500D01*
X138905000Y-93452500D01*
X138900413Y-93545861D01*
X138886698Y-93638324D01*
X138863986Y-93728996D01*
X138832495Y-93817006D01*
X138792530Y-93901505D01*
X138744475Y-93981681D01*
X138688792Y-94056760D01*
X138626019Y-94126019D01*
X138556760Y-94188792D01*
X138481681Y-94244475D01*
X138401505Y-94292530D01*
X138317006Y-94332495D01*
X138228996Y-94363986D01*
X138138324Y-94386698D01*
X138045861Y-94400413D01*
X137952500Y-94405000D01*
X136047500Y-94405000D01*
X135954139Y-94400413D01*
X135861676Y-94386698D01*
X135771004Y-94363986D01*
X135682994Y-94332495D01*
X135598495Y-94292530D01*
X135518319Y-94244475D01*
X135443240Y-94188792D01*
X135373981Y-94126019D01*
X135311208Y-94056760D01*
X135255525Y-93981681D01*
X135207470Y-93901505D01*
X135167505Y-93817006D01*
X135136014Y-93728996D01*
X135113302Y-93638324D01*
X135099587Y-93545861D01*
X135095000Y-93452500D01*
X135095000Y-91547500D01*
X135099587Y-91454139D01*
X135113302Y-91361676D01*
X135136014Y-91271004D01*
X135167505Y-91182994D01*
X135207470Y-91098495D01*
X135255525Y-91018319D01*
X135311208Y-90943240D01*
X135373981Y-90873981D01*
X135443240Y-90811208D01*
X135518319Y-90755525D01*
X135598495Y-90707470D01*
X135682994Y-90667505D01*
X135771004Y-90636014D01*
X135861676Y-90613302D01*
X135954139Y-90599587D01*
X136047500Y-90595000D01*
X137952500Y-90595000D01*
X138045861Y-90599587D01*
X138045861Y-90599587D01*
G37*
D11*
X137000000Y-92500000D03*
G04 #@! TD*
D10*
G04 #@! TO.N,/Flywheel_Power*
G04 #@! TO.C,J5*
G36*
X131795861Y-90599587D02*
X131888324Y-90613302D01*
X131978996Y-90636014D01*
X132067006Y-90667505D01*
X132151505Y-90707470D01*
X132231681Y-90755525D01*
X132306760Y-90811208D01*
X132376019Y-90873981D01*
X132438792Y-90943240D01*
X132494475Y-91018319D01*
X132542530Y-91098495D01*
X132582495Y-91182994D01*
X132613986Y-91271004D01*
X132636698Y-91361676D01*
X132650413Y-91454139D01*
X132655000Y-91547500D01*
X132655000Y-93452500D01*
X132650413Y-93545861D01*
X132636698Y-93638324D01*
X132613986Y-93728996D01*
X132582495Y-93817006D01*
X132542530Y-93901505D01*
X132494475Y-93981681D01*
X132438792Y-94056760D01*
X132376019Y-94126019D01*
X132306760Y-94188792D01*
X132231681Y-94244475D01*
X132151505Y-94292530D01*
X132067006Y-94332495D01*
X131978996Y-94363986D01*
X131888324Y-94386698D01*
X131795861Y-94400413D01*
X131702500Y-94405000D01*
X129797500Y-94405000D01*
X129704139Y-94400413D01*
X129611676Y-94386698D01*
X129521004Y-94363986D01*
X129432994Y-94332495D01*
X129348495Y-94292530D01*
X129268319Y-94244475D01*
X129193240Y-94188792D01*
X129123981Y-94126019D01*
X129061208Y-94056760D01*
X129005525Y-93981681D01*
X128957470Y-93901505D01*
X128917505Y-93817006D01*
X128886014Y-93728996D01*
X128863302Y-93638324D01*
X128849587Y-93545861D01*
X128845000Y-93452500D01*
X128845000Y-91547500D01*
X128849587Y-91454139D01*
X128863302Y-91361676D01*
X128886014Y-91271004D01*
X128917505Y-91182994D01*
X128957470Y-91098495D01*
X129005525Y-91018319D01*
X129061208Y-90943240D01*
X129123981Y-90873981D01*
X129193240Y-90811208D01*
X129268319Y-90755525D01*
X129348495Y-90707470D01*
X129432994Y-90667505D01*
X129521004Y-90636014D01*
X129611676Y-90613302D01*
X129704139Y-90599587D01*
X129797500Y-90595000D01*
X131702500Y-90595000D01*
X131795861Y-90599587D01*
X131795861Y-90599587D01*
G37*
D11*
X130750000Y-92500000D03*
D10*
G04 #@! TO.N,+BATT*
G36*
X127295861Y-90599587D02*
X127388324Y-90613302D01*
X127478996Y-90636014D01*
X127567006Y-90667505D01*
X127651505Y-90707470D01*
X127731681Y-90755525D01*
X127806760Y-90811208D01*
X127876019Y-90873981D01*
X127938792Y-90943240D01*
X127994475Y-91018319D01*
X128042530Y-91098495D01*
X128082495Y-91182994D01*
X128113986Y-91271004D01*
X128136698Y-91361676D01*
X128150413Y-91454139D01*
X128155000Y-91547500D01*
X128155000Y-93452500D01*
X128150413Y-93545861D01*
X128136698Y-93638324D01*
X128113986Y-93728996D01*
X128082495Y-93817006D01*
X128042530Y-93901505D01*
X127994475Y-93981681D01*
X127938792Y-94056760D01*
X127876019Y-94126019D01*
X127806760Y-94188792D01*
X127731681Y-94244475D01*
X127651505Y-94292530D01*
X127567006Y-94332495D01*
X127478996Y-94363986D01*
X127388324Y-94386698D01*
X127295861Y-94400413D01*
X127202500Y-94405000D01*
X125297500Y-94405000D01*
X125204139Y-94400413D01*
X125111676Y-94386698D01*
X125021004Y-94363986D01*
X124932994Y-94332495D01*
X124848495Y-94292530D01*
X124768319Y-94244475D01*
X124693240Y-94188792D01*
X124623981Y-94126019D01*
X124561208Y-94056760D01*
X124505525Y-93981681D01*
X124457470Y-93901505D01*
X124417505Y-93817006D01*
X124386014Y-93728996D01*
X124363302Y-93638324D01*
X124349587Y-93545861D01*
X124345000Y-93452500D01*
X124345000Y-91547500D01*
X124349587Y-91454139D01*
X124363302Y-91361676D01*
X124386014Y-91271004D01*
X124417505Y-91182994D01*
X124457470Y-91098495D01*
X124505525Y-91018319D01*
X124561208Y-90943240D01*
X124623981Y-90873981D01*
X124693240Y-90811208D01*
X124768319Y-90755525D01*
X124848495Y-90707470D01*
X124932994Y-90667505D01*
X125021004Y-90636014D01*
X125111676Y-90613302D01*
X125204139Y-90599587D01*
X125297500Y-90595000D01*
X127202500Y-90595000D01*
X127295861Y-90599587D01*
X127295861Y-90599587D01*
G37*
D11*
X126250000Y-92500000D03*
G04 #@! TD*
D12*
G04 #@! TO.N,GND*
G04 #@! TO.C,H1*
X120000000Y-75000000D03*
G04 #@! TD*
D13*
G04 #@! TO.N,GND*
G04 #@! TO.C,C1*
X132500000Y-87000000D03*
D14*
G04 #@! TO.N,+BATT*
X130000000Y-87000000D03*
G04 #@! TD*
G04 #@! TO.N,+5V*
G04 #@! TO.C,C2*
X132500000Y-81000000D03*
D13*
G04 #@! TO.N,GND*
X130000000Y-81000000D03*
G04 #@! TD*
D15*
G04 #@! TO.N,/Pusher_Reset*
G04 #@! TO.C,J2*
X184500000Y-90500000D03*
G04 #@! TO.N,GND*
X182000000Y-90500000D03*
G04 #@! TO.N,/Flywheel_Button*
X179500000Y-90500000D03*
G04 #@! TO.N,GND*
X177000000Y-90500000D03*
G04 #@! TO.N,/Trigger*
X174500000Y-90500000D03*
D16*
G04 #@! TO.N,GND*
X172000000Y-90500000D03*
G04 #@! TD*
D15*
G04 #@! TO.N,/Magazine*
G04 #@! TO.C,J3*
X165000000Y-90500000D03*
G04 #@! TO.N,GND*
X162500000Y-90500000D03*
G04 #@! TO.N,/Door*
X160000000Y-90500000D03*
D16*
G04 #@! TO.N,GND*
X157500000Y-90500000D03*
G04 #@! TD*
D17*
G04 #@! TO.N,/Pusher*
G04 #@! TO.C,Q1*
X148040000Y-86500000D03*
D18*
G04 #@! TO.N,/Pusher_Power*
X145500000Y-86500000D03*
G04 #@! TO.N,GND*
X142960000Y-86500000D03*
G04 #@! TD*
G04 #@! TO.N,GND*
G04 #@! TO.C,Q2*
X120000000Y-82500000D03*
G04 #@! TO.N,/Flywheel_Power*
X122540000Y-82500000D03*
D17*
G04 #@! TO.N,/Flywheel*
X125080000Y-82500000D03*
G04 #@! TD*
D18*
G04 #@! TO.N,+5V*
G04 #@! TO.C,U1*
X137500000Y-81460000D03*
G04 #@! TO.N,GND*
X137500000Y-84000000D03*
D17*
G04 #@! TO.N,+BATT*
X137500000Y-86540000D03*
G04 #@! TD*
D19*
G04 #@! TO.N,/Fire_Select*
G04 #@! TO.C,SW1*
X164500000Y-76500000D03*
G04 #@! TO.N,Net-(R12-Pad2)*
X158000000Y-76500000D03*
G04 #@! TO.N,GND*
X164500000Y-72000000D03*
D20*
X158000000Y-72000000D03*
G04 #@! TD*
G04 #@! TO.N,GND*
G04 #@! TO.C,SW2*
X167500000Y-72000000D03*
D19*
X174000000Y-72000000D03*
G04 #@! TO.N,Net-(R13-Pad2)*
X167500000Y-76500000D03*
G04 #@! TO.N,/Safety_Select*
X174000000Y-76500000D03*
G04 #@! TD*
D21*
G04 #@! TO.N,GND*
G04 #@! TO.C,J6*
X128960000Y-74540000D03*
G04 #@! TO.N,/Reset*
X128960000Y-72000000D03*
G04 #@! TO.N,/Flywheel*
X131500000Y-74540000D03*
G04 #@! TO.N,Net-(J6-Pad3)*
X131500000Y-72000000D03*
G04 #@! TO.N,+5V*
X134040000Y-74540000D03*
D22*
G04 #@! TO.N,/LED4*
X134040000Y-72000000D03*
G04 #@! TD*
D12*
G04 #@! TO.N,GND*
G04 #@! TO.C,H2*
X207500000Y-75000000D03*
G04 #@! TD*
G04 #@! TO.N,GND*
G04 #@! TO.C,H3*
X120000000Y-90000000D03*
G04 #@! TD*
G04 #@! TO.N,GND*
G04 #@! TO.C,H4*
X207500000Y-90000000D03*
G04 #@! TD*
D21*
G04 #@! TO.N,/SDA*
G04 #@! TO.C,J8*
X201120000Y-93000000D03*
G04 #@! TO.N,/SCL*
X198580000Y-93000000D03*
G04 #@! TO.N,GND*
X196040000Y-93000000D03*
D22*
G04 #@! TO.N,+5V*
X193500000Y-93000000D03*
G04 #@! TD*
D23*
G04 #@! TO.N,GND*
X192500000Y-85500000D03*
X196000000Y-86000000D03*
X183000000Y-88500000D03*
X186000000Y-88000000D03*
X166500000Y-84000000D03*
X166000000Y-87500000D03*
X141000000Y-86000000D03*
X145000000Y-83000000D03*
X136000000Y-77500000D03*
X132500000Y-77500000D03*
X131500000Y-89000000D03*
X127500000Y-87000000D03*
X139500000Y-89500000D03*
X144000000Y-88500000D03*
X149000000Y-88500000D03*
X130000000Y-84000000D03*
X197000000Y-80500000D03*
X200500000Y-78000000D03*
X195000000Y-79000000D03*
X192000000Y-81000000D03*
X189500000Y-88500000D03*
X188000000Y-86500000D03*
X201500000Y-85500000D03*
X195500000Y-85000000D03*
G04 #@! TO.N,/Pusher_Reset*
X172500000Y-77000000D03*
X150250000Y-76000000D03*
X184560418Y-87650152D03*
G04 #@! TO.N,/Flywheel_Button*
X179500000Y-87750000D03*
X171750000Y-76119982D03*
X150750000Y-75511490D03*
G04 #@! TO.N,/Trigger*
X174500000Y-87750000D03*
X170750000Y-75631472D03*
X151500000Y-75184479D03*
G04 #@! TO.N,/Magazine*
X164500000Y-87750000D03*
X162500000Y-77250000D03*
X148250000Y-77500000D03*
X164500000Y-86221010D03*
G04 #@! TO.N,/Door*
X160000000Y-87750000D03*
X148250000Y-76750000D03*
X160069936Y-85569936D03*
X160069936Y-76569936D03*
G04 #@! TO.N,/Reset*
X188500000Y-91750000D03*
X155000000Y-73500000D03*
X188500000Y-73500000D03*
X155000000Y-70988510D03*
G04 #@! TO.N,/Flywheel*
X148153501Y-75653501D03*
X148250000Y-80750000D03*
G04 #@! TO.N,Net-(J6-Pad3)*
X149750000Y-80750000D03*
X150329021Y-72525000D03*
G04 #@! TO.N,/Pusher*
X147500000Y-81750000D03*
X140750000Y-82500000D03*
G04 #@! TO.N,/LED1*
X180750000Y-72500000D03*
X148000000Y-79250000D03*
X181066919Y-79988510D03*
G04 #@! TO.N,Net-(D1-Pad1)*
X182000000Y-80000000D03*
X182000000Y-75750000D03*
G04 #@! TO.N,Net-(D2-Pad1)*
X179500000Y-75750000D03*
X179500000Y-80315521D03*
G04 #@! TO.N,/LED2*
X178250000Y-72500000D03*
X148000000Y-80000000D03*
X178476049Y-80315521D03*
G04 #@! TO.N,/LED3*
X175750000Y-72500000D03*
X175750000Y-78250000D03*
X148000000Y-78250000D03*
G04 #@! TO.N,Net-(D3-Pad1)*
X177000000Y-75750000D03*
X176959308Y-80642532D03*
G04 #@! TO.N,Net-(R12-Pad2)*
X156500000Y-84500000D03*
G04 #@! TO.N,Net-(R13-Pad2)*
X166500000Y-86500000D03*
G04 #@! TO.N,/Fire_Select*
X164500000Y-81000000D03*
X153000000Y-81000000D03*
G04 #@! TO.N,/Safety_Select*
X174000000Y-81500000D03*
X155000000Y-82250000D03*
G04 #@! TO.N,Net-(C8-Pad1)*
X196750000Y-81250000D03*
X203750000Y-81488510D03*
G04 #@! TO.N,/LED4*
X149000000Y-80750000D03*
X183250000Y-70500000D03*
X149500000Y-70500000D03*
X149679010Y-72524995D03*
G04 #@! TO.N,Net-(D4-Pad1)*
X184500000Y-80000000D03*
X184500000Y-75750000D03*
G04 #@! TO.N,/SDA*
X157250000Y-79560055D03*
X204500000Y-81000000D03*
G04 #@! TO.N,/SCL*
X199000000Y-80500000D03*
X156575643Y-78561409D03*
G04 #@! TO.N,/RX*
X153005881Y-78763528D03*
X186596845Y-79011490D03*
G04 #@! TO.N,/TX*
X186000000Y-77000000D03*
X152250000Y-77988510D03*
G04 #@! TO.N,Net-(R15-Pad2)*
X192000000Y-88250000D03*
X191500000Y-77000000D03*
G04 #@! TD*
D24*
G04 #@! TO.N,/Pusher_Reset*
X158871951Y-74909488D02*
X156628049Y-74909488D01*
X150568198Y-76000000D02*
X150250000Y-76000000D01*
X172500000Y-77000000D02*
X169869982Y-77000000D01*
X169869982Y-77000000D02*
X168106481Y-75236499D01*
X168106481Y-75236499D02*
X162013501Y-75236499D01*
X162013501Y-75236499D02*
X161356481Y-75893519D01*
X161356481Y-75893519D02*
X159855981Y-75893519D01*
X155537537Y-76000000D02*
X150568198Y-76000000D01*
X159855981Y-75893519D02*
X158871951Y-74909488D01*
X156628049Y-74909488D02*
X155537537Y-76000000D01*
G04 #@! TO.N,/Flywheel_Button*
X161551039Y-75236499D02*
X159661423Y-75236499D01*
X171750000Y-76119982D02*
X169452427Y-76119982D01*
X151068198Y-75511490D02*
X150750000Y-75511490D01*
X159661423Y-75236499D02*
X159007403Y-74582477D01*
X151229697Y-75672989D02*
X151068198Y-75511490D01*
X168241933Y-74909488D02*
X161878049Y-74909488D01*
X161878049Y-74909488D02*
X161551039Y-75236499D01*
X159007403Y-74582477D02*
X156492596Y-74582478D01*
X156492596Y-74582478D02*
X156165587Y-74909488D01*
X156165587Y-74909488D02*
X153090512Y-74909488D01*
X153090512Y-74909488D02*
X152327011Y-75672989D01*
X169452427Y-76119982D02*
X168241933Y-74909488D01*
X152327011Y-75672989D02*
X151229697Y-75672989D01*
G04 #@! TO.N,/Trigger*
X152588500Y-74095979D02*
X151724999Y-74959480D01*
X157593644Y-74018967D02*
X157516632Y-74095979D01*
X170750000Y-75631472D02*
X169137496Y-74018968D01*
X169137496Y-74018968D02*
X157593644Y-74018967D01*
X151724999Y-74959480D02*
X151500000Y-75184479D01*
X157516632Y-74095979D02*
X152588500Y-74095979D01*
G04 #@! TO.N,/Magazine*
X156887495Y-77257477D02*
X148492523Y-77257477D01*
X162500000Y-77250000D02*
X159119982Y-77250000D01*
X157393519Y-77763501D02*
X156887495Y-77257477D01*
X148474999Y-77275001D02*
X148250000Y-77500000D01*
X158606481Y-77763501D02*
X157393519Y-77763501D01*
X159119982Y-77250000D02*
X158606481Y-77763501D01*
X148492523Y-77257477D02*
X148474999Y-77275001D01*
G04 #@! TO.N,/Door*
X160069936Y-76569936D02*
X158736499Y-75236499D01*
X158736499Y-75236499D02*
X156763501Y-75236499D01*
X155250000Y-76750000D02*
X148250000Y-76750000D01*
X156763501Y-75236499D02*
X155250000Y-76750000D01*
D25*
G04 #@! TO.N,/Pusher_Power*
X145500000Y-87772792D02*
X145500000Y-86500000D01*
X147487198Y-89759990D02*
X145500000Y-87772792D01*
X149259990Y-89759990D02*
X147487198Y-89759990D01*
X152000000Y-92500000D02*
X149259990Y-89759990D01*
G04 #@! TO.N,/Flywheel_Power*
X122540000Y-84290000D02*
X130750000Y-92500000D01*
X122540000Y-82500000D02*
X122540000Y-84290000D01*
D24*
G04 #@! TO.N,/Reset*
X188500000Y-73500000D02*
X155000000Y-73500000D01*
X130210000Y-70750000D02*
X149027016Y-70750000D01*
X149027016Y-70750000D02*
X149265526Y-70988510D01*
X128960000Y-72000000D02*
X130210000Y-70750000D01*
X154681802Y-70988510D02*
X155000000Y-70988510D01*
X149265526Y-70988510D02*
X154681802Y-70988510D01*
G04 #@! TO.N,/Flywheel*
X125080000Y-80960000D02*
X131500000Y-74540000D01*
X125080000Y-82500000D02*
X125080000Y-80960000D01*
X132613501Y-75653501D02*
X148153501Y-75653501D01*
X131500000Y-74540000D02*
X132613501Y-75653501D01*
G04 #@! TO.N,Net-(J6-Pad3)*
X132840521Y-73340521D02*
X149831698Y-73340521D01*
X131500000Y-72000000D02*
X132840521Y-73340521D01*
X149831698Y-73340521D02*
X150329021Y-72843198D01*
X150329021Y-72843198D02*
X150329021Y-72525000D01*
G04 #@! TO.N,/Pusher*
X147500000Y-81750000D02*
X141500000Y-81750000D01*
X141500000Y-81750000D02*
X140750000Y-82500000D01*
G04 #@! TO.N,/LED1*
X176385452Y-79827011D02*
X180587222Y-79827011D01*
X176163907Y-80048556D02*
X176385452Y-79827011D01*
X156449994Y-79721545D02*
X156777005Y-80048556D01*
X180748721Y-79988510D02*
X181066919Y-79988510D01*
X156777005Y-80048556D02*
X176163907Y-80048556D01*
X148000000Y-79250000D02*
X148471545Y-79721545D01*
X148471545Y-79721545D02*
X156449994Y-79721545D01*
X180587222Y-79827011D02*
X180748721Y-79988510D01*
G04 #@! TO.N,/LED2*
X156490985Y-80224999D02*
X156641553Y-80375567D01*
X148224999Y-80224999D02*
X156490985Y-80224999D01*
X178157851Y-80315521D02*
X178476049Y-80315521D01*
X176299359Y-80375567D02*
X176520904Y-80154022D01*
X176520904Y-80154022D02*
X177996352Y-80154022D01*
X177996352Y-80154022D02*
X178157851Y-80315521D01*
X148000000Y-80000000D02*
X148224999Y-80224999D01*
X156641553Y-80375567D02*
X176299359Y-80375567D01*
G04 #@! TO.N,/LED3*
X152484482Y-78477012D02*
X148227012Y-78477012D01*
X148224999Y-78474999D02*
X148000000Y-78250000D01*
X148227012Y-78477012D02*
X148224999Y-78474999D01*
X175750000Y-78250000D02*
X175431802Y-78250000D01*
X153049995Y-77911499D02*
X152484482Y-78477012D01*
X175431802Y-78250000D02*
X175264279Y-78417523D01*
X175264279Y-78417523D02*
X157122615Y-78417523D01*
X156616591Y-77911499D02*
X153049995Y-77911499D01*
X157122615Y-78417523D02*
X156616591Y-77911499D01*
G04 #@! TO.N,/Fire_Select*
X164500000Y-81000000D02*
X153000000Y-81000000D01*
G04 #@! TO.N,/Safety_Select*
X155750000Y-81500000D02*
X155000000Y-82250000D01*
X174000000Y-81500000D02*
X155750000Y-81500000D01*
G04 #@! TO.N,Net-(C8-Pad1)*
X196750000Y-81250000D02*
X196988510Y-81488510D01*
X196988510Y-81488510D02*
X203431802Y-81488510D01*
X203431802Y-81488510D02*
X203750000Y-81488510D01*
G04 #@! TO.N,/LED4*
X183250000Y-70500000D02*
X149500000Y-70500000D01*
X134040000Y-72000000D02*
X149154015Y-72000000D01*
X149154015Y-72000000D02*
X149454011Y-72299996D01*
X149454011Y-72299996D02*
X149679010Y-72524995D01*
G04 #@! TO.N,/SDA*
X157568198Y-79560055D02*
X157628253Y-79500000D01*
X157250000Y-79560055D02*
X157568198Y-79560055D01*
X157628253Y-79500000D02*
X180000000Y-79500000D01*
X180000000Y-79500000D02*
X197000000Y-79500000D01*
X197000000Y-79500000D02*
X198500000Y-81000000D01*
X198500000Y-81000000D02*
X204500000Y-81000000D01*
G04 #@! TO.N,/SCL*
X199000000Y-80500000D02*
X196845979Y-78345979D01*
X196845979Y-78345979D02*
X180229096Y-78345979D01*
X179830541Y-78744534D02*
X156758768Y-78744534D01*
X156758768Y-78744534D02*
X156575643Y-78561409D01*
X180229096Y-78345979D02*
X179830541Y-78744534D01*
G04 #@! TO.N,/RX*
X153313898Y-79071545D02*
X186218592Y-79071545D01*
X153005881Y-78763528D02*
X153313898Y-79071545D01*
X186218592Y-79071545D02*
X186278647Y-79011490D01*
X186278647Y-79011490D02*
X186596845Y-79011490D01*
G04 #@! TO.N,/TX*
X152654022Y-77584488D02*
X152474999Y-77763511D01*
X175431039Y-77845979D02*
X158986466Y-77845979D01*
X158986466Y-77845979D02*
X158741933Y-78090512D01*
X176277018Y-77000000D02*
X175431039Y-77845979D01*
X156752043Y-77584488D02*
X152654022Y-77584488D01*
X152474999Y-77763511D02*
X152250000Y-77988510D01*
X158741933Y-78090512D02*
X157258067Y-78090512D01*
X186000000Y-77000000D02*
X176277018Y-77000000D01*
X157258067Y-78090512D02*
X156752043Y-77584488D01*
G04 #@! TD*
M02*
