G04 #@! TF.GenerationSoftware,KiCad,Pcbnew,(5.0.1-3-g963ef8bb5)*
G04 #@! TF.CreationDate,2020-07-12T22:57:35-05:00*
G04 #@! TF.ProjectId,SmartNerfBlaster,536D6172744E657266426C6173746572,v1*
G04 #@! TF.SameCoordinates,Original*
G04 #@! TF.FileFunction,Other,Fab,Top*
%FSLAX46Y46*%
G04 Gerber Fmt 4.6, Leading zero omitted, Abs format (unit mm)*
G04 Created by KiCad (PCBNEW (5.0.1-3-g963ef8bb5)) date Sunday, July 12, 2020 at 10:57:35 PM*
%MOMM*%
%LPD*%
G01*
G04 APERTURE LIST*
%ADD10C,0.100000*%
%ADD11C,0.150000*%
%ADD12C,0.075000*%
%ADD13C,0.105000*%
G04 APERTURE END LIST*
D10*
G04 #@! TO.C,C1*
X128400000Y-86350000D02*
X128400000Y-87650000D01*
X127800000Y-87000000D02*
X129000000Y-87000000D01*
X133750000Y-87000000D02*
G75*
G03X133750000Y-87000000I-2500000J0D01*
G01*
G04 #@! TO.C,C2*
X133750000Y-81000000D02*
G75*
G03X133750000Y-81000000I-2500000J0D01*
G01*
X134700000Y-81000000D02*
X133500000Y-81000000D01*
X134100000Y-81650000D02*
X134100000Y-80350000D01*
G04 #@! TO.C,J2*
X169150000Y-87750000D02*
X169150000Y-90250000D01*
X171650000Y-87750000D02*
X169150000Y-87750000D01*
X186950000Y-88150000D02*
X169550000Y-88150000D01*
X186950000Y-93900000D02*
X186950000Y-88150000D01*
X169550000Y-93900000D02*
X186950000Y-93900000D01*
X169550000Y-88150000D02*
X169550000Y-93900000D01*
G04 #@! TO.C,J3*
X154650000Y-87750000D02*
X154650000Y-90250000D01*
X157150000Y-87750000D02*
X154650000Y-87750000D01*
X167450000Y-88150000D02*
X155050000Y-88150000D01*
X167450000Y-93900000D02*
X167450000Y-88150000D01*
X155050000Y-93900000D02*
X167450000Y-93900000D01*
X155050000Y-88150000D02*
X155050000Y-93900000D01*
G04 #@! TO.C,Q1*
X150500000Y-89000000D02*
X150500000Y-84600000D01*
X150500000Y-84600000D02*
X140500000Y-84600000D01*
X140500000Y-84600000D02*
X140500000Y-89000000D01*
X140500000Y-89000000D02*
X150500000Y-89000000D01*
X150500000Y-87730000D02*
X140500000Y-87730000D01*
X147350000Y-89000000D02*
X147350000Y-87730000D01*
X143650000Y-89000000D02*
X143650000Y-87730000D01*
G04 #@! TO.C,Q2*
X120690000Y-85000000D02*
X120690000Y-83730000D01*
X124390000Y-85000000D02*
X124390000Y-83730000D01*
X127540000Y-83730000D02*
X117540000Y-83730000D01*
X117540000Y-85000000D02*
X127540000Y-85000000D01*
X117540000Y-80600000D02*
X117540000Y-85000000D01*
X127540000Y-80600000D02*
X117540000Y-80600000D01*
X127540000Y-85000000D02*
X127540000Y-80600000D01*
G04 #@! TO.C,U1*
X135000000Y-82150000D02*
X136270000Y-82150000D01*
X135000000Y-85850000D02*
X136270000Y-85850000D01*
X136270000Y-89000000D02*
X136270000Y-79000000D01*
X135000000Y-79000000D02*
X135000000Y-89000000D01*
X139400000Y-79000000D02*
X135000000Y-79000000D01*
X139400000Y-89000000D02*
X139400000Y-79000000D01*
X135000000Y-89000000D02*
X139400000Y-89000000D01*
G04 #@! TO.C,C3*
X152400000Y-84350000D02*
X154000000Y-84350000D01*
X154000000Y-84350000D02*
X154000000Y-85150000D01*
X154000000Y-85150000D02*
X152400000Y-85150000D01*
X152400000Y-85150000D02*
X152400000Y-84350000D01*
G04 #@! TO.C,C4*
X149750000Y-71100000D02*
X149750000Y-71900000D01*
X148150000Y-71100000D02*
X149750000Y-71100000D01*
X148150000Y-71900000D02*
X148150000Y-71100000D01*
X149750000Y-71900000D02*
X148150000Y-71900000D01*
G04 #@! TO.C,C5*
X143500000Y-71380000D02*
X143500000Y-72620000D01*
X141500000Y-71380000D02*
X143500000Y-71380000D01*
X141500000Y-72620000D02*
X141500000Y-71380000D01*
X143500000Y-72620000D02*
X141500000Y-72620000D01*
G04 #@! TO.C,C6*
X141500000Y-79380000D02*
X143500000Y-79380000D01*
X143500000Y-79380000D02*
X143500000Y-80620000D01*
X143500000Y-80620000D02*
X141500000Y-80620000D01*
X141500000Y-80620000D02*
X141500000Y-79380000D01*
G04 #@! TO.C,D1*
X181380000Y-73850000D02*
X181380000Y-71850000D01*
X181380000Y-71850000D02*
X182620000Y-71850000D01*
X182620000Y-71850000D02*
X182620000Y-73850000D01*
X182620000Y-73850000D02*
X181380000Y-73850000D01*
X181600000Y-72650000D02*
X182400000Y-72650000D01*
X182400000Y-72650000D02*
X182000000Y-73250000D01*
X182000000Y-73250000D02*
X181600000Y-72650000D01*
X181600000Y-73250000D02*
X182400000Y-73250000D01*
G04 #@! TO.C,D2*
X179100000Y-73250000D02*
X179900000Y-73250000D01*
X179500000Y-73250000D02*
X179100000Y-72650000D01*
X179900000Y-72650000D02*
X179500000Y-73250000D01*
X179100000Y-72650000D02*
X179900000Y-72650000D01*
X180120000Y-73850000D02*
X178880000Y-73850000D01*
X180120000Y-71850000D02*
X180120000Y-73850000D01*
X178880000Y-71850000D02*
X180120000Y-71850000D01*
X178880000Y-73850000D02*
X178880000Y-71850000D01*
G04 #@! TO.C,D3*
X176380000Y-73850000D02*
X176380000Y-71850000D01*
X176380000Y-71850000D02*
X177620000Y-71850000D01*
X177620000Y-71850000D02*
X177620000Y-73850000D01*
X177620000Y-73850000D02*
X176380000Y-73850000D01*
X176600000Y-72650000D02*
X177400000Y-72650000D01*
X177400000Y-72650000D02*
X177000000Y-73250000D01*
X177000000Y-73250000D02*
X176600000Y-72650000D01*
X176600000Y-73250000D02*
X177400000Y-73250000D01*
G04 #@! TO.C,R1*
X140950000Y-83100000D02*
X142550000Y-83100000D01*
X142550000Y-83100000D02*
X142550000Y-83900000D01*
X142550000Y-83900000D02*
X140950000Y-83900000D01*
X140950000Y-83900000D02*
X140950000Y-83100000D01*
G04 #@! TO.C,R2*
X124700000Y-79100000D02*
X124700000Y-79900000D01*
X123100000Y-79100000D02*
X124700000Y-79100000D01*
X123100000Y-79900000D02*
X123100000Y-79100000D01*
X124700000Y-79900000D02*
X123100000Y-79900000D01*
G04 #@! TO.C,R3*
X152100000Y-71100000D02*
X153700000Y-71100000D01*
X153700000Y-71100000D02*
X153700000Y-71900000D01*
X153700000Y-71900000D02*
X152100000Y-71900000D01*
X152100000Y-71900000D02*
X152100000Y-71100000D01*
G04 #@! TO.C,R4*
X172600000Y-86900000D02*
X172600000Y-86100000D01*
X174200000Y-86900000D02*
X172600000Y-86900000D01*
X174200000Y-86100000D02*
X174200000Y-86900000D01*
X172600000Y-86100000D02*
X174200000Y-86100000D01*
G04 #@! TO.C,R5*
X177600000Y-86100000D02*
X179200000Y-86100000D01*
X179200000Y-86100000D02*
X179200000Y-86900000D01*
X179200000Y-86900000D02*
X177600000Y-86900000D01*
X177600000Y-86900000D02*
X177600000Y-86100000D01*
G04 #@! TO.C,R6*
X182600000Y-86900000D02*
X182600000Y-86100000D01*
X184200000Y-86900000D02*
X182600000Y-86900000D01*
X184200000Y-86100000D02*
X184200000Y-86900000D01*
X182600000Y-86100000D02*
X184200000Y-86100000D01*
G04 #@! TO.C,R7*
X158100000Y-86100000D02*
X159700000Y-86100000D01*
X159700000Y-86100000D02*
X159700000Y-86900000D01*
X159700000Y-86900000D02*
X158100000Y-86900000D01*
X158100000Y-86900000D02*
X158100000Y-86100000D01*
G04 #@! TO.C,R8*
X162600000Y-86900000D02*
X162600000Y-86100000D01*
X164200000Y-86900000D02*
X162600000Y-86900000D01*
X164200000Y-86100000D02*
X164200000Y-86900000D01*
X162600000Y-86100000D02*
X164200000Y-86100000D01*
G04 #@! TO.C,R9*
X182400000Y-81800000D02*
X182400000Y-83400000D01*
X182400000Y-83400000D02*
X181600000Y-83400000D01*
X181600000Y-83400000D02*
X181600000Y-81800000D01*
X181600000Y-81800000D02*
X182400000Y-81800000D01*
G04 #@! TO.C,R10*
X179100000Y-81800000D02*
X179900000Y-81800000D01*
X179100000Y-83400000D02*
X179100000Y-81800000D01*
X179900000Y-83400000D02*
X179100000Y-83400000D01*
X179900000Y-81800000D02*
X179900000Y-83400000D01*
G04 #@! TO.C,R11*
X177400000Y-81800000D02*
X177400000Y-83400000D01*
X177400000Y-83400000D02*
X176600000Y-83400000D01*
X176600000Y-83400000D02*
X176600000Y-81800000D01*
X176600000Y-81800000D02*
X177400000Y-81800000D01*
G04 #@! TO.C,R12*
X159700000Y-84100000D02*
X159700000Y-84900000D01*
X158100000Y-84100000D02*
X159700000Y-84100000D01*
X158100000Y-84900000D02*
X158100000Y-84100000D01*
X159700000Y-84900000D02*
X158100000Y-84900000D01*
G04 #@! TO.C,R13*
X169900000Y-86900000D02*
X168300000Y-86900000D01*
X168300000Y-86900000D02*
X168300000Y-86100000D01*
X168300000Y-86100000D02*
X169900000Y-86100000D01*
X169900000Y-86100000D02*
X169900000Y-86900000D01*
D11*
G04 #@! TO.C,U2*
X153500000Y-74500000D02*
X154500000Y-75500000D01*
X147500000Y-74500000D02*
X153500000Y-74500000D01*
X147500000Y-81500000D02*
X147500000Y-74500000D01*
X154500000Y-81500000D02*
X147500000Y-81500000D01*
X154500000Y-75500000D02*
X154500000Y-81500000D01*
D10*
G04 #@! TO.C,J6*
X134040000Y-70730000D02*
X135310000Y-72000000D01*
X127690000Y-70730000D02*
X134040000Y-70730000D01*
X127690000Y-75810000D02*
X127690000Y-70730000D01*
X135310000Y-75810000D02*
X127690000Y-75810000D01*
X135310000Y-72000000D02*
X135310000Y-75810000D01*
G04 #@! TO.C,C7*
X200870000Y-81500000D02*
X200870000Y-83500000D01*
X200870000Y-83500000D02*
X199630000Y-83500000D01*
X199630000Y-83500000D02*
X199630000Y-81500000D01*
X199630000Y-81500000D02*
X200870000Y-81500000D01*
G04 #@! TO.C,C8*
X195250000Y-81150000D02*
X193650000Y-81150000D01*
X193650000Y-81150000D02*
X193650000Y-80350000D01*
X193650000Y-80350000D02*
X195250000Y-80350000D01*
X195250000Y-80350000D02*
X195250000Y-81150000D01*
G04 #@! TO.C,C9*
X188700000Y-93400000D02*
X188700000Y-92600000D01*
X190300000Y-93400000D02*
X188700000Y-93400000D01*
X190300000Y-92600000D02*
X190300000Y-93400000D01*
X188700000Y-92600000D02*
X190300000Y-92600000D01*
G04 #@! TO.C,D4*
X183880000Y-73850000D02*
X183880000Y-71850000D01*
X183880000Y-71850000D02*
X185120000Y-71850000D01*
X185120000Y-71850000D02*
X185120000Y-73850000D01*
X185120000Y-73850000D02*
X183880000Y-73850000D01*
X184100000Y-72650000D02*
X184900000Y-72650000D01*
X184900000Y-72650000D02*
X184500000Y-73250000D01*
X184500000Y-73250000D02*
X184100000Y-72650000D01*
X184100000Y-73250000D02*
X184900000Y-73250000D01*
G04 #@! TO.C,FB1*
X202870000Y-81500000D02*
X202870000Y-83500000D01*
X202870000Y-83500000D02*
X201630000Y-83500000D01*
X201630000Y-83500000D02*
X201630000Y-81500000D01*
X201630000Y-81500000D02*
X202870000Y-81500000D01*
G04 #@! TO.C,R14*
X187800000Y-78350000D02*
X189400000Y-78350000D01*
X189400000Y-78350000D02*
X189400000Y-79150000D01*
X189400000Y-79150000D02*
X187800000Y-79150000D01*
X187800000Y-79150000D02*
X187800000Y-78350000D01*
G04 #@! TO.C,R15*
X187800000Y-77400000D02*
X187800000Y-76600000D01*
X189400000Y-77400000D02*
X187800000Y-77400000D01*
X189400000Y-76600000D02*
X189400000Y-77400000D01*
X187800000Y-76600000D02*
X189400000Y-76600000D01*
G04 #@! TO.C,R16*
X184900000Y-81800000D02*
X184900000Y-83400000D01*
X184900000Y-83400000D02*
X184100000Y-83400000D01*
X184100000Y-83400000D02*
X184100000Y-81800000D01*
X184100000Y-81800000D02*
X184900000Y-81800000D01*
G04 #@! TO.C,Y1*
X142900000Y-77550000D02*
X143900000Y-76550000D01*
X141400000Y-74350000D02*
X141400000Y-77550000D01*
X143900000Y-74350000D02*
X141400000Y-74350000D01*
X143900000Y-77550000D02*
X143900000Y-74350000D01*
X141400000Y-77550000D02*
X143900000Y-77550000D01*
D11*
G04 #@! TO.C,U3*
X189400000Y-89050000D02*
X188400000Y-88050000D01*
X198600000Y-89050000D02*
X189400000Y-89050000D01*
X198600000Y-83750000D02*
X198600000Y-89050000D01*
X188400000Y-83750000D02*
X198600000Y-83750000D01*
X188400000Y-88050000D02*
X188400000Y-83750000D01*
D10*
G04 #@! TO.C,J8*
X192865000Y-94270000D02*
X192230000Y-93635000D01*
X202390000Y-94270000D02*
X192865000Y-94270000D01*
X202390000Y-91730000D02*
X202390000Y-94270000D01*
X192230000Y-91730000D02*
X202390000Y-91730000D01*
X192230000Y-93635000D02*
X192230000Y-91730000D01*
G04 #@! TD*
G04 #@! TO.C,J4*
D11*
X139261904Y-92404761D02*
X139404761Y-92452380D01*
X139642857Y-92452380D01*
X139738095Y-92404761D01*
X139785714Y-92357142D01*
X139833333Y-92261904D01*
X139833333Y-92166666D01*
X139785714Y-92071428D01*
X139738095Y-92023809D01*
X139642857Y-91976190D01*
X139452380Y-91928571D01*
X139357142Y-91880952D01*
X139309523Y-91833333D01*
X139261904Y-91738095D01*
X139261904Y-91642857D01*
X139309523Y-91547619D01*
X139357142Y-91500000D01*
X139452380Y-91452380D01*
X139690476Y-91452380D01*
X139833333Y-91500000D01*
X140690476Y-92404761D02*
X140595238Y-92452380D01*
X140404761Y-92452380D01*
X140309523Y-92404761D01*
X140261904Y-92357142D01*
X140214285Y-92261904D01*
X140214285Y-91976190D01*
X140261904Y-91880952D01*
X140309523Y-91833333D01*
X140404761Y-91785714D01*
X140595238Y-91785714D01*
X140690476Y-91833333D01*
X141119047Y-92452380D02*
X141119047Y-91785714D01*
X141119047Y-91976190D02*
X141166666Y-91880952D01*
X141214285Y-91833333D01*
X141309523Y-91785714D01*
X141404761Y-91785714D01*
X142119047Y-92404761D02*
X142023809Y-92452380D01*
X141833333Y-92452380D01*
X141738095Y-92404761D01*
X141690476Y-92309523D01*
X141690476Y-91928571D01*
X141738095Y-91833333D01*
X141833333Y-91785714D01*
X142023809Y-91785714D01*
X142119047Y-91833333D01*
X142166666Y-91928571D01*
X142166666Y-92023809D01*
X141690476Y-92119047D01*
X142500000Y-91785714D02*
X142690476Y-92452380D01*
X142880952Y-91976190D01*
X143071428Y-92452380D01*
X143261904Y-91785714D01*
X143404761Y-92547619D02*
X144166666Y-92547619D01*
X144261904Y-91452380D02*
X144833333Y-91452380D01*
X144547619Y-92452380D02*
X144547619Y-91452380D01*
X145547619Y-92404761D02*
X145452380Y-92452380D01*
X145261904Y-92452380D01*
X145166666Y-92404761D01*
X145119047Y-92309523D01*
X145119047Y-91928571D01*
X145166666Y-91833333D01*
X145261904Y-91785714D01*
X145452380Y-91785714D01*
X145547619Y-91833333D01*
X145595238Y-91928571D01*
X145595238Y-92023809D01*
X145119047Y-92119047D01*
X146023809Y-92452380D02*
X146023809Y-91785714D01*
X146023809Y-91976190D02*
X146071428Y-91880952D01*
X146119047Y-91833333D01*
X146214285Y-91785714D01*
X146309523Y-91785714D01*
X146642857Y-92452380D02*
X146642857Y-91785714D01*
X146642857Y-91880952D02*
X146690476Y-91833333D01*
X146785714Y-91785714D01*
X146928571Y-91785714D01*
X147023809Y-91833333D01*
X147071428Y-91928571D01*
X147071428Y-92452380D01*
X147071428Y-91928571D02*
X147119047Y-91833333D01*
X147214285Y-91785714D01*
X147357142Y-91785714D01*
X147452380Y-91833333D01*
X147500000Y-91928571D01*
X147500000Y-92452380D01*
X147976190Y-92452380D02*
X147976190Y-91785714D01*
X147976190Y-91452380D02*
X147928571Y-91500000D01*
X147976190Y-91547619D01*
X148023809Y-91500000D01*
X147976190Y-91452380D01*
X147976190Y-91547619D01*
X148452380Y-91785714D02*
X148452380Y-92452380D01*
X148452380Y-91880952D02*
X148500000Y-91833333D01*
X148595238Y-91785714D01*
X148738095Y-91785714D01*
X148833333Y-91833333D01*
X148880952Y-91928571D01*
X148880952Y-92452380D01*
X149785714Y-92452380D02*
X149785714Y-91928571D01*
X149738095Y-91833333D01*
X149642857Y-91785714D01*
X149452380Y-91785714D01*
X149357142Y-91833333D01*
X149785714Y-92404761D02*
X149690476Y-92452380D01*
X149452380Y-92452380D01*
X149357142Y-92404761D01*
X149309523Y-92309523D01*
X149309523Y-92214285D01*
X149357142Y-92119047D01*
X149452380Y-92071428D01*
X149690476Y-92071428D01*
X149785714Y-92023809D01*
X150404761Y-92452380D02*
X150309523Y-92404761D01*
X150261904Y-92309523D01*
X150261904Y-91452380D01*
X150547619Y-92547619D02*
X151309523Y-92547619D01*
X151738095Y-91452380D02*
X151833333Y-91452380D01*
X151928571Y-91500000D01*
X151976190Y-91547619D01*
X152023809Y-91642857D01*
X152071428Y-91833333D01*
X152071428Y-92071428D01*
X152023809Y-92261904D01*
X151976190Y-92357142D01*
X151928571Y-92404761D01*
X151833333Y-92452380D01*
X151738095Y-92452380D01*
X151642857Y-92404761D01*
X151595238Y-92357142D01*
X151547619Y-92261904D01*
X151500000Y-92071428D01*
X151500000Y-91833333D01*
X151547619Y-91642857D01*
X151595238Y-91547619D01*
X151642857Y-91500000D01*
X151738095Y-91452380D01*
X153023809Y-92452380D02*
X152452380Y-92452380D01*
X152738095Y-92452380D02*
X152738095Y-91452380D01*
X152642857Y-91595238D01*
X152547619Y-91690476D01*
X152452380Y-91738095D01*
X153357142Y-92452380D02*
X153880952Y-91785714D01*
X153357142Y-91785714D02*
X153880952Y-92452380D01*
X154452380Y-91452380D02*
X154547619Y-91452380D01*
X154642857Y-91500000D01*
X154690476Y-91547619D01*
X154738095Y-91642857D01*
X154785714Y-91833333D01*
X154785714Y-92071428D01*
X154738095Y-92261904D01*
X154690476Y-92357142D01*
X154642857Y-92404761D01*
X154547619Y-92452380D01*
X154452380Y-92452380D01*
X154357142Y-92404761D01*
X154309523Y-92357142D01*
X154261904Y-92261904D01*
X154214285Y-92071428D01*
X154214285Y-91833333D01*
X154261904Y-91642857D01*
X154309523Y-91547619D01*
X154357142Y-91500000D01*
X154452380Y-91452380D01*
X155166666Y-91547619D02*
X155214285Y-91500000D01*
X155309523Y-91452380D01*
X155547619Y-91452380D01*
X155642857Y-91500000D01*
X155690476Y-91547619D01*
X155738095Y-91642857D01*
X155738095Y-91738095D01*
X155690476Y-91880952D01*
X155119047Y-92452380D01*
X155738095Y-92452380D01*
G04 #@! TO.C,J1*
X131166666Y-92357142D02*
X131119047Y-92404761D01*
X130976190Y-92452380D01*
X130880952Y-92452380D01*
X130738095Y-92404761D01*
X130642857Y-92309523D01*
X130595238Y-92214285D01*
X130547619Y-92023809D01*
X130547619Y-91880952D01*
X130595238Y-91690476D01*
X130642857Y-91595238D01*
X130738095Y-91500000D01*
X130880952Y-91452380D01*
X130976190Y-91452380D01*
X131119047Y-91500000D01*
X131166666Y-91547619D01*
X131738095Y-92452380D02*
X131642857Y-92404761D01*
X131595238Y-92357142D01*
X131547619Y-92261904D01*
X131547619Y-91976190D01*
X131595238Y-91880952D01*
X131642857Y-91833333D01*
X131738095Y-91785714D01*
X131880952Y-91785714D01*
X131976190Y-91833333D01*
X132023809Y-91880952D01*
X132071428Y-91976190D01*
X132071428Y-92261904D01*
X132023809Y-92357142D01*
X131976190Y-92404761D01*
X131880952Y-92452380D01*
X131738095Y-92452380D01*
X132500000Y-91785714D02*
X132500000Y-92452380D01*
X132500000Y-91880952D02*
X132547619Y-91833333D01*
X132642857Y-91785714D01*
X132785714Y-91785714D01*
X132880952Y-91833333D01*
X132928571Y-91928571D01*
X132928571Y-92452380D01*
X133404761Y-91785714D02*
X133404761Y-92452380D01*
X133404761Y-91880952D02*
X133452380Y-91833333D01*
X133547619Y-91785714D01*
X133690476Y-91785714D01*
X133785714Y-91833333D01*
X133833333Y-91928571D01*
X133833333Y-92452380D01*
X134071428Y-92547619D02*
X134833333Y-92547619D01*
X135261904Y-91452380D02*
X135357142Y-91452380D01*
X135452380Y-91500000D01*
X135500000Y-91547619D01*
X135547619Y-91642857D01*
X135595238Y-91833333D01*
X135595238Y-92071428D01*
X135547619Y-92261904D01*
X135500000Y-92357142D01*
X135452380Y-92404761D01*
X135357142Y-92452380D01*
X135261904Y-92452380D01*
X135166666Y-92404761D01*
X135119047Y-92357142D01*
X135071428Y-92261904D01*
X135023809Y-92071428D01*
X135023809Y-91833333D01*
X135071428Y-91642857D01*
X135119047Y-91547619D01*
X135166666Y-91500000D01*
X135261904Y-91452380D01*
X136547619Y-92452380D02*
X135976190Y-92452380D01*
X136261904Y-92452380D02*
X136261904Y-91452380D01*
X136166666Y-91595238D01*
X136071428Y-91690476D01*
X135976190Y-91738095D01*
X136880952Y-92452380D02*
X137404761Y-91785714D01*
X136880952Y-91785714D02*
X137404761Y-92452380D01*
X137976190Y-91452380D02*
X138071428Y-91452380D01*
X138166666Y-91500000D01*
X138214285Y-91547619D01*
X138261904Y-91642857D01*
X138309523Y-91833333D01*
X138309523Y-92071428D01*
X138261904Y-92261904D01*
X138214285Y-92357142D01*
X138166666Y-92404761D01*
X138071428Y-92452380D01*
X137976190Y-92452380D01*
X137880952Y-92404761D01*
X137833333Y-92357142D01*
X137785714Y-92261904D01*
X137738095Y-92071428D01*
X137738095Y-91833333D01*
X137785714Y-91642857D01*
X137833333Y-91547619D01*
X137880952Y-91500000D01*
X137976190Y-91452380D01*
X138690476Y-91547619D02*
X138738095Y-91500000D01*
X138833333Y-91452380D01*
X139071428Y-91452380D01*
X139166666Y-91500000D01*
X139214285Y-91547619D01*
X139261904Y-91642857D01*
X139261904Y-91738095D01*
X139214285Y-91880952D01*
X138642857Y-92452380D01*
X139261904Y-92452380D01*
X139452380Y-92547619D02*
X140214285Y-92547619D01*
X140452380Y-92452380D02*
X140452380Y-91452380D01*
X140785714Y-92166666D01*
X141119047Y-91452380D01*
X141119047Y-92452380D01*
X142023809Y-92452380D02*
X142023809Y-91928571D01*
X141976190Y-91833333D01*
X141880952Y-91785714D01*
X141690476Y-91785714D01*
X141595238Y-91833333D01*
X142023809Y-92404761D02*
X141928571Y-92452380D01*
X141690476Y-92452380D01*
X141595238Y-92404761D01*
X141547619Y-92309523D01*
X141547619Y-92214285D01*
X141595238Y-92119047D01*
X141690476Y-92071428D01*
X141928571Y-92071428D01*
X142023809Y-92023809D01*
X142642857Y-92452380D02*
X142547619Y-92404761D01*
X142500000Y-92309523D01*
X142500000Y-91452380D01*
X143404761Y-92404761D02*
X143309523Y-92452380D01*
X143119047Y-92452380D01*
X143023809Y-92404761D01*
X142976190Y-92309523D01*
X142976190Y-91928571D01*
X143023809Y-91833333D01*
X143119047Y-91785714D01*
X143309523Y-91785714D01*
X143404761Y-91833333D01*
X143452380Y-91928571D01*
X143452380Y-92023809D01*
X142976190Y-92119047D01*
G04 #@! TO.C,J5*
X118011904Y-92404761D02*
X118154761Y-92452380D01*
X118392857Y-92452380D01*
X118488095Y-92404761D01*
X118535714Y-92357142D01*
X118583333Y-92261904D01*
X118583333Y-92166666D01*
X118535714Y-92071428D01*
X118488095Y-92023809D01*
X118392857Y-91976190D01*
X118202380Y-91928571D01*
X118107142Y-91880952D01*
X118059523Y-91833333D01*
X118011904Y-91738095D01*
X118011904Y-91642857D01*
X118059523Y-91547619D01*
X118107142Y-91500000D01*
X118202380Y-91452380D01*
X118440476Y-91452380D01*
X118583333Y-91500000D01*
X119440476Y-92404761D02*
X119345238Y-92452380D01*
X119154761Y-92452380D01*
X119059523Y-92404761D01*
X119011904Y-92357142D01*
X118964285Y-92261904D01*
X118964285Y-91976190D01*
X119011904Y-91880952D01*
X119059523Y-91833333D01*
X119154761Y-91785714D01*
X119345238Y-91785714D01*
X119440476Y-91833333D01*
X119869047Y-92452380D02*
X119869047Y-91785714D01*
X119869047Y-91976190D02*
X119916666Y-91880952D01*
X119964285Y-91833333D01*
X120059523Y-91785714D01*
X120154761Y-91785714D01*
X120869047Y-92404761D02*
X120773809Y-92452380D01*
X120583333Y-92452380D01*
X120488095Y-92404761D01*
X120440476Y-92309523D01*
X120440476Y-91928571D01*
X120488095Y-91833333D01*
X120583333Y-91785714D01*
X120773809Y-91785714D01*
X120869047Y-91833333D01*
X120916666Y-91928571D01*
X120916666Y-92023809D01*
X120440476Y-92119047D01*
X121250000Y-91785714D02*
X121440476Y-92452380D01*
X121630952Y-91976190D01*
X121821428Y-92452380D01*
X122011904Y-91785714D01*
X122154761Y-92547619D02*
X122916666Y-92547619D01*
X123011904Y-91452380D02*
X123583333Y-91452380D01*
X123297619Y-92452380D02*
X123297619Y-91452380D01*
X124297619Y-92404761D02*
X124202380Y-92452380D01*
X124011904Y-92452380D01*
X123916666Y-92404761D01*
X123869047Y-92309523D01*
X123869047Y-91928571D01*
X123916666Y-91833333D01*
X124011904Y-91785714D01*
X124202380Y-91785714D01*
X124297619Y-91833333D01*
X124345238Y-91928571D01*
X124345238Y-92023809D01*
X123869047Y-92119047D01*
X124773809Y-92452380D02*
X124773809Y-91785714D01*
X124773809Y-91976190D02*
X124821428Y-91880952D01*
X124869047Y-91833333D01*
X124964285Y-91785714D01*
X125059523Y-91785714D01*
X125392857Y-92452380D02*
X125392857Y-91785714D01*
X125392857Y-91880952D02*
X125440476Y-91833333D01*
X125535714Y-91785714D01*
X125678571Y-91785714D01*
X125773809Y-91833333D01*
X125821428Y-91928571D01*
X125821428Y-92452380D01*
X125821428Y-91928571D02*
X125869047Y-91833333D01*
X125964285Y-91785714D01*
X126107142Y-91785714D01*
X126202380Y-91833333D01*
X126250000Y-91928571D01*
X126250000Y-92452380D01*
X126726190Y-92452380D02*
X126726190Y-91785714D01*
X126726190Y-91452380D02*
X126678571Y-91500000D01*
X126726190Y-91547619D01*
X126773809Y-91500000D01*
X126726190Y-91452380D01*
X126726190Y-91547619D01*
X127202380Y-91785714D02*
X127202380Y-92452380D01*
X127202380Y-91880952D02*
X127250000Y-91833333D01*
X127345238Y-91785714D01*
X127488095Y-91785714D01*
X127583333Y-91833333D01*
X127630952Y-91928571D01*
X127630952Y-92452380D01*
X128535714Y-92452380D02*
X128535714Y-91928571D01*
X128488095Y-91833333D01*
X128392857Y-91785714D01*
X128202380Y-91785714D01*
X128107142Y-91833333D01*
X128535714Y-92404761D02*
X128440476Y-92452380D01*
X128202380Y-92452380D01*
X128107142Y-92404761D01*
X128059523Y-92309523D01*
X128059523Y-92214285D01*
X128107142Y-92119047D01*
X128202380Y-92071428D01*
X128440476Y-92071428D01*
X128535714Y-92023809D01*
X129154761Y-92452380D02*
X129059523Y-92404761D01*
X129011904Y-92309523D01*
X129011904Y-91452380D01*
X129297619Y-92547619D02*
X130059523Y-92547619D01*
X130488095Y-91452380D02*
X130583333Y-91452380D01*
X130678571Y-91500000D01*
X130726190Y-91547619D01*
X130773809Y-91642857D01*
X130821428Y-91833333D01*
X130821428Y-92071428D01*
X130773809Y-92261904D01*
X130726190Y-92357142D01*
X130678571Y-92404761D01*
X130583333Y-92452380D01*
X130488095Y-92452380D01*
X130392857Y-92404761D01*
X130345238Y-92357142D01*
X130297619Y-92261904D01*
X130250000Y-92071428D01*
X130250000Y-91833333D01*
X130297619Y-91642857D01*
X130345238Y-91547619D01*
X130392857Y-91500000D01*
X130488095Y-91452380D01*
X131773809Y-92452380D02*
X131202380Y-92452380D01*
X131488095Y-92452380D02*
X131488095Y-91452380D01*
X131392857Y-91595238D01*
X131297619Y-91690476D01*
X131202380Y-91738095D01*
X132107142Y-92452380D02*
X132630952Y-91785714D01*
X132107142Y-91785714D02*
X132630952Y-92452380D01*
X133202380Y-91452380D02*
X133297619Y-91452380D01*
X133392857Y-91500000D01*
X133440476Y-91547619D01*
X133488095Y-91642857D01*
X133535714Y-91833333D01*
X133535714Y-92071428D01*
X133488095Y-92261904D01*
X133440476Y-92357142D01*
X133392857Y-92404761D01*
X133297619Y-92452380D01*
X133202380Y-92452380D01*
X133107142Y-92404761D01*
X133059523Y-92357142D01*
X133011904Y-92261904D01*
X132964285Y-92071428D01*
X132964285Y-91833333D01*
X133011904Y-91642857D01*
X133059523Y-91547619D01*
X133107142Y-91500000D01*
X133202380Y-91452380D01*
X133916666Y-91547619D02*
X133964285Y-91500000D01*
X134059523Y-91452380D01*
X134297619Y-91452380D01*
X134392857Y-91500000D01*
X134440476Y-91547619D01*
X134488095Y-91642857D01*
X134488095Y-91738095D01*
X134440476Y-91880952D01*
X133869047Y-92452380D01*
X134488095Y-92452380D01*
G04 #@! TO.C,H1*
X113428571Y-79652380D02*
X113428571Y-78652380D01*
X113761904Y-79366666D01*
X114095238Y-78652380D01*
X114095238Y-79652380D01*
X114714285Y-79652380D02*
X114619047Y-79604761D01*
X114571428Y-79557142D01*
X114523809Y-79461904D01*
X114523809Y-79176190D01*
X114571428Y-79080952D01*
X114619047Y-79033333D01*
X114714285Y-78985714D01*
X114857142Y-78985714D01*
X114952380Y-79033333D01*
X115000000Y-79080952D01*
X115047619Y-79176190D01*
X115047619Y-79461904D01*
X115000000Y-79557142D01*
X114952380Y-79604761D01*
X114857142Y-79652380D01*
X114714285Y-79652380D01*
X115904761Y-78985714D02*
X115904761Y-79652380D01*
X115476190Y-78985714D02*
X115476190Y-79509523D01*
X115523809Y-79604761D01*
X115619047Y-79652380D01*
X115761904Y-79652380D01*
X115857142Y-79604761D01*
X115904761Y-79557142D01*
X116380952Y-78985714D02*
X116380952Y-79652380D01*
X116380952Y-79080952D02*
X116428571Y-79033333D01*
X116523809Y-78985714D01*
X116666666Y-78985714D01*
X116761904Y-79033333D01*
X116809523Y-79128571D01*
X116809523Y-79652380D01*
X117142857Y-78985714D02*
X117523809Y-78985714D01*
X117285714Y-78652380D02*
X117285714Y-79509523D01*
X117333333Y-79604761D01*
X117428571Y-79652380D01*
X117523809Y-79652380D01*
X117857142Y-79652380D02*
X117857142Y-78985714D01*
X117857142Y-78652380D02*
X117809523Y-78700000D01*
X117857142Y-78747619D01*
X117904761Y-78700000D01*
X117857142Y-78652380D01*
X117857142Y-78747619D01*
X118333333Y-78985714D02*
X118333333Y-79652380D01*
X118333333Y-79080952D02*
X118380952Y-79033333D01*
X118476190Y-78985714D01*
X118619047Y-78985714D01*
X118714285Y-79033333D01*
X118761904Y-79128571D01*
X118761904Y-79652380D01*
X119666666Y-78985714D02*
X119666666Y-79795238D01*
X119619047Y-79890476D01*
X119571428Y-79938095D01*
X119476190Y-79985714D01*
X119333333Y-79985714D01*
X119238095Y-79938095D01*
X119666666Y-79604761D02*
X119571428Y-79652380D01*
X119380952Y-79652380D01*
X119285714Y-79604761D01*
X119238095Y-79557142D01*
X119190476Y-79461904D01*
X119190476Y-79176190D01*
X119238095Y-79080952D01*
X119285714Y-79033333D01*
X119380952Y-78985714D01*
X119571428Y-78985714D01*
X119666666Y-79033333D01*
X120142857Y-79652380D02*
X120142857Y-78652380D01*
X120142857Y-79128571D02*
X120714285Y-79128571D01*
X120714285Y-79652380D02*
X120714285Y-78652380D01*
X121333333Y-79652380D02*
X121238095Y-79604761D01*
X121190476Y-79557142D01*
X121142857Y-79461904D01*
X121142857Y-79176190D01*
X121190476Y-79080952D01*
X121238095Y-79033333D01*
X121333333Y-78985714D01*
X121476190Y-78985714D01*
X121571428Y-79033333D01*
X121619047Y-79080952D01*
X121666666Y-79176190D01*
X121666666Y-79461904D01*
X121619047Y-79557142D01*
X121571428Y-79604761D01*
X121476190Y-79652380D01*
X121333333Y-79652380D01*
X122238095Y-79652380D02*
X122142857Y-79604761D01*
X122095238Y-79509523D01*
X122095238Y-78652380D01*
X123000000Y-79604761D02*
X122904761Y-79652380D01*
X122714285Y-79652380D01*
X122619047Y-79604761D01*
X122571428Y-79509523D01*
X122571428Y-79128571D01*
X122619047Y-79033333D01*
X122714285Y-78985714D01*
X122904761Y-78985714D01*
X123000000Y-79033333D01*
X123047619Y-79128571D01*
X123047619Y-79223809D01*
X122571428Y-79319047D01*
X123238095Y-79747619D02*
X124000000Y-79747619D01*
X124238095Y-79652380D02*
X124238095Y-78652380D01*
X124619047Y-78652380D01*
X124714285Y-78700000D01*
X124761904Y-78747619D01*
X124809523Y-78842857D01*
X124809523Y-78985714D01*
X124761904Y-79080952D01*
X124714285Y-79128571D01*
X124619047Y-79176190D01*
X124238095Y-79176190D01*
X125666666Y-79652380D02*
X125666666Y-79128571D01*
X125619047Y-79033333D01*
X125523809Y-78985714D01*
X125333333Y-78985714D01*
X125238095Y-79033333D01*
X125666666Y-79604761D02*
X125571428Y-79652380D01*
X125333333Y-79652380D01*
X125238095Y-79604761D01*
X125190476Y-79509523D01*
X125190476Y-79414285D01*
X125238095Y-79319047D01*
X125333333Y-79271428D01*
X125571428Y-79271428D01*
X125666666Y-79223809D01*
X126571428Y-79652380D02*
X126571428Y-78652380D01*
X126571428Y-79604761D02*
X126476190Y-79652380D01*
X126285714Y-79652380D01*
X126190476Y-79604761D01*
X126142857Y-79557142D01*
X126095238Y-79461904D01*
X126095238Y-79176190D01*
X126142857Y-79080952D01*
X126190476Y-79033333D01*
X126285714Y-78985714D01*
X126476190Y-78985714D01*
X126571428Y-79033333D01*
X119538095Y-75452380D02*
X119538095Y-74452380D01*
X119538095Y-74928571D02*
X120109523Y-74928571D01*
X120109523Y-75452380D02*
X120109523Y-74452380D01*
X121109523Y-75452380D02*
X120538095Y-75452380D01*
X120823809Y-75452380D02*
X120823809Y-74452380D01*
X120728571Y-74595238D01*
X120633333Y-74690476D01*
X120538095Y-74738095D01*
G04 #@! TO.C,C1*
X129702380Y-91262380D02*
X129130952Y-91262380D01*
X129416666Y-91262380D02*
X129416666Y-90262380D01*
X129321428Y-90405238D01*
X129226190Y-90500476D01*
X129130952Y-90548095D01*
X130321428Y-90262380D02*
X130416666Y-90262380D01*
X130511904Y-90310000D01*
X130559523Y-90357619D01*
X130607142Y-90452857D01*
X130654761Y-90643333D01*
X130654761Y-90881428D01*
X130607142Y-91071904D01*
X130559523Y-91167142D01*
X130511904Y-91214761D01*
X130416666Y-91262380D01*
X130321428Y-91262380D01*
X130226190Y-91214761D01*
X130178571Y-91167142D01*
X130130952Y-91071904D01*
X130083333Y-90881428D01*
X130083333Y-90643333D01*
X130130952Y-90452857D01*
X130178571Y-90357619D01*
X130226190Y-90310000D01*
X130321428Y-90262380D01*
X131273809Y-90262380D02*
X131369047Y-90262380D01*
X131464285Y-90310000D01*
X131511904Y-90357619D01*
X131559523Y-90452857D01*
X131607142Y-90643333D01*
X131607142Y-90881428D01*
X131559523Y-91071904D01*
X131511904Y-91167142D01*
X131464285Y-91214761D01*
X131369047Y-91262380D01*
X131273809Y-91262380D01*
X131178571Y-91214761D01*
X131130952Y-91167142D01*
X131083333Y-91071904D01*
X131035714Y-90881428D01*
X131035714Y-90643333D01*
X131083333Y-90452857D01*
X131130952Y-90357619D01*
X131178571Y-90310000D01*
X131273809Y-90262380D01*
X132464285Y-90595714D02*
X132464285Y-91262380D01*
X132035714Y-90595714D02*
X132035714Y-91119523D01*
X132083333Y-91214761D01*
X132178571Y-91262380D01*
X132321428Y-91262380D01*
X132416666Y-91214761D01*
X132464285Y-91167142D01*
X133273809Y-90738571D02*
X132940476Y-90738571D01*
X132940476Y-91262380D02*
X132940476Y-90262380D01*
X133416666Y-90262380D01*
X131083333Y-87357142D02*
X131035714Y-87404761D01*
X130892857Y-87452380D01*
X130797619Y-87452380D01*
X130654761Y-87404761D01*
X130559523Y-87309523D01*
X130511904Y-87214285D01*
X130464285Y-87023809D01*
X130464285Y-86880952D01*
X130511904Y-86690476D01*
X130559523Y-86595238D01*
X130654761Y-86500000D01*
X130797619Y-86452380D01*
X130892857Y-86452380D01*
X131035714Y-86500000D01*
X131083333Y-86547619D01*
X132035714Y-87452380D02*
X131464285Y-87452380D01*
X131750000Y-87452380D02*
X131750000Y-86452380D01*
X131654761Y-86595238D01*
X131559523Y-86690476D01*
X131464285Y-86738095D01*
G04 #@! TO.C,C2*
X129130952Y-76737619D02*
X129178571Y-76690000D01*
X129273809Y-76642380D01*
X129511904Y-76642380D01*
X129607142Y-76690000D01*
X129654761Y-76737619D01*
X129702380Y-76832857D01*
X129702380Y-76928095D01*
X129654761Y-77070952D01*
X129083333Y-77642380D01*
X129702380Y-77642380D01*
X130035714Y-76642380D02*
X130702380Y-76642380D01*
X130273809Y-77642380D01*
X131273809Y-76642380D02*
X131369047Y-76642380D01*
X131464285Y-76690000D01*
X131511904Y-76737619D01*
X131559523Y-76832857D01*
X131607142Y-77023333D01*
X131607142Y-77261428D01*
X131559523Y-77451904D01*
X131511904Y-77547142D01*
X131464285Y-77594761D01*
X131369047Y-77642380D01*
X131273809Y-77642380D01*
X131178571Y-77594761D01*
X131130952Y-77547142D01*
X131083333Y-77451904D01*
X131035714Y-77261428D01*
X131035714Y-77023333D01*
X131083333Y-76832857D01*
X131130952Y-76737619D01*
X131178571Y-76690000D01*
X131273809Y-76642380D01*
X132464285Y-76975714D02*
X132464285Y-77642380D01*
X132035714Y-76975714D02*
X132035714Y-77499523D01*
X132083333Y-77594761D01*
X132178571Y-77642380D01*
X132321428Y-77642380D01*
X132416666Y-77594761D01*
X132464285Y-77547142D01*
X133273809Y-77118571D02*
X132940476Y-77118571D01*
X132940476Y-77642380D02*
X132940476Y-76642380D01*
X133416666Y-76642380D01*
X131083333Y-81357142D02*
X131035714Y-81404761D01*
X130892857Y-81452380D01*
X130797619Y-81452380D01*
X130654761Y-81404761D01*
X130559523Y-81309523D01*
X130511904Y-81214285D01*
X130464285Y-81023809D01*
X130464285Y-80880952D01*
X130511904Y-80690476D01*
X130559523Y-80595238D01*
X130654761Y-80500000D01*
X130797619Y-80452380D01*
X130892857Y-80452380D01*
X131035714Y-80500000D01*
X131083333Y-80547619D01*
X131464285Y-80547619D02*
X131511904Y-80500000D01*
X131607142Y-80452380D01*
X131845238Y-80452380D01*
X131940476Y-80500000D01*
X131988095Y-80547619D01*
X132035714Y-80642857D01*
X132035714Y-80738095D01*
X131988095Y-80880952D01*
X131416666Y-81452380D01*
X132035714Y-81452380D01*
G04 #@! TO.C,J2*
X172416666Y-95357142D02*
X172369047Y-95404761D01*
X172226190Y-95452380D01*
X172130952Y-95452380D01*
X171988095Y-95404761D01*
X171892857Y-95309523D01*
X171845238Y-95214285D01*
X171797619Y-95023809D01*
X171797619Y-94880952D01*
X171845238Y-94690476D01*
X171892857Y-94595238D01*
X171988095Y-94500000D01*
X172130952Y-94452380D01*
X172226190Y-94452380D01*
X172369047Y-94500000D01*
X172416666Y-94547619D01*
X172988095Y-95452380D02*
X172892857Y-95404761D01*
X172845238Y-95357142D01*
X172797619Y-95261904D01*
X172797619Y-94976190D01*
X172845238Y-94880952D01*
X172892857Y-94833333D01*
X172988095Y-94785714D01*
X173130952Y-94785714D01*
X173226190Y-94833333D01*
X173273809Y-94880952D01*
X173321428Y-94976190D01*
X173321428Y-95261904D01*
X173273809Y-95357142D01*
X173226190Y-95404761D01*
X173130952Y-95452380D01*
X172988095Y-95452380D01*
X173750000Y-94785714D02*
X173750000Y-95452380D01*
X173750000Y-94880952D02*
X173797619Y-94833333D01*
X173892857Y-94785714D01*
X174035714Y-94785714D01*
X174130952Y-94833333D01*
X174178571Y-94928571D01*
X174178571Y-95452380D01*
X174654761Y-94785714D02*
X174654761Y-95452380D01*
X174654761Y-94880952D02*
X174702380Y-94833333D01*
X174797619Y-94785714D01*
X174940476Y-94785714D01*
X175035714Y-94833333D01*
X175083333Y-94928571D01*
X175083333Y-95452380D01*
X175321428Y-95547619D02*
X176083333Y-95547619D01*
X176511904Y-94452380D02*
X176607142Y-94452380D01*
X176702380Y-94500000D01*
X176750000Y-94547619D01*
X176797619Y-94642857D01*
X176845238Y-94833333D01*
X176845238Y-95071428D01*
X176797619Y-95261904D01*
X176750000Y-95357142D01*
X176702380Y-95404761D01*
X176607142Y-95452380D01*
X176511904Y-95452380D01*
X176416666Y-95404761D01*
X176369047Y-95357142D01*
X176321428Y-95261904D01*
X176273809Y-95071428D01*
X176273809Y-94833333D01*
X176321428Y-94642857D01*
X176369047Y-94547619D01*
X176416666Y-94500000D01*
X176511904Y-94452380D01*
X177797619Y-95452380D02*
X177226190Y-95452380D01*
X177511904Y-95452380D02*
X177511904Y-94452380D01*
X177416666Y-94595238D01*
X177321428Y-94690476D01*
X177226190Y-94738095D01*
X178130952Y-95452380D02*
X178654761Y-94785714D01*
X178130952Y-94785714D02*
X178654761Y-95452380D01*
X179226190Y-94452380D02*
X179321428Y-94452380D01*
X179416666Y-94500000D01*
X179464285Y-94547619D01*
X179511904Y-94642857D01*
X179559523Y-94833333D01*
X179559523Y-95071428D01*
X179511904Y-95261904D01*
X179464285Y-95357142D01*
X179416666Y-95404761D01*
X179321428Y-95452380D01*
X179226190Y-95452380D01*
X179130952Y-95404761D01*
X179083333Y-95357142D01*
X179035714Y-95261904D01*
X178988095Y-95071428D01*
X178988095Y-94833333D01*
X179035714Y-94642857D01*
X179083333Y-94547619D01*
X179130952Y-94500000D01*
X179226190Y-94452380D01*
X180416666Y-94452380D02*
X180226190Y-94452380D01*
X180130952Y-94500000D01*
X180083333Y-94547619D01*
X179988095Y-94690476D01*
X179940476Y-94880952D01*
X179940476Y-95261904D01*
X179988095Y-95357142D01*
X180035714Y-95404761D01*
X180130952Y-95452380D01*
X180321428Y-95452380D01*
X180416666Y-95404761D01*
X180464285Y-95357142D01*
X180511904Y-95261904D01*
X180511904Y-95023809D01*
X180464285Y-94928571D01*
X180416666Y-94880952D01*
X180321428Y-94833333D01*
X180130952Y-94833333D01*
X180035714Y-94880952D01*
X179988095Y-94928571D01*
X179940476Y-95023809D01*
X180702380Y-95547619D02*
X181464285Y-95547619D01*
X181702380Y-95452380D02*
X181702380Y-94452380D01*
X182035714Y-95166666D01*
X182369047Y-94452380D01*
X182369047Y-95452380D01*
X183273809Y-95452380D02*
X183273809Y-94928571D01*
X183226190Y-94833333D01*
X183130952Y-94785714D01*
X182940476Y-94785714D01*
X182845238Y-94833333D01*
X183273809Y-95404761D02*
X183178571Y-95452380D01*
X182940476Y-95452380D01*
X182845238Y-95404761D01*
X182797619Y-95309523D01*
X182797619Y-95214285D01*
X182845238Y-95119047D01*
X182940476Y-95071428D01*
X183178571Y-95071428D01*
X183273809Y-95023809D01*
X183892857Y-95452380D02*
X183797619Y-95404761D01*
X183750000Y-95309523D01*
X183750000Y-94452380D01*
X184654761Y-95404761D02*
X184559523Y-95452380D01*
X184369047Y-95452380D01*
X184273809Y-95404761D01*
X184226190Y-95309523D01*
X184226190Y-94928571D01*
X184273809Y-94833333D01*
X184369047Y-94785714D01*
X184559523Y-94785714D01*
X184654761Y-94833333D01*
X184702380Y-94928571D01*
X184702380Y-95023809D01*
X184226190Y-95119047D01*
X177916666Y-92452380D02*
X177916666Y-93166666D01*
X177869047Y-93309523D01*
X177773809Y-93404761D01*
X177630952Y-93452380D01*
X177535714Y-93452380D01*
X178345238Y-92547619D02*
X178392857Y-92500000D01*
X178488095Y-92452380D01*
X178726190Y-92452380D01*
X178821428Y-92500000D01*
X178869047Y-92547619D01*
X178916666Y-92642857D01*
X178916666Y-92738095D01*
X178869047Y-92880952D01*
X178297619Y-93452380D01*
X178916666Y-93452380D01*
G04 #@! TO.C,J3*
X155416666Y-95357142D02*
X155369047Y-95404761D01*
X155226190Y-95452380D01*
X155130952Y-95452380D01*
X154988095Y-95404761D01*
X154892857Y-95309523D01*
X154845238Y-95214285D01*
X154797619Y-95023809D01*
X154797619Y-94880952D01*
X154845238Y-94690476D01*
X154892857Y-94595238D01*
X154988095Y-94500000D01*
X155130952Y-94452380D01*
X155226190Y-94452380D01*
X155369047Y-94500000D01*
X155416666Y-94547619D01*
X155988095Y-95452380D02*
X155892857Y-95404761D01*
X155845238Y-95357142D01*
X155797619Y-95261904D01*
X155797619Y-94976190D01*
X155845238Y-94880952D01*
X155892857Y-94833333D01*
X155988095Y-94785714D01*
X156130952Y-94785714D01*
X156226190Y-94833333D01*
X156273809Y-94880952D01*
X156321428Y-94976190D01*
X156321428Y-95261904D01*
X156273809Y-95357142D01*
X156226190Y-95404761D01*
X156130952Y-95452380D01*
X155988095Y-95452380D01*
X156750000Y-94785714D02*
X156750000Y-95452380D01*
X156750000Y-94880952D02*
X156797619Y-94833333D01*
X156892857Y-94785714D01*
X157035714Y-94785714D01*
X157130952Y-94833333D01*
X157178571Y-94928571D01*
X157178571Y-95452380D01*
X157654761Y-94785714D02*
X157654761Y-95452380D01*
X157654761Y-94880952D02*
X157702380Y-94833333D01*
X157797619Y-94785714D01*
X157940476Y-94785714D01*
X158035714Y-94833333D01*
X158083333Y-94928571D01*
X158083333Y-95452380D01*
X158321428Y-95547619D02*
X159083333Y-95547619D01*
X159511904Y-94452380D02*
X159607142Y-94452380D01*
X159702380Y-94500000D01*
X159750000Y-94547619D01*
X159797619Y-94642857D01*
X159845238Y-94833333D01*
X159845238Y-95071428D01*
X159797619Y-95261904D01*
X159750000Y-95357142D01*
X159702380Y-95404761D01*
X159607142Y-95452380D01*
X159511904Y-95452380D01*
X159416666Y-95404761D01*
X159369047Y-95357142D01*
X159321428Y-95261904D01*
X159273809Y-95071428D01*
X159273809Y-94833333D01*
X159321428Y-94642857D01*
X159369047Y-94547619D01*
X159416666Y-94500000D01*
X159511904Y-94452380D01*
X160797619Y-95452380D02*
X160226190Y-95452380D01*
X160511904Y-95452380D02*
X160511904Y-94452380D01*
X160416666Y-94595238D01*
X160321428Y-94690476D01*
X160226190Y-94738095D01*
X161130952Y-95452380D02*
X161654761Y-94785714D01*
X161130952Y-94785714D02*
X161654761Y-95452380D01*
X162226190Y-94452380D02*
X162321428Y-94452380D01*
X162416666Y-94500000D01*
X162464285Y-94547619D01*
X162511904Y-94642857D01*
X162559523Y-94833333D01*
X162559523Y-95071428D01*
X162511904Y-95261904D01*
X162464285Y-95357142D01*
X162416666Y-95404761D01*
X162321428Y-95452380D01*
X162226190Y-95452380D01*
X162130952Y-95404761D01*
X162083333Y-95357142D01*
X162035714Y-95261904D01*
X161988095Y-95071428D01*
X161988095Y-94833333D01*
X162035714Y-94642857D01*
X162083333Y-94547619D01*
X162130952Y-94500000D01*
X162226190Y-94452380D01*
X163416666Y-94785714D02*
X163416666Y-95452380D01*
X163178571Y-94404761D02*
X162940476Y-95119047D01*
X163559523Y-95119047D01*
X163702380Y-95547619D02*
X164464285Y-95547619D01*
X164702380Y-95452380D02*
X164702380Y-94452380D01*
X165035714Y-95166666D01*
X165369047Y-94452380D01*
X165369047Y-95452380D01*
X166273809Y-95452380D02*
X166273809Y-94928571D01*
X166226190Y-94833333D01*
X166130952Y-94785714D01*
X165940476Y-94785714D01*
X165845238Y-94833333D01*
X166273809Y-95404761D02*
X166178571Y-95452380D01*
X165940476Y-95452380D01*
X165845238Y-95404761D01*
X165797619Y-95309523D01*
X165797619Y-95214285D01*
X165845238Y-95119047D01*
X165940476Y-95071428D01*
X166178571Y-95071428D01*
X166273809Y-95023809D01*
X166892857Y-95452380D02*
X166797619Y-95404761D01*
X166750000Y-95309523D01*
X166750000Y-94452380D01*
X167654761Y-95404761D02*
X167559523Y-95452380D01*
X167369047Y-95452380D01*
X167273809Y-95404761D01*
X167226190Y-95309523D01*
X167226190Y-94928571D01*
X167273809Y-94833333D01*
X167369047Y-94785714D01*
X167559523Y-94785714D01*
X167654761Y-94833333D01*
X167702380Y-94928571D01*
X167702380Y-95023809D01*
X167226190Y-95119047D01*
X160916666Y-92452380D02*
X160916666Y-93166666D01*
X160869047Y-93309523D01*
X160773809Y-93404761D01*
X160630952Y-93452380D01*
X160535714Y-93452380D01*
X161297619Y-92452380D02*
X161916666Y-92452380D01*
X161583333Y-92833333D01*
X161726190Y-92833333D01*
X161821428Y-92880952D01*
X161869047Y-92928571D01*
X161916666Y-93023809D01*
X161916666Y-93261904D01*
X161869047Y-93357142D01*
X161821428Y-93404761D01*
X161726190Y-93452380D01*
X161440476Y-93452380D01*
X161345238Y-93404761D01*
X161297619Y-93357142D01*
G04 #@! TO.C,Q1*
X141785714Y-82508571D02*
X141452380Y-82508571D01*
X141452380Y-83032380D02*
X141452380Y-82032380D01*
X141928571Y-82032380D01*
X142976190Y-83127619D02*
X142880952Y-83080000D01*
X142785714Y-82984761D01*
X142642857Y-82841904D01*
X142547619Y-82794285D01*
X142452380Y-82794285D01*
X142500000Y-83032380D02*
X142404761Y-82984761D01*
X142309523Y-82889523D01*
X142261904Y-82699047D01*
X142261904Y-82365714D01*
X142309523Y-82175238D01*
X142404761Y-82080000D01*
X142500000Y-82032380D01*
X142690476Y-82032380D01*
X142785714Y-82080000D01*
X142880952Y-82175238D01*
X142928571Y-82365714D01*
X142928571Y-82699047D01*
X142880952Y-82889523D01*
X142785714Y-82984761D01*
X142690476Y-83032380D01*
X142500000Y-83032380D01*
X143357142Y-83032380D02*
X143357142Y-82032380D01*
X143738095Y-82032380D01*
X143833333Y-82080000D01*
X143880952Y-82127619D01*
X143928571Y-82222857D01*
X143928571Y-82365714D01*
X143880952Y-82460952D01*
X143833333Y-82508571D01*
X143738095Y-82556190D01*
X143357142Y-82556190D01*
X144261904Y-82032380D02*
X144880952Y-82032380D01*
X144547619Y-82413333D01*
X144690476Y-82413333D01*
X144785714Y-82460952D01*
X144833333Y-82508571D01*
X144880952Y-82603809D01*
X144880952Y-82841904D01*
X144833333Y-82937142D01*
X144785714Y-82984761D01*
X144690476Y-83032380D01*
X144404761Y-83032380D01*
X144309523Y-82984761D01*
X144261904Y-82937142D01*
X145500000Y-82032380D02*
X145595238Y-82032380D01*
X145690476Y-82080000D01*
X145738095Y-82127619D01*
X145785714Y-82222857D01*
X145833333Y-82413333D01*
X145833333Y-82651428D01*
X145785714Y-82841904D01*
X145738095Y-82937142D01*
X145690476Y-82984761D01*
X145595238Y-83032380D01*
X145500000Y-83032380D01*
X145404761Y-82984761D01*
X145357142Y-82937142D01*
X145309523Y-82841904D01*
X145261904Y-82651428D01*
X145261904Y-82413333D01*
X145309523Y-82222857D01*
X145357142Y-82127619D01*
X145404761Y-82080000D01*
X145500000Y-82032380D01*
X146261904Y-83032380D02*
X146261904Y-82032380D01*
X146833333Y-83032380D01*
X146833333Y-82032380D01*
X147500000Y-82032380D02*
X147595238Y-82032380D01*
X147690476Y-82080000D01*
X147738095Y-82127619D01*
X147785714Y-82222857D01*
X147833333Y-82413333D01*
X147833333Y-82651428D01*
X147785714Y-82841904D01*
X147738095Y-82937142D01*
X147690476Y-82984761D01*
X147595238Y-83032380D01*
X147500000Y-83032380D01*
X147404761Y-82984761D01*
X147357142Y-82937142D01*
X147309523Y-82841904D01*
X147261904Y-82651428D01*
X147261904Y-82413333D01*
X147309523Y-82222857D01*
X147357142Y-82127619D01*
X147404761Y-82080000D01*
X147500000Y-82032380D01*
X148690476Y-82032380D02*
X148500000Y-82032380D01*
X148404761Y-82080000D01*
X148357142Y-82127619D01*
X148261904Y-82270476D01*
X148214285Y-82460952D01*
X148214285Y-82841904D01*
X148261904Y-82937142D01*
X148309523Y-82984761D01*
X148404761Y-83032380D01*
X148595238Y-83032380D01*
X148690476Y-82984761D01*
X148738095Y-82937142D01*
X148785714Y-82841904D01*
X148785714Y-82603809D01*
X148738095Y-82508571D01*
X148690476Y-82460952D01*
X148595238Y-82413333D01*
X148404761Y-82413333D01*
X148309523Y-82460952D01*
X148261904Y-82508571D01*
X148214285Y-82603809D01*
X149690476Y-83032380D02*
X149214285Y-83032380D01*
X149214285Y-82032380D01*
X145404761Y-90667619D02*
X145309523Y-90620000D01*
X145214285Y-90524761D01*
X145071428Y-90381904D01*
X144976190Y-90334285D01*
X144880952Y-90334285D01*
X144928571Y-90572380D02*
X144833333Y-90524761D01*
X144738095Y-90429523D01*
X144690476Y-90239047D01*
X144690476Y-89905714D01*
X144738095Y-89715238D01*
X144833333Y-89620000D01*
X144928571Y-89572380D01*
X145119047Y-89572380D01*
X145214285Y-89620000D01*
X145309523Y-89715238D01*
X145357142Y-89905714D01*
X145357142Y-90239047D01*
X145309523Y-90429523D01*
X145214285Y-90524761D01*
X145119047Y-90572380D01*
X144928571Y-90572380D01*
X146309523Y-90572380D02*
X145738095Y-90572380D01*
X146023809Y-90572380D02*
X146023809Y-89572380D01*
X145928571Y-89715238D01*
X145833333Y-89810476D01*
X145738095Y-89858095D01*
G04 #@! TO.C,Q2*
X118825714Y-78508571D02*
X118492380Y-78508571D01*
X118492380Y-79032380D02*
X118492380Y-78032380D01*
X118968571Y-78032380D01*
X120016190Y-79127619D02*
X119920952Y-79080000D01*
X119825714Y-78984761D01*
X119682857Y-78841904D01*
X119587619Y-78794285D01*
X119492380Y-78794285D01*
X119540000Y-79032380D02*
X119444761Y-78984761D01*
X119349523Y-78889523D01*
X119301904Y-78699047D01*
X119301904Y-78365714D01*
X119349523Y-78175238D01*
X119444761Y-78080000D01*
X119540000Y-78032380D01*
X119730476Y-78032380D01*
X119825714Y-78080000D01*
X119920952Y-78175238D01*
X119968571Y-78365714D01*
X119968571Y-78699047D01*
X119920952Y-78889523D01*
X119825714Y-78984761D01*
X119730476Y-79032380D01*
X119540000Y-79032380D01*
X120397142Y-79032380D02*
X120397142Y-78032380D01*
X120778095Y-78032380D01*
X120873333Y-78080000D01*
X120920952Y-78127619D01*
X120968571Y-78222857D01*
X120968571Y-78365714D01*
X120920952Y-78460952D01*
X120873333Y-78508571D01*
X120778095Y-78556190D01*
X120397142Y-78556190D01*
X121301904Y-78032380D02*
X121920952Y-78032380D01*
X121587619Y-78413333D01*
X121730476Y-78413333D01*
X121825714Y-78460952D01*
X121873333Y-78508571D01*
X121920952Y-78603809D01*
X121920952Y-78841904D01*
X121873333Y-78937142D01*
X121825714Y-78984761D01*
X121730476Y-79032380D01*
X121444761Y-79032380D01*
X121349523Y-78984761D01*
X121301904Y-78937142D01*
X122540000Y-78032380D02*
X122635238Y-78032380D01*
X122730476Y-78080000D01*
X122778095Y-78127619D01*
X122825714Y-78222857D01*
X122873333Y-78413333D01*
X122873333Y-78651428D01*
X122825714Y-78841904D01*
X122778095Y-78937142D01*
X122730476Y-78984761D01*
X122635238Y-79032380D01*
X122540000Y-79032380D01*
X122444761Y-78984761D01*
X122397142Y-78937142D01*
X122349523Y-78841904D01*
X122301904Y-78651428D01*
X122301904Y-78413333D01*
X122349523Y-78222857D01*
X122397142Y-78127619D01*
X122444761Y-78080000D01*
X122540000Y-78032380D01*
X123301904Y-79032380D02*
X123301904Y-78032380D01*
X123873333Y-79032380D01*
X123873333Y-78032380D01*
X124540000Y-78032380D02*
X124635238Y-78032380D01*
X124730476Y-78080000D01*
X124778095Y-78127619D01*
X124825714Y-78222857D01*
X124873333Y-78413333D01*
X124873333Y-78651428D01*
X124825714Y-78841904D01*
X124778095Y-78937142D01*
X124730476Y-78984761D01*
X124635238Y-79032380D01*
X124540000Y-79032380D01*
X124444761Y-78984761D01*
X124397142Y-78937142D01*
X124349523Y-78841904D01*
X124301904Y-78651428D01*
X124301904Y-78413333D01*
X124349523Y-78222857D01*
X124397142Y-78127619D01*
X124444761Y-78080000D01*
X124540000Y-78032380D01*
X125730476Y-78032380D02*
X125540000Y-78032380D01*
X125444761Y-78080000D01*
X125397142Y-78127619D01*
X125301904Y-78270476D01*
X125254285Y-78460952D01*
X125254285Y-78841904D01*
X125301904Y-78937142D01*
X125349523Y-78984761D01*
X125444761Y-79032380D01*
X125635238Y-79032380D01*
X125730476Y-78984761D01*
X125778095Y-78937142D01*
X125825714Y-78841904D01*
X125825714Y-78603809D01*
X125778095Y-78508571D01*
X125730476Y-78460952D01*
X125635238Y-78413333D01*
X125444761Y-78413333D01*
X125349523Y-78460952D01*
X125301904Y-78508571D01*
X125254285Y-78603809D01*
X126730476Y-79032380D02*
X126254285Y-79032380D01*
X126254285Y-78032380D01*
X122444761Y-86667619D02*
X122349523Y-86620000D01*
X122254285Y-86524761D01*
X122111428Y-86381904D01*
X122016190Y-86334285D01*
X121920952Y-86334285D01*
X121968571Y-86572380D02*
X121873333Y-86524761D01*
X121778095Y-86429523D01*
X121730476Y-86239047D01*
X121730476Y-85905714D01*
X121778095Y-85715238D01*
X121873333Y-85620000D01*
X121968571Y-85572380D01*
X122159047Y-85572380D01*
X122254285Y-85620000D01*
X122349523Y-85715238D01*
X122397142Y-85905714D01*
X122397142Y-86239047D01*
X122349523Y-86429523D01*
X122254285Y-86524761D01*
X122159047Y-86572380D01*
X121968571Y-86572380D01*
X122778095Y-85667619D02*
X122825714Y-85620000D01*
X122920952Y-85572380D01*
X123159047Y-85572380D01*
X123254285Y-85620000D01*
X123301904Y-85667619D01*
X123349523Y-85762857D01*
X123349523Y-85858095D01*
X123301904Y-86000952D01*
X122730476Y-86572380D01*
X123349523Y-86572380D01*
G04 #@! TO.C,U1*
X141872380Y-85595238D02*
X141872380Y-86071428D01*
X140872380Y-86071428D01*
X140872380Y-85357142D02*
X140872380Y-84690476D01*
X141872380Y-85119047D01*
X141300952Y-84166666D02*
X141253333Y-84261904D01*
X141205714Y-84309523D01*
X141110476Y-84357142D01*
X141062857Y-84357142D01*
X140967619Y-84309523D01*
X140920000Y-84261904D01*
X140872380Y-84166666D01*
X140872380Y-83976190D01*
X140920000Y-83880952D01*
X140967619Y-83833333D01*
X141062857Y-83785714D01*
X141110476Y-83785714D01*
X141205714Y-83833333D01*
X141253333Y-83880952D01*
X141300952Y-83976190D01*
X141300952Y-84166666D01*
X141348571Y-84261904D01*
X141396190Y-84309523D01*
X141491428Y-84357142D01*
X141681904Y-84357142D01*
X141777142Y-84309523D01*
X141824761Y-84261904D01*
X141872380Y-84166666D01*
X141872380Y-83976190D01*
X141824761Y-83880952D01*
X141777142Y-83833333D01*
X141681904Y-83785714D01*
X141491428Y-83785714D01*
X141396190Y-83833333D01*
X141348571Y-83880952D01*
X141300952Y-83976190D01*
X140872380Y-83166666D02*
X140872380Y-83071428D01*
X140920000Y-82976190D01*
X140967619Y-82928571D01*
X141062857Y-82880952D01*
X141253333Y-82833333D01*
X141491428Y-82833333D01*
X141681904Y-82880952D01*
X141777142Y-82928571D01*
X141824761Y-82976190D01*
X141872380Y-83071428D01*
X141872380Y-83166666D01*
X141824761Y-83261904D01*
X141777142Y-83309523D01*
X141681904Y-83357142D01*
X141491428Y-83404761D01*
X141253333Y-83404761D01*
X141062857Y-83357142D01*
X140967619Y-83309523D01*
X140920000Y-83261904D01*
X140872380Y-83166666D01*
X140872380Y-81928571D02*
X140872380Y-82404761D01*
X141348571Y-82452380D01*
X141300952Y-82404761D01*
X141253333Y-82309523D01*
X141253333Y-82071428D01*
X141300952Y-81976190D01*
X141348571Y-81928571D01*
X141443809Y-81880952D01*
X141681904Y-81880952D01*
X141777142Y-81928571D01*
X141824761Y-81976190D01*
X141872380Y-82071428D01*
X141872380Y-82309523D01*
X141824761Y-82404761D01*
X141777142Y-82452380D01*
X133332380Y-84761904D02*
X134141904Y-84761904D01*
X134237142Y-84714285D01*
X134284761Y-84666666D01*
X134332380Y-84571428D01*
X134332380Y-84380952D01*
X134284761Y-84285714D01*
X134237142Y-84238095D01*
X134141904Y-84190476D01*
X133332380Y-84190476D01*
X134332380Y-83190476D02*
X134332380Y-83761904D01*
X134332380Y-83476190D02*
X133332380Y-83476190D01*
X133475238Y-83571428D01*
X133570476Y-83666666D01*
X133618095Y-83761904D01*
G04 #@! TO.C,C3*
X151652380Y-86702380D02*
X151080952Y-86702380D01*
X151366666Y-86702380D02*
X151366666Y-85702380D01*
X151271428Y-85845238D01*
X151176190Y-85940476D01*
X151080952Y-85988095D01*
X152271428Y-85702380D02*
X152366666Y-85702380D01*
X152461904Y-85750000D01*
X152509523Y-85797619D01*
X152557142Y-85892857D01*
X152604761Y-86083333D01*
X152604761Y-86321428D01*
X152557142Y-86511904D01*
X152509523Y-86607142D01*
X152461904Y-86654761D01*
X152366666Y-86702380D01*
X152271428Y-86702380D01*
X152176190Y-86654761D01*
X152128571Y-86607142D01*
X152080952Y-86511904D01*
X152033333Y-86321428D01*
X152033333Y-86083333D01*
X152080952Y-85892857D01*
X152128571Y-85797619D01*
X152176190Y-85750000D01*
X152271428Y-85702380D01*
X153223809Y-85702380D02*
X153319047Y-85702380D01*
X153414285Y-85750000D01*
X153461904Y-85797619D01*
X153509523Y-85892857D01*
X153557142Y-86083333D01*
X153557142Y-86321428D01*
X153509523Y-86511904D01*
X153461904Y-86607142D01*
X153414285Y-86654761D01*
X153319047Y-86702380D01*
X153223809Y-86702380D01*
X153128571Y-86654761D01*
X153080952Y-86607142D01*
X153033333Y-86511904D01*
X152985714Y-86321428D01*
X152985714Y-86083333D01*
X153033333Y-85892857D01*
X153080952Y-85797619D01*
X153128571Y-85750000D01*
X153223809Y-85702380D01*
X153985714Y-86035714D02*
X153985714Y-86702380D01*
X153985714Y-86130952D02*
X154033333Y-86083333D01*
X154128571Y-86035714D01*
X154271428Y-86035714D01*
X154366666Y-86083333D01*
X154414285Y-86178571D01*
X154414285Y-86702380D01*
X155223809Y-86178571D02*
X154890476Y-86178571D01*
X154890476Y-86702380D02*
X154890476Y-85702380D01*
X155366666Y-85702380D01*
X153033333Y-83857142D02*
X152985714Y-83904761D01*
X152842857Y-83952380D01*
X152747619Y-83952380D01*
X152604761Y-83904761D01*
X152509523Y-83809523D01*
X152461904Y-83714285D01*
X152414285Y-83523809D01*
X152414285Y-83380952D01*
X152461904Y-83190476D01*
X152509523Y-83095238D01*
X152604761Y-83000000D01*
X152747619Y-82952380D01*
X152842857Y-82952380D01*
X152985714Y-83000000D01*
X153033333Y-83047619D01*
X153366666Y-82952380D02*
X153985714Y-82952380D01*
X153652380Y-83333333D01*
X153795238Y-83333333D01*
X153890476Y-83380952D01*
X153938095Y-83428571D01*
X153985714Y-83523809D01*
X153985714Y-83761904D01*
X153938095Y-83857142D01*
X153890476Y-83904761D01*
X153795238Y-83952380D01*
X153509523Y-83952380D01*
X153414285Y-83904761D01*
X153366666Y-83857142D01*
G04 #@! TO.C,C4*
X147402380Y-70452380D02*
X146830952Y-70452380D01*
X147116666Y-70452380D02*
X147116666Y-69452380D01*
X147021428Y-69595238D01*
X146926190Y-69690476D01*
X146830952Y-69738095D01*
X148021428Y-69452380D02*
X148116666Y-69452380D01*
X148211904Y-69500000D01*
X148259523Y-69547619D01*
X148307142Y-69642857D01*
X148354761Y-69833333D01*
X148354761Y-70071428D01*
X148307142Y-70261904D01*
X148259523Y-70357142D01*
X148211904Y-70404761D01*
X148116666Y-70452380D01*
X148021428Y-70452380D01*
X147926190Y-70404761D01*
X147878571Y-70357142D01*
X147830952Y-70261904D01*
X147783333Y-70071428D01*
X147783333Y-69833333D01*
X147830952Y-69642857D01*
X147878571Y-69547619D01*
X147926190Y-69500000D01*
X148021428Y-69452380D01*
X148973809Y-69452380D02*
X149069047Y-69452380D01*
X149164285Y-69500000D01*
X149211904Y-69547619D01*
X149259523Y-69642857D01*
X149307142Y-69833333D01*
X149307142Y-70071428D01*
X149259523Y-70261904D01*
X149211904Y-70357142D01*
X149164285Y-70404761D01*
X149069047Y-70452380D01*
X148973809Y-70452380D01*
X148878571Y-70404761D01*
X148830952Y-70357142D01*
X148783333Y-70261904D01*
X148735714Y-70071428D01*
X148735714Y-69833333D01*
X148783333Y-69642857D01*
X148830952Y-69547619D01*
X148878571Y-69500000D01*
X148973809Y-69452380D01*
X149735714Y-69785714D02*
X149735714Y-70452380D01*
X149735714Y-69880952D02*
X149783333Y-69833333D01*
X149878571Y-69785714D01*
X150021428Y-69785714D01*
X150116666Y-69833333D01*
X150164285Y-69928571D01*
X150164285Y-70452380D01*
X150973809Y-69928571D02*
X150640476Y-69928571D01*
X150640476Y-70452380D02*
X150640476Y-69452380D01*
X151116666Y-69452380D01*
X148783333Y-73107142D02*
X148735714Y-73154761D01*
X148592857Y-73202380D01*
X148497619Y-73202380D01*
X148354761Y-73154761D01*
X148259523Y-73059523D01*
X148211904Y-72964285D01*
X148164285Y-72773809D01*
X148164285Y-72630952D01*
X148211904Y-72440476D01*
X148259523Y-72345238D01*
X148354761Y-72250000D01*
X148497619Y-72202380D01*
X148592857Y-72202380D01*
X148735714Y-72250000D01*
X148783333Y-72297619D01*
X149640476Y-72535714D02*
X149640476Y-73202380D01*
X149402380Y-72154761D02*
X149164285Y-72869047D01*
X149783333Y-72869047D01*
G04 #@! TO.C,C5*
X140857142Y-69797619D02*
X140904761Y-69750000D01*
X141000000Y-69702380D01*
X141238095Y-69702380D01*
X141333333Y-69750000D01*
X141380952Y-69797619D01*
X141428571Y-69892857D01*
X141428571Y-69988095D01*
X141380952Y-70130952D01*
X140809523Y-70702380D01*
X141428571Y-70702380D01*
X141809523Y-69797619D02*
X141857142Y-69750000D01*
X141952380Y-69702380D01*
X142190476Y-69702380D01*
X142285714Y-69750000D01*
X142333333Y-69797619D01*
X142380952Y-69892857D01*
X142380952Y-69988095D01*
X142333333Y-70130952D01*
X141761904Y-70702380D01*
X142380952Y-70702380D01*
X143238095Y-70035714D02*
X143238095Y-70702380D01*
X142809523Y-70035714D02*
X142809523Y-70559523D01*
X142857142Y-70654761D01*
X142952380Y-70702380D01*
X143095238Y-70702380D01*
X143190476Y-70654761D01*
X143238095Y-70607142D01*
X144047619Y-70178571D02*
X143714285Y-70178571D01*
X143714285Y-70702380D02*
X143714285Y-69702380D01*
X144190476Y-69702380D01*
X142333333Y-74107142D02*
X142285714Y-74154761D01*
X142142857Y-74202380D01*
X142047619Y-74202380D01*
X141904761Y-74154761D01*
X141809523Y-74059523D01*
X141761904Y-73964285D01*
X141714285Y-73773809D01*
X141714285Y-73630952D01*
X141761904Y-73440476D01*
X141809523Y-73345238D01*
X141904761Y-73250000D01*
X142047619Y-73202380D01*
X142142857Y-73202380D01*
X142285714Y-73250000D01*
X142333333Y-73297619D01*
X143238095Y-73202380D02*
X142761904Y-73202380D01*
X142714285Y-73678571D01*
X142761904Y-73630952D01*
X142857142Y-73583333D01*
X143095238Y-73583333D01*
X143190476Y-73630952D01*
X143238095Y-73678571D01*
X143285714Y-73773809D01*
X143285714Y-74011904D01*
X143238095Y-74107142D01*
X143190476Y-74154761D01*
X143095238Y-74202380D01*
X142857142Y-74202380D01*
X142761904Y-74154761D01*
X142714285Y-74107142D01*
G04 #@! TO.C,C6*
X140857142Y-81297619D02*
X140904761Y-81250000D01*
X141000000Y-81202380D01*
X141238095Y-81202380D01*
X141333333Y-81250000D01*
X141380952Y-81297619D01*
X141428571Y-81392857D01*
X141428571Y-81488095D01*
X141380952Y-81630952D01*
X140809523Y-82202380D01*
X141428571Y-82202380D01*
X141809523Y-81297619D02*
X141857142Y-81250000D01*
X141952380Y-81202380D01*
X142190476Y-81202380D01*
X142285714Y-81250000D01*
X142333333Y-81297619D01*
X142380952Y-81392857D01*
X142380952Y-81488095D01*
X142333333Y-81630952D01*
X141761904Y-82202380D01*
X142380952Y-82202380D01*
X143238095Y-81535714D02*
X143238095Y-82202380D01*
X142809523Y-81535714D02*
X142809523Y-82059523D01*
X142857142Y-82154761D01*
X142952380Y-82202380D01*
X143095238Y-82202380D01*
X143190476Y-82154761D01*
X143238095Y-82107142D01*
X144047619Y-81678571D02*
X143714285Y-81678571D01*
X143714285Y-82202380D02*
X143714285Y-81202380D01*
X144190476Y-81202380D01*
X142333333Y-78607142D02*
X142285714Y-78654761D01*
X142142857Y-78702380D01*
X142047619Y-78702380D01*
X141904761Y-78654761D01*
X141809523Y-78559523D01*
X141761904Y-78464285D01*
X141714285Y-78273809D01*
X141714285Y-78130952D01*
X141761904Y-77940476D01*
X141809523Y-77845238D01*
X141904761Y-77750000D01*
X142047619Y-77702380D01*
X142142857Y-77702380D01*
X142285714Y-77750000D01*
X142333333Y-77797619D01*
X143190476Y-77702380D02*
X143000000Y-77702380D01*
X142904761Y-77750000D01*
X142857142Y-77797619D01*
X142761904Y-77940476D01*
X142714285Y-78130952D01*
X142714285Y-78511904D01*
X142761904Y-78607142D01*
X142809523Y-78654761D01*
X142904761Y-78702380D01*
X143095238Y-78702380D01*
X143190476Y-78654761D01*
X143238095Y-78607142D01*
X143285714Y-78511904D01*
X143285714Y-78273809D01*
X143238095Y-78178571D01*
X143190476Y-78130952D01*
X143095238Y-78083333D01*
X142904761Y-78083333D01*
X142809523Y-78130952D01*
X142761904Y-78178571D01*
X142714285Y-78273809D01*
G04 #@! TO.C,D1*
X184202380Y-73492857D02*
X184202380Y-73969047D01*
X183202380Y-73969047D01*
X183678571Y-73159523D02*
X183678571Y-72826190D01*
X184202380Y-72683333D02*
X184202380Y-73159523D01*
X183202380Y-73159523D01*
X183202380Y-72683333D01*
X184202380Y-72254761D02*
X183202380Y-72254761D01*
X183202380Y-72016666D01*
X183250000Y-71873809D01*
X183345238Y-71778571D01*
X183440476Y-71730952D01*
X183630952Y-71683333D01*
X183773809Y-71683333D01*
X183964285Y-71730952D01*
X184059523Y-71778571D01*
X184154761Y-71873809D01*
X184202380Y-72016666D01*
X184202380Y-72254761D01*
G04 #@! TO.C,D2*
X181702380Y-73492857D02*
X181702380Y-73969047D01*
X180702380Y-73969047D01*
X181178571Y-73159523D02*
X181178571Y-72826190D01*
X181702380Y-72683333D02*
X181702380Y-73159523D01*
X180702380Y-73159523D01*
X180702380Y-72683333D01*
X181702380Y-72254761D02*
X180702380Y-72254761D01*
X180702380Y-72016666D01*
X180750000Y-71873809D01*
X180845238Y-71778571D01*
X180940476Y-71730952D01*
X181130952Y-71683333D01*
X181273809Y-71683333D01*
X181464285Y-71730952D01*
X181559523Y-71778571D01*
X181654761Y-71873809D01*
X181702380Y-72016666D01*
X181702380Y-72254761D01*
G04 #@! TO.C,D3*
X179202380Y-73492857D02*
X179202380Y-73969047D01*
X178202380Y-73969047D01*
X178678571Y-73159523D02*
X178678571Y-72826190D01*
X179202380Y-72683333D02*
X179202380Y-73159523D01*
X178202380Y-73159523D01*
X178202380Y-72683333D01*
X179202380Y-72254761D02*
X178202380Y-72254761D01*
X178202380Y-72016666D01*
X178250000Y-71873809D01*
X178345238Y-71778571D01*
X178440476Y-71730952D01*
X178630952Y-71683333D01*
X178773809Y-71683333D01*
X178964285Y-71730952D01*
X179059523Y-71778571D01*
X179154761Y-71873809D01*
X179202380Y-72016666D01*
X179202380Y-72254761D01*
G04 #@! TO.C,R1*
X140821428Y-84502380D02*
X140630952Y-84502380D01*
X140535714Y-84550000D01*
X140488095Y-84597619D01*
X140392857Y-84740476D01*
X140345238Y-84930952D01*
X140345238Y-85311904D01*
X140392857Y-85407142D01*
X140440476Y-85454761D01*
X140535714Y-85502380D01*
X140726190Y-85502380D01*
X140821428Y-85454761D01*
X140869047Y-85407142D01*
X140916666Y-85311904D01*
X140916666Y-85073809D01*
X140869047Y-84978571D01*
X140821428Y-84930952D01*
X140726190Y-84883333D01*
X140535714Y-84883333D01*
X140440476Y-84930952D01*
X140392857Y-84978571D01*
X140345238Y-85073809D01*
X141345238Y-85407142D02*
X141392857Y-85454761D01*
X141345238Y-85502380D01*
X141297619Y-85454761D01*
X141345238Y-85407142D01*
X141345238Y-85502380D01*
X141964285Y-84930952D02*
X141869047Y-84883333D01*
X141821428Y-84835714D01*
X141773809Y-84740476D01*
X141773809Y-84692857D01*
X141821428Y-84597619D01*
X141869047Y-84550000D01*
X141964285Y-84502380D01*
X142154761Y-84502380D01*
X142250000Y-84550000D01*
X142297619Y-84597619D01*
X142345238Y-84692857D01*
X142345238Y-84740476D01*
X142297619Y-84835714D01*
X142250000Y-84883333D01*
X142154761Y-84930952D01*
X141964285Y-84930952D01*
X141869047Y-84978571D01*
X141821428Y-85026190D01*
X141773809Y-85121428D01*
X141773809Y-85311904D01*
X141821428Y-85407142D01*
X141869047Y-85454761D01*
X141964285Y-85502380D01*
X142154761Y-85502380D01*
X142250000Y-85454761D01*
X142297619Y-85407142D01*
X142345238Y-85311904D01*
X142345238Y-85121428D01*
X142297619Y-85026190D01*
X142250000Y-84978571D01*
X142154761Y-84930952D01*
X142773809Y-85502380D02*
X142773809Y-84502380D01*
X142869047Y-85121428D02*
X143154761Y-85502380D01*
X143154761Y-84835714D02*
X142773809Y-85216666D01*
D12*
X141683333Y-83680952D02*
X141550000Y-83490476D01*
X141454761Y-83680952D02*
X141454761Y-83280952D01*
X141607142Y-83280952D01*
X141645238Y-83300000D01*
X141664285Y-83319047D01*
X141683333Y-83357142D01*
X141683333Y-83414285D01*
X141664285Y-83452380D01*
X141645238Y-83471428D01*
X141607142Y-83490476D01*
X141454761Y-83490476D01*
X142064285Y-83680952D02*
X141835714Y-83680952D01*
X141950000Y-83680952D02*
X141950000Y-83280952D01*
X141911904Y-83338095D01*
X141873809Y-83376190D01*
X141835714Y-83395238D01*
G04 #@! TO.C,R2*
D11*
X122971428Y-77402380D02*
X122780952Y-77402380D01*
X122685714Y-77450000D01*
X122638095Y-77497619D01*
X122542857Y-77640476D01*
X122495238Y-77830952D01*
X122495238Y-78211904D01*
X122542857Y-78307142D01*
X122590476Y-78354761D01*
X122685714Y-78402380D01*
X122876190Y-78402380D01*
X122971428Y-78354761D01*
X123019047Y-78307142D01*
X123066666Y-78211904D01*
X123066666Y-77973809D01*
X123019047Y-77878571D01*
X122971428Y-77830952D01*
X122876190Y-77783333D01*
X122685714Y-77783333D01*
X122590476Y-77830952D01*
X122542857Y-77878571D01*
X122495238Y-77973809D01*
X123495238Y-78307142D02*
X123542857Y-78354761D01*
X123495238Y-78402380D01*
X123447619Y-78354761D01*
X123495238Y-78307142D01*
X123495238Y-78402380D01*
X124114285Y-77830952D02*
X124019047Y-77783333D01*
X123971428Y-77735714D01*
X123923809Y-77640476D01*
X123923809Y-77592857D01*
X123971428Y-77497619D01*
X124019047Y-77450000D01*
X124114285Y-77402380D01*
X124304761Y-77402380D01*
X124400000Y-77450000D01*
X124447619Y-77497619D01*
X124495238Y-77592857D01*
X124495238Y-77640476D01*
X124447619Y-77735714D01*
X124400000Y-77783333D01*
X124304761Y-77830952D01*
X124114285Y-77830952D01*
X124019047Y-77878571D01*
X123971428Y-77926190D01*
X123923809Y-78021428D01*
X123923809Y-78211904D01*
X123971428Y-78307142D01*
X124019047Y-78354761D01*
X124114285Y-78402380D01*
X124304761Y-78402380D01*
X124400000Y-78354761D01*
X124447619Y-78307142D01*
X124495238Y-78211904D01*
X124495238Y-78021428D01*
X124447619Y-77926190D01*
X124400000Y-77878571D01*
X124304761Y-77830952D01*
X124923809Y-78402380D02*
X124923809Y-77402380D01*
X125019047Y-78021428D02*
X125304761Y-78402380D01*
X125304761Y-77735714D02*
X124923809Y-78116666D01*
D12*
X123833333Y-79680952D02*
X123700000Y-79490476D01*
X123604761Y-79680952D02*
X123604761Y-79280952D01*
X123757142Y-79280952D01*
X123795238Y-79300000D01*
X123814285Y-79319047D01*
X123833333Y-79357142D01*
X123833333Y-79414285D01*
X123814285Y-79452380D01*
X123795238Y-79471428D01*
X123757142Y-79490476D01*
X123604761Y-79490476D01*
X123985714Y-79319047D02*
X124004761Y-79300000D01*
X124042857Y-79280952D01*
X124138095Y-79280952D01*
X124176190Y-79300000D01*
X124195238Y-79319047D01*
X124214285Y-79357142D01*
X124214285Y-79395238D01*
X124195238Y-79452380D01*
X123966666Y-79680952D01*
X124214285Y-79680952D01*
G04 #@! TO.C,R3*
D11*
X152304761Y-73502380D02*
X151733333Y-73502380D01*
X152019047Y-73502380D02*
X152019047Y-72502380D01*
X151923809Y-72645238D01*
X151828571Y-72740476D01*
X151733333Y-72788095D01*
X152923809Y-72502380D02*
X153019047Y-72502380D01*
X153114285Y-72550000D01*
X153161904Y-72597619D01*
X153209523Y-72692857D01*
X153257142Y-72883333D01*
X153257142Y-73121428D01*
X153209523Y-73311904D01*
X153161904Y-73407142D01*
X153114285Y-73454761D01*
X153019047Y-73502380D01*
X152923809Y-73502380D01*
X152828571Y-73454761D01*
X152780952Y-73407142D01*
X152733333Y-73311904D01*
X152685714Y-73121428D01*
X152685714Y-72883333D01*
X152733333Y-72692857D01*
X152780952Y-72597619D01*
X152828571Y-72550000D01*
X152923809Y-72502380D01*
X153685714Y-73502380D02*
X153685714Y-72502380D01*
X153780952Y-73121428D02*
X154066666Y-73502380D01*
X154066666Y-72835714D02*
X153685714Y-73216666D01*
D12*
X152833333Y-71680952D02*
X152700000Y-71490476D01*
X152604761Y-71680952D02*
X152604761Y-71280952D01*
X152757142Y-71280952D01*
X152795238Y-71300000D01*
X152814285Y-71319047D01*
X152833333Y-71357142D01*
X152833333Y-71414285D01*
X152814285Y-71452380D01*
X152795238Y-71471428D01*
X152757142Y-71490476D01*
X152604761Y-71490476D01*
X152966666Y-71280952D02*
X153214285Y-71280952D01*
X153080952Y-71433333D01*
X153138095Y-71433333D01*
X153176190Y-71452380D01*
X153195238Y-71471428D01*
X153214285Y-71509523D01*
X153214285Y-71604761D01*
X153195238Y-71642857D01*
X153176190Y-71661904D01*
X153138095Y-71680952D01*
X153023809Y-71680952D01*
X152985714Y-71661904D01*
X152966666Y-71642857D01*
G04 #@! TO.C,R4*
D11*
X172804761Y-88502380D02*
X172233333Y-88502380D01*
X172519047Y-88502380D02*
X172519047Y-87502380D01*
X172423809Y-87645238D01*
X172328571Y-87740476D01*
X172233333Y-87788095D01*
X173423809Y-87502380D02*
X173519047Y-87502380D01*
X173614285Y-87550000D01*
X173661904Y-87597619D01*
X173709523Y-87692857D01*
X173757142Y-87883333D01*
X173757142Y-88121428D01*
X173709523Y-88311904D01*
X173661904Y-88407142D01*
X173614285Y-88454761D01*
X173519047Y-88502380D01*
X173423809Y-88502380D01*
X173328571Y-88454761D01*
X173280952Y-88407142D01*
X173233333Y-88311904D01*
X173185714Y-88121428D01*
X173185714Y-87883333D01*
X173233333Y-87692857D01*
X173280952Y-87597619D01*
X173328571Y-87550000D01*
X173423809Y-87502380D01*
X174185714Y-88502380D02*
X174185714Y-87502380D01*
X174280952Y-88121428D02*
X174566666Y-88502380D01*
X174566666Y-87835714D02*
X174185714Y-88216666D01*
D12*
X173333333Y-86680952D02*
X173200000Y-86490476D01*
X173104761Y-86680952D02*
X173104761Y-86280952D01*
X173257142Y-86280952D01*
X173295238Y-86300000D01*
X173314285Y-86319047D01*
X173333333Y-86357142D01*
X173333333Y-86414285D01*
X173314285Y-86452380D01*
X173295238Y-86471428D01*
X173257142Y-86490476D01*
X173104761Y-86490476D01*
X173676190Y-86414285D02*
X173676190Y-86680952D01*
X173580952Y-86261904D02*
X173485714Y-86547619D01*
X173733333Y-86547619D01*
G04 #@! TO.C,R5*
D11*
X177804761Y-88502380D02*
X177233333Y-88502380D01*
X177519047Y-88502380D02*
X177519047Y-87502380D01*
X177423809Y-87645238D01*
X177328571Y-87740476D01*
X177233333Y-87788095D01*
X178423809Y-87502380D02*
X178519047Y-87502380D01*
X178614285Y-87550000D01*
X178661904Y-87597619D01*
X178709523Y-87692857D01*
X178757142Y-87883333D01*
X178757142Y-88121428D01*
X178709523Y-88311904D01*
X178661904Y-88407142D01*
X178614285Y-88454761D01*
X178519047Y-88502380D01*
X178423809Y-88502380D01*
X178328571Y-88454761D01*
X178280952Y-88407142D01*
X178233333Y-88311904D01*
X178185714Y-88121428D01*
X178185714Y-87883333D01*
X178233333Y-87692857D01*
X178280952Y-87597619D01*
X178328571Y-87550000D01*
X178423809Y-87502380D01*
X179185714Y-88502380D02*
X179185714Y-87502380D01*
X179280952Y-88121428D02*
X179566666Y-88502380D01*
X179566666Y-87835714D02*
X179185714Y-88216666D01*
D12*
X178333333Y-86680952D02*
X178200000Y-86490476D01*
X178104761Y-86680952D02*
X178104761Y-86280952D01*
X178257142Y-86280952D01*
X178295238Y-86300000D01*
X178314285Y-86319047D01*
X178333333Y-86357142D01*
X178333333Y-86414285D01*
X178314285Y-86452380D01*
X178295238Y-86471428D01*
X178257142Y-86490476D01*
X178104761Y-86490476D01*
X178695238Y-86280952D02*
X178504761Y-86280952D01*
X178485714Y-86471428D01*
X178504761Y-86452380D01*
X178542857Y-86433333D01*
X178638095Y-86433333D01*
X178676190Y-86452380D01*
X178695238Y-86471428D01*
X178714285Y-86509523D01*
X178714285Y-86604761D01*
X178695238Y-86642857D01*
X178676190Y-86661904D01*
X178638095Y-86680952D01*
X178542857Y-86680952D01*
X178504761Y-86661904D01*
X178485714Y-86642857D01*
G04 #@! TO.C,R6*
D11*
X182804761Y-88502380D02*
X182233333Y-88502380D01*
X182519047Y-88502380D02*
X182519047Y-87502380D01*
X182423809Y-87645238D01*
X182328571Y-87740476D01*
X182233333Y-87788095D01*
X183423809Y-87502380D02*
X183519047Y-87502380D01*
X183614285Y-87550000D01*
X183661904Y-87597619D01*
X183709523Y-87692857D01*
X183757142Y-87883333D01*
X183757142Y-88121428D01*
X183709523Y-88311904D01*
X183661904Y-88407142D01*
X183614285Y-88454761D01*
X183519047Y-88502380D01*
X183423809Y-88502380D01*
X183328571Y-88454761D01*
X183280952Y-88407142D01*
X183233333Y-88311904D01*
X183185714Y-88121428D01*
X183185714Y-87883333D01*
X183233333Y-87692857D01*
X183280952Y-87597619D01*
X183328571Y-87550000D01*
X183423809Y-87502380D01*
X184185714Y-88502380D02*
X184185714Y-87502380D01*
X184280952Y-88121428D02*
X184566666Y-88502380D01*
X184566666Y-87835714D02*
X184185714Y-88216666D01*
D12*
X183333333Y-86680952D02*
X183200000Y-86490476D01*
X183104761Y-86680952D02*
X183104761Y-86280952D01*
X183257142Y-86280952D01*
X183295238Y-86300000D01*
X183314285Y-86319047D01*
X183333333Y-86357142D01*
X183333333Y-86414285D01*
X183314285Y-86452380D01*
X183295238Y-86471428D01*
X183257142Y-86490476D01*
X183104761Y-86490476D01*
X183676190Y-86280952D02*
X183600000Y-86280952D01*
X183561904Y-86300000D01*
X183542857Y-86319047D01*
X183504761Y-86376190D01*
X183485714Y-86452380D01*
X183485714Y-86604761D01*
X183504761Y-86642857D01*
X183523809Y-86661904D01*
X183561904Y-86680952D01*
X183638095Y-86680952D01*
X183676190Y-86661904D01*
X183695238Y-86642857D01*
X183714285Y-86604761D01*
X183714285Y-86509523D01*
X183695238Y-86471428D01*
X183676190Y-86452380D01*
X183638095Y-86433333D01*
X183561904Y-86433333D01*
X183523809Y-86452380D01*
X183504761Y-86471428D01*
X183485714Y-86509523D01*
G04 #@! TO.C,R7*
D11*
X158304761Y-88502380D02*
X157733333Y-88502380D01*
X158019047Y-88502380D02*
X158019047Y-87502380D01*
X157923809Y-87645238D01*
X157828571Y-87740476D01*
X157733333Y-87788095D01*
X158923809Y-87502380D02*
X159019047Y-87502380D01*
X159114285Y-87550000D01*
X159161904Y-87597619D01*
X159209523Y-87692857D01*
X159257142Y-87883333D01*
X159257142Y-88121428D01*
X159209523Y-88311904D01*
X159161904Y-88407142D01*
X159114285Y-88454761D01*
X159019047Y-88502380D01*
X158923809Y-88502380D01*
X158828571Y-88454761D01*
X158780952Y-88407142D01*
X158733333Y-88311904D01*
X158685714Y-88121428D01*
X158685714Y-87883333D01*
X158733333Y-87692857D01*
X158780952Y-87597619D01*
X158828571Y-87550000D01*
X158923809Y-87502380D01*
X159685714Y-88502380D02*
X159685714Y-87502380D01*
X159780952Y-88121428D02*
X160066666Y-88502380D01*
X160066666Y-87835714D02*
X159685714Y-88216666D01*
D12*
X158833333Y-86680952D02*
X158700000Y-86490476D01*
X158604761Y-86680952D02*
X158604761Y-86280952D01*
X158757142Y-86280952D01*
X158795238Y-86300000D01*
X158814285Y-86319047D01*
X158833333Y-86357142D01*
X158833333Y-86414285D01*
X158814285Y-86452380D01*
X158795238Y-86471428D01*
X158757142Y-86490476D01*
X158604761Y-86490476D01*
X158966666Y-86280952D02*
X159233333Y-86280952D01*
X159061904Y-86680952D01*
G04 #@! TO.C,R8*
D11*
X162804761Y-88502380D02*
X162233333Y-88502380D01*
X162519047Y-88502380D02*
X162519047Y-87502380D01*
X162423809Y-87645238D01*
X162328571Y-87740476D01*
X162233333Y-87788095D01*
X163423809Y-87502380D02*
X163519047Y-87502380D01*
X163614285Y-87550000D01*
X163661904Y-87597619D01*
X163709523Y-87692857D01*
X163757142Y-87883333D01*
X163757142Y-88121428D01*
X163709523Y-88311904D01*
X163661904Y-88407142D01*
X163614285Y-88454761D01*
X163519047Y-88502380D01*
X163423809Y-88502380D01*
X163328571Y-88454761D01*
X163280952Y-88407142D01*
X163233333Y-88311904D01*
X163185714Y-88121428D01*
X163185714Y-87883333D01*
X163233333Y-87692857D01*
X163280952Y-87597619D01*
X163328571Y-87550000D01*
X163423809Y-87502380D01*
X164185714Y-88502380D02*
X164185714Y-87502380D01*
X164280952Y-88121428D02*
X164566666Y-88502380D01*
X164566666Y-87835714D02*
X164185714Y-88216666D01*
D12*
X163333333Y-86680952D02*
X163200000Y-86490476D01*
X163104761Y-86680952D02*
X163104761Y-86280952D01*
X163257142Y-86280952D01*
X163295238Y-86300000D01*
X163314285Y-86319047D01*
X163333333Y-86357142D01*
X163333333Y-86414285D01*
X163314285Y-86452380D01*
X163295238Y-86471428D01*
X163257142Y-86490476D01*
X163104761Y-86490476D01*
X163561904Y-86452380D02*
X163523809Y-86433333D01*
X163504761Y-86414285D01*
X163485714Y-86376190D01*
X163485714Y-86357142D01*
X163504761Y-86319047D01*
X163523809Y-86300000D01*
X163561904Y-86280952D01*
X163638095Y-86280952D01*
X163676190Y-86300000D01*
X163695238Y-86319047D01*
X163714285Y-86357142D01*
X163714285Y-86376190D01*
X163695238Y-86414285D01*
X163676190Y-86433333D01*
X163638095Y-86452380D01*
X163561904Y-86452380D01*
X163523809Y-86471428D01*
X163504761Y-86490476D01*
X163485714Y-86528571D01*
X163485714Y-86604761D01*
X163504761Y-86642857D01*
X163523809Y-86661904D01*
X163561904Y-86680952D01*
X163638095Y-86680952D01*
X163676190Y-86661904D01*
X163695238Y-86642857D01*
X163714285Y-86604761D01*
X163714285Y-86528571D01*
X163695238Y-86490476D01*
X163676190Y-86471428D01*
X163638095Y-86452380D01*
G04 #@! TO.C,R9*
D11*
X179902380Y-83885714D02*
X179902380Y-83266666D01*
X180283333Y-83600000D01*
X180283333Y-83457142D01*
X180330952Y-83361904D01*
X180378571Y-83314285D01*
X180473809Y-83266666D01*
X180711904Y-83266666D01*
X180807142Y-83314285D01*
X180854761Y-83361904D01*
X180902380Y-83457142D01*
X180902380Y-83742857D01*
X180854761Y-83838095D01*
X180807142Y-83885714D01*
X179902380Y-82933333D02*
X179902380Y-82314285D01*
X180283333Y-82647619D01*
X180283333Y-82504761D01*
X180330952Y-82409523D01*
X180378571Y-82361904D01*
X180473809Y-82314285D01*
X180711904Y-82314285D01*
X180807142Y-82361904D01*
X180854761Y-82409523D01*
X180902380Y-82504761D01*
X180902380Y-82790476D01*
X180854761Y-82885714D01*
X180807142Y-82933333D01*
X179902380Y-81695238D02*
X179902380Y-81600000D01*
X179950000Y-81504761D01*
X179997619Y-81457142D01*
X180092857Y-81409523D01*
X180283333Y-81361904D01*
X180521428Y-81361904D01*
X180711904Y-81409523D01*
X180807142Y-81457142D01*
X180854761Y-81504761D01*
X180902380Y-81600000D01*
X180902380Y-81695238D01*
X180854761Y-81790476D01*
X180807142Y-81838095D01*
X180711904Y-81885714D01*
X180521428Y-81933333D01*
X180283333Y-81933333D01*
X180092857Y-81885714D01*
X179997619Y-81838095D01*
X179950000Y-81790476D01*
X179902380Y-81695238D01*
D12*
X182180952Y-82666666D02*
X181990476Y-82800000D01*
X182180952Y-82895238D02*
X181780952Y-82895238D01*
X181780952Y-82742857D01*
X181800000Y-82704761D01*
X181819047Y-82685714D01*
X181857142Y-82666666D01*
X181914285Y-82666666D01*
X181952380Y-82685714D01*
X181971428Y-82704761D01*
X181990476Y-82742857D01*
X181990476Y-82895238D01*
X182180952Y-82476190D02*
X182180952Y-82400000D01*
X182161904Y-82361904D01*
X182142857Y-82342857D01*
X182085714Y-82304761D01*
X182009523Y-82285714D01*
X181857142Y-82285714D01*
X181819047Y-82304761D01*
X181800000Y-82323809D01*
X181780952Y-82361904D01*
X181780952Y-82438095D01*
X181800000Y-82476190D01*
X181819047Y-82495238D01*
X181857142Y-82514285D01*
X181952380Y-82514285D01*
X181990476Y-82495238D01*
X182009523Y-82476190D01*
X182028571Y-82438095D01*
X182028571Y-82361904D01*
X182009523Y-82323809D01*
X181990476Y-82304761D01*
X181952380Y-82285714D01*
G04 #@! TO.C,R10*
D11*
X177402380Y-83885714D02*
X177402380Y-83266666D01*
X177783333Y-83600000D01*
X177783333Y-83457142D01*
X177830952Y-83361904D01*
X177878571Y-83314285D01*
X177973809Y-83266666D01*
X178211904Y-83266666D01*
X178307142Y-83314285D01*
X178354761Y-83361904D01*
X178402380Y-83457142D01*
X178402380Y-83742857D01*
X178354761Y-83838095D01*
X178307142Y-83885714D01*
X177402380Y-82933333D02*
X177402380Y-82314285D01*
X177783333Y-82647619D01*
X177783333Y-82504761D01*
X177830952Y-82409523D01*
X177878571Y-82361904D01*
X177973809Y-82314285D01*
X178211904Y-82314285D01*
X178307142Y-82361904D01*
X178354761Y-82409523D01*
X178402380Y-82504761D01*
X178402380Y-82790476D01*
X178354761Y-82885714D01*
X178307142Y-82933333D01*
X177402380Y-81695238D02*
X177402380Y-81600000D01*
X177450000Y-81504761D01*
X177497619Y-81457142D01*
X177592857Y-81409523D01*
X177783333Y-81361904D01*
X178021428Y-81361904D01*
X178211904Y-81409523D01*
X178307142Y-81457142D01*
X178354761Y-81504761D01*
X178402380Y-81600000D01*
X178402380Y-81695238D01*
X178354761Y-81790476D01*
X178307142Y-81838095D01*
X178211904Y-81885714D01*
X178021428Y-81933333D01*
X177783333Y-81933333D01*
X177592857Y-81885714D01*
X177497619Y-81838095D01*
X177450000Y-81790476D01*
X177402380Y-81695238D01*
D12*
X179680952Y-82857142D02*
X179490476Y-82990476D01*
X179680952Y-83085714D02*
X179280952Y-83085714D01*
X179280952Y-82933333D01*
X179300000Y-82895238D01*
X179319047Y-82876190D01*
X179357142Y-82857142D01*
X179414285Y-82857142D01*
X179452380Y-82876190D01*
X179471428Y-82895238D01*
X179490476Y-82933333D01*
X179490476Y-83085714D01*
X179680952Y-82476190D02*
X179680952Y-82704761D01*
X179680952Y-82590476D02*
X179280952Y-82590476D01*
X179338095Y-82628571D01*
X179376190Y-82666666D01*
X179395238Y-82704761D01*
X179280952Y-82228571D02*
X179280952Y-82190476D01*
X179300000Y-82152380D01*
X179319047Y-82133333D01*
X179357142Y-82114285D01*
X179433333Y-82095238D01*
X179528571Y-82095238D01*
X179604761Y-82114285D01*
X179642857Y-82133333D01*
X179661904Y-82152380D01*
X179680952Y-82190476D01*
X179680952Y-82228571D01*
X179661904Y-82266666D01*
X179642857Y-82285714D01*
X179604761Y-82304761D01*
X179528571Y-82323809D01*
X179433333Y-82323809D01*
X179357142Y-82304761D01*
X179319047Y-82285714D01*
X179300000Y-82266666D01*
X179280952Y-82228571D01*
G04 #@! TO.C,R11*
D11*
X174902380Y-83885714D02*
X174902380Y-83266666D01*
X175283333Y-83600000D01*
X175283333Y-83457142D01*
X175330952Y-83361904D01*
X175378571Y-83314285D01*
X175473809Y-83266666D01*
X175711904Y-83266666D01*
X175807142Y-83314285D01*
X175854761Y-83361904D01*
X175902380Y-83457142D01*
X175902380Y-83742857D01*
X175854761Y-83838095D01*
X175807142Y-83885714D01*
X174902380Y-82933333D02*
X174902380Y-82314285D01*
X175283333Y-82647619D01*
X175283333Y-82504761D01*
X175330952Y-82409523D01*
X175378571Y-82361904D01*
X175473809Y-82314285D01*
X175711904Y-82314285D01*
X175807142Y-82361904D01*
X175854761Y-82409523D01*
X175902380Y-82504761D01*
X175902380Y-82790476D01*
X175854761Y-82885714D01*
X175807142Y-82933333D01*
X174902380Y-81695238D02*
X174902380Y-81600000D01*
X174950000Y-81504761D01*
X174997619Y-81457142D01*
X175092857Y-81409523D01*
X175283333Y-81361904D01*
X175521428Y-81361904D01*
X175711904Y-81409523D01*
X175807142Y-81457142D01*
X175854761Y-81504761D01*
X175902380Y-81600000D01*
X175902380Y-81695238D01*
X175854761Y-81790476D01*
X175807142Y-81838095D01*
X175711904Y-81885714D01*
X175521428Y-81933333D01*
X175283333Y-81933333D01*
X175092857Y-81885714D01*
X174997619Y-81838095D01*
X174950000Y-81790476D01*
X174902380Y-81695238D01*
D12*
X177180952Y-82857142D02*
X176990476Y-82990476D01*
X177180952Y-83085714D02*
X176780952Y-83085714D01*
X176780952Y-82933333D01*
X176800000Y-82895238D01*
X176819047Y-82876190D01*
X176857142Y-82857142D01*
X176914285Y-82857142D01*
X176952380Y-82876190D01*
X176971428Y-82895238D01*
X176990476Y-82933333D01*
X176990476Y-83085714D01*
X177180952Y-82476190D02*
X177180952Y-82704761D01*
X177180952Y-82590476D02*
X176780952Y-82590476D01*
X176838095Y-82628571D01*
X176876190Y-82666666D01*
X176895238Y-82704761D01*
X177180952Y-82095238D02*
X177180952Y-82323809D01*
X177180952Y-82209523D02*
X176780952Y-82209523D01*
X176838095Y-82247619D01*
X176876190Y-82285714D01*
X176895238Y-82323809D01*
G04 #@! TO.C,R12*
D11*
X158304761Y-83402380D02*
X157733333Y-83402380D01*
X158019047Y-83402380D02*
X158019047Y-82402380D01*
X157923809Y-82545238D01*
X157828571Y-82640476D01*
X157733333Y-82688095D01*
X158923809Y-82402380D02*
X159019047Y-82402380D01*
X159114285Y-82450000D01*
X159161904Y-82497619D01*
X159209523Y-82592857D01*
X159257142Y-82783333D01*
X159257142Y-83021428D01*
X159209523Y-83211904D01*
X159161904Y-83307142D01*
X159114285Y-83354761D01*
X159019047Y-83402380D01*
X158923809Y-83402380D01*
X158828571Y-83354761D01*
X158780952Y-83307142D01*
X158733333Y-83211904D01*
X158685714Y-83021428D01*
X158685714Y-82783333D01*
X158733333Y-82592857D01*
X158780952Y-82497619D01*
X158828571Y-82450000D01*
X158923809Y-82402380D01*
X159685714Y-83402380D02*
X159685714Y-82402380D01*
X159780952Y-83021428D02*
X160066666Y-83402380D01*
X160066666Y-82735714D02*
X159685714Y-83116666D01*
D12*
X158642857Y-84680952D02*
X158509523Y-84490476D01*
X158414285Y-84680952D02*
X158414285Y-84280952D01*
X158566666Y-84280952D01*
X158604761Y-84300000D01*
X158623809Y-84319047D01*
X158642857Y-84357142D01*
X158642857Y-84414285D01*
X158623809Y-84452380D01*
X158604761Y-84471428D01*
X158566666Y-84490476D01*
X158414285Y-84490476D01*
X159023809Y-84680952D02*
X158795238Y-84680952D01*
X158909523Y-84680952D02*
X158909523Y-84280952D01*
X158871428Y-84338095D01*
X158833333Y-84376190D01*
X158795238Y-84395238D01*
X159176190Y-84319047D02*
X159195238Y-84300000D01*
X159233333Y-84280952D01*
X159328571Y-84280952D01*
X159366666Y-84300000D01*
X159385714Y-84319047D01*
X159404761Y-84357142D01*
X159404761Y-84395238D01*
X159385714Y-84452380D01*
X159157142Y-84680952D01*
X159404761Y-84680952D01*
G04 #@! TO.C,R13*
D11*
X168504761Y-85402380D02*
X167933333Y-85402380D01*
X168219047Y-85402380D02*
X168219047Y-84402380D01*
X168123809Y-84545238D01*
X168028571Y-84640476D01*
X167933333Y-84688095D01*
X169123809Y-84402380D02*
X169219047Y-84402380D01*
X169314285Y-84450000D01*
X169361904Y-84497619D01*
X169409523Y-84592857D01*
X169457142Y-84783333D01*
X169457142Y-85021428D01*
X169409523Y-85211904D01*
X169361904Y-85307142D01*
X169314285Y-85354761D01*
X169219047Y-85402380D01*
X169123809Y-85402380D01*
X169028571Y-85354761D01*
X168980952Y-85307142D01*
X168933333Y-85211904D01*
X168885714Y-85021428D01*
X168885714Y-84783333D01*
X168933333Y-84592857D01*
X168980952Y-84497619D01*
X169028571Y-84450000D01*
X169123809Y-84402380D01*
X169885714Y-85402380D02*
X169885714Y-84402380D01*
X169980952Y-85021428D02*
X170266666Y-85402380D01*
X170266666Y-84735714D02*
X169885714Y-85116666D01*
D12*
X168842857Y-86680952D02*
X168709523Y-86490476D01*
X168614285Y-86680952D02*
X168614285Y-86280952D01*
X168766666Y-86280952D01*
X168804761Y-86300000D01*
X168823809Y-86319047D01*
X168842857Y-86357142D01*
X168842857Y-86414285D01*
X168823809Y-86452380D01*
X168804761Y-86471428D01*
X168766666Y-86490476D01*
X168614285Y-86490476D01*
X169223809Y-86680952D02*
X168995238Y-86680952D01*
X169109523Y-86680952D02*
X169109523Y-86280952D01*
X169071428Y-86338095D01*
X169033333Y-86376190D01*
X168995238Y-86395238D01*
X169357142Y-86280952D02*
X169604761Y-86280952D01*
X169471428Y-86433333D01*
X169528571Y-86433333D01*
X169566666Y-86452380D01*
X169585714Y-86471428D01*
X169604761Y-86509523D01*
X169604761Y-86604761D01*
X169585714Y-86642857D01*
X169566666Y-86661904D01*
X169528571Y-86680952D01*
X169414285Y-86680952D01*
X169376190Y-86661904D01*
X169357142Y-86642857D01*
G04 #@! TO.C,SW1*
D11*
X157583333Y-78702380D02*
X157011904Y-78702380D01*
X157297619Y-78702380D02*
X157297619Y-77702380D01*
X157202380Y-77845238D01*
X157107142Y-77940476D01*
X157011904Y-77988095D01*
X158154761Y-78130952D02*
X158059523Y-78083333D01*
X158011904Y-78035714D01*
X157964285Y-77940476D01*
X157964285Y-77892857D01*
X158011904Y-77797619D01*
X158059523Y-77750000D01*
X158154761Y-77702380D01*
X158345238Y-77702380D01*
X158440476Y-77750000D01*
X158488095Y-77797619D01*
X158535714Y-77892857D01*
X158535714Y-77940476D01*
X158488095Y-78035714D01*
X158440476Y-78083333D01*
X158345238Y-78130952D01*
X158154761Y-78130952D01*
X158059523Y-78178571D01*
X158011904Y-78226190D01*
X157964285Y-78321428D01*
X157964285Y-78511904D01*
X158011904Y-78607142D01*
X158059523Y-78654761D01*
X158154761Y-78702380D01*
X158345238Y-78702380D01*
X158440476Y-78654761D01*
X158488095Y-78607142D01*
X158535714Y-78511904D01*
X158535714Y-78321428D01*
X158488095Y-78226190D01*
X158440476Y-78178571D01*
X158345238Y-78130952D01*
X158916666Y-77797619D02*
X158964285Y-77750000D01*
X159059523Y-77702380D01*
X159297619Y-77702380D01*
X159392857Y-77750000D01*
X159440476Y-77797619D01*
X159488095Y-77892857D01*
X159488095Y-77988095D01*
X159440476Y-78130952D01*
X158869047Y-78702380D01*
X159488095Y-78702380D01*
X160392857Y-77702380D02*
X159916666Y-77702380D01*
X159869047Y-78178571D01*
X159916666Y-78130952D01*
X160011904Y-78083333D01*
X160250000Y-78083333D01*
X160345238Y-78130952D01*
X160392857Y-78178571D01*
X160440476Y-78273809D01*
X160440476Y-78511904D01*
X160392857Y-78607142D01*
X160345238Y-78654761D01*
X160250000Y-78702380D01*
X160011904Y-78702380D01*
X159916666Y-78654761D01*
X159869047Y-78607142D01*
X160916666Y-78702380D02*
X161107142Y-78702380D01*
X161202380Y-78654761D01*
X161250000Y-78607142D01*
X161345238Y-78464285D01*
X161392857Y-78273809D01*
X161392857Y-77892857D01*
X161345238Y-77797619D01*
X161297619Y-77750000D01*
X161202380Y-77702380D01*
X161011904Y-77702380D01*
X160916666Y-77750000D01*
X160869047Y-77797619D01*
X160821428Y-77892857D01*
X160821428Y-78130952D01*
X160869047Y-78226190D01*
X160916666Y-78273809D01*
X161011904Y-78321428D01*
X161202380Y-78321428D01*
X161297619Y-78273809D01*
X161345238Y-78226190D01*
X161392857Y-78130952D01*
X162345238Y-78702380D02*
X161773809Y-78702380D01*
X162059523Y-78702380D02*
X162059523Y-77702380D01*
X161964285Y-77845238D01*
X161869047Y-77940476D01*
X161773809Y-77988095D01*
X162964285Y-77702380D02*
X163059523Y-77702380D01*
X163154761Y-77750000D01*
X163202380Y-77797619D01*
X163250000Y-77892857D01*
X163297619Y-78083333D01*
X163297619Y-78321428D01*
X163250000Y-78511904D01*
X163202380Y-78607142D01*
X163154761Y-78654761D01*
X163059523Y-78702380D01*
X162964285Y-78702380D01*
X162869047Y-78654761D01*
X162821428Y-78607142D01*
X162773809Y-78511904D01*
X162726190Y-78321428D01*
X162726190Y-78083333D01*
X162773809Y-77892857D01*
X162821428Y-77797619D01*
X162869047Y-77750000D01*
X162964285Y-77702380D01*
X163726190Y-78321428D02*
X164488095Y-78321428D01*
X165392857Y-77702380D02*
X165202380Y-77702380D01*
X165107142Y-77750000D01*
X165059523Y-77797619D01*
X164964285Y-77940476D01*
X164916666Y-78130952D01*
X164916666Y-78511904D01*
X164964285Y-78607142D01*
X165011904Y-78654761D01*
X165107142Y-78702380D01*
X165297619Y-78702380D01*
X165392857Y-78654761D01*
X165440476Y-78607142D01*
X165488095Y-78511904D01*
X165488095Y-78273809D01*
X165440476Y-78178571D01*
X165392857Y-78130952D01*
X165297619Y-78083333D01*
X165107142Y-78083333D01*
X165011904Y-78130952D01*
X164964285Y-78178571D01*
X164916666Y-78273809D01*
G04 #@! TO.C,SW2*
X167083333Y-78702380D02*
X166511904Y-78702380D01*
X166797619Y-78702380D02*
X166797619Y-77702380D01*
X166702380Y-77845238D01*
X166607142Y-77940476D01*
X166511904Y-77988095D01*
X167654761Y-78130952D02*
X167559523Y-78083333D01*
X167511904Y-78035714D01*
X167464285Y-77940476D01*
X167464285Y-77892857D01*
X167511904Y-77797619D01*
X167559523Y-77750000D01*
X167654761Y-77702380D01*
X167845238Y-77702380D01*
X167940476Y-77750000D01*
X167988095Y-77797619D01*
X168035714Y-77892857D01*
X168035714Y-77940476D01*
X167988095Y-78035714D01*
X167940476Y-78083333D01*
X167845238Y-78130952D01*
X167654761Y-78130952D01*
X167559523Y-78178571D01*
X167511904Y-78226190D01*
X167464285Y-78321428D01*
X167464285Y-78511904D01*
X167511904Y-78607142D01*
X167559523Y-78654761D01*
X167654761Y-78702380D01*
X167845238Y-78702380D01*
X167940476Y-78654761D01*
X167988095Y-78607142D01*
X168035714Y-78511904D01*
X168035714Y-78321428D01*
X167988095Y-78226190D01*
X167940476Y-78178571D01*
X167845238Y-78130952D01*
X168416666Y-77797619D02*
X168464285Y-77750000D01*
X168559523Y-77702380D01*
X168797619Y-77702380D01*
X168892857Y-77750000D01*
X168940476Y-77797619D01*
X168988095Y-77892857D01*
X168988095Y-77988095D01*
X168940476Y-78130952D01*
X168369047Y-78702380D01*
X168988095Y-78702380D01*
X169892857Y-77702380D02*
X169416666Y-77702380D01*
X169369047Y-78178571D01*
X169416666Y-78130952D01*
X169511904Y-78083333D01*
X169750000Y-78083333D01*
X169845238Y-78130952D01*
X169892857Y-78178571D01*
X169940476Y-78273809D01*
X169940476Y-78511904D01*
X169892857Y-78607142D01*
X169845238Y-78654761D01*
X169750000Y-78702380D01*
X169511904Y-78702380D01*
X169416666Y-78654761D01*
X169369047Y-78607142D01*
X170416666Y-78702380D02*
X170607142Y-78702380D01*
X170702380Y-78654761D01*
X170750000Y-78607142D01*
X170845238Y-78464285D01*
X170892857Y-78273809D01*
X170892857Y-77892857D01*
X170845238Y-77797619D01*
X170797619Y-77750000D01*
X170702380Y-77702380D01*
X170511904Y-77702380D01*
X170416666Y-77750000D01*
X170369047Y-77797619D01*
X170321428Y-77892857D01*
X170321428Y-78130952D01*
X170369047Y-78226190D01*
X170416666Y-78273809D01*
X170511904Y-78321428D01*
X170702380Y-78321428D01*
X170797619Y-78273809D01*
X170845238Y-78226190D01*
X170892857Y-78130952D01*
X171845238Y-78702380D02*
X171273809Y-78702380D01*
X171559523Y-78702380D02*
X171559523Y-77702380D01*
X171464285Y-77845238D01*
X171369047Y-77940476D01*
X171273809Y-77988095D01*
X172464285Y-77702380D02*
X172559523Y-77702380D01*
X172654761Y-77750000D01*
X172702380Y-77797619D01*
X172750000Y-77892857D01*
X172797619Y-78083333D01*
X172797619Y-78321428D01*
X172750000Y-78511904D01*
X172702380Y-78607142D01*
X172654761Y-78654761D01*
X172559523Y-78702380D01*
X172464285Y-78702380D01*
X172369047Y-78654761D01*
X172321428Y-78607142D01*
X172273809Y-78511904D01*
X172226190Y-78321428D01*
X172226190Y-78083333D01*
X172273809Y-77892857D01*
X172321428Y-77797619D01*
X172369047Y-77750000D01*
X172464285Y-77702380D01*
X173226190Y-78321428D02*
X173988095Y-78321428D01*
X174892857Y-77702380D02*
X174702380Y-77702380D01*
X174607142Y-77750000D01*
X174559523Y-77797619D01*
X174464285Y-77940476D01*
X174416666Y-78130952D01*
X174416666Y-78511904D01*
X174464285Y-78607142D01*
X174511904Y-78654761D01*
X174607142Y-78702380D01*
X174797619Y-78702380D01*
X174892857Y-78654761D01*
X174940476Y-78607142D01*
X174988095Y-78511904D01*
X174988095Y-78273809D01*
X174940476Y-78178571D01*
X174892857Y-78130952D01*
X174797619Y-78083333D01*
X174607142Y-78083333D01*
X174511904Y-78130952D01*
X174464285Y-78178571D01*
X174416666Y-78273809D01*
G04 #@! TO.C,U2*
X145116666Y-84190476D02*
X145116666Y-83714285D01*
X145402380Y-84285714D02*
X144402380Y-83952380D01*
X145402380Y-83619047D01*
X144402380Y-83428571D02*
X144402380Y-82857142D01*
X145402380Y-83142857D02*
X144402380Y-83142857D01*
X145402380Y-82523809D02*
X144735714Y-82523809D01*
X144830952Y-82523809D02*
X144783333Y-82476190D01*
X144735714Y-82380952D01*
X144735714Y-82238095D01*
X144783333Y-82142857D01*
X144878571Y-82095238D01*
X145402380Y-82095238D01*
X144878571Y-82095238D02*
X144783333Y-82047619D01*
X144735714Y-81952380D01*
X144735714Y-81809523D01*
X144783333Y-81714285D01*
X144878571Y-81666666D01*
X145402380Y-81666666D01*
X145354761Y-80809523D02*
X145402380Y-80904761D01*
X145402380Y-81095238D01*
X145354761Y-81190476D01*
X145259523Y-81238095D01*
X144878571Y-81238095D01*
X144783333Y-81190476D01*
X144735714Y-81095238D01*
X144735714Y-80904761D01*
X144783333Y-80809523D01*
X144878571Y-80761904D01*
X144973809Y-80761904D01*
X145069047Y-81238095D01*
X144735714Y-79904761D02*
X145545238Y-79904761D01*
X145640476Y-79952380D01*
X145688095Y-80000000D01*
X145735714Y-80095238D01*
X145735714Y-80238095D01*
X145688095Y-80333333D01*
X145354761Y-79904761D02*
X145402380Y-80000000D01*
X145402380Y-80190476D01*
X145354761Y-80285714D01*
X145307142Y-80333333D01*
X145211904Y-80380952D01*
X144926190Y-80380952D01*
X144830952Y-80333333D01*
X144783333Y-80285714D01*
X144735714Y-80190476D01*
X144735714Y-80000000D01*
X144783333Y-79904761D01*
X145402380Y-79000000D02*
X144878571Y-79000000D01*
X144783333Y-79047619D01*
X144735714Y-79142857D01*
X144735714Y-79333333D01*
X144783333Y-79428571D01*
X145354761Y-79000000D02*
X145402380Y-79095238D01*
X145402380Y-79333333D01*
X145354761Y-79428571D01*
X145259523Y-79476190D01*
X145164285Y-79476190D01*
X145069047Y-79428571D01*
X145021428Y-79333333D01*
X145021428Y-79095238D01*
X144973809Y-79000000D01*
X144402380Y-78619047D02*
X144402380Y-78000000D01*
X144783333Y-78333333D01*
X144783333Y-78190476D01*
X144830952Y-78095238D01*
X144878571Y-78047619D01*
X144973809Y-78000000D01*
X145211904Y-78000000D01*
X145307142Y-78047619D01*
X145354761Y-78095238D01*
X145402380Y-78190476D01*
X145402380Y-78476190D01*
X145354761Y-78571428D01*
X145307142Y-78619047D01*
X144497619Y-77619047D02*
X144450000Y-77571428D01*
X144402380Y-77476190D01*
X144402380Y-77238095D01*
X144450000Y-77142857D01*
X144497619Y-77095238D01*
X144592857Y-77047619D01*
X144688095Y-77047619D01*
X144830952Y-77095238D01*
X145402380Y-77666666D01*
X145402380Y-77047619D01*
X144830952Y-76476190D02*
X144783333Y-76571428D01*
X144735714Y-76619047D01*
X144640476Y-76666666D01*
X144592857Y-76666666D01*
X144497619Y-76619047D01*
X144450000Y-76571428D01*
X144402380Y-76476190D01*
X144402380Y-76285714D01*
X144450000Y-76190476D01*
X144497619Y-76142857D01*
X144592857Y-76095238D01*
X144640476Y-76095238D01*
X144735714Y-76142857D01*
X144783333Y-76190476D01*
X144830952Y-76285714D01*
X144830952Y-76476190D01*
X144878571Y-76571428D01*
X144926190Y-76619047D01*
X145021428Y-76666666D01*
X145211904Y-76666666D01*
X145307142Y-76619047D01*
X145354761Y-76571428D01*
X145402380Y-76476190D01*
X145402380Y-76285714D01*
X145354761Y-76190476D01*
X145307142Y-76142857D01*
X145211904Y-76095238D01*
X145021428Y-76095238D01*
X144926190Y-76142857D01*
X144878571Y-76190476D01*
X144830952Y-76285714D01*
X145402380Y-75666666D02*
X144402380Y-75666666D01*
X144402380Y-75285714D01*
X144450000Y-75190476D01*
X144497619Y-75142857D01*
X144592857Y-75095238D01*
X144735714Y-75095238D01*
X144830952Y-75142857D01*
X144878571Y-75190476D01*
X144926190Y-75285714D01*
X144926190Y-75666666D01*
X145021428Y-74666666D02*
X145021428Y-73904761D01*
X145402380Y-73428571D02*
X144402380Y-73428571D01*
X144402380Y-73047619D01*
X144450000Y-72952380D01*
X144497619Y-72904761D01*
X144592857Y-72857142D01*
X144735714Y-72857142D01*
X144830952Y-72904761D01*
X144878571Y-72952380D01*
X144926190Y-73047619D01*
X144926190Y-73428571D01*
X144402380Y-72428571D02*
X145211904Y-72428571D01*
X145307142Y-72380952D01*
X145354761Y-72333333D01*
X145402380Y-72238095D01*
X145402380Y-72047619D01*
X145354761Y-71952380D01*
X145307142Y-71904761D01*
X145211904Y-71857142D01*
X144402380Y-71857142D01*
X150452380Y-78761904D02*
X151261904Y-78761904D01*
X151357142Y-78714285D01*
X151404761Y-78666666D01*
X151452380Y-78571428D01*
X151452380Y-78380952D01*
X151404761Y-78285714D01*
X151357142Y-78238095D01*
X151261904Y-78190476D01*
X150452380Y-78190476D01*
X150547619Y-77761904D02*
X150500000Y-77714285D01*
X150452380Y-77619047D01*
X150452380Y-77380952D01*
X150500000Y-77285714D01*
X150547619Y-77238095D01*
X150642857Y-77190476D01*
X150738095Y-77190476D01*
X150880952Y-77238095D01*
X151452380Y-77809523D01*
X151452380Y-77190476D01*
G04 #@! TO.C,J6*
X126987142Y-80912857D02*
X127034761Y-80960476D01*
X127082380Y-81103333D01*
X127082380Y-81198571D01*
X127034761Y-81341428D01*
X126939523Y-81436666D01*
X126844285Y-81484285D01*
X126653809Y-81531904D01*
X126510952Y-81531904D01*
X126320476Y-81484285D01*
X126225238Y-81436666D01*
X126130000Y-81341428D01*
X126082380Y-81198571D01*
X126082380Y-81103333D01*
X126130000Y-80960476D01*
X126177619Y-80912857D01*
X127082380Y-80341428D02*
X127034761Y-80436666D01*
X126987142Y-80484285D01*
X126891904Y-80531904D01*
X126606190Y-80531904D01*
X126510952Y-80484285D01*
X126463333Y-80436666D01*
X126415714Y-80341428D01*
X126415714Y-80198571D01*
X126463333Y-80103333D01*
X126510952Y-80055714D01*
X126606190Y-80008095D01*
X126891904Y-80008095D01*
X126987142Y-80055714D01*
X127034761Y-80103333D01*
X127082380Y-80198571D01*
X127082380Y-80341428D01*
X126415714Y-79579523D02*
X127082380Y-79579523D01*
X126510952Y-79579523D02*
X126463333Y-79531904D01*
X126415714Y-79436666D01*
X126415714Y-79293809D01*
X126463333Y-79198571D01*
X126558571Y-79150952D01*
X127082380Y-79150952D01*
X126415714Y-78674761D02*
X127082380Y-78674761D01*
X126510952Y-78674761D02*
X126463333Y-78627142D01*
X126415714Y-78531904D01*
X126415714Y-78389047D01*
X126463333Y-78293809D01*
X126558571Y-78246190D01*
X127082380Y-78246190D01*
X127177619Y-78008095D02*
X127177619Y-77246190D01*
X126082380Y-76817619D02*
X126082380Y-76722380D01*
X126130000Y-76627142D01*
X126177619Y-76579523D01*
X126272857Y-76531904D01*
X126463333Y-76484285D01*
X126701428Y-76484285D01*
X126891904Y-76531904D01*
X126987142Y-76579523D01*
X127034761Y-76627142D01*
X127082380Y-76722380D01*
X127082380Y-76817619D01*
X127034761Y-76912857D01*
X126987142Y-76960476D01*
X126891904Y-77008095D01*
X126701428Y-77055714D01*
X126463333Y-77055714D01*
X126272857Y-77008095D01*
X126177619Y-76960476D01*
X126130000Y-76912857D01*
X126082380Y-76817619D01*
X126177619Y-76103333D02*
X126130000Y-76055714D01*
X126082380Y-75960476D01*
X126082380Y-75722380D01*
X126130000Y-75627142D01*
X126177619Y-75579523D01*
X126272857Y-75531904D01*
X126368095Y-75531904D01*
X126510952Y-75579523D01*
X127082380Y-76150952D01*
X127082380Y-75531904D01*
X127082380Y-75198571D02*
X126415714Y-74674761D01*
X126415714Y-75198571D02*
X127082380Y-74674761D01*
X126082380Y-74103333D02*
X126082380Y-74008095D01*
X126130000Y-73912857D01*
X126177619Y-73865238D01*
X126272857Y-73817619D01*
X126463333Y-73770000D01*
X126701428Y-73770000D01*
X126891904Y-73817619D01*
X126987142Y-73865238D01*
X127034761Y-73912857D01*
X127082380Y-74008095D01*
X127082380Y-74103333D01*
X127034761Y-74198571D01*
X126987142Y-74246190D01*
X126891904Y-74293809D01*
X126701428Y-74341428D01*
X126463333Y-74341428D01*
X126272857Y-74293809D01*
X126177619Y-74246190D01*
X126130000Y-74198571D01*
X126082380Y-74103333D01*
X126082380Y-73436666D02*
X126082380Y-72817619D01*
X126463333Y-73150952D01*
X126463333Y-73008095D01*
X126510952Y-72912857D01*
X126558571Y-72865238D01*
X126653809Y-72817619D01*
X126891904Y-72817619D01*
X126987142Y-72865238D01*
X127034761Y-72912857D01*
X127082380Y-73008095D01*
X127082380Y-73293809D01*
X127034761Y-73389047D01*
X126987142Y-73436666D01*
X127177619Y-72627142D02*
X127177619Y-71865238D01*
X126082380Y-71436666D02*
X126082380Y-71246190D01*
X126130000Y-71150952D01*
X126225238Y-71055714D01*
X126415714Y-71008095D01*
X126749047Y-71008095D01*
X126939523Y-71055714D01*
X127034761Y-71150952D01*
X127082380Y-71246190D01*
X127082380Y-71436666D01*
X127034761Y-71531904D01*
X126939523Y-71627142D01*
X126749047Y-71674761D01*
X126415714Y-71674761D01*
X126225238Y-71627142D01*
X126130000Y-71531904D01*
X126082380Y-71436666D01*
X127082380Y-70150952D02*
X126082380Y-70150952D01*
X127034761Y-70150952D02*
X127082380Y-70246190D01*
X127082380Y-70436666D01*
X127034761Y-70531904D01*
X126987142Y-70579523D01*
X126891904Y-70627142D01*
X126606190Y-70627142D01*
X126510952Y-70579523D01*
X126463333Y-70531904D01*
X126415714Y-70436666D01*
X126415714Y-70246190D01*
X126463333Y-70150952D01*
X127082380Y-69246190D02*
X126082380Y-69246190D01*
X127034761Y-69246190D02*
X127082380Y-69341428D01*
X127082380Y-69531904D01*
X127034761Y-69627142D01*
X126987142Y-69674761D01*
X126891904Y-69722380D01*
X126606190Y-69722380D01*
X126510952Y-69674761D01*
X126463333Y-69627142D01*
X126415714Y-69531904D01*
X126415714Y-69341428D01*
X126463333Y-69246190D01*
X127177619Y-69008095D02*
X127177619Y-68246190D01*
X126558571Y-68008095D02*
X126558571Y-67674761D01*
X127082380Y-67531904D02*
X127082380Y-68008095D01*
X126082380Y-68008095D01*
X126082380Y-67531904D01*
X126415714Y-67198571D02*
X127082380Y-66960476D01*
X126415714Y-66722380D01*
X127034761Y-65960476D02*
X127082380Y-66055714D01*
X127082380Y-66246190D01*
X127034761Y-66341428D01*
X126939523Y-66389047D01*
X126558571Y-66389047D01*
X126463333Y-66341428D01*
X126415714Y-66246190D01*
X126415714Y-66055714D01*
X126463333Y-65960476D01*
X126558571Y-65912857D01*
X126653809Y-65912857D01*
X126749047Y-66389047D01*
X126415714Y-65484285D02*
X127082380Y-65484285D01*
X126510952Y-65484285D02*
X126463333Y-65436666D01*
X126415714Y-65341428D01*
X126415714Y-65198571D01*
X126463333Y-65103333D01*
X126558571Y-65055714D01*
X127082380Y-65055714D01*
X131166666Y-72722380D02*
X131166666Y-73436666D01*
X131119047Y-73579523D01*
X131023809Y-73674761D01*
X130880952Y-73722380D01*
X130785714Y-73722380D01*
X132071428Y-72722380D02*
X131880952Y-72722380D01*
X131785714Y-72770000D01*
X131738095Y-72817619D01*
X131642857Y-72960476D01*
X131595238Y-73150952D01*
X131595238Y-73531904D01*
X131642857Y-73627142D01*
X131690476Y-73674761D01*
X131785714Y-73722380D01*
X131976190Y-73722380D01*
X132071428Y-73674761D01*
X132119047Y-73627142D01*
X132166666Y-73531904D01*
X132166666Y-73293809D01*
X132119047Y-73198571D01*
X132071428Y-73150952D01*
X131976190Y-73103333D01*
X131785714Y-73103333D01*
X131690476Y-73150952D01*
X131642857Y-73198571D01*
X131595238Y-73293809D01*
G04 #@! TO.C,C7*
X198952380Y-83142857D02*
X198952380Y-83714285D01*
X198952380Y-83428571D02*
X197952380Y-83428571D01*
X198095238Y-83523809D01*
X198190476Y-83619047D01*
X198238095Y-83714285D01*
X197952380Y-82523809D02*
X197952380Y-82428571D01*
X198000000Y-82333333D01*
X198047619Y-82285714D01*
X198142857Y-82238095D01*
X198333333Y-82190476D01*
X198571428Y-82190476D01*
X198761904Y-82238095D01*
X198857142Y-82285714D01*
X198904761Y-82333333D01*
X198952380Y-82428571D01*
X198952380Y-82523809D01*
X198904761Y-82619047D01*
X198857142Y-82666666D01*
X198761904Y-82714285D01*
X198571428Y-82761904D01*
X198333333Y-82761904D01*
X198142857Y-82714285D01*
X198047619Y-82666666D01*
X198000000Y-82619047D01*
X197952380Y-82523809D01*
X198285714Y-81761904D02*
X198952380Y-81761904D01*
X198380952Y-81761904D02*
X198333333Y-81714285D01*
X198285714Y-81619047D01*
X198285714Y-81476190D01*
X198333333Y-81380952D01*
X198428571Y-81333333D01*
X198952380Y-81333333D01*
X202357142Y-82666666D02*
X202404761Y-82714285D01*
X202452380Y-82857142D01*
X202452380Y-82952380D01*
X202404761Y-83095238D01*
X202309523Y-83190476D01*
X202214285Y-83238095D01*
X202023809Y-83285714D01*
X201880952Y-83285714D01*
X201690476Y-83238095D01*
X201595238Y-83190476D01*
X201500000Y-83095238D01*
X201452380Y-82952380D01*
X201452380Y-82857142D01*
X201500000Y-82714285D01*
X201547619Y-82666666D01*
X201452380Y-82333333D02*
X201452380Y-81666666D01*
X202452380Y-82095238D01*
G04 #@! TO.C,C8*
X193330952Y-79702380D02*
X192759523Y-79702380D01*
X193045238Y-79702380D02*
X193045238Y-78702380D01*
X192950000Y-78845238D01*
X192854761Y-78940476D01*
X192759523Y-78988095D01*
X193950000Y-78702380D02*
X194045238Y-78702380D01*
X194140476Y-78750000D01*
X194188095Y-78797619D01*
X194235714Y-78892857D01*
X194283333Y-79083333D01*
X194283333Y-79321428D01*
X194235714Y-79511904D01*
X194188095Y-79607142D01*
X194140476Y-79654761D01*
X194045238Y-79702380D01*
X193950000Y-79702380D01*
X193854761Y-79654761D01*
X193807142Y-79607142D01*
X193759523Y-79511904D01*
X193711904Y-79321428D01*
X193711904Y-79083333D01*
X193759523Y-78892857D01*
X193807142Y-78797619D01*
X193854761Y-78750000D01*
X193950000Y-78702380D01*
X194902380Y-78702380D02*
X194997619Y-78702380D01*
X195092857Y-78750000D01*
X195140476Y-78797619D01*
X195188095Y-78892857D01*
X195235714Y-79083333D01*
X195235714Y-79321428D01*
X195188095Y-79511904D01*
X195140476Y-79607142D01*
X195092857Y-79654761D01*
X194997619Y-79702380D01*
X194902380Y-79702380D01*
X194807142Y-79654761D01*
X194759523Y-79607142D01*
X194711904Y-79511904D01*
X194664285Y-79321428D01*
X194664285Y-79083333D01*
X194711904Y-78892857D01*
X194759523Y-78797619D01*
X194807142Y-78750000D01*
X194902380Y-78702380D01*
X195664285Y-79035714D02*
X195664285Y-79702380D01*
X195664285Y-79130952D02*
X195711904Y-79083333D01*
X195807142Y-79035714D01*
X195950000Y-79035714D01*
X196045238Y-79083333D01*
X196092857Y-79178571D01*
X196092857Y-79702380D01*
X194283333Y-82357142D02*
X194235714Y-82404761D01*
X194092857Y-82452380D01*
X193997619Y-82452380D01*
X193854761Y-82404761D01*
X193759523Y-82309523D01*
X193711904Y-82214285D01*
X193664285Y-82023809D01*
X193664285Y-81880952D01*
X193711904Y-81690476D01*
X193759523Y-81595238D01*
X193854761Y-81500000D01*
X193997619Y-81452380D01*
X194092857Y-81452380D01*
X194235714Y-81500000D01*
X194283333Y-81547619D01*
X194854761Y-81880952D02*
X194759523Y-81833333D01*
X194711904Y-81785714D01*
X194664285Y-81690476D01*
X194664285Y-81642857D01*
X194711904Y-81547619D01*
X194759523Y-81500000D01*
X194854761Y-81452380D01*
X195045238Y-81452380D01*
X195140476Y-81500000D01*
X195188095Y-81547619D01*
X195235714Y-81642857D01*
X195235714Y-81690476D01*
X195188095Y-81785714D01*
X195140476Y-81833333D01*
X195045238Y-81880952D01*
X194854761Y-81880952D01*
X194759523Y-81928571D01*
X194711904Y-81976190D01*
X194664285Y-82071428D01*
X194664285Y-82261904D01*
X194711904Y-82357142D01*
X194759523Y-82404761D01*
X194854761Y-82452380D01*
X195045238Y-82452380D01*
X195140476Y-82404761D01*
X195188095Y-82357142D01*
X195235714Y-82261904D01*
X195235714Y-82071428D01*
X195188095Y-81976190D01*
X195140476Y-81928571D01*
X195045238Y-81880952D01*
G04 #@! TO.C,C9*
X188380952Y-94952380D02*
X187809523Y-94952380D01*
X188095238Y-94952380D02*
X188095238Y-93952380D01*
X188000000Y-94095238D01*
X187904761Y-94190476D01*
X187809523Y-94238095D01*
X189000000Y-93952380D02*
X189095238Y-93952380D01*
X189190476Y-94000000D01*
X189238095Y-94047619D01*
X189285714Y-94142857D01*
X189333333Y-94333333D01*
X189333333Y-94571428D01*
X189285714Y-94761904D01*
X189238095Y-94857142D01*
X189190476Y-94904761D01*
X189095238Y-94952380D01*
X189000000Y-94952380D01*
X188904761Y-94904761D01*
X188857142Y-94857142D01*
X188809523Y-94761904D01*
X188761904Y-94571428D01*
X188761904Y-94333333D01*
X188809523Y-94142857D01*
X188857142Y-94047619D01*
X188904761Y-94000000D01*
X189000000Y-93952380D01*
X189952380Y-93952380D02*
X190047619Y-93952380D01*
X190142857Y-94000000D01*
X190190476Y-94047619D01*
X190238095Y-94142857D01*
X190285714Y-94333333D01*
X190285714Y-94571428D01*
X190238095Y-94761904D01*
X190190476Y-94857142D01*
X190142857Y-94904761D01*
X190047619Y-94952380D01*
X189952380Y-94952380D01*
X189857142Y-94904761D01*
X189809523Y-94857142D01*
X189761904Y-94761904D01*
X189714285Y-94571428D01*
X189714285Y-94333333D01*
X189761904Y-94142857D01*
X189809523Y-94047619D01*
X189857142Y-94000000D01*
X189952380Y-93952380D01*
X190714285Y-94285714D02*
X190714285Y-94952380D01*
X190714285Y-94380952D02*
X190761904Y-94333333D01*
X190857142Y-94285714D01*
X191000000Y-94285714D01*
X191095238Y-94333333D01*
X191142857Y-94428571D01*
X191142857Y-94952380D01*
X189333333Y-92107142D02*
X189285714Y-92154761D01*
X189142857Y-92202380D01*
X189047619Y-92202380D01*
X188904761Y-92154761D01*
X188809523Y-92059523D01*
X188761904Y-91964285D01*
X188714285Y-91773809D01*
X188714285Y-91630952D01*
X188761904Y-91440476D01*
X188809523Y-91345238D01*
X188904761Y-91250000D01*
X189047619Y-91202380D01*
X189142857Y-91202380D01*
X189285714Y-91250000D01*
X189333333Y-91297619D01*
X189809523Y-92202380D02*
X190000000Y-92202380D01*
X190095238Y-92154761D01*
X190142857Y-92107142D01*
X190238095Y-91964285D01*
X190285714Y-91773809D01*
X190285714Y-91392857D01*
X190238095Y-91297619D01*
X190190476Y-91250000D01*
X190095238Y-91202380D01*
X189904761Y-91202380D01*
X189809523Y-91250000D01*
X189761904Y-91297619D01*
X189714285Y-91392857D01*
X189714285Y-91630952D01*
X189761904Y-91726190D01*
X189809523Y-91773809D01*
X189904761Y-91821428D01*
X190095238Y-91821428D01*
X190190476Y-91773809D01*
X190238095Y-91726190D01*
X190285714Y-91630952D01*
G04 #@! TO.C,D4*
X186702380Y-73492857D02*
X186702380Y-73969047D01*
X185702380Y-73969047D01*
X186178571Y-73159523D02*
X186178571Y-72826190D01*
X186702380Y-72683333D02*
X186702380Y-73159523D01*
X185702380Y-73159523D01*
X185702380Y-72683333D01*
X186702380Y-72254761D02*
X185702380Y-72254761D01*
X185702380Y-72016666D01*
X185750000Y-71873809D01*
X185845238Y-71778571D01*
X185940476Y-71730952D01*
X186130952Y-71683333D01*
X186273809Y-71683333D01*
X186464285Y-71730952D01*
X186559523Y-71778571D01*
X186654761Y-71873809D01*
X186702380Y-72016666D01*
X186702380Y-72254761D01*
G04 #@! TO.C,FB1*
X200428571Y-86571428D02*
X200428571Y-86904761D01*
X200952380Y-86904761D02*
X199952380Y-86904761D01*
X199952380Y-86428571D01*
X200904761Y-85666666D02*
X200952380Y-85761904D01*
X200952380Y-85952380D01*
X200904761Y-86047619D01*
X200809523Y-86095238D01*
X200428571Y-86095238D01*
X200333333Y-86047619D01*
X200285714Y-85952380D01*
X200285714Y-85761904D01*
X200333333Y-85666666D01*
X200428571Y-85619047D01*
X200523809Y-85619047D01*
X200619047Y-86095238D01*
X200952380Y-85190476D02*
X200285714Y-85190476D01*
X200476190Y-85190476D02*
X200380952Y-85142857D01*
X200333333Y-85095238D01*
X200285714Y-85000000D01*
X200285714Y-84904761D01*
X200952380Y-84571428D02*
X200285714Y-84571428D01*
X200476190Y-84571428D02*
X200380952Y-84523809D01*
X200333333Y-84476190D01*
X200285714Y-84380952D01*
X200285714Y-84285714D01*
X200952380Y-83952380D02*
X200285714Y-83952380D01*
X199952380Y-83952380D02*
X200000000Y-84000000D01*
X200047619Y-83952380D01*
X200000000Y-83904761D01*
X199952380Y-83952380D01*
X200047619Y-83952380D01*
X200285714Y-83619047D02*
X200285714Y-83238095D01*
X199952380Y-83476190D02*
X200809523Y-83476190D01*
X200904761Y-83428571D01*
X200952380Y-83333333D01*
X200952380Y-83238095D01*
X200904761Y-82523809D02*
X200952380Y-82619047D01*
X200952380Y-82809523D01*
X200904761Y-82904761D01*
X200809523Y-82952380D01*
X200428571Y-82952380D01*
X200333333Y-82904761D01*
X200285714Y-82809523D01*
X200285714Y-82619047D01*
X200333333Y-82523809D01*
X200428571Y-82476190D01*
X200523809Y-82476190D01*
X200619047Y-82952380D01*
X201047619Y-82285714D02*
X201047619Y-81523809D01*
X200428571Y-80952380D02*
X200476190Y-80809523D01*
X200523809Y-80761904D01*
X200619047Y-80714285D01*
X200761904Y-80714285D01*
X200857142Y-80761904D01*
X200904761Y-80809523D01*
X200952380Y-80904761D01*
X200952380Y-81285714D01*
X199952380Y-81285714D01*
X199952380Y-80952380D01*
X200000000Y-80857142D01*
X200047619Y-80809523D01*
X200142857Y-80761904D01*
X200238095Y-80761904D01*
X200333333Y-80809523D01*
X200380952Y-80857142D01*
X200428571Y-80952380D01*
X200428571Y-81285714D01*
X200904761Y-79904761D02*
X200952380Y-80000000D01*
X200952380Y-80190476D01*
X200904761Y-80285714D01*
X200809523Y-80333333D01*
X200428571Y-80333333D01*
X200333333Y-80285714D01*
X200285714Y-80190476D01*
X200285714Y-80000000D01*
X200333333Y-79904761D01*
X200428571Y-79857142D01*
X200523809Y-79857142D01*
X200619047Y-80333333D01*
X200952380Y-79000000D02*
X200428571Y-79000000D01*
X200333333Y-79047619D01*
X200285714Y-79142857D01*
X200285714Y-79333333D01*
X200333333Y-79428571D01*
X200904761Y-79000000D02*
X200952380Y-79095238D01*
X200952380Y-79333333D01*
X200904761Y-79428571D01*
X200809523Y-79476190D01*
X200714285Y-79476190D01*
X200619047Y-79428571D01*
X200571428Y-79333333D01*
X200571428Y-79095238D01*
X200523809Y-79000000D01*
X200952380Y-78095238D02*
X199952380Y-78095238D01*
X200904761Y-78095238D02*
X200952380Y-78190476D01*
X200952380Y-78380952D01*
X200904761Y-78476190D01*
X200857142Y-78523809D01*
X200761904Y-78571428D01*
X200476190Y-78571428D01*
X200380952Y-78523809D01*
X200333333Y-78476190D01*
X200285714Y-78380952D01*
X200285714Y-78190476D01*
X200333333Y-78095238D01*
D12*
X202214285Y-82916666D02*
X202214285Y-83083333D01*
X202476190Y-83083333D02*
X201976190Y-83083333D01*
X201976190Y-82845238D01*
X202214285Y-82488095D02*
X202238095Y-82416666D01*
X202261904Y-82392857D01*
X202309523Y-82369047D01*
X202380952Y-82369047D01*
X202428571Y-82392857D01*
X202452380Y-82416666D01*
X202476190Y-82464285D01*
X202476190Y-82654761D01*
X201976190Y-82654761D01*
X201976190Y-82488095D01*
X202000000Y-82440476D01*
X202023809Y-82416666D01*
X202071428Y-82392857D01*
X202119047Y-82392857D01*
X202166666Y-82416666D01*
X202190476Y-82440476D01*
X202214285Y-82488095D01*
X202214285Y-82654761D01*
X202476190Y-81892857D02*
X202476190Y-82178571D01*
X202476190Y-82035714D02*
X201976190Y-82035714D01*
X202047619Y-82083333D01*
X202095238Y-82130952D01*
X202119047Y-82178571D01*
G04 #@! TO.C,H2*
D11*
X200928571Y-79652380D02*
X200928571Y-78652380D01*
X201261904Y-79366666D01*
X201595238Y-78652380D01*
X201595238Y-79652380D01*
X202214285Y-79652380D02*
X202119047Y-79604761D01*
X202071428Y-79557142D01*
X202023809Y-79461904D01*
X202023809Y-79176190D01*
X202071428Y-79080952D01*
X202119047Y-79033333D01*
X202214285Y-78985714D01*
X202357142Y-78985714D01*
X202452380Y-79033333D01*
X202500000Y-79080952D01*
X202547619Y-79176190D01*
X202547619Y-79461904D01*
X202500000Y-79557142D01*
X202452380Y-79604761D01*
X202357142Y-79652380D01*
X202214285Y-79652380D01*
X203404761Y-78985714D02*
X203404761Y-79652380D01*
X202976190Y-78985714D02*
X202976190Y-79509523D01*
X203023809Y-79604761D01*
X203119047Y-79652380D01*
X203261904Y-79652380D01*
X203357142Y-79604761D01*
X203404761Y-79557142D01*
X203880952Y-78985714D02*
X203880952Y-79652380D01*
X203880952Y-79080952D02*
X203928571Y-79033333D01*
X204023809Y-78985714D01*
X204166666Y-78985714D01*
X204261904Y-79033333D01*
X204309523Y-79128571D01*
X204309523Y-79652380D01*
X204642857Y-78985714D02*
X205023809Y-78985714D01*
X204785714Y-78652380D02*
X204785714Y-79509523D01*
X204833333Y-79604761D01*
X204928571Y-79652380D01*
X205023809Y-79652380D01*
X205357142Y-79652380D02*
X205357142Y-78985714D01*
X205357142Y-78652380D02*
X205309523Y-78700000D01*
X205357142Y-78747619D01*
X205404761Y-78700000D01*
X205357142Y-78652380D01*
X205357142Y-78747619D01*
X205833333Y-78985714D02*
X205833333Y-79652380D01*
X205833333Y-79080952D02*
X205880952Y-79033333D01*
X205976190Y-78985714D01*
X206119047Y-78985714D01*
X206214285Y-79033333D01*
X206261904Y-79128571D01*
X206261904Y-79652380D01*
X207166666Y-78985714D02*
X207166666Y-79795238D01*
X207119047Y-79890476D01*
X207071428Y-79938095D01*
X206976190Y-79985714D01*
X206833333Y-79985714D01*
X206738095Y-79938095D01*
X207166666Y-79604761D02*
X207071428Y-79652380D01*
X206880952Y-79652380D01*
X206785714Y-79604761D01*
X206738095Y-79557142D01*
X206690476Y-79461904D01*
X206690476Y-79176190D01*
X206738095Y-79080952D01*
X206785714Y-79033333D01*
X206880952Y-78985714D01*
X207071428Y-78985714D01*
X207166666Y-79033333D01*
X207642857Y-79652380D02*
X207642857Y-78652380D01*
X207642857Y-79128571D02*
X208214285Y-79128571D01*
X208214285Y-79652380D02*
X208214285Y-78652380D01*
X208833333Y-79652380D02*
X208738095Y-79604761D01*
X208690476Y-79557142D01*
X208642857Y-79461904D01*
X208642857Y-79176190D01*
X208690476Y-79080952D01*
X208738095Y-79033333D01*
X208833333Y-78985714D01*
X208976190Y-78985714D01*
X209071428Y-79033333D01*
X209119047Y-79080952D01*
X209166666Y-79176190D01*
X209166666Y-79461904D01*
X209119047Y-79557142D01*
X209071428Y-79604761D01*
X208976190Y-79652380D01*
X208833333Y-79652380D01*
X209738095Y-79652380D02*
X209642857Y-79604761D01*
X209595238Y-79509523D01*
X209595238Y-78652380D01*
X210500000Y-79604761D02*
X210404761Y-79652380D01*
X210214285Y-79652380D01*
X210119047Y-79604761D01*
X210071428Y-79509523D01*
X210071428Y-79128571D01*
X210119047Y-79033333D01*
X210214285Y-78985714D01*
X210404761Y-78985714D01*
X210500000Y-79033333D01*
X210547619Y-79128571D01*
X210547619Y-79223809D01*
X210071428Y-79319047D01*
X210738095Y-79747619D02*
X211500000Y-79747619D01*
X211738095Y-79652380D02*
X211738095Y-78652380D01*
X212119047Y-78652380D01*
X212214285Y-78700000D01*
X212261904Y-78747619D01*
X212309523Y-78842857D01*
X212309523Y-78985714D01*
X212261904Y-79080952D01*
X212214285Y-79128571D01*
X212119047Y-79176190D01*
X211738095Y-79176190D01*
X213166666Y-79652380D02*
X213166666Y-79128571D01*
X213119047Y-79033333D01*
X213023809Y-78985714D01*
X212833333Y-78985714D01*
X212738095Y-79033333D01*
X213166666Y-79604761D02*
X213071428Y-79652380D01*
X212833333Y-79652380D01*
X212738095Y-79604761D01*
X212690476Y-79509523D01*
X212690476Y-79414285D01*
X212738095Y-79319047D01*
X212833333Y-79271428D01*
X213071428Y-79271428D01*
X213166666Y-79223809D01*
X214071428Y-79652380D02*
X214071428Y-78652380D01*
X214071428Y-79604761D02*
X213976190Y-79652380D01*
X213785714Y-79652380D01*
X213690476Y-79604761D01*
X213642857Y-79557142D01*
X213595238Y-79461904D01*
X213595238Y-79176190D01*
X213642857Y-79080952D01*
X213690476Y-79033333D01*
X213785714Y-78985714D01*
X213976190Y-78985714D01*
X214071428Y-79033333D01*
X207038095Y-75452380D02*
X207038095Y-74452380D01*
X207038095Y-74928571D02*
X207609523Y-74928571D01*
X207609523Y-75452380D02*
X207609523Y-74452380D01*
X208038095Y-74547619D02*
X208085714Y-74500000D01*
X208180952Y-74452380D01*
X208419047Y-74452380D01*
X208514285Y-74500000D01*
X208561904Y-74547619D01*
X208609523Y-74642857D01*
X208609523Y-74738095D01*
X208561904Y-74880952D01*
X207990476Y-75452380D01*
X208609523Y-75452380D01*
G04 #@! TO.C,H3*
X113428571Y-94652380D02*
X113428571Y-93652380D01*
X113761904Y-94366666D01*
X114095238Y-93652380D01*
X114095238Y-94652380D01*
X114714285Y-94652380D02*
X114619047Y-94604761D01*
X114571428Y-94557142D01*
X114523809Y-94461904D01*
X114523809Y-94176190D01*
X114571428Y-94080952D01*
X114619047Y-94033333D01*
X114714285Y-93985714D01*
X114857142Y-93985714D01*
X114952380Y-94033333D01*
X115000000Y-94080952D01*
X115047619Y-94176190D01*
X115047619Y-94461904D01*
X115000000Y-94557142D01*
X114952380Y-94604761D01*
X114857142Y-94652380D01*
X114714285Y-94652380D01*
X115904761Y-93985714D02*
X115904761Y-94652380D01*
X115476190Y-93985714D02*
X115476190Y-94509523D01*
X115523809Y-94604761D01*
X115619047Y-94652380D01*
X115761904Y-94652380D01*
X115857142Y-94604761D01*
X115904761Y-94557142D01*
X116380952Y-93985714D02*
X116380952Y-94652380D01*
X116380952Y-94080952D02*
X116428571Y-94033333D01*
X116523809Y-93985714D01*
X116666666Y-93985714D01*
X116761904Y-94033333D01*
X116809523Y-94128571D01*
X116809523Y-94652380D01*
X117142857Y-93985714D02*
X117523809Y-93985714D01*
X117285714Y-93652380D02*
X117285714Y-94509523D01*
X117333333Y-94604761D01*
X117428571Y-94652380D01*
X117523809Y-94652380D01*
X117857142Y-94652380D02*
X117857142Y-93985714D01*
X117857142Y-93652380D02*
X117809523Y-93700000D01*
X117857142Y-93747619D01*
X117904761Y-93700000D01*
X117857142Y-93652380D01*
X117857142Y-93747619D01*
X118333333Y-93985714D02*
X118333333Y-94652380D01*
X118333333Y-94080952D02*
X118380952Y-94033333D01*
X118476190Y-93985714D01*
X118619047Y-93985714D01*
X118714285Y-94033333D01*
X118761904Y-94128571D01*
X118761904Y-94652380D01*
X119666666Y-93985714D02*
X119666666Y-94795238D01*
X119619047Y-94890476D01*
X119571428Y-94938095D01*
X119476190Y-94985714D01*
X119333333Y-94985714D01*
X119238095Y-94938095D01*
X119666666Y-94604761D02*
X119571428Y-94652380D01*
X119380952Y-94652380D01*
X119285714Y-94604761D01*
X119238095Y-94557142D01*
X119190476Y-94461904D01*
X119190476Y-94176190D01*
X119238095Y-94080952D01*
X119285714Y-94033333D01*
X119380952Y-93985714D01*
X119571428Y-93985714D01*
X119666666Y-94033333D01*
X120142857Y-94652380D02*
X120142857Y-93652380D01*
X120142857Y-94128571D02*
X120714285Y-94128571D01*
X120714285Y-94652380D02*
X120714285Y-93652380D01*
X121333333Y-94652380D02*
X121238095Y-94604761D01*
X121190476Y-94557142D01*
X121142857Y-94461904D01*
X121142857Y-94176190D01*
X121190476Y-94080952D01*
X121238095Y-94033333D01*
X121333333Y-93985714D01*
X121476190Y-93985714D01*
X121571428Y-94033333D01*
X121619047Y-94080952D01*
X121666666Y-94176190D01*
X121666666Y-94461904D01*
X121619047Y-94557142D01*
X121571428Y-94604761D01*
X121476190Y-94652380D01*
X121333333Y-94652380D01*
X122238095Y-94652380D02*
X122142857Y-94604761D01*
X122095238Y-94509523D01*
X122095238Y-93652380D01*
X123000000Y-94604761D02*
X122904761Y-94652380D01*
X122714285Y-94652380D01*
X122619047Y-94604761D01*
X122571428Y-94509523D01*
X122571428Y-94128571D01*
X122619047Y-94033333D01*
X122714285Y-93985714D01*
X122904761Y-93985714D01*
X123000000Y-94033333D01*
X123047619Y-94128571D01*
X123047619Y-94223809D01*
X122571428Y-94319047D01*
X123238095Y-94747619D02*
X124000000Y-94747619D01*
X124238095Y-94652380D02*
X124238095Y-93652380D01*
X124619047Y-93652380D01*
X124714285Y-93700000D01*
X124761904Y-93747619D01*
X124809523Y-93842857D01*
X124809523Y-93985714D01*
X124761904Y-94080952D01*
X124714285Y-94128571D01*
X124619047Y-94176190D01*
X124238095Y-94176190D01*
X125666666Y-94652380D02*
X125666666Y-94128571D01*
X125619047Y-94033333D01*
X125523809Y-93985714D01*
X125333333Y-93985714D01*
X125238095Y-94033333D01*
X125666666Y-94604761D02*
X125571428Y-94652380D01*
X125333333Y-94652380D01*
X125238095Y-94604761D01*
X125190476Y-94509523D01*
X125190476Y-94414285D01*
X125238095Y-94319047D01*
X125333333Y-94271428D01*
X125571428Y-94271428D01*
X125666666Y-94223809D01*
X126571428Y-94652380D02*
X126571428Y-93652380D01*
X126571428Y-94604761D02*
X126476190Y-94652380D01*
X126285714Y-94652380D01*
X126190476Y-94604761D01*
X126142857Y-94557142D01*
X126095238Y-94461904D01*
X126095238Y-94176190D01*
X126142857Y-94080952D01*
X126190476Y-94033333D01*
X126285714Y-93985714D01*
X126476190Y-93985714D01*
X126571428Y-94033333D01*
X119538095Y-90452380D02*
X119538095Y-89452380D01*
X119538095Y-89928571D02*
X120109523Y-89928571D01*
X120109523Y-90452380D02*
X120109523Y-89452380D01*
X120490476Y-89452380D02*
X121109523Y-89452380D01*
X120776190Y-89833333D01*
X120919047Y-89833333D01*
X121014285Y-89880952D01*
X121061904Y-89928571D01*
X121109523Y-90023809D01*
X121109523Y-90261904D01*
X121061904Y-90357142D01*
X121014285Y-90404761D01*
X120919047Y-90452380D01*
X120633333Y-90452380D01*
X120538095Y-90404761D01*
X120490476Y-90357142D01*
G04 #@! TO.C,H4*
X200928571Y-94652380D02*
X200928571Y-93652380D01*
X201261904Y-94366666D01*
X201595238Y-93652380D01*
X201595238Y-94652380D01*
X202214285Y-94652380D02*
X202119047Y-94604761D01*
X202071428Y-94557142D01*
X202023809Y-94461904D01*
X202023809Y-94176190D01*
X202071428Y-94080952D01*
X202119047Y-94033333D01*
X202214285Y-93985714D01*
X202357142Y-93985714D01*
X202452380Y-94033333D01*
X202500000Y-94080952D01*
X202547619Y-94176190D01*
X202547619Y-94461904D01*
X202500000Y-94557142D01*
X202452380Y-94604761D01*
X202357142Y-94652380D01*
X202214285Y-94652380D01*
X203404761Y-93985714D02*
X203404761Y-94652380D01*
X202976190Y-93985714D02*
X202976190Y-94509523D01*
X203023809Y-94604761D01*
X203119047Y-94652380D01*
X203261904Y-94652380D01*
X203357142Y-94604761D01*
X203404761Y-94557142D01*
X203880952Y-93985714D02*
X203880952Y-94652380D01*
X203880952Y-94080952D02*
X203928571Y-94033333D01*
X204023809Y-93985714D01*
X204166666Y-93985714D01*
X204261904Y-94033333D01*
X204309523Y-94128571D01*
X204309523Y-94652380D01*
X204642857Y-93985714D02*
X205023809Y-93985714D01*
X204785714Y-93652380D02*
X204785714Y-94509523D01*
X204833333Y-94604761D01*
X204928571Y-94652380D01*
X205023809Y-94652380D01*
X205357142Y-94652380D02*
X205357142Y-93985714D01*
X205357142Y-93652380D02*
X205309523Y-93700000D01*
X205357142Y-93747619D01*
X205404761Y-93700000D01*
X205357142Y-93652380D01*
X205357142Y-93747619D01*
X205833333Y-93985714D02*
X205833333Y-94652380D01*
X205833333Y-94080952D02*
X205880952Y-94033333D01*
X205976190Y-93985714D01*
X206119047Y-93985714D01*
X206214285Y-94033333D01*
X206261904Y-94128571D01*
X206261904Y-94652380D01*
X207166666Y-93985714D02*
X207166666Y-94795238D01*
X207119047Y-94890476D01*
X207071428Y-94938095D01*
X206976190Y-94985714D01*
X206833333Y-94985714D01*
X206738095Y-94938095D01*
X207166666Y-94604761D02*
X207071428Y-94652380D01*
X206880952Y-94652380D01*
X206785714Y-94604761D01*
X206738095Y-94557142D01*
X206690476Y-94461904D01*
X206690476Y-94176190D01*
X206738095Y-94080952D01*
X206785714Y-94033333D01*
X206880952Y-93985714D01*
X207071428Y-93985714D01*
X207166666Y-94033333D01*
X207642857Y-94652380D02*
X207642857Y-93652380D01*
X207642857Y-94128571D02*
X208214285Y-94128571D01*
X208214285Y-94652380D02*
X208214285Y-93652380D01*
X208833333Y-94652380D02*
X208738095Y-94604761D01*
X208690476Y-94557142D01*
X208642857Y-94461904D01*
X208642857Y-94176190D01*
X208690476Y-94080952D01*
X208738095Y-94033333D01*
X208833333Y-93985714D01*
X208976190Y-93985714D01*
X209071428Y-94033333D01*
X209119047Y-94080952D01*
X209166666Y-94176190D01*
X209166666Y-94461904D01*
X209119047Y-94557142D01*
X209071428Y-94604761D01*
X208976190Y-94652380D01*
X208833333Y-94652380D01*
X209738095Y-94652380D02*
X209642857Y-94604761D01*
X209595238Y-94509523D01*
X209595238Y-93652380D01*
X210500000Y-94604761D02*
X210404761Y-94652380D01*
X210214285Y-94652380D01*
X210119047Y-94604761D01*
X210071428Y-94509523D01*
X210071428Y-94128571D01*
X210119047Y-94033333D01*
X210214285Y-93985714D01*
X210404761Y-93985714D01*
X210500000Y-94033333D01*
X210547619Y-94128571D01*
X210547619Y-94223809D01*
X210071428Y-94319047D01*
X210738095Y-94747619D02*
X211500000Y-94747619D01*
X211738095Y-94652380D02*
X211738095Y-93652380D01*
X212119047Y-93652380D01*
X212214285Y-93700000D01*
X212261904Y-93747619D01*
X212309523Y-93842857D01*
X212309523Y-93985714D01*
X212261904Y-94080952D01*
X212214285Y-94128571D01*
X212119047Y-94176190D01*
X211738095Y-94176190D01*
X213166666Y-94652380D02*
X213166666Y-94128571D01*
X213119047Y-94033333D01*
X213023809Y-93985714D01*
X212833333Y-93985714D01*
X212738095Y-94033333D01*
X213166666Y-94604761D02*
X213071428Y-94652380D01*
X212833333Y-94652380D01*
X212738095Y-94604761D01*
X212690476Y-94509523D01*
X212690476Y-94414285D01*
X212738095Y-94319047D01*
X212833333Y-94271428D01*
X213071428Y-94271428D01*
X213166666Y-94223809D01*
X214071428Y-94652380D02*
X214071428Y-93652380D01*
X214071428Y-94604761D02*
X213976190Y-94652380D01*
X213785714Y-94652380D01*
X213690476Y-94604761D01*
X213642857Y-94557142D01*
X213595238Y-94461904D01*
X213595238Y-94176190D01*
X213642857Y-94080952D01*
X213690476Y-94033333D01*
X213785714Y-93985714D01*
X213976190Y-93985714D01*
X214071428Y-94033333D01*
X207038095Y-90452380D02*
X207038095Y-89452380D01*
X207038095Y-89928571D02*
X207609523Y-89928571D01*
X207609523Y-90452380D02*
X207609523Y-89452380D01*
X208514285Y-89785714D02*
X208514285Y-90452380D01*
X208276190Y-89404761D02*
X208038095Y-90119047D01*
X208657142Y-90119047D01*
G04 #@! TO.C,J7*
X204302380Y-77242857D02*
X205111904Y-77242857D01*
X205207142Y-77195238D01*
X205254761Y-77147619D01*
X205302380Y-77052380D01*
X205302380Y-76861904D01*
X205254761Y-76766666D01*
X205207142Y-76719047D01*
X205111904Y-76671428D01*
X204302380Y-76671428D01*
X205254761Y-76242857D02*
X205302380Y-76100000D01*
X205302380Y-75861904D01*
X205254761Y-75766666D01*
X205207142Y-75719047D01*
X205111904Y-75671428D01*
X205016666Y-75671428D01*
X204921428Y-75719047D01*
X204873809Y-75766666D01*
X204826190Y-75861904D01*
X204778571Y-76052380D01*
X204730952Y-76147619D01*
X204683333Y-76195238D01*
X204588095Y-76242857D01*
X204492857Y-76242857D01*
X204397619Y-76195238D01*
X204350000Y-76147619D01*
X204302380Y-76052380D01*
X204302380Y-75814285D01*
X204350000Y-75671428D01*
X204778571Y-74909523D02*
X204826190Y-74766666D01*
X204873809Y-74719047D01*
X204969047Y-74671428D01*
X205111904Y-74671428D01*
X205207142Y-74719047D01*
X205254761Y-74766666D01*
X205302380Y-74861904D01*
X205302380Y-75242857D01*
X204302380Y-75242857D01*
X204302380Y-74909523D01*
X204350000Y-74814285D01*
X204397619Y-74766666D01*
X204492857Y-74719047D01*
X204588095Y-74719047D01*
X204683333Y-74766666D01*
X204730952Y-74814285D01*
X204778571Y-74909523D01*
X204778571Y-75242857D01*
X205397619Y-74480952D02*
X205397619Y-73719047D01*
X204778571Y-73147619D02*
X204826190Y-73004761D01*
X204873809Y-72957142D01*
X204969047Y-72909523D01*
X205111904Y-72909523D01*
X205207142Y-72957142D01*
X205254761Y-73004761D01*
X205302380Y-73100000D01*
X205302380Y-73480952D01*
X204302380Y-73480952D01*
X204302380Y-73147619D01*
X204350000Y-73052380D01*
X204397619Y-73004761D01*
X204492857Y-72957142D01*
X204588095Y-72957142D01*
X204683333Y-73004761D01*
X204730952Y-73052380D01*
X204778571Y-73147619D01*
X204778571Y-73480952D01*
G04 #@! TO.C,R14*
X188480952Y-80752380D02*
X187909523Y-80752380D01*
X188195238Y-80752380D02*
X188195238Y-79752380D01*
X188100000Y-79895238D01*
X188004761Y-79990476D01*
X187909523Y-80038095D01*
X188909523Y-80752380D02*
X188909523Y-79752380D01*
X189004761Y-80371428D02*
X189290476Y-80752380D01*
X189290476Y-80085714D02*
X188909523Y-80466666D01*
D12*
X188342857Y-78930952D02*
X188209523Y-78740476D01*
X188114285Y-78930952D02*
X188114285Y-78530952D01*
X188266666Y-78530952D01*
X188304761Y-78550000D01*
X188323809Y-78569047D01*
X188342857Y-78607142D01*
X188342857Y-78664285D01*
X188323809Y-78702380D01*
X188304761Y-78721428D01*
X188266666Y-78740476D01*
X188114285Y-78740476D01*
X188723809Y-78930952D02*
X188495238Y-78930952D01*
X188609523Y-78930952D02*
X188609523Y-78530952D01*
X188571428Y-78588095D01*
X188533333Y-78626190D01*
X188495238Y-78645238D01*
X189066666Y-78664285D02*
X189066666Y-78930952D01*
X188971428Y-78511904D02*
X188876190Y-78797619D01*
X189123809Y-78797619D01*
G04 #@! TO.C,R15*
D11*
X188480952Y-79002380D02*
X187909523Y-79002380D01*
X188195238Y-79002380D02*
X188195238Y-78002380D01*
X188100000Y-78145238D01*
X188004761Y-78240476D01*
X187909523Y-78288095D01*
X188909523Y-79002380D02*
X188909523Y-78002380D01*
X189004761Y-78621428D02*
X189290476Y-79002380D01*
X189290476Y-78335714D02*
X188909523Y-78716666D01*
D12*
X188342857Y-77180952D02*
X188209523Y-76990476D01*
X188114285Y-77180952D02*
X188114285Y-76780952D01*
X188266666Y-76780952D01*
X188304761Y-76800000D01*
X188323809Y-76819047D01*
X188342857Y-76857142D01*
X188342857Y-76914285D01*
X188323809Y-76952380D01*
X188304761Y-76971428D01*
X188266666Y-76990476D01*
X188114285Y-76990476D01*
X188723809Y-77180952D02*
X188495238Y-77180952D01*
X188609523Y-77180952D02*
X188609523Y-76780952D01*
X188571428Y-76838095D01*
X188533333Y-76876190D01*
X188495238Y-76895238D01*
X189085714Y-76780952D02*
X188895238Y-76780952D01*
X188876190Y-76971428D01*
X188895238Y-76952380D01*
X188933333Y-76933333D01*
X189028571Y-76933333D01*
X189066666Y-76952380D01*
X189085714Y-76971428D01*
X189104761Y-77009523D01*
X189104761Y-77104761D01*
X189085714Y-77142857D01*
X189066666Y-77161904D01*
X189028571Y-77180952D01*
X188933333Y-77180952D01*
X188895238Y-77161904D01*
X188876190Y-77142857D01*
G04 #@! TO.C,R16*
D11*
X182402380Y-83885714D02*
X182402380Y-83266666D01*
X182783333Y-83600000D01*
X182783333Y-83457142D01*
X182830952Y-83361904D01*
X182878571Y-83314285D01*
X182973809Y-83266666D01*
X183211904Y-83266666D01*
X183307142Y-83314285D01*
X183354761Y-83361904D01*
X183402380Y-83457142D01*
X183402380Y-83742857D01*
X183354761Y-83838095D01*
X183307142Y-83885714D01*
X182402380Y-82933333D02*
X182402380Y-82314285D01*
X182783333Y-82647619D01*
X182783333Y-82504761D01*
X182830952Y-82409523D01*
X182878571Y-82361904D01*
X182973809Y-82314285D01*
X183211904Y-82314285D01*
X183307142Y-82361904D01*
X183354761Y-82409523D01*
X183402380Y-82504761D01*
X183402380Y-82790476D01*
X183354761Y-82885714D01*
X183307142Y-82933333D01*
X182402380Y-81695238D02*
X182402380Y-81600000D01*
X182450000Y-81504761D01*
X182497619Y-81457142D01*
X182592857Y-81409523D01*
X182783333Y-81361904D01*
X183021428Y-81361904D01*
X183211904Y-81409523D01*
X183307142Y-81457142D01*
X183354761Y-81504761D01*
X183402380Y-81600000D01*
X183402380Y-81695238D01*
X183354761Y-81790476D01*
X183307142Y-81838095D01*
X183211904Y-81885714D01*
X183021428Y-81933333D01*
X182783333Y-81933333D01*
X182592857Y-81885714D01*
X182497619Y-81838095D01*
X182450000Y-81790476D01*
X182402380Y-81695238D01*
D12*
X184680952Y-82857142D02*
X184490476Y-82990476D01*
X184680952Y-83085714D02*
X184280952Y-83085714D01*
X184280952Y-82933333D01*
X184300000Y-82895238D01*
X184319047Y-82876190D01*
X184357142Y-82857142D01*
X184414285Y-82857142D01*
X184452380Y-82876190D01*
X184471428Y-82895238D01*
X184490476Y-82933333D01*
X184490476Y-83085714D01*
X184680952Y-82476190D02*
X184680952Y-82704761D01*
X184680952Y-82590476D02*
X184280952Y-82590476D01*
X184338095Y-82628571D01*
X184376190Y-82666666D01*
X184395238Y-82704761D01*
X184280952Y-82133333D02*
X184280952Y-82209523D01*
X184300000Y-82247619D01*
X184319047Y-82266666D01*
X184376190Y-82304761D01*
X184452380Y-82323809D01*
X184604761Y-82323809D01*
X184642857Y-82304761D01*
X184661904Y-82285714D01*
X184680952Y-82247619D01*
X184680952Y-82171428D01*
X184661904Y-82133333D01*
X184642857Y-82114285D01*
X184604761Y-82095238D01*
X184509523Y-82095238D01*
X184471428Y-82114285D01*
X184452380Y-82133333D01*
X184433333Y-82171428D01*
X184433333Y-82247619D01*
X184452380Y-82285714D01*
X184471428Y-82304761D01*
X184509523Y-82323809D01*
G04 #@! TO.C,Y1*
D11*
X146057142Y-80592857D02*
X146104761Y-80640476D01*
X146152380Y-80783333D01*
X146152380Y-80878571D01*
X146104761Y-81021428D01*
X146009523Y-81116666D01*
X145914285Y-81164285D01*
X145723809Y-81211904D01*
X145580952Y-81211904D01*
X145390476Y-81164285D01*
X145295238Y-81116666D01*
X145200000Y-81021428D01*
X145152380Y-80878571D01*
X145152380Y-80783333D01*
X145200000Y-80640476D01*
X145247619Y-80592857D01*
X146152380Y-80164285D02*
X145485714Y-80164285D01*
X145676190Y-80164285D02*
X145580952Y-80116666D01*
X145533333Y-80069047D01*
X145485714Y-79973809D01*
X145485714Y-79878571D01*
X145485714Y-79640476D02*
X146152380Y-79402380D01*
X145485714Y-79164285D02*
X146152380Y-79402380D01*
X146390476Y-79497619D01*
X146438095Y-79545238D01*
X146485714Y-79640476D01*
X146104761Y-78830952D02*
X146152380Y-78735714D01*
X146152380Y-78545238D01*
X146104761Y-78450000D01*
X146009523Y-78402380D01*
X145961904Y-78402380D01*
X145866666Y-78450000D01*
X145819047Y-78545238D01*
X145819047Y-78688095D01*
X145771428Y-78783333D01*
X145676190Y-78830952D01*
X145628571Y-78830952D01*
X145533333Y-78783333D01*
X145485714Y-78688095D01*
X145485714Y-78545238D01*
X145533333Y-78450000D01*
X145485714Y-78116666D02*
X145485714Y-77735714D01*
X145152380Y-77973809D02*
X146009523Y-77973809D01*
X146104761Y-77926190D01*
X146152380Y-77830952D01*
X146152380Y-77735714D01*
X146152380Y-76973809D02*
X145628571Y-76973809D01*
X145533333Y-77021428D01*
X145485714Y-77116666D01*
X145485714Y-77307142D01*
X145533333Y-77402380D01*
X146104761Y-76973809D02*
X146152380Y-77069047D01*
X146152380Y-77307142D01*
X146104761Y-77402380D01*
X146009523Y-77450000D01*
X145914285Y-77450000D01*
X145819047Y-77402380D01*
X145771428Y-77307142D01*
X145771428Y-77069047D01*
X145723809Y-76973809D01*
X146152380Y-76354761D02*
X146104761Y-76450000D01*
X146009523Y-76497619D01*
X145152380Y-76497619D01*
X146247619Y-76211904D02*
X146247619Y-75450000D01*
X145200000Y-74688095D02*
X145152380Y-74783333D01*
X145152380Y-74926190D01*
X145200000Y-75069047D01*
X145295238Y-75164285D01*
X145390476Y-75211904D01*
X145580952Y-75259523D01*
X145723809Y-75259523D01*
X145914285Y-75211904D01*
X146009523Y-75164285D01*
X146104761Y-75069047D01*
X146152380Y-74926190D01*
X146152380Y-74830952D01*
X146104761Y-74688095D01*
X146057142Y-74640476D01*
X145723809Y-74640476D01*
X145723809Y-74830952D01*
X146152380Y-74211904D02*
X145152380Y-74211904D01*
X146152380Y-73640476D01*
X145152380Y-73640476D01*
X146152380Y-73164285D02*
X145152380Y-73164285D01*
X145152380Y-72926190D01*
X145200000Y-72783333D01*
X145295238Y-72688095D01*
X145390476Y-72640476D01*
X145580952Y-72592857D01*
X145723809Y-72592857D01*
X145914285Y-72640476D01*
X146009523Y-72688095D01*
X146104761Y-72783333D01*
X146152380Y-72926190D01*
X146152380Y-73164285D01*
X145247619Y-72211904D02*
X145200000Y-72164285D01*
X145152380Y-72069047D01*
X145152380Y-71830952D01*
X145200000Y-71735714D01*
X145247619Y-71688095D01*
X145342857Y-71640476D01*
X145438095Y-71640476D01*
X145580952Y-71688095D01*
X146152380Y-72259523D01*
X146152380Y-71640476D01*
X145485714Y-70783333D02*
X146152380Y-70783333D01*
X145104761Y-71021428D02*
X145819047Y-71259523D01*
X145819047Y-70640476D01*
D13*
X142633333Y-76283333D02*
X142966666Y-76283333D01*
X142266666Y-76516666D02*
X142633333Y-76283333D01*
X142266666Y-76050000D01*
X142966666Y-75450000D02*
X142966666Y-75850000D01*
X142966666Y-75650000D02*
X142266666Y-75650000D01*
X142366666Y-75716666D01*
X142433333Y-75783333D01*
X142466666Y-75850000D01*
G04 #@! TO.C,U3*
D11*
X199678571Y-88971428D02*
X199678571Y-89304761D01*
X200202380Y-89304761D02*
X199202380Y-89304761D01*
X199202380Y-88828571D01*
X199202380Y-88590476D02*
X199202380Y-88019047D01*
X200202380Y-88304761D02*
X199202380Y-88304761D01*
X199297619Y-87733333D02*
X199250000Y-87685714D01*
X199202380Y-87590476D01*
X199202380Y-87352380D01*
X199250000Y-87257142D01*
X199297619Y-87209523D01*
X199392857Y-87161904D01*
X199488095Y-87161904D01*
X199630952Y-87209523D01*
X200202380Y-87780952D01*
X200202380Y-87161904D01*
X199202380Y-86828571D02*
X199202380Y-86209523D01*
X199583333Y-86542857D01*
X199583333Y-86400000D01*
X199630952Y-86304761D01*
X199678571Y-86257142D01*
X199773809Y-86209523D01*
X200011904Y-86209523D01*
X200107142Y-86257142D01*
X200154761Y-86304761D01*
X200202380Y-86400000D01*
X200202380Y-86685714D01*
X200154761Y-86780952D01*
X200107142Y-86828571D01*
X199297619Y-85828571D02*
X199250000Y-85780952D01*
X199202380Y-85685714D01*
X199202380Y-85447619D01*
X199250000Y-85352380D01*
X199297619Y-85304761D01*
X199392857Y-85257142D01*
X199488095Y-85257142D01*
X199630952Y-85304761D01*
X200202380Y-85876190D01*
X200202380Y-85257142D01*
X200202380Y-84257142D02*
X199726190Y-84590476D01*
X200202380Y-84828571D02*
X199202380Y-84828571D01*
X199202380Y-84447619D01*
X199250000Y-84352380D01*
X199297619Y-84304761D01*
X199392857Y-84257142D01*
X199535714Y-84257142D01*
X199630952Y-84304761D01*
X199678571Y-84352380D01*
X199726190Y-84447619D01*
X199726190Y-84828571D01*
X200202380Y-83352380D02*
X200202380Y-83828571D01*
X199202380Y-83828571D01*
X193061904Y-87009523D02*
X193709523Y-87009523D01*
X193785714Y-86971428D01*
X193823809Y-86933333D01*
X193861904Y-86857142D01*
X193861904Y-86704761D01*
X193823809Y-86628571D01*
X193785714Y-86590476D01*
X193709523Y-86552380D01*
X193061904Y-86552380D01*
X193061904Y-86247619D02*
X193061904Y-85752380D01*
X193366666Y-86019047D01*
X193366666Y-85904761D01*
X193404761Y-85828571D01*
X193442857Y-85790476D01*
X193519047Y-85752380D01*
X193709523Y-85752380D01*
X193785714Y-85790476D01*
X193823809Y-85828571D01*
X193861904Y-85904761D01*
X193861904Y-86133333D01*
X193823809Y-86209523D01*
X193785714Y-86247619D01*
G04 #@! TO.C,J8*
X203807142Y-98833333D02*
X203854761Y-98880952D01*
X203902380Y-99023809D01*
X203902380Y-99119047D01*
X203854761Y-99261904D01*
X203759523Y-99357142D01*
X203664285Y-99404761D01*
X203473809Y-99452380D01*
X203330952Y-99452380D01*
X203140476Y-99404761D01*
X203045238Y-99357142D01*
X202950000Y-99261904D01*
X202902380Y-99119047D01*
X202902380Y-99023809D01*
X202950000Y-98880952D01*
X202997619Y-98833333D01*
X203902380Y-98261904D02*
X203854761Y-98357142D01*
X203807142Y-98404761D01*
X203711904Y-98452380D01*
X203426190Y-98452380D01*
X203330952Y-98404761D01*
X203283333Y-98357142D01*
X203235714Y-98261904D01*
X203235714Y-98119047D01*
X203283333Y-98023809D01*
X203330952Y-97976190D01*
X203426190Y-97928571D01*
X203711904Y-97928571D01*
X203807142Y-97976190D01*
X203854761Y-98023809D01*
X203902380Y-98119047D01*
X203902380Y-98261904D01*
X203235714Y-97500000D02*
X203902380Y-97500000D01*
X203330952Y-97500000D02*
X203283333Y-97452380D01*
X203235714Y-97357142D01*
X203235714Y-97214285D01*
X203283333Y-97119047D01*
X203378571Y-97071428D01*
X203902380Y-97071428D01*
X203235714Y-96595238D02*
X203902380Y-96595238D01*
X203330952Y-96595238D02*
X203283333Y-96547619D01*
X203235714Y-96452380D01*
X203235714Y-96309523D01*
X203283333Y-96214285D01*
X203378571Y-96166666D01*
X203902380Y-96166666D01*
X203997619Y-95928571D02*
X203997619Y-95166666D01*
X202902380Y-94738095D02*
X202902380Y-94642857D01*
X202950000Y-94547619D01*
X202997619Y-94500000D01*
X203092857Y-94452380D01*
X203283333Y-94404761D01*
X203521428Y-94404761D01*
X203711904Y-94452380D01*
X203807142Y-94500000D01*
X203854761Y-94547619D01*
X203902380Y-94642857D01*
X203902380Y-94738095D01*
X203854761Y-94833333D01*
X203807142Y-94880952D01*
X203711904Y-94928571D01*
X203521428Y-94976190D01*
X203283333Y-94976190D01*
X203092857Y-94928571D01*
X202997619Y-94880952D01*
X202950000Y-94833333D01*
X202902380Y-94738095D01*
X203902380Y-93452380D02*
X203902380Y-94023809D01*
X203902380Y-93738095D02*
X202902380Y-93738095D01*
X203045238Y-93833333D01*
X203140476Y-93928571D01*
X203188095Y-94023809D01*
X203902380Y-93119047D02*
X203235714Y-92595238D01*
X203235714Y-93119047D02*
X203902380Y-92595238D01*
X202902380Y-92023809D02*
X202902380Y-91928571D01*
X202950000Y-91833333D01*
X202997619Y-91785714D01*
X203092857Y-91738095D01*
X203283333Y-91690476D01*
X203521428Y-91690476D01*
X203711904Y-91738095D01*
X203807142Y-91785714D01*
X203854761Y-91833333D01*
X203902380Y-91928571D01*
X203902380Y-92023809D01*
X203854761Y-92119047D01*
X203807142Y-92166666D01*
X203711904Y-92214285D01*
X203521428Y-92261904D01*
X203283333Y-92261904D01*
X203092857Y-92214285D01*
X202997619Y-92166666D01*
X202950000Y-92119047D01*
X202902380Y-92023809D01*
X203235714Y-90833333D02*
X203902380Y-90833333D01*
X202854761Y-91071428D02*
X203569047Y-91309523D01*
X203569047Y-90690476D01*
X203997619Y-90547619D02*
X203997619Y-89785714D01*
X203902380Y-89547619D02*
X202902380Y-89547619D01*
X203616666Y-89214285D01*
X202902380Y-88880952D01*
X203902380Y-88880952D01*
X203902380Y-87976190D02*
X203378571Y-87976190D01*
X203283333Y-88023809D01*
X203235714Y-88119047D01*
X203235714Y-88309523D01*
X203283333Y-88404761D01*
X203854761Y-87976190D02*
X203902380Y-88071428D01*
X203902380Y-88309523D01*
X203854761Y-88404761D01*
X203759523Y-88452380D01*
X203664285Y-88452380D01*
X203569047Y-88404761D01*
X203521428Y-88309523D01*
X203521428Y-88071428D01*
X203473809Y-87976190D01*
X203902380Y-87357142D02*
X203854761Y-87452380D01*
X203759523Y-87500000D01*
X202902380Y-87500000D01*
X203854761Y-86595238D02*
X203902380Y-86690476D01*
X203902380Y-86880952D01*
X203854761Y-86976190D01*
X203759523Y-87023809D01*
X203378571Y-87023809D01*
X203283333Y-86976190D01*
X203235714Y-86880952D01*
X203235714Y-86690476D01*
X203283333Y-86595238D01*
X203378571Y-86547619D01*
X203473809Y-86547619D01*
X203569047Y-87023809D01*
X196976666Y-92452380D02*
X196976666Y-93166666D01*
X196929047Y-93309523D01*
X196833809Y-93404761D01*
X196690952Y-93452380D01*
X196595714Y-93452380D01*
X197595714Y-92880952D02*
X197500476Y-92833333D01*
X197452857Y-92785714D01*
X197405238Y-92690476D01*
X197405238Y-92642857D01*
X197452857Y-92547619D01*
X197500476Y-92500000D01*
X197595714Y-92452380D01*
X197786190Y-92452380D01*
X197881428Y-92500000D01*
X197929047Y-92547619D01*
X197976666Y-92642857D01*
X197976666Y-92690476D01*
X197929047Y-92785714D01*
X197881428Y-92833333D01*
X197786190Y-92880952D01*
X197595714Y-92880952D01*
X197500476Y-92928571D01*
X197452857Y-92976190D01*
X197405238Y-93071428D01*
X197405238Y-93261904D01*
X197452857Y-93357142D01*
X197500476Y-93404761D01*
X197595714Y-93452380D01*
X197786190Y-93452380D01*
X197881428Y-93404761D01*
X197929047Y-93357142D01*
X197976666Y-93261904D01*
X197976666Y-93071428D01*
X197929047Y-92976190D01*
X197881428Y-92928571D01*
X197786190Y-92880952D01*
G04 #@! TD*
M02*
