M48
;DRILL file {KiCad (5.0.1-3-g963ef8bb5)} date Monday, March 04, 2019 at 08:59:08 PM
;FORMAT={-:-/ absolute / inch / decimal}
FMAT,2
INCH,TZ
T1C0.0200
T2C0.0276
T3C0.0315
T4C0.0354
T5C0.0394
T6C0.0598
T7C0.1693
T8C0.1811
%
G90
G05
M72
T1
X7.2638Y-3.4941
T2
X7.2244Y-3.3465
X7.3228Y-3.3465
X7.2638Y-2.8543
X7.3622Y-2.8543
T3
X4.9803Y-3.0906
X4.9803Y-3.1906
X5.2559Y-2.8346
X5.2559Y-2.9331
X6.1811Y-2.9528
X6.2795Y-2.9528
X6.811Y-3.3661
X6.911Y-3.3661
X8.0512Y-3.002
X8.0512Y-3.102
X6.4567Y-2.9528
X6.4567Y-3.1449
X6.6528Y-2.9528
X6.6528Y-3.2528
X6.7528Y-2.9528
X6.7528Y-3.2528
X6.8528Y-2.9528
X6.8528Y-3.2528
X6.9528Y-2.9528
X6.9528Y-3.2528
X7.0528Y-2.9528
X7.0528Y-3.2528
X7.1528Y-2.9528
X7.1528Y-3.2528
X7.2528Y-2.9528
X7.2528Y-3.2528
X7.3528Y-2.9528
X7.3528Y-3.2528
X7.4528Y-2.9528
X7.4528Y-3.2528
X7.5528Y-2.9528
X7.5528Y-3.2528
X7.6528Y-2.9528
X7.6528Y-3.2528
X7.7528Y-2.9528
X7.7528Y-3.2528
X7.8528Y-2.9528
X7.8528Y-3.2528
X7.9528Y-2.9528
X7.9528Y-3.2528
X8.2972Y-3.5728
X8.2972Y-3.6728
X5.0197Y-2.8346
X5.0197Y-2.9331
X6.3386Y-3.5024
X6.3386Y-3.6024
X5.7283Y-2.8346
X5.7283Y-2.9331
X7.6575Y-3.3661
X7.7575Y-3.3661
X7.874Y-3.3661
X7.974Y-3.3661
X5.9646Y-2.8937
X5.9646Y-2.9921
X8.1874Y-2.8346
X8.2874Y-2.8346
X7.874Y-2.8346
X7.974Y-2.8346
X6.1811Y-3.189
X6.2795Y-3.189
X7.4409Y-3.3661
X7.5409Y-3.3661
X5.4921Y-2.8346
X5.4921Y-2.9331
X7.0276Y-3.3661
X7.1276Y-3.3661
T4
X8.0709Y-3.2382
X8.1709Y-3.2382
X8.1988Y-3.3661
X8.2988Y-3.3661
X8.2087Y-3.1201
X8.3087Y-3.1201
T5
X7.4016Y-3.5433
X7.5Y-3.5433
X7.5984Y-3.5433
X7.6969Y-3.5433
X7.7953Y-3.5433
X7.8937Y-3.5433
X5.0197Y-3.4024
X5.0197Y-3.5024
X5.0197Y-3.6024
X6.4961Y-3.3827
X6.4961Y-3.4827
X6.4961Y-3.5827
X6.5961Y-3.3827
X6.5961Y-3.4827
X6.5961Y-3.5827
X6.1811Y-3.4039
X6.1811Y-3.5039
X6.1811Y-3.6039
X5.8071Y-3.189
X5.9071Y-3.189
X6.0071Y-3.189
X6.811Y-3.5433
X6.9094Y-3.5433
X7.0079Y-3.5433
X7.1063Y-3.5433
T6
X5.315Y-3.5433
X5.515Y-3.5433
X5.748Y-3.5433
X5.948Y-3.5433
T7
X5.5118Y-3.189
T8
X5.2283Y-3.189
T0
M30
