G04 #@! TF.GenerationSoftware,KiCad,Pcbnew,(5.0.1-3-g963ef8bb5)*
G04 #@! TF.CreationDate,2019-03-04T20:59:00-06:00*
G04 #@! TF.ProjectId,SmartNerfBlaster,536D6172744E657266426C6173746572,v1*
G04 #@! TF.SameCoordinates,Original*
G04 #@! TF.FileFunction,Soldermask,Top*
G04 #@! TF.FilePolarity,Negative*
%FSLAX46Y46*%
G04 Gerber Fmt 4.6, Leading zero omitted, Abs format (unit mm)*
G04 Created by KiCad (PCBNEW (5.0.1-3-g963ef8bb5)) date Monday, March 04, 2019 at 08:59:00 PM*
%MOMM*%
%LPD*%
G01*
G04 APERTURE LIST*
%ADD10C,0.100000*%
G04 APERTURE END LIST*
D10*
G36*
X210916821Y-92451313D02*
X210916824Y-92451314D01*
X210916825Y-92451314D01*
X211077239Y-92499975D01*
X211077241Y-92499976D01*
X211077244Y-92499977D01*
X211225078Y-92578995D01*
X211354659Y-92685341D01*
X211461005Y-92814922D01*
X211540023Y-92962756D01*
X211588687Y-93123179D01*
X211605117Y-93290000D01*
X211588687Y-93456821D01*
X211540023Y-93617244D01*
X211461005Y-93765078D01*
X211354659Y-93894659D01*
X211225078Y-94001005D01*
X211077244Y-94080023D01*
X211077241Y-94080024D01*
X211077239Y-94080025D01*
X210916825Y-94128686D01*
X210916824Y-94128686D01*
X210916821Y-94128687D01*
X210791804Y-94141000D01*
X210708196Y-94141000D01*
X210583179Y-94128687D01*
X210583176Y-94128686D01*
X210583175Y-94128686D01*
X210422761Y-94080025D01*
X210422759Y-94080024D01*
X210422756Y-94080023D01*
X210274922Y-94001005D01*
X210145341Y-93894659D01*
X210038995Y-93765078D01*
X209959977Y-93617244D01*
X209911313Y-93456821D01*
X209894883Y-93290000D01*
X209911313Y-93123179D01*
X209959977Y-92962756D01*
X210038995Y-92814922D01*
X210145341Y-92685341D01*
X210274922Y-92578995D01*
X210422756Y-92499977D01*
X210422759Y-92499976D01*
X210422761Y-92499975D01*
X210583175Y-92451314D01*
X210583176Y-92451314D01*
X210583179Y-92451313D01*
X210708196Y-92439000D01*
X210791804Y-92439000D01*
X210916821Y-92451313D01*
X210916821Y-92451313D01*
G37*
G36*
X157951000Y-92491000D02*
X156049000Y-92491000D01*
X156049000Y-90589000D01*
X157951000Y-90589000D01*
X157951000Y-92491000D01*
X157951000Y-92491000D01*
G37*
G36*
X128451000Y-92451000D02*
X126549000Y-92451000D01*
X126549000Y-90549000D01*
X128451000Y-90549000D01*
X128451000Y-92451000D01*
X128451000Y-92451000D01*
G37*
G36*
X161248228Y-90681703D02*
X161403100Y-90745853D01*
X161542481Y-90838985D01*
X161661015Y-90957519D01*
X161754147Y-91096900D01*
X161818297Y-91251772D01*
X161851000Y-91416184D01*
X161851000Y-91583816D01*
X161818297Y-91748228D01*
X161754147Y-91903100D01*
X161661015Y-92042481D01*
X161542481Y-92161015D01*
X161403100Y-92254147D01*
X161248228Y-92318297D01*
X161083816Y-92351000D01*
X160916184Y-92351000D01*
X160751772Y-92318297D01*
X160596900Y-92254147D01*
X160457519Y-92161015D01*
X160338985Y-92042481D01*
X160245853Y-91903100D01*
X160181703Y-91748228D01*
X160149000Y-91583816D01*
X160149000Y-91416184D01*
X160181703Y-91251772D01*
X160245853Y-91096900D01*
X160338985Y-90957519D01*
X160457519Y-90838985D01*
X160596900Y-90745853D01*
X160751772Y-90681703D01*
X160916184Y-90649000D01*
X161083816Y-90649000D01*
X161248228Y-90681703D01*
X161248228Y-90681703D01*
G37*
G36*
X167650443Y-90105519D02*
X167716627Y-90112037D01*
X167829853Y-90146384D01*
X167886467Y-90163557D01*
X168025087Y-90237652D01*
X168042991Y-90247222D01*
X168078729Y-90276552D01*
X168180186Y-90359814D01*
X168256176Y-90452410D01*
X168292778Y-90497009D01*
X168292779Y-90497011D01*
X168376443Y-90653533D01*
X168384988Y-90681703D01*
X168427963Y-90823373D01*
X168445359Y-91000000D01*
X168427963Y-91176627D01*
X168405168Y-91251772D01*
X168376443Y-91346467D01*
X168302348Y-91485087D01*
X168292778Y-91502991D01*
X168291829Y-91504147D01*
X168180186Y-91640186D01*
X168078729Y-91723448D01*
X168042991Y-91752778D01*
X168042989Y-91752779D01*
X167886467Y-91836443D01*
X167829853Y-91853616D01*
X167716627Y-91887963D01*
X167650443Y-91894481D01*
X167584260Y-91901000D01*
X167495740Y-91901000D01*
X167429558Y-91894482D01*
X167363373Y-91887963D01*
X167250147Y-91853616D01*
X167193533Y-91836443D01*
X167037011Y-91752779D01*
X167037009Y-91752778D01*
X167001271Y-91723448D01*
X166899814Y-91640186D01*
X166788171Y-91504147D01*
X166787222Y-91502991D01*
X166777652Y-91485087D01*
X166703557Y-91346467D01*
X166674832Y-91251772D01*
X166652037Y-91176627D01*
X166634641Y-91000000D01*
X166652037Y-90823373D01*
X166695012Y-90681703D01*
X166703557Y-90653533D01*
X166787221Y-90497011D01*
X166787222Y-90497009D01*
X166823824Y-90452410D01*
X166899814Y-90359814D01*
X167001271Y-90276552D01*
X167037009Y-90247222D01*
X167054913Y-90237652D01*
X167193533Y-90163557D01*
X167250147Y-90146384D01*
X167363373Y-90112037D01*
X167429557Y-90105519D01*
X167495740Y-90099000D01*
X167584260Y-90099000D01*
X167650443Y-90105519D01*
X167650443Y-90105519D01*
G37*
G36*
X165110443Y-90105519D02*
X165176627Y-90112037D01*
X165289853Y-90146384D01*
X165346467Y-90163557D01*
X165485087Y-90237652D01*
X165502991Y-90247222D01*
X165538729Y-90276552D01*
X165640186Y-90359814D01*
X165716176Y-90452410D01*
X165752778Y-90497009D01*
X165752779Y-90497011D01*
X165836443Y-90653533D01*
X165844988Y-90681703D01*
X165887963Y-90823373D01*
X165905359Y-91000000D01*
X165887963Y-91176627D01*
X165865168Y-91251772D01*
X165836443Y-91346467D01*
X165762348Y-91485087D01*
X165752778Y-91502991D01*
X165751829Y-91504147D01*
X165640186Y-91640186D01*
X165538729Y-91723448D01*
X165502991Y-91752778D01*
X165502989Y-91752779D01*
X165346467Y-91836443D01*
X165289853Y-91853616D01*
X165176627Y-91887963D01*
X165110443Y-91894481D01*
X165044260Y-91901000D01*
X164955740Y-91901000D01*
X164889558Y-91894482D01*
X164823373Y-91887963D01*
X164710147Y-91853616D01*
X164653533Y-91836443D01*
X164497011Y-91752779D01*
X164497009Y-91752778D01*
X164461271Y-91723448D01*
X164359814Y-91640186D01*
X164248171Y-91504147D01*
X164247222Y-91502991D01*
X164237652Y-91485087D01*
X164163557Y-91346467D01*
X164134832Y-91251772D01*
X164112037Y-91176627D01*
X164094641Y-91000000D01*
X164112037Y-90823373D01*
X164155012Y-90681703D01*
X164163557Y-90653533D01*
X164247221Y-90497011D01*
X164247222Y-90497009D01*
X164283824Y-90452410D01*
X164359814Y-90359814D01*
X164461271Y-90276552D01*
X164497009Y-90247222D01*
X164514913Y-90237652D01*
X164653533Y-90163557D01*
X164710147Y-90146384D01*
X164823373Y-90112037D01*
X164889557Y-90105519D01*
X164955740Y-90099000D01*
X165044260Y-90099000D01*
X165110443Y-90105519D01*
X165110443Y-90105519D01*
G37*
G36*
X207875256Y-88391298D02*
X207981579Y-88412447D01*
X208282042Y-88536903D01*
X208367950Y-88594305D01*
X208552454Y-88717587D01*
X208782413Y-88947546D01*
X208782415Y-88947549D01*
X208959636Y-89212778D01*
X208963098Y-89217960D01*
X208991794Y-89287239D01*
X209076155Y-89490903D01*
X209087553Y-89518422D01*
X209151000Y-89837389D01*
X209151000Y-90162611D01*
X209129618Y-90270104D01*
X209087553Y-90481579D01*
X209059626Y-90549000D01*
X208982718Y-90734674D01*
X208963097Y-90782042D01*
X208925049Y-90838985D01*
X208782413Y-91052454D01*
X208552454Y-91282413D01*
X208552451Y-91282415D01*
X208282042Y-91463097D01*
X207981579Y-91587553D01*
X207913976Y-91601000D01*
X207662611Y-91651000D01*
X207337389Y-91651000D01*
X207086024Y-91601000D01*
X207018421Y-91587553D01*
X206717958Y-91463097D01*
X206447549Y-91282415D01*
X206447546Y-91282413D01*
X206217587Y-91052454D01*
X206074951Y-90838985D01*
X206036903Y-90782042D01*
X206017283Y-90734674D01*
X205940374Y-90549000D01*
X205912447Y-90481579D01*
X205870382Y-90270104D01*
X205849000Y-90162611D01*
X205849000Y-89837389D01*
X205912447Y-89518422D01*
X205923846Y-89490903D01*
X206008206Y-89287239D01*
X206036902Y-89217960D01*
X206040365Y-89212778D01*
X206217585Y-88947549D01*
X206217587Y-88947546D01*
X206447546Y-88717587D01*
X206632050Y-88594305D01*
X206717958Y-88536903D01*
X207018421Y-88412447D01*
X207124744Y-88391298D01*
X207337389Y-88349000D01*
X207662611Y-88349000D01*
X207875256Y-88391298D01*
X207875256Y-88391298D01*
G37*
G36*
X120375256Y-88391298D02*
X120481579Y-88412447D01*
X120782042Y-88536903D01*
X120867950Y-88594305D01*
X121052454Y-88717587D01*
X121282413Y-88947546D01*
X121282415Y-88947549D01*
X121459636Y-89212778D01*
X121463098Y-89217960D01*
X121491794Y-89287239D01*
X121576155Y-89490903D01*
X121587553Y-89518422D01*
X121651000Y-89837389D01*
X121651000Y-90162611D01*
X121629618Y-90270104D01*
X121587553Y-90481579D01*
X121559626Y-90549000D01*
X121482718Y-90734674D01*
X121463097Y-90782042D01*
X121425049Y-90838985D01*
X121282413Y-91052454D01*
X121052454Y-91282413D01*
X121052451Y-91282415D01*
X120782042Y-91463097D01*
X120481579Y-91587553D01*
X120413976Y-91601000D01*
X120162611Y-91651000D01*
X119837389Y-91651000D01*
X119586024Y-91601000D01*
X119518421Y-91587553D01*
X119217958Y-91463097D01*
X118947549Y-91282415D01*
X118947546Y-91282413D01*
X118717587Y-91052454D01*
X118574951Y-90838985D01*
X118536903Y-90782042D01*
X118517283Y-90734674D01*
X118440374Y-90549000D01*
X118412447Y-90481579D01*
X118370382Y-90270104D01*
X118349000Y-90162611D01*
X118349000Y-89837389D01*
X118412447Y-89518422D01*
X118423846Y-89490903D01*
X118508206Y-89287239D01*
X118536902Y-89217960D01*
X118540365Y-89212778D01*
X118717585Y-88947549D01*
X118717587Y-88947546D01*
X118947546Y-88717587D01*
X119132050Y-88594305D01*
X119217958Y-88536903D01*
X119518421Y-88412447D01*
X119624744Y-88391298D01*
X119837389Y-88349000D01*
X120162611Y-88349000D01*
X120375256Y-88391298D01*
X120375256Y-88391298D01*
G37*
G36*
X210998228Y-89931703D02*
X211153100Y-89995853D01*
X211292481Y-90088985D01*
X211411015Y-90207519D01*
X211504147Y-90346900D01*
X211568297Y-90501772D01*
X211601000Y-90666184D01*
X211601000Y-90833816D01*
X211568297Y-90998228D01*
X211504147Y-91153100D01*
X211411015Y-91292481D01*
X211292481Y-91411015D01*
X211153100Y-91504147D01*
X210998228Y-91568297D01*
X210833816Y-91601000D01*
X210666184Y-91601000D01*
X210501772Y-91568297D01*
X210346900Y-91504147D01*
X210207519Y-91411015D01*
X210088985Y-91292481D01*
X209995853Y-91153100D01*
X209931703Y-90998228D01*
X209899000Y-90833816D01*
X209899000Y-90666184D01*
X209931703Y-90501772D01*
X209995853Y-90346900D01*
X210088985Y-90207519D01*
X210207519Y-90088985D01*
X210346900Y-89995853D01*
X210501772Y-89931703D01*
X210666184Y-89899000D01*
X210833816Y-89899000D01*
X210998228Y-89931703D01*
X210998228Y-89931703D01*
G37*
G36*
X151432527Y-88488736D02*
X151532410Y-88508604D01*
X151814674Y-88625521D01*
X152068705Y-88795259D01*
X152284741Y-89011295D01*
X152454479Y-89265326D01*
X152571396Y-89547590D01*
X152571396Y-89547591D01*
X152631000Y-89847238D01*
X152631000Y-90152762D01*
X152607659Y-90270104D01*
X152571396Y-90452410D01*
X152454479Y-90734674D01*
X152284741Y-90988705D01*
X152068705Y-91204741D01*
X151814674Y-91374479D01*
X151532410Y-91491396D01*
X151468311Y-91504146D01*
X151232762Y-91551000D01*
X150927238Y-91551000D01*
X150691689Y-91504146D01*
X150627590Y-91491396D01*
X150345326Y-91374479D01*
X150091295Y-91204741D01*
X149875259Y-90988705D01*
X149705521Y-90734674D01*
X149588604Y-90452410D01*
X149552341Y-90270104D01*
X149529000Y-90152762D01*
X149529000Y-89847238D01*
X149588604Y-89547591D01*
X149588604Y-89547590D01*
X149705521Y-89265326D01*
X149875259Y-89011295D01*
X150091295Y-88795259D01*
X150345326Y-88625521D01*
X150627590Y-88508604D01*
X150727473Y-88488736D01*
X150927238Y-88449000D01*
X151232762Y-88449000D01*
X151432527Y-88488736D01*
X151432527Y-88488736D01*
G37*
G36*
X147551000Y-91551000D02*
X144449000Y-91551000D01*
X144449000Y-88449000D01*
X147551000Y-88449000D01*
X147551000Y-91551000D01*
X147551000Y-91551000D01*
G37*
G36*
X136551000Y-91551000D02*
X133449000Y-91551000D01*
X133449000Y-88449000D01*
X136551000Y-88449000D01*
X136551000Y-91551000D01*
X136551000Y-91551000D01*
G37*
G36*
X140432527Y-88488736D02*
X140532410Y-88508604D01*
X140814674Y-88625521D01*
X141068705Y-88795259D01*
X141284741Y-89011295D01*
X141454479Y-89265326D01*
X141571396Y-89547590D01*
X141571396Y-89547591D01*
X141631000Y-89847238D01*
X141631000Y-90152762D01*
X141607659Y-90270104D01*
X141571396Y-90452410D01*
X141454479Y-90734674D01*
X141284741Y-90988705D01*
X141068705Y-91204741D01*
X140814674Y-91374479D01*
X140532410Y-91491396D01*
X140468311Y-91504146D01*
X140232762Y-91551000D01*
X139927238Y-91551000D01*
X139691689Y-91504146D01*
X139627590Y-91491396D01*
X139345326Y-91374479D01*
X139091295Y-91204741D01*
X138875259Y-90988705D01*
X138705521Y-90734674D01*
X138588604Y-90452410D01*
X138552341Y-90270104D01*
X138529000Y-90152762D01*
X138529000Y-89847238D01*
X138588604Y-89547591D01*
X138588604Y-89547590D01*
X138705521Y-89265326D01*
X138875259Y-89011295D01*
X139091295Y-88795259D01*
X139345326Y-88625521D01*
X139627590Y-88508604D01*
X139727473Y-88488736D01*
X139927238Y-88449000D01*
X140232762Y-88449000D01*
X140432527Y-88488736D01*
X140432527Y-88488736D01*
G37*
G36*
X193270104Y-89109585D02*
X193438626Y-89179389D01*
X193590291Y-89280728D01*
X193719272Y-89409709D01*
X193820611Y-89561374D01*
X193890415Y-89729896D01*
X193926000Y-89908797D01*
X193926000Y-90091203D01*
X193890415Y-90270104D01*
X193820611Y-90438626D01*
X193719272Y-90590291D01*
X193590291Y-90719272D01*
X193438626Y-90820611D01*
X193270104Y-90890415D01*
X193091203Y-90926000D01*
X192908797Y-90926000D01*
X192729896Y-90890415D01*
X192561374Y-90820611D01*
X192409709Y-90719272D01*
X192280728Y-90590291D01*
X192179389Y-90438626D01*
X192109585Y-90270104D01*
X192074000Y-90091203D01*
X192074000Y-89908797D01*
X192109585Y-89729896D01*
X192179389Y-89561374D01*
X192280728Y-89409709D01*
X192409709Y-89280728D01*
X192561374Y-89179389D01*
X192729896Y-89109585D01*
X192908797Y-89074000D01*
X193091203Y-89074000D01*
X193270104Y-89109585D01*
X193270104Y-89109585D01*
G37*
G36*
X195770104Y-89109585D02*
X195938626Y-89179389D01*
X196090291Y-89280728D01*
X196219272Y-89409709D01*
X196320611Y-89561374D01*
X196390415Y-89729896D01*
X196426000Y-89908797D01*
X196426000Y-90091203D01*
X196390415Y-90270104D01*
X196320611Y-90438626D01*
X196219272Y-90590291D01*
X196090291Y-90719272D01*
X195938626Y-90820611D01*
X195770104Y-90890415D01*
X195591203Y-90926000D01*
X195408797Y-90926000D01*
X195229896Y-90890415D01*
X195061374Y-90820611D01*
X194909709Y-90719272D01*
X194780728Y-90590291D01*
X194679389Y-90438626D01*
X194609585Y-90270104D01*
X194574000Y-90091203D01*
X194574000Y-89908797D01*
X194609585Y-89729896D01*
X194679389Y-89561374D01*
X194780728Y-89409709D01*
X194909709Y-89280728D01*
X195061374Y-89179389D01*
X195229896Y-89109585D01*
X195408797Y-89074000D01*
X195591203Y-89074000D01*
X195770104Y-89109585D01*
X195770104Y-89109585D01*
G37*
G36*
X198270104Y-89109585D02*
X198438626Y-89179389D01*
X198590291Y-89280728D01*
X198719272Y-89409709D01*
X198820611Y-89561374D01*
X198890415Y-89729896D01*
X198926000Y-89908797D01*
X198926000Y-90091203D01*
X198890415Y-90270104D01*
X198820611Y-90438626D01*
X198719272Y-90590291D01*
X198590291Y-90719272D01*
X198438626Y-90820611D01*
X198270104Y-90890415D01*
X198091203Y-90926000D01*
X197908797Y-90926000D01*
X197729896Y-90890415D01*
X197561374Y-90820611D01*
X197409709Y-90719272D01*
X197280728Y-90590291D01*
X197179389Y-90438626D01*
X197109585Y-90270104D01*
X197074000Y-90091203D01*
X197074000Y-89908797D01*
X197109585Y-89729896D01*
X197179389Y-89561374D01*
X197280728Y-89409709D01*
X197409709Y-89280728D01*
X197561374Y-89179389D01*
X197729896Y-89109585D01*
X197908797Y-89074000D01*
X198091203Y-89074000D01*
X198270104Y-89109585D01*
X198270104Y-89109585D01*
G37*
G36*
X200770104Y-89109585D02*
X200938626Y-89179389D01*
X201090291Y-89280728D01*
X201219272Y-89409709D01*
X201320611Y-89561374D01*
X201390415Y-89729896D01*
X201426000Y-89908797D01*
X201426000Y-90091203D01*
X201390415Y-90270104D01*
X201320611Y-90438626D01*
X201219272Y-90590291D01*
X201090291Y-90719272D01*
X200938626Y-90820611D01*
X200770104Y-90890415D01*
X200591203Y-90926000D01*
X200408797Y-90926000D01*
X200229896Y-90890415D01*
X200061374Y-90820611D01*
X199909709Y-90719272D01*
X199780728Y-90590291D01*
X199679389Y-90438626D01*
X199609585Y-90270104D01*
X199574000Y-90091203D01*
X199574000Y-89908797D01*
X199609585Y-89729896D01*
X199679389Y-89561374D01*
X199780728Y-89409709D01*
X199909709Y-89280728D01*
X200061374Y-89179389D01*
X200229896Y-89109585D01*
X200408797Y-89074000D01*
X200591203Y-89074000D01*
X200770104Y-89109585D01*
X200770104Y-89109585D01*
G37*
G36*
X190770104Y-89109585D02*
X190938626Y-89179389D01*
X191090291Y-89280728D01*
X191219272Y-89409709D01*
X191320611Y-89561374D01*
X191390415Y-89729896D01*
X191426000Y-89908797D01*
X191426000Y-90091203D01*
X191390415Y-90270104D01*
X191320611Y-90438626D01*
X191219272Y-90590291D01*
X191090291Y-90719272D01*
X190938626Y-90820611D01*
X190770104Y-90890415D01*
X190591203Y-90926000D01*
X190408797Y-90926000D01*
X190229896Y-90890415D01*
X190061374Y-90820611D01*
X189909709Y-90719272D01*
X189780728Y-90590291D01*
X189679389Y-90438626D01*
X189609585Y-90270104D01*
X189574000Y-90091203D01*
X189574000Y-89908797D01*
X189609585Y-89729896D01*
X189679389Y-89561374D01*
X189780728Y-89409709D01*
X189909709Y-89280728D01*
X190061374Y-89179389D01*
X190229896Y-89109585D01*
X190408797Y-89074000D01*
X190591203Y-89074000D01*
X190770104Y-89109585D01*
X190770104Y-89109585D01*
G37*
G36*
X188926000Y-90926000D02*
X187074000Y-90926000D01*
X187074000Y-89074000D01*
X188926000Y-89074000D01*
X188926000Y-90926000D01*
X188926000Y-90926000D01*
G37*
G36*
X180770104Y-89109585D02*
X180938626Y-89179389D01*
X181090291Y-89280728D01*
X181219272Y-89409709D01*
X181320611Y-89561374D01*
X181390415Y-89729896D01*
X181426000Y-89908797D01*
X181426000Y-90091203D01*
X181390415Y-90270104D01*
X181320611Y-90438626D01*
X181219272Y-90590291D01*
X181090291Y-90719272D01*
X180938626Y-90820611D01*
X180770104Y-90890415D01*
X180591203Y-90926000D01*
X180408797Y-90926000D01*
X180229896Y-90890415D01*
X180061374Y-90820611D01*
X179909709Y-90719272D01*
X179780728Y-90590291D01*
X179679389Y-90438626D01*
X179609585Y-90270104D01*
X179574000Y-90091203D01*
X179574000Y-89908797D01*
X179609585Y-89729896D01*
X179679389Y-89561374D01*
X179780728Y-89409709D01*
X179909709Y-89280728D01*
X180061374Y-89179389D01*
X180229896Y-89109585D01*
X180408797Y-89074000D01*
X180591203Y-89074000D01*
X180770104Y-89109585D01*
X180770104Y-89109585D01*
G37*
G36*
X178270104Y-89109585D02*
X178438626Y-89179389D01*
X178590291Y-89280728D01*
X178719272Y-89409709D01*
X178820611Y-89561374D01*
X178890415Y-89729896D01*
X178926000Y-89908797D01*
X178926000Y-90091203D01*
X178890415Y-90270104D01*
X178820611Y-90438626D01*
X178719272Y-90590291D01*
X178590291Y-90719272D01*
X178438626Y-90820611D01*
X178270104Y-90890415D01*
X178091203Y-90926000D01*
X177908797Y-90926000D01*
X177729896Y-90890415D01*
X177561374Y-90820611D01*
X177409709Y-90719272D01*
X177280728Y-90590291D01*
X177179389Y-90438626D01*
X177109585Y-90270104D01*
X177074000Y-90091203D01*
X177074000Y-89908797D01*
X177109585Y-89729896D01*
X177179389Y-89561374D01*
X177280728Y-89409709D01*
X177409709Y-89280728D01*
X177561374Y-89179389D01*
X177729896Y-89109585D01*
X177908797Y-89074000D01*
X178091203Y-89074000D01*
X178270104Y-89109585D01*
X178270104Y-89109585D01*
G37*
G36*
X175770104Y-89109585D02*
X175938626Y-89179389D01*
X176090291Y-89280728D01*
X176219272Y-89409709D01*
X176320611Y-89561374D01*
X176390415Y-89729896D01*
X176426000Y-89908797D01*
X176426000Y-90091203D01*
X176390415Y-90270104D01*
X176320611Y-90438626D01*
X176219272Y-90590291D01*
X176090291Y-90719272D01*
X175938626Y-90820611D01*
X175770104Y-90890415D01*
X175591203Y-90926000D01*
X175408797Y-90926000D01*
X175229896Y-90890415D01*
X175061374Y-90820611D01*
X174909709Y-90719272D01*
X174780728Y-90590291D01*
X174679389Y-90438626D01*
X174609585Y-90270104D01*
X174574000Y-90091203D01*
X174574000Y-89908797D01*
X174609585Y-89729896D01*
X174679389Y-89561374D01*
X174780728Y-89409709D01*
X174909709Y-89280728D01*
X175061374Y-89179389D01*
X175229896Y-89109585D01*
X175408797Y-89074000D01*
X175591203Y-89074000D01*
X175770104Y-89109585D01*
X175770104Y-89109585D01*
G37*
G36*
X173926000Y-90926000D02*
X172074000Y-90926000D01*
X172074000Y-89074000D01*
X173926000Y-89074000D01*
X173926000Y-90926000D01*
X173926000Y-90926000D01*
G37*
G36*
X157186425Y-88062760D02*
X157186428Y-88062761D01*
X157186429Y-88062761D01*
X157365693Y-88117140D01*
X157365695Y-88117141D01*
X157530905Y-88205448D01*
X157675712Y-88324288D01*
X157794552Y-88469095D01*
X157878164Y-88625521D01*
X157882860Y-88634307D01*
X157925105Y-88773571D01*
X157937240Y-88813575D01*
X157955601Y-89000000D01*
X157937240Y-89186425D01*
X157937239Y-89186428D01*
X157937239Y-89186429D01*
X157884284Y-89361000D01*
X157882859Y-89365695D01*
X157794552Y-89530905D01*
X157675712Y-89675712D01*
X157530905Y-89794552D01*
X157432337Y-89847238D01*
X157365693Y-89882860D01*
X157186429Y-89937239D01*
X157186428Y-89937239D01*
X157186425Y-89937240D01*
X157046718Y-89951000D01*
X156953282Y-89951000D01*
X156813575Y-89937240D01*
X156813572Y-89937239D01*
X156813571Y-89937239D01*
X156634307Y-89882860D01*
X156567663Y-89847238D01*
X156469095Y-89794552D01*
X156324288Y-89675712D01*
X156205448Y-89530905D01*
X156117141Y-89365695D01*
X156115717Y-89361000D01*
X156062761Y-89186429D01*
X156062761Y-89186428D01*
X156062760Y-89186425D01*
X156044399Y-89000000D01*
X156062760Y-88813575D01*
X156074895Y-88773571D01*
X156117140Y-88634307D01*
X156121836Y-88625521D01*
X156205448Y-88469095D01*
X156324288Y-88324288D01*
X156469095Y-88205448D01*
X156634305Y-88117141D01*
X156634307Y-88117140D01*
X156813571Y-88062761D01*
X156813572Y-88062761D01*
X156813575Y-88062760D01*
X156953282Y-88049000D01*
X157046718Y-88049000D01*
X157186425Y-88062760D01*
X157186425Y-88062760D01*
G37*
G36*
X127686425Y-88022760D02*
X127686428Y-88022761D01*
X127686429Y-88022761D01*
X127865693Y-88077140D01*
X127865695Y-88077141D01*
X128030905Y-88165448D01*
X128175712Y-88284288D01*
X128294552Y-88429095D01*
X128315934Y-88469097D01*
X128382860Y-88594307D01*
X128420256Y-88717585D01*
X128437240Y-88773575D01*
X128455601Y-88960000D01*
X128437240Y-89146425D01*
X128437239Y-89146428D01*
X128437239Y-89146429D01*
X128427241Y-89179389D01*
X128382859Y-89325695D01*
X128294552Y-89490905D01*
X128175712Y-89635712D01*
X128030905Y-89754552D01*
X127875925Y-89837391D01*
X127865693Y-89842860D01*
X127686429Y-89897239D01*
X127686428Y-89897239D01*
X127686425Y-89897240D01*
X127546718Y-89911000D01*
X127453282Y-89911000D01*
X127313575Y-89897240D01*
X127313572Y-89897239D01*
X127313571Y-89897239D01*
X127134307Y-89842860D01*
X127124075Y-89837391D01*
X126969095Y-89754552D01*
X126824288Y-89635712D01*
X126705448Y-89490905D01*
X126617141Y-89325695D01*
X126572760Y-89179389D01*
X126562761Y-89146429D01*
X126562761Y-89146428D01*
X126562760Y-89146425D01*
X126544399Y-88960000D01*
X126562760Y-88773575D01*
X126579744Y-88717585D01*
X126617140Y-88594307D01*
X126684066Y-88469097D01*
X126705448Y-88429095D01*
X126824288Y-88284288D01*
X126969095Y-88165448D01*
X127134305Y-88077141D01*
X127134307Y-88077140D01*
X127313571Y-88022761D01*
X127313572Y-88022761D01*
X127313575Y-88022760D01*
X127453282Y-88009000D01*
X127546718Y-88009000D01*
X127686425Y-88022760D01*
X127686425Y-88022760D01*
G37*
G36*
X161166821Y-88121313D02*
X161166824Y-88121314D01*
X161166825Y-88121314D01*
X161327239Y-88169975D01*
X161327241Y-88169976D01*
X161327244Y-88169977D01*
X161475078Y-88248995D01*
X161604659Y-88355341D01*
X161711005Y-88484922D01*
X161790023Y-88632756D01*
X161790024Y-88632759D01*
X161790025Y-88632761D01*
X161832739Y-88773571D01*
X161838687Y-88793179D01*
X161855117Y-88960000D01*
X161838687Y-89126821D01*
X161838686Y-89126824D01*
X161838686Y-89126825D01*
X161796672Y-89265328D01*
X161790023Y-89287244D01*
X161711005Y-89435078D01*
X161604659Y-89564659D01*
X161475078Y-89671005D01*
X161327244Y-89750023D01*
X161327241Y-89750024D01*
X161327239Y-89750025D01*
X161166825Y-89798686D01*
X161166824Y-89798686D01*
X161166821Y-89798687D01*
X161041804Y-89811000D01*
X160958196Y-89811000D01*
X160833179Y-89798687D01*
X160833176Y-89798686D01*
X160833175Y-89798686D01*
X160672761Y-89750025D01*
X160672759Y-89750024D01*
X160672756Y-89750023D01*
X160524922Y-89671005D01*
X160395341Y-89564659D01*
X160288995Y-89435078D01*
X160209977Y-89287244D01*
X160203329Y-89265328D01*
X160161314Y-89126825D01*
X160161314Y-89126824D01*
X160161313Y-89126821D01*
X160144883Y-88960000D01*
X160161313Y-88793179D01*
X160167261Y-88773571D01*
X160209975Y-88632761D01*
X160209976Y-88632759D01*
X160209977Y-88632756D01*
X160288995Y-88484922D01*
X160395341Y-88355341D01*
X160524922Y-88248995D01*
X160672756Y-88169977D01*
X160672759Y-88169976D01*
X160672761Y-88169975D01*
X160833175Y-88121314D01*
X160833176Y-88121314D01*
X160833179Y-88121313D01*
X160958196Y-88109000D01*
X161041804Y-88109000D01*
X161166821Y-88121313D01*
X161166821Y-88121313D01*
G37*
G36*
X167650443Y-87565519D02*
X167716627Y-87572037D01*
X167829853Y-87606384D01*
X167886467Y-87623557D01*
X168025087Y-87697652D01*
X168042991Y-87707222D01*
X168078729Y-87736552D01*
X168180186Y-87819814D01*
X168263448Y-87921271D01*
X168292778Y-87957009D01*
X168292779Y-87957011D01*
X168376443Y-88113533D01*
X168376443Y-88113534D01*
X168427963Y-88283373D01*
X168445359Y-88460000D01*
X168427963Y-88636627D01*
X168403405Y-88717585D01*
X168376443Y-88806467D01*
X168302348Y-88945087D01*
X168292778Y-88962991D01*
X168263448Y-88998729D01*
X168180186Y-89100186D01*
X168083675Y-89179389D01*
X168042991Y-89212778D01*
X168042989Y-89212779D01*
X167886467Y-89296443D01*
X167829853Y-89313616D01*
X167716627Y-89347963D01*
X167650443Y-89354481D01*
X167584260Y-89361000D01*
X167495740Y-89361000D01*
X167429557Y-89354481D01*
X167363373Y-89347963D01*
X167250147Y-89313616D01*
X167193533Y-89296443D01*
X167037011Y-89212779D01*
X167037009Y-89212778D01*
X166996325Y-89179389D01*
X166899814Y-89100186D01*
X166816552Y-88998729D01*
X166787222Y-88962991D01*
X166777652Y-88945087D01*
X166703557Y-88806467D01*
X166676595Y-88717585D01*
X166652037Y-88636627D01*
X166634641Y-88460000D01*
X166652037Y-88283373D01*
X166703557Y-88113534D01*
X166703557Y-88113533D01*
X166787221Y-87957011D01*
X166787222Y-87957009D01*
X166816552Y-87921271D01*
X166899814Y-87819814D01*
X167001271Y-87736552D01*
X167037009Y-87707222D01*
X167054913Y-87697652D01*
X167193533Y-87623557D01*
X167250147Y-87606384D01*
X167363373Y-87572037D01*
X167429557Y-87565519D01*
X167495740Y-87559000D01*
X167584260Y-87559000D01*
X167650443Y-87565519D01*
X167650443Y-87565519D01*
G37*
G36*
X165110443Y-87565519D02*
X165176627Y-87572037D01*
X165289853Y-87606384D01*
X165346467Y-87623557D01*
X165485087Y-87697652D01*
X165502991Y-87707222D01*
X165538729Y-87736552D01*
X165640186Y-87819814D01*
X165723448Y-87921271D01*
X165752778Y-87957009D01*
X165752779Y-87957011D01*
X165836443Y-88113533D01*
X165836443Y-88113534D01*
X165887963Y-88283373D01*
X165905359Y-88460000D01*
X165887963Y-88636627D01*
X165863405Y-88717585D01*
X165836443Y-88806467D01*
X165762348Y-88945087D01*
X165752778Y-88962991D01*
X165723448Y-88998729D01*
X165640186Y-89100186D01*
X165543675Y-89179389D01*
X165502991Y-89212778D01*
X165502989Y-89212779D01*
X165346467Y-89296443D01*
X165289853Y-89313616D01*
X165176627Y-89347963D01*
X165110443Y-89354481D01*
X165044260Y-89361000D01*
X164955740Y-89361000D01*
X164889557Y-89354481D01*
X164823373Y-89347963D01*
X164710147Y-89313616D01*
X164653533Y-89296443D01*
X164497011Y-89212779D01*
X164497009Y-89212778D01*
X164456325Y-89179389D01*
X164359814Y-89100186D01*
X164276552Y-88998729D01*
X164247222Y-88962991D01*
X164237652Y-88945087D01*
X164163557Y-88806467D01*
X164136595Y-88717585D01*
X164112037Y-88636627D01*
X164094641Y-88460000D01*
X164112037Y-88283373D01*
X164163557Y-88113534D01*
X164163557Y-88113533D01*
X164247221Y-87957011D01*
X164247222Y-87957009D01*
X164276552Y-87921271D01*
X164359814Y-87819814D01*
X164461271Y-87736552D01*
X164497009Y-87707222D01*
X164514913Y-87697652D01*
X164653533Y-87623557D01*
X164710147Y-87606384D01*
X164823373Y-87572037D01*
X164889557Y-87565519D01*
X164955740Y-87559000D01*
X165044260Y-87559000D01*
X165110443Y-87565519D01*
X165110443Y-87565519D01*
G37*
G36*
X157186425Y-85522760D02*
X157186428Y-85522761D01*
X157186429Y-85522761D01*
X157365693Y-85577140D01*
X157365695Y-85577141D01*
X157530905Y-85665448D01*
X157675712Y-85784288D01*
X157794552Y-85929095D01*
X157882859Y-86094305D01*
X157882860Y-86094307D01*
X157931347Y-86254147D01*
X157937240Y-86273575D01*
X157955601Y-86460000D01*
X157937240Y-86646425D01*
X157937239Y-86646428D01*
X157937239Y-86646429D01*
X157884284Y-86821000D01*
X157882859Y-86825695D01*
X157794552Y-86990905D01*
X157675712Y-87135712D01*
X157530905Y-87254552D01*
X157365695Y-87342859D01*
X157365693Y-87342860D01*
X157186429Y-87397239D01*
X157186428Y-87397239D01*
X157186425Y-87397240D01*
X157046718Y-87411000D01*
X156953282Y-87411000D01*
X156813575Y-87397240D01*
X156813572Y-87397239D01*
X156813571Y-87397239D01*
X156634307Y-87342860D01*
X156634305Y-87342859D01*
X156469095Y-87254552D01*
X156324288Y-87135712D01*
X156205448Y-86990905D01*
X156117141Y-86825695D01*
X156115717Y-86821000D01*
X156062761Y-86646429D01*
X156062761Y-86646428D01*
X156062760Y-86646425D01*
X156044399Y-86460000D01*
X156062760Y-86273575D01*
X156068653Y-86254147D01*
X156117140Y-86094307D01*
X156117141Y-86094305D01*
X156205448Y-85929095D01*
X156324288Y-85784288D01*
X156469095Y-85665448D01*
X156634305Y-85577141D01*
X156634307Y-85577140D01*
X156813571Y-85522761D01*
X156813572Y-85522761D01*
X156813575Y-85522760D01*
X156953282Y-85509000D01*
X157046718Y-85509000D01*
X157186425Y-85522760D01*
X157186425Y-85522760D01*
G37*
G36*
X127686425Y-85482760D02*
X127686428Y-85482761D01*
X127686429Y-85482761D01*
X127865693Y-85537140D01*
X127865695Y-85537141D01*
X128030905Y-85625448D01*
X128175712Y-85744288D01*
X128294552Y-85889095D01*
X128315934Y-85929097D01*
X128382860Y-86054307D01*
X128437239Y-86233571D01*
X128437240Y-86233575D01*
X128455601Y-86420000D01*
X128437240Y-86606425D01*
X128382859Y-86785695D01*
X128294552Y-86950905D01*
X128175712Y-87095712D01*
X128030905Y-87214552D01*
X127956069Y-87254553D01*
X127865693Y-87302860D01*
X127686429Y-87357239D01*
X127686428Y-87357239D01*
X127686425Y-87357240D01*
X127546718Y-87371000D01*
X127453282Y-87371000D01*
X127313575Y-87357240D01*
X127313572Y-87357239D01*
X127313571Y-87357239D01*
X127134307Y-87302860D01*
X127043931Y-87254553D01*
X126969095Y-87214552D01*
X126824288Y-87095712D01*
X126705448Y-86950905D01*
X126617141Y-86785695D01*
X126562760Y-86606425D01*
X126544399Y-86420000D01*
X126562760Y-86233575D01*
X126562761Y-86233571D01*
X126617140Y-86054307D01*
X126684066Y-85929097D01*
X126705448Y-85889095D01*
X126824288Y-85744288D01*
X126969095Y-85625448D01*
X127134305Y-85537141D01*
X127134307Y-85537140D01*
X127313571Y-85482761D01*
X127313572Y-85482761D01*
X127313575Y-85482760D01*
X127453282Y-85469000D01*
X127546718Y-85469000D01*
X127686425Y-85482760D01*
X127686425Y-85482760D01*
G37*
G36*
X167644386Y-85024922D02*
X167716627Y-85032037D01*
X167829853Y-85066384D01*
X167886467Y-85083557D01*
X168025087Y-85157652D01*
X168042991Y-85167222D01*
X168049734Y-85172756D01*
X168180186Y-85279814D01*
X168242489Y-85355732D01*
X168292778Y-85417009D01*
X168292779Y-85417011D01*
X168376443Y-85573533D01*
X168376443Y-85573534D01*
X168427963Y-85743373D01*
X168445359Y-85920000D01*
X168427963Y-86096627D01*
X168408431Y-86161014D01*
X168376443Y-86266467D01*
X168331258Y-86351000D01*
X168292778Y-86422991D01*
X168269791Y-86451000D01*
X168180186Y-86560186D01*
X168078729Y-86643448D01*
X168042991Y-86672778D01*
X168042989Y-86672779D01*
X167886467Y-86756443D01*
X167829853Y-86773616D01*
X167716627Y-86807963D01*
X167650442Y-86814482D01*
X167584260Y-86821000D01*
X167495740Y-86821000D01*
X167429558Y-86814482D01*
X167363373Y-86807963D01*
X167250147Y-86773616D01*
X167193533Y-86756443D01*
X167037011Y-86672779D01*
X167037009Y-86672778D01*
X167001271Y-86643448D01*
X166899814Y-86560186D01*
X166810209Y-86451000D01*
X166787222Y-86422991D01*
X166748742Y-86351000D01*
X166703557Y-86266467D01*
X166671569Y-86161014D01*
X166652037Y-86096627D01*
X166634641Y-85920000D01*
X166652037Y-85743373D01*
X166703557Y-85573534D01*
X166703557Y-85573533D01*
X166787221Y-85417011D01*
X166787222Y-85417009D01*
X166837511Y-85355732D01*
X166899814Y-85279814D01*
X167030266Y-85172756D01*
X167037009Y-85167222D01*
X167054913Y-85157652D01*
X167193533Y-85083557D01*
X167250147Y-85066384D01*
X167363373Y-85032037D01*
X167435614Y-85024922D01*
X167495740Y-85019000D01*
X167584260Y-85019000D01*
X167644386Y-85024922D01*
X167644386Y-85024922D01*
G37*
G36*
X165901000Y-86821000D02*
X164099000Y-86821000D01*
X164099000Y-85019000D01*
X165901000Y-85019000D01*
X165901000Y-86821000D01*
X165901000Y-86821000D01*
G37*
G36*
X209201000Y-86451000D02*
X207299000Y-86451000D01*
X207299000Y-84549000D01*
X209201000Y-84549000D01*
X209201000Y-86451000D01*
X209201000Y-86451000D01*
G37*
G36*
X211067396Y-84585546D02*
X211240466Y-84657234D01*
X211396230Y-84761312D01*
X211528688Y-84893770D01*
X211632766Y-85049534D01*
X211704454Y-85222604D01*
X211741000Y-85406333D01*
X211741000Y-85593667D01*
X211704454Y-85777396D01*
X211632766Y-85950466D01*
X211528688Y-86106230D01*
X211396230Y-86238688D01*
X211240466Y-86342766D01*
X211067396Y-86414454D01*
X210883667Y-86451000D01*
X210696333Y-86451000D01*
X210512604Y-86414454D01*
X210339534Y-86342766D01*
X210183770Y-86238688D01*
X210051312Y-86106230D01*
X209947234Y-85950466D01*
X209875546Y-85777396D01*
X209839000Y-85593667D01*
X209839000Y-85406333D01*
X209875546Y-85222604D01*
X209947234Y-85049534D01*
X210051312Y-84893770D01*
X210183770Y-84761312D01*
X210339534Y-84657234D01*
X210512604Y-84585546D01*
X210696333Y-84549000D01*
X210883667Y-84549000D01*
X211067396Y-84585546D01*
X211067396Y-84585546D01*
G37*
G36*
X178748228Y-84681703D02*
X178903100Y-84745853D01*
X179042481Y-84838985D01*
X179161015Y-84957519D01*
X179254147Y-85096900D01*
X179318297Y-85251772D01*
X179351000Y-85416184D01*
X179351000Y-85583816D01*
X179318297Y-85748228D01*
X179254147Y-85903100D01*
X179161015Y-86042481D01*
X179042481Y-86161015D01*
X178903100Y-86254147D01*
X178748228Y-86318297D01*
X178583816Y-86351000D01*
X178416184Y-86351000D01*
X178251772Y-86318297D01*
X178096900Y-86254147D01*
X177957519Y-86161015D01*
X177838985Y-86042481D01*
X177745853Y-85903100D01*
X177681703Y-85748228D01*
X177649000Y-85583816D01*
X177649000Y-85416184D01*
X177681703Y-85251772D01*
X177745853Y-85096900D01*
X177838985Y-84957519D01*
X177957519Y-84838985D01*
X178096900Y-84745853D01*
X178251772Y-84681703D01*
X178416184Y-84649000D01*
X178583816Y-84649000D01*
X178748228Y-84681703D01*
X178748228Y-84681703D01*
G37*
G36*
X181206821Y-84661313D02*
X181206824Y-84661314D01*
X181206825Y-84661314D01*
X181367239Y-84709975D01*
X181367241Y-84709976D01*
X181367244Y-84709977D01*
X181515078Y-84788995D01*
X181644659Y-84895341D01*
X181751005Y-85024922D01*
X181830023Y-85172756D01*
X181830024Y-85172759D01*
X181830025Y-85172761D01*
X181862499Y-85279814D01*
X181878687Y-85333179D01*
X181895117Y-85500000D01*
X181878687Y-85666821D01*
X181878686Y-85666824D01*
X181878686Y-85666825D01*
X181845145Y-85777396D01*
X181830023Y-85827244D01*
X181751005Y-85975078D01*
X181644659Y-86104659D01*
X181515078Y-86211005D01*
X181367244Y-86290023D01*
X181367241Y-86290024D01*
X181367239Y-86290025D01*
X181206825Y-86338686D01*
X181206824Y-86338686D01*
X181206821Y-86338687D01*
X181081804Y-86351000D01*
X180998196Y-86351000D01*
X180873179Y-86338687D01*
X180873176Y-86338686D01*
X180873175Y-86338686D01*
X180712761Y-86290025D01*
X180712759Y-86290024D01*
X180712756Y-86290023D01*
X180564922Y-86211005D01*
X180435341Y-86104659D01*
X180328995Y-85975078D01*
X180249977Y-85827244D01*
X180234856Y-85777396D01*
X180201314Y-85666825D01*
X180201314Y-85666824D01*
X180201313Y-85666821D01*
X180184883Y-85500000D01*
X180201313Y-85333179D01*
X180217501Y-85279814D01*
X180249975Y-85172761D01*
X180249976Y-85172759D01*
X180249977Y-85172756D01*
X180328995Y-85024922D01*
X180435341Y-84895341D01*
X180564922Y-84788995D01*
X180712756Y-84709977D01*
X180712759Y-84709976D01*
X180712761Y-84709975D01*
X180873175Y-84661314D01*
X180873176Y-84661314D01*
X180873179Y-84661313D01*
X180998196Y-84649000D01*
X181081804Y-84649000D01*
X181206821Y-84661313D01*
X181206821Y-84661313D01*
G37*
G36*
X197206821Y-84661313D02*
X197206824Y-84661314D01*
X197206825Y-84661314D01*
X197367239Y-84709975D01*
X197367241Y-84709976D01*
X197367244Y-84709977D01*
X197515078Y-84788995D01*
X197644659Y-84895341D01*
X197751005Y-85024922D01*
X197830023Y-85172756D01*
X197830024Y-85172759D01*
X197830025Y-85172761D01*
X197862499Y-85279814D01*
X197878687Y-85333179D01*
X197895117Y-85500000D01*
X197878687Y-85666821D01*
X197878686Y-85666824D01*
X197878686Y-85666825D01*
X197845145Y-85777396D01*
X197830023Y-85827244D01*
X197751005Y-85975078D01*
X197644659Y-86104659D01*
X197515078Y-86211005D01*
X197367244Y-86290023D01*
X197367241Y-86290024D01*
X197367239Y-86290025D01*
X197206825Y-86338686D01*
X197206824Y-86338686D01*
X197206821Y-86338687D01*
X197081804Y-86351000D01*
X196998196Y-86351000D01*
X196873179Y-86338687D01*
X196873176Y-86338686D01*
X196873175Y-86338686D01*
X196712761Y-86290025D01*
X196712759Y-86290024D01*
X196712756Y-86290023D01*
X196564922Y-86211005D01*
X196435341Y-86104659D01*
X196328995Y-85975078D01*
X196249977Y-85827244D01*
X196234856Y-85777396D01*
X196201314Y-85666825D01*
X196201314Y-85666824D01*
X196201313Y-85666821D01*
X196184883Y-85500000D01*
X196201313Y-85333179D01*
X196217501Y-85279814D01*
X196249975Y-85172761D01*
X196249976Y-85172759D01*
X196249977Y-85172756D01*
X196328995Y-85024922D01*
X196435341Y-84895341D01*
X196564922Y-84788995D01*
X196712756Y-84709977D01*
X196712759Y-84709976D01*
X196712761Y-84709975D01*
X196873175Y-84661314D01*
X196873176Y-84661314D01*
X196873179Y-84661313D01*
X196998196Y-84649000D01*
X197081804Y-84649000D01*
X197206821Y-84661313D01*
X197206821Y-84661313D01*
G37*
G36*
X173248228Y-84681703D02*
X173403100Y-84745853D01*
X173542481Y-84838985D01*
X173661015Y-84957519D01*
X173754147Y-85096900D01*
X173818297Y-85251772D01*
X173851000Y-85416184D01*
X173851000Y-85583816D01*
X173818297Y-85748228D01*
X173754147Y-85903100D01*
X173661015Y-86042481D01*
X173542481Y-86161015D01*
X173403100Y-86254147D01*
X173248228Y-86318297D01*
X173083816Y-86351000D01*
X172916184Y-86351000D01*
X172751772Y-86318297D01*
X172596900Y-86254147D01*
X172457519Y-86161015D01*
X172338985Y-86042481D01*
X172245853Y-85903100D01*
X172181703Y-85748228D01*
X172149000Y-85583816D01*
X172149000Y-85416184D01*
X172181703Y-85251772D01*
X172245853Y-85096900D01*
X172338985Y-84957519D01*
X172457519Y-84838985D01*
X172596900Y-84745853D01*
X172751772Y-84681703D01*
X172916184Y-84649000D01*
X173083816Y-84649000D01*
X173248228Y-84681703D01*
X173248228Y-84681703D01*
G37*
G36*
X175706821Y-84661313D02*
X175706824Y-84661314D01*
X175706825Y-84661314D01*
X175867239Y-84709975D01*
X175867241Y-84709976D01*
X175867244Y-84709977D01*
X176015078Y-84788995D01*
X176144659Y-84895341D01*
X176251005Y-85024922D01*
X176330023Y-85172756D01*
X176330024Y-85172759D01*
X176330025Y-85172761D01*
X176362499Y-85279814D01*
X176378687Y-85333179D01*
X176395117Y-85500000D01*
X176378687Y-85666821D01*
X176378686Y-85666824D01*
X176378686Y-85666825D01*
X176345145Y-85777396D01*
X176330023Y-85827244D01*
X176251005Y-85975078D01*
X176144659Y-86104659D01*
X176015078Y-86211005D01*
X175867244Y-86290023D01*
X175867241Y-86290024D01*
X175867239Y-86290025D01*
X175706825Y-86338686D01*
X175706824Y-86338686D01*
X175706821Y-86338687D01*
X175581804Y-86351000D01*
X175498196Y-86351000D01*
X175373179Y-86338687D01*
X175373176Y-86338686D01*
X175373175Y-86338686D01*
X175212761Y-86290025D01*
X175212759Y-86290024D01*
X175212756Y-86290023D01*
X175064922Y-86211005D01*
X174935341Y-86104659D01*
X174828995Y-85975078D01*
X174749977Y-85827244D01*
X174734856Y-85777396D01*
X174701314Y-85666825D01*
X174701314Y-85666824D01*
X174701313Y-85666821D01*
X174684883Y-85500000D01*
X174701313Y-85333179D01*
X174717501Y-85279814D01*
X174749975Y-85172761D01*
X174749976Y-85172759D01*
X174749977Y-85172756D01*
X174828995Y-85024922D01*
X174935341Y-84895341D01*
X175064922Y-84788995D01*
X175212756Y-84709977D01*
X175212759Y-84709976D01*
X175212761Y-84709975D01*
X175373175Y-84661314D01*
X175373176Y-84661314D01*
X175373179Y-84661313D01*
X175498196Y-84649000D01*
X175581804Y-84649000D01*
X175706821Y-84661313D01*
X175706821Y-84661313D01*
G37*
G36*
X189248228Y-84681703D02*
X189403100Y-84745853D01*
X189542481Y-84838985D01*
X189661015Y-84957519D01*
X189754147Y-85096900D01*
X189818297Y-85251772D01*
X189851000Y-85416184D01*
X189851000Y-85583816D01*
X189818297Y-85748228D01*
X189754147Y-85903100D01*
X189661015Y-86042481D01*
X189542481Y-86161015D01*
X189403100Y-86254147D01*
X189248228Y-86318297D01*
X189083816Y-86351000D01*
X188916184Y-86351000D01*
X188751772Y-86318297D01*
X188596900Y-86254147D01*
X188457519Y-86161015D01*
X188338985Y-86042481D01*
X188245853Y-85903100D01*
X188181703Y-85748228D01*
X188149000Y-85583816D01*
X188149000Y-85416184D01*
X188181703Y-85251772D01*
X188245853Y-85096900D01*
X188338985Y-84957519D01*
X188457519Y-84838985D01*
X188596900Y-84745853D01*
X188751772Y-84681703D01*
X188916184Y-84649000D01*
X189083816Y-84649000D01*
X189248228Y-84681703D01*
X189248228Y-84681703D01*
G37*
G36*
X191706821Y-84661313D02*
X191706824Y-84661314D01*
X191706825Y-84661314D01*
X191867239Y-84709975D01*
X191867241Y-84709976D01*
X191867244Y-84709977D01*
X192015078Y-84788995D01*
X192144659Y-84895341D01*
X192251005Y-85024922D01*
X192330023Y-85172756D01*
X192330024Y-85172759D01*
X192330025Y-85172761D01*
X192362499Y-85279814D01*
X192378687Y-85333179D01*
X192395117Y-85500000D01*
X192378687Y-85666821D01*
X192378686Y-85666824D01*
X192378686Y-85666825D01*
X192345145Y-85777396D01*
X192330023Y-85827244D01*
X192251005Y-85975078D01*
X192144659Y-86104659D01*
X192015078Y-86211005D01*
X191867244Y-86290023D01*
X191867241Y-86290024D01*
X191867239Y-86290025D01*
X191706825Y-86338686D01*
X191706824Y-86338686D01*
X191706821Y-86338687D01*
X191581804Y-86351000D01*
X191498196Y-86351000D01*
X191373179Y-86338687D01*
X191373176Y-86338686D01*
X191373175Y-86338686D01*
X191212761Y-86290025D01*
X191212759Y-86290024D01*
X191212756Y-86290023D01*
X191064922Y-86211005D01*
X190935341Y-86104659D01*
X190828995Y-85975078D01*
X190749977Y-85827244D01*
X190734856Y-85777396D01*
X190701314Y-85666825D01*
X190701314Y-85666824D01*
X190701313Y-85666821D01*
X190684883Y-85500000D01*
X190701313Y-85333179D01*
X190717501Y-85279814D01*
X190749975Y-85172761D01*
X190749976Y-85172759D01*
X190749977Y-85172756D01*
X190828995Y-85024922D01*
X190935341Y-84895341D01*
X191064922Y-84788995D01*
X191212756Y-84709977D01*
X191212759Y-84709976D01*
X191212761Y-84709975D01*
X191373175Y-84661314D01*
X191373176Y-84661314D01*
X191373179Y-84661313D01*
X191498196Y-84649000D01*
X191581804Y-84649000D01*
X191706821Y-84661313D01*
X191706821Y-84661313D01*
G37*
G36*
X194748228Y-84681703D02*
X194903100Y-84745853D01*
X195042481Y-84838985D01*
X195161015Y-84957519D01*
X195254147Y-85096900D01*
X195318297Y-85251772D01*
X195351000Y-85416184D01*
X195351000Y-85583816D01*
X195318297Y-85748228D01*
X195254147Y-85903100D01*
X195161015Y-86042481D01*
X195042481Y-86161015D01*
X194903100Y-86254147D01*
X194748228Y-86318297D01*
X194583816Y-86351000D01*
X194416184Y-86351000D01*
X194251772Y-86318297D01*
X194096900Y-86254147D01*
X193957519Y-86161015D01*
X193838985Y-86042481D01*
X193745853Y-85903100D01*
X193681703Y-85748228D01*
X193649000Y-85583816D01*
X193649000Y-85416184D01*
X193681703Y-85251772D01*
X193745853Y-85096900D01*
X193838985Y-84957519D01*
X193957519Y-84838985D01*
X194096900Y-84745853D01*
X194251772Y-84681703D01*
X194416184Y-84649000D01*
X194583816Y-84649000D01*
X194748228Y-84681703D01*
X194748228Y-84681703D01*
G37*
G36*
X200248228Y-84681703D02*
X200403100Y-84745853D01*
X200542481Y-84838985D01*
X200661015Y-84957519D01*
X200754147Y-85096900D01*
X200818297Y-85251772D01*
X200851000Y-85416184D01*
X200851000Y-85583816D01*
X200818297Y-85748228D01*
X200754147Y-85903100D01*
X200661015Y-86042481D01*
X200542481Y-86161015D01*
X200403100Y-86254147D01*
X200248228Y-86318297D01*
X200083816Y-86351000D01*
X199916184Y-86351000D01*
X199751772Y-86318297D01*
X199596900Y-86254147D01*
X199457519Y-86161015D01*
X199338985Y-86042481D01*
X199245853Y-85903100D01*
X199181703Y-85748228D01*
X199149000Y-85583816D01*
X199149000Y-85416184D01*
X199181703Y-85251772D01*
X199245853Y-85096900D01*
X199338985Y-84957519D01*
X199457519Y-84838985D01*
X199596900Y-84745853D01*
X199751772Y-84681703D01*
X199916184Y-84649000D01*
X200083816Y-84649000D01*
X200248228Y-84681703D01*
X200248228Y-84681703D01*
G37*
G36*
X202706821Y-84661313D02*
X202706824Y-84661314D01*
X202706825Y-84661314D01*
X202867239Y-84709975D01*
X202867241Y-84709976D01*
X202867244Y-84709977D01*
X203015078Y-84788995D01*
X203144659Y-84895341D01*
X203251005Y-85024922D01*
X203330023Y-85172756D01*
X203330024Y-85172759D01*
X203330025Y-85172761D01*
X203362499Y-85279814D01*
X203378687Y-85333179D01*
X203395117Y-85500000D01*
X203378687Y-85666821D01*
X203378686Y-85666824D01*
X203378686Y-85666825D01*
X203345145Y-85777396D01*
X203330023Y-85827244D01*
X203251005Y-85975078D01*
X203144659Y-86104659D01*
X203015078Y-86211005D01*
X202867244Y-86290023D01*
X202867241Y-86290024D01*
X202867239Y-86290025D01*
X202706825Y-86338686D01*
X202706824Y-86338686D01*
X202706821Y-86338687D01*
X202581804Y-86351000D01*
X202498196Y-86351000D01*
X202373179Y-86338687D01*
X202373176Y-86338686D01*
X202373175Y-86338686D01*
X202212761Y-86290025D01*
X202212759Y-86290024D01*
X202212756Y-86290023D01*
X202064922Y-86211005D01*
X201935341Y-86104659D01*
X201828995Y-85975078D01*
X201749977Y-85827244D01*
X201734856Y-85777396D01*
X201701314Y-85666825D01*
X201701314Y-85666824D01*
X201701313Y-85666821D01*
X201684883Y-85500000D01*
X201701313Y-85333179D01*
X201717501Y-85279814D01*
X201749975Y-85172761D01*
X201749976Y-85172759D01*
X201749977Y-85172756D01*
X201828995Y-85024922D01*
X201935341Y-84895341D01*
X202064922Y-84788995D01*
X202212756Y-84709977D01*
X202212759Y-84709976D01*
X202212761Y-84709975D01*
X202373175Y-84661314D01*
X202373176Y-84661314D01*
X202373179Y-84661313D01*
X202498196Y-84649000D01*
X202581804Y-84649000D01*
X202706821Y-84661313D01*
X202706821Y-84661313D01*
G37*
G36*
X186132004Y-84260544D02*
X186219059Y-84277860D01*
X186355732Y-84334472D01*
X186355733Y-84334473D01*
X186478738Y-84416662D01*
X186583338Y-84521262D01*
X186583340Y-84521265D01*
X186665528Y-84644268D01*
X186722140Y-84780941D01*
X186739456Y-84867996D01*
X186751000Y-84926031D01*
X186751000Y-85073969D01*
X186739456Y-85132004D01*
X186722140Y-85219059D01*
X186665528Y-85355732D01*
X186665527Y-85355733D01*
X186583338Y-85478738D01*
X186478738Y-85583338D01*
X186478735Y-85583340D01*
X186355732Y-85665528D01*
X186219059Y-85722140D01*
X186132004Y-85739456D01*
X186073969Y-85751000D01*
X185926031Y-85751000D01*
X185867996Y-85739456D01*
X185780941Y-85722140D01*
X185644268Y-85665528D01*
X185521265Y-85583340D01*
X185521262Y-85583338D01*
X185416662Y-85478738D01*
X185334473Y-85355733D01*
X185334472Y-85355732D01*
X185277860Y-85219059D01*
X185260544Y-85132004D01*
X185249000Y-85073969D01*
X185249000Y-84926031D01*
X185260544Y-84867996D01*
X185277860Y-84780941D01*
X185334472Y-84644268D01*
X185416660Y-84521265D01*
X185416662Y-84521262D01*
X185521262Y-84416662D01*
X185644267Y-84334473D01*
X185644268Y-84334472D01*
X185780941Y-84277860D01*
X185867996Y-84260544D01*
X185926031Y-84249000D01*
X186073969Y-84249000D01*
X186132004Y-84260544D01*
X186132004Y-84260544D01*
G37*
G36*
X183632004Y-84260544D02*
X183719059Y-84277860D01*
X183855732Y-84334472D01*
X183855733Y-84334473D01*
X183978738Y-84416662D01*
X184083338Y-84521262D01*
X184083340Y-84521265D01*
X184165528Y-84644268D01*
X184222140Y-84780941D01*
X184239456Y-84867996D01*
X184251000Y-84926031D01*
X184251000Y-85073969D01*
X184239456Y-85132004D01*
X184222140Y-85219059D01*
X184165528Y-85355732D01*
X184165527Y-85355733D01*
X184083338Y-85478738D01*
X183978738Y-85583338D01*
X183978735Y-85583340D01*
X183855732Y-85665528D01*
X183719059Y-85722140D01*
X183632004Y-85739456D01*
X183573969Y-85751000D01*
X183426031Y-85751000D01*
X183367996Y-85739456D01*
X183280941Y-85722140D01*
X183144268Y-85665528D01*
X183021265Y-85583340D01*
X183021262Y-85583338D01*
X182916662Y-85478738D01*
X182834473Y-85355733D01*
X182834472Y-85355732D01*
X182777860Y-85219059D01*
X182760544Y-85132004D01*
X182749000Y-85073969D01*
X182749000Y-84926031D01*
X182760544Y-84867996D01*
X182777860Y-84780941D01*
X182834472Y-84644268D01*
X182916660Y-84521265D01*
X182916662Y-84521262D01*
X183021262Y-84416662D01*
X183144267Y-84334473D01*
X183144268Y-84334472D01*
X183280941Y-84277860D01*
X183367996Y-84260544D01*
X183426031Y-84249000D01*
X183573969Y-84249000D01*
X183632004Y-84260544D01*
X183632004Y-84260544D01*
G37*
G36*
X133689941Y-78066248D02*
X133689943Y-78066249D01*
X133689944Y-78066249D01*
X134245190Y-78296239D01*
X134411307Y-78407235D01*
X134744902Y-78630136D01*
X135169864Y-79055098D01*
X135169866Y-79055101D01*
X135503761Y-79554810D01*
X135708461Y-80049000D01*
X135733752Y-80110059D01*
X135851000Y-80699501D01*
X135851000Y-81300499D01*
X135735161Y-81882860D01*
X135733751Y-81889944D01*
X135503761Y-82445190D01*
X135333191Y-82700466D01*
X135169864Y-82944902D01*
X134744902Y-83369864D01*
X134744899Y-83369866D01*
X134245190Y-83703761D01*
X133689944Y-83933751D01*
X133689943Y-83933751D01*
X133689941Y-83933752D01*
X133100499Y-84051000D01*
X132499501Y-84051000D01*
X131910059Y-83933752D01*
X131910057Y-83933751D01*
X131910056Y-83933751D01*
X131354810Y-83703761D01*
X130855101Y-83369866D01*
X130855098Y-83369864D01*
X130430136Y-82944902D01*
X130266809Y-82700466D01*
X130096239Y-82445190D01*
X129866249Y-81889944D01*
X129864840Y-81882860D01*
X129749000Y-81300499D01*
X129749000Y-80699501D01*
X129866248Y-80110059D01*
X129891539Y-80049000D01*
X130096239Y-79554810D01*
X130430134Y-79055101D01*
X130430136Y-79055098D01*
X130855098Y-78630136D01*
X131188693Y-78407235D01*
X131354810Y-78296239D01*
X131910056Y-78066249D01*
X131910057Y-78066249D01*
X131910059Y-78066248D01*
X132499501Y-77949000D01*
X133100499Y-77949000D01*
X133689941Y-78066248D01*
X133689941Y-78066248D01*
G37*
G36*
X140889941Y-78066248D02*
X140889943Y-78066249D01*
X140889944Y-78066249D01*
X141445190Y-78296239D01*
X141611307Y-78407235D01*
X141944902Y-78630136D01*
X142369864Y-79055098D01*
X142369866Y-79055101D01*
X142703761Y-79554810D01*
X142908461Y-80049000D01*
X142933752Y-80110059D01*
X143051000Y-80699501D01*
X143051000Y-81300499D01*
X142935161Y-81882860D01*
X142933751Y-81889944D01*
X142703761Y-82445190D01*
X142533191Y-82700466D01*
X142369864Y-82944902D01*
X141944902Y-83369864D01*
X141944899Y-83369866D01*
X141445190Y-83703761D01*
X140889944Y-83933751D01*
X140889943Y-83933751D01*
X140889941Y-83933752D01*
X140300499Y-84051000D01*
X139699501Y-84051000D01*
X139110059Y-83933752D01*
X139110057Y-83933751D01*
X139110056Y-83933751D01*
X138554810Y-83703761D01*
X138055101Y-83369866D01*
X138055098Y-83369864D01*
X137630136Y-82944902D01*
X137466809Y-82700466D01*
X137296239Y-82445190D01*
X137066249Y-81889944D01*
X137064840Y-81882860D01*
X136949000Y-81300499D01*
X136949000Y-80699501D01*
X137066248Y-80110059D01*
X137091539Y-80049000D01*
X137296239Y-79554810D01*
X137630134Y-79055101D01*
X137630136Y-79055098D01*
X138055098Y-78630136D01*
X138388693Y-78407235D01*
X138554810Y-78296239D01*
X139110056Y-78066249D01*
X139110057Y-78066249D01*
X139110059Y-78066248D01*
X139699501Y-77949000D01*
X140300499Y-77949000D01*
X140889941Y-78066248D01*
X140889941Y-78066248D01*
G37*
G36*
X176766821Y-81781313D02*
X176766824Y-81781314D01*
X176766825Y-81781314D01*
X176927239Y-81829975D01*
X176927241Y-81829976D01*
X176927244Y-81829977D01*
X177075078Y-81908995D01*
X177204659Y-82015341D01*
X177311005Y-82144922D01*
X177390023Y-82292756D01*
X177390024Y-82292759D01*
X177390025Y-82292761D01*
X177405467Y-82343667D01*
X177438687Y-82453179D01*
X177455117Y-82620000D01*
X177438687Y-82786821D01*
X177438686Y-82786824D01*
X177438686Y-82786825D01*
X177390734Y-82944902D01*
X177390023Y-82947244D01*
X177311005Y-83095078D01*
X177204659Y-83224659D01*
X177075078Y-83331005D01*
X176927244Y-83410023D01*
X176927241Y-83410024D01*
X176927239Y-83410025D01*
X176766825Y-83458686D01*
X176766824Y-83458686D01*
X176766821Y-83458687D01*
X176641804Y-83471000D01*
X176558196Y-83471000D01*
X176433179Y-83458687D01*
X176433176Y-83458686D01*
X176433175Y-83458686D01*
X176272761Y-83410025D01*
X176272759Y-83410024D01*
X176272756Y-83410023D01*
X176124922Y-83331005D01*
X175995341Y-83224659D01*
X175888995Y-83095078D01*
X175809977Y-82947244D01*
X175809267Y-82944902D01*
X175761314Y-82786825D01*
X175761314Y-82786824D01*
X175761313Y-82786821D01*
X175744883Y-82620000D01*
X175761313Y-82453179D01*
X175794533Y-82343667D01*
X175809975Y-82292761D01*
X175809976Y-82292759D01*
X175809977Y-82292756D01*
X175888995Y-82144922D01*
X175995341Y-82015341D01*
X176124922Y-81908995D01*
X176272756Y-81829977D01*
X176272759Y-81829976D01*
X176272761Y-81829975D01*
X176433175Y-81781314D01*
X176433176Y-81781314D01*
X176433179Y-81781313D01*
X176558196Y-81769000D01*
X176641804Y-81769000D01*
X176766821Y-81781313D01*
X176766821Y-81781313D01*
G37*
G36*
X179306821Y-81781313D02*
X179306824Y-81781314D01*
X179306825Y-81781314D01*
X179467239Y-81829975D01*
X179467241Y-81829976D01*
X179467244Y-81829977D01*
X179615078Y-81908995D01*
X179744659Y-82015341D01*
X179851005Y-82144922D01*
X179930023Y-82292756D01*
X179930024Y-82292759D01*
X179930025Y-82292761D01*
X179945467Y-82343667D01*
X179978687Y-82453179D01*
X179995117Y-82620000D01*
X179978687Y-82786821D01*
X179978686Y-82786824D01*
X179978686Y-82786825D01*
X179930734Y-82944902D01*
X179930023Y-82947244D01*
X179851005Y-83095078D01*
X179744659Y-83224659D01*
X179615078Y-83331005D01*
X179467244Y-83410023D01*
X179467241Y-83410024D01*
X179467239Y-83410025D01*
X179306825Y-83458686D01*
X179306824Y-83458686D01*
X179306821Y-83458687D01*
X179181804Y-83471000D01*
X179098196Y-83471000D01*
X178973179Y-83458687D01*
X178973176Y-83458686D01*
X178973175Y-83458686D01*
X178812761Y-83410025D01*
X178812759Y-83410024D01*
X178812756Y-83410023D01*
X178664922Y-83331005D01*
X178535341Y-83224659D01*
X178428995Y-83095078D01*
X178349977Y-82947244D01*
X178349267Y-82944902D01*
X178301314Y-82786825D01*
X178301314Y-82786824D01*
X178301313Y-82786821D01*
X178284883Y-82620000D01*
X178301313Y-82453179D01*
X178334533Y-82343667D01*
X178349975Y-82292761D01*
X178349976Y-82292759D01*
X178349977Y-82292756D01*
X178428995Y-82144922D01*
X178535341Y-82015341D01*
X178664922Y-81908995D01*
X178812756Y-81829977D01*
X178812759Y-81829976D01*
X178812761Y-81829975D01*
X178973175Y-81781314D01*
X178973176Y-81781314D01*
X178973179Y-81781313D01*
X179098196Y-81769000D01*
X179181804Y-81769000D01*
X179306821Y-81781313D01*
X179306821Y-81781313D01*
G37*
G36*
X174226821Y-81781313D02*
X174226824Y-81781314D01*
X174226825Y-81781314D01*
X174387239Y-81829975D01*
X174387241Y-81829976D01*
X174387244Y-81829977D01*
X174535078Y-81908995D01*
X174664659Y-82015341D01*
X174771005Y-82144922D01*
X174850023Y-82292756D01*
X174850024Y-82292759D01*
X174850025Y-82292761D01*
X174865467Y-82343667D01*
X174898687Y-82453179D01*
X174915117Y-82620000D01*
X174898687Y-82786821D01*
X174898686Y-82786824D01*
X174898686Y-82786825D01*
X174850734Y-82944902D01*
X174850023Y-82947244D01*
X174771005Y-83095078D01*
X174664659Y-83224659D01*
X174535078Y-83331005D01*
X174387244Y-83410023D01*
X174387241Y-83410024D01*
X174387239Y-83410025D01*
X174226825Y-83458686D01*
X174226824Y-83458686D01*
X174226821Y-83458687D01*
X174101804Y-83471000D01*
X174018196Y-83471000D01*
X173893179Y-83458687D01*
X173893176Y-83458686D01*
X173893175Y-83458686D01*
X173732761Y-83410025D01*
X173732759Y-83410024D01*
X173732756Y-83410023D01*
X173584922Y-83331005D01*
X173455341Y-83224659D01*
X173348995Y-83095078D01*
X173269977Y-82947244D01*
X173269267Y-82944902D01*
X173221314Y-82786825D01*
X173221314Y-82786824D01*
X173221313Y-82786821D01*
X173204883Y-82620000D01*
X173221313Y-82453179D01*
X173254533Y-82343667D01*
X173269975Y-82292761D01*
X173269976Y-82292759D01*
X173269977Y-82292756D01*
X173348995Y-82144922D01*
X173455341Y-82015341D01*
X173584922Y-81908995D01*
X173732756Y-81829977D01*
X173732759Y-81829976D01*
X173732761Y-81829975D01*
X173893175Y-81781314D01*
X173893176Y-81781314D01*
X173893179Y-81781313D01*
X174018196Y-81769000D01*
X174101804Y-81769000D01*
X174226821Y-81781313D01*
X174226821Y-81781313D01*
G37*
G36*
X171686821Y-81781313D02*
X171686824Y-81781314D01*
X171686825Y-81781314D01*
X171847239Y-81829975D01*
X171847241Y-81829976D01*
X171847244Y-81829977D01*
X171995078Y-81908995D01*
X172124659Y-82015341D01*
X172231005Y-82144922D01*
X172310023Y-82292756D01*
X172310024Y-82292759D01*
X172310025Y-82292761D01*
X172325467Y-82343667D01*
X172358687Y-82453179D01*
X172375117Y-82620000D01*
X172358687Y-82786821D01*
X172358686Y-82786824D01*
X172358686Y-82786825D01*
X172310734Y-82944902D01*
X172310023Y-82947244D01*
X172231005Y-83095078D01*
X172124659Y-83224659D01*
X171995078Y-83331005D01*
X171847244Y-83410023D01*
X171847241Y-83410024D01*
X171847239Y-83410025D01*
X171686825Y-83458686D01*
X171686824Y-83458686D01*
X171686821Y-83458687D01*
X171561804Y-83471000D01*
X171478196Y-83471000D01*
X171353179Y-83458687D01*
X171353176Y-83458686D01*
X171353175Y-83458686D01*
X171192761Y-83410025D01*
X171192759Y-83410024D01*
X171192756Y-83410023D01*
X171044922Y-83331005D01*
X170915341Y-83224659D01*
X170808995Y-83095078D01*
X170729977Y-82947244D01*
X170729267Y-82944902D01*
X170681314Y-82786825D01*
X170681314Y-82786824D01*
X170681313Y-82786821D01*
X170664883Y-82620000D01*
X170681313Y-82453179D01*
X170714533Y-82343667D01*
X170729975Y-82292761D01*
X170729976Y-82292759D01*
X170729977Y-82292756D01*
X170808995Y-82144922D01*
X170915341Y-82015341D01*
X171044922Y-81908995D01*
X171192756Y-81829977D01*
X171192759Y-81829976D01*
X171192761Y-81829975D01*
X171353175Y-81781314D01*
X171353176Y-81781314D01*
X171353179Y-81781313D01*
X171478196Y-81769000D01*
X171561804Y-81769000D01*
X171686821Y-81781313D01*
X171686821Y-81781313D01*
G37*
G36*
X169146821Y-81781313D02*
X169146824Y-81781314D01*
X169146825Y-81781314D01*
X169307239Y-81829975D01*
X169307241Y-81829976D01*
X169307244Y-81829977D01*
X169455078Y-81908995D01*
X169584659Y-82015341D01*
X169691005Y-82144922D01*
X169770023Y-82292756D01*
X169770024Y-82292759D01*
X169770025Y-82292761D01*
X169785467Y-82343667D01*
X169818687Y-82453179D01*
X169835117Y-82620000D01*
X169818687Y-82786821D01*
X169818686Y-82786824D01*
X169818686Y-82786825D01*
X169770734Y-82944902D01*
X169770023Y-82947244D01*
X169691005Y-83095078D01*
X169584659Y-83224659D01*
X169455078Y-83331005D01*
X169307244Y-83410023D01*
X169307241Y-83410024D01*
X169307239Y-83410025D01*
X169146825Y-83458686D01*
X169146824Y-83458686D01*
X169146821Y-83458687D01*
X169021804Y-83471000D01*
X168938196Y-83471000D01*
X168813179Y-83458687D01*
X168813176Y-83458686D01*
X168813175Y-83458686D01*
X168652761Y-83410025D01*
X168652759Y-83410024D01*
X168652756Y-83410023D01*
X168504922Y-83331005D01*
X168375341Y-83224659D01*
X168268995Y-83095078D01*
X168189977Y-82947244D01*
X168189267Y-82944902D01*
X168141314Y-82786825D01*
X168141314Y-82786824D01*
X168141313Y-82786821D01*
X168124883Y-82620000D01*
X168141313Y-82453179D01*
X168174533Y-82343667D01*
X168189975Y-82292761D01*
X168189976Y-82292759D01*
X168189977Y-82292756D01*
X168268995Y-82144922D01*
X168375341Y-82015341D01*
X168504922Y-81908995D01*
X168652756Y-81829977D01*
X168652759Y-81829976D01*
X168652761Y-81829975D01*
X168813175Y-81781314D01*
X168813176Y-81781314D01*
X168813179Y-81781313D01*
X168938196Y-81769000D01*
X169021804Y-81769000D01*
X169146821Y-81781313D01*
X169146821Y-81781313D01*
G37*
G36*
X181846821Y-81781313D02*
X181846824Y-81781314D01*
X181846825Y-81781314D01*
X182007239Y-81829975D01*
X182007241Y-81829976D01*
X182007244Y-81829977D01*
X182155078Y-81908995D01*
X182284659Y-82015341D01*
X182391005Y-82144922D01*
X182470023Y-82292756D01*
X182470024Y-82292759D01*
X182470025Y-82292761D01*
X182485467Y-82343667D01*
X182518687Y-82453179D01*
X182535117Y-82620000D01*
X182518687Y-82786821D01*
X182518686Y-82786824D01*
X182518686Y-82786825D01*
X182470734Y-82944902D01*
X182470023Y-82947244D01*
X182391005Y-83095078D01*
X182284659Y-83224659D01*
X182155078Y-83331005D01*
X182007244Y-83410023D01*
X182007241Y-83410024D01*
X182007239Y-83410025D01*
X181846825Y-83458686D01*
X181846824Y-83458686D01*
X181846821Y-83458687D01*
X181721804Y-83471000D01*
X181638196Y-83471000D01*
X181513179Y-83458687D01*
X181513176Y-83458686D01*
X181513175Y-83458686D01*
X181352761Y-83410025D01*
X181352759Y-83410024D01*
X181352756Y-83410023D01*
X181204922Y-83331005D01*
X181075341Y-83224659D01*
X180968995Y-83095078D01*
X180889977Y-82947244D01*
X180889267Y-82944902D01*
X180841314Y-82786825D01*
X180841314Y-82786824D01*
X180841313Y-82786821D01*
X180824883Y-82620000D01*
X180841313Y-82453179D01*
X180874533Y-82343667D01*
X180889975Y-82292761D01*
X180889976Y-82292759D01*
X180889977Y-82292756D01*
X180968995Y-82144922D01*
X181075341Y-82015341D01*
X181204922Y-81908995D01*
X181352756Y-81829977D01*
X181352759Y-81829976D01*
X181352761Y-81829975D01*
X181513175Y-81781314D01*
X181513176Y-81781314D01*
X181513179Y-81781313D01*
X181638196Y-81769000D01*
X181721804Y-81769000D01*
X181846821Y-81781313D01*
X181846821Y-81781313D01*
G37*
G36*
X184386821Y-81781313D02*
X184386824Y-81781314D01*
X184386825Y-81781314D01*
X184547239Y-81829975D01*
X184547241Y-81829976D01*
X184547244Y-81829977D01*
X184695078Y-81908995D01*
X184824659Y-82015341D01*
X184931005Y-82144922D01*
X185010023Y-82292756D01*
X185010024Y-82292759D01*
X185010025Y-82292761D01*
X185025467Y-82343667D01*
X185058687Y-82453179D01*
X185075117Y-82620000D01*
X185058687Y-82786821D01*
X185058686Y-82786824D01*
X185058686Y-82786825D01*
X185010734Y-82944902D01*
X185010023Y-82947244D01*
X184931005Y-83095078D01*
X184824659Y-83224659D01*
X184695078Y-83331005D01*
X184547244Y-83410023D01*
X184547241Y-83410024D01*
X184547239Y-83410025D01*
X184386825Y-83458686D01*
X184386824Y-83458686D01*
X184386821Y-83458687D01*
X184261804Y-83471000D01*
X184178196Y-83471000D01*
X184053179Y-83458687D01*
X184053176Y-83458686D01*
X184053175Y-83458686D01*
X183892761Y-83410025D01*
X183892759Y-83410024D01*
X183892756Y-83410023D01*
X183744922Y-83331005D01*
X183615341Y-83224659D01*
X183508995Y-83095078D01*
X183429977Y-82947244D01*
X183429267Y-82944902D01*
X183381314Y-82786825D01*
X183381314Y-82786824D01*
X183381313Y-82786821D01*
X183364883Y-82620000D01*
X183381313Y-82453179D01*
X183414533Y-82343667D01*
X183429975Y-82292761D01*
X183429976Y-82292759D01*
X183429977Y-82292756D01*
X183508995Y-82144922D01*
X183615341Y-82015341D01*
X183744922Y-81908995D01*
X183892756Y-81829977D01*
X183892759Y-81829976D01*
X183892761Y-81829975D01*
X184053175Y-81781314D01*
X184053176Y-81781314D01*
X184053179Y-81781313D01*
X184178196Y-81769000D01*
X184261804Y-81769000D01*
X184386821Y-81781313D01*
X184386821Y-81781313D01*
G37*
G36*
X186926821Y-81781313D02*
X186926824Y-81781314D01*
X186926825Y-81781314D01*
X187087239Y-81829975D01*
X187087241Y-81829976D01*
X187087244Y-81829977D01*
X187235078Y-81908995D01*
X187364659Y-82015341D01*
X187471005Y-82144922D01*
X187550023Y-82292756D01*
X187550024Y-82292759D01*
X187550025Y-82292761D01*
X187565467Y-82343667D01*
X187598687Y-82453179D01*
X187615117Y-82620000D01*
X187598687Y-82786821D01*
X187598686Y-82786824D01*
X187598686Y-82786825D01*
X187550734Y-82944902D01*
X187550023Y-82947244D01*
X187471005Y-83095078D01*
X187364659Y-83224659D01*
X187235078Y-83331005D01*
X187087244Y-83410023D01*
X187087241Y-83410024D01*
X187087239Y-83410025D01*
X186926825Y-83458686D01*
X186926824Y-83458686D01*
X186926821Y-83458687D01*
X186801804Y-83471000D01*
X186718196Y-83471000D01*
X186593179Y-83458687D01*
X186593176Y-83458686D01*
X186593175Y-83458686D01*
X186432761Y-83410025D01*
X186432759Y-83410024D01*
X186432756Y-83410023D01*
X186284922Y-83331005D01*
X186155341Y-83224659D01*
X186048995Y-83095078D01*
X185969977Y-82947244D01*
X185969267Y-82944902D01*
X185921314Y-82786825D01*
X185921314Y-82786824D01*
X185921313Y-82786821D01*
X185904883Y-82620000D01*
X185921313Y-82453179D01*
X185954533Y-82343667D01*
X185969975Y-82292761D01*
X185969976Y-82292759D01*
X185969977Y-82292756D01*
X186048995Y-82144922D01*
X186155341Y-82015341D01*
X186284922Y-81908995D01*
X186432756Y-81829977D01*
X186432759Y-81829976D01*
X186432761Y-81829975D01*
X186593175Y-81781314D01*
X186593176Y-81781314D01*
X186593179Y-81781313D01*
X186718196Y-81769000D01*
X186801804Y-81769000D01*
X186926821Y-81781313D01*
X186926821Y-81781313D01*
G37*
G36*
X189466821Y-81781313D02*
X189466824Y-81781314D01*
X189466825Y-81781314D01*
X189627239Y-81829975D01*
X189627241Y-81829976D01*
X189627244Y-81829977D01*
X189775078Y-81908995D01*
X189904659Y-82015341D01*
X190011005Y-82144922D01*
X190090023Y-82292756D01*
X190090024Y-82292759D01*
X190090025Y-82292761D01*
X190105467Y-82343667D01*
X190138687Y-82453179D01*
X190155117Y-82620000D01*
X190138687Y-82786821D01*
X190138686Y-82786824D01*
X190138686Y-82786825D01*
X190090734Y-82944902D01*
X190090023Y-82947244D01*
X190011005Y-83095078D01*
X189904659Y-83224659D01*
X189775078Y-83331005D01*
X189627244Y-83410023D01*
X189627241Y-83410024D01*
X189627239Y-83410025D01*
X189466825Y-83458686D01*
X189466824Y-83458686D01*
X189466821Y-83458687D01*
X189341804Y-83471000D01*
X189258196Y-83471000D01*
X189133179Y-83458687D01*
X189133176Y-83458686D01*
X189133175Y-83458686D01*
X188972761Y-83410025D01*
X188972759Y-83410024D01*
X188972756Y-83410023D01*
X188824922Y-83331005D01*
X188695341Y-83224659D01*
X188588995Y-83095078D01*
X188509977Y-82947244D01*
X188509267Y-82944902D01*
X188461314Y-82786825D01*
X188461314Y-82786824D01*
X188461313Y-82786821D01*
X188444883Y-82620000D01*
X188461313Y-82453179D01*
X188494533Y-82343667D01*
X188509975Y-82292761D01*
X188509976Y-82292759D01*
X188509977Y-82292756D01*
X188588995Y-82144922D01*
X188695341Y-82015341D01*
X188824922Y-81908995D01*
X188972756Y-81829977D01*
X188972759Y-81829976D01*
X188972761Y-81829975D01*
X189133175Y-81781314D01*
X189133176Y-81781314D01*
X189133179Y-81781313D01*
X189258196Y-81769000D01*
X189341804Y-81769000D01*
X189466821Y-81781313D01*
X189466821Y-81781313D01*
G37*
G36*
X192006821Y-81781313D02*
X192006824Y-81781314D01*
X192006825Y-81781314D01*
X192167239Y-81829975D01*
X192167241Y-81829976D01*
X192167244Y-81829977D01*
X192315078Y-81908995D01*
X192444659Y-82015341D01*
X192551005Y-82144922D01*
X192630023Y-82292756D01*
X192630024Y-82292759D01*
X192630025Y-82292761D01*
X192645467Y-82343667D01*
X192678687Y-82453179D01*
X192695117Y-82620000D01*
X192678687Y-82786821D01*
X192678686Y-82786824D01*
X192678686Y-82786825D01*
X192630734Y-82944902D01*
X192630023Y-82947244D01*
X192551005Y-83095078D01*
X192444659Y-83224659D01*
X192315078Y-83331005D01*
X192167244Y-83410023D01*
X192167241Y-83410024D01*
X192167239Y-83410025D01*
X192006825Y-83458686D01*
X192006824Y-83458686D01*
X192006821Y-83458687D01*
X191881804Y-83471000D01*
X191798196Y-83471000D01*
X191673179Y-83458687D01*
X191673176Y-83458686D01*
X191673175Y-83458686D01*
X191512761Y-83410025D01*
X191512759Y-83410024D01*
X191512756Y-83410023D01*
X191364922Y-83331005D01*
X191235341Y-83224659D01*
X191128995Y-83095078D01*
X191049977Y-82947244D01*
X191049267Y-82944902D01*
X191001314Y-82786825D01*
X191001314Y-82786824D01*
X191001313Y-82786821D01*
X190984883Y-82620000D01*
X191001313Y-82453179D01*
X191034533Y-82343667D01*
X191049975Y-82292761D01*
X191049976Y-82292759D01*
X191049977Y-82292756D01*
X191128995Y-82144922D01*
X191235341Y-82015341D01*
X191364922Y-81908995D01*
X191512756Y-81829977D01*
X191512759Y-81829976D01*
X191512761Y-81829975D01*
X191673175Y-81781314D01*
X191673176Y-81781314D01*
X191673179Y-81781313D01*
X191798196Y-81769000D01*
X191881804Y-81769000D01*
X192006821Y-81781313D01*
X192006821Y-81781313D01*
G37*
G36*
X194546821Y-81781313D02*
X194546824Y-81781314D01*
X194546825Y-81781314D01*
X194707239Y-81829975D01*
X194707241Y-81829976D01*
X194707244Y-81829977D01*
X194855078Y-81908995D01*
X194984659Y-82015341D01*
X195091005Y-82144922D01*
X195170023Y-82292756D01*
X195170024Y-82292759D01*
X195170025Y-82292761D01*
X195185467Y-82343667D01*
X195218687Y-82453179D01*
X195235117Y-82620000D01*
X195218687Y-82786821D01*
X195218686Y-82786824D01*
X195218686Y-82786825D01*
X195170734Y-82944902D01*
X195170023Y-82947244D01*
X195091005Y-83095078D01*
X194984659Y-83224659D01*
X194855078Y-83331005D01*
X194707244Y-83410023D01*
X194707241Y-83410024D01*
X194707239Y-83410025D01*
X194546825Y-83458686D01*
X194546824Y-83458686D01*
X194546821Y-83458687D01*
X194421804Y-83471000D01*
X194338196Y-83471000D01*
X194213179Y-83458687D01*
X194213176Y-83458686D01*
X194213175Y-83458686D01*
X194052761Y-83410025D01*
X194052759Y-83410024D01*
X194052756Y-83410023D01*
X193904922Y-83331005D01*
X193775341Y-83224659D01*
X193668995Y-83095078D01*
X193589977Y-82947244D01*
X193589267Y-82944902D01*
X193541314Y-82786825D01*
X193541314Y-82786824D01*
X193541313Y-82786821D01*
X193524883Y-82620000D01*
X193541313Y-82453179D01*
X193574533Y-82343667D01*
X193589975Y-82292761D01*
X193589976Y-82292759D01*
X193589977Y-82292756D01*
X193668995Y-82144922D01*
X193775341Y-82015341D01*
X193904922Y-81908995D01*
X194052756Y-81829977D01*
X194052759Y-81829976D01*
X194052761Y-81829975D01*
X194213175Y-81781314D01*
X194213176Y-81781314D01*
X194213179Y-81781313D01*
X194338196Y-81769000D01*
X194421804Y-81769000D01*
X194546821Y-81781313D01*
X194546821Y-81781313D01*
G37*
G36*
X197086821Y-81781313D02*
X197086824Y-81781314D01*
X197086825Y-81781314D01*
X197247239Y-81829975D01*
X197247241Y-81829976D01*
X197247244Y-81829977D01*
X197395078Y-81908995D01*
X197524659Y-82015341D01*
X197631005Y-82144922D01*
X197710023Y-82292756D01*
X197710024Y-82292759D01*
X197710025Y-82292761D01*
X197725467Y-82343667D01*
X197758687Y-82453179D01*
X197775117Y-82620000D01*
X197758687Y-82786821D01*
X197758686Y-82786824D01*
X197758686Y-82786825D01*
X197710734Y-82944902D01*
X197710023Y-82947244D01*
X197631005Y-83095078D01*
X197524659Y-83224659D01*
X197395078Y-83331005D01*
X197247244Y-83410023D01*
X197247241Y-83410024D01*
X197247239Y-83410025D01*
X197086825Y-83458686D01*
X197086824Y-83458686D01*
X197086821Y-83458687D01*
X196961804Y-83471000D01*
X196878196Y-83471000D01*
X196753179Y-83458687D01*
X196753176Y-83458686D01*
X196753175Y-83458686D01*
X196592761Y-83410025D01*
X196592759Y-83410024D01*
X196592756Y-83410023D01*
X196444922Y-83331005D01*
X196315341Y-83224659D01*
X196208995Y-83095078D01*
X196129977Y-82947244D01*
X196129267Y-82944902D01*
X196081314Y-82786825D01*
X196081314Y-82786824D01*
X196081313Y-82786821D01*
X196064883Y-82620000D01*
X196081313Y-82453179D01*
X196114533Y-82343667D01*
X196129975Y-82292761D01*
X196129976Y-82292759D01*
X196129977Y-82292756D01*
X196208995Y-82144922D01*
X196315341Y-82015341D01*
X196444922Y-81908995D01*
X196592756Y-81829977D01*
X196592759Y-81829976D01*
X196592761Y-81829975D01*
X196753175Y-81781314D01*
X196753176Y-81781314D01*
X196753179Y-81781313D01*
X196878196Y-81769000D01*
X196961804Y-81769000D01*
X197086821Y-81781313D01*
X197086821Y-81781313D01*
G37*
G36*
X199626821Y-81781313D02*
X199626824Y-81781314D01*
X199626825Y-81781314D01*
X199787239Y-81829975D01*
X199787241Y-81829976D01*
X199787244Y-81829977D01*
X199935078Y-81908995D01*
X200064659Y-82015341D01*
X200171005Y-82144922D01*
X200250023Y-82292756D01*
X200250024Y-82292759D01*
X200250025Y-82292761D01*
X200265467Y-82343667D01*
X200298687Y-82453179D01*
X200315117Y-82620000D01*
X200298687Y-82786821D01*
X200298686Y-82786824D01*
X200298686Y-82786825D01*
X200250734Y-82944902D01*
X200250023Y-82947244D01*
X200171005Y-83095078D01*
X200064659Y-83224659D01*
X199935078Y-83331005D01*
X199787244Y-83410023D01*
X199787241Y-83410024D01*
X199787239Y-83410025D01*
X199626825Y-83458686D01*
X199626824Y-83458686D01*
X199626821Y-83458687D01*
X199501804Y-83471000D01*
X199418196Y-83471000D01*
X199293179Y-83458687D01*
X199293176Y-83458686D01*
X199293175Y-83458686D01*
X199132761Y-83410025D01*
X199132759Y-83410024D01*
X199132756Y-83410023D01*
X198984922Y-83331005D01*
X198855341Y-83224659D01*
X198748995Y-83095078D01*
X198669977Y-82947244D01*
X198669267Y-82944902D01*
X198621314Y-82786825D01*
X198621314Y-82786824D01*
X198621313Y-82786821D01*
X198604883Y-82620000D01*
X198621313Y-82453179D01*
X198654533Y-82343667D01*
X198669975Y-82292761D01*
X198669976Y-82292759D01*
X198669977Y-82292756D01*
X198748995Y-82144922D01*
X198855341Y-82015341D01*
X198984922Y-81908995D01*
X199132756Y-81829977D01*
X199132759Y-81829976D01*
X199132761Y-81829975D01*
X199293175Y-81781314D01*
X199293176Y-81781314D01*
X199293179Y-81781313D01*
X199418196Y-81769000D01*
X199501804Y-81769000D01*
X199626821Y-81781313D01*
X199626821Y-81781313D01*
G37*
G36*
X202166821Y-81781313D02*
X202166824Y-81781314D01*
X202166825Y-81781314D01*
X202327239Y-81829975D01*
X202327241Y-81829976D01*
X202327244Y-81829977D01*
X202475078Y-81908995D01*
X202604659Y-82015341D01*
X202711005Y-82144922D01*
X202790023Y-82292756D01*
X202790024Y-82292759D01*
X202790025Y-82292761D01*
X202805467Y-82343667D01*
X202838687Y-82453179D01*
X202855117Y-82620000D01*
X202838687Y-82786821D01*
X202838686Y-82786824D01*
X202838686Y-82786825D01*
X202790734Y-82944902D01*
X202790023Y-82947244D01*
X202711005Y-83095078D01*
X202604659Y-83224659D01*
X202475078Y-83331005D01*
X202327244Y-83410023D01*
X202327241Y-83410024D01*
X202327239Y-83410025D01*
X202166825Y-83458686D01*
X202166824Y-83458686D01*
X202166821Y-83458687D01*
X202041804Y-83471000D01*
X201958196Y-83471000D01*
X201833179Y-83458687D01*
X201833176Y-83458686D01*
X201833175Y-83458686D01*
X201672761Y-83410025D01*
X201672759Y-83410024D01*
X201672756Y-83410023D01*
X201524922Y-83331005D01*
X201395341Y-83224659D01*
X201288995Y-83095078D01*
X201209977Y-82947244D01*
X201209267Y-82944902D01*
X201161314Y-82786825D01*
X201161314Y-82786824D01*
X201161313Y-82786821D01*
X201144883Y-82620000D01*
X201161313Y-82453179D01*
X201194533Y-82343667D01*
X201209975Y-82292761D01*
X201209976Y-82292759D01*
X201209977Y-82292756D01*
X201288995Y-82144922D01*
X201395341Y-82015341D01*
X201524922Y-81908995D01*
X201672756Y-81829977D01*
X201672759Y-81829976D01*
X201672761Y-81829975D01*
X201833175Y-81781314D01*
X201833176Y-81781314D01*
X201833179Y-81781313D01*
X201958196Y-81769000D01*
X202041804Y-81769000D01*
X202166821Y-81781313D01*
X202166821Y-81781313D01*
G37*
G36*
X205951000Y-83201000D02*
X204049000Y-83201000D01*
X204049000Y-81299000D01*
X205951000Y-81299000D01*
X205951000Y-83201000D01*
X205951000Y-83201000D01*
G37*
G36*
X207817396Y-81335546D02*
X207990466Y-81407234D01*
X208146230Y-81511312D01*
X208278688Y-81643770D01*
X208382766Y-81799534D01*
X208454454Y-81972604D01*
X208491000Y-82156333D01*
X208491000Y-82343667D01*
X208454454Y-82527396D01*
X208382766Y-82700466D01*
X208278688Y-82856230D01*
X208146230Y-82988688D01*
X207990466Y-83092766D01*
X207817396Y-83164454D01*
X207633667Y-83201000D01*
X207446333Y-83201000D01*
X207262604Y-83164454D01*
X207089534Y-83092766D01*
X206933770Y-82988688D01*
X206801312Y-82856230D01*
X206697234Y-82700466D01*
X206625546Y-82527396D01*
X206589000Y-82343667D01*
X206589000Y-82156333D01*
X206625546Y-81972604D01*
X206697234Y-81799534D01*
X206801312Y-81643770D01*
X206933770Y-81511312D01*
X207089534Y-81407234D01*
X207262604Y-81335546D01*
X207446333Y-81299000D01*
X207633667Y-81299000D01*
X207817396Y-81335546D01*
X207817396Y-81335546D01*
G37*
G36*
X152766425Y-80062760D02*
X152766428Y-80062761D01*
X152766429Y-80062761D01*
X152945693Y-80117140D01*
X152945695Y-80117141D01*
X153110905Y-80205448D01*
X153255712Y-80324288D01*
X153374552Y-80469095D01*
X153462859Y-80634305D01*
X153462860Y-80634307D01*
X153510626Y-80791772D01*
X153517240Y-80813575D01*
X153535601Y-81000000D01*
X153517240Y-81186425D01*
X153517239Y-81186428D01*
X153517239Y-81186429D01*
X153472005Y-81335547D01*
X153462859Y-81365695D01*
X153374552Y-81530905D01*
X153255712Y-81675712D01*
X153110905Y-81794552D01*
X153044630Y-81829977D01*
X152945693Y-81882860D01*
X152766429Y-81937239D01*
X152766428Y-81937239D01*
X152766425Y-81937240D01*
X152626718Y-81951000D01*
X152533282Y-81951000D01*
X152393575Y-81937240D01*
X152393572Y-81937239D01*
X152393571Y-81937239D01*
X152214307Y-81882860D01*
X152115370Y-81829977D01*
X152049095Y-81794552D01*
X151904288Y-81675712D01*
X151785448Y-81530905D01*
X151697141Y-81365695D01*
X151687996Y-81335547D01*
X151642761Y-81186429D01*
X151642761Y-81186428D01*
X151642760Y-81186425D01*
X151624399Y-81000000D01*
X151642760Y-80813575D01*
X151649374Y-80791772D01*
X151697140Y-80634307D01*
X151697141Y-80634305D01*
X151785448Y-80469095D01*
X151904288Y-80324288D01*
X152049095Y-80205448D01*
X152214305Y-80117141D01*
X152214307Y-80117140D01*
X152393571Y-80062761D01*
X152393572Y-80062761D01*
X152393575Y-80062760D01*
X152533282Y-80049000D01*
X152626718Y-80049000D01*
X152766425Y-80062760D01*
X152766425Y-80062760D01*
G37*
G36*
X150226425Y-80062760D02*
X150226428Y-80062761D01*
X150226429Y-80062761D01*
X150405693Y-80117140D01*
X150405695Y-80117141D01*
X150570905Y-80205448D01*
X150715712Y-80324288D01*
X150834552Y-80469095D01*
X150922859Y-80634305D01*
X150922860Y-80634307D01*
X150970626Y-80791772D01*
X150977240Y-80813575D01*
X150995601Y-81000000D01*
X150977240Y-81186425D01*
X150977239Y-81186428D01*
X150977239Y-81186429D01*
X150932005Y-81335547D01*
X150922859Y-81365695D01*
X150834552Y-81530905D01*
X150715712Y-81675712D01*
X150570905Y-81794552D01*
X150504630Y-81829977D01*
X150405693Y-81882860D01*
X150226429Y-81937239D01*
X150226428Y-81937239D01*
X150226425Y-81937240D01*
X150086718Y-81951000D01*
X149993282Y-81951000D01*
X149853575Y-81937240D01*
X149853572Y-81937239D01*
X149853571Y-81937239D01*
X149674307Y-81882860D01*
X149575370Y-81829977D01*
X149509095Y-81794552D01*
X149364288Y-81675712D01*
X149245448Y-81530905D01*
X149157141Y-81365695D01*
X149147996Y-81335547D01*
X149102761Y-81186429D01*
X149102761Y-81186428D01*
X149102760Y-81186425D01*
X149084399Y-81000000D01*
X149102760Y-80813575D01*
X149109374Y-80791772D01*
X149157140Y-80634307D01*
X149157141Y-80634305D01*
X149245448Y-80469095D01*
X149364288Y-80324288D01*
X149509095Y-80205448D01*
X149674305Y-80117141D01*
X149674307Y-80117140D01*
X149853571Y-80062761D01*
X149853572Y-80062761D01*
X149853575Y-80062760D01*
X149993282Y-80049000D01*
X150086718Y-80049000D01*
X150226425Y-80062760D01*
X150226425Y-80062760D01*
G37*
G36*
X148451000Y-81951000D02*
X146549000Y-81951000D01*
X146549000Y-80049000D01*
X148451000Y-80049000D01*
X148451000Y-81951000D01*
X148451000Y-81951000D01*
G37*
G36*
X126748228Y-80221703D02*
X126903100Y-80285853D01*
X127042481Y-80378985D01*
X127161015Y-80497519D01*
X127254147Y-80636900D01*
X127318297Y-80791772D01*
X127351000Y-80956184D01*
X127351000Y-81123816D01*
X127318297Y-81288228D01*
X127254147Y-81443100D01*
X127161015Y-81582481D01*
X127042481Y-81701015D01*
X126903100Y-81794147D01*
X126748228Y-81858297D01*
X126583816Y-81891000D01*
X126416184Y-81891000D01*
X126251772Y-81858297D01*
X126096900Y-81794147D01*
X125957519Y-81701015D01*
X125838985Y-81582481D01*
X125745853Y-81443100D01*
X125681703Y-81288228D01*
X125649000Y-81123816D01*
X125649000Y-80956184D01*
X125681703Y-80791772D01*
X125745853Y-80636900D01*
X125838985Y-80497519D01*
X125957519Y-80378985D01*
X126096900Y-80285853D01*
X126251772Y-80221703D01*
X126416184Y-80189000D01*
X126583816Y-80189000D01*
X126748228Y-80221703D01*
X126748228Y-80221703D01*
G37*
G36*
X157248228Y-80181703D02*
X157403100Y-80245853D01*
X157542481Y-80338985D01*
X157661015Y-80457519D01*
X157754147Y-80596900D01*
X157818297Y-80751772D01*
X157851000Y-80916184D01*
X157851000Y-81083816D01*
X157818297Y-81248228D01*
X157754147Y-81403100D01*
X157661015Y-81542481D01*
X157542481Y-81661015D01*
X157403100Y-81754147D01*
X157248228Y-81818297D01*
X157083816Y-81851000D01*
X156916184Y-81851000D01*
X156751772Y-81818297D01*
X156596900Y-81754147D01*
X156457519Y-81661015D01*
X156338985Y-81542481D01*
X156245853Y-81403100D01*
X156181703Y-81248228D01*
X156149000Y-81083816D01*
X156149000Y-80916184D01*
X156181703Y-80751772D01*
X156245853Y-80596900D01*
X156338985Y-80457519D01*
X156457519Y-80338985D01*
X156596900Y-80245853D01*
X156751772Y-80181703D01*
X156916184Y-80149000D01*
X157083816Y-80149000D01*
X157248228Y-80181703D01*
X157248228Y-80181703D01*
G37*
G36*
X160351000Y-81851000D02*
X158649000Y-81851000D01*
X158649000Y-80149000D01*
X160351000Y-80149000D01*
X160351000Y-81851000D01*
X160351000Y-81851000D01*
G37*
G36*
X164233643Y-79109781D02*
X164379415Y-79170162D01*
X164510611Y-79257824D01*
X164622176Y-79369389D01*
X164709838Y-79500585D01*
X164770219Y-79646357D01*
X164801000Y-79801107D01*
X164801000Y-79958893D01*
X164770219Y-80113643D01*
X164709838Y-80259415D01*
X164622176Y-80390611D01*
X164510611Y-80502176D01*
X164379415Y-80589838D01*
X164233643Y-80650219D01*
X164078893Y-80681000D01*
X163921107Y-80681000D01*
X163766357Y-80650219D01*
X163620585Y-80589838D01*
X163489389Y-80502176D01*
X163377824Y-80390611D01*
X163290162Y-80259415D01*
X163229781Y-80113643D01*
X163199000Y-79958893D01*
X163199000Y-79801107D01*
X163229781Y-79646357D01*
X163290162Y-79500585D01*
X163377824Y-79369389D01*
X163489389Y-79257824D01*
X163620585Y-79170162D01*
X163766357Y-79109781D01*
X163921107Y-79079000D01*
X164078893Y-79079000D01*
X164233643Y-79109781D01*
X164233643Y-79109781D01*
G37*
G36*
X211317396Y-78335546D02*
X211490466Y-78407234D01*
X211646230Y-78511312D01*
X211778688Y-78643770D01*
X211882766Y-78799534D01*
X211954454Y-78972604D01*
X211991000Y-79156333D01*
X211991000Y-79343667D01*
X211954454Y-79527396D01*
X211882766Y-79700466D01*
X211778688Y-79856230D01*
X211646230Y-79988688D01*
X211490466Y-80092766D01*
X211317396Y-80164454D01*
X211133667Y-80201000D01*
X210946333Y-80201000D01*
X210762604Y-80164454D01*
X210589534Y-80092766D01*
X210433770Y-79988688D01*
X210301312Y-79856230D01*
X210197234Y-79700466D01*
X210125546Y-79527396D01*
X210089000Y-79343667D01*
X210089000Y-79156333D01*
X210125546Y-78972604D01*
X210197234Y-78799534D01*
X210301312Y-78643770D01*
X210433770Y-78511312D01*
X210589534Y-78407234D01*
X210762604Y-78335546D01*
X210946333Y-78299000D01*
X211133667Y-78299000D01*
X211317396Y-78335546D01*
X211317396Y-78335546D01*
G37*
G36*
X209451000Y-80201000D02*
X207549000Y-80201000D01*
X207549000Y-78299000D01*
X209451000Y-78299000D01*
X209451000Y-80201000D01*
X209451000Y-80201000D01*
G37*
G36*
X204748228Y-77971703D02*
X204903100Y-78035853D01*
X205042481Y-78128985D01*
X205161015Y-78247519D01*
X205254147Y-78386900D01*
X205318297Y-78541772D01*
X205351000Y-78706184D01*
X205351000Y-78873816D01*
X205318297Y-79038228D01*
X205254147Y-79193100D01*
X205161015Y-79332481D01*
X205042481Y-79451015D01*
X204903100Y-79544147D01*
X204748228Y-79608297D01*
X204583816Y-79641000D01*
X204416184Y-79641000D01*
X204251772Y-79608297D01*
X204096900Y-79544147D01*
X203957519Y-79451015D01*
X203838985Y-79332481D01*
X203745853Y-79193100D01*
X203681703Y-79038228D01*
X203649000Y-78873816D01*
X203649000Y-78706184D01*
X203681703Y-78541772D01*
X203745853Y-78386900D01*
X203838985Y-78247519D01*
X203957519Y-78128985D01*
X204096900Y-78035853D01*
X204251772Y-77971703D01*
X204416184Y-77939000D01*
X204583816Y-77939000D01*
X204748228Y-77971703D01*
X204748228Y-77971703D01*
G37*
G36*
X126666821Y-77661313D02*
X126666824Y-77661314D01*
X126666825Y-77661314D01*
X126827239Y-77709975D01*
X126827241Y-77709976D01*
X126827244Y-77709977D01*
X126975078Y-77788995D01*
X127104659Y-77895341D01*
X127211005Y-78024922D01*
X127290023Y-78172756D01*
X127290024Y-78172759D01*
X127290025Y-78172761D01*
X127327482Y-78296240D01*
X127338687Y-78333179D01*
X127355117Y-78500000D01*
X127338687Y-78666821D01*
X127338686Y-78666824D01*
X127338686Y-78666825D01*
X127298430Y-78799533D01*
X127290023Y-78827244D01*
X127211005Y-78975078D01*
X127104659Y-79104659D01*
X126975078Y-79211005D01*
X126827244Y-79290023D01*
X126827241Y-79290024D01*
X126827239Y-79290025D01*
X126666825Y-79338686D01*
X126666824Y-79338686D01*
X126666821Y-79338687D01*
X126541804Y-79351000D01*
X126458196Y-79351000D01*
X126333179Y-79338687D01*
X126333176Y-79338686D01*
X126333175Y-79338686D01*
X126172761Y-79290025D01*
X126172759Y-79290024D01*
X126172756Y-79290023D01*
X126024922Y-79211005D01*
X125895341Y-79104659D01*
X125788995Y-78975078D01*
X125709977Y-78827244D01*
X125701571Y-78799533D01*
X125661314Y-78666825D01*
X125661314Y-78666824D01*
X125661313Y-78666821D01*
X125644883Y-78500000D01*
X125661313Y-78333179D01*
X125672518Y-78296240D01*
X125709975Y-78172761D01*
X125709976Y-78172759D01*
X125709977Y-78172756D01*
X125788995Y-78024922D01*
X125895341Y-77895341D01*
X126024922Y-77788995D01*
X126172756Y-77709977D01*
X126172759Y-77709976D01*
X126172761Y-77709975D01*
X126333175Y-77661314D01*
X126333176Y-77661314D01*
X126333179Y-77661313D01*
X126458196Y-77649000D01*
X126541804Y-77649000D01*
X126666821Y-77661313D01*
X126666821Y-77661313D01*
G37*
G36*
X204666821Y-75411313D02*
X204666824Y-75411314D01*
X204666825Y-75411314D01*
X204827239Y-75459975D01*
X204827241Y-75459976D01*
X204827244Y-75459977D01*
X204975078Y-75538995D01*
X205104659Y-75645341D01*
X205211005Y-75774922D01*
X205290023Y-75922756D01*
X205338687Y-76083179D01*
X205355117Y-76250000D01*
X205338687Y-76416821D01*
X205338686Y-76416824D01*
X205338686Y-76416825D01*
X205324650Y-76463097D01*
X205290023Y-76577244D01*
X205211005Y-76725078D01*
X205104659Y-76854659D01*
X204975078Y-76961005D01*
X204827244Y-77040023D01*
X204827241Y-77040024D01*
X204827239Y-77040025D01*
X204666825Y-77088686D01*
X204666824Y-77088686D01*
X204666821Y-77088687D01*
X204541804Y-77101000D01*
X204458196Y-77101000D01*
X204333179Y-77088687D01*
X204333176Y-77088686D01*
X204333175Y-77088686D01*
X204172761Y-77040025D01*
X204172759Y-77040024D01*
X204172756Y-77040023D01*
X204024922Y-76961005D01*
X203895341Y-76854659D01*
X203788995Y-76725078D01*
X203709977Y-76577244D01*
X203675351Y-76463097D01*
X203661314Y-76416825D01*
X203661314Y-76416824D01*
X203661313Y-76416821D01*
X203644883Y-76250000D01*
X203661313Y-76083179D01*
X203709977Y-75922756D01*
X203788995Y-75774922D01*
X203895341Y-75645341D01*
X204024922Y-75538995D01*
X204172756Y-75459977D01*
X204172759Y-75459976D01*
X204172761Y-75459975D01*
X204333175Y-75411314D01*
X204333176Y-75411314D01*
X204333179Y-75411313D01*
X204458196Y-75399000D01*
X204541804Y-75399000D01*
X204666821Y-75411313D01*
X204666821Y-75411313D01*
G37*
G36*
X152351000Y-76851000D02*
X150649000Y-76851000D01*
X150649000Y-75149000D01*
X152351000Y-75149000D01*
X152351000Y-76851000D01*
X152351000Y-76851000D01*
G37*
G36*
X207875256Y-73391298D02*
X207981579Y-73412447D01*
X208282042Y-73536903D01*
X208548852Y-73715180D01*
X208552454Y-73717587D01*
X208782413Y-73947546D01*
X208782415Y-73947549D01*
X208963097Y-74217958D01*
X209075529Y-74489392D01*
X209087553Y-74518422D01*
X209151000Y-74837389D01*
X209151000Y-75162611D01*
X209118253Y-75327239D01*
X209087553Y-75481579D01*
X208963097Y-75782042D01*
X208869075Y-75922756D01*
X208782413Y-76052454D01*
X208552454Y-76282413D01*
X208552451Y-76282415D01*
X208282042Y-76463097D01*
X207981579Y-76587553D01*
X207875256Y-76608702D01*
X207662611Y-76651000D01*
X207337389Y-76651000D01*
X207124744Y-76608702D01*
X207018421Y-76587553D01*
X206717958Y-76463097D01*
X206447549Y-76282415D01*
X206447546Y-76282413D01*
X206217587Y-76052454D01*
X206130925Y-75922756D01*
X206036903Y-75782042D01*
X205912447Y-75481579D01*
X205881747Y-75327239D01*
X205849000Y-75162611D01*
X205849000Y-74837389D01*
X205912447Y-74518422D01*
X205924472Y-74489392D01*
X206036903Y-74217958D01*
X206217585Y-73947549D01*
X206217587Y-73947546D01*
X206447546Y-73717587D01*
X206451148Y-73715180D01*
X206717958Y-73536903D01*
X207018421Y-73412447D01*
X207124744Y-73391298D01*
X207337389Y-73349000D01*
X207662611Y-73349000D01*
X207875256Y-73391298D01*
X207875256Y-73391298D01*
G37*
G36*
X120375256Y-73391298D02*
X120481579Y-73412447D01*
X120782042Y-73536903D01*
X121048852Y-73715180D01*
X121052454Y-73717587D01*
X121282413Y-73947546D01*
X121282415Y-73947549D01*
X121463097Y-74217958D01*
X121575529Y-74489392D01*
X121587553Y-74518422D01*
X121651000Y-74837389D01*
X121651000Y-75162611D01*
X121618253Y-75327239D01*
X121587553Y-75481579D01*
X121463097Y-75782042D01*
X121369075Y-75922756D01*
X121282413Y-76052454D01*
X121052454Y-76282413D01*
X121052451Y-76282415D01*
X120782042Y-76463097D01*
X120481579Y-76587553D01*
X120375256Y-76608702D01*
X120162611Y-76651000D01*
X119837389Y-76651000D01*
X119624744Y-76608702D01*
X119518421Y-76587553D01*
X119217958Y-76463097D01*
X118947549Y-76282415D01*
X118947546Y-76282413D01*
X118717587Y-76052454D01*
X118630925Y-75922756D01*
X118536903Y-75782042D01*
X118412447Y-75481579D01*
X118381747Y-75327239D01*
X118349000Y-75162611D01*
X118349000Y-74837389D01*
X118412447Y-74518422D01*
X118424472Y-74489392D01*
X118536903Y-74217958D01*
X118717585Y-73947549D01*
X118717587Y-73947546D01*
X118947546Y-73717587D01*
X118951148Y-73715180D01*
X119217958Y-73536903D01*
X119518421Y-73412447D01*
X119624744Y-73391298D01*
X119837389Y-73349000D01*
X120162611Y-73349000D01*
X120375256Y-73391298D01*
X120375256Y-73391298D01*
G37*
G36*
X199626821Y-74161313D02*
X199626824Y-74161314D01*
X199626825Y-74161314D01*
X199787239Y-74209975D01*
X199787241Y-74209976D01*
X199787244Y-74209977D01*
X199935078Y-74288995D01*
X200064659Y-74395341D01*
X200171005Y-74524922D01*
X200250023Y-74672756D01*
X200250024Y-74672759D01*
X200250025Y-74672761D01*
X200278417Y-74766357D01*
X200298687Y-74833179D01*
X200315117Y-75000000D01*
X200298687Y-75166821D01*
X200298686Y-75166824D01*
X200298686Y-75166825D01*
X200273993Y-75248228D01*
X200250023Y-75327244D01*
X200171005Y-75475078D01*
X200064659Y-75604659D01*
X199935078Y-75711005D01*
X199787244Y-75790023D01*
X199787241Y-75790024D01*
X199787239Y-75790025D01*
X199626825Y-75838686D01*
X199626824Y-75838686D01*
X199626821Y-75838687D01*
X199501804Y-75851000D01*
X199418196Y-75851000D01*
X199293179Y-75838687D01*
X199293176Y-75838686D01*
X199293175Y-75838686D01*
X199132761Y-75790025D01*
X199132759Y-75790024D01*
X199132756Y-75790023D01*
X198984922Y-75711005D01*
X198855341Y-75604659D01*
X198748995Y-75475078D01*
X198669977Y-75327244D01*
X198646008Y-75248228D01*
X198621314Y-75166825D01*
X198621314Y-75166824D01*
X198621313Y-75166821D01*
X198604883Y-75000000D01*
X198621313Y-74833179D01*
X198641583Y-74766357D01*
X198669975Y-74672761D01*
X198669976Y-74672759D01*
X198669977Y-74672756D01*
X198748995Y-74524922D01*
X198855341Y-74395341D01*
X198984922Y-74288995D01*
X199132756Y-74209977D01*
X199132759Y-74209976D01*
X199132761Y-74209975D01*
X199293175Y-74161314D01*
X199293176Y-74161314D01*
X199293179Y-74161313D01*
X199418196Y-74149000D01*
X199501804Y-74149000D01*
X199626821Y-74161313D01*
X199626821Y-74161313D01*
G37*
G36*
X197086821Y-74161313D02*
X197086824Y-74161314D01*
X197086825Y-74161314D01*
X197247239Y-74209975D01*
X197247241Y-74209976D01*
X197247244Y-74209977D01*
X197395078Y-74288995D01*
X197524659Y-74395341D01*
X197631005Y-74524922D01*
X197710023Y-74672756D01*
X197710024Y-74672759D01*
X197710025Y-74672761D01*
X197738417Y-74766357D01*
X197758687Y-74833179D01*
X197775117Y-75000000D01*
X197758687Y-75166821D01*
X197758686Y-75166824D01*
X197758686Y-75166825D01*
X197733993Y-75248228D01*
X197710023Y-75327244D01*
X197631005Y-75475078D01*
X197524659Y-75604659D01*
X197395078Y-75711005D01*
X197247244Y-75790023D01*
X197247241Y-75790024D01*
X197247239Y-75790025D01*
X197086825Y-75838686D01*
X197086824Y-75838686D01*
X197086821Y-75838687D01*
X196961804Y-75851000D01*
X196878196Y-75851000D01*
X196753179Y-75838687D01*
X196753176Y-75838686D01*
X196753175Y-75838686D01*
X196592761Y-75790025D01*
X196592759Y-75790024D01*
X196592756Y-75790023D01*
X196444922Y-75711005D01*
X196315341Y-75604659D01*
X196208995Y-75475078D01*
X196129977Y-75327244D01*
X196106008Y-75248228D01*
X196081314Y-75166825D01*
X196081314Y-75166824D01*
X196081313Y-75166821D01*
X196064883Y-75000000D01*
X196081313Y-74833179D01*
X196101583Y-74766357D01*
X196129975Y-74672761D01*
X196129976Y-74672759D01*
X196129977Y-74672756D01*
X196208995Y-74524922D01*
X196315341Y-74395341D01*
X196444922Y-74288995D01*
X196592756Y-74209977D01*
X196592759Y-74209976D01*
X196592761Y-74209975D01*
X196753175Y-74161314D01*
X196753176Y-74161314D01*
X196753179Y-74161313D01*
X196878196Y-74149000D01*
X196961804Y-74149000D01*
X197086821Y-74161313D01*
X197086821Y-74161313D01*
G37*
G36*
X194546821Y-74161313D02*
X194546824Y-74161314D01*
X194546825Y-74161314D01*
X194707239Y-74209975D01*
X194707241Y-74209976D01*
X194707244Y-74209977D01*
X194855078Y-74288995D01*
X194984659Y-74395341D01*
X195091005Y-74524922D01*
X195170023Y-74672756D01*
X195170024Y-74672759D01*
X195170025Y-74672761D01*
X195198417Y-74766357D01*
X195218687Y-74833179D01*
X195235117Y-75000000D01*
X195218687Y-75166821D01*
X195218686Y-75166824D01*
X195218686Y-75166825D01*
X195193993Y-75248228D01*
X195170023Y-75327244D01*
X195091005Y-75475078D01*
X194984659Y-75604659D01*
X194855078Y-75711005D01*
X194707244Y-75790023D01*
X194707241Y-75790024D01*
X194707239Y-75790025D01*
X194546825Y-75838686D01*
X194546824Y-75838686D01*
X194546821Y-75838687D01*
X194421804Y-75851000D01*
X194338196Y-75851000D01*
X194213179Y-75838687D01*
X194213176Y-75838686D01*
X194213175Y-75838686D01*
X194052761Y-75790025D01*
X194052759Y-75790024D01*
X194052756Y-75790023D01*
X193904922Y-75711005D01*
X193775341Y-75604659D01*
X193668995Y-75475078D01*
X193589977Y-75327244D01*
X193566008Y-75248228D01*
X193541314Y-75166825D01*
X193541314Y-75166824D01*
X193541313Y-75166821D01*
X193524883Y-75000000D01*
X193541313Y-74833179D01*
X193561583Y-74766357D01*
X193589975Y-74672761D01*
X193589976Y-74672759D01*
X193589977Y-74672756D01*
X193668995Y-74524922D01*
X193775341Y-74395341D01*
X193904922Y-74288995D01*
X194052756Y-74209977D01*
X194052759Y-74209976D01*
X194052761Y-74209975D01*
X194213175Y-74161314D01*
X194213176Y-74161314D01*
X194213179Y-74161313D01*
X194338196Y-74149000D01*
X194421804Y-74149000D01*
X194546821Y-74161313D01*
X194546821Y-74161313D01*
G37*
G36*
X192006821Y-74161313D02*
X192006824Y-74161314D01*
X192006825Y-74161314D01*
X192167239Y-74209975D01*
X192167241Y-74209976D01*
X192167244Y-74209977D01*
X192315078Y-74288995D01*
X192444659Y-74395341D01*
X192551005Y-74524922D01*
X192630023Y-74672756D01*
X192630024Y-74672759D01*
X192630025Y-74672761D01*
X192658417Y-74766357D01*
X192678687Y-74833179D01*
X192695117Y-75000000D01*
X192678687Y-75166821D01*
X192678686Y-75166824D01*
X192678686Y-75166825D01*
X192653993Y-75248228D01*
X192630023Y-75327244D01*
X192551005Y-75475078D01*
X192444659Y-75604659D01*
X192315078Y-75711005D01*
X192167244Y-75790023D01*
X192167241Y-75790024D01*
X192167239Y-75790025D01*
X192006825Y-75838686D01*
X192006824Y-75838686D01*
X192006821Y-75838687D01*
X191881804Y-75851000D01*
X191798196Y-75851000D01*
X191673179Y-75838687D01*
X191673176Y-75838686D01*
X191673175Y-75838686D01*
X191512761Y-75790025D01*
X191512759Y-75790024D01*
X191512756Y-75790023D01*
X191364922Y-75711005D01*
X191235341Y-75604659D01*
X191128995Y-75475078D01*
X191049977Y-75327244D01*
X191026008Y-75248228D01*
X191001314Y-75166825D01*
X191001314Y-75166824D01*
X191001313Y-75166821D01*
X190984883Y-75000000D01*
X191001313Y-74833179D01*
X191021583Y-74766357D01*
X191049975Y-74672761D01*
X191049976Y-74672759D01*
X191049977Y-74672756D01*
X191128995Y-74524922D01*
X191235341Y-74395341D01*
X191364922Y-74288995D01*
X191512756Y-74209977D01*
X191512759Y-74209976D01*
X191512761Y-74209975D01*
X191673175Y-74161314D01*
X191673176Y-74161314D01*
X191673179Y-74161313D01*
X191798196Y-74149000D01*
X191881804Y-74149000D01*
X192006821Y-74161313D01*
X192006821Y-74161313D01*
G37*
G36*
X189466821Y-74161313D02*
X189466824Y-74161314D01*
X189466825Y-74161314D01*
X189627239Y-74209975D01*
X189627241Y-74209976D01*
X189627244Y-74209977D01*
X189775078Y-74288995D01*
X189904659Y-74395341D01*
X190011005Y-74524922D01*
X190090023Y-74672756D01*
X190090024Y-74672759D01*
X190090025Y-74672761D01*
X190118417Y-74766357D01*
X190138687Y-74833179D01*
X190155117Y-75000000D01*
X190138687Y-75166821D01*
X190138686Y-75166824D01*
X190138686Y-75166825D01*
X190113993Y-75248228D01*
X190090023Y-75327244D01*
X190011005Y-75475078D01*
X189904659Y-75604659D01*
X189775078Y-75711005D01*
X189627244Y-75790023D01*
X189627241Y-75790024D01*
X189627239Y-75790025D01*
X189466825Y-75838686D01*
X189466824Y-75838686D01*
X189466821Y-75838687D01*
X189341804Y-75851000D01*
X189258196Y-75851000D01*
X189133179Y-75838687D01*
X189133176Y-75838686D01*
X189133175Y-75838686D01*
X188972761Y-75790025D01*
X188972759Y-75790024D01*
X188972756Y-75790023D01*
X188824922Y-75711005D01*
X188695341Y-75604659D01*
X188588995Y-75475078D01*
X188509977Y-75327244D01*
X188486008Y-75248228D01*
X188461314Y-75166825D01*
X188461314Y-75166824D01*
X188461313Y-75166821D01*
X188444883Y-75000000D01*
X188461313Y-74833179D01*
X188481583Y-74766357D01*
X188509975Y-74672761D01*
X188509976Y-74672759D01*
X188509977Y-74672756D01*
X188588995Y-74524922D01*
X188695341Y-74395341D01*
X188824922Y-74288995D01*
X188972756Y-74209977D01*
X188972759Y-74209976D01*
X188972761Y-74209975D01*
X189133175Y-74161314D01*
X189133176Y-74161314D01*
X189133179Y-74161313D01*
X189258196Y-74149000D01*
X189341804Y-74149000D01*
X189466821Y-74161313D01*
X189466821Y-74161313D01*
G37*
G36*
X176766821Y-74161313D02*
X176766824Y-74161314D01*
X176766825Y-74161314D01*
X176927239Y-74209975D01*
X176927241Y-74209976D01*
X176927244Y-74209977D01*
X177075078Y-74288995D01*
X177204659Y-74395341D01*
X177311005Y-74524922D01*
X177390023Y-74672756D01*
X177390024Y-74672759D01*
X177390025Y-74672761D01*
X177418417Y-74766357D01*
X177438687Y-74833179D01*
X177455117Y-75000000D01*
X177438687Y-75166821D01*
X177438686Y-75166824D01*
X177438686Y-75166825D01*
X177413993Y-75248228D01*
X177390023Y-75327244D01*
X177311005Y-75475078D01*
X177204659Y-75604659D01*
X177075078Y-75711005D01*
X176927244Y-75790023D01*
X176927241Y-75790024D01*
X176927239Y-75790025D01*
X176766825Y-75838686D01*
X176766824Y-75838686D01*
X176766821Y-75838687D01*
X176641804Y-75851000D01*
X176558196Y-75851000D01*
X176433179Y-75838687D01*
X176433176Y-75838686D01*
X176433175Y-75838686D01*
X176272761Y-75790025D01*
X176272759Y-75790024D01*
X176272756Y-75790023D01*
X176124922Y-75711005D01*
X175995341Y-75604659D01*
X175888995Y-75475078D01*
X175809977Y-75327244D01*
X175786008Y-75248228D01*
X175761314Y-75166825D01*
X175761314Y-75166824D01*
X175761313Y-75166821D01*
X175744883Y-75000000D01*
X175761313Y-74833179D01*
X175781583Y-74766357D01*
X175809975Y-74672761D01*
X175809976Y-74672759D01*
X175809977Y-74672756D01*
X175888995Y-74524922D01*
X175995341Y-74395341D01*
X176124922Y-74288995D01*
X176272756Y-74209977D01*
X176272759Y-74209976D01*
X176272761Y-74209975D01*
X176433175Y-74161314D01*
X176433176Y-74161314D01*
X176433179Y-74161313D01*
X176558196Y-74149000D01*
X176641804Y-74149000D01*
X176766821Y-74161313D01*
X176766821Y-74161313D01*
G37*
G36*
X174226821Y-74161313D02*
X174226824Y-74161314D01*
X174226825Y-74161314D01*
X174387239Y-74209975D01*
X174387241Y-74209976D01*
X174387244Y-74209977D01*
X174535078Y-74288995D01*
X174664659Y-74395341D01*
X174771005Y-74524922D01*
X174850023Y-74672756D01*
X174850024Y-74672759D01*
X174850025Y-74672761D01*
X174878417Y-74766357D01*
X174898687Y-74833179D01*
X174915117Y-75000000D01*
X174898687Y-75166821D01*
X174898686Y-75166824D01*
X174898686Y-75166825D01*
X174873993Y-75248228D01*
X174850023Y-75327244D01*
X174771005Y-75475078D01*
X174664659Y-75604659D01*
X174535078Y-75711005D01*
X174387244Y-75790023D01*
X174387241Y-75790024D01*
X174387239Y-75790025D01*
X174226825Y-75838686D01*
X174226824Y-75838686D01*
X174226821Y-75838687D01*
X174101804Y-75851000D01*
X174018196Y-75851000D01*
X173893179Y-75838687D01*
X173893176Y-75838686D01*
X173893175Y-75838686D01*
X173732761Y-75790025D01*
X173732759Y-75790024D01*
X173732756Y-75790023D01*
X173584922Y-75711005D01*
X173455341Y-75604659D01*
X173348995Y-75475078D01*
X173269977Y-75327244D01*
X173246008Y-75248228D01*
X173221314Y-75166825D01*
X173221314Y-75166824D01*
X173221313Y-75166821D01*
X173204883Y-75000000D01*
X173221313Y-74833179D01*
X173241583Y-74766357D01*
X173269975Y-74672761D01*
X173269976Y-74672759D01*
X173269977Y-74672756D01*
X173348995Y-74524922D01*
X173455341Y-74395341D01*
X173584922Y-74288995D01*
X173732756Y-74209977D01*
X173732759Y-74209976D01*
X173732761Y-74209975D01*
X173893175Y-74161314D01*
X173893176Y-74161314D01*
X173893179Y-74161313D01*
X174018196Y-74149000D01*
X174101804Y-74149000D01*
X174226821Y-74161313D01*
X174226821Y-74161313D01*
G37*
G36*
X171686821Y-74161313D02*
X171686824Y-74161314D01*
X171686825Y-74161314D01*
X171847239Y-74209975D01*
X171847241Y-74209976D01*
X171847244Y-74209977D01*
X171995078Y-74288995D01*
X172124659Y-74395341D01*
X172231005Y-74524922D01*
X172310023Y-74672756D01*
X172310024Y-74672759D01*
X172310025Y-74672761D01*
X172338417Y-74766357D01*
X172358687Y-74833179D01*
X172375117Y-75000000D01*
X172358687Y-75166821D01*
X172358686Y-75166824D01*
X172358686Y-75166825D01*
X172333993Y-75248228D01*
X172310023Y-75327244D01*
X172231005Y-75475078D01*
X172124659Y-75604659D01*
X171995078Y-75711005D01*
X171847244Y-75790023D01*
X171847241Y-75790024D01*
X171847239Y-75790025D01*
X171686825Y-75838686D01*
X171686824Y-75838686D01*
X171686821Y-75838687D01*
X171561804Y-75851000D01*
X171478196Y-75851000D01*
X171353179Y-75838687D01*
X171353176Y-75838686D01*
X171353175Y-75838686D01*
X171192761Y-75790025D01*
X171192759Y-75790024D01*
X171192756Y-75790023D01*
X171044922Y-75711005D01*
X170915341Y-75604659D01*
X170808995Y-75475078D01*
X170729977Y-75327244D01*
X170706008Y-75248228D01*
X170681314Y-75166825D01*
X170681314Y-75166824D01*
X170681313Y-75166821D01*
X170664883Y-75000000D01*
X170681313Y-74833179D01*
X170701583Y-74766357D01*
X170729975Y-74672761D01*
X170729976Y-74672759D01*
X170729977Y-74672756D01*
X170808995Y-74524922D01*
X170915341Y-74395341D01*
X171044922Y-74288995D01*
X171192756Y-74209977D01*
X171192759Y-74209976D01*
X171192761Y-74209975D01*
X171353175Y-74161314D01*
X171353176Y-74161314D01*
X171353179Y-74161313D01*
X171478196Y-74149000D01*
X171561804Y-74149000D01*
X171686821Y-74161313D01*
X171686821Y-74161313D01*
G37*
G36*
X169146821Y-74161313D02*
X169146824Y-74161314D01*
X169146825Y-74161314D01*
X169307239Y-74209975D01*
X169307241Y-74209976D01*
X169307244Y-74209977D01*
X169455078Y-74288995D01*
X169584659Y-74395341D01*
X169691005Y-74524922D01*
X169770023Y-74672756D01*
X169770024Y-74672759D01*
X169770025Y-74672761D01*
X169798417Y-74766357D01*
X169818687Y-74833179D01*
X169835117Y-75000000D01*
X169818687Y-75166821D01*
X169818686Y-75166824D01*
X169818686Y-75166825D01*
X169793993Y-75248228D01*
X169770023Y-75327244D01*
X169691005Y-75475078D01*
X169584659Y-75604659D01*
X169455078Y-75711005D01*
X169307244Y-75790023D01*
X169307241Y-75790024D01*
X169307239Y-75790025D01*
X169146825Y-75838686D01*
X169146824Y-75838686D01*
X169146821Y-75838687D01*
X169021804Y-75851000D01*
X168938196Y-75851000D01*
X168813179Y-75838687D01*
X168813176Y-75838686D01*
X168813175Y-75838686D01*
X168652761Y-75790025D01*
X168652759Y-75790024D01*
X168652756Y-75790023D01*
X168504922Y-75711005D01*
X168375341Y-75604659D01*
X168268995Y-75475078D01*
X168189977Y-75327244D01*
X168166008Y-75248228D01*
X168141314Y-75166825D01*
X168141314Y-75166824D01*
X168141313Y-75166821D01*
X168124883Y-75000000D01*
X168141313Y-74833179D01*
X168161583Y-74766357D01*
X168189975Y-74672761D01*
X168189976Y-74672759D01*
X168189977Y-74672756D01*
X168268995Y-74524922D01*
X168375341Y-74395341D01*
X168504922Y-74288995D01*
X168652756Y-74209977D01*
X168652759Y-74209976D01*
X168652761Y-74209975D01*
X168813175Y-74161314D01*
X168813176Y-74161314D01*
X168813179Y-74161313D01*
X168938196Y-74149000D01*
X169021804Y-74149000D01*
X169146821Y-74161313D01*
X169146821Y-74161313D01*
G37*
G36*
X160351000Y-75851000D02*
X158649000Y-75851000D01*
X158649000Y-74149000D01*
X160351000Y-74149000D01*
X160351000Y-75851000D01*
X160351000Y-75851000D01*
G37*
G36*
X157248228Y-74181703D02*
X157403100Y-74245853D01*
X157542481Y-74338985D01*
X157661015Y-74457519D01*
X157754147Y-74596900D01*
X157818297Y-74751772D01*
X157851000Y-74916184D01*
X157851000Y-75083816D01*
X157818297Y-75248228D01*
X157754147Y-75403100D01*
X157661015Y-75542481D01*
X157542481Y-75661015D01*
X157403100Y-75754147D01*
X157248228Y-75818297D01*
X157083816Y-75851000D01*
X156916184Y-75851000D01*
X156751772Y-75818297D01*
X156596900Y-75754147D01*
X156457519Y-75661015D01*
X156338985Y-75542481D01*
X156245853Y-75403100D01*
X156181703Y-75248228D01*
X156149000Y-75083816D01*
X156149000Y-74916184D01*
X156181703Y-74751772D01*
X156245853Y-74596900D01*
X156338985Y-74457519D01*
X156457519Y-74338985D01*
X156596900Y-74245853D01*
X156751772Y-74181703D01*
X156916184Y-74149000D01*
X157083816Y-74149000D01*
X157248228Y-74181703D01*
X157248228Y-74181703D01*
G37*
G36*
X202851000Y-75851000D02*
X201149000Y-75851000D01*
X201149000Y-74149000D01*
X202851000Y-74149000D01*
X202851000Y-75851000D01*
X202851000Y-75851000D01*
G37*
G36*
X179306821Y-74161313D02*
X179306824Y-74161314D01*
X179306825Y-74161314D01*
X179467239Y-74209975D01*
X179467241Y-74209976D01*
X179467244Y-74209977D01*
X179615078Y-74288995D01*
X179744659Y-74395341D01*
X179851005Y-74524922D01*
X179930023Y-74672756D01*
X179930024Y-74672759D01*
X179930025Y-74672761D01*
X179958417Y-74766357D01*
X179978687Y-74833179D01*
X179995117Y-75000000D01*
X179978687Y-75166821D01*
X179978686Y-75166824D01*
X179978686Y-75166825D01*
X179953993Y-75248228D01*
X179930023Y-75327244D01*
X179851005Y-75475078D01*
X179744659Y-75604659D01*
X179615078Y-75711005D01*
X179467244Y-75790023D01*
X179467241Y-75790024D01*
X179467239Y-75790025D01*
X179306825Y-75838686D01*
X179306824Y-75838686D01*
X179306821Y-75838687D01*
X179181804Y-75851000D01*
X179098196Y-75851000D01*
X178973179Y-75838687D01*
X178973176Y-75838686D01*
X178973175Y-75838686D01*
X178812761Y-75790025D01*
X178812759Y-75790024D01*
X178812756Y-75790023D01*
X178664922Y-75711005D01*
X178535341Y-75604659D01*
X178428995Y-75475078D01*
X178349977Y-75327244D01*
X178326008Y-75248228D01*
X178301314Y-75166825D01*
X178301314Y-75166824D01*
X178301313Y-75166821D01*
X178284883Y-75000000D01*
X178301313Y-74833179D01*
X178321583Y-74766357D01*
X178349975Y-74672761D01*
X178349976Y-74672759D01*
X178349977Y-74672756D01*
X178428995Y-74524922D01*
X178535341Y-74395341D01*
X178664922Y-74288995D01*
X178812756Y-74209977D01*
X178812759Y-74209976D01*
X178812761Y-74209975D01*
X178973175Y-74161314D01*
X178973176Y-74161314D01*
X178973179Y-74161313D01*
X179098196Y-74149000D01*
X179181804Y-74149000D01*
X179306821Y-74161313D01*
X179306821Y-74161313D01*
G37*
G36*
X186926821Y-74161313D02*
X186926824Y-74161314D01*
X186926825Y-74161314D01*
X187087239Y-74209975D01*
X187087241Y-74209976D01*
X187087244Y-74209977D01*
X187235078Y-74288995D01*
X187364659Y-74395341D01*
X187471005Y-74524922D01*
X187550023Y-74672756D01*
X187550024Y-74672759D01*
X187550025Y-74672761D01*
X187578417Y-74766357D01*
X187598687Y-74833179D01*
X187615117Y-75000000D01*
X187598687Y-75166821D01*
X187598686Y-75166824D01*
X187598686Y-75166825D01*
X187573993Y-75248228D01*
X187550023Y-75327244D01*
X187471005Y-75475078D01*
X187364659Y-75604659D01*
X187235078Y-75711005D01*
X187087244Y-75790023D01*
X187087241Y-75790024D01*
X187087239Y-75790025D01*
X186926825Y-75838686D01*
X186926824Y-75838686D01*
X186926821Y-75838687D01*
X186801804Y-75851000D01*
X186718196Y-75851000D01*
X186593179Y-75838687D01*
X186593176Y-75838686D01*
X186593175Y-75838686D01*
X186432761Y-75790025D01*
X186432759Y-75790024D01*
X186432756Y-75790023D01*
X186284922Y-75711005D01*
X186155341Y-75604659D01*
X186048995Y-75475078D01*
X185969977Y-75327244D01*
X185946008Y-75248228D01*
X185921314Y-75166825D01*
X185921314Y-75166824D01*
X185921313Y-75166821D01*
X185904883Y-75000000D01*
X185921313Y-74833179D01*
X185941583Y-74766357D01*
X185969975Y-74672761D01*
X185969976Y-74672759D01*
X185969977Y-74672756D01*
X186048995Y-74524922D01*
X186155341Y-74395341D01*
X186284922Y-74288995D01*
X186432756Y-74209977D01*
X186432759Y-74209976D01*
X186432761Y-74209975D01*
X186593175Y-74161314D01*
X186593176Y-74161314D01*
X186593179Y-74161313D01*
X186718196Y-74149000D01*
X186801804Y-74149000D01*
X186926821Y-74161313D01*
X186926821Y-74161313D01*
G37*
G36*
X184386821Y-74161313D02*
X184386824Y-74161314D01*
X184386825Y-74161314D01*
X184547239Y-74209975D01*
X184547241Y-74209976D01*
X184547244Y-74209977D01*
X184695078Y-74288995D01*
X184824659Y-74395341D01*
X184931005Y-74524922D01*
X185010023Y-74672756D01*
X185010024Y-74672759D01*
X185010025Y-74672761D01*
X185038417Y-74766357D01*
X185058687Y-74833179D01*
X185075117Y-75000000D01*
X185058687Y-75166821D01*
X185058686Y-75166824D01*
X185058686Y-75166825D01*
X185033993Y-75248228D01*
X185010023Y-75327244D01*
X184931005Y-75475078D01*
X184824659Y-75604659D01*
X184695078Y-75711005D01*
X184547244Y-75790023D01*
X184547241Y-75790024D01*
X184547239Y-75790025D01*
X184386825Y-75838686D01*
X184386824Y-75838686D01*
X184386821Y-75838687D01*
X184261804Y-75851000D01*
X184178196Y-75851000D01*
X184053179Y-75838687D01*
X184053176Y-75838686D01*
X184053175Y-75838686D01*
X183892761Y-75790025D01*
X183892759Y-75790024D01*
X183892756Y-75790023D01*
X183744922Y-75711005D01*
X183615341Y-75604659D01*
X183508995Y-75475078D01*
X183429977Y-75327244D01*
X183406008Y-75248228D01*
X183381314Y-75166825D01*
X183381314Y-75166824D01*
X183381313Y-75166821D01*
X183364883Y-75000000D01*
X183381313Y-74833179D01*
X183401583Y-74766357D01*
X183429975Y-74672761D01*
X183429976Y-74672759D01*
X183429977Y-74672756D01*
X183508995Y-74524922D01*
X183615341Y-74395341D01*
X183744922Y-74288995D01*
X183892756Y-74209977D01*
X183892759Y-74209976D01*
X183892761Y-74209975D01*
X184053175Y-74161314D01*
X184053176Y-74161314D01*
X184053179Y-74161313D01*
X184178196Y-74149000D01*
X184261804Y-74149000D01*
X184386821Y-74161313D01*
X184386821Y-74161313D01*
G37*
G36*
X181846821Y-74161313D02*
X181846824Y-74161314D01*
X181846825Y-74161314D01*
X182007239Y-74209975D01*
X182007241Y-74209976D01*
X182007244Y-74209977D01*
X182155078Y-74288995D01*
X182284659Y-74395341D01*
X182391005Y-74524922D01*
X182470023Y-74672756D01*
X182470024Y-74672759D01*
X182470025Y-74672761D01*
X182498417Y-74766357D01*
X182518687Y-74833179D01*
X182535117Y-75000000D01*
X182518687Y-75166821D01*
X182518686Y-75166824D01*
X182518686Y-75166825D01*
X182493993Y-75248228D01*
X182470023Y-75327244D01*
X182391005Y-75475078D01*
X182284659Y-75604659D01*
X182155078Y-75711005D01*
X182007244Y-75790023D01*
X182007241Y-75790024D01*
X182007239Y-75790025D01*
X181846825Y-75838686D01*
X181846824Y-75838686D01*
X181846821Y-75838687D01*
X181721804Y-75851000D01*
X181638196Y-75851000D01*
X181513179Y-75838687D01*
X181513176Y-75838686D01*
X181513175Y-75838686D01*
X181352761Y-75790025D01*
X181352759Y-75790024D01*
X181352756Y-75790023D01*
X181204922Y-75711005D01*
X181075341Y-75604659D01*
X180968995Y-75475078D01*
X180889977Y-75327244D01*
X180866008Y-75248228D01*
X180841314Y-75166825D01*
X180841314Y-75166824D01*
X180841313Y-75166821D01*
X180824883Y-75000000D01*
X180841313Y-74833179D01*
X180861583Y-74766357D01*
X180889975Y-74672761D01*
X180889976Y-74672759D01*
X180889977Y-74672756D01*
X180968995Y-74524922D01*
X181075341Y-74395341D01*
X181204922Y-74288995D01*
X181352756Y-74209977D01*
X181352759Y-74209976D01*
X181352761Y-74209975D01*
X181513175Y-74161314D01*
X181513176Y-74161314D01*
X181513179Y-74161313D01*
X181638196Y-74149000D01*
X181721804Y-74149000D01*
X181846821Y-74161313D01*
X181846821Y-74161313D01*
G37*
G36*
X164233643Y-74229781D02*
X164379415Y-74290162D01*
X164510611Y-74377824D01*
X164622176Y-74489389D01*
X164709838Y-74620585D01*
X164770219Y-74766357D01*
X164801000Y-74921107D01*
X164801000Y-75078893D01*
X164770219Y-75233643D01*
X164709838Y-75379415D01*
X164622176Y-75510611D01*
X164510611Y-75622176D01*
X164379415Y-75709838D01*
X164233643Y-75770219D01*
X164078893Y-75801000D01*
X163921107Y-75801000D01*
X163766357Y-75770219D01*
X163620585Y-75709838D01*
X163489389Y-75622176D01*
X163377824Y-75510611D01*
X163290162Y-75379415D01*
X163229781Y-75233643D01*
X163199000Y-75078893D01*
X163199000Y-74921107D01*
X163229781Y-74766357D01*
X163290162Y-74620585D01*
X163377824Y-74489389D01*
X163489389Y-74377824D01*
X163620585Y-74290162D01*
X163766357Y-74229781D01*
X163921107Y-74199000D01*
X164078893Y-74199000D01*
X164233643Y-74229781D01*
X164233643Y-74229781D01*
G37*
G36*
X134351000Y-75351000D02*
X132649000Y-75351000D01*
X132649000Y-73649000D01*
X134351000Y-73649000D01*
X134351000Y-75351000D01*
X134351000Y-75351000D01*
G37*
G36*
X146351000Y-75351000D02*
X144649000Y-75351000D01*
X144649000Y-73649000D01*
X146351000Y-73649000D01*
X146351000Y-75351000D01*
X146351000Y-75351000D01*
G37*
G36*
X140351000Y-75351000D02*
X138649000Y-75351000D01*
X138649000Y-73649000D01*
X140351000Y-73649000D01*
X140351000Y-75351000D01*
X140351000Y-75351000D01*
G37*
G36*
X128351000Y-75351000D02*
X126649000Y-75351000D01*
X126649000Y-73649000D01*
X128351000Y-73649000D01*
X128351000Y-75351000D01*
X128351000Y-75351000D01*
G37*
G36*
X151748228Y-72681703D02*
X151903100Y-72745853D01*
X152042481Y-72838985D01*
X152161015Y-72957519D01*
X152254147Y-73096900D01*
X152318297Y-73251772D01*
X152351000Y-73416184D01*
X152351000Y-73583816D01*
X152318297Y-73748228D01*
X152254147Y-73903100D01*
X152161015Y-74042481D01*
X152042481Y-74161015D01*
X151903100Y-74254147D01*
X151748228Y-74318297D01*
X151583816Y-74351000D01*
X151416184Y-74351000D01*
X151251772Y-74318297D01*
X151096900Y-74254147D01*
X150957519Y-74161015D01*
X150838985Y-74042481D01*
X150745853Y-73903100D01*
X150681703Y-73748228D01*
X150649000Y-73583816D01*
X150649000Y-73416184D01*
X150681703Y-73251772D01*
X150745853Y-73096900D01*
X150838985Y-72957519D01*
X150957519Y-72838985D01*
X151096900Y-72745853D01*
X151251772Y-72681703D01*
X151416184Y-72649000D01*
X151583816Y-72649000D01*
X151748228Y-72681703D01*
X151748228Y-72681703D01*
G37*
G36*
X184632004Y-71760544D02*
X184719059Y-71777860D01*
X184855732Y-71834472D01*
X184855733Y-71834473D01*
X184978738Y-71916662D01*
X185083338Y-72021262D01*
X185083340Y-72021265D01*
X185165528Y-72144268D01*
X185222140Y-72280941D01*
X185231349Y-72327239D01*
X185246439Y-72403100D01*
X185251000Y-72426033D01*
X185251000Y-72573967D01*
X185222140Y-72719059D01*
X185165528Y-72855732D01*
X185165527Y-72855733D01*
X185083338Y-72978738D01*
X184978738Y-73083338D01*
X184978735Y-73083340D01*
X184855732Y-73165528D01*
X184719059Y-73222140D01*
X184632004Y-73239456D01*
X184573969Y-73251000D01*
X184426031Y-73251000D01*
X184367996Y-73239456D01*
X184280941Y-73222140D01*
X184144268Y-73165528D01*
X184021265Y-73083340D01*
X184021262Y-73083338D01*
X183916662Y-72978738D01*
X183834473Y-72855733D01*
X183834472Y-72855732D01*
X183777860Y-72719059D01*
X183749000Y-72573967D01*
X183749000Y-72426033D01*
X183753562Y-72403100D01*
X183768651Y-72327239D01*
X183777860Y-72280941D01*
X183834472Y-72144268D01*
X183916660Y-72021265D01*
X183916662Y-72021262D01*
X184021262Y-71916662D01*
X184144267Y-71834473D01*
X184144268Y-71834472D01*
X184280941Y-71777860D01*
X184367996Y-71760544D01*
X184426031Y-71749000D01*
X184573969Y-71749000D01*
X184632004Y-71760544D01*
X184632004Y-71760544D01*
G37*
G36*
X187132004Y-71760544D02*
X187219059Y-71777860D01*
X187355732Y-71834472D01*
X187355733Y-71834473D01*
X187478738Y-71916662D01*
X187583338Y-72021262D01*
X187583340Y-72021265D01*
X187665528Y-72144268D01*
X187722140Y-72280941D01*
X187731349Y-72327239D01*
X187746439Y-72403100D01*
X187751000Y-72426033D01*
X187751000Y-72573967D01*
X187722140Y-72719059D01*
X187665528Y-72855732D01*
X187665527Y-72855733D01*
X187583338Y-72978738D01*
X187478738Y-73083338D01*
X187478735Y-73083340D01*
X187355732Y-73165528D01*
X187219059Y-73222140D01*
X187132004Y-73239456D01*
X187073969Y-73251000D01*
X186926031Y-73251000D01*
X186867996Y-73239456D01*
X186780941Y-73222140D01*
X186644268Y-73165528D01*
X186521265Y-73083340D01*
X186521262Y-73083338D01*
X186416662Y-72978738D01*
X186334473Y-72855733D01*
X186334472Y-72855732D01*
X186277860Y-72719059D01*
X186249000Y-72573967D01*
X186249000Y-72426033D01*
X186253562Y-72403100D01*
X186268651Y-72327239D01*
X186277860Y-72280941D01*
X186334472Y-72144268D01*
X186416660Y-72021265D01*
X186416662Y-72021262D01*
X186521262Y-71916662D01*
X186644267Y-71834473D01*
X186644268Y-71834472D01*
X186780941Y-71777860D01*
X186867996Y-71760544D01*
X186926031Y-71749000D01*
X187073969Y-71749000D01*
X187132004Y-71760544D01*
X187132004Y-71760544D01*
G37*
G36*
X139748228Y-71181703D02*
X139903100Y-71245853D01*
X140042481Y-71338985D01*
X140161015Y-71457519D01*
X140254147Y-71596900D01*
X140318297Y-71751772D01*
X140351000Y-71916184D01*
X140351000Y-72083816D01*
X140318297Y-72248228D01*
X140254147Y-72403100D01*
X140161015Y-72542481D01*
X140042481Y-72661015D01*
X139903100Y-72754147D01*
X139748228Y-72818297D01*
X139583816Y-72851000D01*
X139416184Y-72851000D01*
X139251772Y-72818297D01*
X139096900Y-72754147D01*
X138957519Y-72661015D01*
X138838985Y-72542481D01*
X138745853Y-72403100D01*
X138681703Y-72248228D01*
X138649000Y-72083816D01*
X138649000Y-71916184D01*
X138681703Y-71751772D01*
X138745853Y-71596900D01*
X138838985Y-71457519D01*
X138957519Y-71338985D01*
X139096900Y-71245853D01*
X139251772Y-71181703D01*
X139416184Y-71149000D01*
X139583816Y-71149000D01*
X139748228Y-71181703D01*
X139748228Y-71181703D01*
G37*
G36*
X210748228Y-71181703D02*
X210903100Y-71245853D01*
X211042481Y-71338985D01*
X211161015Y-71457519D01*
X211254147Y-71596900D01*
X211318297Y-71751772D01*
X211351000Y-71916184D01*
X211351000Y-72083816D01*
X211318297Y-72248228D01*
X211254147Y-72403100D01*
X211161015Y-72542481D01*
X211042481Y-72661015D01*
X210903100Y-72754147D01*
X210748228Y-72818297D01*
X210583816Y-72851000D01*
X210416184Y-72851000D01*
X210251772Y-72818297D01*
X210096900Y-72754147D01*
X209957519Y-72661015D01*
X209838985Y-72542481D01*
X209745853Y-72403100D01*
X209681703Y-72248228D01*
X209649000Y-72083816D01*
X209649000Y-71916184D01*
X209681703Y-71751772D01*
X209745853Y-71596900D01*
X209838985Y-71457519D01*
X209957519Y-71338985D01*
X210096900Y-71245853D01*
X210251772Y-71181703D01*
X210416184Y-71149000D01*
X210583816Y-71149000D01*
X210748228Y-71181703D01*
X210748228Y-71181703D01*
G37*
G36*
X208126821Y-71161313D02*
X208126824Y-71161314D01*
X208126825Y-71161314D01*
X208287239Y-71209975D01*
X208287241Y-71209976D01*
X208287244Y-71209977D01*
X208435078Y-71288995D01*
X208564659Y-71395341D01*
X208671005Y-71524922D01*
X208750023Y-71672756D01*
X208750024Y-71672759D01*
X208750025Y-71672761D01*
X208781906Y-71777860D01*
X208798687Y-71833179D01*
X208815117Y-72000000D01*
X208798687Y-72166821D01*
X208798686Y-72166824D01*
X208798686Y-72166825D01*
X208773993Y-72248228D01*
X208750023Y-72327244D01*
X208671005Y-72475078D01*
X208564659Y-72604659D01*
X208435078Y-72711005D01*
X208287244Y-72790023D01*
X208287241Y-72790024D01*
X208287239Y-72790025D01*
X208126825Y-72838686D01*
X208126824Y-72838686D01*
X208126821Y-72838687D01*
X208001804Y-72851000D01*
X207918196Y-72851000D01*
X207793179Y-72838687D01*
X207793176Y-72838686D01*
X207793175Y-72838686D01*
X207632761Y-72790025D01*
X207632759Y-72790024D01*
X207632756Y-72790023D01*
X207484922Y-72711005D01*
X207355341Y-72604659D01*
X207248995Y-72475078D01*
X207169977Y-72327244D01*
X207146008Y-72248228D01*
X207121314Y-72166825D01*
X207121314Y-72166824D01*
X207121313Y-72166821D01*
X207104883Y-72000000D01*
X207121313Y-71833179D01*
X207138094Y-71777860D01*
X207169975Y-71672761D01*
X207169976Y-71672759D01*
X207169977Y-71672756D01*
X207248995Y-71524922D01*
X207355341Y-71395341D01*
X207484922Y-71288995D01*
X207632756Y-71209977D01*
X207632759Y-71209976D01*
X207632761Y-71209975D01*
X207793175Y-71161314D01*
X207793176Y-71161314D01*
X207793179Y-71161313D01*
X207918196Y-71149000D01*
X208001804Y-71149000D01*
X208126821Y-71161313D01*
X208126821Y-71161313D01*
G37*
G36*
X127748228Y-71181703D02*
X127903100Y-71245853D01*
X128042481Y-71338985D01*
X128161015Y-71457519D01*
X128254147Y-71596900D01*
X128318297Y-71751772D01*
X128351000Y-71916184D01*
X128351000Y-72083816D01*
X128318297Y-72248228D01*
X128254147Y-72403100D01*
X128161015Y-72542481D01*
X128042481Y-72661015D01*
X127903100Y-72754147D01*
X127748228Y-72818297D01*
X127583816Y-72851000D01*
X127416184Y-72851000D01*
X127251772Y-72818297D01*
X127096900Y-72754147D01*
X126957519Y-72661015D01*
X126838985Y-72542481D01*
X126745853Y-72403100D01*
X126681703Y-72248228D01*
X126649000Y-72083816D01*
X126649000Y-71916184D01*
X126681703Y-71751772D01*
X126745853Y-71596900D01*
X126838985Y-71457519D01*
X126957519Y-71338985D01*
X127096900Y-71245853D01*
X127251772Y-71181703D01*
X127416184Y-71149000D01*
X127583816Y-71149000D01*
X127748228Y-71181703D01*
X127748228Y-71181703D01*
G37*
G36*
X202706821Y-71161313D02*
X202706824Y-71161314D01*
X202706825Y-71161314D01*
X202867239Y-71209975D01*
X202867241Y-71209976D01*
X202867244Y-71209977D01*
X203015078Y-71288995D01*
X203144659Y-71395341D01*
X203251005Y-71524922D01*
X203330023Y-71672756D01*
X203330024Y-71672759D01*
X203330025Y-71672761D01*
X203361906Y-71777860D01*
X203378687Y-71833179D01*
X203395117Y-72000000D01*
X203378687Y-72166821D01*
X203378686Y-72166824D01*
X203378686Y-72166825D01*
X203353993Y-72248228D01*
X203330023Y-72327244D01*
X203251005Y-72475078D01*
X203144659Y-72604659D01*
X203015078Y-72711005D01*
X202867244Y-72790023D01*
X202867241Y-72790024D01*
X202867239Y-72790025D01*
X202706825Y-72838686D01*
X202706824Y-72838686D01*
X202706821Y-72838687D01*
X202581804Y-72851000D01*
X202498196Y-72851000D01*
X202373179Y-72838687D01*
X202373176Y-72838686D01*
X202373175Y-72838686D01*
X202212761Y-72790025D01*
X202212759Y-72790024D01*
X202212756Y-72790023D01*
X202064922Y-72711005D01*
X201935341Y-72604659D01*
X201828995Y-72475078D01*
X201749977Y-72327244D01*
X201726008Y-72248228D01*
X201701314Y-72166825D01*
X201701314Y-72166824D01*
X201701313Y-72166821D01*
X201684883Y-72000000D01*
X201701313Y-71833179D01*
X201718094Y-71777860D01*
X201749975Y-71672761D01*
X201749976Y-71672759D01*
X201749977Y-71672756D01*
X201828995Y-71524922D01*
X201935341Y-71395341D01*
X202064922Y-71288995D01*
X202212756Y-71209977D01*
X202212759Y-71209976D01*
X202212761Y-71209975D01*
X202373175Y-71161314D01*
X202373176Y-71161314D01*
X202373179Y-71161313D01*
X202498196Y-71149000D01*
X202581804Y-71149000D01*
X202706821Y-71161313D01*
X202706821Y-71161313D01*
G37*
G36*
X200248228Y-71181703D02*
X200403100Y-71245853D01*
X200542481Y-71338985D01*
X200661015Y-71457519D01*
X200754147Y-71596900D01*
X200818297Y-71751772D01*
X200851000Y-71916184D01*
X200851000Y-72083816D01*
X200818297Y-72248228D01*
X200754147Y-72403100D01*
X200661015Y-72542481D01*
X200542481Y-72661015D01*
X200403100Y-72754147D01*
X200248228Y-72818297D01*
X200083816Y-72851000D01*
X199916184Y-72851000D01*
X199751772Y-72818297D01*
X199596900Y-72754147D01*
X199457519Y-72661015D01*
X199338985Y-72542481D01*
X199245853Y-72403100D01*
X199181703Y-72248228D01*
X199149000Y-72083816D01*
X199149000Y-71916184D01*
X199181703Y-71751772D01*
X199245853Y-71596900D01*
X199338985Y-71457519D01*
X199457519Y-71338985D01*
X199596900Y-71245853D01*
X199751772Y-71181703D01*
X199916184Y-71149000D01*
X200083816Y-71149000D01*
X200248228Y-71181703D01*
X200248228Y-71181703D01*
G37*
G36*
X133748228Y-71181703D02*
X133903100Y-71245853D01*
X134042481Y-71338985D01*
X134161015Y-71457519D01*
X134254147Y-71596900D01*
X134318297Y-71751772D01*
X134351000Y-71916184D01*
X134351000Y-72083816D01*
X134318297Y-72248228D01*
X134254147Y-72403100D01*
X134161015Y-72542481D01*
X134042481Y-72661015D01*
X133903100Y-72754147D01*
X133748228Y-72818297D01*
X133583816Y-72851000D01*
X133416184Y-72851000D01*
X133251772Y-72818297D01*
X133096900Y-72754147D01*
X132957519Y-72661015D01*
X132838985Y-72542481D01*
X132745853Y-72403100D01*
X132681703Y-72248228D01*
X132649000Y-72083816D01*
X132649000Y-71916184D01*
X132681703Y-71751772D01*
X132745853Y-71596900D01*
X132838985Y-71457519D01*
X132957519Y-71338985D01*
X133096900Y-71245853D01*
X133251772Y-71181703D01*
X133416184Y-71149000D01*
X133583816Y-71149000D01*
X133748228Y-71181703D01*
X133748228Y-71181703D01*
G37*
G36*
X145748228Y-71181703D02*
X145903100Y-71245853D01*
X146042481Y-71338985D01*
X146161015Y-71457519D01*
X146254147Y-71596900D01*
X146318297Y-71751772D01*
X146351000Y-71916184D01*
X146351000Y-72083816D01*
X146318297Y-72248228D01*
X146254147Y-72403100D01*
X146161015Y-72542481D01*
X146042481Y-72661015D01*
X145903100Y-72754147D01*
X145748228Y-72818297D01*
X145583816Y-72851000D01*
X145416184Y-72851000D01*
X145251772Y-72818297D01*
X145096900Y-72754147D01*
X144957519Y-72661015D01*
X144838985Y-72542481D01*
X144745853Y-72403100D01*
X144681703Y-72248228D01*
X144649000Y-72083816D01*
X144649000Y-71916184D01*
X144681703Y-71751772D01*
X144745853Y-71596900D01*
X144838985Y-71457519D01*
X144957519Y-71338985D01*
X145096900Y-71245853D01*
X145251772Y-71181703D01*
X145416184Y-71149000D01*
X145583816Y-71149000D01*
X145748228Y-71181703D01*
X145748228Y-71181703D01*
G37*
M02*
