G04 #@! TF.GenerationSoftware,KiCad,Pcbnew,(5.0.1-3-g963ef8bb5)*
G04 #@! TF.CreationDate,2019-03-04T20:59:00-06:00*
G04 #@! TF.ProjectId,SmartNerfBlaster,536D6172744E657266426C6173746572,v1*
G04 #@! TF.SameCoordinates,Original*
G04 #@! TF.FileFunction,Legend,Top*
G04 #@! TF.FilePolarity,Positive*
%FSLAX46Y46*%
G04 Gerber Fmt 4.6, Leading zero omitted, Abs format (unit mm)*
G04 Created by KiCad (PCBNEW (5.0.1-3-g963ef8bb5)) date Monday, March 04, 2019 at 08:59:00 PM*
%MOMM*%
%LPD*%
G01*
G04 APERTURE LIST*
%ADD10C,0.300000*%
%ADD11C,0.190500*%
%ADD12C,0.120000*%
%ADD13C,0.150000*%
G04 APERTURE END LIST*
D10*
X180071428Y-79428571D02*
X180071428Y-78642857D01*
X180000000Y-78500000D01*
X179857142Y-78428571D01*
X179571428Y-78428571D01*
X179428571Y-78500000D01*
X180071428Y-79357142D02*
X179928571Y-79428571D01*
X179571428Y-79428571D01*
X179428571Y-79357142D01*
X179357142Y-79214285D01*
X179357142Y-79071428D01*
X179428571Y-78928571D01*
X179571428Y-78857142D01*
X179928571Y-78857142D01*
X180071428Y-78785714D01*
X180571428Y-78428571D02*
X181142857Y-78428571D01*
X180785714Y-77928571D02*
X180785714Y-79214285D01*
X180857142Y-79357142D01*
X181000000Y-79428571D01*
X181142857Y-79428571D01*
X181642857Y-79428571D02*
X181642857Y-78428571D01*
X181642857Y-78571428D02*
X181714285Y-78500000D01*
X181857142Y-78428571D01*
X182071428Y-78428571D01*
X182214285Y-78500000D01*
X182285714Y-78642857D01*
X182285714Y-79428571D01*
X182285714Y-78642857D02*
X182357142Y-78500000D01*
X182500000Y-78428571D01*
X182714285Y-78428571D01*
X182857142Y-78500000D01*
X182928571Y-78642857D01*
X182928571Y-79428571D01*
X184214285Y-79357142D02*
X184071428Y-79428571D01*
X183785714Y-79428571D01*
X183642857Y-79357142D01*
X183571428Y-79214285D01*
X183571428Y-78642857D01*
X183642857Y-78500000D01*
X183785714Y-78428571D01*
X184071428Y-78428571D01*
X184214285Y-78500000D01*
X184285714Y-78642857D01*
X184285714Y-78785714D01*
X183571428Y-78928571D01*
X185571428Y-78428571D02*
X185571428Y-79642857D01*
X185500000Y-79785714D01*
X185428571Y-79857142D01*
X185285714Y-79928571D01*
X185071428Y-79928571D01*
X184928571Y-79857142D01*
X185571428Y-79357142D02*
X185428571Y-79428571D01*
X185142857Y-79428571D01*
X185000000Y-79357142D01*
X184928571Y-79285714D01*
X184857142Y-79142857D01*
X184857142Y-78714285D01*
X184928571Y-78571428D01*
X185000000Y-78500000D01*
X185142857Y-78428571D01*
X185428571Y-78428571D01*
X185571428Y-78500000D01*
X186928571Y-79428571D02*
X186928571Y-78642857D01*
X186857142Y-78500000D01*
X186714285Y-78428571D01*
X186428571Y-78428571D01*
X186285714Y-78500000D01*
X186928571Y-79357142D02*
X186785714Y-79428571D01*
X186428571Y-79428571D01*
X186285714Y-79357142D01*
X186214285Y-79214285D01*
X186214285Y-79071428D01*
X186285714Y-78928571D01*
X186428571Y-78857142D01*
X186785714Y-78857142D01*
X186928571Y-78785714D01*
X187500000Y-77928571D02*
X188428571Y-77928571D01*
X187928571Y-78500000D01*
X188142857Y-78500000D01*
X188285714Y-78571428D01*
X188357142Y-78642857D01*
X188428571Y-78785714D01*
X188428571Y-79142857D01*
X188357142Y-79285714D01*
X188285714Y-79357142D01*
X188142857Y-79428571D01*
X187714285Y-79428571D01*
X187571428Y-79357142D01*
X187500000Y-79285714D01*
X189000000Y-78071428D02*
X189071428Y-78000000D01*
X189214285Y-77928571D01*
X189571428Y-77928571D01*
X189714285Y-78000000D01*
X189785714Y-78071428D01*
X189857142Y-78214285D01*
X189857142Y-78357142D01*
X189785714Y-78571428D01*
X188928571Y-79428571D01*
X189857142Y-79428571D01*
X190714285Y-78571428D02*
X190571428Y-78500000D01*
X190500000Y-78428571D01*
X190428571Y-78285714D01*
X190428571Y-78214285D01*
X190500000Y-78071428D01*
X190571428Y-78000000D01*
X190714285Y-77928571D01*
X191000000Y-77928571D01*
X191142857Y-78000000D01*
X191214285Y-78071428D01*
X191285714Y-78214285D01*
X191285714Y-78285714D01*
X191214285Y-78428571D01*
X191142857Y-78500000D01*
X191000000Y-78571428D01*
X190714285Y-78571428D01*
X190571428Y-78642857D01*
X190500000Y-78714285D01*
X190428571Y-78857142D01*
X190428571Y-79142857D01*
X190500000Y-79285714D01*
X190571428Y-79357142D01*
X190714285Y-79428571D01*
X191000000Y-79428571D01*
X191142857Y-79357142D01*
X191214285Y-79285714D01*
X191285714Y-79142857D01*
X191285714Y-78857142D01*
X191214285Y-78714285D01*
X191142857Y-78642857D01*
X191000000Y-78571428D01*
X191928571Y-78428571D02*
X191928571Y-79928571D01*
X191928571Y-78500000D02*
X192071428Y-78428571D01*
X192357142Y-78428571D01*
X192500000Y-78500000D01*
X192571428Y-78571428D01*
X192642857Y-78714285D01*
X192642857Y-79142857D01*
X192571428Y-79285714D01*
X192500000Y-79357142D01*
X192357142Y-79428571D01*
X192071428Y-79428571D01*
X191928571Y-79357142D01*
D11*
X119308178Y-87217142D02*
X119344464Y-87108285D01*
X119344464Y-86926857D01*
X119308178Y-86854285D01*
X119271892Y-86818000D01*
X119199321Y-86781714D01*
X119126750Y-86781714D01*
X119054178Y-86818000D01*
X119017892Y-86854285D01*
X118981607Y-86926857D01*
X118945321Y-87072000D01*
X118909035Y-87144571D01*
X118872750Y-87180857D01*
X118800178Y-87217142D01*
X118727607Y-87217142D01*
X118655035Y-87180857D01*
X118618750Y-87144571D01*
X118582464Y-87072000D01*
X118582464Y-86890571D01*
X118618750Y-86781714D01*
X119344464Y-86455142D02*
X118836464Y-86455142D01*
X118909035Y-86455142D02*
X118872750Y-86418857D01*
X118836464Y-86346285D01*
X118836464Y-86237428D01*
X118872750Y-86164857D01*
X118945321Y-86128571D01*
X119344464Y-86128571D01*
X118945321Y-86128571D02*
X118872750Y-86092285D01*
X118836464Y-86019714D01*
X118836464Y-85910857D01*
X118872750Y-85838285D01*
X118945321Y-85802000D01*
X119344464Y-85802000D01*
X119344464Y-85112571D02*
X118945321Y-85112571D01*
X118872750Y-85148857D01*
X118836464Y-85221428D01*
X118836464Y-85366571D01*
X118872750Y-85439142D01*
X119308178Y-85112571D02*
X119344464Y-85185142D01*
X119344464Y-85366571D01*
X119308178Y-85439142D01*
X119235607Y-85475428D01*
X119163035Y-85475428D01*
X119090464Y-85439142D01*
X119054178Y-85366571D01*
X119054178Y-85185142D01*
X119017892Y-85112571D01*
X119344464Y-84749714D02*
X118836464Y-84749714D01*
X118981607Y-84749714D02*
X118909035Y-84713428D01*
X118872750Y-84677142D01*
X118836464Y-84604571D01*
X118836464Y-84532000D01*
X118836464Y-84386857D02*
X118836464Y-84096571D01*
X118582464Y-84278000D02*
X119235607Y-84278000D01*
X119308178Y-84241714D01*
X119344464Y-84169142D01*
X119344464Y-84096571D01*
X119344464Y-83842571D02*
X118582464Y-83842571D01*
X119344464Y-83407142D01*
X118582464Y-83407142D01*
X119308178Y-82754000D02*
X119344464Y-82826571D01*
X119344464Y-82971714D01*
X119308178Y-83044285D01*
X119235607Y-83080571D01*
X118945321Y-83080571D01*
X118872750Y-83044285D01*
X118836464Y-82971714D01*
X118836464Y-82826571D01*
X118872750Y-82754000D01*
X118945321Y-82717714D01*
X119017892Y-82717714D01*
X119090464Y-83080571D01*
X119344464Y-82391142D02*
X118836464Y-82391142D01*
X118981607Y-82391142D02*
X118909035Y-82354857D01*
X118872750Y-82318571D01*
X118836464Y-82246000D01*
X118836464Y-82173428D01*
X118836464Y-82028285D02*
X118836464Y-81738000D01*
X119344464Y-81919428D02*
X118691321Y-81919428D01*
X118618750Y-81883142D01*
X118582464Y-81810571D01*
X118582464Y-81738000D01*
X118945321Y-81230000D02*
X118981607Y-81121142D01*
X119017892Y-81084857D01*
X119090464Y-81048571D01*
X119199321Y-81048571D01*
X119271892Y-81084857D01*
X119308178Y-81121142D01*
X119344464Y-81193714D01*
X119344464Y-81484000D01*
X118582464Y-81484000D01*
X118582464Y-81230000D01*
X118618750Y-81157428D01*
X118655035Y-81121142D01*
X118727607Y-81084857D01*
X118800178Y-81084857D01*
X118872750Y-81121142D01*
X118909035Y-81157428D01*
X118945321Y-81230000D01*
X118945321Y-81484000D01*
X119344464Y-80613142D02*
X119308178Y-80685714D01*
X119235607Y-80722000D01*
X118582464Y-80722000D01*
X119344464Y-79996285D02*
X118945321Y-79996285D01*
X118872750Y-80032571D01*
X118836464Y-80105142D01*
X118836464Y-80250285D01*
X118872750Y-80322857D01*
X119308178Y-79996285D02*
X119344464Y-80068857D01*
X119344464Y-80250285D01*
X119308178Y-80322857D01*
X119235607Y-80359142D01*
X119163035Y-80359142D01*
X119090464Y-80322857D01*
X119054178Y-80250285D01*
X119054178Y-80068857D01*
X119017892Y-79996285D01*
X119308178Y-79669714D02*
X119344464Y-79597142D01*
X119344464Y-79452000D01*
X119308178Y-79379428D01*
X119235607Y-79343142D01*
X119199321Y-79343142D01*
X119126750Y-79379428D01*
X119090464Y-79452000D01*
X119090464Y-79560857D01*
X119054178Y-79633428D01*
X118981607Y-79669714D01*
X118945321Y-79669714D01*
X118872750Y-79633428D01*
X118836464Y-79560857D01*
X118836464Y-79452000D01*
X118872750Y-79379428D01*
X118836464Y-79125428D02*
X118836464Y-78835142D01*
X118582464Y-79016571D02*
X119235607Y-79016571D01*
X119308178Y-78980285D01*
X119344464Y-78907714D01*
X119344464Y-78835142D01*
X119308178Y-78290857D02*
X119344464Y-78363428D01*
X119344464Y-78508571D01*
X119308178Y-78581142D01*
X119235607Y-78617428D01*
X118945321Y-78617428D01*
X118872750Y-78581142D01*
X118836464Y-78508571D01*
X118836464Y-78363428D01*
X118872750Y-78290857D01*
X118945321Y-78254571D01*
X119017892Y-78254571D01*
X119090464Y-78617428D01*
X119344464Y-77928000D02*
X118836464Y-77928000D01*
X118981607Y-77928000D02*
X118909035Y-77891714D01*
X118872750Y-77855428D01*
X118836464Y-77782857D01*
X118836464Y-77710285D01*
X120169964Y-83044285D02*
X120677964Y-82862857D01*
X120169964Y-82681428D01*
X120677964Y-81992000D02*
X120677964Y-82427428D01*
X120677964Y-82209714D02*
X119915964Y-82209714D01*
X120024821Y-82282285D01*
X120097392Y-82354857D01*
X120133678Y-82427428D01*
X122011464Y-86908714D02*
X121249464Y-86908714D01*
X121539750Y-86908714D02*
X121503464Y-86836142D01*
X121503464Y-86691000D01*
X121539750Y-86618428D01*
X121576035Y-86582142D01*
X121648607Y-86545857D01*
X121866321Y-86545857D01*
X121938892Y-86582142D01*
X121975178Y-86618428D01*
X122011464Y-86691000D01*
X122011464Y-86836142D01*
X121975178Y-86908714D01*
X121503464Y-86291857D02*
X122011464Y-86110428D01*
X121503464Y-85929000D02*
X122011464Y-86110428D01*
X122192892Y-86183000D01*
X122229178Y-86219285D01*
X122265464Y-86291857D01*
X122011464Y-85058142D02*
X121249464Y-85058142D01*
X121249464Y-84876714D01*
X121285750Y-84767857D01*
X121358321Y-84695285D01*
X121430892Y-84659000D01*
X121576035Y-84622714D01*
X121684892Y-84622714D01*
X121830035Y-84659000D01*
X121902607Y-84695285D01*
X121975178Y-84767857D01*
X122011464Y-84876714D01*
X122011464Y-85058142D01*
X122011464Y-83969571D02*
X121612321Y-83969571D01*
X121539750Y-84005857D01*
X121503464Y-84078428D01*
X121503464Y-84223571D01*
X121539750Y-84296142D01*
X121975178Y-83969571D02*
X122011464Y-84042142D01*
X122011464Y-84223571D01*
X121975178Y-84296142D01*
X121902607Y-84332428D01*
X121830035Y-84332428D01*
X121757464Y-84296142D01*
X121721178Y-84223571D01*
X121721178Y-84042142D01*
X121684892Y-83969571D01*
X121503464Y-83606714D02*
X122011464Y-83606714D01*
X121576035Y-83606714D02*
X121539750Y-83570428D01*
X121503464Y-83497857D01*
X121503464Y-83389000D01*
X121539750Y-83316428D01*
X121612321Y-83280142D01*
X122011464Y-83280142D01*
X122011464Y-82336714D02*
X121249464Y-82336714D01*
X122011464Y-81901285D02*
X121576035Y-82227857D01*
X121249464Y-81901285D02*
X121684892Y-82336714D01*
X122011464Y-81574714D02*
X121503464Y-81574714D01*
X121249464Y-81574714D02*
X121285750Y-81611000D01*
X121322035Y-81574714D01*
X121285750Y-81538428D01*
X121249464Y-81574714D01*
X121322035Y-81574714D01*
X122011464Y-81211857D02*
X121503464Y-81211857D01*
X121648607Y-81211857D02*
X121576035Y-81175571D01*
X121539750Y-81139285D01*
X121503464Y-81066714D01*
X121503464Y-80994142D01*
X122011464Y-80740142D02*
X121249464Y-80740142D01*
X121721178Y-80667571D02*
X122011464Y-80449857D01*
X121503464Y-80449857D02*
X121793750Y-80740142D01*
X122011464Y-80123285D02*
X121249464Y-80123285D01*
X122011464Y-79796714D02*
X121612321Y-79796714D01*
X121539750Y-79833000D01*
X121503464Y-79905571D01*
X121503464Y-80014428D01*
X121539750Y-80087000D01*
X121576035Y-80123285D01*
X122011464Y-79107285D02*
X121612321Y-79107285D01*
X121539750Y-79143571D01*
X121503464Y-79216142D01*
X121503464Y-79361285D01*
X121539750Y-79433857D01*
X121975178Y-79107285D02*
X122011464Y-79179857D01*
X122011464Y-79361285D01*
X121975178Y-79433857D01*
X121902607Y-79470142D01*
X121830035Y-79470142D01*
X121757464Y-79433857D01*
X121721178Y-79361285D01*
X121721178Y-79179857D01*
X121684892Y-79107285D01*
X122011464Y-78744428D02*
X121503464Y-78744428D01*
X121576035Y-78744428D02*
X121539750Y-78708142D01*
X121503464Y-78635571D01*
X121503464Y-78526714D01*
X121539750Y-78454142D01*
X121612321Y-78417857D01*
X122011464Y-78417857D01*
X121612321Y-78417857D02*
X121539750Y-78381571D01*
X121503464Y-78309000D01*
X121503464Y-78200142D01*
X121539750Y-78127571D01*
X121612321Y-78091285D01*
X122011464Y-78091285D01*
X122836964Y-88795571D02*
X123453821Y-88795571D01*
X123526392Y-88831857D01*
X123562678Y-88868142D01*
X123598964Y-88940714D01*
X123598964Y-89049571D01*
X123562678Y-89122142D01*
X123308678Y-88795571D02*
X123344964Y-88868142D01*
X123344964Y-89013285D01*
X123308678Y-89085857D01*
X123272392Y-89122142D01*
X123199821Y-89158428D01*
X122982107Y-89158428D01*
X122909535Y-89122142D01*
X122873250Y-89085857D01*
X122836964Y-89013285D01*
X122836964Y-88868142D01*
X122873250Y-88795571D01*
X123344964Y-88432714D02*
X122836964Y-88432714D01*
X122582964Y-88432714D02*
X122619250Y-88469000D01*
X122655535Y-88432714D01*
X122619250Y-88396428D01*
X122582964Y-88432714D01*
X122655535Y-88432714D01*
X122836964Y-88178714D02*
X122836964Y-87888428D01*
X122582964Y-88069857D02*
X123236107Y-88069857D01*
X123308678Y-88033571D01*
X123344964Y-87961000D01*
X123344964Y-87888428D01*
X123344964Y-87634428D02*
X122582964Y-87634428D01*
X123344964Y-87307857D02*
X122945821Y-87307857D01*
X122873250Y-87344142D01*
X122836964Y-87416714D01*
X122836964Y-87525571D01*
X122873250Y-87598142D01*
X122909535Y-87634428D01*
X122836964Y-86618428D02*
X123344964Y-86618428D01*
X122836964Y-86945000D02*
X123236107Y-86945000D01*
X123308678Y-86908714D01*
X123344964Y-86836142D01*
X123344964Y-86727285D01*
X123308678Y-86654714D01*
X123272392Y-86618428D01*
X123344964Y-86255571D02*
X122582964Y-86255571D01*
X122873250Y-86255571D02*
X122836964Y-86183000D01*
X122836964Y-86037857D01*
X122873250Y-85965285D01*
X122909535Y-85929000D01*
X122982107Y-85892714D01*
X123199821Y-85892714D01*
X123272392Y-85929000D01*
X123308678Y-85965285D01*
X123344964Y-86037857D01*
X123344964Y-86183000D01*
X123308678Y-86255571D01*
X123272392Y-85566142D02*
X123308678Y-85529857D01*
X123344964Y-85566142D01*
X123308678Y-85602428D01*
X123272392Y-85566142D01*
X123344964Y-85566142D01*
X123308678Y-84876714D02*
X123344964Y-84949285D01*
X123344964Y-85094428D01*
X123308678Y-85167000D01*
X123272392Y-85203285D01*
X123199821Y-85239571D01*
X122982107Y-85239571D01*
X122909535Y-85203285D01*
X122873250Y-85167000D01*
X122836964Y-85094428D01*
X122836964Y-84949285D01*
X122873250Y-84876714D01*
X123344964Y-84441285D02*
X123308678Y-84513857D01*
X123272392Y-84550142D01*
X123199821Y-84586428D01*
X122982107Y-84586428D01*
X122909535Y-84550142D01*
X122873250Y-84513857D01*
X122836964Y-84441285D01*
X122836964Y-84332428D01*
X122873250Y-84259857D01*
X122909535Y-84223571D01*
X122982107Y-84187285D01*
X123199821Y-84187285D01*
X123272392Y-84223571D01*
X123308678Y-84259857D01*
X123344964Y-84332428D01*
X123344964Y-84441285D01*
X123344964Y-83860714D02*
X122836964Y-83860714D01*
X122909535Y-83860714D02*
X122873250Y-83824428D01*
X122836964Y-83751857D01*
X122836964Y-83643000D01*
X122873250Y-83570428D01*
X122945821Y-83534142D01*
X123344964Y-83534142D01*
X122945821Y-83534142D02*
X122873250Y-83497857D01*
X122836964Y-83425285D01*
X122836964Y-83316428D01*
X122873250Y-83243857D01*
X122945821Y-83207571D01*
X123344964Y-83207571D01*
X122546678Y-82300428D02*
X123526392Y-82953571D01*
X123344964Y-81719857D02*
X122582964Y-81719857D01*
X123308678Y-81719857D02*
X123344964Y-81792428D01*
X123344964Y-81937571D01*
X123308678Y-82010142D01*
X123272392Y-82046428D01*
X123199821Y-82082714D01*
X122982107Y-82082714D01*
X122909535Y-82046428D01*
X122873250Y-82010142D01*
X122836964Y-81937571D01*
X122836964Y-81792428D01*
X122873250Y-81719857D01*
X123344964Y-81030428D02*
X122945821Y-81030428D01*
X122873250Y-81066714D01*
X122836964Y-81139285D01*
X122836964Y-81284428D01*
X122873250Y-81357000D01*
X123308678Y-81030428D02*
X123344964Y-81103000D01*
X123344964Y-81284428D01*
X123308678Y-81357000D01*
X123236107Y-81393285D01*
X123163535Y-81393285D01*
X123090964Y-81357000D01*
X123054678Y-81284428D01*
X123054678Y-81103000D01*
X123018392Y-81030428D01*
X122836964Y-80667571D02*
X123344964Y-80667571D01*
X122909535Y-80667571D02*
X122873250Y-80631285D01*
X122836964Y-80558714D01*
X122836964Y-80449857D01*
X122873250Y-80377285D01*
X122945821Y-80341000D01*
X123344964Y-80341000D01*
X123344964Y-79978142D02*
X122582964Y-79978142D01*
X123054678Y-79905571D02*
X123344964Y-79687857D01*
X122836964Y-79687857D02*
X123127250Y-79978142D01*
X123344964Y-79361285D02*
X122836964Y-79361285D01*
X122582964Y-79361285D02*
X122619250Y-79397571D01*
X122655535Y-79361285D01*
X122619250Y-79325000D01*
X122582964Y-79361285D01*
X122655535Y-79361285D01*
X123344964Y-78998428D02*
X122836964Y-78998428D01*
X122982107Y-78998428D02*
X122909535Y-78962142D01*
X122873250Y-78925857D01*
X122836964Y-78853285D01*
X122836964Y-78780714D01*
X123344964Y-78526714D02*
X122582964Y-78526714D01*
X123054678Y-78454142D02*
X123344964Y-78236428D01*
X122836964Y-78236428D02*
X123127250Y-78526714D01*
X123344964Y-77909857D02*
X122582964Y-77909857D01*
X123344964Y-77583285D02*
X122945821Y-77583285D01*
X122873250Y-77619571D01*
X122836964Y-77692142D01*
X122836964Y-77801000D01*
X122873250Y-77873571D01*
X122909535Y-77909857D01*
X123344964Y-76893857D02*
X122945821Y-76893857D01*
X122873250Y-76930142D01*
X122836964Y-77002714D01*
X122836964Y-77147857D01*
X122873250Y-77220428D01*
X123308678Y-76893857D02*
X123344964Y-76966428D01*
X123344964Y-77147857D01*
X123308678Y-77220428D01*
X123236107Y-77256714D01*
X123163535Y-77256714D01*
X123090964Y-77220428D01*
X123054678Y-77147857D01*
X123054678Y-76966428D01*
X123018392Y-76893857D01*
X123344964Y-76531000D02*
X122836964Y-76531000D01*
X122909535Y-76531000D02*
X122873250Y-76494714D01*
X122836964Y-76422142D01*
X122836964Y-76313285D01*
X122873250Y-76240714D01*
X122945821Y-76204428D01*
X123344964Y-76204428D01*
X122945821Y-76204428D02*
X122873250Y-76168142D01*
X122836964Y-76095571D01*
X122836964Y-75986714D01*
X122873250Y-75914142D01*
X122945821Y-75877857D01*
X123344964Y-75877857D01*
D12*
G04 #@! TO.C,C1*
X126850000Y-76100000D02*
X128150000Y-76100000D01*
X127500000Y-76700000D02*
X127500000Y-75500000D01*
X127146000Y-70689000D02*
X127854000Y-70689000D01*
X126941000Y-70729000D02*
X128059000Y-70729000D01*
X126793000Y-70769000D02*
X128207000Y-70769000D01*
X126671000Y-70809000D02*
X128329000Y-70809000D01*
X126566000Y-70849000D02*
X128434000Y-70849000D01*
X126472000Y-70889000D02*
X128528000Y-70889000D01*
X126388000Y-70929000D02*
X128612000Y-70929000D01*
X126311000Y-70969000D02*
X128689000Y-70969000D01*
X126239000Y-71009000D02*
X128761000Y-71009000D01*
X128480000Y-71049000D02*
X128827000Y-71049000D01*
X126173000Y-71049000D02*
X126520000Y-71049000D01*
X128480000Y-71089000D02*
X128890000Y-71089000D01*
X126110000Y-71089000D02*
X126520000Y-71089000D01*
X128480000Y-71129000D02*
X128948000Y-71129000D01*
X126052000Y-71129000D02*
X126520000Y-71129000D01*
X128480000Y-71169000D02*
X129004000Y-71169000D01*
X125996000Y-71169000D02*
X126520000Y-71169000D01*
X128480000Y-71209000D02*
X129056000Y-71209000D01*
X125944000Y-71209000D02*
X126520000Y-71209000D01*
X128480000Y-71249000D02*
X129106000Y-71249000D01*
X125894000Y-71249000D02*
X126520000Y-71249000D01*
X128480000Y-71289000D02*
X129154000Y-71289000D01*
X125846000Y-71289000D02*
X126520000Y-71289000D01*
X128480000Y-71329000D02*
X129199000Y-71329000D01*
X125801000Y-71329000D02*
X126520000Y-71329000D01*
X128480000Y-71369000D02*
X129242000Y-71369000D01*
X125758000Y-71369000D02*
X126520000Y-71369000D01*
X128480000Y-71409000D02*
X129283000Y-71409000D01*
X125717000Y-71409000D02*
X126520000Y-71409000D01*
X128480000Y-71449000D02*
X129323000Y-71449000D01*
X125677000Y-71449000D02*
X126520000Y-71449000D01*
X128480000Y-71489000D02*
X129361000Y-71489000D01*
X125639000Y-71489000D02*
X126520000Y-71489000D01*
X128480000Y-71529000D02*
X129397000Y-71529000D01*
X125603000Y-71529000D02*
X126520000Y-71529000D01*
X128480000Y-71569000D02*
X129432000Y-71569000D01*
X125568000Y-71569000D02*
X126520000Y-71569000D01*
X128480000Y-71609000D02*
X129465000Y-71609000D01*
X125535000Y-71609000D02*
X126520000Y-71609000D01*
X128480000Y-71649000D02*
X129497000Y-71649000D01*
X125503000Y-71649000D02*
X126520000Y-71649000D01*
X128480000Y-71689000D02*
X129528000Y-71689000D01*
X125472000Y-71689000D02*
X126520000Y-71689000D01*
X128480000Y-71729000D02*
X129558000Y-71729000D01*
X125442000Y-71729000D02*
X126520000Y-71729000D01*
X128480000Y-71769000D02*
X129586000Y-71769000D01*
X125414000Y-71769000D02*
X126520000Y-71769000D01*
X128480000Y-71809000D02*
X129613000Y-71809000D01*
X125387000Y-71809000D02*
X126520000Y-71809000D01*
X128480000Y-71849000D02*
X129640000Y-71849000D01*
X125360000Y-71849000D02*
X126520000Y-71849000D01*
X128480000Y-71889000D02*
X129665000Y-71889000D01*
X125335000Y-71889000D02*
X126520000Y-71889000D01*
X128480000Y-71929000D02*
X129689000Y-71929000D01*
X125311000Y-71929000D02*
X126520000Y-71929000D01*
X128480000Y-71969000D02*
X129712000Y-71969000D01*
X125288000Y-71969000D02*
X126520000Y-71969000D01*
X128480000Y-72009000D02*
X129734000Y-72009000D01*
X125266000Y-72009000D02*
X126520000Y-72009000D01*
X128480000Y-72049000D02*
X129756000Y-72049000D01*
X125244000Y-72049000D02*
X126520000Y-72049000D01*
X128480000Y-72089000D02*
X129776000Y-72089000D01*
X125224000Y-72089000D02*
X126520000Y-72089000D01*
X128480000Y-72129000D02*
X129796000Y-72129000D01*
X125204000Y-72129000D02*
X126520000Y-72129000D01*
X128480000Y-72169000D02*
X129815000Y-72169000D01*
X125185000Y-72169000D02*
X126520000Y-72169000D01*
X128480000Y-72209000D02*
X129833000Y-72209000D01*
X125167000Y-72209000D02*
X126520000Y-72209000D01*
X128480000Y-72249000D02*
X129850000Y-72249000D01*
X125150000Y-72249000D02*
X126520000Y-72249000D01*
X128480000Y-72289000D02*
X129866000Y-72289000D01*
X125134000Y-72289000D02*
X126520000Y-72289000D01*
X128480000Y-72329000D02*
X129882000Y-72329000D01*
X125118000Y-72329000D02*
X126520000Y-72329000D01*
X128480000Y-72369000D02*
X129896000Y-72369000D01*
X125104000Y-72369000D02*
X126520000Y-72369000D01*
X128480000Y-72409000D02*
X129910000Y-72409000D01*
X125090000Y-72409000D02*
X126520000Y-72409000D01*
X128480000Y-72449000D02*
X129924000Y-72449000D01*
X125076000Y-72449000D02*
X126520000Y-72449000D01*
X128480000Y-72489000D02*
X129936000Y-72489000D01*
X125064000Y-72489000D02*
X126520000Y-72489000D01*
X128480000Y-72529000D02*
X129948000Y-72529000D01*
X125052000Y-72529000D02*
X126520000Y-72529000D01*
X128480000Y-72570000D02*
X129960000Y-72570000D01*
X125040000Y-72570000D02*
X126520000Y-72570000D01*
X128480000Y-72610000D02*
X129970000Y-72610000D01*
X125030000Y-72610000D02*
X126520000Y-72610000D01*
X128480000Y-72650000D02*
X129980000Y-72650000D01*
X125020000Y-72650000D02*
X126520000Y-72650000D01*
X128480000Y-72690000D02*
X129989000Y-72690000D01*
X125011000Y-72690000D02*
X126520000Y-72690000D01*
X128480000Y-72730000D02*
X129998000Y-72730000D01*
X125002000Y-72730000D02*
X126520000Y-72730000D01*
X128480000Y-72770000D02*
X130006000Y-72770000D01*
X124994000Y-72770000D02*
X126520000Y-72770000D01*
X128480000Y-72810000D02*
X130013000Y-72810000D01*
X124987000Y-72810000D02*
X126520000Y-72810000D01*
X128480000Y-72850000D02*
X130019000Y-72850000D01*
X124981000Y-72850000D02*
X126520000Y-72850000D01*
X128480000Y-72890000D02*
X130025000Y-72890000D01*
X124975000Y-72890000D02*
X126520000Y-72890000D01*
X128480000Y-72930000D02*
X130031000Y-72930000D01*
X124969000Y-72930000D02*
X126520000Y-72930000D01*
X128480000Y-72970000D02*
X130035000Y-72970000D01*
X124965000Y-72970000D02*
X126520000Y-72970000D01*
X124961000Y-73010000D02*
X130039000Y-73010000D01*
X124957000Y-73050000D02*
X130043000Y-73050000D01*
X124954000Y-73090000D02*
X130046000Y-73090000D01*
X124952000Y-73130000D02*
X130048000Y-73130000D01*
X124951000Y-73170000D02*
X130049000Y-73170000D01*
X124950000Y-73210000D02*
X130050000Y-73210000D01*
X124950000Y-73250000D02*
X130050000Y-73250000D01*
X128679723Y-70944278D02*
G75*
G03X126320000Y-70944420I-1179723J-2305722D01*
G01*
X128679723Y-70944278D02*
G75*
G02X128680000Y-75555580I-1179723J-2305722D01*
G01*
X126320277Y-70944278D02*
G75*
G03X126320000Y-75555580I1179723J-2305722D01*
G01*
G04 #@! TO.C,C2*
X150320277Y-72444278D02*
G75*
G03X150320000Y-77055580I1179723J-2305722D01*
G01*
X152679723Y-72444278D02*
G75*
G02X152680000Y-77055580I-1179723J-2305722D01*
G01*
X152679723Y-72444278D02*
G75*
G03X150320000Y-72444420I-1179723J-2305722D01*
G01*
X148950000Y-74750000D02*
X154050000Y-74750000D01*
X148950000Y-74710000D02*
X154050000Y-74710000D01*
X148951000Y-74670000D02*
X154049000Y-74670000D01*
X148952000Y-74630000D02*
X154048000Y-74630000D01*
X148954000Y-74590000D02*
X154046000Y-74590000D01*
X148957000Y-74550000D02*
X154043000Y-74550000D01*
X148961000Y-74510000D02*
X154039000Y-74510000D01*
X148965000Y-74470000D02*
X150520000Y-74470000D01*
X152480000Y-74470000D02*
X154035000Y-74470000D01*
X148969000Y-74430000D02*
X150520000Y-74430000D01*
X152480000Y-74430000D02*
X154031000Y-74430000D01*
X148975000Y-74390000D02*
X150520000Y-74390000D01*
X152480000Y-74390000D02*
X154025000Y-74390000D01*
X148981000Y-74350000D02*
X150520000Y-74350000D01*
X152480000Y-74350000D02*
X154019000Y-74350000D01*
X148987000Y-74310000D02*
X150520000Y-74310000D01*
X152480000Y-74310000D02*
X154013000Y-74310000D01*
X148994000Y-74270000D02*
X150520000Y-74270000D01*
X152480000Y-74270000D02*
X154006000Y-74270000D01*
X149002000Y-74230000D02*
X150520000Y-74230000D01*
X152480000Y-74230000D02*
X153998000Y-74230000D01*
X149011000Y-74190000D02*
X150520000Y-74190000D01*
X152480000Y-74190000D02*
X153989000Y-74190000D01*
X149020000Y-74150000D02*
X150520000Y-74150000D01*
X152480000Y-74150000D02*
X153980000Y-74150000D01*
X149030000Y-74110000D02*
X150520000Y-74110000D01*
X152480000Y-74110000D02*
X153970000Y-74110000D01*
X149040000Y-74070000D02*
X150520000Y-74070000D01*
X152480000Y-74070000D02*
X153960000Y-74070000D01*
X149052000Y-74029000D02*
X150520000Y-74029000D01*
X152480000Y-74029000D02*
X153948000Y-74029000D01*
X149064000Y-73989000D02*
X150520000Y-73989000D01*
X152480000Y-73989000D02*
X153936000Y-73989000D01*
X149076000Y-73949000D02*
X150520000Y-73949000D01*
X152480000Y-73949000D02*
X153924000Y-73949000D01*
X149090000Y-73909000D02*
X150520000Y-73909000D01*
X152480000Y-73909000D02*
X153910000Y-73909000D01*
X149104000Y-73869000D02*
X150520000Y-73869000D01*
X152480000Y-73869000D02*
X153896000Y-73869000D01*
X149118000Y-73829000D02*
X150520000Y-73829000D01*
X152480000Y-73829000D02*
X153882000Y-73829000D01*
X149134000Y-73789000D02*
X150520000Y-73789000D01*
X152480000Y-73789000D02*
X153866000Y-73789000D01*
X149150000Y-73749000D02*
X150520000Y-73749000D01*
X152480000Y-73749000D02*
X153850000Y-73749000D01*
X149167000Y-73709000D02*
X150520000Y-73709000D01*
X152480000Y-73709000D02*
X153833000Y-73709000D01*
X149185000Y-73669000D02*
X150520000Y-73669000D01*
X152480000Y-73669000D02*
X153815000Y-73669000D01*
X149204000Y-73629000D02*
X150520000Y-73629000D01*
X152480000Y-73629000D02*
X153796000Y-73629000D01*
X149224000Y-73589000D02*
X150520000Y-73589000D01*
X152480000Y-73589000D02*
X153776000Y-73589000D01*
X149244000Y-73549000D02*
X150520000Y-73549000D01*
X152480000Y-73549000D02*
X153756000Y-73549000D01*
X149266000Y-73509000D02*
X150520000Y-73509000D01*
X152480000Y-73509000D02*
X153734000Y-73509000D01*
X149288000Y-73469000D02*
X150520000Y-73469000D01*
X152480000Y-73469000D02*
X153712000Y-73469000D01*
X149311000Y-73429000D02*
X150520000Y-73429000D01*
X152480000Y-73429000D02*
X153689000Y-73429000D01*
X149335000Y-73389000D02*
X150520000Y-73389000D01*
X152480000Y-73389000D02*
X153665000Y-73389000D01*
X149360000Y-73349000D02*
X150520000Y-73349000D01*
X152480000Y-73349000D02*
X153640000Y-73349000D01*
X149387000Y-73309000D02*
X150520000Y-73309000D01*
X152480000Y-73309000D02*
X153613000Y-73309000D01*
X149414000Y-73269000D02*
X150520000Y-73269000D01*
X152480000Y-73269000D02*
X153586000Y-73269000D01*
X149442000Y-73229000D02*
X150520000Y-73229000D01*
X152480000Y-73229000D02*
X153558000Y-73229000D01*
X149472000Y-73189000D02*
X150520000Y-73189000D01*
X152480000Y-73189000D02*
X153528000Y-73189000D01*
X149503000Y-73149000D02*
X150520000Y-73149000D01*
X152480000Y-73149000D02*
X153497000Y-73149000D01*
X149535000Y-73109000D02*
X150520000Y-73109000D01*
X152480000Y-73109000D02*
X153465000Y-73109000D01*
X149568000Y-73069000D02*
X150520000Y-73069000D01*
X152480000Y-73069000D02*
X153432000Y-73069000D01*
X149603000Y-73029000D02*
X150520000Y-73029000D01*
X152480000Y-73029000D02*
X153397000Y-73029000D01*
X149639000Y-72989000D02*
X150520000Y-72989000D01*
X152480000Y-72989000D02*
X153361000Y-72989000D01*
X149677000Y-72949000D02*
X150520000Y-72949000D01*
X152480000Y-72949000D02*
X153323000Y-72949000D01*
X149717000Y-72909000D02*
X150520000Y-72909000D01*
X152480000Y-72909000D02*
X153283000Y-72909000D01*
X149758000Y-72869000D02*
X150520000Y-72869000D01*
X152480000Y-72869000D02*
X153242000Y-72869000D01*
X149801000Y-72829000D02*
X150520000Y-72829000D01*
X152480000Y-72829000D02*
X153199000Y-72829000D01*
X149846000Y-72789000D02*
X150520000Y-72789000D01*
X152480000Y-72789000D02*
X153154000Y-72789000D01*
X149894000Y-72749000D02*
X150520000Y-72749000D01*
X152480000Y-72749000D02*
X153106000Y-72749000D01*
X149944000Y-72709000D02*
X150520000Y-72709000D01*
X152480000Y-72709000D02*
X153056000Y-72709000D01*
X149996000Y-72669000D02*
X150520000Y-72669000D01*
X152480000Y-72669000D02*
X153004000Y-72669000D01*
X150052000Y-72629000D02*
X150520000Y-72629000D01*
X152480000Y-72629000D02*
X152948000Y-72629000D01*
X150110000Y-72589000D02*
X150520000Y-72589000D01*
X152480000Y-72589000D02*
X152890000Y-72589000D01*
X150173000Y-72549000D02*
X150520000Y-72549000D01*
X152480000Y-72549000D02*
X152827000Y-72549000D01*
X150239000Y-72509000D02*
X152761000Y-72509000D01*
X150311000Y-72469000D02*
X152689000Y-72469000D01*
X150388000Y-72429000D02*
X152612000Y-72429000D01*
X150472000Y-72389000D02*
X152528000Y-72389000D01*
X150566000Y-72349000D02*
X152434000Y-72349000D01*
X150671000Y-72309000D02*
X152329000Y-72309000D01*
X150793000Y-72269000D02*
X152207000Y-72269000D01*
X150941000Y-72229000D02*
X152059000Y-72229000D01*
X151146000Y-72189000D02*
X151854000Y-72189000D01*
X151500000Y-78200000D02*
X151500000Y-77000000D01*
X150850000Y-77600000D02*
X152150000Y-77600000D01*
G04 #@! TO.C,C3*
X182390000Y-83940000D02*
X187110000Y-83940000D01*
X182390000Y-86060000D02*
X187110000Y-86060000D01*
X182390000Y-83940000D02*
X182390000Y-86060000D01*
X187110000Y-83940000D02*
X187110000Y-86060000D01*
G04 #@! TO.C,C4*
X183390000Y-73560000D02*
X183390000Y-71440000D01*
X188110000Y-73560000D02*
X188110000Y-71440000D01*
X188110000Y-71440000D02*
X183390000Y-71440000D01*
X188110000Y-73560000D02*
X183390000Y-73560000D01*
G04 #@! TO.C,C5*
X161100000Y-75650000D02*
X161100000Y-74350000D01*
X161700000Y-75000000D02*
X160500000Y-75000000D01*
X155689000Y-75354000D02*
X155689000Y-74646000D01*
X155729000Y-75559000D02*
X155729000Y-74441000D01*
X155769000Y-75707000D02*
X155769000Y-74293000D01*
X155809000Y-75829000D02*
X155809000Y-74171000D01*
X155849000Y-75934000D02*
X155849000Y-74066000D01*
X155889000Y-76028000D02*
X155889000Y-73972000D01*
X155929000Y-76112000D02*
X155929000Y-73888000D01*
X155969000Y-76189000D02*
X155969000Y-73811000D01*
X156009000Y-76261000D02*
X156009000Y-73739000D01*
X156049000Y-74020000D02*
X156049000Y-73673000D01*
X156049000Y-76327000D02*
X156049000Y-75980000D01*
X156089000Y-74020000D02*
X156089000Y-73610000D01*
X156089000Y-76390000D02*
X156089000Y-75980000D01*
X156129000Y-74020000D02*
X156129000Y-73552000D01*
X156129000Y-76448000D02*
X156129000Y-75980000D01*
X156169000Y-74020000D02*
X156169000Y-73496000D01*
X156169000Y-76504000D02*
X156169000Y-75980000D01*
X156209000Y-74020000D02*
X156209000Y-73444000D01*
X156209000Y-76556000D02*
X156209000Y-75980000D01*
X156249000Y-74020000D02*
X156249000Y-73394000D01*
X156249000Y-76606000D02*
X156249000Y-75980000D01*
X156289000Y-74020000D02*
X156289000Y-73346000D01*
X156289000Y-76654000D02*
X156289000Y-75980000D01*
X156329000Y-74020000D02*
X156329000Y-73301000D01*
X156329000Y-76699000D02*
X156329000Y-75980000D01*
X156369000Y-74020000D02*
X156369000Y-73258000D01*
X156369000Y-76742000D02*
X156369000Y-75980000D01*
X156409000Y-74020000D02*
X156409000Y-73217000D01*
X156409000Y-76783000D02*
X156409000Y-75980000D01*
X156449000Y-74020000D02*
X156449000Y-73177000D01*
X156449000Y-76823000D02*
X156449000Y-75980000D01*
X156489000Y-74020000D02*
X156489000Y-73139000D01*
X156489000Y-76861000D02*
X156489000Y-75980000D01*
X156529000Y-74020000D02*
X156529000Y-73103000D01*
X156529000Y-76897000D02*
X156529000Y-75980000D01*
X156569000Y-74020000D02*
X156569000Y-73068000D01*
X156569000Y-76932000D02*
X156569000Y-75980000D01*
X156609000Y-74020000D02*
X156609000Y-73035000D01*
X156609000Y-76965000D02*
X156609000Y-75980000D01*
X156649000Y-74020000D02*
X156649000Y-73003000D01*
X156649000Y-76997000D02*
X156649000Y-75980000D01*
X156689000Y-74020000D02*
X156689000Y-72972000D01*
X156689000Y-77028000D02*
X156689000Y-75980000D01*
X156729000Y-74020000D02*
X156729000Y-72942000D01*
X156729000Y-77058000D02*
X156729000Y-75980000D01*
X156769000Y-74020000D02*
X156769000Y-72914000D01*
X156769000Y-77086000D02*
X156769000Y-75980000D01*
X156809000Y-74020000D02*
X156809000Y-72887000D01*
X156809000Y-77113000D02*
X156809000Y-75980000D01*
X156849000Y-74020000D02*
X156849000Y-72860000D01*
X156849000Y-77140000D02*
X156849000Y-75980000D01*
X156889000Y-74020000D02*
X156889000Y-72835000D01*
X156889000Y-77165000D02*
X156889000Y-75980000D01*
X156929000Y-74020000D02*
X156929000Y-72811000D01*
X156929000Y-77189000D02*
X156929000Y-75980000D01*
X156969000Y-74020000D02*
X156969000Y-72788000D01*
X156969000Y-77212000D02*
X156969000Y-75980000D01*
X157009000Y-74020000D02*
X157009000Y-72766000D01*
X157009000Y-77234000D02*
X157009000Y-75980000D01*
X157049000Y-74020000D02*
X157049000Y-72744000D01*
X157049000Y-77256000D02*
X157049000Y-75980000D01*
X157089000Y-74020000D02*
X157089000Y-72724000D01*
X157089000Y-77276000D02*
X157089000Y-75980000D01*
X157129000Y-74020000D02*
X157129000Y-72704000D01*
X157129000Y-77296000D02*
X157129000Y-75980000D01*
X157169000Y-74020000D02*
X157169000Y-72685000D01*
X157169000Y-77315000D02*
X157169000Y-75980000D01*
X157209000Y-74020000D02*
X157209000Y-72667000D01*
X157209000Y-77333000D02*
X157209000Y-75980000D01*
X157249000Y-74020000D02*
X157249000Y-72650000D01*
X157249000Y-77350000D02*
X157249000Y-75980000D01*
X157289000Y-74020000D02*
X157289000Y-72634000D01*
X157289000Y-77366000D02*
X157289000Y-75980000D01*
X157329000Y-74020000D02*
X157329000Y-72618000D01*
X157329000Y-77382000D02*
X157329000Y-75980000D01*
X157369000Y-74020000D02*
X157369000Y-72604000D01*
X157369000Y-77396000D02*
X157369000Y-75980000D01*
X157409000Y-74020000D02*
X157409000Y-72590000D01*
X157409000Y-77410000D02*
X157409000Y-75980000D01*
X157449000Y-74020000D02*
X157449000Y-72576000D01*
X157449000Y-77424000D02*
X157449000Y-75980000D01*
X157489000Y-74020000D02*
X157489000Y-72564000D01*
X157489000Y-77436000D02*
X157489000Y-75980000D01*
X157529000Y-74020000D02*
X157529000Y-72552000D01*
X157529000Y-77448000D02*
X157529000Y-75980000D01*
X157570000Y-74020000D02*
X157570000Y-72540000D01*
X157570000Y-77460000D02*
X157570000Y-75980000D01*
X157610000Y-74020000D02*
X157610000Y-72530000D01*
X157610000Y-77470000D02*
X157610000Y-75980000D01*
X157650000Y-74020000D02*
X157650000Y-72520000D01*
X157650000Y-77480000D02*
X157650000Y-75980000D01*
X157690000Y-74020000D02*
X157690000Y-72511000D01*
X157690000Y-77489000D02*
X157690000Y-75980000D01*
X157730000Y-74020000D02*
X157730000Y-72502000D01*
X157730000Y-77498000D02*
X157730000Y-75980000D01*
X157770000Y-74020000D02*
X157770000Y-72494000D01*
X157770000Y-77506000D02*
X157770000Y-75980000D01*
X157810000Y-74020000D02*
X157810000Y-72487000D01*
X157810000Y-77513000D02*
X157810000Y-75980000D01*
X157850000Y-74020000D02*
X157850000Y-72481000D01*
X157850000Y-77519000D02*
X157850000Y-75980000D01*
X157890000Y-74020000D02*
X157890000Y-72475000D01*
X157890000Y-77525000D02*
X157890000Y-75980000D01*
X157930000Y-74020000D02*
X157930000Y-72469000D01*
X157930000Y-77531000D02*
X157930000Y-75980000D01*
X157970000Y-74020000D02*
X157970000Y-72465000D01*
X157970000Y-77535000D02*
X157970000Y-75980000D01*
X158010000Y-77539000D02*
X158010000Y-72461000D01*
X158050000Y-77543000D02*
X158050000Y-72457000D01*
X158090000Y-77546000D02*
X158090000Y-72454000D01*
X158130000Y-77548000D02*
X158130000Y-72452000D01*
X158170000Y-77549000D02*
X158170000Y-72451000D01*
X158210000Y-77550000D02*
X158210000Y-72450000D01*
X158250000Y-77550000D02*
X158250000Y-72450000D01*
X155944278Y-73820277D02*
G75*
G03X155944420Y-76180000I2305722J-1179723D01*
G01*
X155944278Y-73820277D02*
G75*
G02X160555580Y-73820000I2305722J-1179723D01*
G01*
X155944278Y-76179723D02*
G75*
G03X160555580Y-76180000I2305722J1179723D01*
G01*
G04 #@! TO.C,C6*
X155944278Y-82179723D02*
G75*
G03X160555580Y-82180000I2305722J1179723D01*
G01*
X155944278Y-79820277D02*
G75*
G02X160555580Y-79820000I2305722J-1179723D01*
G01*
X155944278Y-79820277D02*
G75*
G03X155944420Y-82180000I2305722J-1179723D01*
G01*
X158250000Y-83550000D02*
X158250000Y-78450000D01*
X158210000Y-83550000D02*
X158210000Y-78450000D01*
X158170000Y-83549000D02*
X158170000Y-78451000D01*
X158130000Y-83548000D02*
X158130000Y-78452000D01*
X158090000Y-83546000D02*
X158090000Y-78454000D01*
X158050000Y-83543000D02*
X158050000Y-78457000D01*
X158010000Y-83539000D02*
X158010000Y-78461000D01*
X157970000Y-83535000D02*
X157970000Y-81980000D01*
X157970000Y-80020000D02*
X157970000Y-78465000D01*
X157930000Y-83531000D02*
X157930000Y-81980000D01*
X157930000Y-80020000D02*
X157930000Y-78469000D01*
X157890000Y-83525000D02*
X157890000Y-81980000D01*
X157890000Y-80020000D02*
X157890000Y-78475000D01*
X157850000Y-83519000D02*
X157850000Y-81980000D01*
X157850000Y-80020000D02*
X157850000Y-78481000D01*
X157810000Y-83513000D02*
X157810000Y-81980000D01*
X157810000Y-80020000D02*
X157810000Y-78487000D01*
X157770000Y-83506000D02*
X157770000Y-81980000D01*
X157770000Y-80020000D02*
X157770000Y-78494000D01*
X157730000Y-83498000D02*
X157730000Y-81980000D01*
X157730000Y-80020000D02*
X157730000Y-78502000D01*
X157690000Y-83489000D02*
X157690000Y-81980000D01*
X157690000Y-80020000D02*
X157690000Y-78511000D01*
X157650000Y-83480000D02*
X157650000Y-81980000D01*
X157650000Y-80020000D02*
X157650000Y-78520000D01*
X157610000Y-83470000D02*
X157610000Y-81980000D01*
X157610000Y-80020000D02*
X157610000Y-78530000D01*
X157570000Y-83460000D02*
X157570000Y-81980000D01*
X157570000Y-80020000D02*
X157570000Y-78540000D01*
X157529000Y-83448000D02*
X157529000Y-81980000D01*
X157529000Y-80020000D02*
X157529000Y-78552000D01*
X157489000Y-83436000D02*
X157489000Y-81980000D01*
X157489000Y-80020000D02*
X157489000Y-78564000D01*
X157449000Y-83424000D02*
X157449000Y-81980000D01*
X157449000Y-80020000D02*
X157449000Y-78576000D01*
X157409000Y-83410000D02*
X157409000Y-81980000D01*
X157409000Y-80020000D02*
X157409000Y-78590000D01*
X157369000Y-83396000D02*
X157369000Y-81980000D01*
X157369000Y-80020000D02*
X157369000Y-78604000D01*
X157329000Y-83382000D02*
X157329000Y-81980000D01*
X157329000Y-80020000D02*
X157329000Y-78618000D01*
X157289000Y-83366000D02*
X157289000Y-81980000D01*
X157289000Y-80020000D02*
X157289000Y-78634000D01*
X157249000Y-83350000D02*
X157249000Y-81980000D01*
X157249000Y-80020000D02*
X157249000Y-78650000D01*
X157209000Y-83333000D02*
X157209000Y-81980000D01*
X157209000Y-80020000D02*
X157209000Y-78667000D01*
X157169000Y-83315000D02*
X157169000Y-81980000D01*
X157169000Y-80020000D02*
X157169000Y-78685000D01*
X157129000Y-83296000D02*
X157129000Y-81980000D01*
X157129000Y-80020000D02*
X157129000Y-78704000D01*
X157089000Y-83276000D02*
X157089000Y-81980000D01*
X157089000Y-80020000D02*
X157089000Y-78724000D01*
X157049000Y-83256000D02*
X157049000Y-81980000D01*
X157049000Y-80020000D02*
X157049000Y-78744000D01*
X157009000Y-83234000D02*
X157009000Y-81980000D01*
X157009000Y-80020000D02*
X157009000Y-78766000D01*
X156969000Y-83212000D02*
X156969000Y-81980000D01*
X156969000Y-80020000D02*
X156969000Y-78788000D01*
X156929000Y-83189000D02*
X156929000Y-81980000D01*
X156929000Y-80020000D02*
X156929000Y-78811000D01*
X156889000Y-83165000D02*
X156889000Y-81980000D01*
X156889000Y-80020000D02*
X156889000Y-78835000D01*
X156849000Y-83140000D02*
X156849000Y-81980000D01*
X156849000Y-80020000D02*
X156849000Y-78860000D01*
X156809000Y-83113000D02*
X156809000Y-81980000D01*
X156809000Y-80020000D02*
X156809000Y-78887000D01*
X156769000Y-83086000D02*
X156769000Y-81980000D01*
X156769000Y-80020000D02*
X156769000Y-78914000D01*
X156729000Y-83058000D02*
X156729000Y-81980000D01*
X156729000Y-80020000D02*
X156729000Y-78942000D01*
X156689000Y-83028000D02*
X156689000Y-81980000D01*
X156689000Y-80020000D02*
X156689000Y-78972000D01*
X156649000Y-82997000D02*
X156649000Y-81980000D01*
X156649000Y-80020000D02*
X156649000Y-79003000D01*
X156609000Y-82965000D02*
X156609000Y-81980000D01*
X156609000Y-80020000D02*
X156609000Y-79035000D01*
X156569000Y-82932000D02*
X156569000Y-81980000D01*
X156569000Y-80020000D02*
X156569000Y-79068000D01*
X156529000Y-82897000D02*
X156529000Y-81980000D01*
X156529000Y-80020000D02*
X156529000Y-79103000D01*
X156489000Y-82861000D02*
X156489000Y-81980000D01*
X156489000Y-80020000D02*
X156489000Y-79139000D01*
X156449000Y-82823000D02*
X156449000Y-81980000D01*
X156449000Y-80020000D02*
X156449000Y-79177000D01*
X156409000Y-82783000D02*
X156409000Y-81980000D01*
X156409000Y-80020000D02*
X156409000Y-79217000D01*
X156369000Y-82742000D02*
X156369000Y-81980000D01*
X156369000Y-80020000D02*
X156369000Y-79258000D01*
X156329000Y-82699000D02*
X156329000Y-81980000D01*
X156329000Y-80020000D02*
X156329000Y-79301000D01*
X156289000Y-82654000D02*
X156289000Y-81980000D01*
X156289000Y-80020000D02*
X156289000Y-79346000D01*
X156249000Y-82606000D02*
X156249000Y-81980000D01*
X156249000Y-80020000D02*
X156249000Y-79394000D01*
X156209000Y-82556000D02*
X156209000Y-81980000D01*
X156209000Y-80020000D02*
X156209000Y-79444000D01*
X156169000Y-82504000D02*
X156169000Y-81980000D01*
X156169000Y-80020000D02*
X156169000Y-79496000D01*
X156129000Y-82448000D02*
X156129000Y-81980000D01*
X156129000Y-80020000D02*
X156129000Y-79552000D01*
X156089000Y-82390000D02*
X156089000Y-81980000D01*
X156089000Y-80020000D02*
X156089000Y-79610000D01*
X156049000Y-82327000D02*
X156049000Y-81980000D01*
X156049000Y-80020000D02*
X156049000Y-79673000D01*
X156009000Y-82261000D02*
X156009000Y-79739000D01*
X155969000Y-82189000D02*
X155969000Y-79811000D01*
X155929000Y-82112000D02*
X155929000Y-79888000D01*
X155889000Y-82028000D02*
X155889000Y-79972000D01*
X155849000Y-81934000D02*
X155849000Y-80066000D01*
X155809000Y-81829000D02*
X155809000Y-80171000D01*
X155769000Y-81707000D02*
X155769000Y-80293000D01*
X155729000Y-81559000D02*
X155729000Y-80441000D01*
X155689000Y-81354000D02*
X155689000Y-80646000D01*
X161700000Y-81000000D02*
X160500000Y-81000000D01*
X161100000Y-81650000D02*
X161100000Y-80350000D01*
G04 #@! TO.C,C7*
X138850000Y-76100000D02*
X140150000Y-76100000D01*
X139500000Y-76700000D02*
X139500000Y-75500000D01*
X139146000Y-70689000D02*
X139854000Y-70689000D01*
X138941000Y-70729000D02*
X140059000Y-70729000D01*
X138793000Y-70769000D02*
X140207000Y-70769000D01*
X138671000Y-70809000D02*
X140329000Y-70809000D01*
X138566000Y-70849000D02*
X140434000Y-70849000D01*
X138472000Y-70889000D02*
X140528000Y-70889000D01*
X138388000Y-70929000D02*
X140612000Y-70929000D01*
X138311000Y-70969000D02*
X140689000Y-70969000D01*
X138239000Y-71009000D02*
X140761000Y-71009000D01*
X140480000Y-71049000D02*
X140827000Y-71049000D01*
X138173000Y-71049000D02*
X138520000Y-71049000D01*
X140480000Y-71089000D02*
X140890000Y-71089000D01*
X138110000Y-71089000D02*
X138520000Y-71089000D01*
X140480000Y-71129000D02*
X140948000Y-71129000D01*
X138052000Y-71129000D02*
X138520000Y-71129000D01*
X140480000Y-71169000D02*
X141004000Y-71169000D01*
X137996000Y-71169000D02*
X138520000Y-71169000D01*
X140480000Y-71209000D02*
X141056000Y-71209000D01*
X137944000Y-71209000D02*
X138520000Y-71209000D01*
X140480000Y-71249000D02*
X141106000Y-71249000D01*
X137894000Y-71249000D02*
X138520000Y-71249000D01*
X140480000Y-71289000D02*
X141154000Y-71289000D01*
X137846000Y-71289000D02*
X138520000Y-71289000D01*
X140480000Y-71329000D02*
X141199000Y-71329000D01*
X137801000Y-71329000D02*
X138520000Y-71329000D01*
X140480000Y-71369000D02*
X141242000Y-71369000D01*
X137758000Y-71369000D02*
X138520000Y-71369000D01*
X140480000Y-71409000D02*
X141283000Y-71409000D01*
X137717000Y-71409000D02*
X138520000Y-71409000D01*
X140480000Y-71449000D02*
X141323000Y-71449000D01*
X137677000Y-71449000D02*
X138520000Y-71449000D01*
X140480000Y-71489000D02*
X141361000Y-71489000D01*
X137639000Y-71489000D02*
X138520000Y-71489000D01*
X140480000Y-71529000D02*
X141397000Y-71529000D01*
X137603000Y-71529000D02*
X138520000Y-71529000D01*
X140480000Y-71569000D02*
X141432000Y-71569000D01*
X137568000Y-71569000D02*
X138520000Y-71569000D01*
X140480000Y-71609000D02*
X141465000Y-71609000D01*
X137535000Y-71609000D02*
X138520000Y-71609000D01*
X140480000Y-71649000D02*
X141497000Y-71649000D01*
X137503000Y-71649000D02*
X138520000Y-71649000D01*
X140480000Y-71689000D02*
X141528000Y-71689000D01*
X137472000Y-71689000D02*
X138520000Y-71689000D01*
X140480000Y-71729000D02*
X141558000Y-71729000D01*
X137442000Y-71729000D02*
X138520000Y-71729000D01*
X140480000Y-71769000D02*
X141586000Y-71769000D01*
X137414000Y-71769000D02*
X138520000Y-71769000D01*
X140480000Y-71809000D02*
X141613000Y-71809000D01*
X137387000Y-71809000D02*
X138520000Y-71809000D01*
X140480000Y-71849000D02*
X141640000Y-71849000D01*
X137360000Y-71849000D02*
X138520000Y-71849000D01*
X140480000Y-71889000D02*
X141665000Y-71889000D01*
X137335000Y-71889000D02*
X138520000Y-71889000D01*
X140480000Y-71929000D02*
X141689000Y-71929000D01*
X137311000Y-71929000D02*
X138520000Y-71929000D01*
X140480000Y-71969000D02*
X141712000Y-71969000D01*
X137288000Y-71969000D02*
X138520000Y-71969000D01*
X140480000Y-72009000D02*
X141734000Y-72009000D01*
X137266000Y-72009000D02*
X138520000Y-72009000D01*
X140480000Y-72049000D02*
X141756000Y-72049000D01*
X137244000Y-72049000D02*
X138520000Y-72049000D01*
X140480000Y-72089000D02*
X141776000Y-72089000D01*
X137224000Y-72089000D02*
X138520000Y-72089000D01*
X140480000Y-72129000D02*
X141796000Y-72129000D01*
X137204000Y-72129000D02*
X138520000Y-72129000D01*
X140480000Y-72169000D02*
X141815000Y-72169000D01*
X137185000Y-72169000D02*
X138520000Y-72169000D01*
X140480000Y-72209000D02*
X141833000Y-72209000D01*
X137167000Y-72209000D02*
X138520000Y-72209000D01*
X140480000Y-72249000D02*
X141850000Y-72249000D01*
X137150000Y-72249000D02*
X138520000Y-72249000D01*
X140480000Y-72289000D02*
X141866000Y-72289000D01*
X137134000Y-72289000D02*
X138520000Y-72289000D01*
X140480000Y-72329000D02*
X141882000Y-72329000D01*
X137118000Y-72329000D02*
X138520000Y-72329000D01*
X140480000Y-72369000D02*
X141896000Y-72369000D01*
X137104000Y-72369000D02*
X138520000Y-72369000D01*
X140480000Y-72409000D02*
X141910000Y-72409000D01*
X137090000Y-72409000D02*
X138520000Y-72409000D01*
X140480000Y-72449000D02*
X141924000Y-72449000D01*
X137076000Y-72449000D02*
X138520000Y-72449000D01*
X140480000Y-72489000D02*
X141936000Y-72489000D01*
X137064000Y-72489000D02*
X138520000Y-72489000D01*
X140480000Y-72529000D02*
X141948000Y-72529000D01*
X137052000Y-72529000D02*
X138520000Y-72529000D01*
X140480000Y-72570000D02*
X141960000Y-72570000D01*
X137040000Y-72570000D02*
X138520000Y-72570000D01*
X140480000Y-72610000D02*
X141970000Y-72610000D01*
X137030000Y-72610000D02*
X138520000Y-72610000D01*
X140480000Y-72650000D02*
X141980000Y-72650000D01*
X137020000Y-72650000D02*
X138520000Y-72650000D01*
X140480000Y-72690000D02*
X141989000Y-72690000D01*
X137011000Y-72690000D02*
X138520000Y-72690000D01*
X140480000Y-72730000D02*
X141998000Y-72730000D01*
X137002000Y-72730000D02*
X138520000Y-72730000D01*
X140480000Y-72770000D02*
X142006000Y-72770000D01*
X136994000Y-72770000D02*
X138520000Y-72770000D01*
X140480000Y-72810000D02*
X142013000Y-72810000D01*
X136987000Y-72810000D02*
X138520000Y-72810000D01*
X140480000Y-72850000D02*
X142019000Y-72850000D01*
X136981000Y-72850000D02*
X138520000Y-72850000D01*
X140480000Y-72890000D02*
X142025000Y-72890000D01*
X136975000Y-72890000D02*
X138520000Y-72890000D01*
X140480000Y-72930000D02*
X142031000Y-72930000D01*
X136969000Y-72930000D02*
X138520000Y-72930000D01*
X140480000Y-72970000D02*
X142035000Y-72970000D01*
X136965000Y-72970000D02*
X138520000Y-72970000D01*
X136961000Y-73010000D02*
X142039000Y-73010000D01*
X136957000Y-73050000D02*
X142043000Y-73050000D01*
X136954000Y-73090000D02*
X142046000Y-73090000D01*
X136952000Y-73130000D02*
X142048000Y-73130000D01*
X136951000Y-73170000D02*
X142049000Y-73170000D01*
X136950000Y-73210000D02*
X142050000Y-73210000D01*
X136950000Y-73250000D02*
X142050000Y-73250000D01*
X140679723Y-70944278D02*
G75*
G03X138320000Y-70944420I-1179723J-2305722D01*
G01*
X140679723Y-70944278D02*
G75*
G02X140680000Y-75555580I-1179723J-2305722D01*
G01*
X138320277Y-70944278D02*
G75*
G03X138320000Y-75555580I1179723J-2305722D01*
G01*
G04 #@! TO.C,C8*
X144320277Y-70944278D02*
G75*
G03X144320000Y-75555580I1179723J-2305722D01*
G01*
X146679723Y-70944278D02*
G75*
G02X146680000Y-75555580I-1179723J-2305722D01*
G01*
X146679723Y-70944278D02*
G75*
G03X144320000Y-70944420I-1179723J-2305722D01*
G01*
X142950000Y-73250000D02*
X148050000Y-73250000D01*
X142950000Y-73210000D02*
X148050000Y-73210000D01*
X142951000Y-73170000D02*
X148049000Y-73170000D01*
X142952000Y-73130000D02*
X148048000Y-73130000D01*
X142954000Y-73090000D02*
X148046000Y-73090000D01*
X142957000Y-73050000D02*
X148043000Y-73050000D01*
X142961000Y-73010000D02*
X148039000Y-73010000D01*
X142965000Y-72970000D02*
X144520000Y-72970000D01*
X146480000Y-72970000D02*
X148035000Y-72970000D01*
X142969000Y-72930000D02*
X144520000Y-72930000D01*
X146480000Y-72930000D02*
X148031000Y-72930000D01*
X142975000Y-72890000D02*
X144520000Y-72890000D01*
X146480000Y-72890000D02*
X148025000Y-72890000D01*
X142981000Y-72850000D02*
X144520000Y-72850000D01*
X146480000Y-72850000D02*
X148019000Y-72850000D01*
X142987000Y-72810000D02*
X144520000Y-72810000D01*
X146480000Y-72810000D02*
X148013000Y-72810000D01*
X142994000Y-72770000D02*
X144520000Y-72770000D01*
X146480000Y-72770000D02*
X148006000Y-72770000D01*
X143002000Y-72730000D02*
X144520000Y-72730000D01*
X146480000Y-72730000D02*
X147998000Y-72730000D01*
X143011000Y-72690000D02*
X144520000Y-72690000D01*
X146480000Y-72690000D02*
X147989000Y-72690000D01*
X143020000Y-72650000D02*
X144520000Y-72650000D01*
X146480000Y-72650000D02*
X147980000Y-72650000D01*
X143030000Y-72610000D02*
X144520000Y-72610000D01*
X146480000Y-72610000D02*
X147970000Y-72610000D01*
X143040000Y-72570000D02*
X144520000Y-72570000D01*
X146480000Y-72570000D02*
X147960000Y-72570000D01*
X143052000Y-72529000D02*
X144520000Y-72529000D01*
X146480000Y-72529000D02*
X147948000Y-72529000D01*
X143064000Y-72489000D02*
X144520000Y-72489000D01*
X146480000Y-72489000D02*
X147936000Y-72489000D01*
X143076000Y-72449000D02*
X144520000Y-72449000D01*
X146480000Y-72449000D02*
X147924000Y-72449000D01*
X143090000Y-72409000D02*
X144520000Y-72409000D01*
X146480000Y-72409000D02*
X147910000Y-72409000D01*
X143104000Y-72369000D02*
X144520000Y-72369000D01*
X146480000Y-72369000D02*
X147896000Y-72369000D01*
X143118000Y-72329000D02*
X144520000Y-72329000D01*
X146480000Y-72329000D02*
X147882000Y-72329000D01*
X143134000Y-72289000D02*
X144520000Y-72289000D01*
X146480000Y-72289000D02*
X147866000Y-72289000D01*
X143150000Y-72249000D02*
X144520000Y-72249000D01*
X146480000Y-72249000D02*
X147850000Y-72249000D01*
X143167000Y-72209000D02*
X144520000Y-72209000D01*
X146480000Y-72209000D02*
X147833000Y-72209000D01*
X143185000Y-72169000D02*
X144520000Y-72169000D01*
X146480000Y-72169000D02*
X147815000Y-72169000D01*
X143204000Y-72129000D02*
X144520000Y-72129000D01*
X146480000Y-72129000D02*
X147796000Y-72129000D01*
X143224000Y-72089000D02*
X144520000Y-72089000D01*
X146480000Y-72089000D02*
X147776000Y-72089000D01*
X143244000Y-72049000D02*
X144520000Y-72049000D01*
X146480000Y-72049000D02*
X147756000Y-72049000D01*
X143266000Y-72009000D02*
X144520000Y-72009000D01*
X146480000Y-72009000D02*
X147734000Y-72009000D01*
X143288000Y-71969000D02*
X144520000Y-71969000D01*
X146480000Y-71969000D02*
X147712000Y-71969000D01*
X143311000Y-71929000D02*
X144520000Y-71929000D01*
X146480000Y-71929000D02*
X147689000Y-71929000D01*
X143335000Y-71889000D02*
X144520000Y-71889000D01*
X146480000Y-71889000D02*
X147665000Y-71889000D01*
X143360000Y-71849000D02*
X144520000Y-71849000D01*
X146480000Y-71849000D02*
X147640000Y-71849000D01*
X143387000Y-71809000D02*
X144520000Y-71809000D01*
X146480000Y-71809000D02*
X147613000Y-71809000D01*
X143414000Y-71769000D02*
X144520000Y-71769000D01*
X146480000Y-71769000D02*
X147586000Y-71769000D01*
X143442000Y-71729000D02*
X144520000Y-71729000D01*
X146480000Y-71729000D02*
X147558000Y-71729000D01*
X143472000Y-71689000D02*
X144520000Y-71689000D01*
X146480000Y-71689000D02*
X147528000Y-71689000D01*
X143503000Y-71649000D02*
X144520000Y-71649000D01*
X146480000Y-71649000D02*
X147497000Y-71649000D01*
X143535000Y-71609000D02*
X144520000Y-71609000D01*
X146480000Y-71609000D02*
X147465000Y-71609000D01*
X143568000Y-71569000D02*
X144520000Y-71569000D01*
X146480000Y-71569000D02*
X147432000Y-71569000D01*
X143603000Y-71529000D02*
X144520000Y-71529000D01*
X146480000Y-71529000D02*
X147397000Y-71529000D01*
X143639000Y-71489000D02*
X144520000Y-71489000D01*
X146480000Y-71489000D02*
X147361000Y-71489000D01*
X143677000Y-71449000D02*
X144520000Y-71449000D01*
X146480000Y-71449000D02*
X147323000Y-71449000D01*
X143717000Y-71409000D02*
X144520000Y-71409000D01*
X146480000Y-71409000D02*
X147283000Y-71409000D01*
X143758000Y-71369000D02*
X144520000Y-71369000D01*
X146480000Y-71369000D02*
X147242000Y-71369000D01*
X143801000Y-71329000D02*
X144520000Y-71329000D01*
X146480000Y-71329000D02*
X147199000Y-71329000D01*
X143846000Y-71289000D02*
X144520000Y-71289000D01*
X146480000Y-71289000D02*
X147154000Y-71289000D01*
X143894000Y-71249000D02*
X144520000Y-71249000D01*
X146480000Y-71249000D02*
X147106000Y-71249000D01*
X143944000Y-71209000D02*
X144520000Y-71209000D01*
X146480000Y-71209000D02*
X147056000Y-71209000D01*
X143996000Y-71169000D02*
X144520000Y-71169000D01*
X146480000Y-71169000D02*
X147004000Y-71169000D01*
X144052000Y-71129000D02*
X144520000Y-71129000D01*
X146480000Y-71129000D02*
X146948000Y-71129000D01*
X144110000Y-71089000D02*
X144520000Y-71089000D01*
X146480000Y-71089000D02*
X146890000Y-71089000D01*
X144173000Y-71049000D02*
X144520000Y-71049000D01*
X146480000Y-71049000D02*
X146827000Y-71049000D01*
X144239000Y-71009000D02*
X146761000Y-71009000D01*
X144311000Y-70969000D02*
X146689000Y-70969000D01*
X144388000Y-70929000D02*
X146612000Y-70929000D01*
X144472000Y-70889000D02*
X146528000Y-70889000D01*
X144566000Y-70849000D02*
X146434000Y-70849000D01*
X144671000Y-70809000D02*
X146329000Y-70809000D01*
X144793000Y-70769000D02*
X146207000Y-70769000D01*
X144941000Y-70729000D02*
X146059000Y-70729000D01*
X145146000Y-70689000D02*
X145854000Y-70689000D01*
X145500000Y-76700000D02*
X145500000Y-75500000D01*
X144850000Y-76100000D02*
X146150000Y-76100000D01*
G04 #@! TO.C,C9*
X132850000Y-76100000D02*
X134150000Y-76100000D01*
X133500000Y-76700000D02*
X133500000Y-75500000D01*
X133146000Y-70689000D02*
X133854000Y-70689000D01*
X132941000Y-70729000D02*
X134059000Y-70729000D01*
X132793000Y-70769000D02*
X134207000Y-70769000D01*
X132671000Y-70809000D02*
X134329000Y-70809000D01*
X132566000Y-70849000D02*
X134434000Y-70849000D01*
X132472000Y-70889000D02*
X134528000Y-70889000D01*
X132388000Y-70929000D02*
X134612000Y-70929000D01*
X132311000Y-70969000D02*
X134689000Y-70969000D01*
X132239000Y-71009000D02*
X134761000Y-71009000D01*
X134480000Y-71049000D02*
X134827000Y-71049000D01*
X132173000Y-71049000D02*
X132520000Y-71049000D01*
X134480000Y-71089000D02*
X134890000Y-71089000D01*
X132110000Y-71089000D02*
X132520000Y-71089000D01*
X134480000Y-71129000D02*
X134948000Y-71129000D01*
X132052000Y-71129000D02*
X132520000Y-71129000D01*
X134480000Y-71169000D02*
X135004000Y-71169000D01*
X131996000Y-71169000D02*
X132520000Y-71169000D01*
X134480000Y-71209000D02*
X135056000Y-71209000D01*
X131944000Y-71209000D02*
X132520000Y-71209000D01*
X134480000Y-71249000D02*
X135106000Y-71249000D01*
X131894000Y-71249000D02*
X132520000Y-71249000D01*
X134480000Y-71289000D02*
X135154000Y-71289000D01*
X131846000Y-71289000D02*
X132520000Y-71289000D01*
X134480000Y-71329000D02*
X135199000Y-71329000D01*
X131801000Y-71329000D02*
X132520000Y-71329000D01*
X134480000Y-71369000D02*
X135242000Y-71369000D01*
X131758000Y-71369000D02*
X132520000Y-71369000D01*
X134480000Y-71409000D02*
X135283000Y-71409000D01*
X131717000Y-71409000D02*
X132520000Y-71409000D01*
X134480000Y-71449000D02*
X135323000Y-71449000D01*
X131677000Y-71449000D02*
X132520000Y-71449000D01*
X134480000Y-71489000D02*
X135361000Y-71489000D01*
X131639000Y-71489000D02*
X132520000Y-71489000D01*
X134480000Y-71529000D02*
X135397000Y-71529000D01*
X131603000Y-71529000D02*
X132520000Y-71529000D01*
X134480000Y-71569000D02*
X135432000Y-71569000D01*
X131568000Y-71569000D02*
X132520000Y-71569000D01*
X134480000Y-71609000D02*
X135465000Y-71609000D01*
X131535000Y-71609000D02*
X132520000Y-71609000D01*
X134480000Y-71649000D02*
X135497000Y-71649000D01*
X131503000Y-71649000D02*
X132520000Y-71649000D01*
X134480000Y-71689000D02*
X135528000Y-71689000D01*
X131472000Y-71689000D02*
X132520000Y-71689000D01*
X134480000Y-71729000D02*
X135558000Y-71729000D01*
X131442000Y-71729000D02*
X132520000Y-71729000D01*
X134480000Y-71769000D02*
X135586000Y-71769000D01*
X131414000Y-71769000D02*
X132520000Y-71769000D01*
X134480000Y-71809000D02*
X135613000Y-71809000D01*
X131387000Y-71809000D02*
X132520000Y-71809000D01*
X134480000Y-71849000D02*
X135640000Y-71849000D01*
X131360000Y-71849000D02*
X132520000Y-71849000D01*
X134480000Y-71889000D02*
X135665000Y-71889000D01*
X131335000Y-71889000D02*
X132520000Y-71889000D01*
X134480000Y-71929000D02*
X135689000Y-71929000D01*
X131311000Y-71929000D02*
X132520000Y-71929000D01*
X134480000Y-71969000D02*
X135712000Y-71969000D01*
X131288000Y-71969000D02*
X132520000Y-71969000D01*
X134480000Y-72009000D02*
X135734000Y-72009000D01*
X131266000Y-72009000D02*
X132520000Y-72009000D01*
X134480000Y-72049000D02*
X135756000Y-72049000D01*
X131244000Y-72049000D02*
X132520000Y-72049000D01*
X134480000Y-72089000D02*
X135776000Y-72089000D01*
X131224000Y-72089000D02*
X132520000Y-72089000D01*
X134480000Y-72129000D02*
X135796000Y-72129000D01*
X131204000Y-72129000D02*
X132520000Y-72129000D01*
X134480000Y-72169000D02*
X135815000Y-72169000D01*
X131185000Y-72169000D02*
X132520000Y-72169000D01*
X134480000Y-72209000D02*
X135833000Y-72209000D01*
X131167000Y-72209000D02*
X132520000Y-72209000D01*
X134480000Y-72249000D02*
X135850000Y-72249000D01*
X131150000Y-72249000D02*
X132520000Y-72249000D01*
X134480000Y-72289000D02*
X135866000Y-72289000D01*
X131134000Y-72289000D02*
X132520000Y-72289000D01*
X134480000Y-72329000D02*
X135882000Y-72329000D01*
X131118000Y-72329000D02*
X132520000Y-72329000D01*
X134480000Y-72369000D02*
X135896000Y-72369000D01*
X131104000Y-72369000D02*
X132520000Y-72369000D01*
X134480000Y-72409000D02*
X135910000Y-72409000D01*
X131090000Y-72409000D02*
X132520000Y-72409000D01*
X134480000Y-72449000D02*
X135924000Y-72449000D01*
X131076000Y-72449000D02*
X132520000Y-72449000D01*
X134480000Y-72489000D02*
X135936000Y-72489000D01*
X131064000Y-72489000D02*
X132520000Y-72489000D01*
X134480000Y-72529000D02*
X135948000Y-72529000D01*
X131052000Y-72529000D02*
X132520000Y-72529000D01*
X134480000Y-72570000D02*
X135960000Y-72570000D01*
X131040000Y-72570000D02*
X132520000Y-72570000D01*
X134480000Y-72610000D02*
X135970000Y-72610000D01*
X131030000Y-72610000D02*
X132520000Y-72610000D01*
X134480000Y-72650000D02*
X135980000Y-72650000D01*
X131020000Y-72650000D02*
X132520000Y-72650000D01*
X134480000Y-72690000D02*
X135989000Y-72690000D01*
X131011000Y-72690000D02*
X132520000Y-72690000D01*
X134480000Y-72730000D02*
X135998000Y-72730000D01*
X131002000Y-72730000D02*
X132520000Y-72730000D01*
X134480000Y-72770000D02*
X136006000Y-72770000D01*
X130994000Y-72770000D02*
X132520000Y-72770000D01*
X134480000Y-72810000D02*
X136013000Y-72810000D01*
X130987000Y-72810000D02*
X132520000Y-72810000D01*
X134480000Y-72850000D02*
X136019000Y-72850000D01*
X130981000Y-72850000D02*
X132520000Y-72850000D01*
X134480000Y-72890000D02*
X136025000Y-72890000D01*
X130975000Y-72890000D02*
X132520000Y-72890000D01*
X134480000Y-72930000D02*
X136031000Y-72930000D01*
X130969000Y-72930000D02*
X132520000Y-72930000D01*
X134480000Y-72970000D02*
X136035000Y-72970000D01*
X130965000Y-72970000D02*
X132520000Y-72970000D01*
X130961000Y-73010000D02*
X136039000Y-73010000D01*
X130957000Y-73050000D02*
X136043000Y-73050000D01*
X130954000Y-73090000D02*
X136046000Y-73090000D01*
X130952000Y-73130000D02*
X136048000Y-73130000D01*
X130951000Y-73170000D02*
X136049000Y-73170000D01*
X130950000Y-73210000D02*
X136050000Y-73210000D01*
X130950000Y-73250000D02*
X136050000Y-73250000D01*
X134679723Y-70944278D02*
G75*
G03X132320000Y-70944420I-1179723J-2305722D01*
G01*
X134679723Y-70944278D02*
G75*
G02X134680000Y-75555580I-1179723J-2305722D01*
G01*
X132320277Y-70944278D02*
G75*
G03X132320000Y-75555580I1179723J-2305722D01*
G01*
D13*
G04 #@! TO.C,J1*
X144150000Y-76950000D02*
X144150000Y-85050000D01*
X128650000Y-79500000D02*
X128650000Y-82500000D01*
X144150000Y-85050000D02*
X131150000Y-85050000D01*
X144150000Y-76950000D02*
X131150000Y-76950000D01*
X131150000Y-76950000D02*
X128650000Y-79500000D01*
X128650000Y-82500000D02*
X131150000Y-85050000D01*
D12*
G04 #@! TO.C,J2*
X185150000Y-87250000D02*
X185150000Y-89750000D01*
X187650000Y-87250000D02*
X185150000Y-87250000D01*
X202300000Y-92750000D02*
X194250000Y-92750000D01*
X202300000Y-89800000D02*
X202300000Y-92750000D01*
X203050000Y-89800000D02*
X202300000Y-89800000D01*
X186200000Y-92750000D02*
X194250000Y-92750000D01*
X186200000Y-89800000D02*
X186200000Y-92750000D01*
X185450000Y-89800000D02*
X186200000Y-89800000D01*
X203050000Y-87550000D02*
X201250000Y-87550000D01*
X203050000Y-88300000D02*
X203050000Y-87550000D01*
X201250000Y-88300000D02*
X203050000Y-88300000D01*
X201250000Y-87550000D02*
X201250000Y-88300000D01*
X187250000Y-87550000D02*
X185450000Y-87550000D01*
X187250000Y-88300000D02*
X187250000Y-87550000D01*
X185450000Y-88300000D02*
X187250000Y-88300000D01*
X185450000Y-87550000D02*
X185450000Y-88300000D01*
X199750000Y-87550000D02*
X188750000Y-87550000D01*
X199750000Y-88300000D02*
X199750000Y-87550000D01*
X188750000Y-88300000D02*
X199750000Y-88300000D01*
X188750000Y-87550000D02*
X188750000Y-88300000D01*
X203050000Y-87550000D02*
X185450000Y-87550000D01*
X203050000Y-93500000D02*
X203050000Y-87550000D01*
X185450000Y-93500000D02*
X203050000Y-93500000D01*
X185450000Y-87550000D02*
X185450000Y-93500000D01*
G04 #@! TO.C,J3*
X170150000Y-87250000D02*
X170150000Y-89750000D01*
X172650000Y-87250000D02*
X170150000Y-87250000D01*
X182300000Y-92750000D02*
X176750000Y-92750000D01*
X182300000Y-89800000D02*
X182300000Y-92750000D01*
X183050000Y-89800000D02*
X182300000Y-89800000D01*
X171200000Y-92750000D02*
X176750000Y-92750000D01*
X171200000Y-89800000D02*
X171200000Y-92750000D01*
X170450000Y-89800000D02*
X171200000Y-89800000D01*
X183050000Y-87550000D02*
X181250000Y-87550000D01*
X183050000Y-88300000D02*
X183050000Y-87550000D01*
X181250000Y-88300000D02*
X183050000Y-88300000D01*
X181250000Y-87550000D02*
X181250000Y-88300000D01*
X172250000Y-87550000D02*
X170450000Y-87550000D01*
X172250000Y-88300000D02*
X172250000Y-87550000D01*
X170450000Y-88300000D02*
X172250000Y-88300000D01*
X170450000Y-87550000D02*
X170450000Y-88300000D01*
X179750000Y-87550000D02*
X173750000Y-87550000D01*
X179750000Y-88300000D02*
X179750000Y-87550000D01*
X173750000Y-88300000D02*
X179750000Y-88300000D01*
X173750000Y-87550000D02*
X173750000Y-88300000D01*
X183050000Y-87550000D02*
X170450000Y-87550000D01*
X183050000Y-93500000D02*
X183050000Y-87550000D01*
X170450000Y-93500000D02*
X183050000Y-93500000D01*
X170450000Y-87550000D02*
X170450000Y-93500000D01*
G04 #@! TO.C,J4*
X143460000Y-93810000D02*
X153620000Y-93810000D01*
X143460000Y-86190000D02*
X143460000Y-93810000D01*
X153620000Y-86190000D02*
X143460000Y-86190000D01*
X153620000Y-93810000D02*
X153620000Y-86190000D01*
X153620000Y-92540000D02*
X143460000Y-92540000D01*
G04 #@! TO.C,J5*
X142620000Y-92540000D02*
X132460000Y-92540000D01*
X142620000Y-93810000D02*
X142620000Y-86190000D01*
X142620000Y-86190000D02*
X132460000Y-86190000D01*
X132460000Y-86190000D02*
X132460000Y-93810000D01*
X132460000Y-93810000D02*
X142620000Y-93810000D01*
G04 #@! TO.C,J6*
X163670000Y-84590000D02*
X165000000Y-84590000D01*
X163670000Y-85920000D02*
X163670000Y-84590000D01*
X166270000Y-84590000D02*
X168870000Y-84590000D01*
X166270000Y-87190000D02*
X166270000Y-84590000D01*
X163670000Y-87190000D02*
X166270000Y-87190000D01*
X168870000Y-84590000D02*
X168870000Y-92330000D01*
X163670000Y-87190000D02*
X163670000Y-92330000D01*
X163670000Y-92330000D02*
X168870000Y-92330000D01*
G04 #@! TO.C,Q1*
X154380000Y-94120000D02*
X154380000Y-83880000D01*
X159021000Y-94120000D02*
X159021000Y-83880000D01*
X154380000Y-94120000D02*
X159021000Y-94120000D01*
X154380000Y-83880000D02*
X159021000Y-83880000D01*
X155890000Y-94120000D02*
X155890000Y-83880000D01*
X154380000Y-90850000D02*
X155890000Y-90850000D01*
X154380000Y-87149000D02*
X155890000Y-87149000D01*
G04 #@! TO.C,Q2*
X124880000Y-87109000D02*
X126390000Y-87109000D01*
X124880000Y-90810000D02*
X126390000Y-90810000D01*
X126390000Y-94080000D02*
X126390000Y-83840000D01*
X124880000Y-83840000D02*
X129521000Y-83840000D01*
X124880000Y-94080000D02*
X129521000Y-94080000D01*
X129521000Y-94080000D02*
X129521000Y-83840000D01*
X124880000Y-94080000D02*
X124880000Y-83840000D01*
G04 #@! TO.C,R1*
X161000000Y-90190000D02*
X161000000Y-90060000D01*
X162310000Y-91500000D02*
G75*
G03X162310000Y-91500000I-1310000J0D01*
G01*
G04 #@! TO.C,R2*
X127810000Y-81040000D02*
G75*
G03X127810000Y-81040000I-1310000J0D01*
G01*
X126500000Y-79730000D02*
X126500000Y-79600000D01*
G04 #@! TO.C,R3*
X201310000Y-72000000D02*
G75*
G03X201310000Y-72000000I-1310000J0D01*
G01*
X201310000Y-72000000D02*
X201440000Y-72000000D01*
G04 #@! TO.C,R4*
X190310000Y-85500000D02*
X190440000Y-85500000D01*
X190310000Y-85500000D02*
G75*
G03X190310000Y-85500000I-1310000J0D01*
G01*
G04 #@! TO.C,R5*
X195810000Y-85500000D02*
G75*
G03X195810000Y-85500000I-1310000J0D01*
G01*
X195810000Y-85500000D02*
X195940000Y-85500000D01*
G04 #@! TO.C,R6*
X201310000Y-85500000D02*
X201440000Y-85500000D01*
X201310000Y-85500000D02*
G75*
G03X201310000Y-85500000I-1310000J0D01*
G01*
G04 #@! TO.C,R7*
X174310000Y-85500000D02*
G75*
G03X174310000Y-85500000I-1310000J0D01*
G01*
X174310000Y-85500000D02*
X174440000Y-85500000D01*
G04 #@! TO.C,R8*
X179810000Y-85500000D02*
X179940000Y-85500000D01*
X179810000Y-85500000D02*
G75*
G03X179810000Y-85500000I-1310000J0D01*
G01*
G04 #@! TO.C,U1*
X151891000Y-78380000D02*
X151891000Y-79890000D01*
X148190000Y-78380000D02*
X148190000Y-79890000D01*
X144920000Y-79890000D02*
X155160000Y-79890000D01*
X155160000Y-78380000D02*
X155160000Y-83021000D01*
X144920000Y-78380000D02*
X144920000Y-83021000D01*
X144920000Y-83021000D02*
X155160000Y-83021000D01*
X144920000Y-78380000D02*
X155160000Y-78380000D01*
G04 #@! TO.C,U2*
X203330000Y-81460000D02*
X203330000Y-79810000D01*
X167650000Y-81460000D02*
X203330000Y-81460000D01*
X167650000Y-76160000D02*
X167650000Y-81460000D01*
X203330000Y-76160000D02*
X167650000Y-76160000D01*
X203330000Y-77810000D02*
X203330000Y-76160000D01*
X203330000Y-79810000D02*
G75*
G02X203330000Y-77810000I0J1000000D01*
G01*
G04 #@! TO.C,Y1*
X161475000Y-80565000D02*
G75*
G03X166525000Y-80565000I2525000J0D01*
G01*
X161475000Y-74315000D02*
G75*
G02X166525000Y-74315000I2525000J0D01*
G01*
X161475000Y-74315000D02*
X161475000Y-80565000D01*
X166525000Y-74315000D02*
X166525000Y-80565000D01*
G04 #@! TO.C,D1*
X208210000Y-80330000D02*
X208210000Y-80486000D01*
X208210000Y-78014000D02*
X208210000Y-78170000D01*
X210811130Y-80329837D02*
G75*
G02X208729039Y-80330000I-1041130J1079837D01*
G01*
X210811130Y-78170163D02*
G75*
G03X208729039Y-78170000I-1041130J-1079837D01*
G01*
X211442335Y-80328608D02*
G75*
G02X208210000Y-80485516I-1672335J1078608D01*
G01*
X211442335Y-78171392D02*
G75*
G03X208210000Y-78014484I-1672335J-1078608D01*
G01*
G04 #@! TO.C,D2*
X207942335Y-81171392D02*
G75*
G03X204710000Y-81014484I-1672335J-1078608D01*
G01*
X207942335Y-83328608D02*
G75*
G02X204710000Y-83485516I-1672335J1078608D01*
G01*
X207311130Y-81170163D02*
G75*
G03X205229039Y-81170000I-1041130J-1079837D01*
G01*
X207311130Y-83329837D02*
G75*
G02X205229039Y-83330000I-1041130J1079837D01*
G01*
X204710000Y-81014000D02*
X204710000Y-81170000D01*
X204710000Y-83330000D02*
X204710000Y-83486000D01*
G04 #@! TO.C,D3*
X207960000Y-86580000D02*
X207960000Y-86736000D01*
X207960000Y-84264000D02*
X207960000Y-84420000D01*
X210561130Y-86579837D02*
G75*
G02X208479039Y-86580000I-1041130J1079837D01*
G01*
X210561130Y-84420163D02*
G75*
G03X208479039Y-84420000I-1041130J-1079837D01*
G01*
X211192335Y-86578608D02*
G75*
G02X207960000Y-86735516I-1672335J1078608D01*
G01*
X211192335Y-84421392D02*
G75*
G03X207960000Y-84264484I-1672335J-1078608D01*
G01*
G04 #@! TO.C,R9*
X211810000Y-72000000D02*
G75*
G03X211810000Y-72000000I-1310000J0D01*
G01*
X209190000Y-72000000D02*
X209060000Y-72000000D01*
G04 #@! TO.C,R10*
X204500000Y-77480000D02*
X204500000Y-77350000D01*
X205810000Y-78790000D02*
G75*
G03X205810000Y-78790000I-1310000J0D01*
G01*
G04 #@! TO.C,R11*
X210750000Y-92060000D02*
X210750000Y-92190000D01*
X212060000Y-90750000D02*
G75*
G03X212060000Y-90750000I-1310000J0D01*
G01*
G04 #@! TO.C,REF\002A\002A*
D13*
X206166666Y-62452380D02*
X205833333Y-61976190D01*
X205595238Y-62452380D02*
X205595238Y-61452380D01*
X205976190Y-61452380D01*
X206071428Y-61500000D01*
X206119047Y-61547619D01*
X206166666Y-61642857D01*
X206166666Y-61785714D01*
X206119047Y-61880952D01*
X206071428Y-61928571D01*
X205976190Y-61976190D01*
X205595238Y-61976190D01*
X206595238Y-61928571D02*
X206928571Y-61928571D01*
X207071428Y-62452380D02*
X206595238Y-62452380D01*
X206595238Y-61452380D01*
X207071428Y-61452380D01*
X207833333Y-61928571D02*
X207500000Y-61928571D01*
X207500000Y-62452380D02*
X207500000Y-61452380D01*
X207976190Y-61452380D01*
X208500000Y-61452380D02*
X208500000Y-61690476D01*
X208261904Y-61595238D02*
X208500000Y-61690476D01*
X208738095Y-61595238D01*
X208357142Y-61880952D02*
X208500000Y-61690476D01*
X208642857Y-61880952D01*
X209261904Y-61452380D02*
X209261904Y-61690476D01*
X209023809Y-61595238D02*
X209261904Y-61690476D01*
X209500000Y-61595238D01*
X209119047Y-61880952D02*
X209261904Y-61690476D01*
X209404761Y-61880952D01*
X220666666Y-57452380D02*
X220333333Y-56976190D01*
X220095238Y-57452380D02*
X220095238Y-56452380D01*
X220476190Y-56452380D01*
X220571428Y-56500000D01*
X220619047Y-56547619D01*
X220666666Y-56642857D01*
X220666666Y-56785714D01*
X220619047Y-56880952D01*
X220571428Y-56928571D01*
X220476190Y-56976190D01*
X220095238Y-56976190D01*
X221095238Y-56928571D02*
X221428571Y-56928571D01*
X221571428Y-57452380D02*
X221095238Y-57452380D01*
X221095238Y-56452380D01*
X221571428Y-56452380D01*
X222333333Y-56928571D02*
X222000000Y-56928571D01*
X222000000Y-57452380D02*
X222000000Y-56452380D01*
X222476190Y-56452380D01*
X223000000Y-56452380D02*
X223000000Y-56690476D01*
X222761904Y-56595238D02*
X223000000Y-56690476D01*
X223238095Y-56595238D01*
X222857142Y-56880952D02*
X223000000Y-56690476D01*
X223142857Y-56880952D01*
X223761904Y-56452380D02*
X223761904Y-56690476D01*
X223523809Y-56595238D02*
X223761904Y-56690476D01*
X224000000Y-56595238D01*
X223619047Y-56880952D02*
X223761904Y-56690476D01*
X223904761Y-56880952D01*
X109666666Y-89452380D02*
X109333333Y-88976190D01*
X109095238Y-89452380D02*
X109095238Y-88452380D01*
X109476190Y-88452380D01*
X109571428Y-88500000D01*
X109619047Y-88547619D01*
X109666666Y-88642857D01*
X109666666Y-88785714D01*
X109619047Y-88880952D01*
X109571428Y-88928571D01*
X109476190Y-88976190D01*
X109095238Y-88976190D01*
X110095238Y-88928571D02*
X110428571Y-88928571D01*
X110571428Y-89452380D02*
X110095238Y-89452380D01*
X110095238Y-88452380D01*
X110571428Y-88452380D01*
X111333333Y-88928571D02*
X111000000Y-88928571D01*
X111000000Y-89452380D02*
X111000000Y-88452380D01*
X111476190Y-88452380D01*
X112000000Y-88452380D02*
X112000000Y-88690476D01*
X111761904Y-88595238D02*
X112000000Y-88690476D01*
X112238095Y-88595238D01*
X111857142Y-88880952D02*
X112000000Y-88690476D01*
X112142857Y-88880952D01*
X112761904Y-88452380D02*
X112761904Y-88690476D01*
X112523809Y-88595238D02*
X112761904Y-88690476D01*
X113000000Y-88595238D01*
X112619047Y-88880952D02*
X112761904Y-88690476D01*
X112904761Y-88880952D01*
G04 #@! TO.C,C1*
X125333333Y-76857142D02*
X125285714Y-76904761D01*
X125142857Y-76952380D01*
X125047619Y-76952380D01*
X124904761Y-76904761D01*
X124809523Y-76809523D01*
X124761904Y-76714285D01*
X124714285Y-76523809D01*
X124714285Y-76380952D01*
X124761904Y-76190476D01*
X124809523Y-76095238D01*
X124904761Y-76000000D01*
X125047619Y-75952380D01*
X125142857Y-75952380D01*
X125285714Y-76000000D01*
X125333333Y-76047619D01*
X126285714Y-76952380D02*
X125714285Y-76952380D01*
X126000000Y-76952380D02*
X126000000Y-75952380D01*
X125904761Y-76095238D01*
X125809523Y-76190476D01*
X125714285Y-76238095D01*
G04 #@! TO.C,C2*
X153833333Y-77857142D02*
X153785714Y-77904761D01*
X153642857Y-77952380D01*
X153547619Y-77952380D01*
X153404761Y-77904761D01*
X153309523Y-77809523D01*
X153261904Y-77714285D01*
X153214285Y-77523809D01*
X153214285Y-77380952D01*
X153261904Y-77190476D01*
X153309523Y-77095238D01*
X153404761Y-77000000D01*
X153547619Y-76952380D01*
X153642857Y-76952380D01*
X153785714Y-77000000D01*
X153833333Y-77047619D01*
X154214285Y-77047619D02*
X154261904Y-77000000D01*
X154357142Y-76952380D01*
X154595238Y-76952380D01*
X154690476Y-77000000D01*
X154738095Y-77047619D01*
X154785714Y-77142857D01*
X154785714Y-77238095D01*
X154738095Y-77380952D01*
X154166666Y-77952380D01*
X154785714Y-77952380D01*
G04 #@! TO.C,C3*
X184333333Y-87357142D02*
X184285714Y-87404761D01*
X184142857Y-87452380D01*
X184047619Y-87452380D01*
X183904761Y-87404761D01*
X183809523Y-87309523D01*
X183761904Y-87214285D01*
X183714285Y-87023809D01*
X183714285Y-86880952D01*
X183761904Y-86690476D01*
X183809523Y-86595238D01*
X183904761Y-86500000D01*
X184047619Y-86452380D01*
X184142857Y-86452380D01*
X184285714Y-86500000D01*
X184333333Y-86547619D01*
X184666666Y-86452380D02*
X185285714Y-86452380D01*
X184952380Y-86833333D01*
X185095238Y-86833333D01*
X185190476Y-86880952D01*
X185238095Y-86928571D01*
X185285714Y-87023809D01*
X185285714Y-87261904D01*
X185238095Y-87357142D01*
X185190476Y-87404761D01*
X185095238Y-87452380D01*
X184809523Y-87452380D01*
X184714285Y-87404761D01*
X184666666Y-87357142D01*
G04 #@! TO.C,C4*
X189333333Y-73357142D02*
X189285714Y-73404761D01*
X189142857Y-73452380D01*
X189047619Y-73452380D01*
X188904761Y-73404761D01*
X188809523Y-73309523D01*
X188761904Y-73214285D01*
X188714285Y-73023809D01*
X188714285Y-72880952D01*
X188761904Y-72690476D01*
X188809523Y-72595238D01*
X188904761Y-72500000D01*
X189047619Y-72452380D01*
X189142857Y-72452380D01*
X189285714Y-72500000D01*
X189333333Y-72547619D01*
X190190476Y-72785714D02*
X190190476Y-73452380D01*
X189952380Y-72404761D02*
X189714285Y-73119047D01*
X190333333Y-73119047D01*
G04 #@! TO.C,C5*
X160583333Y-72607142D02*
X160535714Y-72654761D01*
X160392857Y-72702380D01*
X160297619Y-72702380D01*
X160154761Y-72654761D01*
X160059523Y-72559523D01*
X160011904Y-72464285D01*
X159964285Y-72273809D01*
X159964285Y-72130952D01*
X160011904Y-71940476D01*
X160059523Y-71845238D01*
X160154761Y-71750000D01*
X160297619Y-71702380D01*
X160392857Y-71702380D01*
X160535714Y-71750000D01*
X160583333Y-71797619D01*
X161488095Y-71702380D02*
X161011904Y-71702380D01*
X160964285Y-72178571D01*
X161011904Y-72130952D01*
X161107142Y-72083333D01*
X161345238Y-72083333D01*
X161440476Y-72130952D01*
X161488095Y-72178571D01*
X161535714Y-72273809D01*
X161535714Y-72511904D01*
X161488095Y-72607142D01*
X161440476Y-72654761D01*
X161345238Y-72702380D01*
X161107142Y-72702380D01*
X161011904Y-72654761D01*
X160964285Y-72607142D01*
G04 #@! TO.C,C6*
X161083333Y-83357142D02*
X161035714Y-83404761D01*
X160892857Y-83452380D01*
X160797619Y-83452380D01*
X160654761Y-83404761D01*
X160559523Y-83309523D01*
X160511904Y-83214285D01*
X160464285Y-83023809D01*
X160464285Y-82880952D01*
X160511904Y-82690476D01*
X160559523Y-82595238D01*
X160654761Y-82500000D01*
X160797619Y-82452380D01*
X160892857Y-82452380D01*
X161035714Y-82500000D01*
X161083333Y-82547619D01*
X161940476Y-82452380D02*
X161750000Y-82452380D01*
X161654761Y-82500000D01*
X161607142Y-82547619D01*
X161511904Y-82690476D01*
X161464285Y-82880952D01*
X161464285Y-83261904D01*
X161511904Y-83357142D01*
X161559523Y-83404761D01*
X161654761Y-83452380D01*
X161845238Y-83452380D01*
X161940476Y-83404761D01*
X161988095Y-83357142D01*
X162035714Y-83261904D01*
X162035714Y-83023809D01*
X161988095Y-82928571D01*
X161940476Y-82880952D01*
X161845238Y-82833333D01*
X161654761Y-82833333D01*
X161559523Y-82880952D01*
X161511904Y-82928571D01*
X161464285Y-83023809D01*
G04 #@! TO.C,C7*
X137333333Y-76607142D02*
X137285714Y-76654761D01*
X137142857Y-76702380D01*
X137047619Y-76702380D01*
X136904761Y-76654761D01*
X136809523Y-76559523D01*
X136761904Y-76464285D01*
X136714285Y-76273809D01*
X136714285Y-76130952D01*
X136761904Y-75940476D01*
X136809523Y-75845238D01*
X136904761Y-75750000D01*
X137047619Y-75702380D01*
X137142857Y-75702380D01*
X137285714Y-75750000D01*
X137333333Y-75797619D01*
X137666666Y-75702380D02*
X138333333Y-75702380D01*
X137904761Y-76702380D01*
G04 #@! TO.C,C8*
X143333333Y-76857142D02*
X143285714Y-76904761D01*
X143142857Y-76952380D01*
X143047619Y-76952380D01*
X142904761Y-76904761D01*
X142809523Y-76809523D01*
X142761904Y-76714285D01*
X142714285Y-76523809D01*
X142714285Y-76380952D01*
X142761904Y-76190476D01*
X142809523Y-76095238D01*
X142904761Y-76000000D01*
X143047619Y-75952380D01*
X143142857Y-75952380D01*
X143285714Y-76000000D01*
X143333333Y-76047619D01*
X143904761Y-76380952D02*
X143809523Y-76333333D01*
X143761904Y-76285714D01*
X143714285Y-76190476D01*
X143714285Y-76142857D01*
X143761904Y-76047619D01*
X143809523Y-76000000D01*
X143904761Y-75952380D01*
X144095238Y-75952380D01*
X144190476Y-76000000D01*
X144238095Y-76047619D01*
X144285714Y-76142857D01*
X144285714Y-76190476D01*
X144238095Y-76285714D01*
X144190476Y-76333333D01*
X144095238Y-76380952D01*
X143904761Y-76380952D01*
X143809523Y-76428571D01*
X143761904Y-76476190D01*
X143714285Y-76571428D01*
X143714285Y-76761904D01*
X143761904Y-76857142D01*
X143809523Y-76904761D01*
X143904761Y-76952380D01*
X144095238Y-76952380D01*
X144190476Y-76904761D01*
X144238095Y-76857142D01*
X144285714Y-76761904D01*
X144285714Y-76571428D01*
X144238095Y-76476190D01*
X144190476Y-76428571D01*
X144095238Y-76380952D01*
G04 #@! TO.C,C9*
X131333333Y-76607142D02*
X131285714Y-76654761D01*
X131142857Y-76702380D01*
X131047619Y-76702380D01*
X130904761Y-76654761D01*
X130809523Y-76559523D01*
X130761904Y-76464285D01*
X130714285Y-76273809D01*
X130714285Y-76130952D01*
X130761904Y-75940476D01*
X130809523Y-75845238D01*
X130904761Y-75750000D01*
X131047619Y-75702380D01*
X131142857Y-75702380D01*
X131285714Y-75750000D01*
X131333333Y-75797619D01*
X131809523Y-76702380D02*
X132000000Y-76702380D01*
X132095238Y-76654761D01*
X132142857Y-76607142D01*
X132238095Y-76464285D01*
X132285714Y-76273809D01*
X132285714Y-75892857D01*
X132238095Y-75797619D01*
X132190476Y-75750000D01*
X132095238Y-75702380D01*
X131904761Y-75702380D01*
X131809523Y-75750000D01*
X131761904Y-75797619D01*
X131714285Y-75892857D01*
X131714285Y-76130952D01*
X131761904Y-76226190D01*
X131809523Y-76273809D01*
X131904761Y-76321428D01*
X132095238Y-76321428D01*
X132190476Y-76273809D01*
X132238095Y-76226190D01*
X132285714Y-76130952D01*
G04 #@! TO.C,J1*
X128916666Y-76952380D02*
X128916666Y-77666666D01*
X128869047Y-77809523D01*
X128773809Y-77904761D01*
X128630952Y-77952380D01*
X128535714Y-77952380D01*
X129916666Y-77952380D02*
X129345238Y-77952380D01*
X129630952Y-77952380D02*
X129630952Y-76952380D01*
X129535714Y-77095238D01*
X129440476Y-77190476D01*
X129345238Y-77238095D01*
G04 #@! TO.C,J2*
X204666666Y-92452380D02*
X204666666Y-93166666D01*
X204619047Y-93309523D01*
X204523809Y-93404761D01*
X204380952Y-93452380D01*
X204285714Y-93452380D01*
X205095238Y-92547619D02*
X205142857Y-92500000D01*
X205238095Y-92452380D01*
X205476190Y-92452380D01*
X205571428Y-92500000D01*
X205619047Y-92547619D01*
X205666666Y-92642857D01*
X205666666Y-92738095D01*
X205619047Y-92880952D01*
X205047619Y-93452380D01*
X205666666Y-93452380D01*
G04 #@! TO.C,J3*
X168666666Y-93452380D02*
X168666666Y-94166666D01*
X168619047Y-94309523D01*
X168523809Y-94404761D01*
X168380952Y-94452380D01*
X168285714Y-94452380D01*
X169047619Y-93452380D02*
X169666666Y-93452380D01*
X169333333Y-93833333D01*
X169476190Y-93833333D01*
X169571428Y-93880952D01*
X169619047Y-93928571D01*
X169666666Y-94023809D01*
X169666666Y-94261904D01*
X169619047Y-94357142D01*
X169571428Y-94404761D01*
X169476190Y-94452380D01*
X169190476Y-94452380D01*
X169095238Y-94404761D01*
X169047619Y-94357142D01*
G04 #@! TO.C,J4*
X149166666Y-84952380D02*
X149166666Y-85666666D01*
X149119047Y-85809523D01*
X149023809Y-85904761D01*
X148880952Y-85952380D01*
X148785714Y-85952380D01*
X150071428Y-85285714D02*
X150071428Y-85952380D01*
X149833333Y-84904761D02*
X149595238Y-85619047D01*
X150214285Y-85619047D01*
G04 #@! TO.C,J5*
X130666666Y-92452380D02*
X130666666Y-93166666D01*
X130619047Y-93309523D01*
X130523809Y-93404761D01*
X130380952Y-93452380D01*
X130285714Y-93452380D01*
X131619047Y-92452380D02*
X131142857Y-92452380D01*
X131095238Y-92928571D01*
X131142857Y-92880952D01*
X131238095Y-92833333D01*
X131476190Y-92833333D01*
X131571428Y-92880952D01*
X131619047Y-92928571D01*
X131666666Y-93023809D01*
X131666666Y-93261904D01*
X131619047Y-93357142D01*
X131571428Y-93404761D01*
X131476190Y-93452380D01*
X131238095Y-93452380D01*
X131142857Y-93404761D01*
X131095238Y-93357142D01*
G04 #@! TO.C,J6*
X162166666Y-84952380D02*
X162166666Y-85666666D01*
X162119047Y-85809523D01*
X162023809Y-85904761D01*
X161880952Y-85952380D01*
X161785714Y-85952380D01*
X163071428Y-84952380D02*
X162880952Y-84952380D01*
X162785714Y-85000000D01*
X162738095Y-85047619D01*
X162642857Y-85190476D01*
X162595238Y-85380952D01*
X162595238Y-85761904D01*
X162642857Y-85857142D01*
X162690476Y-85904761D01*
X162785714Y-85952380D01*
X162976190Y-85952380D01*
X163071428Y-85904761D01*
X163119047Y-85857142D01*
X163166666Y-85761904D01*
X163166666Y-85523809D01*
X163119047Y-85428571D01*
X163071428Y-85380952D01*
X162976190Y-85333333D01*
X162785714Y-85333333D01*
X162690476Y-85380952D01*
X162642857Y-85428571D01*
X162595238Y-85523809D01*
G04 #@! TO.C,Q1*
X152904761Y-85547619D02*
X152809523Y-85500000D01*
X152714285Y-85404761D01*
X152571428Y-85261904D01*
X152476190Y-85214285D01*
X152380952Y-85214285D01*
X152428571Y-85452380D02*
X152333333Y-85404761D01*
X152238095Y-85309523D01*
X152190476Y-85119047D01*
X152190476Y-84785714D01*
X152238095Y-84595238D01*
X152333333Y-84500000D01*
X152428571Y-84452380D01*
X152619047Y-84452380D01*
X152714285Y-84500000D01*
X152809523Y-84595238D01*
X152857142Y-84785714D01*
X152857142Y-85119047D01*
X152809523Y-85309523D01*
X152714285Y-85404761D01*
X152619047Y-85452380D01*
X152428571Y-85452380D01*
X153809523Y-85452380D02*
X153238095Y-85452380D01*
X153523809Y-85452380D02*
X153523809Y-84452380D01*
X153428571Y-84595238D01*
X153333333Y-84690476D01*
X153238095Y-84738095D01*
G04 #@! TO.C,Q2*
X123654761Y-93797619D02*
X123559523Y-93750000D01*
X123464285Y-93654761D01*
X123321428Y-93511904D01*
X123226190Y-93464285D01*
X123130952Y-93464285D01*
X123178571Y-93702380D02*
X123083333Y-93654761D01*
X122988095Y-93559523D01*
X122940476Y-93369047D01*
X122940476Y-93035714D01*
X122988095Y-92845238D01*
X123083333Y-92750000D01*
X123178571Y-92702380D01*
X123369047Y-92702380D01*
X123464285Y-92750000D01*
X123559523Y-92845238D01*
X123607142Y-93035714D01*
X123607142Y-93369047D01*
X123559523Y-93559523D01*
X123464285Y-93654761D01*
X123369047Y-93702380D01*
X123178571Y-93702380D01*
X123988095Y-92797619D02*
X124035714Y-92750000D01*
X124130952Y-92702380D01*
X124369047Y-92702380D01*
X124464285Y-92750000D01*
X124511904Y-92797619D01*
X124559523Y-92892857D01*
X124559523Y-92988095D01*
X124511904Y-93130952D01*
X123940476Y-93702380D01*
X124559523Y-93702380D01*
G04 #@! TO.C,R1*
X160333333Y-87452380D02*
X160000000Y-86976190D01*
X159761904Y-87452380D02*
X159761904Y-86452380D01*
X160142857Y-86452380D01*
X160238095Y-86500000D01*
X160285714Y-86547619D01*
X160333333Y-86642857D01*
X160333333Y-86785714D01*
X160285714Y-86880952D01*
X160238095Y-86928571D01*
X160142857Y-86976190D01*
X159761904Y-86976190D01*
X161285714Y-87452380D02*
X160714285Y-87452380D01*
X161000000Y-87452380D02*
X161000000Y-86452380D01*
X160904761Y-86595238D01*
X160809523Y-86690476D01*
X160714285Y-86738095D01*
G04 #@! TO.C,R2*
X126583333Y-83452380D02*
X126250000Y-82976190D01*
X126011904Y-83452380D02*
X126011904Y-82452380D01*
X126392857Y-82452380D01*
X126488095Y-82500000D01*
X126535714Y-82547619D01*
X126583333Y-82642857D01*
X126583333Y-82785714D01*
X126535714Y-82880952D01*
X126488095Y-82928571D01*
X126392857Y-82976190D01*
X126011904Y-82976190D01*
X126964285Y-82547619D02*
X127011904Y-82500000D01*
X127107142Y-82452380D01*
X127345238Y-82452380D01*
X127440476Y-82500000D01*
X127488095Y-82547619D01*
X127535714Y-82642857D01*
X127535714Y-82738095D01*
X127488095Y-82880952D01*
X126916666Y-83452380D01*
X127535714Y-83452380D01*
G04 #@! TO.C,R3*
X197333333Y-73452380D02*
X197000000Y-72976190D01*
X196761904Y-73452380D02*
X196761904Y-72452380D01*
X197142857Y-72452380D01*
X197238095Y-72500000D01*
X197285714Y-72547619D01*
X197333333Y-72642857D01*
X197333333Y-72785714D01*
X197285714Y-72880952D01*
X197238095Y-72928571D01*
X197142857Y-72976190D01*
X196761904Y-72976190D01*
X197666666Y-72452380D02*
X198285714Y-72452380D01*
X197952380Y-72833333D01*
X198095238Y-72833333D01*
X198190476Y-72880952D01*
X198238095Y-72928571D01*
X198285714Y-73023809D01*
X198285714Y-73261904D01*
X198238095Y-73357142D01*
X198190476Y-73404761D01*
X198095238Y-73452380D01*
X197809523Y-73452380D01*
X197714285Y-73404761D01*
X197666666Y-73357142D01*
G04 #@! TO.C,R4*
X190333333Y-84452380D02*
X190000000Y-83976190D01*
X189761904Y-84452380D02*
X189761904Y-83452380D01*
X190142857Y-83452380D01*
X190238095Y-83500000D01*
X190285714Y-83547619D01*
X190333333Y-83642857D01*
X190333333Y-83785714D01*
X190285714Y-83880952D01*
X190238095Y-83928571D01*
X190142857Y-83976190D01*
X189761904Y-83976190D01*
X191190476Y-83785714D02*
X191190476Y-84452380D01*
X190952380Y-83404761D02*
X190714285Y-84119047D01*
X191333333Y-84119047D01*
G04 #@! TO.C,R5*
X195833333Y-84452380D02*
X195500000Y-83976190D01*
X195261904Y-84452380D02*
X195261904Y-83452380D01*
X195642857Y-83452380D01*
X195738095Y-83500000D01*
X195785714Y-83547619D01*
X195833333Y-83642857D01*
X195833333Y-83785714D01*
X195785714Y-83880952D01*
X195738095Y-83928571D01*
X195642857Y-83976190D01*
X195261904Y-83976190D01*
X196738095Y-83452380D02*
X196261904Y-83452380D01*
X196214285Y-83928571D01*
X196261904Y-83880952D01*
X196357142Y-83833333D01*
X196595238Y-83833333D01*
X196690476Y-83880952D01*
X196738095Y-83928571D01*
X196785714Y-84023809D01*
X196785714Y-84261904D01*
X196738095Y-84357142D01*
X196690476Y-84404761D01*
X196595238Y-84452380D01*
X196357142Y-84452380D01*
X196261904Y-84404761D01*
X196214285Y-84357142D01*
G04 #@! TO.C,R6*
X201333333Y-84452380D02*
X201000000Y-83976190D01*
X200761904Y-84452380D02*
X200761904Y-83452380D01*
X201142857Y-83452380D01*
X201238095Y-83500000D01*
X201285714Y-83547619D01*
X201333333Y-83642857D01*
X201333333Y-83785714D01*
X201285714Y-83880952D01*
X201238095Y-83928571D01*
X201142857Y-83976190D01*
X200761904Y-83976190D01*
X202190476Y-83452380D02*
X202000000Y-83452380D01*
X201904761Y-83500000D01*
X201857142Y-83547619D01*
X201761904Y-83690476D01*
X201714285Y-83880952D01*
X201714285Y-84261904D01*
X201761904Y-84357142D01*
X201809523Y-84404761D01*
X201904761Y-84452380D01*
X202095238Y-84452380D01*
X202190476Y-84404761D01*
X202238095Y-84357142D01*
X202285714Y-84261904D01*
X202285714Y-84023809D01*
X202238095Y-83928571D01*
X202190476Y-83880952D01*
X202095238Y-83833333D01*
X201904761Y-83833333D01*
X201809523Y-83880952D01*
X201761904Y-83928571D01*
X201714285Y-84023809D01*
G04 #@! TO.C,R7*
X170333333Y-86952380D02*
X170000000Y-86476190D01*
X169761904Y-86952380D02*
X169761904Y-85952380D01*
X170142857Y-85952380D01*
X170238095Y-86000000D01*
X170285714Y-86047619D01*
X170333333Y-86142857D01*
X170333333Y-86285714D01*
X170285714Y-86380952D01*
X170238095Y-86428571D01*
X170142857Y-86476190D01*
X169761904Y-86476190D01*
X170666666Y-85952380D02*
X171333333Y-85952380D01*
X170904761Y-86952380D01*
G04 #@! TO.C,R8*
X179833333Y-87452380D02*
X179500000Y-86976190D01*
X179261904Y-87452380D02*
X179261904Y-86452380D01*
X179642857Y-86452380D01*
X179738095Y-86500000D01*
X179785714Y-86547619D01*
X179833333Y-86642857D01*
X179833333Y-86785714D01*
X179785714Y-86880952D01*
X179738095Y-86928571D01*
X179642857Y-86976190D01*
X179261904Y-86976190D01*
X180404761Y-86880952D02*
X180309523Y-86833333D01*
X180261904Y-86785714D01*
X180214285Y-86690476D01*
X180214285Y-86642857D01*
X180261904Y-86547619D01*
X180309523Y-86500000D01*
X180404761Y-86452380D01*
X180595238Y-86452380D01*
X180690476Y-86500000D01*
X180738095Y-86547619D01*
X180785714Y-86642857D01*
X180785714Y-86690476D01*
X180738095Y-86785714D01*
X180690476Y-86833333D01*
X180595238Y-86880952D01*
X180404761Y-86880952D01*
X180309523Y-86928571D01*
X180261904Y-86976190D01*
X180214285Y-87071428D01*
X180214285Y-87261904D01*
X180261904Y-87357142D01*
X180309523Y-87404761D01*
X180404761Y-87452380D01*
X180595238Y-87452380D01*
X180690476Y-87404761D01*
X180738095Y-87357142D01*
X180785714Y-87261904D01*
X180785714Y-87071428D01*
X180738095Y-86976190D01*
X180690476Y-86928571D01*
X180595238Y-86880952D01*
G04 #@! TO.C,U1*
X146238095Y-83202380D02*
X146238095Y-84011904D01*
X146285714Y-84107142D01*
X146333333Y-84154761D01*
X146428571Y-84202380D01*
X146619047Y-84202380D01*
X146714285Y-84154761D01*
X146761904Y-84107142D01*
X146809523Y-84011904D01*
X146809523Y-83202380D01*
X147809523Y-84202380D02*
X147238095Y-84202380D01*
X147523809Y-84202380D02*
X147523809Y-83202380D01*
X147428571Y-83345238D01*
X147333333Y-83440476D01*
X147238095Y-83488095D01*
G04 #@! TO.C,U2*
X166952380Y-75761904D02*
X167761904Y-75761904D01*
X167857142Y-75714285D01*
X167904761Y-75666666D01*
X167952380Y-75571428D01*
X167952380Y-75380952D01*
X167904761Y-75285714D01*
X167857142Y-75238095D01*
X167761904Y-75190476D01*
X166952380Y-75190476D01*
X167047619Y-74761904D02*
X167000000Y-74714285D01*
X166952380Y-74619047D01*
X166952380Y-74380952D01*
X167000000Y-74285714D01*
X167047619Y-74238095D01*
X167142857Y-74190476D01*
X167238095Y-74190476D01*
X167380952Y-74238095D01*
X167952380Y-74809523D01*
X167952380Y-74190476D01*
G04 #@! TO.C,Y1*
X166476190Y-71976190D02*
X166952380Y-71976190D01*
X165952380Y-72309523D02*
X166476190Y-71976190D01*
X165952380Y-71642857D01*
X166952380Y-70785714D02*
X166952380Y-71357142D01*
X166952380Y-71071428D02*
X165952380Y-71071428D01*
X166095238Y-71166666D01*
X166190476Y-71261904D01*
X166238095Y-71357142D01*
G04 #@! TO.C,REF\002A\002A*
X119666666Y-65452380D02*
X119333333Y-64976190D01*
X119095238Y-65452380D02*
X119095238Y-64452380D01*
X119476190Y-64452380D01*
X119571428Y-64500000D01*
X119619047Y-64547619D01*
X119666666Y-64642857D01*
X119666666Y-64785714D01*
X119619047Y-64880952D01*
X119571428Y-64928571D01*
X119476190Y-64976190D01*
X119095238Y-64976190D01*
X120095238Y-64928571D02*
X120428571Y-64928571D01*
X120571428Y-65452380D02*
X120095238Y-65452380D01*
X120095238Y-64452380D01*
X120571428Y-64452380D01*
X121333333Y-64928571D02*
X121000000Y-64928571D01*
X121000000Y-65452380D02*
X121000000Y-64452380D01*
X121476190Y-64452380D01*
X122000000Y-64452380D02*
X122000000Y-64690476D01*
X121761904Y-64595238D02*
X122000000Y-64690476D01*
X122238095Y-64595238D01*
X121857142Y-64880952D02*
X122000000Y-64690476D01*
X122142857Y-64880952D01*
X122761904Y-64452380D02*
X122761904Y-64690476D01*
X122523809Y-64595238D02*
X122761904Y-64690476D01*
X123000000Y-64595238D01*
X122619047Y-64880952D02*
X122761904Y-64690476D01*
X122904761Y-64880952D01*
G04 #@! TO.C,D1*
X210261904Y-76742380D02*
X210261904Y-75742380D01*
X210500000Y-75742380D01*
X210642857Y-75790000D01*
X210738095Y-75885238D01*
X210785714Y-75980476D01*
X210833333Y-76170952D01*
X210833333Y-76313809D01*
X210785714Y-76504285D01*
X210738095Y-76599523D01*
X210642857Y-76694761D01*
X210500000Y-76742380D01*
X210261904Y-76742380D01*
X211785714Y-76742380D02*
X211214285Y-76742380D01*
X211500000Y-76742380D02*
X211500000Y-75742380D01*
X211404761Y-75885238D01*
X211309523Y-75980476D01*
X211214285Y-76028095D01*
G04 #@! TO.C,D2*
X205761904Y-79952380D02*
X205761904Y-78952380D01*
X206000000Y-78952380D01*
X206142857Y-79000000D01*
X206238095Y-79095238D01*
X206285714Y-79190476D01*
X206333333Y-79380952D01*
X206333333Y-79523809D01*
X206285714Y-79714285D01*
X206238095Y-79809523D01*
X206142857Y-79904761D01*
X206000000Y-79952380D01*
X205761904Y-79952380D01*
X206714285Y-79047619D02*
X206761904Y-79000000D01*
X206857142Y-78952380D01*
X207095238Y-78952380D01*
X207190476Y-79000000D01*
X207238095Y-79047619D01*
X207285714Y-79142857D01*
X207285714Y-79238095D01*
X207238095Y-79380952D01*
X206666666Y-79952380D01*
X207285714Y-79952380D01*
G04 #@! TO.C,D3*
X210011904Y-83202380D02*
X210011904Y-82202380D01*
X210250000Y-82202380D01*
X210392857Y-82250000D01*
X210488095Y-82345238D01*
X210535714Y-82440476D01*
X210583333Y-82630952D01*
X210583333Y-82773809D01*
X210535714Y-82964285D01*
X210488095Y-83059523D01*
X210392857Y-83154761D01*
X210250000Y-83202380D01*
X210011904Y-83202380D01*
X210916666Y-82202380D02*
X211535714Y-82202380D01*
X211202380Y-82583333D01*
X211345238Y-82583333D01*
X211440476Y-82630952D01*
X211488095Y-82678571D01*
X211535714Y-82773809D01*
X211535714Y-83011904D01*
X211488095Y-83107142D01*
X211440476Y-83154761D01*
X211345238Y-83202380D01*
X211059523Y-83202380D01*
X210964285Y-83154761D01*
X210916666Y-83107142D01*
G04 #@! TO.C,R9*
X210833333Y-74702380D02*
X210500000Y-74226190D01*
X210261904Y-74702380D02*
X210261904Y-73702380D01*
X210642857Y-73702380D01*
X210738095Y-73750000D01*
X210785714Y-73797619D01*
X210833333Y-73892857D01*
X210833333Y-74035714D01*
X210785714Y-74130952D01*
X210738095Y-74178571D01*
X210642857Y-74226190D01*
X210261904Y-74226190D01*
X211309523Y-74702380D02*
X211500000Y-74702380D01*
X211595238Y-74654761D01*
X211642857Y-74607142D01*
X211738095Y-74464285D01*
X211785714Y-74273809D01*
X211785714Y-73892857D01*
X211738095Y-73797619D01*
X211690476Y-73750000D01*
X211595238Y-73702380D01*
X211404761Y-73702380D01*
X211309523Y-73750000D01*
X211261904Y-73797619D01*
X211214285Y-73892857D01*
X211214285Y-74130952D01*
X211261904Y-74226190D01*
X211309523Y-74273809D01*
X211404761Y-74321428D01*
X211595238Y-74321428D01*
X211690476Y-74273809D01*
X211738095Y-74226190D01*
X211785714Y-74130952D01*
G04 #@! TO.C,R10*
X203857142Y-74952380D02*
X203523809Y-74476190D01*
X203285714Y-74952380D02*
X203285714Y-73952380D01*
X203666666Y-73952380D01*
X203761904Y-74000000D01*
X203809523Y-74047619D01*
X203857142Y-74142857D01*
X203857142Y-74285714D01*
X203809523Y-74380952D01*
X203761904Y-74428571D01*
X203666666Y-74476190D01*
X203285714Y-74476190D01*
X204809523Y-74952380D02*
X204238095Y-74952380D01*
X204523809Y-74952380D02*
X204523809Y-73952380D01*
X204428571Y-74095238D01*
X204333333Y-74190476D01*
X204238095Y-74238095D01*
X205428571Y-73952380D02*
X205523809Y-73952380D01*
X205619047Y-74000000D01*
X205666666Y-74047619D01*
X205714285Y-74142857D01*
X205761904Y-74333333D01*
X205761904Y-74571428D01*
X205714285Y-74761904D01*
X205666666Y-74857142D01*
X205619047Y-74904761D01*
X205523809Y-74952380D01*
X205428571Y-74952380D01*
X205333333Y-74904761D01*
X205285714Y-74857142D01*
X205238095Y-74761904D01*
X205190476Y-74571428D01*
X205190476Y-74333333D01*
X205238095Y-74142857D01*
X205285714Y-74047619D01*
X205333333Y-74000000D01*
X205428571Y-73952380D01*
G04 #@! TO.C,R11*
X207357142Y-93702380D02*
X207023809Y-93226190D01*
X206785714Y-93702380D02*
X206785714Y-92702380D01*
X207166666Y-92702380D01*
X207261904Y-92750000D01*
X207309523Y-92797619D01*
X207357142Y-92892857D01*
X207357142Y-93035714D01*
X207309523Y-93130952D01*
X207261904Y-93178571D01*
X207166666Y-93226190D01*
X206785714Y-93226190D01*
X208309523Y-93702380D02*
X207738095Y-93702380D01*
X208023809Y-93702380D02*
X208023809Y-92702380D01*
X207928571Y-92845238D01*
X207833333Y-92940476D01*
X207738095Y-92988095D01*
X209261904Y-93702380D02*
X208690476Y-93702380D01*
X208976190Y-93702380D02*
X208976190Y-92702380D01*
X208880952Y-92845238D01*
X208785714Y-92940476D01*
X208690476Y-92988095D01*
G04 #@! TD*
M02*
