G04 #@! TF.GenerationSoftware,KiCad,Pcbnew,(5.0.1-3-g963ef8bb5)*
G04 #@! TF.CreationDate,2019-03-04T20:59:00-06:00*
G04 #@! TF.ProjectId,SmartNerfBlaster,536D6172744E657266426C6173746572,v1*
G04 #@! TF.SameCoordinates,Original*
G04 #@! TF.FileFunction,Copper,L1,Top,Signal*
G04 #@! TF.FilePolarity,Positive*
%FSLAX46Y46*%
G04 Gerber Fmt 4.6, Leading zero omitted, Abs format (unit mm)*
G04 Created by KiCad (PCBNEW (5.0.1-3-g963ef8bb5)) date Monday, March 04, 2019 at 08:59:00 PM*
%MOMM*%
%LPD*%
G01*
G04 APERTURE LIST*
G04 #@! TA.AperFunction,ComponentPad*
%ADD10C,1.600000*%
G04 #@! TD*
G04 #@! TA.AperFunction,ComponentPad*
%ADD11R,1.600000X1.600000*%
G04 #@! TD*
G04 #@! TA.AperFunction,ComponentPad*
%ADD12C,1.400000*%
G04 #@! TD*
G04 #@! TA.AperFunction,ComponentPad*
%ADD13C,6.000000*%
G04 #@! TD*
G04 #@! TA.AperFunction,ComponentPad*
%ADD14C,1.750000*%
G04 #@! TD*
G04 #@! TA.AperFunction,ComponentPad*
%ADD15R,1.750000X1.750000*%
G04 #@! TD*
G04 #@! TA.AperFunction,ComponentPad*
%ADD16C,3.000000*%
G04 #@! TD*
G04 #@! TA.AperFunction,ComponentPad*
%ADD17R,3.000000X3.000000*%
G04 #@! TD*
G04 #@! TA.AperFunction,ComponentPad*
%ADD18O,1.700000X1.700000*%
G04 #@! TD*
G04 #@! TA.AperFunction,ComponentPad*
%ADD19R,1.700000X1.700000*%
G04 #@! TD*
G04 #@! TA.AperFunction,ComponentPad*
%ADD20R,1.800000X1.800000*%
G04 #@! TD*
G04 #@! TA.AperFunction,ComponentPad*
%ADD21O,1.800000X1.800000*%
G04 #@! TD*
G04 #@! TA.AperFunction,ComponentPad*
%ADD22O,1.600000X1.600000*%
G04 #@! TD*
G04 #@! TA.AperFunction,ComponentPad*
%ADD23C,1.500000*%
G04 #@! TD*
G04 #@! TA.AperFunction,ComponentPad*
%ADD24C,1.800000*%
G04 #@! TD*
G04 #@! TA.AperFunction,ViaPad*
%ADD25C,0.762000*%
G04 #@! TD*
G04 #@! TA.AperFunction,Conductor*
%ADD26C,1.524000*%
G04 #@! TD*
G04 #@! TA.AperFunction,Conductor*
%ADD27C,0.762000*%
G04 #@! TD*
G04 #@! TA.AperFunction,Conductor*
%ADD28C,1.016000*%
G04 #@! TD*
G04 #@! TA.AperFunction,Conductor*
%ADD29C,0.254000*%
G04 #@! TD*
G04 APERTURE END LIST*
D10*
G04 #@! TO.P,C1,2*
G04 #@! TO.N,GND*
X127500000Y-72000000D03*
D11*
G04 #@! TO.P,C1,1*
G04 #@! TO.N,+BATT*
X127500000Y-74500000D03*
G04 #@! TD*
G04 #@! TO.P,C2,1*
G04 #@! TO.N,+5V*
X151500000Y-76000000D03*
D10*
G04 #@! TO.P,C2,2*
G04 #@! TO.N,GND*
X151500000Y-73500000D03*
G04 #@! TD*
D12*
G04 #@! TO.P,C3,1*
G04 #@! TO.N,Net-(C3-Pad1)*
X183500000Y-85000000D03*
G04 #@! TO.P,C3,2*
G04 #@! TO.N,GND*
X186000000Y-85000000D03*
G04 #@! TD*
G04 #@! TO.P,C4,2*
G04 #@! TO.N,GND*
X184500000Y-72500000D03*
G04 #@! TO.P,C4,1*
G04 #@! TO.N,+5V*
X187000000Y-72500000D03*
G04 #@! TD*
D10*
G04 #@! TO.P,C5,2*
G04 #@! TO.N,GND*
X157000000Y-75000000D03*
D11*
G04 #@! TO.P,C5,1*
G04 #@! TO.N,Net-(C5-Pad1)*
X159500000Y-75000000D03*
G04 #@! TD*
G04 #@! TO.P,C6,1*
G04 #@! TO.N,Net-(C6-Pad1)*
X159500000Y-81000000D03*
D10*
G04 #@! TO.P,C6,2*
G04 #@! TO.N,GND*
X157000000Y-81000000D03*
G04 #@! TD*
G04 #@! TO.P,C7,2*
G04 #@! TO.N,GND*
X139500000Y-72000000D03*
D11*
G04 #@! TO.P,C7,1*
G04 #@! TO.N,+BATT*
X139500000Y-74500000D03*
G04 #@! TD*
G04 #@! TO.P,C8,1*
G04 #@! TO.N,+BATT*
X145500000Y-74500000D03*
D10*
G04 #@! TO.P,C8,2*
G04 #@! TO.N,GND*
X145500000Y-72000000D03*
G04 #@! TD*
G04 #@! TO.P,C9,2*
G04 #@! TO.N,GND*
X133500000Y-72000000D03*
D11*
G04 #@! TO.P,C9,1*
G04 #@! TO.N,+BATT*
X133500000Y-74500000D03*
G04 #@! TD*
D13*
G04 #@! TO.P,J1,1*
G04 #@! TO.N,+BATT*
X140000000Y-81000000D03*
G04 #@! TO.P,J1,2*
G04 #@! TO.N,GND*
X132800000Y-81000000D03*
G04 #@! TD*
D14*
G04 #@! TO.P,J2,6*
G04 #@! TO.N,/Pusher_Reset*
X200500000Y-90000000D03*
G04 #@! TO.P,J2,5*
G04 #@! TO.N,GND*
X198000000Y-90000000D03*
G04 #@! TO.P,J2,4*
G04 #@! TO.N,/Flywheel_Button*
X195500000Y-90000000D03*
G04 #@! TO.P,J2,3*
G04 #@! TO.N,GND*
X193000000Y-90000000D03*
G04 #@! TO.P,J2,2*
G04 #@! TO.N,/Trigger*
X190500000Y-90000000D03*
D15*
G04 #@! TO.P,J2,1*
G04 #@! TO.N,GND*
X188000000Y-90000000D03*
G04 #@! TD*
D14*
G04 #@! TO.P,J3,4*
G04 #@! TO.N,/Magazine*
X180500000Y-90000000D03*
G04 #@! TO.P,J3,3*
G04 #@! TO.N,GND*
X178000000Y-90000000D03*
G04 #@! TO.P,J3,2*
G04 #@! TO.N,/Door*
X175500000Y-90000000D03*
D15*
G04 #@! TO.P,J3,1*
G04 #@! TO.N,GND*
X173000000Y-90000000D03*
G04 #@! TD*
D16*
G04 #@! TO.P,J4,2*
G04 #@! TO.N,/Pusher_Power*
X151080000Y-90000000D03*
D17*
G04 #@! TO.P,J4,1*
G04 #@! TO.N,+BATT*
X146000000Y-90000000D03*
G04 #@! TD*
G04 #@! TO.P,J5,1*
G04 #@! TO.N,+BATT*
X135000000Y-90000000D03*
D16*
G04 #@! TO.P,J5,2*
G04 #@! TO.N,/Flywheel_Power*
X140080000Y-90000000D03*
G04 #@! TD*
D18*
G04 #@! TO.P,J6,6*
G04 #@! TO.N,GND*
X167540000Y-91000000D03*
G04 #@! TO.P,J6,5*
G04 #@! TO.N,/Reset*
X165000000Y-91000000D03*
G04 #@! TO.P,J6,4*
G04 #@! TO.N,/Flywheel*
X167540000Y-88460000D03*
G04 #@! TO.P,J6,3*
G04 #@! TO.N,Net-(J6-Pad3)*
X165000000Y-88460000D03*
G04 #@! TO.P,J6,2*
G04 #@! TO.N,+5V*
X167540000Y-85920000D03*
D19*
G04 #@! TO.P,J6,1*
G04 #@! TO.N,Net-(J6-Pad1)*
X165000000Y-85920000D03*
G04 #@! TD*
D20*
G04 #@! TO.P,Q1,1*
G04 #@! TO.N,/Pusher*
X157000000Y-91540000D03*
D21*
G04 #@! TO.P,Q1,2*
G04 #@! TO.N,/Pusher_Power*
X157000000Y-89000000D03*
G04 #@! TO.P,Q1,3*
G04 #@! TO.N,GND*
X157000000Y-86460000D03*
G04 #@! TD*
G04 #@! TO.P,Q2,3*
G04 #@! TO.N,GND*
X127500000Y-86420000D03*
G04 #@! TO.P,Q2,2*
G04 #@! TO.N,/Flywheel_Power*
X127500000Y-88960000D03*
D20*
G04 #@! TO.P,Q2,1*
G04 #@! TO.N,/Flywheel*
X127500000Y-91500000D03*
G04 #@! TD*
D22*
G04 #@! TO.P,R1,2*
G04 #@! TO.N,GND*
X161000000Y-88960000D03*
D10*
G04 #@! TO.P,R1,1*
G04 #@! TO.N,/Pusher*
X161000000Y-91500000D03*
G04 #@! TD*
G04 #@! TO.P,R2,1*
G04 #@! TO.N,/Flywheel*
X126500000Y-81040000D03*
D22*
G04 #@! TO.P,R2,2*
G04 #@! TO.N,GND*
X126500000Y-78500000D03*
G04 #@! TD*
D10*
G04 #@! TO.P,R3,1*
G04 #@! TO.N,+5V*
X200000000Y-72000000D03*
D22*
G04 #@! TO.P,R3,2*
G04 #@! TO.N,/Reset*
X202540000Y-72000000D03*
G04 #@! TD*
G04 #@! TO.P,R4,2*
G04 #@! TO.N,/Trigger*
X191540000Y-85500000D03*
D10*
G04 #@! TO.P,R4,1*
G04 #@! TO.N,+5V*
X189000000Y-85500000D03*
G04 #@! TD*
G04 #@! TO.P,R5,1*
G04 #@! TO.N,+5V*
X194500000Y-85500000D03*
D22*
G04 #@! TO.P,R5,2*
G04 #@! TO.N,/Flywheel_Button*
X197040000Y-85500000D03*
G04 #@! TD*
G04 #@! TO.P,R6,2*
G04 #@! TO.N,/Pusher_Reset*
X202540000Y-85500000D03*
D10*
G04 #@! TO.P,R6,1*
G04 #@! TO.N,+5V*
X200000000Y-85500000D03*
G04 #@! TD*
G04 #@! TO.P,R7,1*
G04 #@! TO.N,+5V*
X173000000Y-85500000D03*
D22*
G04 #@! TO.P,R7,2*
G04 #@! TO.N,/Door*
X175540000Y-85500000D03*
G04 #@! TD*
G04 #@! TO.P,R8,2*
G04 #@! TO.N,/Magazine*
X181040000Y-85500000D03*
D10*
G04 #@! TO.P,R8,1*
G04 #@! TO.N,+5V*
X178500000Y-85500000D03*
G04 #@! TD*
D21*
G04 #@! TO.P,U1,3*
G04 #@! TO.N,+5V*
X152580000Y-81000000D03*
G04 #@! TO.P,U1,2*
G04 #@! TO.N,GND*
X150040000Y-81000000D03*
D20*
G04 #@! TO.P,U1,1*
G04 #@! TO.N,+BATT*
X147500000Y-81000000D03*
G04 #@! TD*
D22*
G04 #@! TO.P,U2,28*
G04 #@! TO.N,Net-(U2-Pad28)*
X202000000Y-82620000D03*
G04 #@! TO.P,U2,14*
G04 #@! TO.N,/LED1*
X168980000Y-75000000D03*
G04 #@! TO.P,U2,27*
G04 #@! TO.N,Net-(U2-Pad27)*
X199460000Y-82620000D03*
G04 #@! TO.P,U2,13*
G04 #@! TO.N,/LED3*
X171520000Y-75000000D03*
G04 #@! TO.P,U2,26*
G04 #@! TO.N,Net-(U2-Pad26)*
X196920000Y-82620000D03*
G04 #@! TO.P,U2,12*
G04 #@! TO.N,/Magazine*
X174060000Y-75000000D03*
G04 #@! TO.P,U2,25*
G04 #@! TO.N,Net-(U2-Pad25)*
X194380000Y-82620000D03*
G04 #@! TO.P,U2,11*
G04 #@! TO.N,/Door*
X176600000Y-75000000D03*
G04 #@! TO.P,U2,24*
G04 #@! TO.N,Net-(U2-Pad24)*
X191840000Y-82620000D03*
G04 #@! TO.P,U2,10*
G04 #@! TO.N,Net-(C6-Pad1)*
X179140000Y-75000000D03*
G04 #@! TO.P,U2,23*
G04 #@! TO.N,Net-(U2-Pad23)*
X189300000Y-82620000D03*
G04 #@! TO.P,U2,9*
G04 #@! TO.N,Net-(C5-Pad1)*
X181680000Y-75000000D03*
G04 #@! TO.P,U2,22*
G04 #@! TO.N,GND*
X186760000Y-82620000D03*
G04 #@! TO.P,U2,8*
X184220000Y-75000000D03*
G04 #@! TO.P,U2,21*
G04 #@! TO.N,Net-(C3-Pad1)*
X184220000Y-82620000D03*
G04 #@! TO.P,U2,7*
G04 #@! TO.N,+5V*
X186760000Y-75000000D03*
G04 #@! TO.P,U2,20*
X181680000Y-82620000D03*
G04 #@! TO.P,U2,6*
G04 #@! TO.N,/Pusher_Reset*
X189300000Y-75000000D03*
G04 #@! TO.P,U2,19*
G04 #@! TO.N,Net-(J6-Pad3)*
X179140000Y-82620000D03*
G04 #@! TO.P,U2,5*
G04 #@! TO.N,/Flywheel_Button*
X191840000Y-75000000D03*
G04 #@! TO.P,U2,18*
G04 #@! TO.N,Net-(J6-Pad1)*
X176600000Y-82620000D03*
G04 #@! TO.P,U2,4*
G04 #@! TO.N,/Trigger*
X194380000Y-75000000D03*
G04 #@! TO.P,U2,17*
G04 #@! TO.N,/Flywheel*
X174060000Y-82620000D03*
G04 #@! TO.P,U2,3*
G04 #@! TO.N,Net-(U2-Pad3)*
X196920000Y-75000000D03*
G04 #@! TO.P,U2,16*
G04 #@! TO.N,/Pusher*
X171520000Y-82620000D03*
G04 #@! TO.P,U2,2*
G04 #@! TO.N,Net-(U2-Pad2)*
X199460000Y-75000000D03*
G04 #@! TO.P,U2,15*
G04 #@! TO.N,/LED2*
X168980000Y-82620000D03*
D11*
G04 #@! TO.P,U2,1*
G04 #@! TO.N,/Reset*
X202000000Y-75000000D03*
G04 #@! TD*
D23*
G04 #@! TO.P,Y1,2*
G04 #@! TO.N,Net-(C6-Pad1)*
X164000000Y-79880000D03*
G04 #@! TO.P,Y1,1*
G04 #@! TO.N,Net-(C5-Pad1)*
X164000000Y-75000000D03*
G04 #@! TD*
D24*
G04 #@! TO.P,D1,2*
G04 #@! TO.N,/LED1*
X211040000Y-79250000D03*
D20*
G04 #@! TO.P,D1,1*
G04 #@! TO.N,Net-(D1-Pad1)*
X208500000Y-79250000D03*
G04 #@! TD*
G04 #@! TO.P,D2,1*
G04 #@! TO.N,Net-(D2-Pad1)*
X205000000Y-82250000D03*
D24*
G04 #@! TO.P,D2,2*
G04 #@! TO.N,/LED2*
X207540000Y-82250000D03*
G04 #@! TD*
G04 #@! TO.P,D3,2*
G04 #@! TO.N,/LED3*
X210790000Y-85500000D03*
D20*
G04 #@! TO.P,D3,1*
G04 #@! TO.N,Net-(D3-Pad1)*
X208250000Y-85500000D03*
G04 #@! TD*
D10*
G04 #@! TO.P,R9,1*
G04 #@! TO.N,Net-(D1-Pad1)*
X210500000Y-72000000D03*
D22*
G04 #@! TO.P,R9,2*
G04 #@! TO.N,GND*
X207960000Y-72000000D03*
G04 #@! TD*
G04 #@! TO.P,R10,2*
G04 #@! TO.N,GND*
X204500000Y-76250000D03*
D10*
G04 #@! TO.P,R10,1*
G04 #@! TO.N,Net-(D2-Pad1)*
X204500000Y-78790000D03*
G04 #@! TD*
D22*
G04 #@! TO.P,R11,2*
G04 #@! TO.N,GND*
X210750000Y-93290000D03*
D10*
G04 #@! TO.P,R11,1*
G04 #@! TO.N,Net-(D3-Pad1)*
X210750000Y-90750000D03*
G04 #@! TD*
D25*
G04 #@! TO.N,/LED2*
X184500000Y-88750000D03*
G04 #@! TD*
D26*
G04 #@! TO.N,+BATT*
X140000000Y-85000000D02*
X135000000Y-90000000D01*
X140000000Y-81000000D02*
X140000000Y-85000000D01*
X146000000Y-87000000D02*
X140000000Y-81000000D01*
X146000000Y-90000000D02*
X146000000Y-87000000D01*
D27*
X139500000Y-76257360D02*
X139500000Y-74500000D01*
X140000000Y-76757360D02*
X139500000Y-76257360D01*
X140000000Y-81000000D02*
X140000000Y-76757360D01*
X127500000Y-74500000D02*
X133500000Y-74500000D01*
X133500000Y-74500000D02*
X139500000Y-74500000D01*
X139500000Y-74500000D02*
X145500000Y-74500000D01*
X145500000Y-77338000D02*
X145500000Y-74500000D01*
X147500000Y-79338000D02*
X145500000Y-77338000D01*
X147500000Y-81000000D02*
X147500000Y-79338000D01*
X147500000Y-81000000D02*
X140000000Y-81000000D01*
D28*
G04 #@! TO.N,+5V*
X151500000Y-79920000D02*
X152580000Y-81000000D01*
X151500000Y-76000000D02*
X151500000Y-79920000D01*
X167540000Y-84717919D02*
X167540000Y-85920000D01*
X165330082Y-82508001D02*
X167540000Y-84717919D01*
X154088001Y-82508001D02*
X165330082Y-82508001D01*
X152580000Y-81000000D02*
X154088001Y-82508001D01*
X172580000Y-85920000D02*
X173000000Y-85500000D01*
X167540000Y-85920000D02*
X172580000Y-85920000D01*
X176991999Y-87008001D02*
X177700001Y-86299999D01*
X174508001Y-87008001D02*
X176991999Y-87008001D01*
X177700001Y-86299999D02*
X178500000Y-85500000D01*
X173000000Y-85500000D02*
X174508001Y-87008001D01*
X178800000Y-85500000D02*
X181680000Y-82620000D01*
X178500000Y-85500000D02*
X178800000Y-85500000D01*
X181680000Y-80080000D02*
X186760000Y-75000000D01*
X181680000Y-82620000D02*
X181680000Y-80080000D01*
X186760000Y-72740000D02*
X187000000Y-72500000D01*
X186760000Y-75000000D02*
X186760000Y-72740000D01*
D29*
X187500000Y-72000000D02*
X187000000Y-72500000D01*
X200000000Y-72000000D02*
X187500000Y-72000000D01*
X189297999Y-90576961D02*
X190221038Y-91500000D01*
X189297999Y-88959397D02*
X189297999Y-90576961D01*
X189000000Y-88661398D02*
X189297999Y-88959397D01*
X189000000Y-85500000D02*
X189000000Y-88661398D01*
X194500000Y-86631370D02*
X194500000Y-85500000D01*
X194202001Y-86929369D02*
X194500000Y-86631370D01*
X194202001Y-90576961D02*
X194202001Y-86929369D01*
X193278962Y-91500000D02*
X194202001Y-90576961D01*
X192500000Y-91500000D02*
X192500000Y-92000000D01*
X190221038Y-91500000D02*
X192500000Y-91500000D01*
X192500000Y-91500000D02*
X193278962Y-91500000D01*
X192500000Y-92000000D02*
X193000000Y-92500000D01*
X199200001Y-86299999D02*
X200000000Y-85500000D01*
X196797999Y-89423039D02*
X199200001Y-87021037D01*
X199200001Y-87021037D02*
X199200001Y-86299999D01*
X196797999Y-90480963D02*
X196797999Y-89423039D01*
X194778962Y-92500000D02*
X196797999Y-90480963D01*
X193000000Y-92500000D02*
X194778962Y-92500000D01*
X183007039Y-86027001D02*
X187341629Y-86027001D01*
X187341629Y-86027001D02*
X187868630Y-85500000D01*
X182167001Y-85186963D02*
X183007039Y-86027001D01*
X182167001Y-84238371D02*
X182167001Y-85186963D01*
X181680000Y-83751370D02*
X182167001Y-84238371D01*
X187868630Y-85500000D02*
X189000000Y-85500000D01*
X181680000Y-82620000D02*
X181680000Y-83751370D01*
G04 #@! TO.N,Net-(C3-Pad1)*
X183500000Y-83340000D02*
X184220000Y-82620000D01*
X183500000Y-85000000D02*
X183500000Y-83340000D01*
G04 #@! TO.N,Net-(C6-Pad1)*
X175472999Y-75254963D02*
X175472999Y-74027001D01*
X170847962Y-79880000D02*
X175472999Y-75254963D01*
X164000000Y-79880000D02*
X170847962Y-79880000D01*
X175472999Y-74027001D02*
X176500000Y-73000000D01*
X176500000Y-73000000D02*
X177140000Y-73000000D01*
X177140000Y-73000000D02*
X179140000Y-75000000D01*
X163250001Y-80629999D02*
X162370001Y-80629999D01*
X164000000Y-79880000D02*
X163250001Y-80629999D01*
X162000000Y-81000000D02*
X159500000Y-81000000D01*
X162370001Y-80629999D02*
X162000000Y-81000000D01*
G04 #@! TO.N,/Pusher_Reset*
X202540000Y-87960000D02*
X200500000Y-90000000D01*
X202540000Y-85500000D02*
X202540000Y-87960000D01*
X190099999Y-74200001D02*
X189300000Y-75000000D01*
X190881011Y-73418989D02*
X190099999Y-74200001D01*
X197006951Y-73418989D02*
X190881011Y-73418989D01*
X198047001Y-75540961D02*
X198047001Y-74459039D01*
X198047001Y-74459039D02*
X197006951Y-73418989D01*
X200587001Y-78080961D02*
X198047001Y-75540961D01*
X200587001Y-83547001D02*
X200587001Y-78080961D01*
X202540000Y-85500000D02*
X200587001Y-83547001D01*
G04 #@! TO.N,/Flywheel_Button*
X197040000Y-88460000D02*
X195500000Y-90000000D01*
X197040000Y-85500000D02*
X197040000Y-88460000D01*
X192967001Y-73872999D02*
X194872999Y-73872999D01*
X191840000Y-75000000D02*
X192967001Y-73872999D01*
X196240001Y-84700001D02*
X197040000Y-85500000D01*
X195792999Y-84252999D02*
X196240001Y-84700001D01*
X195792999Y-74792999D02*
X195792999Y-84252999D01*
X194872999Y-73872999D02*
X195792999Y-74792999D01*
G04 #@! TO.N,/Trigger*
X191540000Y-88960000D02*
X191540000Y-85500000D01*
X190500000Y-90000000D02*
X191540000Y-88960000D01*
X193252999Y-83787001D02*
X192339999Y-84700001D01*
X192339999Y-84700001D02*
X191540000Y-85500000D01*
X193252999Y-76127001D02*
X193252999Y-83787001D01*
X194380000Y-75000000D02*
X193252999Y-76127001D01*
G04 #@! TO.N,/Magazine*
X181040000Y-89460000D02*
X180500000Y-90000000D01*
X181040000Y-85500000D02*
X181040000Y-89460000D01*
G04 #@! TO.N,/Door*
X175472999Y-76127001D02*
X175800001Y-75799999D01*
X175472999Y-84301629D02*
X175472999Y-76127001D01*
X175540000Y-84368630D02*
X175472999Y-84301629D01*
X175800001Y-75799999D02*
X176600000Y-75000000D01*
X175540000Y-85500000D02*
X175540000Y-84368630D01*
D26*
G04 #@! TO.N,/Pusher_Power*
X152080000Y-89000000D02*
X157000000Y-89000000D01*
X151080000Y-90000000D02*
X152080000Y-89000000D01*
G04 #@! TO.N,/Flywheel_Power*
X128772792Y-88960000D02*
X127500000Y-88960000D01*
X137617999Y-92462001D02*
X132274793Y-92462001D01*
X132274793Y-92462001D02*
X128772792Y-88960000D01*
X140080000Y-90000000D02*
X137617999Y-92462001D01*
D29*
G04 #@! TO.N,/Reset*
X202540000Y-74460000D02*
X202000000Y-75000000D01*
X202540000Y-72000000D02*
X202540000Y-74460000D01*
G04 #@! TO.N,/Flywheel*
X125700001Y-81839999D02*
X126500000Y-81040000D01*
X125700001Y-90854001D02*
X125700001Y-81839999D01*
X126346000Y-91500000D02*
X125700001Y-90854001D01*
X127500000Y-91500000D02*
X126346000Y-91500000D01*
X164530961Y-89637001D02*
X160167962Y-94000000D01*
X166362999Y-89637001D02*
X164530961Y-89637001D01*
X167540000Y-88460000D02*
X166362999Y-89637001D01*
X128654000Y-91500000D02*
X127500000Y-91500000D01*
X131154000Y-94000000D02*
X128654000Y-91500000D01*
X160167962Y-94000000D02*
X131154000Y-94000000D01*
G04 #@! TO.N,/Pusher*
X157040000Y-91500000D02*
X157000000Y-91540000D01*
X161000000Y-91500000D02*
X157040000Y-91500000D01*
G04 #@! TO.N,Net-(C5-Pad1)*
X179225990Y-72545990D02*
X180880001Y-74200001D01*
X180880001Y-74200001D02*
X181680000Y-75000000D01*
X166454010Y-72545990D02*
X179225990Y-72545990D01*
X164000000Y-75000000D02*
X166454010Y-72545990D01*
X164000000Y-75000000D02*
X159500000Y-75000000D01*
G04 #@! TO.N,Net-(D1-Pad1)*
X208500000Y-78096000D02*
X208500000Y-79250000D01*
X209427001Y-77168999D02*
X208500000Y-78096000D01*
X209427001Y-74204369D02*
X209427001Y-77168999D01*
X210500000Y-73131370D02*
X209427001Y-74204369D01*
X210500000Y-72000000D02*
X210500000Y-73131370D01*
G04 #@! TO.N,Net-(D2-Pad1)*
X205000000Y-79290000D02*
X204500000Y-78790000D01*
X205000000Y-82250000D02*
X205000000Y-79290000D01*
G04 #@! TO.N,/LED2*
X199324952Y-92954010D02*
X187204010Y-92954010D01*
X201702001Y-90576961D02*
X199324952Y-92954010D01*
X207540000Y-83602067D02*
X201702001Y-89440066D01*
X201702001Y-89440066D02*
X201702001Y-90576961D01*
X207540000Y-82250000D02*
X207540000Y-83602067D01*
X187204010Y-92954010D02*
X184500000Y-90250000D01*
X184500000Y-90250000D02*
X184500000Y-89267501D01*
X184500000Y-89267501D02*
X184500000Y-88750000D01*
G04 #@! TO.N,Net-(D3-Pad1)*
X210750000Y-89154000D02*
X210750000Y-89618630D01*
X210750000Y-89618630D02*
X210750000Y-90750000D01*
X208250000Y-86654000D02*
X210750000Y-89154000D01*
X208250000Y-85500000D02*
X208250000Y-86654000D01*
G04 #@! TD*
G04 #@! TO.N,GND*
G36*
X212044001Y-78442394D02*
X211765628Y-78164021D01*
X211294807Y-77969000D01*
X210785193Y-77969000D01*
X210314372Y-78164021D01*
X209954021Y-78524372D01*
X209788464Y-78924061D01*
X209788464Y-78350000D01*
X209758894Y-78201341D01*
X209674686Y-78075314D01*
X209548659Y-77991106D01*
X209400000Y-77961536D01*
X209352884Y-77961536D01*
X209750833Y-77563587D01*
X209793248Y-77535246D01*
X209905526Y-77367211D01*
X209935001Y-77219031D01*
X209935001Y-77219028D01*
X209944952Y-77169000D01*
X209935001Y-77118972D01*
X209935001Y-74414789D01*
X210823835Y-73525956D01*
X210866247Y-73497617D01*
X210894586Y-73455205D01*
X210894588Y-73455203D01*
X210978525Y-73329582D01*
X210980352Y-73320395D01*
X211008000Y-73181402D01*
X211008000Y-73181398D01*
X211017951Y-73131370D01*
X211008000Y-73081342D01*
X211008000Y-73067884D01*
X211168983Y-73001203D01*
X211501203Y-72668983D01*
X211681000Y-72234915D01*
X211681000Y-71765085D01*
X211501203Y-71331017D01*
X211168983Y-70998797D01*
X210734915Y-70819000D01*
X210265085Y-70819000D01*
X209831017Y-70998797D01*
X209498797Y-71331017D01*
X209319000Y-71765085D01*
X209319000Y-71872998D01*
X209229916Y-71872998D01*
X209351904Y-71650961D01*
X209191041Y-71262577D01*
X208815134Y-70847611D01*
X208309041Y-70608086D01*
X208087000Y-70729371D01*
X208087000Y-71873000D01*
X208107000Y-71873000D01*
X208107000Y-72127000D01*
X208087000Y-72127000D01*
X208087000Y-72147000D01*
X207833000Y-72147000D01*
X207833000Y-72127000D01*
X206690085Y-72127000D01*
X206568096Y-72349039D01*
X206728959Y-72737423D01*
X207017298Y-73055723D01*
X206377854Y-73320589D01*
X205820589Y-73877854D01*
X205519000Y-74605955D01*
X205519000Y-75274032D01*
X205237423Y-75018959D01*
X204849039Y-74858096D01*
X204627000Y-74980085D01*
X204627000Y-76123000D01*
X205770629Y-76123000D01*
X205799244Y-76070614D01*
X205820589Y-76122146D01*
X206377854Y-76679411D01*
X207105955Y-76981000D01*
X207894045Y-76981000D01*
X208622146Y-76679411D01*
X208919002Y-76382555D01*
X208919002Y-76958578D01*
X208176168Y-77701412D01*
X208133753Y-77729753D01*
X208105413Y-77772167D01*
X208105412Y-77772168D01*
X208031524Y-77882749D01*
X208021475Y-77897789D01*
X208008795Y-77961536D01*
X207600000Y-77961536D01*
X207451341Y-77991106D01*
X207325314Y-78075314D01*
X207241106Y-78201341D01*
X207211536Y-78350000D01*
X207211536Y-80150000D01*
X207241106Y-80298659D01*
X207325314Y-80424686D01*
X207451341Y-80508894D01*
X207600000Y-80538464D01*
X209400000Y-80538464D01*
X209548659Y-80508894D01*
X209674686Y-80424686D01*
X209758894Y-80298659D01*
X209788464Y-80150000D01*
X209788464Y-79575939D01*
X209954021Y-79975628D01*
X210314372Y-80335979D01*
X210785193Y-80531000D01*
X211294807Y-80531000D01*
X211765628Y-80335979D01*
X212044001Y-80057606D01*
X212044000Y-85180010D01*
X211875979Y-84774372D01*
X211515628Y-84414021D01*
X211044807Y-84219000D01*
X210535193Y-84219000D01*
X210064372Y-84414021D01*
X209704021Y-84774372D01*
X209538464Y-85174061D01*
X209538464Y-84600000D01*
X209508894Y-84451341D01*
X209424686Y-84325314D01*
X209298659Y-84241106D01*
X209150000Y-84211536D01*
X207648951Y-84211536D01*
X207863832Y-83996655D01*
X207906247Y-83968314D01*
X208018525Y-83800279D01*
X208048000Y-83652099D01*
X208048000Y-83652096D01*
X208057951Y-83602068D01*
X208048000Y-83552040D01*
X208048000Y-83426124D01*
X208265628Y-83335979D01*
X208625979Y-82975628D01*
X208821000Y-82504807D01*
X208821000Y-81995193D01*
X208625979Y-81524372D01*
X208265628Y-81164021D01*
X207794807Y-80969000D01*
X207285193Y-80969000D01*
X206814372Y-81164021D01*
X206454021Y-81524372D01*
X206288464Y-81924061D01*
X206288464Y-81350000D01*
X206258894Y-81201341D01*
X206174686Y-81075314D01*
X206048659Y-80991106D01*
X205900000Y-80961536D01*
X205508000Y-80961536D01*
X205508000Y-79442574D01*
X205681000Y-79024915D01*
X205681000Y-78555085D01*
X205501203Y-78121017D01*
X205168983Y-77788797D01*
X204734915Y-77609000D01*
X204627002Y-77609000D01*
X204627002Y-77519916D01*
X204849039Y-77641904D01*
X205237423Y-77481041D01*
X205652389Y-77105134D01*
X205891914Y-76599041D01*
X205770629Y-76377000D01*
X204627000Y-76377000D01*
X204627000Y-76397000D01*
X204373000Y-76397000D01*
X204373000Y-76377000D01*
X203229371Y-76377000D01*
X203108086Y-76599041D01*
X203347611Y-77105134D01*
X203762577Y-77481041D01*
X204150961Y-77641904D01*
X204372998Y-77519916D01*
X204372998Y-77609000D01*
X204265085Y-77609000D01*
X203831017Y-77788797D01*
X203498797Y-78121017D01*
X203319000Y-78555085D01*
X203319000Y-79024915D01*
X203498797Y-79458983D01*
X203831017Y-79791203D01*
X204265085Y-79971000D01*
X204492001Y-79971000D01*
X204492000Y-80961536D01*
X204100000Y-80961536D01*
X203951341Y-80991106D01*
X203825314Y-81075314D01*
X203741106Y-81201341D01*
X203711536Y-81350000D01*
X203711536Y-83150000D01*
X203741106Y-83298659D01*
X203825314Y-83424686D01*
X203951341Y-83508894D01*
X204100000Y-83538464D01*
X205900000Y-83538464D01*
X206048659Y-83508894D01*
X206174686Y-83424686D01*
X206258894Y-83298659D01*
X206288464Y-83150000D01*
X206288464Y-82575939D01*
X206454021Y-82975628D01*
X206814372Y-83335979D01*
X207007621Y-83416026D01*
X203048000Y-87375647D01*
X203048000Y-86580942D01*
X203391453Y-86351453D01*
X203652478Y-85960803D01*
X203744137Y-85500000D01*
X203652478Y-85039197D01*
X203391453Y-84648547D01*
X203000803Y-84387522D01*
X202656318Y-84319000D01*
X202423682Y-84319000D01*
X202134869Y-84376448D01*
X201393639Y-83635219D01*
X201539197Y-83732478D01*
X201883682Y-83801000D01*
X202116318Y-83801000D01*
X202460803Y-83732478D01*
X202851453Y-83471453D01*
X203112478Y-83080803D01*
X203204137Y-82620000D01*
X203112478Y-82159197D01*
X202851453Y-81768547D01*
X202460803Y-81507522D01*
X202116318Y-81439000D01*
X201883682Y-81439000D01*
X201539197Y-81507522D01*
X201148547Y-81768547D01*
X201095001Y-81848684D01*
X201095001Y-78130988D01*
X201104952Y-78080960D01*
X201095001Y-78030932D01*
X201095001Y-78030929D01*
X201065526Y-77882749D01*
X200953248Y-77714714D01*
X200910833Y-77686373D01*
X199405460Y-76181000D01*
X199576318Y-76181000D01*
X199920803Y-76112478D01*
X200311453Y-75851453D01*
X200572478Y-75460803D01*
X200664137Y-75000000D01*
X200572478Y-74539197D01*
X200345833Y-74200000D01*
X200811536Y-74200000D01*
X200811536Y-75800000D01*
X200841106Y-75948659D01*
X200925314Y-76074686D01*
X201051341Y-76158894D01*
X201200000Y-76188464D01*
X202800000Y-76188464D01*
X202948659Y-76158894D01*
X203074686Y-76074686D01*
X203145275Y-75969042D01*
X203229371Y-76123000D01*
X204373000Y-76123000D01*
X204373000Y-74980085D01*
X204150961Y-74858096D01*
X203762577Y-75018959D01*
X203347611Y-75394866D01*
X203188464Y-75731128D01*
X203188464Y-74200000D01*
X203158894Y-74051341D01*
X203074686Y-73925314D01*
X203048000Y-73907483D01*
X203048000Y-73080942D01*
X203391453Y-72851453D01*
X203652478Y-72460803D01*
X203744137Y-72000000D01*
X203674710Y-71650961D01*
X206568096Y-71650961D01*
X206690085Y-71873000D01*
X207833000Y-71873000D01*
X207833000Y-70729371D01*
X207610959Y-70608086D01*
X207104866Y-70847611D01*
X206728959Y-71262577D01*
X206568096Y-71650961D01*
X203674710Y-71650961D01*
X203652478Y-71539197D01*
X203391453Y-71148547D01*
X203000803Y-70887522D01*
X202656318Y-70819000D01*
X202423682Y-70819000D01*
X202079197Y-70887522D01*
X201688547Y-71148547D01*
X201427522Y-71539197D01*
X201335863Y-72000000D01*
X201427522Y-72460803D01*
X201688547Y-72851453D01*
X202032000Y-73080942D01*
X202032001Y-73811536D01*
X201200000Y-73811536D01*
X201051341Y-73841106D01*
X200925314Y-73925314D01*
X200841106Y-74051341D01*
X200811536Y-74200000D01*
X200345833Y-74200000D01*
X200311453Y-74148547D01*
X199920803Y-73887522D01*
X199576318Y-73819000D01*
X199343682Y-73819000D01*
X198999197Y-73887522D01*
X198608547Y-74148547D01*
X198527361Y-74270050D01*
X198525526Y-74260827D01*
X198487802Y-74204369D01*
X198441589Y-74135206D01*
X198441587Y-74135204D01*
X198413248Y-74092792D01*
X198370836Y-74064453D01*
X197401539Y-73095157D01*
X197373198Y-73052742D01*
X197205163Y-72940464D01*
X197056983Y-72910989D01*
X197056979Y-72910989D01*
X197006951Y-72901038D01*
X196956923Y-72910989D01*
X190931039Y-72910989D01*
X190881011Y-72901038D01*
X190830983Y-72910989D01*
X190830979Y-72910989D01*
X190719524Y-72933159D01*
X190682799Y-72940464D01*
X190557178Y-73024401D01*
X190557176Y-73024403D01*
X190514764Y-73052742D01*
X190486425Y-73095154D01*
X189776167Y-73805413D01*
X189705132Y-73876448D01*
X189416318Y-73819000D01*
X189183682Y-73819000D01*
X188839197Y-73887522D01*
X188448547Y-74148547D01*
X188187522Y-74539197D01*
X188095863Y-75000000D01*
X188187522Y-75460803D01*
X188448547Y-75851453D01*
X188839197Y-76112478D01*
X189183682Y-76181000D01*
X189416318Y-76181000D01*
X189760803Y-76112478D01*
X190151453Y-75851453D01*
X190412478Y-75460803D01*
X190504137Y-75000000D01*
X190423552Y-74594868D01*
X190494587Y-74523833D01*
X191091432Y-73926989D01*
X191320131Y-73926989D01*
X190988547Y-74148547D01*
X190727522Y-74539197D01*
X190635863Y-75000000D01*
X190727522Y-75460803D01*
X190988547Y-75851453D01*
X191379197Y-76112478D01*
X191723682Y-76181000D01*
X191956318Y-76181000D01*
X192300803Y-76112478D01*
X192691453Y-75851453D01*
X192952478Y-75460803D01*
X193044137Y-75000000D01*
X192963552Y-74594869D01*
X193177422Y-74380999D01*
X193373227Y-74380999D01*
X193267522Y-74539197D01*
X193175863Y-75000000D01*
X193256448Y-75405131D01*
X192929167Y-75732413D01*
X192886752Y-75760754D01*
X192774474Y-75928790D01*
X192744999Y-76076970D01*
X192744999Y-76076973D01*
X192735048Y-76127001D01*
X192744999Y-76177029D01*
X192745000Y-81848685D01*
X192691453Y-81768547D01*
X192300803Y-81507522D01*
X191956318Y-81439000D01*
X191723682Y-81439000D01*
X191379197Y-81507522D01*
X190988547Y-81768547D01*
X190727522Y-82159197D01*
X190635863Y-82620000D01*
X190727522Y-83080803D01*
X190988547Y-83471453D01*
X191379197Y-83732478D01*
X191723682Y-83801000D01*
X191956318Y-83801000D01*
X192300803Y-83732478D01*
X192691453Y-83471453D01*
X192745000Y-83391315D01*
X192745000Y-83576579D01*
X192016167Y-84305413D01*
X191945132Y-84376448D01*
X191656318Y-84319000D01*
X191423682Y-84319000D01*
X191079197Y-84387522D01*
X190688547Y-84648547D01*
X190427522Y-85039197D01*
X190335863Y-85500000D01*
X190427522Y-85960803D01*
X190688547Y-86351453D01*
X191032001Y-86580942D01*
X191032000Y-88749579D01*
X190953300Y-88828279D01*
X190749834Y-88744000D01*
X190250166Y-88744000D01*
X189809419Y-88926564D01*
X189805999Y-88909366D01*
X189805999Y-88909365D01*
X189776524Y-88761185D01*
X189664246Y-88593150D01*
X189621832Y-88564810D01*
X189508000Y-88450978D01*
X189508000Y-86567884D01*
X189668983Y-86501203D01*
X190001203Y-86168983D01*
X190181000Y-85734915D01*
X190181000Y-85265085D01*
X190001203Y-84831017D01*
X189668983Y-84498797D01*
X189234915Y-84319000D01*
X188765085Y-84319000D01*
X188331017Y-84498797D01*
X187998797Y-84831017D01*
X187932116Y-84992000D01*
X187918658Y-84992000D01*
X187868630Y-84982049D01*
X187818602Y-84992000D01*
X187818598Y-84992000D01*
X187670418Y-85021475D01*
X187544797Y-85105412D01*
X187544795Y-85105414D01*
X187502383Y-85133753D01*
X187474044Y-85176165D01*
X187287692Y-85362518D01*
X187347419Y-85192878D01*
X187318664Y-84662560D01*
X187171042Y-84306169D01*
X186935275Y-84244331D01*
X186179605Y-85000000D01*
X186193748Y-85014142D01*
X186014143Y-85193748D01*
X186000000Y-85179605D01*
X185985858Y-85193748D01*
X185806252Y-85014142D01*
X185820395Y-85000000D01*
X185064725Y-84244331D01*
X184828958Y-84306169D01*
X184652581Y-84807122D01*
X184681336Y-85337440D01*
X184756541Y-85519001D01*
X184455089Y-85519001D01*
X184581000Y-85215024D01*
X184581000Y-84784976D01*
X184416428Y-84387663D01*
X184112337Y-84083572D01*
X184008000Y-84040354D01*
X184008000Y-83781968D01*
X184103682Y-83801000D01*
X184336318Y-83801000D01*
X184680803Y-83732478D01*
X185071453Y-83471453D01*
X185332478Y-83080803D01*
X185398875Y-82747002D01*
X185489370Y-82747002D01*
X185368086Y-82969041D01*
X185607611Y-83475134D01*
X185825486Y-83672502D01*
X185662560Y-83681336D01*
X185306169Y-83828958D01*
X185244331Y-84064725D01*
X186000000Y-84820395D01*
X186755669Y-84064725D01*
X186693831Y-83828958D01*
X186633000Y-83807540D01*
X186633000Y-82747000D01*
X186613000Y-82747000D01*
X186613000Y-82493000D01*
X186633000Y-82493000D01*
X186633000Y-81350085D01*
X186887000Y-81350085D01*
X186887000Y-82493000D01*
X186907000Y-82493000D01*
X186907000Y-82747000D01*
X186887000Y-82747000D01*
X186887000Y-83889915D01*
X187109039Y-84011904D01*
X187497423Y-83851041D01*
X187912389Y-83475134D01*
X188151914Y-82969041D01*
X188030630Y-82747002D01*
X188121125Y-82747002D01*
X188187522Y-83080803D01*
X188448547Y-83471453D01*
X188839197Y-83732478D01*
X189183682Y-83801000D01*
X189416318Y-83801000D01*
X189760803Y-83732478D01*
X190151453Y-83471453D01*
X190412478Y-83080803D01*
X190504137Y-82620000D01*
X190412478Y-82159197D01*
X190151453Y-81768547D01*
X189760803Y-81507522D01*
X189416318Y-81439000D01*
X189183682Y-81439000D01*
X188839197Y-81507522D01*
X188448547Y-81768547D01*
X188187522Y-82159197D01*
X188121125Y-82492998D01*
X188030630Y-82492998D01*
X188151914Y-82270959D01*
X187912389Y-81764866D01*
X187497423Y-81388959D01*
X187109039Y-81228096D01*
X186887000Y-81350085D01*
X186633000Y-81350085D01*
X186410961Y-81228096D01*
X186022577Y-81388959D01*
X185607611Y-81764866D01*
X185368086Y-82270959D01*
X185489370Y-82492998D01*
X185398875Y-82492998D01*
X185332478Y-82159197D01*
X185071453Y-81768547D01*
X184680803Y-81507522D01*
X184336318Y-81439000D01*
X184103682Y-81439000D01*
X183759197Y-81507522D01*
X183368547Y-81768547D01*
X183107522Y-82159197D01*
X183015863Y-82620000D01*
X183097131Y-83028562D01*
X183021475Y-83141789D01*
X182982049Y-83340000D01*
X182992001Y-83390033D01*
X182992001Y-84040354D01*
X182887663Y-84083572D01*
X182675001Y-84296234D01*
X182675001Y-84288398D01*
X182684952Y-84238370D01*
X182675001Y-84188340D01*
X182675001Y-84188339D01*
X182645526Y-84040159D01*
X182533248Y-83872124D01*
X182490834Y-83843784D01*
X182283908Y-83636858D01*
X182531453Y-83471453D01*
X182792478Y-83080803D01*
X182884137Y-82620000D01*
X182792478Y-82159197D01*
X182569000Y-81824740D01*
X182569000Y-80448235D01*
X186836236Y-76181000D01*
X186876318Y-76181000D01*
X187220803Y-76112478D01*
X187611453Y-75851453D01*
X187872478Y-75460803D01*
X187964137Y-75000000D01*
X187872478Y-74539197D01*
X187649000Y-74204740D01*
X187649000Y-73379765D01*
X187916428Y-73112337D01*
X188081000Y-72715024D01*
X188081000Y-72508000D01*
X198932116Y-72508000D01*
X198998797Y-72668983D01*
X199331017Y-73001203D01*
X199765085Y-73181000D01*
X200234915Y-73181000D01*
X200668983Y-73001203D01*
X201001203Y-72668983D01*
X201181000Y-72234915D01*
X201181000Y-71765085D01*
X201001203Y-71331017D01*
X200668983Y-70998797D01*
X200234915Y-70819000D01*
X199765085Y-70819000D01*
X199331017Y-70998797D01*
X198998797Y-71331017D01*
X198932116Y-71492000D01*
X187550028Y-71492000D01*
X187500000Y-71482049D01*
X187449972Y-71492000D01*
X187449968Y-71492000D01*
X187410308Y-71499889D01*
X187215024Y-71419000D01*
X186784976Y-71419000D01*
X186387663Y-71583572D01*
X186083572Y-71887663D01*
X185919000Y-72284976D01*
X185919000Y-72411138D01*
X185853584Y-72740000D01*
X185871001Y-72827559D01*
X185871000Y-74204739D01*
X185647522Y-74539197D01*
X185581126Y-74872998D01*
X185490630Y-74872998D01*
X185611914Y-74650959D01*
X185372389Y-74144866D01*
X184957428Y-73768963D01*
X185193831Y-73671042D01*
X185255669Y-73435275D01*
X184500000Y-72679605D01*
X183744331Y-73435275D01*
X183797626Y-73638470D01*
X183482577Y-73768959D01*
X183067611Y-74144866D01*
X182828086Y-74650959D01*
X182949370Y-74872998D01*
X182858875Y-74872998D01*
X182792478Y-74539197D01*
X182531453Y-74148547D01*
X182140803Y-73887522D01*
X181796318Y-73819000D01*
X181563682Y-73819000D01*
X181274868Y-73876448D01*
X181274591Y-73876171D01*
X181274589Y-73876168D01*
X179705543Y-72307122D01*
X183152581Y-72307122D01*
X183181336Y-72837440D01*
X183328958Y-73193831D01*
X183564725Y-73255669D01*
X184320395Y-72500000D01*
X184679605Y-72500000D01*
X185435275Y-73255669D01*
X185671042Y-73193831D01*
X185847419Y-72692878D01*
X185818664Y-72162560D01*
X185671042Y-71806169D01*
X185435275Y-71744331D01*
X184679605Y-72500000D01*
X184320395Y-72500000D01*
X183564725Y-71744331D01*
X183328958Y-71806169D01*
X183152581Y-72307122D01*
X179705543Y-72307122D01*
X179620578Y-72222158D01*
X179592237Y-72179743D01*
X179424202Y-72067465D01*
X179276022Y-72037990D01*
X179276018Y-72037990D01*
X179225990Y-72028039D01*
X179175962Y-72037990D01*
X166504037Y-72037990D01*
X166454009Y-72028039D01*
X166403981Y-72037990D01*
X166403978Y-72037990D01*
X166255798Y-72067465D01*
X166130177Y-72151402D01*
X166130175Y-72151404D01*
X166087763Y-72179743D01*
X166059424Y-72222155D01*
X164357630Y-73923950D01*
X164224970Y-73869000D01*
X163775030Y-73869000D01*
X163359340Y-74041184D01*
X163041184Y-74359340D01*
X162986235Y-74492000D01*
X160688464Y-74492000D01*
X160688464Y-74200000D01*
X160658894Y-74051341D01*
X160574686Y-73925314D01*
X160448659Y-73841106D01*
X160300000Y-73811536D01*
X158700000Y-73811536D01*
X158551341Y-73841106D01*
X158425314Y-73925314D01*
X158341106Y-74051341D01*
X158311536Y-74200000D01*
X158311536Y-74385227D01*
X158253864Y-74245995D01*
X158007745Y-74171861D01*
X157179605Y-75000000D01*
X158007745Y-75828139D01*
X158253864Y-75754005D01*
X158311536Y-75593555D01*
X158311536Y-75800000D01*
X158341106Y-75948659D01*
X158425314Y-76074686D01*
X158551341Y-76158894D01*
X158700000Y-76188464D01*
X160300000Y-76188464D01*
X160448659Y-76158894D01*
X160574686Y-76074686D01*
X160658894Y-75948659D01*
X160688464Y-75800000D01*
X160688464Y-75508000D01*
X162986235Y-75508000D01*
X163041184Y-75640660D01*
X163359340Y-75958816D01*
X163775030Y-76131000D01*
X164224970Y-76131000D01*
X164640660Y-75958816D01*
X164958816Y-75640660D01*
X165131000Y-75224970D01*
X165131000Y-75000000D01*
X167775863Y-75000000D01*
X167867522Y-75460803D01*
X168128547Y-75851453D01*
X168519197Y-76112478D01*
X168863682Y-76181000D01*
X169096318Y-76181000D01*
X169440803Y-76112478D01*
X169831453Y-75851453D01*
X170092478Y-75460803D01*
X170184137Y-75000000D01*
X170315863Y-75000000D01*
X170407522Y-75460803D01*
X170668547Y-75851453D01*
X171059197Y-76112478D01*
X171403682Y-76181000D01*
X171636318Y-76181000D01*
X171980803Y-76112478D01*
X172371453Y-75851453D01*
X172632478Y-75460803D01*
X172724137Y-75000000D01*
X172632478Y-74539197D01*
X172371453Y-74148547D01*
X171980803Y-73887522D01*
X171636318Y-73819000D01*
X171403682Y-73819000D01*
X171059197Y-73887522D01*
X170668547Y-74148547D01*
X170407522Y-74539197D01*
X170315863Y-75000000D01*
X170184137Y-75000000D01*
X170092478Y-74539197D01*
X169831453Y-74148547D01*
X169440803Y-73887522D01*
X169096318Y-73819000D01*
X168863682Y-73819000D01*
X168519197Y-73887522D01*
X168128547Y-74148547D01*
X167867522Y-74539197D01*
X167775863Y-75000000D01*
X165131000Y-75000000D01*
X165131000Y-74775030D01*
X165076050Y-74642370D01*
X166664431Y-73053990D01*
X175727589Y-73053990D01*
X175149165Y-73632415D01*
X175106753Y-73660754D01*
X175078414Y-73703166D01*
X175078411Y-73703169D01*
X174994474Y-73828790D01*
X174955048Y-74027001D01*
X174965000Y-74077033D01*
X174965000Y-74228685D01*
X174911453Y-74148547D01*
X174520803Y-73887522D01*
X174176318Y-73819000D01*
X173943682Y-73819000D01*
X173599197Y-73887522D01*
X173208547Y-74148547D01*
X172947522Y-74539197D01*
X172855863Y-75000000D01*
X172947522Y-75460803D01*
X173208547Y-75851453D01*
X173599197Y-76112478D01*
X173847644Y-76161897D01*
X170637542Y-79372000D01*
X165013765Y-79372000D01*
X164958816Y-79239340D01*
X164640660Y-78921184D01*
X164224970Y-78749000D01*
X163775030Y-78749000D01*
X163359340Y-78921184D01*
X163041184Y-79239340D01*
X162869000Y-79655030D01*
X162869000Y-80104970D01*
X162876054Y-80121999D01*
X162420028Y-80121999D01*
X162370000Y-80112048D01*
X162319972Y-80121999D01*
X162319969Y-80121999D01*
X162171789Y-80151474D01*
X162003754Y-80263752D01*
X161975413Y-80306167D01*
X161789580Y-80492000D01*
X160688464Y-80492000D01*
X160688464Y-80200000D01*
X160658894Y-80051341D01*
X160574686Y-79925314D01*
X160448659Y-79841106D01*
X160300000Y-79811536D01*
X158700000Y-79811536D01*
X158551341Y-79841106D01*
X158425314Y-79925314D01*
X158341106Y-80051341D01*
X158311536Y-80200000D01*
X158311536Y-80385227D01*
X158253864Y-80245995D01*
X158007745Y-80171861D01*
X157179605Y-81000000D01*
X157193748Y-81014142D01*
X157014142Y-81193748D01*
X157000000Y-81179605D01*
X156985858Y-81193748D01*
X156806252Y-81014142D01*
X156820395Y-81000000D01*
X155992255Y-80171861D01*
X155746136Y-80245995D01*
X155553035Y-80783223D01*
X155580222Y-81353454D01*
X155690215Y-81619001D01*
X154456237Y-81619001D01*
X153877989Y-81040754D01*
X153886096Y-81000000D01*
X153786675Y-80500179D01*
X153503549Y-80076451D01*
X153377541Y-79992255D01*
X156171861Y-79992255D01*
X157000000Y-80820395D01*
X157828139Y-79992255D01*
X157754005Y-79746136D01*
X157216777Y-79553035D01*
X156646546Y-79580222D01*
X156245995Y-79746136D01*
X156171861Y-79992255D01*
X153377541Y-79992255D01*
X153079821Y-79793325D01*
X152706166Y-79719000D01*
X152556235Y-79719000D01*
X152389000Y-79551765D01*
X152389000Y-77170761D01*
X152448659Y-77158894D01*
X152574686Y-77074686D01*
X152658894Y-76948659D01*
X152688464Y-76800000D01*
X152688464Y-76007745D01*
X156171861Y-76007745D01*
X156245995Y-76253864D01*
X156783223Y-76446965D01*
X157353454Y-76419778D01*
X157754005Y-76253864D01*
X157828139Y-76007745D01*
X157000000Y-75179605D01*
X156171861Y-76007745D01*
X152688464Y-76007745D01*
X152688464Y-75200000D01*
X152658894Y-75051341D01*
X152574686Y-74925314D01*
X152448659Y-74841106D01*
X152300000Y-74811536D01*
X152114773Y-74811536D01*
X152183126Y-74783223D01*
X155553035Y-74783223D01*
X155580222Y-75353454D01*
X155746136Y-75754005D01*
X155992255Y-75828139D01*
X156820395Y-75000000D01*
X155992255Y-74171861D01*
X155746136Y-74245995D01*
X155553035Y-74783223D01*
X152183126Y-74783223D01*
X152254005Y-74753864D01*
X152328139Y-74507745D01*
X151500000Y-73679605D01*
X150671861Y-74507745D01*
X150745995Y-74753864D01*
X150906445Y-74811536D01*
X150700000Y-74811536D01*
X150551341Y-74841106D01*
X150425314Y-74925314D01*
X150341106Y-75051341D01*
X150311536Y-75200000D01*
X150311536Y-76800000D01*
X150341106Y-76948659D01*
X150425314Y-77074686D01*
X150551341Y-77158894D01*
X150611000Y-77170761D01*
X150611001Y-79605116D01*
X150404742Y-79508954D01*
X150167000Y-79629003D01*
X150167000Y-80873000D01*
X150187000Y-80873000D01*
X150187000Y-81127000D01*
X150167000Y-81127000D01*
X150167000Y-82370997D01*
X150404742Y-82491046D01*
X150947576Y-82237966D01*
X151352240Y-81796417D01*
X151436146Y-81593839D01*
X151656451Y-81923549D01*
X152080179Y-82206675D01*
X152453834Y-82281000D01*
X152603765Y-82281000D01*
X153397471Y-83074707D01*
X153447068Y-83148934D01*
X153741131Y-83345420D01*
X154000445Y-83397001D01*
X154000449Y-83397001D01*
X154088000Y-83414416D01*
X154175551Y-83397001D01*
X164961847Y-83397001D01*
X166630407Y-85065562D01*
X166380424Y-85439688D01*
X166284884Y-85920000D01*
X166380424Y-86400312D01*
X166652499Y-86807501D01*
X167059688Y-87079576D01*
X167418761Y-87151000D01*
X167661239Y-87151000D01*
X168020312Y-87079576D01*
X168425258Y-86809000D01*
X172492445Y-86809000D01*
X172580000Y-86826416D01*
X172667555Y-86809000D01*
X172667556Y-86809000D01*
X172926870Y-86757419D01*
X172970818Y-86728054D01*
X173817472Y-87574708D01*
X173867068Y-87648934D01*
X174161131Y-87845420D01*
X174420445Y-87897001D01*
X174420449Y-87897001D01*
X174508000Y-87914416D01*
X174595551Y-87897001D01*
X176904444Y-87897001D01*
X176991999Y-87914417D01*
X177079554Y-87897001D01*
X177079555Y-87897001D01*
X177338869Y-87845420D01*
X177632932Y-87648934D01*
X177682530Y-87574705D01*
X178390530Y-86866706D01*
X178390532Y-86866703D01*
X178576235Y-86681000D01*
X178734915Y-86681000D01*
X179168983Y-86501203D01*
X179501203Y-86168983D01*
X179581071Y-85976164D01*
X179872591Y-85684644D01*
X179927522Y-85960803D01*
X180188547Y-86351453D01*
X180532000Y-86580942D01*
X180532001Y-88744000D01*
X180250166Y-88744000D01*
X179788533Y-88935215D01*
X179435215Y-89288533D01*
X179393736Y-89388671D01*
X179315953Y-89200884D01*
X179062060Y-89117545D01*
X178179605Y-90000000D01*
X179062060Y-90882455D01*
X179315953Y-90799116D01*
X179388753Y-90599298D01*
X179435215Y-90711467D01*
X179788533Y-91064785D01*
X180250166Y-91256000D01*
X180749834Y-91256000D01*
X181211467Y-91064785D01*
X181564785Y-90711467D01*
X181756000Y-90249834D01*
X181756000Y-89750166D01*
X181564785Y-89288533D01*
X181548000Y-89271748D01*
X181548000Y-86580942D01*
X181891453Y-86351453D01*
X182152478Y-85960803D01*
X182164082Y-85902465D01*
X182612453Y-86350836D01*
X182640792Y-86393248D01*
X182683204Y-86421587D01*
X182683206Y-86421589D01*
X182797878Y-86498210D01*
X182808827Y-86505526D01*
X182957007Y-86535001D01*
X182957010Y-86535001D01*
X183007038Y-86544952D01*
X183057066Y-86535001D01*
X187291601Y-86535001D01*
X187341629Y-86544952D01*
X187391657Y-86535001D01*
X187391661Y-86535001D01*
X187539841Y-86505526D01*
X187707876Y-86393248D01*
X187736217Y-86350834D01*
X187975152Y-86111899D01*
X187998797Y-86168983D01*
X188331017Y-86501203D01*
X188492000Y-86567885D01*
X188492001Y-88490000D01*
X188285750Y-88490000D01*
X188127000Y-88648750D01*
X188127000Y-89873000D01*
X188147000Y-89873000D01*
X188147000Y-90127000D01*
X188127000Y-90127000D01*
X188127000Y-91351250D01*
X188285750Y-91510000D01*
X189001309Y-91510000D01*
X189234698Y-91413327D01*
X189325322Y-91322704D01*
X189826452Y-91823835D01*
X189854791Y-91866247D01*
X189897203Y-91894586D01*
X189897205Y-91894588D01*
X190022826Y-91978525D01*
X190171006Y-92008000D01*
X190171009Y-92008000D01*
X190221037Y-92017951D01*
X190271065Y-92008000D01*
X191983640Y-92008000D01*
X192021475Y-92198211D01*
X192105412Y-92323832D01*
X192105415Y-92323835D01*
X192133754Y-92366247D01*
X192176165Y-92394586D01*
X192227590Y-92446010D01*
X187414431Y-92446010D01*
X185254171Y-90285750D01*
X186490000Y-90285750D01*
X186490000Y-91001310D01*
X186586673Y-91234699D01*
X186765302Y-91413327D01*
X186998691Y-91510000D01*
X187714250Y-91510000D01*
X187873000Y-91351250D01*
X187873000Y-90127000D01*
X186648750Y-90127000D01*
X186490000Y-90285750D01*
X185254171Y-90285750D01*
X185008000Y-90039580D01*
X185008000Y-89319630D01*
X185145992Y-89181638D01*
X185221771Y-88998690D01*
X186490000Y-88998690D01*
X186490000Y-89714250D01*
X186648750Y-89873000D01*
X187873000Y-89873000D01*
X187873000Y-88648750D01*
X187714250Y-88490000D01*
X186998691Y-88490000D01*
X186765302Y-88586673D01*
X186586673Y-88765301D01*
X186490000Y-88998690D01*
X185221771Y-88998690D01*
X185262000Y-88901571D01*
X185262000Y-88598429D01*
X185145992Y-88318362D01*
X184931638Y-88104008D01*
X184651571Y-87988000D01*
X184348429Y-87988000D01*
X184068362Y-88104008D01*
X183854008Y-88318362D01*
X183738000Y-88598429D01*
X183738000Y-88901571D01*
X183854008Y-89181638D01*
X183992001Y-89319631D01*
X183992000Y-90199972D01*
X183982049Y-90250000D01*
X183992000Y-90300028D01*
X183992000Y-90300031D01*
X184010701Y-90394045D01*
X184021475Y-90448211D01*
X184050294Y-90491341D01*
X184133753Y-90616247D01*
X184176168Y-90644588D01*
X186809424Y-93277845D01*
X186837763Y-93320257D01*
X186880175Y-93348596D01*
X186880177Y-93348598D01*
X186945296Y-93392108D01*
X187005798Y-93432535D01*
X187153978Y-93462010D01*
X187153982Y-93462010D01*
X187204010Y-93471961D01*
X187254038Y-93462010D01*
X199274924Y-93462010D01*
X199324952Y-93471961D01*
X199374980Y-93462010D01*
X199374984Y-93462010D01*
X199523164Y-93432535D01*
X199691199Y-93320257D01*
X199719540Y-93277842D01*
X202025836Y-90971547D01*
X202068248Y-90943208D01*
X202096587Y-90900796D01*
X202096589Y-90900794D01*
X202180526Y-90775173D01*
X202199621Y-90679174D01*
X202210001Y-90626993D01*
X202210001Y-90626989D01*
X202219952Y-90576961D01*
X202210001Y-90526933D01*
X202210001Y-89650486D01*
X202254532Y-89605955D01*
X205519000Y-89605955D01*
X205519000Y-90394045D01*
X205820589Y-91122146D01*
X206377854Y-91679411D01*
X207105955Y-91981000D01*
X207894045Y-91981000D01*
X208622146Y-91679411D01*
X209179411Y-91122146D01*
X209481000Y-90394045D01*
X209481000Y-89605955D01*
X209179411Y-88877854D01*
X208622146Y-88320589D01*
X207894045Y-88019000D01*
X207105955Y-88019000D01*
X206377854Y-88320589D01*
X205820589Y-88877854D01*
X205519000Y-89605955D01*
X202254532Y-89605955D01*
X206961536Y-84898951D01*
X206961536Y-86400000D01*
X206991106Y-86548659D01*
X207075314Y-86674686D01*
X207201341Y-86758894D01*
X207350000Y-86788464D01*
X207758795Y-86788464D01*
X207771475Y-86852211D01*
X207855412Y-86977832D01*
X207855415Y-86977835D01*
X207883754Y-87020247D01*
X207926166Y-87048586D01*
X210242000Y-89364421D01*
X210242001Y-89568595D01*
X210242000Y-89568599D01*
X210242000Y-89682116D01*
X210081017Y-89748797D01*
X209748797Y-90081017D01*
X209569000Y-90515085D01*
X209569000Y-90984915D01*
X209748797Y-91418983D01*
X210081017Y-91751203D01*
X210515085Y-91931000D01*
X210622998Y-91931000D01*
X210622998Y-92020084D01*
X210400961Y-91898096D01*
X210012577Y-92058959D01*
X209597611Y-92434866D01*
X209358086Y-92940959D01*
X209479371Y-93163000D01*
X210623000Y-93163000D01*
X210623000Y-93143000D01*
X210877000Y-93143000D01*
X210877000Y-93163000D01*
X210897000Y-93163000D01*
X210897000Y-93417000D01*
X210877000Y-93417000D01*
X210877000Y-93437000D01*
X210623000Y-93437000D01*
X210623000Y-93417000D01*
X209479371Y-93417000D01*
X209358086Y-93639041D01*
X209597611Y-94145134D01*
X210012577Y-94521041D01*
X210068009Y-94544000D01*
X115456000Y-94544000D01*
X115456000Y-89605955D01*
X118019000Y-89605955D01*
X118019000Y-90394045D01*
X118320589Y-91122146D01*
X118877854Y-91679411D01*
X119605955Y-91981000D01*
X120394045Y-91981000D01*
X121122146Y-91679411D01*
X121679411Y-91122146D01*
X121981000Y-90394045D01*
X121981000Y-89605955D01*
X121679411Y-88877854D01*
X121122146Y-88320589D01*
X120394045Y-88019000D01*
X119605955Y-88019000D01*
X118877854Y-88320589D01*
X118320589Y-88877854D01*
X118019000Y-89605955D01*
X115456000Y-89605955D01*
X115456000Y-78849041D01*
X125108086Y-78849041D01*
X125347611Y-79355134D01*
X125762577Y-79731041D01*
X126150961Y-79891904D01*
X126372998Y-79769916D01*
X126372998Y-79859000D01*
X126265085Y-79859000D01*
X125831017Y-80038797D01*
X125498797Y-80371017D01*
X125319000Y-80805085D01*
X125319000Y-81274915D01*
X125385682Y-81435898D01*
X125376167Y-81445413D01*
X125333755Y-81473752D01*
X125305416Y-81516164D01*
X125305413Y-81516167D01*
X125221476Y-81641788D01*
X125182050Y-81839999D01*
X125192002Y-81890032D01*
X125192001Y-90803973D01*
X125182050Y-90854001D01*
X125192001Y-90904029D01*
X125192001Y-90904032D01*
X125211351Y-91001310D01*
X125221476Y-91052212D01*
X125304301Y-91176168D01*
X125333754Y-91220248D01*
X125376169Y-91248589D01*
X125951411Y-91823831D01*
X125979753Y-91866247D01*
X126147788Y-91978525D01*
X126211536Y-91991205D01*
X126211536Y-92400000D01*
X126241106Y-92548659D01*
X126325314Y-92674686D01*
X126451341Y-92758894D01*
X126600000Y-92788464D01*
X128400000Y-92788464D01*
X128548659Y-92758894D01*
X128674686Y-92674686D01*
X128758894Y-92548659D01*
X128788464Y-92400000D01*
X128788464Y-92352884D01*
X130759414Y-94323835D01*
X130787753Y-94366247D01*
X130830165Y-94394586D01*
X130830167Y-94394588D01*
X130955788Y-94478525D01*
X131103968Y-94508000D01*
X131103972Y-94508000D01*
X131154000Y-94517951D01*
X131204028Y-94508000D01*
X160117934Y-94508000D01*
X160167962Y-94517951D01*
X160217990Y-94508000D01*
X160217994Y-94508000D01*
X160366174Y-94478525D01*
X160534209Y-94366247D01*
X160562550Y-94323832D01*
X163768360Y-91118022D01*
X163840424Y-91480312D01*
X164112499Y-91887501D01*
X164519688Y-92159576D01*
X164878761Y-92231000D01*
X165121239Y-92231000D01*
X165480312Y-92159576D01*
X165887501Y-91887501D01*
X166153445Y-91489488D01*
X166268355Y-91766924D01*
X166658642Y-92195183D01*
X167183108Y-92441486D01*
X167413000Y-92320819D01*
X167413000Y-91127000D01*
X167667000Y-91127000D01*
X167667000Y-92320819D01*
X167896892Y-92441486D01*
X168421358Y-92195183D01*
X168811645Y-91766924D01*
X168981476Y-91356890D01*
X168860155Y-91127000D01*
X167667000Y-91127000D01*
X167413000Y-91127000D01*
X167393000Y-91127000D01*
X167393000Y-90873000D01*
X167413000Y-90873000D01*
X167413000Y-90853000D01*
X167667000Y-90853000D01*
X167667000Y-90873000D01*
X168860155Y-90873000D01*
X168981476Y-90643110D01*
X168833462Y-90285750D01*
X171490000Y-90285750D01*
X171490000Y-91001310D01*
X171586673Y-91234699D01*
X171765302Y-91413327D01*
X171998691Y-91510000D01*
X172714250Y-91510000D01*
X172873000Y-91351250D01*
X172873000Y-90127000D01*
X171648750Y-90127000D01*
X171490000Y-90285750D01*
X168833462Y-90285750D01*
X168811645Y-90233076D01*
X168421358Y-89804817D01*
X168023037Y-89617755D01*
X168427501Y-89347501D01*
X168660569Y-88998690D01*
X171490000Y-88998690D01*
X171490000Y-89714250D01*
X171648750Y-89873000D01*
X172873000Y-89873000D01*
X172873000Y-88648750D01*
X173127000Y-88648750D01*
X173127000Y-89873000D01*
X173147000Y-89873000D01*
X173147000Y-90127000D01*
X173127000Y-90127000D01*
X173127000Y-91351250D01*
X173285750Y-91510000D01*
X174001309Y-91510000D01*
X174234698Y-91413327D01*
X174413327Y-91234699D01*
X174510000Y-91001310D01*
X174510000Y-90786252D01*
X174788533Y-91064785D01*
X175250166Y-91256000D01*
X175749834Y-91256000D01*
X176211467Y-91064785D01*
X176214192Y-91062060D01*
X177117545Y-91062060D01*
X177200884Y-91315953D01*
X177765306Y-91521590D01*
X178365458Y-91495579D01*
X178799116Y-91315953D01*
X178882455Y-91062060D01*
X178000000Y-90179605D01*
X177117545Y-91062060D01*
X176214192Y-91062060D01*
X176564785Y-90711467D01*
X176606264Y-90611329D01*
X176684047Y-90799116D01*
X176937940Y-90882455D01*
X177820395Y-90000000D01*
X176937940Y-89117545D01*
X176684047Y-89200884D01*
X176611247Y-89400702D01*
X176564785Y-89288533D01*
X176214192Y-88937940D01*
X177117545Y-88937940D01*
X178000000Y-89820395D01*
X178882455Y-88937940D01*
X178799116Y-88684047D01*
X178234694Y-88478410D01*
X177634542Y-88504421D01*
X177200884Y-88684047D01*
X177117545Y-88937940D01*
X176214192Y-88937940D01*
X176211467Y-88935215D01*
X175749834Y-88744000D01*
X175250166Y-88744000D01*
X174788533Y-88935215D01*
X174510000Y-89213748D01*
X174510000Y-88998690D01*
X174413327Y-88765301D01*
X174234698Y-88586673D01*
X174001309Y-88490000D01*
X173285750Y-88490000D01*
X173127000Y-88648750D01*
X172873000Y-88648750D01*
X172714250Y-88490000D01*
X171998691Y-88490000D01*
X171765302Y-88586673D01*
X171586673Y-88765301D01*
X171490000Y-88998690D01*
X168660569Y-88998690D01*
X168699576Y-88940312D01*
X168795116Y-88460000D01*
X168699576Y-87979688D01*
X168427501Y-87572499D01*
X168020312Y-87300424D01*
X167661239Y-87229000D01*
X167418761Y-87229000D01*
X167059688Y-87300424D01*
X166652499Y-87572499D01*
X166380424Y-87979688D01*
X166284884Y-88460000D01*
X166373928Y-88907652D01*
X166152579Y-89129001D01*
X166033498Y-89129001D01*
X166159576Y-88940312D01*
X166255116Y-88460000D01*
X166159576Y-87979688D01*
X165887501Y-87572499D01*
X165480312Y-87300424D01*
X165121239Y-87229000D01*
X164878761Y-87229000D01*
X164519688Y-87300424D01*
X164112499Y-87572499D01*
X163840424Y-87979688D01*
X163744884Y-88460000D01*
X163840424Y-88940312D01*
X164108310Y-89341232D01*
X162181000Y-91268542D01*
X162181000Y-91265085D01*
X162001203Y-90831017D01*
X161668983Y-90498797D01*
X161234915Y-90319000D01*
X161127002Y-90319000D01*
X161127002Y-90229916D01*
X161349039Y-90351904D01*
X161737423Y-90191041D01*
X162152389Y-89815134D01*
X162391914Y-89309041D01*
X162270629Y-89087000D01*
X161127000Y-89087000D01*
X161127000Y-89107000D01*
X160873000Y-89107000D01*
X160873000Y-89087000D01*
X159729371Y-89087000D01*
X159608086Y-89309041D01*
X159847611Y-89815134D01*
X160262577Y-90191041D01*
X160650961Y-90351904D01*
X160872998Y-90229916D01*
X160872998Y-90319000D01*
X160765085Y-90319000D01*
X160331017Y-90498797D01*
X159998797Y-90831017D01*
X159932116Y-90992000D01*
X158288464Y-90992000D01*
X158288464Y-90640000D01*
X158258894Y-90491341D01*
X158174686Y-90365314D01*
X158048659Y-90281106D01*
X157900000Y-90251536D01*
X157274291Y-90251536D01*
X157499821Y-90206675D01*
X157923549Y-89923549D01*
X158206675Y-89499821D01*
X158306096Y-89000000D01*
X158228711Y-88610959D01*
X159608086Y-88610959D01*
X159729371Y-88833000D01*
X160873000Y-88833000D01*
X160873000Y-87690085D01*
X161127000Y-87690085D01*
X161127000Y-88833000D01*
X162270629Y-88833000D01*
X162391914Y-88610959D01*
X162152389Y-88104866D01*
X161737423Y-87728959D01*
X161349039Y-87568096D01*
X161127000Y-87690085D01*
X160873000Y-87690085D01*
X160650961Y-87568096D01*
X160262577Y-87728959D01*
X159847611Y-88104866D01*
X159608086Y-88610959D01*
X158228711Y-88610959D01*
X158206675Y-88500179D01*
X157923549Y-88076451D01*
X157593839Y-87856146D01*
X157796417Y-87772240D01*
X158237966Y-87367576D01*
X158491046Y-86824742D01*
X158370997Y-86587000D01*
X157127000Y-86587000D01*
X157127000Y-86607000D01*
X156873000Y-86607000D01*
X156873000Y-86587000D01*
X155629003Y-86587000D01*
X155508954Y-86824742D01*
X155762034Y-87367576D01*
X156203583Y-87772240D01*
X156406161Y-87856146D01*
X156404883Y-87857000D01*
X152192572Y-87857000D01*
X152080000Y-87834608D01*
X151634023Y-87923318D01*
X151537220Y-87988000D01*
X151341164Y-88119000D01*
X150705846Y-88119000D01*
X150014499Y-88405365D01*
X149485365Y-88934499D01*
X149199000Y-89625846D01*
X149199000Y-90374154D01*
X149485365Y-91065501D01*
X150014499Y-91594635D01*
X150705846Y-91881000D01*
X151454154Y-91881000D01*
X152145501Y-91594635D01*
X152674635Y-91065501D01*
X152961000Y-90374154D01*
X152961000Y-90143000D01*
X156404883Y-90143000D01*
X156500179Y-90206675D01*
X156725709Y-90251536D01*
X156100000Y-90251536D01*
X155951341Y-90281106D01*
X155825314Y-90365314D01*
X155741106Y-90491341D01*
X155711536Y-90640000D01*
X155711536Y-92440000D01*
X155741106Y-92588659D01*
X155825314Y-92714686D01*
X155951341Y-92798894D01*
X156100000Y-92828464D01*
X157900000Y-92828464D01*
X158048659Y-92798894D01*
X158174686Y-92714686D01*
X158258894Y-92588659D01*
X158288464Y-92440000D01*
X158288464Y-92008000D01*
X159932116Y-92008000D01*
X159998797Y-92168983D01*
X160331017Y-92501203D01*
X160765085Y-92681000D01*
X160768542Y-92681000D01*
X159957542Y-93492000D01*
X138133841Y-93492000D01*
X138442056Y-93286058D01*
X138505826Y-93190619D01*
X139815446Y-91881000D01*
X140454154Y-91881000D01*
X141145501Y-91594635D01*
X141674635Y-91065501D01*
X141961000Y-90374154D01*
X141961000Y-89625846D01*
X141674635Y-88934499D01*
X141145501Y-88405365D01*
X140454154Y-88119000D01*
X139705846Y-88119000D01*
X139014499Y-88405365D01*
X138485365Y-88934499D01*
X138199000Y-89625846D01*
X138199000Y-90264554D01*
X137144554Y-91319001D01*
X136888464Y-91319001D01*
X136888464Y-89727981D01*
X140728621Y-85887825D01*
X140824057Y-85824057D01*
X141076682Y-85445976D01*
X141143000Y-85112572D01*
X141143000Y-85112571D01*
X141165392Y-85000000D01*
X141143000Y-84887429D01*
X141143000Y-84186122D01*
X141444706Y-84061152D01*
X144857001Y-87473447D01*
X144857001Y-88111536D01*
X144500000Y-88111536D01*
X144351341Y-88141106D01*
X144225314Y-88225314D01*
X144141106Y-88351341D01*
X144111536Y-88500000D01*
X144111536Y-91500000D01*
X144141106Y-91648659D01*
X144225314Y-91774686D01*
X144351341Y-91858894D01*
X144500000Y-91888464D01*
X147500000Y-91888464D01*
X147648659Y-91858894D01*
X147774686Y-91774686D01*
X147858894Y-91648659D01*
X147888464Y-91500000D01*
X147888464Y-88500000D01*
X147858894Y-88351341D01*
X147774686Y-88225314D01*
X147648659Y-88141106D01*
X147500000Y-88111536D01*
X147143000Y-88111536D01*
X147143000Y-87112570D01*
X147165392Y-86999999D01*
X147131494Y-86829582D01*
X147076682Y-86554024D01*
X146824057Y-86175943D01*
X146728621Y-86112175D01*
X146711704Y-86095258D01*
X155508954Y-86095258D01*
X155629003Y-86333000D01*
X156873000Y-86333000D01*
X156873000Y-85089622D01*
X157127000Y-85089622D01*
X157127000Y-86333000D01*
X158370997Y-86333000D01*
X158491046Y-86095258D01*
X158237966Y-85552424D01*
X157796417Y-85147760D01*
X157608677Y-85070000D01*
X163761536Y-85070000D01*
X163761536Y-86770000D01*
X163791106Y-86918659D01*
X163875314Y-87044686D01*
X164001341Y-87128894D01*
X164150000Y-87158464D01*
X165850000Y-87158464D01*
X165998659Y-87128894D01*
X166124686Y-87044686D01*
X166208894Y-86918659D01*
X166238464Y-86770000D01*
X166238464Y-85070000D01*
X166208894Y-84921341D01*
X166124686Y-84795314D01*
X165998659Y-84711106D01*
X165850000Y-84681536D01*
X164150000Y-84681536D01*
X164001341Y-84711106D01*
X163875314Y-84795314D01*
X163791106Y-84921341D01*
X163761536Y-85070000D01*
X157608677Y-85070000D01*
X157364740Y-84968964D01*
X157127000Y-85089622D01*
X156873000Y-85089622D01*
X156635260Y-84968964D01*
X156203583Y-85147760D01*
X155762034Y-85552424D01*
X155508954Y-86095258D01*
X146711704Y-86095258D01*
X143061152Y-82444706D01*
X143343937Y-81762000D01*
X146211536Y-81762000D01*
X146211536Y-81900000D01*
X146241106Y-82048659D01*
X146325314Y-82174686D01*
X146451341Y-82258894D01*
X146600000Y-82288464D01*
X148400000Y-82288464D01*
X148548659Y-82258894D01*
X148674686Y-82174686D01*
X148758894Y-82048659D01*
X148788464Y-81900000D01*
X148788464Y-81862654D01*
X149132424Y-82237966D01*
X149675258Y-82491046D01*
X149913000Y-82370997D01*
X149913000Y-81127000D01*
X149893000Y-81127000D01*
X149893000Y-80873000D01*
X149913000Y-80873000D01*
X149913000Y-79629003D01*
X149675258Y-79508954D01*
X149132424Y-79762034D01*
X148788464Y-80137346D01*
X148788464Y-80100000D01*
X148758894Y-79951341D01*
X148674686Y-79825314D01*
X148548659Y-79741106D01*
X148400000Y-79711536D01*
X148262000Y-79711536D01*
X148262000Y-79413042D01*
X148276927Y-79337999D01*
X148262000Y-79262956D01*
X148262000Y-79262952D01*
X148217788Y-79040683D01*
X148049371Y-78788629D01*
X147985749Y-78746118D01*
X146262000Y-77022370D01*
X146262000Y-75688464D01*
X146300000Y-75688464D01*
X146448659Y-75658894D01*
X146574686Y-75574686D01*
X146658894Y-75448659D01*
X146688464Y-75300000D01*
X146688464Y-73700000D01*
X146658894Y-73551341D01*
X146574686Y-73425314D01*
X146448659Y-73341106D01*
X146300000Y-73311536D01*
X146114773Y-73311536D01*
X146183126Y-73283223D01*
X150053035Y-73283223D01*
X150080222Y-73853454D01*
X150246136Y-74254005D01*
X150492255Y-74328139D01*
X151320395Y-73500000D01*
X151679605Y-73500000D01*
X152507745Y-74328139D01*
X152753864Y-74254005D01*
X152847947Y-73992255D01*
X156171861Y-73992255D01*
X157000000Y-74820395D01*
X157828139Y-73992255D01*
X157754005Y-73746136D01*
X157216777Y-73553035D01*
X156646546Y-73580222D01*
X156245995Y-73746136D01*
X156171861Y-73992255D01*
X152847947Y-73992255D01*
X152946965Y-73716777D01*
X152919778Y-73146546D01*
X152753864Y-72745995D01*
X152507745Y-72671861D01*
X151679605Y-73500000D01*
X151320395Y-73500000D01*
X150492255Y-72671861D01*
X150246136Y-72745995D01*
X150053035Y-73283223D01*
X146183126Y-73283223D01*
X146254005Y-73253864D01*
X146328139Y-73007745D01*
X145500000Y-72179605D01*
X144671861Y-73007745D01*
X144745995Y-73253864D01*
X144906445Y-73311536D01*
X144700000Y-73311536D01*
X144551341Y-73341106D01*
X144425314Y-73425314D01*
X144341106Y-73551341D01*
X144311536Y-73700000D01*
X144311536Y-73738000D01*
X140688464Y-73738000D01*
X140688464Y-73700000D01*
X140658894Y-73551341D01*
X140574686Y-73425314D01*
X140448659Y-73341106D01*
X140300000Y-73311536D01*
X140114773Y-73311536D01*
X140254005Y-73253864D01*
X140328139Y-73007745D01*
X139500000Y-72179605D01*
X138671861Y-73007745D01*
X138745995Y-73253864D01*
X138906445Y-73311536D01*
X138700000Y-73311536D01*
X138551341Y-73341106D01*
X138425314Y-73425314D01*
X138341106Y-73551341D01*
X138311536Y-73700000D01*
X138311536Y-73738000D01*
X134688464Y-73738000D01*
X134688464Y-73700000D01*
X134658894Y-73551341D01*
X134574686Y-73425314D01*
X134448659Y-73341106D01*
X134300000Y-73311536D01*
X134114773Y-73311536D01*
X134254005Y-73253864D01*
X134328139Y-73007745D01*
X133500000Y-72179605D01*
X132671861Y-73007745D01*
X132745995Y-73253864D01*
X132906445Y-73311536D01*
X132700000Y-73311536D01*
X132551341Y-73341106D01*
X132425314Y-73425314D01*
X132341106Y-73551341D01*
X132311536Y-73700000D01*
X132311536Y-73738000D01*
X128688464Y-73738000D01*
X128688464Y-73700000D01*
X128658894Y-73551341D01*
X128574686Y-73425314D01*
X128448659Y-73341106D01*
X128300000Y-73311536D01*
X128114773Y-73311536D01*
X128254005Y-73253864D01*
X128328139Y-73007745D01*
X127500000Y-72179605D01*
X126671861Y-73007745D01*
X126745995Y-73253864D01*
X126906445Y-73311536D01*
X126700000Y-73311536D01*
X126551341Y-73341106D01*
X126425314Y-73425314D01*
X126341106Y-73551341D01*
X126311536Y-73700000D01*
X126311536Y-75300000D01*
X126341106Y-75448659D01*
X126425314Y-75574686D01*
X126551341Y-75658894D01*
X126700000Y-75688464D01*
X128300000Y-75688464D01*
X128448659Y-75658894D01*
X128574686Y-75574686D01*
X128658894Y-75448659D01*
X128688464Y-75300000D01*
X128688464Y-75262000D01*
X132311536Y-75262000D01*
X132311536Y-75300000D01*
X132341106Y-75448659D01*
X132425314Y-75574686D01*
X132551341Y-75658894D01*
X132700000Y-75688464D01*
X134300000Y-75688464D01*
X134448659Y-75658894D01*
X134574686Y-75574686D01*
X134658894Y-75448659D01*
X134688464Y-75300000D01*
X134688464Y-75262000D01*
X138311536Y-75262000D01*
X138311536Y-75300000D01*
X138341106Y-75448659D01*
X138425314Y-75574686D01*
X138551341Y-75658894D01*
X138700000Y-75688464D01*
X138738000Y-75688464D01*
X138738000Y-76182316D01*
X138723073Y-76257360D01*
X138738000Y-76332403D01*
X138738000Y-76332407D01*
X138782212Y-76554676D01*
X138950629Y-76806731D01*
X139014253Y-76849243D01*
X139238001Y-77072991D01*
X139238001Y-77656062D01*
X138084817Y-78133726D01*
X137133726Y-79084817D01*
X136619000Y-80327477D01*
X136619000Y-81672523D01*
X137133726Y-82915183D01*
X138084817Y-83866274D01*
X138857001Y-84186123D01*
X138857001Y-84526553D01*
X135272019Y-88111536D01*
X133500000Y-88111536D01*
X133351341Y-88141106D01*
X133225314Y-88225314D01*
X133141106Y-88351341D01*
X133111536Y-88500000D01*
X133111536Y-91319001D01*
X132748239Y-91319001D01*
X129660619Y-88231382D01*
X129596849Y-88135943D01*
X129218768Y-87883318D01*
X128885364Y-87817000D01*
X128885363Y-87817000D01*
X128772792Y-87794608D01*
X128660221Y-87817000D01*
X128095117Y-87817000D01*
X128093839Y-87816146D01*
X128296417Y-87732240D01*
X128737966Y-87327576D01*
X128991046Y-86784742D01*
X128870997Y-86547000D01*
X127627000Y-86547000D01*
X127627000Y-86567000D01*
X127373000Y-86567000D01*
X127373000Y-86547000D01*
X127353000Y-86547000D01*
X127353000Y-86293000D01*
X127373000Y-86293000D01*
X127373000Y-85049622D01*
X127627000Y-85049622D01*
X127627000Y-86293000D01*
X128870997Y-86293000D01*
X128991046Y-86055258D01*
X128737966Y-85512424D01*
X128296417Y-85107760D01*
X127864740Y-84928964D01*
X127627000Y-85049622D01*
X127373000Y-85049622D01*
X127135260Y-84928964D01*
X126703583Y-85107760D01*
X126262034Y-85512424D01*
X126208001Y-85628320D01*
X126208001Y-83596630D01*
X130382975Y-83596630D01*
X130725566Y-84071277D01*
X132058800Y-84631342D01*
X133504875Y-84638568D01*
X134843639Y-84091854D01*
X134874434Y-84071277D01*
X135217025Y-83596630D01*
X132800000Y-81179605D01*
X130382975Y-83596630D01*
X126208001Y-83596630D01*
X126208001Y-82197355D01*
X126265085Y-82221000D01*
X126734915Y-82221000D01*
X127168983Y-82041203D01*
X127501203Y-81708983D01*
X127502904Y-81704875D01*
X129161432Y-81704875D01*
X129708146Y-83043639D01*
X129728723Y-83074434D01*
X130203370Y-83417025D01*
X132620395Y-81000000D01*
X132979605Y-81000000D01*
X135396630Y-83417025D01*
X135871277Y-83074434D01*
X136431342Y-81741200D01*
X136438568Y-80295125D01*
X135891854Y-78956361D01*
X135871277Y-78925566D01*
X135396630Y-78582975D01*
X132979605Y-81000000D01*
X132620395Y-81000000D01*
X130203370Y-78582975D01*
X129728723Y-78925566D01*
X129168658Y-80258800D01*
X129161432Y-81704875D01*
X127502904Y-81704875D01*
X127681000Y-81274915D01*
X127681000Y-80805085D01*
X127501203Y-80371017D01*
X127168983Y-80038797D01*
X126734915Y-79859000D01*
X126627002Y-79859000D01*
X126627002Y-79769916D01*
X126849039Y-79891904D01*
X127237423Y-79731041D01*
X127652389Y-79355134D01*
X127891914Y-78849041D01*
X127770629Y-78627000D01*
X126627000Y-78627000D01*
X126627000Y-78647000D01*
X126373000Y-78647000D01*
X126373000Y-78627000D01*
X125229371Y-78627000D01*
X125108086Y-78849041D01*
X115456000Y-78849041D01*
X115456000Y-78403370D01*
X130382975Y-78403370D01*
X132800000Y-80820395D01*
X135217025Y-78403370D01*
X134874434Y-77928723D01*
X133541200Y-77368658D01*
X132095125Y-77361432D01*
X130756361Y-77908146D01*
X130725566Y-77928723D01*
X130382975Y-78403370D01*
X115456000Y-78403370D01*
X115456000Y-78150959D01*
X125108086Y-78150959D01*
X125229371Y-78373000D01*
X126373000Y-78373000D01*
X126373000Y-77230085D01*
X126627000Y-77230085D01*
X126627000Y-78373000D01*
X127770629Y-78373000D01*
X127891914Y-78150959D01*
X127652389Y-77644866D01*
X127237423Y-77268959D01*
X126849039Y-77108096D01*
X126627000Y-77230085D01*
X126373000Y-77230085D01*
X126150961Y-77108096D01*
X125762577Y-77268959D01*
X125347611Y-77644866D01*
X125108086Y-78150959D01*
X115456000Y-78150959D01*
X115456000Y-74605955D01*
X118019000Y-74605955D01*
X118019000Y-75394045D01*
X118320589Y-76122146D01*
X118877854Y-76679411D01*
X119605955Y-76981000D01*
X120394045Y-76981000D01*
X121122146Y-76679411D01*
X121679411Y-76122146D01*
X121981000Y-75394045D01*
X121981000Y-74605955D01*
X121679411Y-73877854D01*
X121122146Y-73320589D01*
X120394045Y-73019000D01*
X119605955Y-73019000D01*
X118877854Y-73320589D01*
X118320589Y-73877854D01*
X118019000Y-74605955D01*
X115456000Y-74605955D01*
X115456000Y-71783223D01*
X126053035Y-71783223D01*
X126080222Y-72353454D01*
X126246136Y-72754005D01*
X126492255Y-72828139D01*
X127320395Y-72000000D01*
X127679605Y-72000000D01*
X128507745Y-72828139D01*
X128753864Y-72754005D01*
X128946965Y-72216777D01*
X128926295Y-71783223D01*
X132053035Y-71783223D01*
X132080222Y-72353454D01*
X132246136Y-72754005D01*
X132492255Y-72828139D01*
X133320395Y-72000000D01*
X133679605Y-72000000D01*
X134507745Y-72828139D01*
X134753864Y-72754005D01*
X134946965Y-72216777D01*
X134926295Y-71783223D01*
X138053035Y-71783223D01*
X138080222Y-72353454D01*
X138246136Y-72754005D01*
X138492255Y-72828139D01*
X139320395Y-72000000D01*
X139679605Y-72000000D01*
X140507745Y-72828139D01*
X140753864Y-72754005D01*
X140946965Y-72216777D01*
X140926295Y-71783223D01*
X144053035Y-71783223D01*
X144080222Y-72353454D01*
X144246136Y-72754005D01*
X144492255Y-72828139D01*
X145320395Y-72000000D01*
X145679605Y-72000000D01*
X146507745Y-72828139D01*
X146753864Y-72754005D01*
X146847947Y-72492255D01*
X150671861Y-72492255D01*
X151500000Y-73320395D01*
X152328139Y-72492255D01*
X152254005Y-72246136D01*
X151716777Y-72053035D01*
X151146546Y-72080222D01*
X150745995Y-72246136D01*
X150671861Y-72492255D01*
X146847947Y-72492255D01*
X146946965Y-72216777D01*
X146919778Y-71646546D01*
X146885887Y-71564725D01*
X183744331Y-71564725D01*
X184500000Y-72320395D01*
X185255669Y-71564725D01*
X185193831Y-71328958D01*
X184692878Y-71152581D01*
X184162560Y-71181336D01*
X183806169Y-71328958D01*
X183744331Y-71564725D01*
X146885887Y-71564725D01*
X146753864Y-71245995D01*
X146507745Y-71171861D01*
X145679605Y-72000000D01*
X145320395Y-72000000D01*
X144492255Y-71171861D01*
X144246136Y-71245995D01*
X144053035Y-71783223D01*
X140926295Y-71783223D01*
X140919778Y-71646546D01*
X140753864Y-71245995D01*
X140507745Y-71171861D01*
X139679605Y-72000000D01*
X139320395Y-72000000D01*
X138492255Y-71171861D01*
X138246136Y-71245995D01*
X138053035Y-71783223D01*
X134926295Y-71783223D01*
X134919778Y-71646546D01*
X134753864Y-71245995D01*
X134507745Y-71171861D01*
X133679605Y-72000000D01*
X133320395Y-72000000D01*
X132492255Y-71171861D01*
X132246136Y-71245995D01*
X132053035Y-71783223D01*
X128926295Y-71783223D01*
X128919778Y-71646546D01*
X128753864Y-71245995D01*
X128507745Y-71171861D01*
X127679605Y-72000000D01*
X127320395Y-72000000D01*
X126492255Y-71171861D01*
X126246136Y-71245995D01*
X126053035Y-71783223D01*
X115456000Y-71783223D01*
X115456000Y-70992255D01*
X126671861Y-70992255D01*
X127500000Y-71820395D01*
X128328139Y-70992255D01*
X132671861Y-70992255D01*
X133500000Y-71820395D01*
X134328139Y-70992255D01*
X138671861Y-70992255D01*
X139500000Y-71820395D01*
X140328139Y-70992255D01*
X144671861Y-70992255D01*
X145500000Y-71820395D01*
X146328139Y-70992255D01*
X146254005Y-70746136D01*
X145716777Y-70553035D01*
X145146546Y-70580222D01*
X144745995Y-70746136D01*
X144671861Y-70992255D01*
X140328139Y-70992255D01*
X140254005Y-70746136D01*
X139716777Y-70553035D01*
X139146546Y-70580222D01*
X138745995Y-70746136D01*
X138671861Y-70992255D01*
X134328139Y-70992255D01*
X134254005Y-70746136D01*
X133716777Y-70553035D01*
X133146546Y-70580222D01*
X132745995Y-70746136D01*
X132671861Y-70992255D01*
X128328139Y-70992255D01*
X128254005Y-70746136D01*
X127716777Y-70553035D01*
X127146546Y-70580222D01*
X126745995Y-70746136D01*
X126671861Y-70992255D01*
X115456000Y-70992255D01*
X115456000Y-70456000D01*
X212044001Y-70456000D01*
X212044001Y-78442394D01*
X212044001Y-78442394D01*
G37*
X212044001Y-78442394D02*
X211765628Y-78164021D01*
X211294807Y-77969000D01*
X210785193Y-77969000D01*
X210314372Y-78164021D01*
X209954021Y-78524372D01*
X209788464Y-78924061D01*
X209788464Y-78350000D01*
X209758894Y-78201341D01*
X209674686Y-78075314D01*
X209548659Y-77991106D01*
X209400000Y-77961536D01*
X209352884Y-77961536D01*
X209750833Y-77563587D01*
X209793248Y-77535246D01*
X209905526Y-77367211D01*
X209935001Y-77219031D01*
X209935001Y-77219028D01*
X209944952Y-77169000D01*
X209935001Y-77118972D01*
X209935001Y-74414789D01*
X210823835Y-73525956D01*
X210866247Y-73497617D01*
X210894586Y-73455205D01*
X210894588Y-73455203D01*
X210978525Y-73329582D01*
X210980352Y-73320395D01*
X211008000Y-73181402D01*
X211008000Y-73181398D01*
X211017951Y-73131370D01*
X211008000Y-73081342D01*
X211008000Y-73067884D01*
X211168983Y-73001203D01*
X211501203Y-72668983D01*
X211681000Y-72234915D01*
X211681000Y-71765085D01*
X211501203Y-71331017D01*
X211168983Y-70998797D01*
X210734915Y-70819000D01*
X210265085Y-70819000D01*
X209831017Y-70998797D01*
X209498797Y-71331017D01*
X209319000Y-71765085D01*
X209319000Y-71872998D01*
X209229916Y-71872998D01*
X209351904Y-71650961D01*
X209191041Y-71262577D01*
X208815134Y-70847611D01*
X208309041Y-70608086D01*
X208087000Y-70729371D01*
X208087000Y-71873000D01*
X208107000Y-71873000D01*
X208107000Y-72127000D01*
X208087000Y-72127000D01*
X208087000Y-72147000D01*
X207833000Y-72147000D01*
X207833000Y-72127000D01*
X206690085Y-72127000D01*
X206568096Y-72349039D01*
X206728959Y-72737423D01*
X207017298Y-73055723D01*
X206377854Y-73320589D01*
X205820589Y-73877854D01*
X205519000Y-74605955D01*
X205519000Y-75274032D01*
X205237423Y-75018959D01*
X204849039Y-74858096D01*
X204627000Y-74980085D01*
X204627000Y-76123000D01*
X205770629Y-76123000D01*
X205799244Y-76070614D01*
X205820589Y-76122146D01*
X206377854Y-76679411D01*
X207105955Y-76981000D01*
X207894045Y-76981000D01*
X208622146Y-76679411D01*
X208919002Y-76382555D01*
X208919002Y-76958578D01*
X208176168Y-77701412D01*
X208133753Y-77729753D01*
X208105413Y-77772167D01*
X208105412Y-77772168D01*
X208031524Y-77882749D01*
X208021475Y-77897789D01*
X208008795Y-77961536D01*
X207600000Y-77961536D01*
X207451341Y-77991106D01*
X207325314Y-78075314D01*
X207241106Y-78201341D01*
X207211536Y-78350000D01*
X207211536Y-80150000D01*
X207241106Y-80298659D01*
X207325314Y-80424686D01*
X207451341Y-80508894D01*
X207600000Y-80538464D01*
X209400000Y-80538464D01*
X209548659Y-80508894D01*
X209674686Y-80424686D01*
X209758894Y-80298659D01*
X209788464Y-80150000D01*
X209788464Y-79575939D01*
X209954021Y-79975628D01*
X210314372Y-80335979D01*
X210785193Y-80531000D01*
X211294807Y-80531000D01*
X211765628Y-80335979D01*
X212044001Y-80057606D01*
X212044000Y-85180010D01*
X211875979Y-84774372D01*
X211515628Y-84414021D01*
X211044807Y-84219000D01*
X210535193Y-84219000D01*
X210064372Y-84414021D01*
X209704021Y-84774372D01*
X209538464Y-85174061D01*
X209538464Y-84600000D01*
X209508894Y-84451341D01*
X209424686Y-84325314D01*
X209298659Y-84241106D01*
X209150000Y-84211536D01*
X207648951Y-84211536D01*
X207863832Y-83996655D01*
X207906247Y-83968314D01*
X208018525Y-83800279D01*
X208048000Y-83652099D01*
X208048000Y-83652096D01*
X208057951Y-83602068D01*
X208048000Y-83552040D01*
X208048000Y-83426124D01*
X208265628Y-83335979D01*
X208625979Y-82975628D01*
X208821000Y-82504807D01*
X208821000Y-81995193D01*
X208625979Y-81524372D01*
X208265628Y-81164021D01*
X207794807Y-80969000D01*
X207285193Y-80969000D01*
X206814372Y-81164021D01*
X206454021Y-81524372D01*
X206288464Y-81924061D01*
X206288464Y-81350000D01*
X206258894Y-81201341D01*
X206174686Y-81075314D01*
X206048659Y-80991106D01*
X205900000Y-80961536D01*
X205508000Y-80961536D01*
X205508000Y-79442574D01*
X205681000Y-79024915D01*
X205681000Y-78555085D01*
X205501203Y-78121017D01*
X205168983Y-77788797D01*
X204734915Y-77609000D01*
X204627002Y-77609000D01*
X204627002Y-77519916D01*
X204849039Y-77641904D01*
X205237423Y-77481041D01*
X205652389Y-77105134D01*
X205891914Y-76599041D01*
X205770629Y-76377000D01*
X204627000Y-76377000D01*
X204627000Y-76397000D01*
X204373000Y-76397000D01*
X204373000Y-76377000D01*
X203229371Y-76377000D01*
X203108086Y-76599041D01*
X203347611Y-77105134D01*
X203762577Y-77481041D01*
X204150961Y-77641904D01*
X204372998Y-77519916D01*
X204372998Y-77609000D01*
X204265085Y-77609000D01*
X203831017Y-77788797D01*
X203498797Y-78121017D01*
X203319000Y-78555085D01*
X203319000Y-79024915D01*
X203498797Y-79458983D01*
X203831017Y-79791203D01*
X204265085Y-79971000D01*
X204492001Y-79971000D01*
X204492000Y-80961536D01*
X204100000Y-80961536D01*
X203951341Y-80991106D01*
X203825314Y-81075314D01*
X203741106Y-81201341D01*
X203711536Y-81350000D01*
X203711536Y-83150000D01*
X203741106Y-83298659D01*
X203825314Y-83424686D01*
X203951341Y-83508894D01*
X204100000Y-83538464D01*
X205900000Y-83538464D01*
X206048659Y-83508894D01*
X206174686Y-83424686D01*
X206258894Y-83298659D01*
X206288464Y-83150000D01*
X206288464Y-82575939D01*
X206454021Y-82975628D01*
X206814372Y-83335979D01*
X207007621Y-83416026D01*
X203048000Y-87375647D01*
X203048000Y-86580942D01*
X203391453Y-86351453D01*
X203652478Y-85960803D01*
X203744137Y-85500000D01*
X203652478Y-85039197D01*
X203391453Y-84648547D01*
X203000803Y-84387522D01*
X202656318Y-84319000D01*
X202423682Y-84319000D01*
X202134869Y-84376448D01*
X201393639Y-83635219D01*
X201539197Y-83732478D01*
X201883682Y-83801000D01*
X202116318Y-83801000D01*
X202460803Y-83732478D01*
X202851453Y-83471453D01*
X203112478Y-83080803D01*
X203204137Y-82620000D01*
X203112478Y-82159197D01*
X202851453Y-81768547D01*
X202460803Y-81507522D01*
X202116318Y-81439000D01*
X201883682Y-81439000D01*
X201539197Y-81507522D01*
X201148547Y-81768547D01*
X201095001Y-81848684D01*
X201095001Y-78130988D01*
X201104952Y-78080960D01*
X201095001Y-78030932D01*
X201095001Y-78030929D01*
X201065526Y-77882749D01*
X200953248Y-77714714D01*
X200910833Y-77686373D01*
X199405460Y-76181000D01*
X199576318Y-76181000D01*
X199920803Y-76112478D01*
X200311453Y-75851453D01*
X200572478Y-75460803D01*
X200664137Y-75000000D01*
X200572478Y-74539197D01*
X200345833Y-74200000D01*
X200811536Y-74200000D01*
X200811536Y-75800000D01*
X200841106Y-75948659D01*
X200925314Y-76074686D01*
X201051341Y-76158894D01*
X201200000Y-76188464D01*
X202800000Y-76188464D01*
X202948659Y-76158894D01*
X203074686Y-76074686D01*
X203145275Y-75969042D01*
X203229371Y-76123000D01*
X204373000Y-76123000D01*
X204373000Y-74980085D01*
X204150961Y-74858096D01*
X203762577Y-75018959D01*
X203347611Y-75394866D01*
X203188464Y-75731128D01*
X203188464Y-74200000D01*
X203158894Y-74051341D01*
X203074686Y-73925314D01*
X203048000Y-73907483D01*
X203048000Y-73080942D01*
X203391453Y-72851453D01*
X203652478Y-72460803D01*
X203744137Y-72000000D01*
X203674710Y-71650961D01*
X206568096Y-71650961D01*
X206690085Y-71873000D01*
X207833000Y-71873000D01*
X207833000Y-70729371D01*
X207610959Y-70608086D01*
X207104866Y-70847611D01*
X206728959Y-71262577D01*
X206568096Y-71650961D01*
X203674710Y-71650961D01*
X203652478Y-71539197D01*
X203391453Y-71148547D01*
X203000803Y-70887522D01*
X202656318Y-70819000D01*
X202423682Y-70819000D01*
X202079197Y-70887522D01*
X201688547Y-71148547D01*
X201427522Y-71539197D01*
X201335863Y-72000000D01*
X201427522Y-72460803D01*
X201688547Y-72851453D01*
X202032000Y-73080942D01*
X202032001Y-73811536D01*
X201200000Y-73811536D01*
X201051341Y-73841106D01*
X200925314Y-73925314D01*
X200841106Y-74051341D01*
X200811536Y-74200000D01*
X200345833Y-74200000D01*
X200311453Y-74148547D01*
X199920803Y-73887522D01*
X199576318Y-73819000D01*
X199343682Y-73819000D01*
X198999197Y-73887522D01*
X198608547Y-74148547D01*
X198527361Y-74270050D01*
X198525526Y-74260827D01*
X198487802Y-74204369D01*
X198441589Y-74135206D01*
X198441587Y-74135204D01*
X198413248Y-74092792D01*
X198370836Y-74064453D01*
X197401539Y-73095157D01*
X197373198Y-73052742D01*
X197205163Y-72940464D01*
X197056983Y-72910989D01*
X197056979Y-72910989D01*
X197006951Y-72901038D01*
X196956923Y-72910989D01*
X190931039Y-72910989D01*
X190881011Y-72901038D01*
X190830983Y-72910989D01*
X190830979Y-72910989D01*
X190719524Y-72933159D01*
X190682799Y-72940464D01*
X190557178Y-73024401D01*
X190557176Y-73024403D01*
X190514764Y-73052742D01*
X190486425Y-73095154D01*
X189776167Y-73805413D01*
X189705132Y-73876448D01*
X189416318Y-73819000D01*
X189183682Y-73819000D01*
X188839197Y-73887522D01*
X188448547Y-74148547D01*
X188187522Y-74539197D01*
X188095863Y-75000000D01*
X188187522Y-75460803D01*
X188448547Y-75851453D01*
X188839197Y-76112478D01*
X189183682Y-76181000D01*
X189416318Y-76181000D01*
X189760803Y-76112478D01*
X190151453Y-75851453D01*
X190412478Y-75460803D01*
X190504137Y-75000000D01*
X190423552Y-74594868D01*
X190494587Y-74523833D01*
X191091432Y-73926989D01*
X191320131Y-73926989D01*
X190988547Y-74148547D01*
X190727522Y-74539197D01*
X190635863Y-75000000D01*
X190727522Y-75460803D01*
X190988547Y-75851453D01*
X191379197Y-76112478D01*
X191723682Y-76181000D01*
X191956318Y-76181000D01*
X192300803Y-76112478D01*
X192691453Y-75851453D01*
X192952478Y-75460803D01*
X193044137Y-75000000D01*
X192963552Y-74594869D01*
X193177422Y-74380999D01*
X193373227Y-74380999D01*
X193267522Y-74539197D01*
X193175863Y-75000000D01*
X193256448Y-75405131D01*
X192929167Y-75732413D01*
X192886752Y-75760754D01*
X192774474Y-75928790D01*
X192744999Y-76076970D01*
X192744999Y-76076973D01*
X192735048Y-76127001D01*
X192744999Y-76177029D01*
X192745000Y-81848685D01*
X192691453Y-81768547D01*
X192300803Y-81507522D01*
X191956318Y-81439000D01*
X191723682Y-81439000D01*
X191379197Y-81507522D01*
X190988547Y-81768547D01*
X190727522Y-82159197D01*
X190635863Y-82620000D01*
X190727522Y-83080803D01*
X190988547Y-83471453D01*
X191379197Y-83732478D01*
X191723682Y-83801000D01*
X191956318Y-83801000D01*
X192300803Y-83732478D01*
X192691453Y-83471453D01*
X192745000Y-83391315D01*
X192745000Y-83576579D01*
X192016167Y-84305413D01*
X191945132Y-84376448D01*
X191656318Y-84319000D01*
X191423682Y-84319000D01*
X191079197Y-84387522D01*
X190688547Y-84648547D01*
X190427522Y-85039197D01*
X190335863Y-85500000D01*
X190427522Y-85960803D01*
X190688547Y-86351453D01*
X191032001Y-86580942D01*
X191032000Y-88749579D01*
X190953300Y-88828279D01*
X190749834Y-88744000D01*
X190250166Y-88744000D01*
X189809419Y-88926564D01*
X189805999Y-88909366D01*
X189805999Y-88909365D01*
X189776524Y-88761185D01*
X189664246Y-88593150D01*
X189621832Y-88564810D01*
X189508000Y-88450978D01*
X189508000Y-86567884D01*
X189668983Y-86501203D01*
X190001203Y-86168983D01*
X190181000Y-85734915D01*
X190181000Y-85265085D01*
X190001203Y-84831017D01*
X189668983Y-84498797D01*
X189234915Y-84319000D01*
X188765085Y-84319000D01*
X188331017Y-84498797D01*
X187998797Y-84831017D01*
X187932116Y-84992000D01*
X187918658Y-84992000D01*
X187868630Y-84982049D01*
X187818602Y-84992000D01*
X187818598Y-84992000D01*
X187670418Y-85021475D01*
X187544797Y-85105412D01*
X187544795Y-85105414D01*
X187502383Y-85133753D01*
X187474044Y-85176165D01*
X187287692Y-85362518D01*
X187347419Y-85192878D01*
X187318664Y-84662560D01*
X187171042Y-84306169D01*
X186935275Y-84244331D01*
X186179605Y-85000000D01*
X186193748Y-85014142D01*
X186014143Y-85193748D01*
X186000000Y-85179605D01*
X185985858Y-85193748D01*
X185806252Y-85014142D01*
X185820395Y-85000000D01*
X185064725Y-84244331D01*
X184828958Y-84306169D01*
X184652581Y-84807122D01*
X184681336Y-85337440D01*
X184756541Y-85519001D01*
X184455089Y-85519001D01*
X184581000Y-85215024D01*
X184581000Y-84784976D01*
X184416428Y-84387663D01*
X184112337Y-84083572D01*
X184008000Y-84040354D01*
X184008000Y-83781968D01*
X184103682Y-83801000D01*
X184336318Y-83801000D01*
X184680803Y-83732478D01*
X185071453Y-83471453D01*
X185332478Y-83080803D01*
X185398875Y-82747002D01*
X185489370Y-82747002D01*
X185368086Y-82969041D01*
X185607611Y-83475134D01*
X185825486Y-83672502D01*
X185662560Y-83681336D01*
X185306169Y-83828958D01*
X185244331Y-84064725D01*
X186000000Y-84820395D01*
X186755669Y-84064725D01*
X186693831Y-83828958D01*
X186633000Y-83807540D01*
X186633000Y-82747000D01*
X186613000Y-82747000D01*
X186613000Y-82493000D01*
X186633000Y-82493000D01*
X186633000Y-81350085D01*
X186887000Y-81350085D01*
X186887000Y-82493000D01*
X186907000Y-82493000D01*
X186907000Y-82747000D01*
X186887000Y-82747000D01*
X186887000Y-83889915D01*
X187109039Y-84011904D01*
X187497423Y-83851041D01*
X187912389Y-83475134D01*
X188151914Y-82969041D01*
X188030630Y-82747002D01*
X188121125Y-82747002D01*
X188187522Y-83080803D01*
X188448547Y-83471453D01*
X188839197Y-83732478D01*
X189183682Y-83801000D01*
X189416318Y-83801000D01*
X189760803Y-83732478D01*
X190151453Y-83471453D01*
X190412478Y-83080803D01*
X190504137Y-82620000D01*
X190412478Y-82159197D01*
X190151453Y-81768547D01*
X189760803Y-81507522D01*
X189416318Y-81439000D01*
X189183682Y-81439000D01*
X188839197Y-81507522D01*
X188448547Y-81768547D01*
X188187522Y-82159197D01*
X188121125Y-82492998D01*
X188030630Y-82492998D01*
X188151914Y-82270959D01*
X187912389Y-81764866D01*
X187497423Y-81388959D01*
X187109039Y-81228096D01*
X186887000Y-81350085D01*
X186633000Y-81350085D01*
X186410961Y-81228096D01*
X186022577Y-81388959D01*
X185607611Y-81764866D01*
X185368086Y-82270959D01*
X185489370Y-82492998D01*
X185398875Y-82492998D01*
X185332478Y-82159197D01*
X185071453Y-81768547D01*
X184680803Y-81507522D01*
X184336318Y-81439000D01*
X184103682Y-81439000D01*
X183759197Y-81507522D01*
X183368547Y-81768547D01*
X183107522Y-82159197D01*
X183015863Y-82620000D01*
X183097131Y-83028562D01*
X183021475Y-83141789D01*
X182982049Y-83340000D01*
X182992001Y-83390033D01*
X182992001Y-84040354D01*
X182887663Y-84083572D01*
X182675001Y-84296234D01*
X182675001Y-84288398D01*
X182684952Y-84238370D01*
X182675001Y-84188340D01*
X182675001Y-84188339D01*
X182645526Y-84040159D01*
X182533248Y-83872124D01*
X182490834Y-83843784D01*
X182283908Y-83636858D01*
X182531453Y-83471453D01*
X182792478Y-83080803D01*
X182884137Y-82620000D01*
X182792478Y-82159197D01*
X182569000Y-81824740D01*
X182569000Y-80448235D01*
X186836236Y-76181000D01*
X186876318Y-76181000D01*
X187220803Y-76112478D01*
X187611453Y-75851453D01*
X187872478Y-75460803D01*
X187964137Y-75000000D01*
X187872478Y-74539197D01*
X187649000Y-74204740D01*
X187649000Y-73379765D01*
X187916428Y-73112337D01*
X188081000Y-72715024D01*
X188081000Y-72508000D01*
X198932116Y-72508000D01*
X198998797Y-72668983D01*
X199331017Y-73001203D01*
X199765085Y-73181000D01*
X200234915Y-73181000D01*
X200668983Y-73001203D01*
X201001203Y-72668983D01*
X201181000Y-72234915D01*
X201181000Y-71765085D01*
X201001203Y-71331017D01*
X200668983Y-70998797D01*
X200234915Y-70819000D01*
X199765085Y-70819000D01*
X199331017Y-70998797D01*
X198998797Y-71331017D01*
X198932116Y-71492000D01*
X187550028Y-71492000D01*
X187500000Y-71482049D01*
X187449972Y-71492000D01*
X187449968Y-71492000D01*
X187410308Y-71499889D01*
X187215024Y-71419000D01*
X186784976Y-71419000D01*
X186387663Y-71583572D01*
X186083572Y-71887663D01*
X185919000Y-72284976D01*
X185919000Y-72411138D01*
X185853584Y-72740000D01*
X185871001Y-72827559D01*
X185871000Y-74204739D01*
X185647522Y-74539197D01*
X185581126Y-74872998D01*
X185490630Y-74872998D01*
X185611914Y-74650959D01*
X185372389Y-74144866D01*
X184957428Y-73768963D01*
X185193831Y-73671042D01*
X185255669Y-73435275D01*
X184500000Y-72679605D01*
X183744331Y-73435275D01*
X183797626Y-73638470D01*
X183482577Y-73768959D01*
X183067611Y-74144866D01*
X182828086Y-74650959D01*
X182949370Y-74872998D01*
X182858875Y-74872998D01*
X182792478Y-74539197D01*
X182531453Y-74148547D01*
X182140803Y-73887522D01*
X181796318Y-73819000D01*
X181563682Y-73819000D01*
X181274868Y-73876448D01*
X181274591Y-73876171D01*
X181274589Y-73876168D01*
X179705543Y-72307122D01*
X183152581Y-72307122D01*
X183181336Y-72837440D01*
X183328958Y-73193831D01*
X183564725Y-73255669D01*
X184320395Y-72500000D01*
X184679605Y-72500000D01*
X185435275Y-73255669D01*
X185671042Y-73193831D01*
X185847419Y-72692878D01*
X185818664Y-72162560D01*
X185671042Y-71806169D01*
X185435275Y-71744331D01*
X184679605Y-72500000D01*
X184320395Y-72500000D01*
X183564725Y-71744331D01*
X183328958Y-71806169D01*
X183152581Y-72307122D01*
X179705543Y-72307122D01*
X179620578Y-72222158D01*
X179592237Y-72179743D01*
X179424202Y-72067465D01*
X179276022Y-72037990D01*
X179276018Y-72037990D01*
X179225990Y-72028039D01*
X179175962Y-72037990D01*
X166504037Y-72037990D01*
X166454009Y-72028039D01*
X166403981Y-72037990D01*
X166403978Y-72037990D01*
X166255798Y-72067465D01*
X166130177Y-72151402D01*
X166130175Y-72151404D01*
X166087763Y-72179743D01*
X166059424Y-72222155D01*
X164357630Y-73923950D01*
X164224970Y-73869000D01*
X163775030Y-73869000D01*
X163359340Y-74041184D01*
X163041184Y-74359340D01*
X162986235Y-74492000D01*
X160688464Y-74492000D01*
X160688464Y-74200000D01*
X160658894Y-74051341D01*
X160574686Y-73925314D01*
X160448659Y-73841106D01*
X160300000Y-73811536D01*
X158700000Y-73811536D01*
X158551341Y-73841106D01*
X158425314Y-73925314D01*
X158341106Y-74051341D01*
X158311536Y-74200000D01*
X158311536Y-74385227D01*
X158253864Y-74245995D01*
X158007745Y-74171861D01*
X157179605Y-75000000D01*
X158007745Y-75828139D01*
X158253864Y-75754005D01*
X158311536Y-75593555D01*
X158311536Y-75800000D01*
X158341106Y-75948659D01*
X158425314Y-76074686D01*
X158551341Y-76158894D01*
X158700000Y-76188464D01*
X160300000Y-76188464D01*
X160448659Y-76158894D01*
X160574686Y-76074686D01*
X160658894Y-75948659D01*
X160688464Y-75800000D01*
X160688464Y-75508000D01*
X162986235Y-75508000D01*
X163041184Y-75640660D01*
X163359340Y-75958816D01*
X163775030Y-76131000D01*
X164224970Y-76131000D01*
X164640660Y-75958816D01*
X164958816Y-75640660D01*
X165131000Y-75224970D01*
X165131000Y-75000000D01*
X167775863Y-75000000D01*
X167867522Y-75460803D01*
X168128547Y-75851453D01*
X168519197Y-76112478D01*
X168863682Y-76181000D01*
X169096318Y-76181000D01*
X169440803Y-76112478D01*
X169831453Y-75851453D01*
X170092478Y-75460803D01*
X170184137Y-75000000D01*
X170315863Y-75000000D01*
X170407522Y-75460803D01*
X170668547Y-75851453D01*
X171059197Y-76112478D01*
X171403682Y-76181000D01*
X171636318Y-76181000D01*
X171980803Y-76112478D01*
X172371453Y-75851453D01*
X172632478Y-75460803D01*
X172724137Y-75000000D01*
X172632478Y-74539197D01*
X172371453Y-74148547D01*
X171980803Y-73887522D01*
X171636318Y-73819000D01*
X171403682Y-73819000D01*
X171059197Y-73887522D01*
X170668547Y-74148547D01*
X170407522Y-74539197D01*
X170315863Y-75000000D01*
X170184137Y-75000000D01*
X170092478Y-74539197D01*
X169831453Y-74148547D01*
X169440803Y-73887522D01*
X169096318Y-73819000D01*
X168863682Y-73819000D01*
X168519197Y-73887522D01*
X168128547Y-74148547D01*
X167867522Y-74539197D01*
X167775863Y-75000000D01*
X165131000Y-75000000D01*
X165131000Y-74775030D01*
X165076050Y-74642370D01*
X166664431Y-73053990D01*
X175727589Y-73053990D01*
X175149165Y-73632415D01*
X175106753Y-73660754D01*
X175078414Y-73703166D01*
X175078411Y-73703169D01*
X174994474Y-73828790D01*
X174955048Y-74027001D01*
X174965000Y-74077033D01*
X174965000Y-74228685D01*
X174911453Y-74148547D01*
X174520803Y-73887522D01*
X174176318Y-73819000D01*
X173943682Y-73819000D01*
X173599197Y-73887522D01*
X173208547Y-74148547D01*
X172947522Y-74539197D01*
X172855863Y-75000000D01*
X172947522Y-75460803D01*
X173208547Y-75851453D01*
X173599197Y-76112478D01*
X173847644Y-76161897D01*
X170637542Y-79372000D01*
X165013765Y-79372000D01*
X164958816Y-79239340D01*
X164640660Y-78921184D01*
X164224970Y-78749000D01*
X163775030Y-78749000D01*
X163359340Y-78921184D01*
X163041184Y-79239340D01*
X162869000Y-79655030D01*
X162869000Y-80104970D01*
X162876054Y-80121999D01*
X162420028Y-80121999D01*
X162370000Y-80112048D01*
X162319972Y-80121999D01*
X162319969Y-80121999D01*
X162171789Y-80151474D01*
X162003754Y-80263752D01*
X161975413Y-80306167D01*
X161789580Y-80492000D01*
X160688464Y-80492000D01*
X160688464Y-80200000D01*
X160658894Y-80051341D01*
X160574686Y-79925314D01*
X160448659Y-79841106D01*
X160300000Y-79811536D01*
X158700000Y-79811536D01*
X158551341Y-79841106D01*
X158425314Y-79925314D01*
X158341106Y-80051341D01*
X158311536Y-80200000D01*
X158311536Y-80385227D01*
X158253864Y-80245995D01*
X158007745Y-80171861D01*
X157179605Y-81000000D01*
X157193748Y-81014142D01*
X157014142Y-81193748D01*
X157000000Y-81179605D01*
X156985858Y-81193748D01*
X156806252Y-81014142D01*
X156820395Y-81000000D01*
X155992255Y-80171861D01*
X155746136Y-80245995D01*
X155553035Y-80783223D01*
X155580222Y-81353454D01*
X155690215Y-81619001D01*
X154456237Y-81619001D01*
X153877989Y-81040754D01*
X153886096Y-81000000D01*
X153786675Y-80500179D01*
X153503549Y-80076451D01*
X153377541Y-79992255D01*
X156171861Y-79992255D01*
X157000000Y-80820395D01*
X157828139Y-79992255D01*
X157754005Y-79746136D01*
X157216777Y-79553035D01*
X156646546Y-79580222D01*
X156245995Y-79746136D01*
X156171861Y-79992255D01*
X153377541Y-79992255D01*
X153079821Y-79793325D01*
X152706166Y-79719000D01*
X152556235Y-79719000D01*
X152389000Y-79551765D01*
X152389000Y-77170761D01*
X152448659Y-77158894D01*
X152574686Y-77074686D01*
X152658894Y-76948659D01*
X152688464Y-76800000D01*
X152688464Y-76007745D01*
X156171861Y-76007745D01*
X156245995Y-76253864D01*
X156783223Y-76446965D01*
X157353454Y-76419778D01*
X157754005Y-76253864D01*
X157828139Y-76007745D01*
X157000000Y-75179605D01*
X156171861Y-76007745D01*
X152688464Y-76007745D01*
X152688464Y-75200000D01*
X152658894Y-75051341D01*
X152574686Y-74925314D01*
X152448659Y-74841106D01*
X152300000Y-74811536D01*
X152114773Y-74811536D01*
X152183126Y-74783223D01*
X155553035Y-74783223D01*
X155580222Y-75353454D01*
X155746136Y-75754005D01*
X155992255Y-75828139D01*
X156820395Y-75000000D01*
X155992255Y-74171861D01*
X155746136Y-74245995D01*
X155553035Y-74783223D01*
X152183126Y-74783223D01*
X152254005Y-74753864D01*
X152328139Y-74507745D01*
X151500000Y-73679605D01*
X150671861Y-74507745D01*
X150745995Y-74753864D01*
X150906445Y-74811536D01*
X150700000Y-74811536D01*
X150551341Y-74841106D01*
X150425314Y-74925314D01*
X150341106Y-75051341D01*
X150311536Y-75200000D01*
X150311536Y-76800000D01*
X150341106Y-76948659D01*
X150425314Y-77074686D01*
X150551341Y-77158894D01*
X150611000Y-77170761D01*
X150611001Y-79605116D01*
X150404742Y-79508954D01*
X150167000Y-79629003D01*
X150167000Y-80873000D01*
X150187000Y-80873000D01*
X150187000Y-81127000D01*
X150167000Y-81127000D01*
X150167000Y-82370997D01*
X150404742Y-82491046D01*
X150947576Y-82237966D01*
X151352240Y-81796417D01*
X151436146Y-81593839D01*
X151656451Y-81923549D01*
X152080179Y-82206675D01*
X152453834Y-82281000D01*
X152603765Y-82281000D01*
X153397471Y-83074707D01*
X153447068Y-83148934D01*
X153741131Y-83345420D01*
X154000445Y-83397001D01*
X154000449Y-83397001D01*
X154088000Y-83414416D01*
X154175551Y-83397001D01*
X164961847Y-83397001D01*
X166630407Y-85065562D01*
X166380424Y-85439688D01*
X166284884Y-85920000D01*
X166380424Y-86400312D01*
X166652499Y-86807501D01*
X167059688Y-87079576D01*
X167418761Y-87151000D01*
X167661239Y-87151000D01*
X168020312Y-87079576D01*
X168425258Y-86809000D01*
X172492445Y-86809000D01*
X172580000Y-86826416D01*
X172667555Y-86809000D01*
X172667556Y-86809000D01*
X172926870Y-86757419D01*
X172970818Y-86728054D01*
X173817472Y-87574708D01*
X173867068Y-87648934D01*
X174161131Y-87845420D01*
X174420445Y-87897001D01*
X174420449Y-87897001D01*
X174508000Y-87914416D01*
X174595551Y-87897001D01*
X176904444Y-87897001D01*
X176991999Y-87914417D01*
X177079554Y-87897001D01*
X177079555Y-87897001D01*
X177338869Y-87845420D01*
X177632932Y-87648934D01*
X177682530Y-87574705D01*
X178390530Y-86866706D01*
X178390532Y-86866703D01*
X178576235Y-86681000D01*
X178734915Y-86681000D01*
X179168983Y-86501203D01*
X179501203Y-86168983D01*
X179581071Y-85976164D01*
X179872591Y-85684644D01*
X179927522Y-85960803D01*
X180188547Y-86351453D01*
X180532000Y-86580942D01*
X180532001Y-88744000D01*
X180250166Y-88744000D01*
X179788533Y-88935215D01*
X179435215Y-89288533D01*
X179393736Y-89388671D01*
X179315953Y-89200884D01*
X179062060Y-89117545D01*
X178179605Y-90000000D01*
X179062060Y-90882455D01*
X179315953Y-90799116D01*
X179388753Y-90599298D01*
X179435215Y-90711467D01*
X179788533Y-91064785D01*
X180250166Y-91256000D01*
X180749834Y-91256000D01*
X181211467Y-91064785D01*
X181564785Y-90711467D01*
X181756000Y-90249834D01*
X181756000Y-89750166D01*
X181564785Y-89288533D01*
X181548000Y-89271748D01*
X181548000Y-86580942D01*
X181891453Y-86351453D01*
X182152478Y-85960803D01*
X182164082Y-85902465D01*
X182612453Y-86350836D01*
X182640792Y-86393248D01*
X182683204Y-86421587D01*
X182683206Y-86421589D01*
X182797878Y-86498210D01*
X182808827Y-86505526D01*
X182957007Y-86535001D01*
X182957010Y-86535001D01*
X183007038Y-86544952D01*
X183057066Y-86535001D01*
X187291601Y-86535001D01*
X187341629Y-86544952D01*
X187391657Y-86535001D01*
X187391661Y-86535001D01*
X187539841Y-86505526D01*
X187707876Y-86393248D01*
X187736217Y-86350834D01*
X187975152Y-86111899D01*
X187998797Y-86168983D01*
X188331017Y-86501203D01*
X188492000Y-86567885D01*
X188492001Y-88490000D01*
X188285750Y-88490000D01*
X188127000Y-88648750D01*
X188127000Y-89873000D01*
X188147000Y-89873000D01*
X188147000Y-90127000D01*
X188127000Y-90127000D01*
X188127000Y-91351250D01*
X188285750Y-91510000D01*
X189001309Y-91510000D01*
X189234698Y-91413327D01*
X189325322Y-91322704D01*
X189826452Y-91823835D01*
X189854791Y-91866247D01*
X189897203Y-91894586D01*
X189897205Y-91894588D01*
X190022826Y-91978525D01*
X190171006Y-92008000D01*
X190171009Y-92008000D01*
X190221037Y-92017951D01*
X190271065Y-92008000D01*
X191983640Y-92008000D01*
X192021475Y-92198211D01*
X192105412Y-92323832D01*
X192105415Y-92323835D01*
X192133754Y-92366247D01*
X192176165Y-92394586D01*
X192227590Y-92446010D01*
X187414431Y-92446010D01*
X185254171Y-90285750D01*
X186490000Y-90285750D01*
X186490000Y-91001310D01*
X186586673Y-91234699D01*
X186765302Y-91413327D01*
X186998691Y-91510000D01*
X187714250Y-91510000D01*
X187873000Y-91351250D01*
X187873000Y-90127000D01*
X186648750Y-90127000D01*
X186490000Y-90285750D01*
X185254171Y-90285750D01*
X185008000Y-90039580D01*
X185008000Y-89319630D01*
X185145992Y-89181638D01*
X185221771Y-88998690D01*
X186490000Y-88998690D01*
X186490000Y-89714250D01*
X186648750Y-89873000D01*
X187873000Y-89873000D01*
X187873000Y-88648750D01*
X187714250Y-88490000D01*
X186998691Y-88490000D01*
X186765302Y-88586673D01*
X186586673Y-88765301D01*
X186490000Y-88998690D01*
X185221771Y-88998690D01*
X185262000Y-88901571D01*
X185262000Y-88598429D01*
X185145992Y-88318362D01*
X184931638Y-88104008D01*
X184651571Y-87988000D01*
X184348429Y-87988000D01*
X184068362Y-88104008D01*
X183854008Y-88318362D01*
X183738000Y-88598429D01*
X183738000Y-88901571D01*
X183854008Y-89181638D01*
X183992001Y-89319631D01*
X183992000Y-90199972D01*
X183982049Y-90250000D01*
X183992000Y-90300028D01*
X183992000Y-90300031D01*
X184010701Y-90394045D01*
X184021475Y-90448211D01*
X184050294Y-90491341D01*
X184133753Y-90616247D01*
X184176168Y-90644588D01*
X186809424Y-93277845D01*
X186837763Y-93320257D01*
X186880175Y-93348596D01*
X186880177Y-93348598D01*
X186945296Y-93392108D01*
X187005798Y-93432535D01*
X187153978Y-93462010D01*
X187153982Y-93462010D01*
X187204010Y-93471961D01*
X187254038Y-93462010D01*
X199274924Y-93462010D01*
X199324952Y-93471961D01*
X199374980Y-93462010D01*
X199374984Y-93462010D01*
X199523164Y-93432535D01*
X199691199Y-93320257D01*
X199719540Y-93277842D01*
X202025836Y-90971547D01*
X202068248Y-90943208D01*
X202096587Y-90900796D01*
X202096589Y-90900794D01*
X202180526Y-90775173D01*
X202199621Y-90679174D01*
X202210001Y-90626993D01*
X202210001Y-90626989D01*
X202219952Y-90576961D01*
X202210001Y-90526933D01*
X202210001Y-89650486D01*
X202254532Y-89605955D01*
X205519000Y-89605955D01*
X205519000Y-90394045D01*
X205820589Y-91122146D01*
X206377854Y-91679411D01*
X207105955Y-91981000D01*
X207894045Y-91981000D01*
X208622146Y-91679411D01*
X209179411Y-91122146D01*
X209481000Y-90394045D01*
X209481000Y-89605955D01*
X209179411Y-88877854D01*
X208622146Y-88320589D01*
X207894045Y-88019000D01*
X207105955Y-88019000D01*
X206377854Y-88320589D01*
X205820589Y-88877854D01*
X205519000Y-89605955D01*
X202254532Y-89605955D01*
X206961536Y-84898951D01*
X206961536Y-86400000D01*
X206991106Y-86548659D01*
X207075314Y-86674686D01*
X207201341Y-86758894D01*
X207350000Y-86788464D01*
X207758795Y-86788464D01*
X207771475Y-86852211D01*
X207855412Y-86977832D01*
X207855415Y-86977835D01*
X207883754Y-87020247D01*
X207926166Y-87048586D01*
X210242000Y-89364421D01*
X210242001Y-89568595D01*
X210242000Y-89568599D01*
X210242000Y-89682116D01*
X210081017Y-89748797D01*
X209748797Y-90081017D01*
X209569000Y-90515085D01*
X209569000Y-90984915D01*
X209748797Y-91418983D01*
X210081017Y-91751203D01*
X210515085Y-91931000D01*
X210622998Y-91931000D01*
X210622998Y-92020084D01*
X210400961Y-91898096D01*
X210012577Y-92058959D01*
X209597611Y-92434866D01*
X209358086Y-92940959D01*
X209479371Y-93163000D01*
X210623000Y-93163000D01*
X210623000Y-93143000D01*
X210877000Y-93143000D01*
X210877000Y-93163000D01*
X210897000Y-93163000D01*
X210897000Y-93417000D01*
X210877000Y-93417000D01*
X210877000Y-93437000D01*
X210623000Y-93437000D01*
X210623000Y-93417000D01*
X209479371Y-93417000D01*
X209358086Y-93639041D01*
X209597611Y-94145134D01*
X210012577Y-94521041D01*
X210068009Y-94544000D01*
X115456000Y-94544000D01*
X115456000Y-89605955D01*
X118019000Y-89605955D01*
X118019000Y-90394045D01*
X118320589Y-91122146D01*
X118877854Y-91679411D01*
X119605955Y-91981000D01*
X120394045Y-91981000D01*
X121122146Y-91679411D01*
X121679411Y-91122146D01*
X121981000Y-90394045D01*
X121981000Y-89605955D01*
X121679411Y-88877854D01*
X121122146Y-88320589D01*
X120394045Y-88019000D01*
X119605955Y-88019000D01*
X118877854Y-88320589D01*
X118320589Y-88877854D01*
X118019000Y-89605955D01*
X115456000Y-89605955D01*
X115456000Y-78849041D01*
X125108086Y-78849041D01*
X125347611Y-79355134D01*
X125762577Y-79731041D01*
X126150961Y-79891904D01*
X126372998Y-79769916D01*
X126372998Y-79859000D01*
X126265085Y-79859000D01*
X125831017Y-80038797D01*
X125498797Y-80371017D01*
X125319000Y-80805085D01*
X125319000Y-81274915D01*
X125385682Y-81435898D01*
X125376167Y-81445413D01*
X125333755Y-81473752D01*
X125305416Y-81516164D01*
X125305413Y-81516167D01*
X125221476Y-81641788D01*
X125182050Y-81839999D01*
X125192002Y-81890032D01*
X125192001Y-90803973D01*
X125182050Y-90854001D01*
X125192001Y-90904029D01*
X125192001Y-90904032D01*
X125211351Y-91001310D01*
X125221476Y-91052212D01*
X125304301Y-91176168D01*
X125333754Y-91220248D01*
X125376169Y-91248589D01*
X125951411Y-91823831D01*
X125979753Y-91866247D01*
X126147788Y-91978525D01*
X126211536Y-91991205D01*
X126211536Y-92400000D01*
X126241106Y-92548659D01*
X126325314Y-92674686D01*
X126451341Y-92758894D01*
X126600000Y-92788464D01*
X128400000Y-92788464D01*
X128548659Y-92758894D01*
X128674686Y-92674686D01*
X128758894Y-92548659D01*
X128788464Y-92400000D01*
X128788464Y-92352884D01*
X130759414Y-94323835D01*
X130787753Y-94366247D01*
X130830165Y-94394586D01*
X130830167Y-94394588D01*
X130955788Y-94478525D01*
X131103968Y-94508000D01*
X131103972Y-94508000D01*
X131154000Y-94517951D01*
X131204028Y-94508000D01*
X160117934Y-94508000D01*
X160167962Y-94517951D01*
X160217990Y-94508000D01*
X160217994Y-94508000D01*
X160366174Y-94478525D01*
X160534209Y-94366247D01*
X160562550Y-94323832D01*
X163768360Y-91118022D01*
X163840424Y-91480312D01*
X164112499Y-91887501D01*
X164519688Y-92159576D01*
X164878761Y-92231000D01*
X165121239Y-92231000D01*
X165480312Y-92159576D01*
X165887501Y-91887501D01*
X166153445Y-91489488D01*
X166268355Y-91766924D01*
X166658642Y-92195183D01*
X167183108Y-92441486D01*
X167413000Y-92320819D01*
X167413000Y-91127000D01*
X167667000Y-91127000D01*
X167667000Y-92320819D01*
X167896892Y-92441486D01*
X168421358Y-92195183D01*
X168811645Y-91766924D01*
X168981476Y-91356890D01*
X168860155Y-91127000D01*
X167667000Y-91127000D01*
X167413000Y-91127000D01*
X167393000Y-91127000D01*
X167393000Y-90873000D01*
X167413000Y-90873000D01*
X167413000Y-90853000D01*
X167667000Y-90853000D01*
X167667000Y-90873000D01*
X168860155Y-90873000D01*
X168981476Y-90643110D01*
X168833462Y-90285750D01*
X171490000Y-90285750D01*
X171490000Y-91001310D01*
X171586673Y-91234699D01*
X171765302Y-91413327D01*
X171998691Y-91510000D01*
X172714250Y-91510000D01*
X172873000Y-91351250D01*
X172873000Y-90127000D01*
X171648750Y-90127000D01*
X171490000Y-90285750D01*
X168833462Y-90285750D01*
X168811645Y-90233076D01*
X168421358Y-89804817D01*
X168023037Y-89617755D01*
X168427501Y-89347501D01*
X168660569Y-88998690D01*
X171490000Y-88998690D01*
X171490000Y-89714250D01*
X171648750Y-89873000D01*
X172873000Y-89873000D01*
X172873000Y-88648750D01*
X173127000Y-88648750D01*
X173127000Y-89873000D01*
X173147000Y-89873000D01*
X173147000Y-90127000D01*
X173127000Y-90127000D01*
X173127000Y-91351250D01*
X173285750Y-91510000D01*
X174001309Y-91510000D01*
X174234698Y-91413327D01*
X174413327Y-91234699D01*
X174510000Y-91001310D01*
X174510000Y-90786252D01*
X174788533Y-91064785D01*
X175250166Y-91256000D01*
X175749834Y-91256000D01*
X176211467Y-91064785D01*
X176214192Y-91062060D01*
X177117545Y-91062060D01*
X177200884Y-91315953D01*
X177765306Y-91521590D01*
X178365458Y-91495579D01*
X178799116Y-91315953D01*
X178882455Y-91062060D01*
X178000000Y-90179605D01*
X177117545Y-91062060D01*
X176214192Y-91062060D01*
X176564785Y-90711467D01*
X176606264Y-90611329D01*
X176684047Y-90799116D01*
X176937940Y-90882455D01*
X177820395Y-90000000D01*
X176937940Y-89117545D01*
X176684047Y-89200884D01*
X176611247Y-89400702D01*
X176564785Y-89288533D01*
X176214192Y-88937940D01*
X177117545Y-88937940D01*
X178000000Y-89820395D01*
X178882455Y-88937940D01*
X178799116Y-88684047D01*
X178234694Y-88478410D01*
X177634542Y-88504421D01*
X177200884Y-88684047D01*
X177117545Y-88937940D01*
X176214192Y-88937940D01*
X176211467Y-88935215D01*
X175749834Y-88744000D01*
X175250166Y-88744000D01*
X174788533Y-88935215D01*
X174510000Y-89213748D01*
X174510000Y-88998690D01*
X174413327Y-88765301D01*
X174234698Y-88586673D01*
X174001309Y-88490000D01*
X173285750Y-88490000D01*
X173127000Y-88648750D01*
X172873000Y-88648750D01*
X172714250Y-88490000D01*
X171998691Y-88490000D01*
X171765302Y-88586673D01*
X171586673Y-88765301D01*
X171490000Y-88998690D01*
X168660569Y-88998690D01*
X168699576Y-88940312D01*
X168795116Y-88460000D01*
X168699576Y-87979688D01*
X168427501Y-87572499D01*
X168020312Y-87300424D01*
X167661239Y-87229000D01*
X167418761Y-87229000D01*
X167059688Y-87300424D01*
X166652499Y-87572499D01*
X166380424Y-87979688D01*
X166284884Y-88460000D01*
X166373928Y-88907652D01*
X166152579Y-89129001D01*
X166033498Y-89129001D01*
X166159576Y-88940312D01*
X166255116Y-88460000D01*
X166159576Y-87979688D01*
X165887501Y-87572499D01*
X165480312Y-87300424D01*
X165121239Y-87229000D01*
X164878761Y-87229000D01*
X164519688Y-87300424D01*
X164112499Y-87572499D01*
X163840424Y-87979688D01*
X163744884Y-88460000D01*
X163840424Y-88940312D01*
X164108310Y-89341232D01*
X162181000Y-91268542D01*
X162181000Y-91265085D01*
X162001203Y-90831017D01*
X161668983Y-90498797D01*
X161234915Y-90319000D01*
X161127002Y-90319000D01*
X161127002Y-90229916D01*
X161349039Y-90351904D01*
X161737423Y-90191041D01*
X162152389Y-89815134D01*
X162391914Y-89309041D01*
X162270629Y-89087000D01*
X161127000Y-89087000D01*
X161127000Y-89107000D01*
X160873000Y-89107000D01*
X160873000Y-89087000D01*
X159729371Y-89087000D01*
X159608086Y-89309041D01*
X159847611Y-89815134D01*
X160262577Y-90191041D01*
X160650961Y-90351904D01*
X160872998Y-90229916D01*
X160872998Y-90319000D01*
X160765085Y-90319000D01*
X160331017Y-90498797D01*
X159998797Y-90831017D01*
X159932116Y-90992000D01*
X158288464Y-90992000D01*
X158288464Y-90640000D01*
X158258894Y-90491341D01*
X158174686Y-90365314D01*
X158048659Y-90281106D01*
X157900000Y-90251536D01*
X157274291Y-90251536D01*
X157499821Y-90206675D01*
X157923549Y-89923549D01*
X158206675Y-89499821D01*
X158306096Y-89000000D01*
X158228711Y-88610959D01*
X159608086Y-88610959D01*
X159729371Y-88833000D01*
X160873000Y-88833000D01*
X160873000Y-87690085D01*
X161127000Y-87690085D01*
X161127000Y-88833000D01*
X162270629Y-88833000D01*
X162391914Y-88610959D01*
X162152389Y-88104866D01*
X161737423Y-87728959D01*
X161349039Y-87568096D01*
X161127000Y-87690085D01*
X160873000Y-87690085D01*
X160650961Y-87568096D01*
X160262577Y-87728959D01*
X159847611Y-88104866D01*
X159608086Y-88610959D01*
X158228711Y-88610959D01*
X158206675Y-88500179D01*
X157923549Y-88076451D01*
X157593839Y-87856146D01*
X157796417Y-87772240D01*
X158237966Y-87367576D01*
X158491046Y-86824742D01*
X158370997Y-86587000D01*
X157127000Y-86587000D01*
X157127000Y-86607000D01*
X156873000Y-86607000D01*
X156873000Y-86587000D01*
X155629003Y-86587000D01*
X155508954Y-86824742D01*
X155762034Y-87367576D01*
X156203583Y-87772240D01*
X156406161Y-87856146D01*
X156404883Y-87857000D01*
X152192572Y-87857000D01*
X152080000Y-87834608D01*
X151634023Y-87923318D01*
X151537220Y-87988000D01*
X151341164Y-88119000D01*
X150705846Y-88119000D01*
X150014499Y-88405365D01*
X149485365Y-88934499D01*
X149199000Y-89625846D01*
X149199000Y-90374154D01*
X149485365Y-91065501D01*
X150014499Y-91594635D01*
X150705846Y-91881000D01*
X151454154Y-91881000D01*
X152145501Y-91594635D01*
X152674635Y-91065501D01*
X152961000Y-90374154D01*
X152961000Y-90143000D01*
X156404883Y-90143000D01*
X156500179Y-90206675D01*
X156725709Y-90251536D01*
X156100000Y-90251536D01*
X155951341Y-90281106D01*
X155825314Y-90365314D01*
X155741106Y-90491341D01*
X155711536Y-90640000D01*
X155711536Y-92440000D01*
X155741106Y-92588659D01*
X155825314Y-92714686D01*
X155951341Y-92798894D01*
X156100000Y-92828464D01*
X157900000Y-92828464D01*
X158048659Y-92798894D01*
X158174686Y-92714686D01*
X158258894Y-92588659D01*
X158288464Y-92440000D01*
X158288464Y-92008000D01*
X159932116Y-92008000D01*
X159998797Y-92168983D01*
X160331017Y-92501203D01*
X160765085Y-92681000D01*
X160768542Y-92681000D01*
X159957542Y-93492000D01*
X138133841Y-93492000D01*
X138442056Y-93286058D01*
X138505826Y-93190619D01*
X139815446Y-91881000D01*
X140454154Y-91881000D01*
X141145501Y-91594635D01*
X141674635Y-91065501D01*
X141961000Y-90374154D01*
X141961000Y-89625846D01*
X141674635Y-88934499D01*
X141145501Y-88405365D01*
X140454154Y-88119000D01*
X139705846Y-88119000D01*
X139014499Y-88405365D01*
X138485365Y-88934499D01*
X138199000Y-89625846D01*
X138199000Y-90264554D01*
X137144554Y-91319001D01*
X136888464Y-91319001D01*
X136888464Y-89727981D01*
X140728621Y-85887825D01*
X140824057Y-85824057D01*
X141076682Y-85445976D01*
X141143000Y-85112572D01*
X141143000Y-85112571D01*
X141165392Y-85000000D01*
X141143000Y-84887429D01*
X141143000Y-84186122D01*
X141444706Y-84061152D01*
X144857001Y-87473447D01*
X144857001Y-88111536D01*
X144500000Y-88111536D01*
X144351341Y-88141106D01*
X144225314Y-88225314D01*
X144141106Y-88351341D01*
X144111536Y-88500000D01*
X144111536Y-91500000D01*
X144141106Y-91648659D01*
X144225314Y-91774686D01*
X144351341Y-91858894D01*
X144500000Y-91888464D01*
X147500000Y-91888464D01*
X147648659Y-91858894D01*
X147774686Y-91774686D01*
X147858894Y-91648659D01*
X147888464Y-91500000D01*
X147888464Y-88500000D01*
X147858894Y-88351341D01*
X147774686Y-88225314D01*
X147648659Y-88141106D01*
X147500000Y-88111536D01*
X147143000Y-88111536D01*
X147143000Y-87112570D01*
X147165392Y-86999999D01*
X147131494Y-86829582D01*
X147076682Y-86554024D01*
X146824057Y-86175943D01*
X146728621Y-86112175D01*
X146711704Y-86095258D01*
X155508954Y-86095258D01*
X155629003Y-86333000D01*
X156873000Y-86333000D01*
X156873000Y-85089622D01*
X157127000Y-85089622D01*
X157127000Y-86333000D01*
X158370997Y-86333000D01*
X158491046Y-86095258D01*
X158237966Y-85552424D01*
X157796417Y-85147760D01*
X157608677Y-85070000D01*
X163761536Y-85070000D01*
X163761536Y-86770000D01*
X163791106Y-86918659D01*
X163875314Y-87044686D01*
X164001341Y-87128894D01*
X164150000Y-87158464D01*
X165850000Y-87158464D01*
X165998659Y-87128894D01*
X166124686Y-87044686D01*
X166208894Y-86918659D01*
X166238464Y-86770000D01*
X166238464Y-85070000D01*
X166208894Y-84921341D01*
X166124686Y-84795314D01*
X165998659Y-84711106D01*
X165850000Y-84681536D01*
X164150000Y-84681536D01*
X164001341Y-84711106D01*
X163875314Y-84795314D01*
X163791106Y-84921341D01*
X163761536Y-85070000D01*
X157608677Y-85070000D01*
X157364740Y-84968964D01*
X157127000Y-85089622D01*
X156873000Y-85089622D01*
X156635260Y-84968964D01*
X156203583Y-85147760D01*
X155762034Y-85552424D01*
X155508954Y-86095258D01*
X146711704Y-86095258D01*
X143061152Y-82444706D01*
X143343937Y-81762000D01*
X146211536Y-81762000D01*
X146211536Y-81900000D01*
X146241106Y-82048659D01*
X146325314Y-82174686D01*
X146451341Y-82258894D01*
X146600000Y-82288464D01*
X148400000Y-82288464D01*
X148548659Y-82258894D01*
X148674686Y-82174686D01*
X148758894Y-82048659D01*
X148788464Y-81900000D01*
X148788464Y-81862654D01*
X149132424Y-82237966D01*
X149675258Y-82491046D01*
X149913000Y-82370997D01*
X149913000Y-81127000D01*
X149893000Y-81127000D01*
X149893000Y-80873000D01*
X149913000Y-80873000D01*
X149913000Y-79629003D01*
X149675258Y-79508954D01*
X149132424Y-79762034D01*
X148788464Y-80137346D01*
X148788464Y-80100000D01*
X148758894Y-79951341D01*
X148674686Y-79825314D01*
X148548659Y-79741106D01*
X148400000Y-79711536D01*
X148262000Y-79711536D01*
X148262000Y-79413042D01*
X148276927Y-79337999D01*
X148262000Y-79262956D01*
X148262000Y-79262952D01*
X148217788Y-79040683D01*
X148049371Y-78788629D01*
X147985749Y-78746118D01*
X146262000Y-77022370D01*
X146262000Y-75688464D01*
X146300000Y-75688464D01*
X146448659Y-75658894D01*
X146574686Y-75574686D01*
X146658894Y-75448659D01*
X146688464Y-75300000D01*
X146688464Y-73700000D01*
X146658894Y-73551341D01*
X146574686Y-73425314D01*
X146448659Y-73341106D01*
X146300000Y-73311536D01*
X146114773Y-73311536D01*
X146183126Y-73283223D01*
X150053035Y-73283223D01*
X150080222Y-73853454D01*
X150246136Y-74254005D01*
X150492255Y-74328139D01*
X151320395Y-73500000D01*
X151679605Y-73500000D01*
X152507745Y-74328139D01*
X152753864Y-74254005D01*
X152847947Y-73992255D01*
X156171861Y-73992255D01*
X157000000Y-74820395D01*
X157828139Y-73992255D01*
X157754005Y-73746136D01*
X157216777Y-73553035D01*
X156646546Y-73580222D01*
X156245995Y-73746136D01*
X156171861Y-73992255D01*
X152847947Y-73992255D01*
X152946965Y-73716777D01*
X152919778Y-73146546D01*
X152753864Y-72745995D01*
X152507745Y-72671861D01*
X151679605Y-73500000D01*
X151320395Y-73500000D01*
X150492255Y-72671861D01*
X150246136Y-72745995D01*
X150053035Y-73283223D01*
X146183126Y-73283223D01*
X146254005Y-73253864D01*
X146328139Y-73007745D01*
X145500000Y-72179605D01*
X144671861Y-73007745D01*
X144745995Y-73253864D01*
X144906445Y-73311536D01*
X144700000Y-73311536D01*
X144551341Y-73341106D01*
X144425314Y-73425314D01*
X144341106Y-73551341D01*
X144311536Y-73700000D01*
X144311536Y-73738000D01*
X140688464Y-73738000D01*
X140688464Y-73700000D01*
X140658894Y-73551341D01*
X140574686Y-73425314D01*
X140448659Y-73341106D01*
X140300000Y-73311536D01*
X140114773Y-73311536D01*
X140254005Y-73253864D01*
X140328139Y-73007745D01*
X139500000Y-72179605D01*
X138671861Y-73007745D01*
X138745995Y-73253864D01*
X138906445Y-73311536D01*
X138700000Y-73311536D01*
X138551341Y-73341106D01*
X138425314Y-73425314D01*
X138341106Y-73551341D01*
X138311536Y-73700000D01*
X138311536Y-73738000D01*
X134688464Y-73738000D01*
X134688464Y-73700000D01*
X134658894Y-73551341D01*
X134574686Y-73425314D01*
X134448659Y-73341106D01*
X134300000Y-73311536D01*
X134114773Y-73311536D01*
X134254005Y-73253864D01*
X134328139Y-73007745D01*
X133500000Y-72179605D01*
X132671861Y-73007745D01*
X132745995Y-73253864D01*
X132906445Y-73311536D01*
X132700000Y-73311536D01*
X132551341Y-73341106D01*
X132425314Y-73425314D01*
X132341106Y-73551341D01*
X132311536Y-73700000D01*
X132311536Y-73738000D01*
X128688464Y-73738000D01*
X128688464Y-73700000D01*
X128658894Y-73551341D01*
X128574686Y-73425314D01*
X128448659Y-73341106D01*
X128300000Y-73311536D01*
X128114773Y-73311536D01*
X128254005Y-73253864D01*
X128328139Y-73007745D01*
X127500000Y-72179605D01*
X126671861Y-73007745D01*
X126745995Y-73253864D01*
X126906445Y-73311536D01*
X126700000Y-73311536D01*
X126551341Y-73341106D01*
X126425314Y-73425314D01*
X126341106Y-73551341D01*
X126311536Y-73700000D01*
X126311536Y-75300000D01*
X126341106Y-75448659D01*
X126425314Y-75574686D01*
X126551341Y-75658894D01*
X126700000Y-75688464D01*
X128300000Y-75688464D01*
X128448659Y-75658894D01*
X128574686Y-75574686D01*
X128658894Y-75448659D01*
X128688464Y-75300000D01*
X128688464Y-75262000D01*
X132311536Y-75262000D01*
X132311536Y-75300000D01*
X132341106Y-75448659D01*
X132425314Y-75574686D01*
X132551341Y-75658894D01*
X132700000Y-75688464D01*
X134300000Y-75688464D01*
X134448659Y-75658894D01*
X134574686Y-75574686D01*
X134658894Y-75448659D01*
X134688464Y-75300000D01*
X134688464Y-75262000D01*
X138311536Y-75262000D01*
X138311536Y-75300000D01*
X138341106Y-75448659D01*
X138425314Y-75574686D01*
X138551341Y-75658894D01*
X138700000Y-75688464D01*
X138738000Y-75688464D01*
X138738000Y-76182316D01*
X138723073Y-76257360D01*
X138738000Y-76332403D01*
X138738000Y-76332407D01*
X138782212Y-76554676D01*
X138950629Y-76806731D01*
X139014253Y-76849243D01*
X139238001Y-77072991D01*
X139238001Y-77656062D01*
X138084817Y-78133726D01*
X137133726Y-79084817D01*
X136619000Y-80327477D01*
X136619000Y-81672523D01*
X137133726Y-82915183D01*
X138084817Y-83866274D01*
X138857001Y-84186123D01*
X138857001Y-84526553D01*
X135272019Y-88111536D01*
X133500000Y-88111536D01*
X133351341Y-88141106D01*
X133225314Y-88225314D01*
X133141106Y-88351341D01*
X133111536Y-88500000D01*
X133111536Y-91319001D01*
X132748239Y-91319001D01*
X129660619Y-88231382D01*
X129596849Y-88135943D01*
X129218768Y-87883318D01*
X128885364Y-87817000D01*
X128885363Y-87817000D01*
X128772792Y-87794608D01*
X128660221Y-87817000D01*
X128095117Y-87817000D01*
X128093839Y-87816146D01*
X128296417Y-87732240D01*
X128737966Y-87327576D01*
X128991046Y-86784742D01*
X128870997Y-86547000D01*
X127627000Y-86547000D01*
X127627000Y-86567000D01*
X127373000Y-86567000D01*
X127373000Y-86547000D01*
X127353000Y-86547000D01*
X127353000Y-86293000D01*
X127373000Y-86293000D01*
X127373000Y-85049622D01*
X127627000Y-85049622D01*
X127627000Y-86293000D01*
X128870997Y-86293000D01*
X128991046Y-86055258D01*
X128737966Y-85512424D01*
X128296417Y-85107760D01*
X127864740Y-84928964D01*
X127627000Y-85049622D01*
X127373000Y-85049622D01*
X127135260Y-84928964D01*
X126703583Y-85107760D01*
X126262034Y-85512424D01*
X126208001Y-85628320D01*
X126208001Y-83596630D01*
X130382975Y-83596630D01*
X130725566Y-84071277D01*
X132058800Y-84631342D01*
X133504875Y-84638568D01*
X134843639Y-84091854D01*
X134874434Y-84071277D01*
X135217025Y-83596630D01*
X132800000Y-81179605D01*
X130382975Y-83596630D01*
X126208001Y-83596630D01*
X126208001Y-82197355D01*
X126265085Y-82221000D01*
X126734915Y-82221000D01*
X127168983Y-82041203D01*
X127501203Y-81708983D01*
X127502904Y-81704875D01*
X129161432Y-81704875D01*
X129708146Y-83043639D01*
X129728723Y-83074434D01*
X130203370Y-83417025D01*
X132620395Y-81000000D01*
X132979605Y-81000000D01*
X135396630Y-83417025D01*
X135871277Y-83074434D01*
X136431342Y-81741200D01*
X136438568Y-80295125D01*
X135891854Y-78956361D01*
X135871277Y-78925566D01*
X135396630Y-78582975D01*
X132979605Y-81000000D01*
X132620395Y-81000000D01*
X130203370Y-78582975D01*
X129728723Y-78925566D01*
X129168658Y-80258800D01*
X129161432Y-81704875D01*
X127502904Y-81704875D01*
X127681000Y-81274915D01*
X127681000Y-80805085D01*
X127501203Y-80371017D01*
X127168983Y-80038797D01*
X126734915Y-79859000D01*
X126627002Y-79859000D01*
X126627002Y-79769916D01*
X126849039Y-79891904D01*
X127237423Y-79731041D01*
X127652389Y-79355134D01*
X127891914Y-78849041D01*
X127770629Y-78627000D01*
X126627000Y-78627000D01*
X126627000Y-78647000D01*
X126373000Y-78647000D01*
X126373000Y-78627000D01*
X125229371Y-78627000D01*
X125108086Y-78849041D01*
X115456000Y-78849041D01*
X115456000Y-78403370D01*
X130382975Y-78403370D01*
X132800000Y-80820395D01*
X135217025Y-78403370D01*
X134874434Y-77928723D01*
X133541200Y-77368658D01*
X132095125Y-77361432D01*
X130756361Y-77908146D01*
X130725566Y-77928723D01*
X130382975Y-78403370D01*
X115456000Y-78403370D01*
X115456000Y-78150959D01*
X125108086Y-78150959D01*
X125229371Y-78373000D01*
X126373000Y-78373000D01*
X126373000Y-77230085D01*
X126627000Y-77230085D01*
X126627000Y-78373000D01*
X127770629Y-78373000D01*
X127891914Y-78150959D01*
X127652389Y-77644866D01*
X127237423Y-77268959D01*
X126849039Y-77108096D01*
X126627000Y-77230085D01*
X126373000Y-77230085D01*
X126150961Y-77108096D01*
X125762577Y-77268959D01*
X125347611Y-77644866D01*
X125108086Y-78150959D01*
X115456000Y-78150959D01*
X115456000Y-74605955D01*
X118019000Y-74605955D01*
X118019000Y-75394045D01*
X118320589Y-76122146D01*
X118877854Y-76679411D01*
X119605955Y-76981000D01*
X120394045Y-76981000D01*
X121122146Y-76679411D01*
X121679411Y-76122146D01*
X121981000Y-75394045D01*
X121981000Y-74605955D01*
X121679411Y-73877854D01*
X121122146Y-73320589D01*
X120394045Y-73019000D01*
X119605955Y-73019000D01*
X118877854Y-73320589D01*
X118320589Y-73877854D01*
X118019000Y-74605955D01*
X115456000Y-74605955D01*
X115456000Y-71783223D01*
X126053035Y-71783223D01*
X126080222Y-72353454D01*
X126246136Y-72754005D01*
X126492255Y-72828139D01*
X127320395Y-72000000D01*
X127679605Y-72000000D01*
X128507745Y-72828139D01*
X128753864Y-72754005D01*
X128946965Y-72216777D01*
X128926295Y-71783223D01*
X132053035Y-71783223D01*
X132080222Y-72353454D01*
X132246136Y-72754005D01*
X132492255Y-72828139D01*
X133320395Y-72000000D01*
X133679605Y-72000000D01*
X134507745Y-72828139D01*
X134753864Y-72754005D01*
X134946965Y-72216777D01*
X134926295Y-71783223D01*
X138053035Y-71783223D01*
X138080222Y-72353454D01*
X138246136Y-72754005D01*
X138492255Y-72828139D01*
X139320395Y-72000000D01*
X139679605Y-72000000D01*
X140507745Y-72828139D01*
X140753864Y-72754005D01*
X140946965Y-72216777D01*
X140926295Y-71783223D01*
X144053035Y-71783223D01*
X144080222Y-72353454D01*
X144246136Y-72754005D01*
X144492255Y-72828139D01*
X145320395Y-72000000D01*
X145679605Y-72000000D01*
X146507745Y-72828139D01*
X146753864Y-72754005D01*
X146847947Y-72492255D01*
X150671861Y-72492255D01*
X151500000Y-73320395D01*
X152328139Y-72492255D01*
X152254005Y-72246136D01*
X151716777Y-72053035D01*
X151146546Y-72080222D01*
X150745995Y-72246136D01*
X150671861Y-72492255D01*
X146847947Y-72492255D01*
X146946965Y-72216777D01*
X146919778Y-71646546D01*
X146885887Y-71564725D01*
X183744331Y-71564725D01*
X184500000Y-72320395D01*
X185255669Y-71564725D01*
X185193831Y-71328958D01*
X184692878Y-71152581D01*
X184162560Y-71181336D01*
X183806169Y-71328958D01*
X183744331Y-71564725D01*
X146885887Y-71564725D01*
X146753864Y-71245995D01*
X146507745Y-71171861D01*
X145679605Y-72000000D01*
X145320395Y-72000000D01*
X144492255Y-71171861D01*
X144246136Y-71245995D01*
X144053035Y-71783223D01*
X140926295Y-71783223D01*
X140919778Y-71646546D01*
X140753864Y-71245995D01*
X140507745Y-71171861D01*
X139679605Y-72000000D01*
X139320395Y-72000000D01*
X138492255Y-71171861D01*
X138246136Y-71245995D01*
X138053035Y-71783223D01*
X134926295Y-71783223D01*
X134919778Y-71646546D01*
X134753864Y-71245995D01*
X134507745Y-71171861D01*
X133679605Y-72000000D01*
X133320395Y-72000000D01*
X132492255Y-71171861D01*
X132246136Y-71245995D01*
X132053035Y-71783223D01*
X128926295Y-71783223D01*
X128919778Y-71646546D01*
X128753864Y-71245995D01*
X128507745Y-71171861D01*
X127679605Y-72000000D01*
X127320395Y-72000000D01*
X126492255Y-71171861D01*
X126246136Y-71245995D01*
X126053035Y-71783223D01*
X115456000Y-71783223D01*
X115456000Y-70992255D01*
X126671861Y-70992255D01*
X127500000Y-71820395D01*
X128328139Y-70992255D01*
X132671861Y-70992255D01*
X133500000Y-71820395D01*
X134328139Y-70992255D01*
X138671861Y-70992255D01*
X139500000Y-71820395D01*
X140328139Y-70992255D01*
X144671861Y-70992255D01*
X145500000Y-71820395D01*
X146328139Y-70992255D01*
X146254005Y-70746136D01*
X145716777Y-70553035D01*
X145146546Y-70580222D01*
X144745995Y-70746136D01*
X144671861Y-70992255D01*
X140328139Y-70992255D01*
X140254005Y-70746136D01*
X139716777Y-70553035D01*
X139146546Y-70580222D01*
X138745995Y-70746136D01*
X138671861Y-70992255D01*
X134328139Y-70992255D01*
X134254005Y-70746136D01*
X133716777Y-70553035D01*
X133146546Y-70580222D01*
X132745995Y-70746136D01*
X132671861Y-70992255D01*
X128328139Y-70992255D01*
X128254005Y-70746136D01*
X127716777Y-70553035D01*
X127146546Y-70580222D01*
X126745995Y-70746136D01*
X126671861Y-70992255D01*
X115456000Y-70992255D01*
X115456000Y-70456000D01*
X212044001Y-70456000D01*
X212044001Y-78442394D01*
G36*
X197723169Y-75935549D02*
X200079002Y-78291382D01*
X200079001Y-81613227D01*
X199920803Y-81507522D01*
X199576318Y-81439000D01*
X199343682Y-81439000D01*
X198999197Y-81507522D01*
X198608547Y-81768547D01*
X198347522Y-82159197D01*
X198255863Y-82620000D01*
X198347522Y-83080803D01*
X198608547Y-83471453D01*
X198999197Y-83732478D01*
X199343682Y-83801000D01*
X199576318Y-83801000D01*
X199920803Y-83732478D01*
X200084223Y-83623284D01*
X200103544Y-83720419D01*
X200108476Y-83745212D01*
X200179189Y-83851041D01*
X200220754Y-83913248D01*
X200263169Y-83941589D01*
X201416448Y-85094869D01*
X201335863Y-85500000D01*
X201427522Y-85960803D01*
X201688547Y-86351453D01*
X202032000Y-86580942D01*
X202032001Y-87749578D01*
X200953301Y-88828279D01*
X200749834Y-88744000D01*
X200250166Y-88744000D01*
X199788533Y-88935215D01*
X199435215Y-89288533D01*
X199393736Y-89388671D01*
X199315953Y-89200884D01*
X199062060Y-89117545D01*
X198179605Y-90000000D01*
X199062060Y-90882455D01*
X199315953Y-90799116D01*
X199388753Y-90599298D01*
X199435215Y-90711467D01*
X199788533Y-91064785D01*
X200250166Y-91256000D01*
X200304541Y-91256000D01*
X199114532Y-92446010D01*
X195551372Y-92446010D01*
X196935322Y-91062060D01*
X197117545Y-91062060D01*
X197200884Y-91315953D01*
X197765306Y-91521590D01*
X198365458Y-91495579D01*
X198799116Y-91315953D01*
X198882455Y-91062060D01*
X198000000Y-90179605D01*
X197117545Y-91062060D01*
X196935322Y-91062060D01*
X197121832Y-90875550D01*
X197164246Y-90847210D01*
X197276524Y-90679175D01*
X197305999Y-90530995D01*
X197305999Y-90530991D01*
X197310119Y-90510276D01*
X197820395Y-90000000D01*
X197806253Y-89985858D01*
X197985858Y-89806253D01*
X198000000Y-89820395D01*
X198882455Y-88937940D01*
X198799116Y-88684047D01*
X198400603Y-88538856D01*
X199523837Y-87415622D01*
X199566248Y-87387284D01*
X199594587Y-87344872D01*
X199594589Y-87344870D01*
X199678526Y-87219249D01*
X199690617Y-87158464D01*
X199708001Y-87071069D01*
X199708001Y-87071065D01*
X199717952Y-87021037D01*
X199708001Y-86971009D01*
X199708001Y-86657355D01*
X199765085Y-86681000D01*
X200234915Y-86681000D01*
X200668983Y-86501203D01*
X201001203Y-86168983D01*
X201181000Y-85734915D01*
X201181000Y-85265085D01*
X201001203Y-84831017D01*
X200668983Y-84498797D01*
X200234915Y-84319000D01*
X199765085Y-84319000D01*
X199331017Y-84498797D01*
X198998797Y-84831017D01*
X198819000Y-85265085D01*
X198819000Y-85734915D01*
X198885682Y-85895898D01*
X198876167Y-85905413D01*
X198833755Y-85933752D01*
X198805416Y-85976164D01*
X198805413Y-85976167D01*
X198721476Y-86101788D01*
X198682050Y-86299999D01*
X198692002Y-86350031D01*
X198692001Y-86810616D01*
X197548000Y-87954618D01*
X197548000Y-86580942D01*
X197891453Y-86351453D01*
X198152478Y-85960803D01*
X198244137Y-85500000D01*
X198152478Y-85039197D01*
X197891453Y-84648547D01*
X197500803Y-84387522D01*
X197156318Y-84319000D01*
X196923682Y-84319000D01*
X196634868Y-84376448D01*
X196634591Y-84376171D01*
X196634589Y-84376168D01*
X196300999Y-84042579D01*
X196300999Y-83626773D01*
X196459197Y-83732478D01*
X196803682Y-83801000D01*
X197036318Y-83801000D01*
X197380803Y-83732478D01*
X197771453Y-83471453D01*
X198032478Y-83080803D01*
X198124137Y-82620000D01*
X198032478Y-82159197D01*
X197771453Y-81768547D01*
X197380803Y-81507522D01*
X197036318Y-81439000D01*
X196803682Y-81439000D01*
X196459197Y-81507522D01*
X196300999Y-81613227D01*
X196300999Y-76006773D01*
X196459197Y-76112478D01*
X196803682Y-76181000D01*
X197036318Y-76181000D01*
X197380803Y-76112478D01*
X197684382Y-75909632D01*
X197723169Y-75935549D01*
X197723169Y-75935549D01*
G37*
X197723169Y-75935549D02*
X200079002Y-78291382D01*
X200079001Y-81613227D01*
X199920803Y-81507522D01*
X199576318Y-81439000D01*
X199343682Y-81439000D01*
X198999197Y-81507522D01*
X198608547Y-81768547D01*
X198347522Y-82159197D01*
X198255863Y-82620000D01*
X198347522Y-83080803D01*
X198608547Y-83471453D01*
X198999197Y-83732478D01*
X199343682Y-83801000D01*
X199576318Y-83801000D01*
X199920803Y-83732478D01*
X200084223Y-83623284D01*
X200103544Y-83720419D01*
X200108476Y-83745212D01*
X200179189Y-83851041D01*
X200220754Y-83913248D01*
X200263169Y-83941589D01*
X201416448Y-85094869D01*
X201335863Y-85500000D01*
X201427522Y-85960803D01*
X201688547Y-86351453D01*
X202032000Y-86580942D01*
X202032001Y-87749578D01*
X200953301Y-88828279D01*
X200749834Y-88744000D01*
X200250166Y-88744000D01*
X199788533Y-88935215D01*
X199435215Y-89288533D01*
X199393736Y-89388671D01*
X199315953Y-89200884D01*
X199062060Y-89117545D01*
X198179605Y-90000000D01*
X199062060Y-90882455D01*
X199315953Y-90799116D01*
X199388753Y-90599298D01*
X199435215Y-90711467D01*
X199788533Y-91064785D01*
X200250166Y-91256000D01*
X200304541Y-91256000D01*
X199114532Y-92446010D01*
X195551372Y-92446010D01*
X196935322Y-91062060D01*
X197117545Y-91062060D01*
X197200884Y-91315953D01*
X197765306Y-91521590D01*
X198365458Y-91495579D01*
X198799116Y-91315953D01*
X198882455Y-91062060D01*
X198000000Y-90179605D01*
X197117545Y-91062060D01*
X196935322Y-91062060D01*
X197121832Y-90875550D01*
X197164246Y-90847210D01*
X197276524Y-90679175D01*
X197305999Y-90530995D01*
X197305999Y-90530991D01*
X197310119Y-90510276D01*
X197820395Y-90000000D01*
X197806253Y-89985858D01*
X197985858Y-89806253D01*
X198000000Y-89820395D01*
X198882455Y-88937940D01*
X198799116Y-88684047D01*
X198400603Y-88538856D01*
X199523837Y-87415622D01*
X199566248Y-87387284D01*
X199594587Y-87344872D01*
X199594589Y-87344870D01*
X199678526Y-87219249D01*
X199690617Y-87158464D01*
X199708001Y-87071069D01*
X199708001Y-87071065D01*
X199717952Y-87021037D01*
X199708001Y-86971009D01*
X199708001Y-86657355D01*
X199765085Y-86681000D01*
X200234915Y-86681000D01*
X200668983Y-86501203D01*
X201001203Y-86168983D01*
X201181000Y-85734915D01*
X201181000Y-85265085D01*
X201001203Y-84831017D01*
X200668983Y-84498797D01*
X200234915Y-84319000D01*
X199765085Y-84319000D01*
X199331017Y-84498797D01*
X198998797Y-84831017D01*
X198819000Y-85265085D01*
X198819000Y-85734915D01*
X198885682Y-85895898D01*
X198876167Y-85905413D01*
X198833755Y-85933752D01*
X198805416Y-85976164D01*
X198805413Y-85976167D01*
X198721476Y-86101788D01*
X198682050Y-86299999D01*
X198692002Y-86350031D01*
X198692001Y-86810616D01*
X197548000Y-87954618D01*
X197548000Y-86580942D01*
X197891453Y-86351453D01*
X198152478Y-85960803D01*
X198244137Y-85500000D01*
X198152478Y-85039197D01*
X197891453Y-84648547D01*
X197500803Y-84387522D01*
X197156318Y-84319000D01*
X196923682Y-84319000D01*
X196634868Y-84376448D01*
X196634591Y-84376171D01*
X196634589Y-84376168D01*
X196300999Y-84042579D01*
X196300999Y-83626773D01*
X196459197Y-83732478D01*
X196803682Y-83801000D01*
X197036318Y-83801000D01*
X197380803Y-83732478D01*
X197771453Y-83471453D01*
X198032478Y-83080803D01*
X198124137Y-82620000D01*
X198032478Y-82159197D01*
X197771453Y-81768547D01*
X197380803Y-81507522D01*
X197036318Y-81439000D01*
X196803682Y-81439000D01*
X196459197Y-81507522D01*
X196300999Y-81613227D01*
X196300999Y-76006773D01*
X196459197Y-76112478D01*
X196803682Y-76181000D01*
X197036318Y-76181000D01*
X197380803Y-76112478D01*
X197684382Y-75909632D01*
X197723169Y-75935549D01*
G36*
X193193748Y-89985858D02*
X193179605Y-90000000D01*
X193193748Y-90014143D01*
X193014143Y-90193748D01*
X193000000Y-90179605D01*
X192985858Y-90193748D01*
X192806253Y-90014143D01*
X192820395Y-90000000D01*
X192806253Y-89985858D01*
X192985858Y-89806253D01*
X193000000Y-89820395D01*
X193014143Y-89806253D01*
X193193748Y-89985858D01*
X193193748Y-89985858D01*
G37*
X193193748Y-89985858D02*
X193179605Y-90000000D01*
X193193748Y-90014143D01*
X193014143Y-90193748D01*
X193000000Y-90179605D01*
X192985858Y-90193748D01*
X192806253Y-90014143D01*
X192820395Y-90000000D01*
X192806253Y-89985858D01*
X192985858Y-89806253D01*
X193000000Y-89820395D01*
X193014143Y-89806253D01*
X193193748Y-89985858D01*
G36*
X184347000Y-74873000D02*
X184367000Y-74873000D01*
X184367000Y-75127000D01*
X184347000Y-75127000D01*
X184347000Y-75147000D01*
X184093000Y-75147000D01*
X184093000Y-75127000D01*
X184073000Y-75127000D01*
X184073000Y-74873000D01*
X184093000Y-74873000D01*
X184093000Y-74853000D01*
X184347000Y-74853000D01*
X184347000Y-74873000D01*
X184347000Y-74873000D01*
G37*
X184347000Y-74873000D02*
X184367000Y-74873000D01*
X184367000Y-75127000D01*
X184347000Y-75127000D01*
X184347000Y-75147000D01*
X184093000Y-75147000D01*
X184093000Y-75127000D01*
X184073000Y-75127000D01*
X184073000Y-74873000D01*
X184093000Y-74873000D01*
X184093000Y-74853000D01*
X184347000Y-74853000D01*
X184347000Y-74873000D01*
G04 #@! TD*
M02*
