G04 #@! TF.GenerationSoftware,KiCad,Pcbnew,(5.0.1-3-g963ef8bb5)*
G04 #@! TF.CreationDate,2019-03-04T20:59:00-06:00*
G04 #@! TF.ProjectId,SmartNerfBlaster,536D6172744E657266426C6173746572,v1*
G04 #@! TF.SameCoordinates,Original*
G04 #@! TF.FileFunction,Copper,L2,Bot,Signal*
G04 #@! TF.FilePolarity,Positive*
%FSLAX46Y46*%
G04 Gerber Fmt 4.6, Leading zero omitted, Abs format (unit mm)*
G04 Created by KiCad (PCBNEW (5.0.1-3-g963ef8bb5)) date Monday, March 04, 2019 at 08:59:00 PM*
%MOMM*%
%LPD*%
G01*
G04 APERTURE LIST*
G04 #@! TA.AperFunction,ComponentPad*
%ADD10C,1.600000*%
G04 #@! TD*
G04 #@! TA.AperFunction,ComponentPad*
%ADD11R,1.600000X1.600000*%
G04 #@! TD*
G04 #@! TA.AperFunction,ComponentPad*
%ADD12C,1.400000*%
G04 #@! TD*
G04 #@! TA.AperFunction,ComponentPad*
%ADD13C,6.000000*%
G04 #@! TD*
G04 #@! TA.AperFunction,ComponentPad*
%ADD14C,1.750000*%
G04 #@! TD*
G04 #@! TA.AperFunction,ComponentPad*
%ADD15R,1.750000X1.750000*%
G04 #@! TD*
G04 #@! TA.AperFunction,ComponentPad*
%ADD16C,3.000000*%
G04 #@! TD*
G04 #@! TA.AperFunction,ComponentPad*
%ADD17R,3.000000X3.000000*%
G04 #@! TD*
G04 #@! TA.AperFunction,ComponentPad*
%ADD18O,1.700000X1.700000*%
G04 #@! TD*
G04 #@! TA.AperFunction,ComponentPad*
%ADD19R,1.700000X1.700000*%
G04 #@! TD*
G04 #@! TA.AperFunction,ComponentPad*
%ADD20R,1.800000X1.800000*%
G04 #@! TD*
G04 #@! TA.AperFunction,ComponentPad*
%ADD21O,1.800000X1.800000*%
G04 #@! TD*
G04 #@! TA.AperFunction,ComponentPad*
%ADD22O,1.600000X1.600000*%
G04 #@! TD*
G04 #@! TA.AperFunction,ComponentPad*
%ADD23C,1.500000*%
G04 #@! TD*
G04 #@! TA.AperFunction,ComponentPad*
%ADD24C,1.800000*%
G04 #@! TD*
G04 #@! TA.AperFunction,ViaPad*
%ADD25C,0.762000*%
G04 #@! TD*
G04 #@! TA.AperFunction,Conductor*
%ADD26C,0.254000*%
G04 #@! TD*
G04 APERTURE END LIST*
D10*
G04 #@! TO.P,C1,2*
G04 #@! TO.N,GND*
X127500000Y-72000000D03*
D11*
G04 #@! TO.P,C1,1*
G04 #@! TO.N,+BATT*
X127500000Y-74500000D03*
G04 #@! TD*
G04 #@! TO.P,C2,1*
G04 #@! TO.N,+5V*
X151500000Y-76000000D03*
D10*
G04 #@! TO.P,C2,2*
G04 #@! TO.N,GND*
X151500000Y-73500000D03*
G04 #@! TD*
D12*
G04 #@! TO.P,C3,1*
G04 #@! TO.N,Net-(C3-Pad1)*
X183500000Y-85000000D03*
G04 #@! TO.P,C3,2*
G04 #@! TO.N,GND*
X186000000Y-85000000D03*
G04 #@! TD*
G04 #@! TO.P,C4,2*
G04 #@! TO.N,GND*
X184500000Y-72500000D03*
G04 #@! TO.P,C4,1*
G04 #@! TO.N,+5V*
X187000000Y-72500000D03*
G04 #@! TD*
D10*
G04 #@! TO.P,C5,2*
G04 #@! TO.N,GND*
X157000000Y-75000000D03*
D11*
G04 #@! TO.P,C5,1*
G04 #@! TO.N,Net-(C5-Pad1)*
X159500000Y-75000000D03*
G04 #@! TD*
G04 #@! TO.P,C6,1*
G04 #@! TO.N,Net-(C6-Pad1)*
X159500000Y-81000000D03*
D10*
G04 #@! TO.P,C6,2*
G04 #@! TO.N,GND*
X157000000Y-81000000D03*
G04 #@! TD*
G04 #@! TO.P,C7,2*
G04 #@! TO.N,GND*
X139500000Y-72000000D03*
D11*
G04 #@! TO.P,C7,1*
G04 #@! TO.N,+BATT*
X139500000Y-74500000D03*
G04 #@! TD*
G04 #@! TO.P,C8,1*
G04 #@! TO.N,+BATT*
X145500000Y-74500000D03*
D10*
G04 #@! TO.P,C8,2*
G04 #@! TO.N,GND*
X145500000Y-72000000D03*
G04 #@! TD*
G04 #@! TO.P,C9,2*
G04 #@! TO.N,GND*
X133500000Y-72000000D03*
D11*
G04 #@! TO.P,C9,1*
G04 #@! TO.N,+BATT*
X133500000Y-74500000D03*
G04 #@! TD*
D13*
G04 #@! TO.P,J1,1*
G04 #@! TO.N,+BATT*
X140000000Y-81000000D03*
G04 #@! TO.P,J1,2*
G04 #@! TO.N,GND*
X132800000Y-81000000D03*
G04 #@! TD*
D14*
G04 #@! TO.P,J2,6*
G04 #@! TO.N,/Pusher_Reset*
X200500000Y-90000000D03*
G04 #@! TO.P,J2,5*
G04 #@! TO.N,GND*
X198000000Y-90000000D03*
G04 #@! TO.P,J2,4*
G04 #@! TO.N,/Flywheel_Button*
X195500000Y-90000000D03*
G04 #@! TO.P,J2,3*
G04 #@! TO.N,GND*
X193000000Y-90000000D03*
G04 #@! TO.P,J2,2*
G04 #@! TO.N,/Trigger*
X190500000Y-90000000D03*
D15*
G04 #@! TO.P,J2,1*
G04 #@! TO.N,GND*
X188000000Y-90000000D03*
G04 #@! TD*
D14*
G04 #@! TO.P,J3,4*
G04 #@! TO.N,/Magazine*
X180500000Y-90000000D03*
G04 #@! TO.P,J3,3*
G04 #@! TO.N,GND*
X178000000Y-90000000D03*
G04 #@! TO.P,J3,2*
G04 #@! TO.N,/Door*
X175500000Y-90000000D03*
D15*
G04 #@! TO.P,J3,1*
G04 #@! TO.N,GND*
X173000000Y-90000000D03*
G04 #@! TD*
D16*
G04 #@! TO.P,J4,2*
G04 #@! TO.N,/Pusher_Power*
X151080000Y-90000000D03*
D17*
G04 #@! TO.P,J4,1*
G04 #@! TO.N,+BATT*
X146000000Y-90000000D03*
G04 #@! TD*
G04 #@! TO.P,J5,1*
G04 #@! TO.N,+BATT*
X135000000Y-90000000D03*
D16*
G04 #@! TO.P,J5,2*
G04 #@! TO.N,/Flywheel_Power*
X140080000Y-90000000D03*
G04 #@! TD*
D18*
G04 #@! TO.P,J6,6*
G04 #@! TO.N,GND*
X167540000Y-91000000D03*
G04 #@! TO.P,J6,5*
G04 #@! TO.N,/Reset*
X165000000Y-91000000D03*
G04 #@! TO.P,J6,4*
G04 #@! TO.N,/Flywheel*
X167540000Y-88460000D03*
G04 #@! TO.P,J6,3*
G04 #@! TO.N,Net-(J6-Pad3)*
X165000000Y-88460000D03*
G04 #@! TO.P,J6,2*
G04 #@! TO.N,+5V*
X167540000Y-85920000D03*
D19*
G04 #@! TO.P,J6,1*
G04 #@! TO.N,Net-(J6-Pad1)*
X165000000Y-85920000D03*
G04 #@! TD*
D20*
G04 #@! TO.P,Q1,1*
G04 #@! TO.N,/Pusher*
X157000000Y-91540000D03*
D21*
G04 #@! TO.P,Q1,2*
G04 #@! TO.N,/Pusher_Power*
X157000000Y-89000000D03*
G04 #@! TO.P,Q1,3*
G04 #@! TO.N,GND*
X157000000Y-86460000D03*
G04 #@! TD*
G04 #@! TO.P,Q2,3*
G04 #@! TO.N,GND*
X127500000Y-86420000D03*
G04 #@! TO.P,Q2,2*
G04 #@! TO.N,/Flywheel_Power*
X127500000Y-88960000D03*
D20*
G04 #@! TO.P,Q2,1*
G04 #@! TO.N,/Flywheel*
X127500000Y-91500000D03*
G04 #@! TD*
D22*
G04 #@! TO.P,R1,2*
G04 #@! TO.N,GND*
X161000000Y-88960000D03*
D10*
G04 #@! TO.P,R1,1*
G04 #@! TO.N,/Pusher*
X161000000Y-91500000D03*
G04 #@! TD*
G04 #@! TO.P,R2,1*
G04 #@! TO.N,/Flywheel*
X126500000Y-81040000D03*
D22*
G04 #@! TO.P,R2,2*
G04 #@! TO.N,GND*
X126500000Y-78500000D03*
G04 #@! TD*
D10*
G04 #@! TO.P,R3,1*
G04 #@! TO.N,+5V*
X200000000Y-72000000D03*
D22*
G04 #@! TO.P,R3,2*
G04 #@! TO.N,/Reset*
X202540000Y-72000000D03*
G04 #@! TD*
G04 #@! TO.P,R4,2*
G04 #@! TO.N,/Trigger*
X191540000Y-85500000D03*
D10*
G04 #@! TO.P,R4,1*
G04 #@! TO.N,+5V*
X189000000Y-85500000D03*
G04 #@! TD*
G04 #@! TO.P,R5,1*
G04 #@! TO.N,+5V*
X194500000Y-85500000D03*
D22*
G04 #@! TO.P,R5,2*
G04 #@! TO.N,/Flywheel_Button*
X197040000Y-85500000D03*
G04 #@! TD*
G04 #@! TO.P,R6,2*
G04 #@! TO.N,/Pusher_Reset*
X202540000Y-85500000D03*
D10*
G04 #@! TO.P,R6,1*
G04 #@! TO.N,+5V*
X200000000Y-85500000D03*
G04 #@! TD*
G04 #@! TO.P,R7,1*
G04 #@! TO.N,+5V*
X173000000Y-85500000D03*
D22*
G04 #@! TO.P,R7,2*
G04 #@! TO.N,/Door*
X175540000Y-85500000D03*
G04 #@! TD*
G04 #@! TO.P,R8,2*
G04 #@! TO.N,/Magazine*
X181040000Y-85500000D03*
D10*
G04 #@! TO.P,R8,1*
G04 #@! TO.N,+5V*
X178500000Y-85500000D03*
G04 #@! TD*
D21*
G04 #@! TO.P,U1,3*
G04 #@! TO.N,+5V*
X152580000Y-81000000D03*
G04 #@! TO.P,U1,2*
G04 #@! TO.N,GND*
X150040000Y-81000000D03*
D20*
G04 #@! TO.P,U1,1*
G04 #@! TO.N,+BATT*
X147500000Y-81000000D03*
G04 #@! TD*
D22*
G04 #@! TO.P,U2,28*
G04 #@! TO.N,Net-(U2-Pad28)*
X202000000Y-82620000D03*
G04 #@! TO.P,U2,14*
G04 #@! TO.N,/LED1*
X168980000Y-75000000D03*
G04 #@! TO.P,U2,27*
G04 #@! TO.N,Net-(U2-Pad27)*
X199460000Y-82620000D03*
G04 #@! TO.P,U2,13*
G04 #@! TO.N,/LED3*
X171520000Y-75000000D03*
G04 #@! TO.P,U2,26*
G04 #@! TO.N,Net-(U2-Pad26)*
X196920000Y-82620000D03*
G04 #@! TO.P,U2,12*
G04 #@! TO.N,/Magazine*
X174060000Y-75000000D03*
G04 #@! TO.P,U2,25*
G04 #@! TO.N,Net-(U2-Pad25)*
X194380000Y-82620000D03*
G04 #@! TO.P,U2,11*
G04 #@! TO.N,/Door*
X176600000Y-75000000D03*
G04 #@! TO.P,U2,24*
G04 #@! TO.N,Net-(U2-Pad24)*
X191840000Y-82620000D03*
G04 #@! TO.P,U2,10*
G04 #@! TO.N,Net-(C6-Pad1)*
X179140000Y-75000000D03*
G04 #@! TO.P,U2,23*
G04 #@! TO.N,Net-(U2-Pad23)*
X189300000Y-82620000D03*
G04 #@! TO.P,U2,9*
G04 #@! TO.N,Net-(C5-Pad1)*
X181680000Y-75000000D03*
G04 #@! TO.P,U2,22*
G04 #@! TO.N,GND*
X186760000Y-82620000D03*
G04 #@! TO.P,U2,8*
X184220000Y-75000000D03*
G04 #@! TO.P,U2,21*
G04 #@! TO.N,Net-(C3-Pad1)*
X184220000Y-82620000D03*
G04 #@! TO.P,U2,7*
G04 #@! TO.N,+5V*
X186760000Y-75000000D03*
G04 #@! TO.P,U2,20*
X181680000Y-82620000D03*
G04 #@! TO.P,U2,6*
G04 #@! TO.N,/Pusher_Reset*
X189300000Y-75000000D03*
G04 #@! TO.P,U2,19*
G04 #@! TO.N,Net-(J6-Pad3)*
X179140000Y-82620000D03*
G04 #@! TO.P,U2,5*
G04 #@! TO.N,/Flywheel_Button*
X191840000Y-75000000D03*
G04 #@! TO.P,U2,18*
G04 #@! TO.N,Net-(J6-Pad1)*
X176600000Y-82620000D03*
G04 #@! TO.P,U2,4*
G04 #@! TO.N,/Trigger*
X194380000Y-75000000D03*
G04 #@! TO.P,U2,17*
G04 #@! TO.N,/Flywheel*
X174060000Y-82620000D03*
G04 #@! TO.P,U2,3*
G04 #@! TO.N,Net-(U2-Pad3)*
X196920000Y-75000000D03*
G04 #@! TO.P,U2,16*
G04 #@! TO.N,/Pusher*
X171520000Y-82620000D03*
G04 #@! TO.P,U2,2*
G04 #@! TO.N,Net-(U2-Pad2)*
X199460000Y-75000000D03*
G04 #@! TO.P,U2,15*
G04 #@! TO.N,/LED2*
X168980000Y-82620000D03*
D11*
G04 #@! TO.P,U2,1*
G04 #@! TO.N,/Reset*
X202000000Y-75000000D03*
G04 #@! TD*
D23*
G04 #@! TO.P,Y1,2*
G04 #@! TO.N,Net-(C6-Pad1)*
X164000000Y-79880000D03*
G04 #@! TO.P,Y1,1*
G04 #@! TO.N,Net-(C5-Pad1)*
X164000000Y-75000000D03*
G04 #@! TD*
D24*
G04 #@! TO.P,D1,2*
G04 #@! TO.N,/LED1*
X211040000Y-79250000D03*
D20*
G04 #@! TO.P,D1,1*
G04 #@! TO.N,Net-(D1-Pad1)*
X208500000Y-79250000D03*
G04 #@! TD*
G04 #@! TO.P,D2,1*
G04 #@! TO.N,Net-(D2-Pad1)*
X205000000Y-82250000D03*
D24*
G04 #@! TO.P,D2,2*
G04 #@! TO.N,/LED2*
X207540000Y-82250000D03*
G04 #@! TD*
G04 #@! TO.P,D3,2*
G04 #@! TO.N,/LED3*
X210790000Y-85500000D03*
D20*
G04 #@! TO.P,D3,1*
G04 #@! TO.N,Net-(D3-Pad1)*
X208250000Y-85500000D03*
G04 #@! TD*
D10*
G04 #@! TO.P,R9,1*
G04 #@! TO.N,Net-(D1-Pad1)*
X210500000Y-72000000D03*
D22*
G04 #@! TO.P,R9,2*
G04 #@! TO.N,GND*
X207960000Y-72000000D03*
G04 #@! TD*
G04 #@! TO.P,R10,2*
G04 #@! TO.N,GND*
X204500000Y-76250000D03*
D10*
G04 #@! TO.P,R10,1*
G04 #@! TO.N,Net-(D2-Pad1)*
X204500000Y-78790000D03*
G04 #@! TD*
D22*
G04 #@! TO.P,R11,2*
G04 #@! TO.N,GND*
X210750000Y-93290000D03*
D10*
G04 #@! TO.P,R11,1*
G04 #@! TO.N,Net-(D3-Pad1)*
X210750000Y-90750000D03*
G04 #@! TD*
D25*
G04 #@! TO.N,/LED2*
X184500000Y-88750000D03*
G04 #@! TD*
D26*
G04 #@! TO.N,/Magazine*
X182807001Y-83732999D02*
X181040000Y-85500000D01*
X182807001Y-82079039D02*
X182807001Y-83732999D01*
X176854963Y-76127001D02*
X182807001Y-82079039D01*
X175187001Y-76127001D02*
X176854963Y-76127001D01*
X174060000Y-75000000D02*
X175187001Y-76127001D01*
G04 #@! TO.N,/Door*
X175540000Y-89960000D02*
X175500000Y-90000000D01*
X175540000Y-85500000D02*
X175540000Y-89960000D01*
G04 #@! TO.N,/Reset*
X203127001Y-77181001D02*
X202000000Y-76054000D01*
X203127001Y-83160961D02*
X203127001Y-77181001D01*
X201127001Y-85160961D02*
X203127001Y-83160961D01*
X201702001Y-89423039D02*
X201127001Y-88848039D01*
X202000000Y-76054000D02*
X202000000Y-75000000D01*
X201702001Y-90576961D02*
X201702001Y-89423039D01*
X201127001Y-88848039D02*
X201127001Y-85160961D01*
X166177001Y-92177001D02*
X200101961Y-92177001D01*
X200101961Y-92177001D02*
X201702001Y-90576961D01*
X165000000Y-91000000D02*
X166177001Y-92177001D01*
G04 #@! TO.N,/Flywheel*
X168220000Y-88460000D02*
X167540000Y-88460000D01*
X174060000Y-82620000D02*
X168220000Y-88460000D01*
G04 #@! TO.N,Net-(J6-Pad3)*
X166177001Y-89637001D02*
X165849999Y-89309999D01*
X170530961Y-89637001D02*
X166177001Y-89637001D01*
X174412999Y-85754963D02*
X170530961Y-89637001D01*
X174412999Y-84959039D02*
X174412999Y-85754963D01*
X174999039Y-84372999D02*
X174412999Y-84959039D01*
X165849999Y-89309999D02*
X165000000Y-88460000D01*
X177387001Y-84372999D02*
X174999039Y-84372999D01*
X179140000Y-82620000D02*
X177387001Y-84372999D01*
G04 #@! TO.N,Net-(J6-Pad1)*
X165000000Y-84816000D02*
X165000000Y-85920000D01*
X169520961Y-83747001D02*
X166068999Y-83747001D01*
X166068999Y-83747001D02*
X165000000Y-84816000D01*
X170107001Y-83160961D02*
X169520961Y-83747001D01*
X170107001Y-82079039D02*
X170107001Y-83160961D01*
X170693041Y-81492999D02*
X170107001Y-82079039D01*
X175472999Y-81492999D02*
X170693041Y-81492999D01*
X176600000Y-82620000D02*
X175472999Y-81492999D01*
G04 #@! TO.N,/Pusher*
X161799999Y-90700001D02*
X161000000Y-91500000D01*
X161799999Y-89918039D02*
X161799999Y-90700001D01*
X164435039Y-87282999D02*
X161799999Y-89918039D01*
X166177001Y-85322999D02*
X166177001Y-87031601D01*
X167298989Y-84201011D02*
X166177001Y-85322999D01*
X165925603Y-87282999D02*
X164435039Y-87282999D01*
X166177001Y-87031601D02*
X165925603Y-87282999D01*
X169938989Y-84201011D02*
X167298989Y-84201011D01*
X171520000Y-82620000D02*
X169938989Y-84201011D01*
G04 #@! TO.N,/LED1*
X211939999Y-78350001D02*
X211040000Y-79250000D01*
X211939999Y-71772037D02*
X211939999Y-78350001D01*
X211040961Y-70872999D02*
X211939999Y-71772037D01*
X173107001Y-70872999D02*
X211040961Y-70872999D01*
X168980000Y-75000000D02*
X173107001Y-70872999D01*
G04 #@! TO.N,/LED2*
X168980000Y-81488630D02*
X168980000Y-82620000D01*
X169429641Y-81038989D02*
X168980000Y-81488630D01*
X180267001Y-83160961D02*
X180267001Y-82079039D01*
X180267001Y-82079039D02*
X179226951Y-81038989D01*
X179912999Y-83514963D02*
X180267001Y-83160961D01*
X182622038Y-88750000D02*
X179912999Y-86040961D01*
X179226951Y-81038989D02*
X169429641Y-81038989D01*
X179912999Y-86040961D02*
X179912999Y-83514963D01*
X184500000Y-88750000D02*
X182622038Y-88750000D01*
G04 #@! TO.N,/LED3*
X205627001Y-75627001D02*
X205627001Y-78765603D01*
X203872999Y-73872999D02*
X205627001Y-75627001D01*
X172647001Y-73872999D02*
X203872999Y-73872999D01*
X171520000Y-75000000D02*
X172647001Y-73872999D01*
X210790000Y-84227208D02*
X210790000Y-85500000D01*
X210790000Y-83684038D02*
X210790000Y-84227208D01*
X208128961Y-81022999D02*
X210790000Y-83684038D01*
X207884397Y-81022999D02*
X208128961Y-81022999D01*
X205627001Y-78765603D02*
X207884397Y-81022999D01*
G04 #@! TD*
G04 #@! TO.N,GND*
G36*
X172783168Y-70478411D02*
X172783166Y-70478413D01*
X172740754Y-70506752D01*
X172712415Y-70549164D01*
X169385132Y-73876448D01*
X169096318Y-73819000D01*
X168863682Y-73819000D01*
X168519197Y-73887522D01*
X168128547Y-74148547D01*
X167867522Y-74539197D01*
X167775863Y-75000000D01*
X167867522Y-75460803D01*
X168128547Y-75851453D01*
X168519197Y-76112478D01*
X168863682Y-76181000D01*
X169096318Y-76181000D01*
X169440803Y-76112478D01*
X169831453Y-75851453D01*
X170092478Y-75460803D01*
X170184137Y-75000000D01*
X170103552Y-74594868D01*
X173317422Y-71380999D01*
X183792519Y-71380999D01*
X183744331Y-71564725D01*
X184500000Y-72320395D01*
X185255669Y-71564725D01*
X185207481Y-71380999D01*
X198978094Y-71380999D01*
X198819000Y-71765085D01*
X198819000Y-72234915D01*
X198998797Y-72668983D01*
X199331017Y-73001203D01*
X199765085Y-73181000D01*
X200234915Y-73181000D01*
X200668983Y-73001203D01*
X201001203Y-72668983D01*
X201181000Y-72234915D01*
X201181000Y-71765085D01*
X201021906Y-71380999D01*
X201533227Y-71380999D01*
X201427522Y-71539197D01*
X201335863Y-72000000D01*
X201427522Y-72460803D01*
X201688547Y-72851453D01*
X202079197Y-73112478D01*
X202423682Y-73181000D01*
X202656318Y-73181000D01*
X203000803Y-73112478D01*
X203391453Y-72851453D01*
X203652478Y-72460803D01*
X203744137Y-72000000D01*
X203652478Y-71539197D01*
X203546773Y-71380999D01*
X206679910Y-71380999D01*
X206568096Y-71650961D01*
X206690085Y-71873000D01*
X207833000Y-71873000D01*
X207833000Y-71853000D01*
X208087000Y-71853000D01*
X208087000Y-71873000D01*
X208107000Y-71873000D01*
X208107000Y-72127000D01*
X208087000Y-72127000D01*
X208087000Y-72147000D01*
X207833000Y-72147000D01*
X207833000Y-72127000D01*
X206690085Y-72127000D01*
X206568096Y-72349039D01*
X206728959Y-72737423D01*
X207017298Y-73055723D01*
X206377854Y-73320589D01*
X205820589Y-73877854D01*
X205519000Y-74605955D01*
X205519000Y-74800580D01*
X204267587Y-73549167D01*
X204239246Y-73506752D01*
X204071211Y-73394474D01*
X203923031Y-73364999D01*
X203923027Y-73364999D01*
X203872999Y-73355048D01*
X203822971Y-73364999D01*
X187663766Y-73364999D01*
X187916428Y-73112337D01*
X188081000Y-72715024D01*
X188081000Y-72284976D01*
X187916428Y-71887663D01*
X187612337Y-71583572D01*
X187215024Y-71419000D01*
X186784976Y-71419000D01*
X186387663Y-71583572D01*
X186083572Y-71887663D01*
X185919000Y-72284976D01*
X185919000Y-72715024D01*
X186083572Y-73112337D01*
X186336234Y-73364999D01*
X185544607Y-73364999D01*
X185435277Y-73255669D01*
X185671042Y-73193831D01*
X185847419Y-72692878D01*
X185818664Y-72162560D01*
X185671042Y-71806169D01*
X185435275Y-71744331D01*
X184679605Y-72500000D01*
X184693748Y-72514142D01*
X184514142Y-72693748D01*
X184500000Y-72679605D01*
X184485858Y-72693748D01*
X184306252Y-72514142D01*
X184320395Y-72500000D01*
X183564725Y-71744331D01*
X183328958Y-71806169D01*
X183152581Y-72307122D01*
X183181336Y-72837440D01*
X183328958Y-73193831D01*
X183564723Y-73255669D01*
X183455393Y-73364999D01*
X172697028Y-73364999D01*
X172647000Y-73355048D01*
X172596972Y-73364999D01*
X172596969Y-73364999D01*
X172461659Y-73391914D01*
X172448789Y-73394474D01*
X172323168Y-73478411D01*
X172323166Y-73478413D01*
X172280754Y-73506752D01*
X172252415Y-73549164D01*
X171925131Y-73876448D01*
X171636318Y-73819000D01*
X171403682Y-73819000D01*
X171059197Y-73887522D01*
X170668547Y-74148547D01*
X170407522Y-74539197D01*
X170315863Y-75000000D01*
X170407522Y-75460803D01*
X170668547Y-75851453D01*
X171059197Y-76112478D01*
X171403682Y-76181000D01*
X171636318Y-76181000D01*
X171980803Y-76112478D01*
X172371453Y-75851453D01*
X172632478Y-75460803D01*
X172724137Y-75000000D01*
X172643552Y-74594869D01*
X172857422Y-74380999D01*
X173053227Y-74380999D01*
X172947522Y-74539197D01*
X172855863Y-75000000D01*
X172947522Y-75460803D01*
X173208547Y-75851453D01*
X173599197Y-76112478D01*
X173943682Y-76181000D01*
X174176318Y-76181000D01*
X174465131Y-76123552D01*
X174792415Y-76450836D01*
X174820754Y-76493248D01*
X174863166Y-76521587D01*
X174863168Y-76521589D01*
X174988789Y-76605526D01*
X175136969Y-76635001D01*
X175136972Y-76635001D01*
X175187000Y-76644952D01*
X175237028Y-76635001D01*
X176644543Y-76635001D01*
X181467644Y-81458103D01*
X181219197Y-81507522D01*
X180828547Y-81768547D01*
X180747361Y-81890050D01*
X180745526Y-81880827D01*
X180689125Y-81796417D01*
X180661589Y-81755206D01*
X180661587Y-81755204D01*
X180633248Y-81712792D01*
X180590836Y-81684453D01*
X179621539Y-80715157D01*
X179593198Y-80672742D01*
X179425163Y-80560464D01*
X179276983Y-80530989D01*
X179276979Y-80530989D01*
X179226951Y-80521038D01*
X179176923Y-80530989D01*
X169479668Y-80530989D01*
X169429640Y-80521038D01*
X169379612Y-80530989D01*
X169379609Y-80530989D01*
X169231429Y-80560464D01*
X169063394Y-80672742D01*
X169035053Y-80715157D01*
X168656168Y-81094042D01*
X168613753Y-81122383D01*
X168585413Y-81164797D01*
X168585412Y-81164798D01*
X168560995Y-81201341D01*
X168501475Y-81290419D01*
X168472000Y-81438599D01*
X168472000Y-81438602D01*
X168462049Y-81488630D01*
X168472000Y-81538658D01*
X168472000Y-81539058D01*
X168128547Y-81768547D01*
X167867522Y-82159197D01*
X167775863Y-82620000D01*
X167867522Y-83080803D01*
X167973227Y-83239001D01*
X166119027Y-83239001D01*
X166068999Y-83229050D01*
X166018971Y-83239001D01*
X166018967Y-83239001D01*
X165870787Y-83268476D01*
X165745166Y-83352413D01*
X165745164Y-83352415D01*
X165702752Y-83380754D01*
X165674413Y-83423166D01*
X164676168Y-84421412D01*
X164633753Y-84449753D01*
X164521475Y-84617789D01*
X164508795Y-84681536D01*
X164150000Y-84681536D01*
X164001341Y-84711106D01*
X163875314Y-84795314D01*
X163791106Y-84921341D01*
X163761536Y-85070000D01*
X163761536Y-86770000D01*
X163791106Y-86918659D01*
X163875314Y-87044686D01*
X163923042Y-87076576D01*
X162390868Y-88608750D01*
X162152389Y-88104866D01*
X161737423Y-87728959D01*
X161349039Y-87568096D01*
X161127000Y-87690085D01*
X161127000Y-88833000D01*
X161147000Y-88833000D01*
X161147000Y-89087000D01*
X161127000Y-89087000D01*
X161127000Y-89107000D01*
X160873000Y-89107000D01*
X160873000Y-89087000D01*
X159729371Y-89087000D01*
X159608086Y-89309041D01*
X159847611Y-89815134D01*
X160262577Y-90191041D01*
X160650961Y-90351904D01*
X160872998Y-90229916D01*
X160872998Y-90319000D01*
X160765085Y-90319000D01*
X160331017Y-90498797D01*
X159998797Y-90831017D01*
X159819000Y-91265085D01*
X159819000Y-91734915D01*
X159998797Y-92168983D01*
X160331017Y-92501203D01*
X160765085Y-92681000D01*
X161234915Y-92681000D01*
X161668983Y-92501203D01*
X162001203Y-92168983D01*
X162181000Y-91734915D01*
X162181000Y-91265085D01*
X162114318Y-91104102D01*
X162123831Y-91094589D01*
X162166246Y-91066248D01*
X162278524Y-90898213D01*
X162307999Y-90750033D01*
X162307999Y-90750030D01*
X162317950Y-90700002D01*
X162307999Y-90649974D01*
X162307999Y-90128459D01*
X163783305Y-88653153D01*
X163840424Y-88940312D01*
X164112499Y-89347501D01*
X164519688Y-89619576D01*
X164878761Y-89691000D01*
X165121239Y-89691000D01*
X165447652Y-89626073D01*
X165782415Y-89960836D01*
X165810754Y-90003248D01*
X165853166Y-90031587D01*
X165853168Y-90031589D01*
X165894207Y-90059010D01*
X165978789Y-90115526D01*
X166126969Y-90145001D01*
X166126973Y-90145001D01*
X166177001Y-90154952D01*
X166227029Y-90145001D01*
X166348621Y-90145001D01*
X166268355Y-90233076D01*
X166153445Y-90510512D01*
X165887501Y-90112499D01*
X165480312Y-89840424D01*
X165121239Y-89769000D01*
X164878761Y-89769000D01*
X164519688Y-89840424D01*
X164112499Y-90112499D01*
X163840424Y-90519688D01*
X163744884Y-91000000D01*
X163840424Y-91480312D01*
X164112499Y-91887501D01*
X164519688Y-92159576D01*
X164878761Y-92231000D01*
X165121239Y-92231000D01*
X165447652Y-92166073D01*
X165782415Y-92500836D01*
X165810754Y-92543248D01*
X165853166Y-92571587D01*
X165853168Y-92571589D01*
X165978789Y-92655526D01*
X166126969Y-92685001D01*
X166126973Y-92685001D01*
X166177001Y-92694952D01*
X166227029Y-92685001D01*
X200051933Y-92685001D01*
X200101961Y-92694952D01*
X200151989Y-92685001D01*
X200151993Y-92685001D01*
X200300173Y-92655526D01*
X200468208Y-92543248D01*
X200496549Y-92500833D01*
X202025837Y-90971546D01*
X202068248Y-90943208D01*
X202096587Y-90900796D01*
X202096589Y-90900794D01*
X202180526Y-90775173D01*
X202193198Y-90711467D01*
X202210001Y-90626993D01*
X202210001Y-90626990D01*
X202219952Y-90576962D01*
X202210001Y-90526934D01*
X202210001Y-89605955D01*
X205519000Y-89605955D01*
X205519000Y-90394045D01*
X205820589Y-91122146D01*
X206377854Y-91679411D01*
X207105955Y-91981000D01*
X207894045Y-91981000D01*
X208622146Y-91679411D01*
X209179411Y-91122146D01*
X209481000Y-90394045D01*
X209481000Y-89605955D01*
X209179411Y-88877854D01*
X208622146Y-88320589D01*
X207894045Y-88019000D01*
X207105955Y-88019000D01*
X206377854Y-88320589D01*
X205820589Y-88877854D01*
X205519000Y-89605955D01*
X202210001Y-89605955D01*
X202210001Y-89473067D01*
X202219952Y-89423039D01*
X202210001Y-89373011D01*
X202210001Y-89373007D01*
X202180526Y-89224827D01*
X202145142Y-89171871D01*
X202096589Y-89099206D01*
X202096587Y-89099204D01*
X202068248Y-89056792D01*
X202025836Y-89028453D01*
X201635001Y-88637619D01*
X201635001Y-86271316D01*
X201688547Y-86351453D01*
X202079197Y-86612478D01*
X202423682Y-86681000D01*
X202656318Y-86681000D01*
X203000803Y-86612478D01*
X203391453Y-86351453D01*
X203652478Y-85960803D01*
X203744137Y-85500000D01*
X203652478Y-85039197D01*
X203391453Y-84648547D01*
X203000803Y-84387522D01*
X202682229Y-84324154D01*
X203450837Y-83555546D01*
X203493248Y-83527208D01*
X203521587Y-83484796D01*
X203521589Y-83484794D01*
X203605526Y-83359173D01*
X203617563Y-83298659D01*
X203635001Y-83210993D01*
X203635001Y-83210990D01*
X203644952Y-83160962D01*
X203635001Y-83110934D01*
X203635001Y-79595187D01*
X203831017Y-79791203D01*
X204265085Y-79971000D01*
X204734915Y-79971000D01*
X205168983Y-79791203D01*
X205501203Y-79458983D01*
X205530714Y-79387736D01*
X207162711Y-81019734D01*
X206814372Y-81164021D01*
X206454021Y-81524372D01*
X206288464Y-81924061D01*
X206288464Y-81350000D01*
X206258894Y-81201341D01*
X206174686Y-81075314D01*
X206048659Y-80991106D01*
X205900000Y-80961536D01*
X204100000Y-80961536D01*
X203951341Y-80991106D01*
X203825314Y-81075314D01*
X203741106Y-81201341D01*
X203711536Y-81350000D01*
X203711536Y-83150000D01*
X203741106Y-83298659D01*
X203825314Y-83424686D01*
X203951341Y-83508894D01*
X204100000Y-83538464D01*
X205900000Y-83538464D01*
X206048659Y-83508894D01*
X206174686Y-83424686D01*
X206258894Y-83298659D01*
X206288464Y-83150000D01*
X206288464Y-82575939D01*
X206454021Y-82975628D01*
X206814372Y-83335979D01*
X207285193Y-83531000D01*
X207794807Y-83531000D01*
X208265628Y-83335979D01*
X208625979Y-82975628D01*
X208821000Y-82504807D01*
X208821000Y-82433458D01*
X210282000Y-83894458D01*
X210282001Y-84177173D01*
X210282000Y-84177177D01*
X210282000Y-84323876D01*
X210064372Y-84414021D01*
X209704021Y-84774372D01*
X209538464Y-85174061D01*
X209538464Y-84600000D01*
X209508894Y-84451341D01*
X209424686Y-84325314D01*
X209298659Y-84241106D01*
X209150000Y-84211536D01*
X207350000Y-84211536D01*
X207201341Y-84241106D01*
X207075314Y-84325314D01*
X206991106Y-84451341D01*
X206961536Y-84600000D01*
X206961536Y-86400000D01*
X206991106Y-86548659D01*
X207075314Y-86674686D01*
X207201341Y-86758894D01*
X207350000Y-86788464D01*
X209150000Y-86788464D01*
X209298659Y-86758894D01*
X209424686Y-86674686D01*
X209508894Y-86548659D01*
X209538464Y-86400000D01*
X209538464Y-85825939D01*
X209704021Y-86225628D01*
X210064372Y-86585979D01*
X210535193Y-86781000D01*
X211044807Y-86781000D01*
X211515628Y-86585979D01*
X211875979Y-86225628D01*
X212044000Y-85819990D01*
X212044000Y-92734076D01*
X211902389Y-92434866D01*
X211487423Y-92058959D01*
X211099039Y-91898096D01*
X210877002Y-92020084D01*
X210877002Y-91931000D01*
X210984915Y-91931000D01*
X211418983Y-91751203D01*
X211751203Y-91418983D01*
X211931000Y-90984915D01*
X211931000Y-90515085D01*
X211751203Y-90081017D01*
X211418983Y-89748797D01*
X210984915Y-89569000D01*
X210515085Y-89569000D01*
X210081017Y-89748797D01*
X209748797Y-90081017D01*
X209569000Y-90515085D01*
X209569000Y-90984915D01*
X209748797Y-91418983D01*
X210081017Y-91751203D01*
X210515085Y-91931000D01*
X210622998Y-91931000D01*
X210622998Y-92020084D01*
X210400961Y-91898096D01*
X210012577Y-92058959D01*
X209597611Y-92434866D01*
X209358086Y-92940959D01*
X209479371Y-93163000D01*
X210623000Y-93163000D01*
X210623000Y-93143000D01*
X210877000Y-93143000D01*
X210877000Y-93163000D01*
X210897000Y-93163000D01*
X210897000Y-93417000D01*
X210877000Y-93417000D01*
X210877000Y-93437000D01*
X210623000Y-93437000D01*
X210623000Y-93417000D01*
X209479371Y-93417000D01*
X209358086Y-93639041D01*
X209597611Y-94145134D01*
X210012577Y-94521041D01*
X210068009Y-94544000D01*
X115456000Y-94544000D01*
X115456000Y-89605955D01*
X118019000Y-89605955D01*
X118019000Y-90394045D01*
X118320589Y-91122146D01*
X118877854Y-91679411D01*
X119605955Y-91981000D01*
X120394045Y-91981000D01*
X121122146Y-91679411D01*
X121679411Y-91122146D01*
X121981000Y-90394045D01*
X121981000Y-89605955D01*
X121679411Y-88877854D01*
X121122146Y-88320589D01*
X120394045Y-88019000D01*
X119605955Y-88019000D01*
X118877854Y-88320589D01*
X118320589Y-88877854D01*
X118019000Y-89605955D01*
X115456000Y-89605955D01*
X115456000Y-86784742D01*
X126008954Y-86784742D01*
X126262034Y-87327576D01*
X126703583Y-87732240D01*
X126906161Y-87816146D01*
X126576451Y-88036451D01*
X126293325Y-88460179D01*
X126193904Y-88960000D01*
X126293325Y-89459821D01*
X126576451Y-89883549D01*
X127000179Y-90166675D01*
X127225709Y-90211536D01*
X126600000Y-90211536D01*
X126451341Y-90241106D01*
X126325314Y-90325314D01*
X126241106Y-90451341D01*
X126211536Y-90600000D01*
X126211536Y-92400000D01*
X126241106Y-92548659D01*
X126325314Y-92674686D01*
X126451341Y-92758894D01*
X126600000Y-92788464D01*
X128400000Y-92788464D01*
X128548659Y-92758894D01*
X128674686Y-92674686D01*
X128758894Y-92548659D01*
X128788464Y-92400000D01*
X128788464Y-90600000D01*
X128758894Y-90451341D01*
X128674686Y-90325314D01*
X128548659Y-90241106D01*
X128400000Y-90211536D01*
X127774291Y-90211536D01*
X127999821Y-90166675D01*
X128423549Y-89883549D01*
X128706675Y-89459821D01*
X128806096Y-88960000D01*
X128714596Y-88500000D01*
X133111536Y-88500000D01*
X133111536Y-91500000D01*
X133141106Y-91648659D01*
X133225314Y-91774686D01*
X133351341Y-91858894D01*
X133500000Y-91888464D01*
X136500000Y-91888464D01*
X136648659Y-91858894D01*
X136774686Y-91774686D01*
X136858894Y-91648659D01*
X136888464Y-91500000D01*
X136888464Y-89625846D01*
X138199000Y-89625846D01*
X138199000Y-90374154D01*
X138485365Y-91065501D01*
X139014499Y-91594635D01*
X139705846Y-91881000D01*
X140454154Y-91881000D01*
X141145501Y-91594635D01*
X141674635Y-91065501D01*
X141961000Y-90374154D01*
X141961000Y-89625846D01*
X141674635Y-88934499D01*
X141240136Y-88500000D01*
X144111536Y-88500000D01*
X144111536Y-91500000D01*
X144141106Y-91648659D01*
X144225314Y-91774686D01*
X144351341Y-91858894D01*
X144500000Y-91888464D01*
X147500000Y-91888464D01*
X147648659Y-91858894D01*
X147774686Y-91774686D01*
X147858894Y-91648659D01*
X147888464Y-91500000D01*
X147888464Y-89625846D01*
X149199000Y-89625846D01*
X149199000Y-90374154D01*
X149485365Y-91065501D01*
X150014499Y-91594635D01*
X150705846Y-91881000D01*
X151454154Y-91881000D01*
X152145501Y-91594635D01*
X152674635Y-91065501D01*
X152961000Y-90374154D01*
X152961000Y-89625846D01*
X152674635Y-88934499D01*
X152145501Y-88405365D01*
X151454154Y-88119000D01*
X150705846Y-88119000D01*
X150014499Y-88405365D01*
X149485365Y-88934499D01*
X149199000Y-89625846D01*
X147888464Y-89625846D01*
X147888464Y-88500000D01*
X147858894Y-88351341D01*
X147774686Y-88225314D01*
X147648659Y-88141106D01*
X147500000Y-88111536D01*
X144500000Y-88111536D01*
X144351341Y-88141106D01*
X144225314Y-88225314D01*
X144141106Y-88351341D01*
X144111536Y-88500000D01*
X141240136Y-88500000D01*
X141145501Y-88405365D01*
X140454154Y-88119000D01*
X139705846Y-88119000D01*
X139014499Y-88405365D01*
X138485365Y-88934499D01*
X138199000Y-89625846D01*
X136888464Y-89625846D01*
X136888464Y-88500000D01*
X136858894Y-88351341D01*
X136774686Y-88225314D01*
X136648659Y-88141106D01*
X136500000Y-88111536D01*
X133500000Y-88111536D01*
X133351341Y-88141106D01*
X133225314Y-88225314D01*
X133141106Y-88351341D01*
X133111536Y-88500000D01*
X128714596Y-88500000D01*
X128706675Y-88460179D01*
X128423549Y-88036451D01*
X128093839Y-87816146D01*
X128296417Y-87732240D01*
X128737966Y-87327576D01*
X128972397Y-86824742D01*
X155508954Y-86824742D01*
X155762034Y-87367576D01*
X156203583Y-87772240D01*
X156406161Y-87856146D01*
X156076451Y-88076451D01*
X155793325Y-88500179D01*
X155693904Y-89000000D01*
X155793325Y-89499821D01*
X156076451Y-89923549D01*
X156500179Y-90206675D01*
X156725709Y-90251536D01*
X156100000Y-90251536D01*
X155951341Y-90281106D01*
X155825314Y-90365314D01*
X155741106Y-90491341D01*
X155711536Y-90640000D01*
X155711536Y-92440000D01*
X155741106Y-92588659D01*
X155825314Y-92714686D01*
X155951341Y-92798894D01*
X156100000Y-92828464D01*
X157900000Y-92828464D01*
X158048659Y-92798894D01*
X158174686Y-92714686D01*
X158258894Y-92588659D01*
X158288464Y-92440000D01*
X158288464Y-90640000D01*
X158258894Y-90491341D01*
X158174686Y-90365314D01*
X158048659Y-90281106D01*
X157900000Y-90251536D01*
X157274291Y-90251536D01*
X157499821Y-90206675D01*
X157923549Y-89923549D01*
X158206675Y-89499821D01*
X158306096Y-89000000D01*
X158228711Y-88610959D01*
X159608086Y-88610959D01*
X159729371Y-88833000D01*
X160873000Y-88833000D01*
X160873000Y-87690085D01*
X160650961Y-87568096D01*
X160262577Y-87728959D01*
X159847611Y-88104866D01*
X159608086Y-88610959D01*
X158228711Y-88610959D01*
X158206675Y-88500179D01*
X157923549Y-88076451D01*
X157593839Y-87856146D01*
X157796417Y-87772240D01*
X158237966Y-87367576D01*
X158491046Y-86824742D01*
X158370997Y-86587000D01*
X157127000Y-86587000D01*
X157127000Y-86607000D01*
X156873000Y-86607000D01*
X156873000Y-86587000D01*
X155629003Y-86587000D01*
X155508954Y-86824742D01*
X128972397Y-86824742D01*
X128991046Y-86784742D01*
X128870997Y-86547000D01*
X127627000Y-86547000D01*
X127627000Y-86567000D01*
X127373000Y-86567000D01*
X127373000Y-86547000D01*
X126129003Y-86547000D01*
X126008954Y-86784742D01*
X115456000Y-86784742D01*
X115456000Y-86055258D01*
X126008954Y-86055258D01*
X126129003Y-86293000D01*
X127373000Y-86293000D01*
X127373000Y-85049622D01*
X127627000Y-85049622D01*
X127627000Y-86293000D01*
X128870997Y-86293000D01*
X128970847Y-86095258D01*
X155508954Y-86095258D01*
X155629003Y-86333000D01*
X156873000Y-86333000D01*
X156873000Y-85089622D01*
X157127000Y-85089622D01*
X157127000Y-86333000D01*
X158370997Y-86333000D01*
X158491046Y-86095258D01*
X158237966Y-85552424D01*
X157796417Y-85147760D01*
X157364740Y-84968964D01*
X157127000Y-85089622D01*
X156873000Y-85089622D01*
X156635260Y-84968964D01*
X156203583Y-85147760D01*
X155762034Y-85552424D01*
X155508954Y-86095258D01*
X128970847Y-86095258D01*
X128991046Y-86055258D01*
X128737966Y-85512424D01*
X128296417Y-85107760D01*
X127864740Y-84928964D01*
X127627000Y-85049622D01*
X127373000Y-85049622D01*
X127135260Y-84928964D01*
X126703583Y-85107760D01*
X126262034Y-85512424D01*
X126008954Y-86055258D01*
X115456000Y-86055258D01*
X115456000Y-83596630D01*
X130382975Y-83596630D01*
X130725566Y-84071277D01*
X132058800Y-84631342D01*
X133504875Y-84638568D01*
X134843639Y-84091854D01*
X134874434Y-84071277D01*
X135217025Y-83596630D01*
X132800000Y-81179605D01*
X130382975Y-83596630D01*
X115456000Y-83596630D01*
X115456000Y-78849041D01*
X125108086Y-78849041D01*
X125347611Y-79355134D01*
X125762577Y-79731041D01*
X126150961Y-79891904D01*
X126372998Y-79769916D01*
X126372998Y-79859000D01*
X126265085Y-79859000D01*
X125831017Y-80038797D01*
X125498797Y-80371017D01*
X125319000Y-80805085D01*
X125319000Y-81274915D01*
X125498797Y-81708983D01*
X125831017Y-82041203D01*
X126265085Y-82221000D01*
X126734915Y-82221000D01*
X127168983Y-82041203D01*
X127501203Y-81708983D01*
X127502904Y-81704875D01*
X129161432Y-81704875D01*
X129708146Y-83043639D01*
X129728723Y-83074434D01*
X130203370Y-83417025D01*
X132620395Y-81000000D01*
X132979605Y-81000000D01*
X135396630Y-83417025D01*
X135871277Y-83074434D01*
X136431342Y-81741200D01*
X136438406Y-80327477D01*
X136619000Y-80327477D01*
X136619000Y-81672523D01*
X137133726Y-82915183D01*
X138084817Y-83866274D01*
X139327477Y-84381000D01*
X140672523Y-84381000D01*
X141915183Y-83866274D01*
X142866274Y-82915183D01*
X143381000Y-81672523D01*
X143381000Y-80327477D01*
X143286777Y-80100000D01*
X146211536Y-80100000D01*
X146211536Y-81900000D01*
X146241106Y-82048659D01*
X146325314Y-82174686D01*
X146451341Y-82258894D01*
X146600000Y-82288464D01*
X148400000Y-82288464D01*
X148548659Y-82258894D01*
X148674686Y-82174686D01*
X148758894Y-82048659D01*
X148788464Y-81900000D01*
X148788464Y-81862654D01*
X149132424Y-82237966D01*
X149675258Y-82491046D01*
X149913000Y-82370997D01*
X149913000Y-81127000D01*
X149893000Y-81127000D01*
X149893000Y-80873000D01*
X149913000Y-80873000D01*
X149913000Y-79629003D01*
X150167000Y-79629003D01*
X150167000Y-80873000D01*
X150187000Y-80873000D01*
X150187000Y-81127000D01*
X150167000Y-81127000D01*
X150167000Y-82370997D01*
X150404742Y-82491046D01*
X150947576Y-82237966D01*
X151352240Y-81796417D01*
X151436146Y-81593839D01*
X151656451Y-81923549D01*
X152080179Y-82206675D01*
X152453834Y-82281000D01*
X152706166Y-82281000D01*
X153079821Y-82206675D01*
X153377540Y-82007745D01*
X156171861Y-82007745D01*
X156245995Y-82253864D01*
X156783223Y-82446965D01*
X157353454Y-82419778D01*
X157754005Y-82253864D01*
X157828139Y-82007745D01*
X157000000Y-81179605D01*
X156171861Y-82007745D01*
X153377540Y-82007745D01*
X153503549Y-81923549D01*
X153786675Y-81499821D01*
X153886096Y-81000000D01*
X153842977Y-80783223D01*
X155553035Y-80783223D01*
X155580222Y-81353454D01*
X155746136Y-81754005D01*
X155992255Y-81828139D01*
X156820395Y-81000000D01*
X157179605Y-81000000D01*
X158007745Y-81828139D01*
X158253864Y-81754005D01*
X158311536Y-81593555D01*
X158311536Y-81800000D01*
X158341106Y-81948659D01*
X158425314Y-82074686D01*
X158551341Y-82158894D01*
X158700000Y-82188464D01*
X160300000Y-82188464D01*
X160448659Y-82158894D01*
X160574686Y-82074686D01*
X160658894Y-81948659D01*
X160688464Y-81800000D01*
X160688464Y-80200000D01*
X160658894Y-80051341D01*
X160574686Y-79925314D01*
X160448659Y-79841106D01*
X160300000Y-79811536D01*
X158700000Y-79811536D01*
X158551341Y-79841106D01*
X158425314Y-79925314D01*
X158341106Y-80051341D01*
X158311536Y-80200000D01*
X158311536Y-80385227D01*
X158253864Y-80245995D01*
X158007745Y-80171861D01*
X157179605Y-81000000D01*
X156820395Y-81000000D01*
X155992255Y-80171861D01*
X155746136Y-80245995D01*
X155553035Y-80783223D01*
X153842977Y-80783223D01*
X153786675Y-80500179D01*
X153503549Y-80076451D01*
X153377541Y-79992255D01*
X156171861Y-79992255D01*
X157000000Y-80820395D01*
X157828139Y-79992255D01*
X157754005Y-79746136D01*
X157500539Y-79655030D01*
X162869000Y-79655030D01*
X162869000Y-80104970D01*
X163041184Y-80520660D01*
X163359340Y-80838816D01*
X163775030Y-81011000D01*
X164224970Y-81011000D01*
X164640660Y-80838816D01*
X164958816Y-80520660D01*
X165131000Y-80104970D01*
X165131000Y-79655030D01*
X164958816Y-79239340D01*
X164640660Y-78921184D01*
X164224970Y-78749000D01*
X163775030Y-78749000D01*
X163359340Y-78921184D01*
X163041184Y-79239340D01*
X162869000Y-79655030D01*
X157500539Y-79655030D01*
X157216777Y-79553035D01*
X156646546Y-79580222D01*
X156245995Y-79746136D01*
X156171861Y-79992255D01*
X153377541Y-79992255D01*
X153079821Y-79793325D01*
X152706166Y-79719000D01*
X152453834Y-79719000D01*
X152080179Y-79793325D01*
X151656451Y-80076451D01*
X151436146Y-80406161D01*
X151352240Y-80203583D01*
X150947576Y-79762034D01*
X150404742Y-79508954D01*
X150167000Y-79629003D01*
X149913000Y-79629003D01*
X149675258Y-79508954D01*
X149132424Y-79762034D01*
X148788464Y-80137346D01*
X148788464Y-80100000D01*
X148758894Y-79951341D01*
X148674686Y-79825314D01*
X148548659Y-79741106D01*
X148400000Y-79711536D01*
X146600000Y-79711536D01*
X146451341Y-79741106D01*
X146325314Y-79825314D01*
X146241106Y-79951341D01*
X146211536Y-80100000D01*
X143286777Y-80100000D01*
X142866274Y-79084817D01*
X141915183Y-78133726D01*
X140672523Y-77619000D01*
X139327477Y-77619000D01*
X138084817Y-78133726D01*
X137133726Y-79084817D01*
X136619000Y-80327477D01*
X136438406Y-80327477D01*
X136438568Y-80295125D01*
X135891854Y-78956361D01*
X135871277Y-78925566D01*
X135396630Y-78582975D01*
X132979605Y-81000000D01*
X132620395Y-81000000D01*
X130203370Y-78582975D01*
X129728723Y-78925566D01*
X129168658Y-80258800D01*
X129161432Y-81704875D01*
X127502904Y-81704875D01*
X127681000Y-81274915D01*
X127681000Y-80805085D01*
X127501203Y-80371017D01*
X127168983Y-80038797D01*
X126734915Y-79859000D01*
X126627002Y-79859000D01*
X126627002Y-79769916D01*
X126849039Y-79891904D01*
X127237423Y-79731041D01*
X127652389Y-79355134D01*
X127891914Y-78849041D01*
X127770629Y-78627000D01*
X126627000Y-78627000D01*
X126627000Y-78647000D01*
X126373000Y-78647000D01*
X126373000Y-78627000D01*
X125229371Y-78627000D01*
X125108086Y-78849041D01*
X115456000Y-78849041D01*
X115456000Y-78403370D01*
X130382975Y-78403370D01*
X132800000Y-80820395D01*
X135217025Y-78403370D01*
X134874434Y-77928723D01*
X133541200Y-77368658D01*
X132095125Y-77361432D01*
X130756361Y-77908146D01*
X130725566Y-77928723D01*
X130382975Y-78403370D01*
X115456000Y-78403370D01*
X115456000Y-78150959D01*
X125108086Y-78150959D01*
X125229371Y-78373000D01*
X126373000Y-78373000D01*
X126373000Y-77230085D01*
X126627000Y-77230085D01*
X126627000Y-78373000D01*
X127770629Y-78373000D01*
X127891914Y-78150959D01*
X127652389Y-77644866D01*
X127237423Y-77268959D01*
X126849039Y-77108096D01*
X126627000Y-77230085D01*
X126373000Y-77230085D01*
X126150961Y-77108096D01*
X125762577Y-77268959D01*
X125347611Y-77644866D01*
X125108086Y-78150959D01*
X115456000Y-78150959D01*
X115456000Y-74605955D01*
X118019000Y-74605955D01*
X118019000Y-75394045D01*
X118320589Y-76122146D01*
X118877854Y-76679411D01*
X119605955Y-76981000D01*
X120394045Y-76981000D01*
X121122146Y-76679411D01*
X121679411Y-76122146D01*
X121981000Y-75394045D01*
X121981000Y-74605955D01*
X121679411Y-73877854D01*
X121501557Y-73700000D01*
X126311536Y-73700000D01*
X126311536Y-75300000D01*
X126341106Y-75448659D01*
X126425314Y-75574686D01*
X126551341Y-75658894D01*
X126700000Y-75688464D01*
X128300000Y-75688464D01*
X128448659Y-75658894D01*
X128574686Y-75574686D01*
X128658894Y-75448659D01*
X128688464Y-75300000D01*
X128688464Y-73700000D01*
X132311536Y-73700000D01*
X132311536Y-75300000D01*
X132341106Y-75448659D01*
X132425314Y-75574686D01*
X132551341Y-75658894D01*
X132700000Y-75688464D01*
X134300000Y-75688464D01*
X134448659Y-75658894D01*
X134574686Y-75574686D01*
X134658894Y-75448659D01*
X134688464Y-75300000D01*
X134688464Y-73700000D01*
X138311536Y-73700000D01*
X138311536Y-75300000D01*
X138341106Y-75448659D01*
X138425314Y-75574686D01*
X138551341Y-75658894D01*
X138700000Y-75688464D01*
X140300000Y-75688464D01*
X140448659Y-75658894D01*
X140574686Y-75574686D01*
X140658894Y-75448659D01*
X140688464Y-75300000D01*
X140688464Y-73700000D01*
X144311536Y-73700000D01*
X144311536Y-75300000D01*
X144341106Y-75448659D01*
X144425314Y-75574686D01*
X144551341Y-75658894D01*
X144700000Y-75688464D01*
X146300000Y-75688464D01*
X146448659Y-75658894D01*
X146574686Y-75574686D01*
X146658894Y-75448659D01*
X146688464Y-75300000D01*
X146688464Y-75200000D01*
X150311536Y-75200000D01*
X150311536Y-76800000D01*
X150341106Y-76948659D01*
X150425314Y-77074686D01*
X150551341Y-77158894D01*
X150700000Y-77188464D01*
X152300000Y-77188464D01*
X152448659Y-77158894D01*
X152574686Y-77074686D01*
X152658894Y-76948659D01*
X152688464Y-76800000D01*
X152688464Y-76007745D01*
X156171861Y-76007745D01*
X156245995Y-76253864D01*
X156783223Y-76446965D01*
X157353454Y-76419778D01*
X157754005Y-76253864D01*
X157828139Y-76007745D01*
X157000000Y-75179605D01*
X156171861Y-76007745D01*
X152688464Y-76007745D01*
X152688464Y-75200000D01*
X152658894Y-75051341D01*
X152574686Y-74925314D01*
X152448659Y-74841106D01*
X152300000Y-74811536D01*
X152114773Y-74811536D01*
X152183126Y-74783223D01*
X155553035Y-74783223D01*
X155580222Y-75353454D01*
X155746136Y-75754005D01*
X155992255Y-75828139D01*
X156820395Y-75000000D01*
X157179605Y-75000000D01*
X158007745Y-75828139D01*
X158253864Y-75754005D01*
X158311536Y-75593555D01*
X158311536Y-75800000D01*
X158341106Y-75948659D01*
X158425314Y-76074686D01*
X158551341Y-76158894D01*
X158700000Y-76188464D01*
X160300000Y-76188464D01*
X160448659Y-76158894D01*
X160574686Y-76074686D01*
X160658894Y-75948659D01*
X160688464Y-75800000D01*
X160688464Y-74775030D01*
X162869000Y-74775030D01*
X162869000Y-75224970D01*
X163041184Y-75640660D01*
X163359340Y-75958816D01*
X163775030Y-76131000D01*
X164224970Y-76131000D01*
X164640660Y-75958816D01*
X164958816Y-75640660D01*
X165131000Y-75224970D01*
X165131000Y-74775030D01*
X164958816Y-74359340D01*
X164640660Y-74041184D01*
X164224970Y-73869000D01*
X163775030Y-73869000D01*
X163359340Y-74041184D01*
X163041184Y-74359340D01*
X162869000Y-74775030D01*
X160688464Y-74775030D01*
X160688464Y-74200000D01*
X160658894Y-74051341D01*
X160574686Y-73925314D01*
X160448659Y-73841106D01*
X160300000Y-73811536D01*
X158700000Y-73811536D01*
X158551341Y-73841106D01*
X158425314Y-73925314D01*
X158341106Y-74051341D01*
X158311536Y-74200000D01*
X158311536Y-74385227D01*
X158253864Y-74245995D01*
X158007745Y-74171861D01*
X157179605Y-75000000D01*
X156820395Y-75000000D01*
X155992255Y-74171861D01*
X155746136Y-74245995D01*
X155553035Y-74783223D01*
X152183126Y-74783223D01*
X152254005Y-74753864D01*
X152328139Y-74507745D01*
X151500000Y-73679605D01*
X150671861Y-74507745D01*
X150745995Y-74753864D01*
X150906445Y-74811536D01*
X150700000Y-74811536D01*
X150551341Y-74841106D01*
X150425314Y-74925314D01*
X150341106Y-75051341D01*
X150311536Y-75200000D01*
X146688464Y-75200000D01*
X146688464Y-73700000D01*
X146658894Y-73551341D01*
X146574686Y-73425314D01*
X146448659Y-73341106D01*
X146300000Y-73311536D01*
X146114773Y-73311536D01*
X146183126Y-73283223D01*
X150053035Y-73283223D01*
X150080222Y-73853454D01*
X150246136Y-74254005D01*
X150492255Y-74328139D01*
X151320395Y-73500000D01*
X151679605Y-73500000D01*
X152507745Y-74328139D01*
X152753864Y-74254005D01*
X152847947Y-73992255D01*
X156171861Y-73992255D01*
X157000000Y-74820395D01*
X157828139Y-73992255D01*
X157754005Y-73746136D01*
X157216777Y-73553035D01*
X156646546Y-73580222D01*
X156245995Y-73746136D01*
X156171861Y-73992255D01*
X152847947Y-73992255D01*
X152946965Y-73716777D01*
X152919778Y-73146546D01*
X152753864Y-72745995D01*
X152507745Y-72671861D01*
X151679605Y-73500000D01*
X151320395Y-73500000D01*
X150492255Y-72671861D01*
X150246136Y-72745995D01*
X150053035Y-73283223D01*
X146183126Y-73283223D01*
X146254005Y-73253864D01*
X146328139Y-73007745D01*
X145500000Y-72179605D01*
X144671861Y-73007745D01*
X144745995Y-73253864D01*
X144906445Y-73311536D01*
X144700000Y-73311536D01*
X144551341Y-73341106D01*
X144425314Y-73425314D01*
X144341106Y-73551341D01*
X144311536Y-73700000D01*
X140688464Y-73700000D01*
X140658894Y-73551341D01*
X140574686Y-73425314D01*
X140448659Y-73341106D01*
X140300000Y-73311536D01*
X140114773Y-73311536D01*
X140254005Y-73253864D01*
X140328139Y-73007745D01*
X139500000Y-72179605D01*
X138671861Y-73007745D01*
X138745995Y-73253864D01*
X138906445Y-73311536D01*
X138700000Y-73311536D01*
X138551341Y-73341106D01*
X138425314Y-73425314D01*
X138341106Y-73551341D01*
X138311536Y-73700000D01*
X134688464Y-73700000D01*
X134658894Y-73551341D01*
X134574686Y-73425314D01*
X134448659Y-73341106D01*
X134300000Y-73311536D01*
X134114773Y-73311536D01*
X134254005Y-73253864D01*
X134328139Y-73007745D01*
X133500000Y-72179605D01*
X132671861Y-73007745D01*
X132745995Y-73253864D01*
X132906445Y-73311536D01*
X132700000Y-73311536D01*
X132551341Y-73341106D01*
X132425314Y-73425314D01*
X132341106Y-73551341D01*
X132311536Y-73700000D01*
X128688464Y-73700000D01*
X128658894Y-73551341D01*
X128574686Y-73425314D01*
X128448659Y-73341106D01*
X128300000Y-73311536D01*
X128114773Y-73311536D01*
X128254005Y-73253864D01*
X128328139Y-73007745D01*
X127500000Y-72179605D01*
X126671861Y-73007745D01*
X126745995Y-73253864D01*
X126906445Y-73311536D01*
X126700000Y-73311536D01*
X126551341Y-73341106D01*
X126425314Y-73425314D01*
X126341106Y-73551341D01*
X126311536Y-73700000D01*
X121501557Y-73700000D01*
X121122146Y-73320589D01*
X120394045Y-73019000D01*
X119605955Y-73019000D01*
X118877854Y-73320589D01*
X118320589Y-73877854D01*
X118019000Y-74605955D01*
X115456000Y-74605955D01*
X115456000Y-71783223D01*
X126053035Y-71783223D01*
X126080222Y-72353454D01*
X126246136Y-72754005D01*
X126492255Y-72828139D01*
X127320395Y-72000000D01*
X127679605Y-72000000D01*
X128507745Y-72828139D01*
X128753864Y-72754005D01*
X128946965Y-72216777D01*
X128926295Y-71783223D01*
X132053035Y-71783223D01*
X132080222Y-72353454D01*
X132246136Y-72754005D01*
X132492255Y-72828139D01*
X133320395Y-72000000D01*
X133679605Y-72000000D01*
X134507745Y-72828139D01*
X134753864Y-72754005D01*
X134946965Y-72216777D01*
X134926295Y-71783223D01*
X138053035Y-71783223D01*
X138080222Y-72353454D01*
X138246136Y-72754005D01*
X138492255Y-72828139D01*
X139320395Y-72000000D01*
X139679605Y-72000000D01*
X140507745Y-72828139D01*
X140753864Y-72754005D01*
X140946965Y-72216777D01*
X140926295Y-71783223D01*
X144053035Y-71783223D01*
X144080222Y-72353454D01*
X144246136Y-72754005D01*
X144492255Y-72828139D01*
X145320395Y-72000000D01*
X145679605Y-72000000D01*
X146507745Y-72828139D01*
X146753864Y-72754005D01*
X146847947Y-72492255D01*
X150671861Y-72492255D01*
X151500000Y-73320395D01*
X152328139Y-72492255D01*
X152254005Y-72246136D01*
X151716777Y-72053035D01*
X151146546Y-72080222D01*
X150745995Y-72246136D01*
X150671861Y-72492255D01*
X146847947Y-72492255D01*
X146946965Y-72216777D01*
X146919778Y-71646546D01*
X146753864Y-71245995D01*
X146507745Y-71171861D01*
X145679605Y-72000000D01*
X145320395Y-72000000D01*
X144492255Y-71171861D01*
X144246136Y-71245995D01*
X144053035Y-71783223D01*
X140926295Y-71783223D01*
X140919778Y-71646546D01*
X140753864Y-71245995D01*
X140507745Y-71171861D01*
X139679605Y-72000000D01*
X139320395Y-72000000D01*
X138492255Y-71171861D01*
X138246136Y-71245995D01*
X138053035Y-71783223D01*
X134926295Y-71783223D01*
X134919778Y-71646546D01*
X134753864Y-71245995D01*
X134507745Y-71171861D01*
X133679605Y-72000000D01*
X133320395Y-72000000D01*
X132492255Y-71171861D01*
X132246136Y-71245995D01*
X132053035Y-71783223D01*
X128926295Y-71783223D01*
X128919778Y-71646546D01*
X128753864Y-71245995D01*
X128507745Y-71171861D01*
X127679605Y-72000000D01*
X127320395Y-72000000D01*
X126492255Y-71171861D01*
X126246136Y-71245995D01*
X126053035Y-71783223D01*
X115456000Y-71783223D01*
X115456000Y-70992255D01*
X126671861Y-70992255D01*
X127500000Y-71820395D01*
X128328139Y-70992255D01*
X132671861Y-70992255D01*
X133500000Y-71820395D01*
X134328139Y-70992255D01*
X138671861Y-70992255D01*
X139500000Y-71820395D01*
X140328139Y-70992255D01*
X144671861Y-70992255D01*
X145500000Y-71820395D01*
X146328139Y-70992255D01*
X146254005Y-70746136D01*
X145716777Y-70553035D01*
X145146546Y-70580222D01*
X144745995Y-70746136D01*
X144671861Y-70992255D01*
X140328139Y-70992255D01*
X140254005Y-70746136D01*
X139716777Y-70553035D01*
X139146546Y-70580222D01*
X138745995Y-70746136D01*
X138671861Y-70992255D01*
X134328139Y-70992255D01*
X134254005Y-70746136D01*
X133716777Y-70553035D01*
X133146546Y-70580222D01*
X132745995Y-70746136D01*
X132671861Y-70992255D01*
X128328139Y-70992255D01*
X128254005Y-70746136D01*
X127716777Y-70553035D01*
X127146546Y-70580222D01*
X126745995Y-70746136D01*
X126671861Y-70992255D01*
X115456000Y-70992255D01*
X115456000Y-70456000D01*
X172816709Y-70456000D01*
X172783168Y-70478411D01*
X172783168Y-70478411D01*
G37*
X172783168Y-70478411D02*
X172783166Y-70478413D01*
X172740754Y-70506752D01*
X172712415Y-70549164D01*
X169385132Y-73876448D01*
X169096318Y-73819000D01*
X168863682Y-73819000D01*
X168519197Y-73887522D01*
X168128547Y-74148547D01*
X167867522Y-74539197D01*
X167775863Y-75000000D01*
X167867522Y-75460803D01*
X168128547Y-75851453D01*
X168519197Y-76112478D01*
X168863682Y-76181000D01*
X169096318Y-76181000D01*
X169440803Y-76112478D01*
X169831453Y-75851453D01*
X170092478Y-75460803D01*
X170184137Y-75000000D01*
X170103552Y-74594868D01*
X173317422Y-71380999D01*
X183792519Y-71380999D01*
X183744331Y-71564725D01*
X184500000Y-72320395D01*
X185255669Y-71564725D01*
X185207481Y-71380999D01*
X198978094Y-71380999D01*
X198819000Y-71765085D01*
X198819000Y-72234915D01*
X198998797Y-72668983D01*
X199331017Y-73001203D01*
X199765085Y-73181000D01*
X200234915Y-73181000D01*
X200668983Y-73001203D01*
X201001203Y-72668983D01*
X201181000Y-72234915D01*
X201181000Y-71765085D01*
X201021906Y-71380999D01*
X201533227Y-71380999D01*
X201427522Y-71539197D01*
X201335863Y-72000000D01*
X201427522Y-72460803D01*
X201688547Y-72851453D01*
X202079197Y-73112478D01*
X202423682Y-73181000D01*
X202656318Y-73181000D01*
X203000803Y-73112478D01*
X203391453Y-72851453D01*
X203652478Y-72460803D01*
X203744137Y-72000000D01*
X203652478Y-71539197D01*
X203546773Y-71380999D01*
X206679910Y-71380999D01*
X206568096Y-71650961D01*
X206690085Y-71873000D01*
X207833000Y-71873000D01*
X207833000Y-71853000D01*
X208087000Y-71853000D01*
X208087000Y-71873000D01*
X208107000Y-71873000D01*
X208107000Y-72127000D01*
X208087000Y-72127000D01*
X208087000Y-72147000D01*
X207833000Y-72147000D01*
X207833000Y-72127000D01*
X206690085Y-72127000D01*
X206568096Y-72349039D01*
X206728959Y-72737423D01*
X207017298Y-73055723D01*
X206377854Y-73320589D01*
X205820589Y-73877854D01*
X205519000Y-74605955D01*
X205519000Y-74800580D01*
X204267587Y-73549167D01*
X204239246Y-73506752D01*
X204071211Y-73394474D01*
X203923031Y-73364999D01*
X203923027Y-73364999D01*
X203872999Y-73355048D01*
X203822971Y-73364999D01*
X187663766Y-73364999D01*
X187916428Y-73112337D01*
X188081000Y-72715024D01*
X188081000Y-72284976D01*
X187916428Y-71887663D01*
X187612337Y-71583572D01*
X187215024Y-71419000D01*
X186784976Y-71419000D01*
X186387663Y-71583572D01*
X186083572Y-71887663D01*
X185919000Y-72284976D01*
X185919000Y-72715024D01*
X186083572Y-73112337D01*
X186336234Y-73364999D01*
X185544607Y-73364999D01*
X185435277Y-73255669D01*
X185671042Y-73193831D01*
X185847419Y-72692878D01*
X185818664Y-72162560D01*
X185671042Y-71806169D01*
X185435275Y-71744331D01*
X184679605Y-72500000D01*
X184693748Y-72514142D01*
X184514142Y-72693748D01*
X184500000Y-72679605D01*
X184485858Y-72693748D01*
X184306252Y-72514142D01*
X184320395Y-72500000D01*
X183564725Y-71744331D01*
X183328958Y-71806169D01*
X183152581Y-72307122D01*
X183181336Y-72837440D01*
X183328958Y-73193831D01*
X183564723Y-73255669D01*
X183455393Y-73364999D01*
X172697028Y-73364999D01*
X172647000Y-73355048D01*
X172596972Y-73364999D01*
X172596969Y-73364999D01*
X172461659Y-73391914D01*
X172448789Y-73394474D01*
X172323168Y-73478411D01*
X172323166Y-73478413D01*
X172280754Y-73506752D01*
X172252415Y-73549164D01*
X171925131Y-73876448D01*
X171636318Y-73819000D01*
X171403682Y-73819000D01*
X171059197Y-73887522D01*
X170668547Y-74148547D01*
X170407522Y-74539197D01*
X170315863Y-75000000D01*
X170407522Y-75460803D01*
X170668547Y-75851453D01*
X171059197Y-76112478D01*
X171403682Y-76181000D01*
X171636318Y-76181000D01*
X171980803Y-76112478D01*
X172371453Y-75851453D01*
X172632478Y-75460803D01*
X172724137Y-75000000D01*
X172643552Y-74594869D01*
X172857422Y-74380999D01*
X173053227Y-74380999D01*
X172947522Y-74539197D01*
X172855863Y-75000000D01*
X172947522Y-75460803D01*
X173208547Y-75851453D01*
X173599197Y-76112478D01*
X173943682Y-76181000D01*
X174176318Y-76181000D01*
X174465131Y-76123552D01*
X174792415Y-76450836D01*
X174820754Y-76493248D01*
X174863166Y-76521587D01*
X174863168Y-76521589D01*
X174988789Y-76605526D01*
X175136969Y-76635001D01*
X175136972Y-76635001D01*
X175187000Y-76644952D01*
X175237028Y-76635001D01*
X176644543Y-76635001D01*
X181467644Y-81458103D01*
X181219197Y-81507522D01*
X180828547Y-81768547D01*
X180747361Y-81890050D01*
X180745526Y-81880827D01*
X180689125Y-81796417D01*
X180661589Y-81755206D01*
X180661587Y-81755204D01*
X180633248Y-81712792D01*
X180590836Y-81684453D01*
X179621539Y-80715157D01*
X179593198Y-80672742D01*
X179425163Y-80560464D01*
X179276983Y-80530989D01*
X179276979Y-80530989D01*
X179226951Y-80521038D01*
X179176923Y-80530989D01*
X169479668Y-80530989D01*
X169429640Y-80521038D01*
X169379612Y-80530989D01*
X169379609Y-80530989D01*
X169231429Y-80560464D01*
X169063394Y-80672742D01*
X169035053Y-80715157D01*
X168656168Y-81094042D01*
X168613753Y-81122383D01*
X168585413Y-81164797D01*
X168585412Y-81164798D01*
X168560995Y-81201341D01*
X168501475Y-81290419D01*
X168472000Y-81438599D01*
X168472000Y-81438602D01*
X168462049Y-81488630D01*
X168472000Y-81538658D01*
X168472000Y-81539058D01*
X168128547Y-81768547D01*
X167867522Y-82159197D01*
X167775863Y-82620000D01*
X167867522Y-83080803D01*
X167973227Y-83239001D01*
X166119027Y-83239001D01*
X166068999Y-83229050D01*
X166018971Y-83239001D01*
X166018967Y-83239001D01*
X165870787Y-83268476D01*
X165745166Y-83352413D01*
X165745164Y-83352415D01*
X165702752Y-83380754D01*
X165674413Y-83423166D01*
X164676168Y-84421412D01*
X164633753Y-84449753D01*
X164521475Y-84617789D01*
X164508795Y-84681536D01*
X164150000Y-84681536D01*
X164001341Y-84711106D01*
X163875314Y-84795314D01*
X163791106Y-84921341D01*
X163761536Y-85070000D01*
X163761536Y-86770000D01*
X163791106Y-86918659D01*
X163875314Y-87044686D01*
X163923042Y-87076576D01*
X162390868Y-88608750D01*
X162152389Y-88104866D01*
X161737423Y-87728959D01*
X161349039Y-87568096D01*
X161127000Y-87690085D01*
X161127000Y-88833000D01*
X161147000Y-88833000D01*
X161147000Y-89087000D01*
X161127000Y-89087000D01*
X161127000Y-89107000D01*
X160873000Y-89107000D01*
X160873000Y-89087000D01*
X159729371Y-89087000D01*
X159608086Y-89309041D01*
X159847611Y-89815134D01*
X160262577Y-90191041D01*
X160650961Y-90351904D01*
X160872998Y-90229916D01*
X160872998Y-90319000D01*
X160765085Y-90319000D01*
X160331017Y-90498797D01*
X159998797Y-90831017D01*
X159819000Y-91265085D01*
X159819000Y-91734915D01*
X159998797Y-92168983D01*
X160331017Y-92501203D01*
X160765085Y-92681000D01*
X161234915Y-92681000D01*
X161668983Y-92501203D01*
X162001203Y-92168983D01*
X162181000Y-91734915D01*
X162181000Y-91265085D01*
X162114318Y-91104102D01*
X162123831Y-91094589D01*
X162166246Y-91066248D01*
X162278524Y-90898213D01*
X162307999Y-90750033D01*
X162307999Y-90750030D01*
X162317950Y-90700002D01*
X162307999Y-90649974D01*
X162307999Y-90128459D01*
X163783305Y-88653153D01*
X163840424Y-88940312D01*
X164112499Y-89347501D01*
X164519688Y-89619576D01*
X164878761Y-89691000D01*
X165121239Y-89691000D01*
X165447652Y-89626073D01*
X165782415Y-89960836D01*
X165810754Y-90003248D01*
X165853166Y-90031587D01*
X165853168Y-90031589D01*
X165894207Y-90059010D01*
X165978789Y-90115526D01*
X166126969Y-90145001D01*
X166126973Y-90145001D01*
X166177001Y-90154952D01*
X166227029Y-90145001D01*
X166348621Y-90145001D01*
X166268355Y-90233076D01*
X166153445Y-90510512D01*
X165887501Y-90112499D01*
X165480312Y-89840424D01*
X165121239Y-89769000D01*
X164878761Y-89769000D01*
X164519688Y-89840424D01*
X164112499Y-90112499D01*
X163840424Y-90519688D01*
X163744884Y-91000000D01*
X163840424Y-91480312D01*
X164112499Y-91887501D01*
X164519688Y-92159576D01*
X164878761Y-92231000D01*
X165121239Y-92231000D01*
X165447652Y-92166073D01*
X165782415Y-92500836D01*
X165810754Y-92543248D01*
X165853166Y-92571587D01*
X165853168Y-92571589D01*
X165978789Y-92655526D01*
X166126969Y-92685001D01*
X166126973Y-92685001D01*
X166177001Y-92694952D01*
X166227029Y-92685001D01*
X200051933Y-92685001D01*
X200101961Y-92694952D01*
X200151989Y-92685001D01*
X200151993Y-92685001D01*
X200300173Y-92655526D01*
X200468208Y-92543248D01*
X200496549Y-92500833D01*
X202025837Y-90971546D01*
X202068248Y-90943208D01*
X202096587Y-90900796D01*
X202096589Y-90900794D01*
X202180526Y-90775173D01*
X202193198Y-90711467D01*
X202210001Y-90626993D01*
X202210001Y-90626990D01*
X202219952Y-90576962D01*
X202210001Y-90526934D01*
X202210001Y-89605955D01*
X205519000Y-89605955D01*
X205519000Y-90394045D01*
X205820589Y-91122146D01*
X206377854Y-91679411D01*
X207105955Y-91981000D01*
X207894045Y-91981000D01*
X208622146Y-91679411D01*
X209179411Y-91122146D01*
X209481000Y-90394045D01*
X209481000Y-89605955D01*
X209179411Y-88877854D01*
X208622146Y-88320589D01*
X207894045Y-88019000D01*
X207105955Y-88019000D01*
X206377854Y-88320589D01*
X205820589Y-88877854D01*
X205519000Y-89605955D01*
X202210001Y-89605955D01*
X202210001Y-89473067D01*
X202219952Y-89423039D01*
X202210001Y-89373011D01*
X202210001Y-89373007D01*
X202180526Y-89224827D01*
X202145142Y-89171871D01*
X202096589Y-89099206D01*
X202096587Y-89099204D01*
X202068248Y-89056792D01*
X202025836Y-89028453D01*
X201635001Y-88637619D01*
X201635001Y-86271316D01*
X201688547Y-86351453D01*
X202079197Y-86612478D01*
X202423682Y-86681000D01*
X202656318Y-86681000D01*
X203000803Y-86612478D01*
X203391453Y-86351453D01*
X203652478Y-85960803D01*
X203744137Y-85500000D01*
X203652478Y-85039197D01*
X203391453Y-84648547D01*
X203000803Y-84387522D01*
X202682229Y-84324154D01*
X203450837Y-83555546D01*
X203493248Y-83527208D01*
X203521587Y-83484796D01*
X203521589Y-83484794D01*
X203605526Y-83359173D01*
X203617563Y-83298659D01*
X203635001Y-83210993D01*
X203635001Y-83210990D01*
X203644952Y-83160962D01*
X203635001Y-83110934D01*
X203635001Y-79595187D01*
X203831017Y-79791203D01*
X204265085Y-79971000D01*
X204734915Y-79971000D01*
X205168983Y-79791203D01*
X205501203Y-79458983D01*
X205530714Y-79387736D01*
X207162711Y-81019734D01*
X206814372Y-81164021D01*
X206454021Y-81524372D01*
X206288464Y-81924061D01*
X206288464Y-81350000D01*
X206258894Y-81201341D01*
X206174686Y-81075314D01*
X206048659Y-80991106D01*
X205900000Y-80961536D01*
X204100000Y-80961536D01*
X203951341Y-80991106D01*
X203825314Y-81075314D01*
X203741106Y-81201341D01*
X203711536Y-81350000D01*
X203711536Y-83150000D01*
X203741106Y-83298659D01*
X203825314Y-83424686D01*
X203951341Y-83508894D01*
X204100000Y-83538464D01*
X205900000Y-83538464D01*
X206048659Y-83508894D01*
X206174686Y-83424686D01*
X206258894Y-83298659D01*
X206288464Y-83150000D01*
X206288464Y-82575939D01*
X206454021Y-82975628D01*
X206814372Y-83335979D01*
X207285193Y-83531000D01*
X207794807Y-83531000D01*
X208265628Y-83335979D01*
X208625979Y-82975628D01*
X208821000Y-82504807D01*
X208821000Y-82433458D01*
X210282000Y-83894458D01*
X210282001Y-84177173D01*
X210282000Y-84177177D01*
X210282000Y-84323876D01*
X210064372Y-84414021D01*
X209704021Y-84774372D01*
X209538464Y-85174061D01*
X209538464Y-84600000D01*
X209508894Y-84451341D01*
X209424686Y-84325314D01*
X209298659Y-84241106D01*
X209150000Y-84211536D01*
X207350000Y-84211536D01*
X207201341Y-84241106D01*
X207075314Y-84325314D01*
X206991106Y-84451341D01*
X206961536Y-84600000D01*
X206961536Y-86400000D01*
X206991106Y-86548659D01*
X207075314Y-86674686D01*
X207201341Y-86758894D01*
X207350000Y-86788464D01*
X209150000Y-86788464D01*
X209298659Y-86758894D01*
X209424686Y-86674686D01*
X209508894Y-86548659D01*
X209538464Y-86400000D01*
X209538464Y-85825939D01*
X209704021Y-86225628D01*
X210064372Y-86585979D01*
X210535193Y-86781000D01*
X211044807Y-86781000D01*
X211515628Y-86585979D01*
X211875979Y-86225628D01*
X212044000Y-85819990D01*
X212044000Y-92734076D01*
X211902389Y-92434866D01*
X211487423Y-92058959D01*
X211099039Y-91898096D01*
X210877002Y-92020084D01*
X210877002Y-91931000D01*
X210984915Y-91931000D01*
X211418983Y-91751203D01*
X211751203Y-91418983D01*
X211931000Y-90984915D01*
X211931000Y-90515085D01*
X211751203Y-90081017D01*
X211418983Y-89748797D01*
X210984915Y-89569000D01*
X210515085Y-89569000D01*
X210081017Y-89748797D01*
X209748797Y-90081017D01*
X209569000Y-90515085D01*
X209569000Y-90984915D01*
X209748797Y-91418983D01*
X210081017Y-91751203D01*
X210515085Y-91931000D01*
X210622998Y-91931000D01*
X210622998Y-92020084D01*
X210400961Y-91898096D01*
X210012577Y-92058959D01*
X209597611Y-92434866D01*
X209358086Y-92940959D01*
X209479371Y-93163000D01*
X210623000Y-93163000D01*
X210623000Y-93143000D01*
X210877000Y-93143000D01*
X210877000Y-93163000D01*
X210897000Y-93163000D01*
X210897000Y-93417000D01*
X210877000Y-93417000D01*
X210877000Y-93437000D01*
X210623000Y-93437000D01*
X210623000Y-93417000D01*
X209479371Y-93417000D01*
X209358086Y-93639041D01*
X209597611Y-94145134D01*
X210012577Y-94521041D01*
X210068009Y-94544000D01*
X115456000Y-94544000D01*
X115456000Y-89605955D01*
X118019000Y-89605955D01*
X118019000Y-90394045D01*
X118320589Y-91122146D01*
X118877854Y-91679411D01*
X119605955Y-91981000D01*
X120394045Y-91981000D01*
X121122146Y-91679411D01*
X121679411Y-91122146D01*
X121981000Y-90394045D01*
X121981000Y-89605955D01*
X121679411Y-88877854D01*
X121122146Y-88320589D01*
X120394045Y-88019000D01*
X119605955Y-88019000D01*
X118877854Y-88320589D01*
X118320589Y-88877854D01*
X118019000Y-89605955D01*
X115456000Y-89605955D01*
X115456000Y-86784742D01*
X126008954Y-86784742D01*
X126262034Y-87327576D01*
X126703583Y-87732240D01*
X126906161Y-87816146D01*
X126576451Y-88036451D01*
X126293325Y-88460179D01*
X126193904Y-88960000D01*
X126293325Y-89459821D01*
X126576451Y-89883549D01*
X127000179Y-90166675D01*
X127225709Y-90211536D01*
X126600000Y-90211536D01*
X126451341Y-90241106D01*
X126325314Y-90325314D01*
X126241106Y-90451341D01*
X126211536Y-90600000D01*
X126211536Y-92400000D01*
X126241106Y-92548659D01*
X126325314Y-92674686D01*
X126451341Y-92758894D01*
X126600000Y-92788464D01*
X128400000Y-92788464D01*
X128548659Y-92758894D01*
X128674686Y-92674686D01*
X128758894Y-92548659D01*
X128788464Y-92400000D01*
X128788464Y-90600000D01*
X128758894Y-90451341D01*
X128674686Y-90325314D01*
X128548659Y-90241106D01*
X128400000Y-90211536D01*
X127774291Y-90211536D01*
X127999821Y-90166675D01*
X128423549Y-89883549D01*
X128706675Y-89459821D01*
X128806096Y-88960000D01*
X128714596Y-88500000D01*
X133111536Y-88500000D01*
X133111536Y-91500000D01*
X133141106Y-91648659D01*
X133225314Y-91774686D01*
X133351341Y-91858894D01*
X133500000Y-91888464D01*
X136500000Y-91888464D01*
X136648659Y-91858894D01*
X136774686Y-91774686D01*
X136858894Y-91648659D01*
X136888464Y-91500000D01*
X136888464Y-89625846D01*
X138199000Y-89625846D01*
X138199000Y-90374154D01*
X138485365Y-91065501D01*
X139014499Y-91594635D01*
X139705846Y-91881000D01*
X140454154Y-91881000D01*
X141145501Y-91594635D01*
X141674635Y-91065501D01*
X141961000Y-90374154D01*
X141961000Y-89625846D01*
X141674635Y-88934499D01*
X141240136Y-88500000D01*
X144111536Y-88500000D01*
X144111536Y-91500000D01*
X144141106Y-91648659D01*
X144225314Y-91774686D01*
X144351341Y-91858894D01*
X144500000Y-91888464D01*
X147500000Y-91888464D01*
X147648659Y-91858894D01*
X147774686Y-91774686D01*
X147858894Y-91648659D01*
X147888464Y-91500000D01*
X147888464Y-89625846D01*
X149199000Y-89625846D01*
X149199000Y-90374154D01*
X149485365Y-91065501D01*
X150014499Y-91594635D01*
X150705846Y-91881000D01*
X151454154Y-91881000D01*
X152145501Y-91594635D01*
X152674635Y-91065501D01*
X152961000Y-90374154D01*
X152961000Y-89625846D01*
X152674635Y-88934499D01*
X152145501Y-88405365D01*
X151454154Y-88119000D01*
X150705846Y-88119000D01*
X150014499Y-88405365D01*
X149485365Y-88934499D01*
X149199000Y-89625846D01*
X147888464Y-89625846D01*
X147888464Y-88500000D01*
X147858894Y-88351341D01*
X147774686Y-88225314D01*
X147648659Y-88141106D01*
X147500000Y-88111536D01*
X144500000Y-88111536D01*
X144351341Y-88141106D01*
X144225314Y-88225314D01*
X144141106Y-88351341D01*
X144111536Y-88500000D01*
X141240136Y-88500000D01*
X141145501Y-88405365D01*
X140454154Y-88119000D01*
X139705846Y-88119000D01*
X139014499Y-88405365D01*
X138485365Y-88934499D01*
X138199000Y-89625846D01*
X136888464Y-89625846D01*
X136888464Y-88500000D01*
X136858894Y-88351341D01*
X136774686Y-88225314D01*
X136648659Y-88141106D01*
X136500000Y-88111536D01*
X133500000Y-88111536D01*
X133351341Y-88141106D01*
X133225314Y-88225314D01*
X133141106Y-88351341D01*
X133111536Y-88500000D01*
X128714596Y-88500000D01*
X128706675Y-88460179D01*
X128423549Y-88036451D01*
X128093839Y-87816146D01*
X128296417Y-87732240D01*
X128737966Y-87327576D01*
X128972397Y-86824742D01*
X155508954Y-86824742D01*
X155762034Y-87367576D01*
X156203583Y-87772240D01*
X156406161Y-87856146D01*
X156076451Y-88076451D01*
X155793325Y-88500179D01*
X155693904Y-89000000D01*
X155793325Y-89499821D01*
X156076451Y-89923549D01*
X156500179Y-90206675D01*
X156725709Y-90251536D01*
X156100000Y-90251536D01*
X155951341Y-90281106D01*
X155825314Y-90365314D01*
X155741106Y-90491341D01*
X155711536Y-90640000D01*
X155711536Y-92440000D01*
X155741106Y-92588659D01*
X155825314Y-92714686D01*
X155951341Y-92798894D01*
X156100000Y-92828464D01*
X157900000Y-92828464D01*
X158048659Y-92798894D01*
X158174686Y-92714686D01*
X158258894Y-92588659D01*
X158288464Y-92440000D01*
X158288464Y-90640000D01*
X158258894Y-90491341D01*
X158174686Y-90365314D01*
X158048659Y-90281106D01*
X157900000Y-90251536D01*
X157274291Y-90251536D01*
X157499821Y-90206675D01*
X157923549Y-89923549D01*
X158206675Y-89499821D01*
X158306096Y-89000000D01*
X158228711Y-88610959D01*
X159608086Y-88610959D01*
X159729371Y-88833000D01*
X160873000Y-88833000D01*
X160873000Y-87690085D01*
X160650961Y-87568096D01*
X160262577Y-87728959D01*
X159847611Y-88104866D01*
X159608086Y-88610959D01*
X158228711Y-88610959D01*
X158206675Y-88500179D01*
X157923549Y-88076451D01*
X157593839Y-87856146D01*
X157796417Y-87772240D01*
X158237966Y-87367576D01*
X158491046Y-86824742D01*
X158370997Y-86587000D01*
X157127000Y-86587000D01*
X157127000Y-86607000D01*
X156873000Y-86607000D01*
X156873000Y-86587000D01*
X155629003Y-86587000D01*
X155508954Y-86824742D01*
X128972397Y-86824742D01*
X128991046Y-86784742D01*
X128870997Y-86547000D01*
X127627000Y-86547000D01*
X127627000Y-86567000D01*
X127373000Y-86567000D01*
X127373000Y-86547000D01*
X126129003Y-86547000D01*
X126008954Y-86784742D01*
X115456000Y-86784742D01*
X115456000Y-86055258D01*
X126008954Y-86055258D01*
X126129003Y-86293000D01*
X127373000Y-86293000D01*
X127373000Y-85049622D01*
X127627000Y-85049622D01*
X127627000Y-86293000D01*
X128870997Y-86293000D01*
X128970847Y-86095258D01*
X155508954Y-86095258D01*
X155629003Y-86333000D01*
X156873000Y-86333000D01*
X156873000Y-85089622D01*
X157127000Y-85089622D01*
X157127000Y-86333000D01*
X158370997Y-86333000D01*
X158491046Y-86095258D01*
X158237966Y-85552424D01*
X157796417Y-85147760D01*
X157364740Y-84968964D01*
X157127000Y-85089622D01*
X156873000Y-85089622D01*
X156635260Y-84968964D01*
X156203583Y-85147760D01*
X155762034Y-85552424D01*
X155508954Y-86095258D01*
X128970847Y-86095258D01*
X128991046Y-86055258D01*
X128737966Y-85512424D01*
X128296417Y-85107760D01*
X127864740Y-84928964D01*
X127627000Y-85049622D01*
X127373000Y-85049622D01*
X127135260Y-84928964D01*
X126703583Y-85107760D01*
X126262034Y-85512424D01*
X126008954Y-86055258D01*
X115456000Y-86055258D01*
X115456000Y-83596630D01*
X130382975Y-83596630D01*
X130725566Y-84071277D01*
X132058800Y-84631342D01*
X133504875Y-84638568D01*
X134843639Y-84091854D01*
X134874434Y-84071277D01*
X135217025Y-83596630D01*
X132800000Y-81179605D01*
X130382975Y-83596630D01*
X115456000Y-83596630D01*
X115456000Y-78849041D01*
X125108086Y-78849041D01*
X125347611Y-79355134D01*
X125762577Y-79731041D01*
X126150961Y-79891904D01*
X126372998Y-79769916D01*
X126372998Y-79859000D01*
X126265085Y-79859000D01*
X125831017Y-80038797D01*
X125498797Y-80371017D01*
X125319000Y-80805085D01*
X125319000Y-81274915D01*
X125498797Y-81708983D01*
X125831017Y-82041203D01*
X126265085Y-82221000D01*
X126734915Y-82221000D01*
X127168983Y-82041203D01*
X127501203Y-81708983D01*
X127502904Y-81704875D01*
X129161432Y-81704875D01*
X129708146Y-83043639D01*
X129728723Y-83074434D01*
X130203370Y-83417025D01*
X132620395Y-81000000D01*
X132979605Y-81000000D01*
X135396630Y-83417025D01*
X135871277Y-83074434D01*
X136431342Y-81741200D01*
X136438406Y-80327477D01*
X136619000Y-80327477D01*
X136619000Y-81672523D01*
X137133726Y-82915183D01*
X138084817Y-83866274D01*
X139327477Y-84381000D01*
X140672523Y-84381000D01*
X141915183Y-83866274D01*
X142866274Y-82915183D01*
X143381000Y-81672523D01*
X143381000Y-80327477D01*
X143286777Y-80100000D01*
X146211536Y-80100000D01*
X146211536Y-81900000D01*
X146241106Y-82048659D01*
X146325314Y-82174686D01*
X146451341Y-82258894D01*
X146600000Y-82288464D01*
X148400000Y-82288464D01*
X148548659Y-82258894D01*
X148674686Y-82174686D01*
X148758894Y-82048659D01*
X148788464Y-81900000D01*
X148788464Y-81862654D01*
X149132424Y-82237966D01*
X149675258Y-82491046D01*
X149913000Y-82370997D01*
X149913000Y-81127000D01*
X149893000Y-81127000D01*
X149893000Y-80873000D01*
X149913000Y-80873000D01*
X149913000Y-79629003D01*
X150167000Y-79629003D01*
X150167000Y-80873000D01*
X150187000Y-80873000D01*
X150187000Y-81127000D01*
X150167000Y-81127000D01*
X150167000Y-82370997D01*
X150404742Y-82491046D01*
X150947576Y-82237966D01*
X151352240Y-81796417D01*
X151436146Y-81593839D01*
X151656451Y-81923549D01*
X152080179Y-82206675D01*
X152453834Y-82281000D01*
X152706166Y-82281000D01*
X153079821Y-82206675D01*
X153377540Y-82007745D01*
X156171861Y-82007745D01*
X156245995Y-82253864D01*
X156783223Y-82446965D01*
X157353454Y-82419778D01*
X157754005Y-82253864D01*
X157828139Y-82007745D01*
X157000000Y-81179605D01*
X156171861Y-82007745D01*
X153377540Y-82007745D01*
X153503549Y-81923549D01*
X153786675Y-81499821D01*
X153886096Y-81000000D01*
X153842977Y-80783223D01*
X155553035Y-80783223D01*
X155580222Y-81353454D01*
X155746136Y-81754005D01*
X155992255Y-81828139D01*
X156820395Y-81000000D01*
X157179605Y-81000000D01*
X158007745Y-81828139D01*
X158253864Y-81754005D01*
X158311536Y-81593555D01*
X158311536Y-81800000D01*
X158341106Y-81948659D01*
X158425314Y-82074686D01*
X158551341Y-82158894D01*
X158700000Y-82188464D01*
X160300000Y-82188464D01*
X160448659Y-82158894D01*
X160574686Y-82074686D01*
X160658894Y-81948659D01*
X160688464Y-81800000D01*
X160688464Y-80200000D01*
X160658894Y-80051341D01*
X160574686Y-79925314D01*
X160448659Y-79841106D01*
X160300000Y-79811536D01*
X158700000Y-79811536D01*
X158551341Y-79841106D01*
X158425314Y-79925314D01*
X158341106Y-80051341D01*
X158311536Y-80200000D01*
X158311536Y-80385227D01*
X158253864Y-80245995D01*
X158007745Y-80171861D01*
X157179605Y-81000000D01*
X156820395Y-81000000D01*
X155992255Y-80171861D01*
X155746136Y-80245995D01*
X155553035Y-80783223D01*
X153842977Y-80783223D01*
X153786675Y-80500179D01*
X153503549Y-80076451D01*
X153377541Y-79992255D01*
X156171861Y-79992255D01*
X157000000Y-80820395D01*
X157828139Y-79992255D01*
X157754005Y-79746136D01*
X157500539Y-79655030D01*
X162869000Y-79655030D01*
X162869000Y-80104970D01*
X163041184Y-80520660D01*
X163359340Y-80838816D01*
X163775030Y-81011000D01*
X164224970Y-81011000D01*
X164640660Y-80838816D01*
X164958816Y-80520660D01*
X165131000Y-80104970D01*
X165131000Y-79655030D01*
X164958816Y-79239340D01*
X164640660Y-78921184D01*
X164224970Y-78749000D01*
X163775030Y-78749000D01*
X163359340Y-78921184D01*
X163041184Y-79239340D01*
X162869000Y-79655030D01*
X157500539Y-79655030D01*
X157216777Y-79553035D01*
X156646546Y-79580222D01*
X156245995Y-79746136D01*
X156171861Y-79992255D01*
X153377541Y-79992255D01*
X153079821Y-79793325D01*
X152706166Y-79719000D01*
X152453834Y-79719000D01*
X152080179Y-79793325D01*
X151656451Y-80076451D01*
X151436146Y-80406161D01*
X151352240Y-80203583D01*
X150947576Y-79762034D01*
X150404742Y-79508954D01*
X150167000Y-79629003D01*
X149913000Y-79629003D01*
X149675258Y-79508954D01*
X149132424Y-79762034D01*
X148788464Y-80137346D01*
X148788464Y-80100000D01*
X148758894Y-79951341D01*
X148674686Y-79825314D01*
X148548659Y-79741106D01*
X148400000Y-79711536D01*
X146600000Y-79711536D01*
X146451341Y-79741106D01*
X146325314Y-79825314D01*
X146241106Y-79951341D01*
X146211536Y-80100000D01*
X143286777Y-80100000D01*
X142866274Y-79084817D01*
X141915183Y-78133726D01*
X140672523Y-77619000D01*
X139327477Y-77619000D01*
X138084817Y-78133726D01*
X137133726Y-79084817D01*
X136619000Y-80327477D01*
X136438406Y-80327477D01*
X136438568Y-80295125D01*
X135891854Y-78956361D01*
X135871277Y-78925566D01*
X135396630Y-78582975D01*
X132979605Y-81000000D01*
X132620395Y-81000000D01*
X130203370Y-78582975D01*
X129728723Y-78925566D01*
X129168658Y-80258800D01*
X129161432Y-81704875D01*
X127502904Y-81704875D01*
X127681000Y-81274915D01*
X127681000Y-80805085D01*
X127501203Y-80371017D01*
X127168983Y-80038797D01*
X126734915Y-79859000D01*
X126627002Y-79859000D01*
X126627002Y-79769916D01*
X126849039Y-79891904D01*
X127237423Y-79731041D01*
X127652389Y-79355134D01*
X127891914Y-78849041D01*
X127770629Y-78627000D01*
X126627000Y-78627000D01*
X126627000Y-78647000D01*
X126373000Y-78647000D01*
X126373000Y-78627000D01*
X125229371Y-78627000D01*
X125108086Y-78849041D01*
X115456000Y-78849041D01*
X115456000Y-78403370D01*
X130382975Y-78403370D01*
X132800000Y-80820395D01*
X135217025Y-78403370D01*
X134874434Y-77928723D01*
X133541200Y-77368658D01*
X132095125Y-77361432D01*
X130756361Y-77908146D01*
X130725566Y-77928723D01*
X130382975Y-78403370D01*
X115456000Y-78403370D01*
X115456000Y-78150959D01*
X125108086Y-78150959D01*
X125229371Y-78373000D01*
X126373000Y-78373000D01*
X126373000Y-77230085D01*
X126627000Y-77230085D01*
X126627000Y-78373000D01*
X127770629Y-78373000D01*
X127891914Y-78150959D01*
X127652389Y-77644866D01*
X127237423Y-77268959D01*
X126849039Y-77108096D01*
X126627000Y-77230085D01*
X126373000Y-77230085D01*
X126150961Y-77108096D01*
X125762577Y-77268959D01*
X125347611Y-77644866D01*
X125108086Y-78150959D01*
X115456000Y-78150959D01*
X115456000Y-74605955D01*
X118019000Y-74605955D01*
X118019000Y-75394045D01*
X118320589Y-76122146D01*
X118877854Y-76679411D01*
X119605955Y-76981000D01*
X120394045Y-76981000D01*
X121122146Y-76679411D01*
X121679411Y-76122146D01*
X121981000Y-75394045D01*
X121981000Y-74605955D01*
X121679411Y-73877854D01*
X121501557Y-73700000D01*
X126311536Y-73700000D01*
X126311536Y-75300000D01*
X126341106Y-75448659D01*
X126425314Y-75574686D01*
X126551341Y-75658894D01*
X126700000Y-75688464D01*
X128300000Y-75688464D01*
X128448659Y-75658894D01*
X128574686Y-75574686D01*
X128658894Y-75448659D01*
X128688464Y-75300000D01*
X128688464Y-73700000D01*
X132311536Y-73700000D01*
X132311536Y-75300000D01*
X132341106Y-75448659D01*
X132425314Y-75574686D01*
X132551341Y-75658894D01*
X132700000Y-75688464D01*
X134300000Y-75688464D01*
X134448659Y-75658894D01*
X134574686Y-75574686D01*
X134658894Y-75448659D01*
X134688464Y-75300000D01*
X134688464Y-73700000D01*
X138311536Y-73700000D01*
X138311536Y-75300000D01*
X138341106Y-75448659D01*
X138425314Y-75574686D01*
X138551341Y-75658894D01*
X138700000Y-75688464D01*
X140300000Y-75688464D01*
X140448659Y-75658894D01*
X140574686Y-75574686D01*
X140658894Y-75448659D01*
X140688464Y-75300000D01*
X140688464Y-73700000D01*
X144311536Y-73700000D01*
X144311536Y-75300000D01*
X144341106Y-75448659D01*
X144425314Y-75574686D01*
X144551341Y-75658894D01*
X144700000Y-75688464D01*
X146300000Y-75688464D01*
X146448659Y-75658894D01*
X146574686Y-75574686D01*
X146658894Y-75448659D01*
X146688464Y-75300000D01*
X146688464Y-75200000D01*
X150311536Y-75200000D01*
X150311536Y-76800000D01*
X150341106Y-76948659D01*
X150425314Y-77074686D01*
X150551341Y-77158894D01*
X150700000Y-77188464D01*
X152300000Y-77188464D01*
X152448659Y-77158894D01*
X152574686Y-77074686D01*
X152658894Y-76948659D01*
X152688464Y-76800000D01*
X152688464Y-76007745D01*
X156171861Y-76007745D01*
X156245995Y-76253864D01*
X156783223Y-76446965D01*
X157353454Y-76419778D01*
X157754005Y-76253864D01*
X157828139Y-76007745D01*
X157000000Y-75179605D01*
X156171861Y-76007745D01*
X152688464Y-76007745D01*
X152688464Y-75200000D01*
X152658894Y-75051341D01*
X152574686Y-74925314D01*
X152448659Y-74841106D01*
X152300000Y-74811536D01*
X152114773Y-74811536D01*
X152183126Y-74783223D01*
X155553035Y-74783223D01*
X155580222Y-75353454D01*
X155746136Y-75754005D01*
X155992255Y-75828139D01*
X156820395Y-75000000D01*
X157179605Y-75000000D01*
X158007745Y-75828139D01*
X158253864Y-75754005D01*
X158311536Y-75593555D01*
X158311536Y-75800000D01*
X158341106Y-75948659D01*
X158425314Y-76074686D01*
X158551341Y-76158894D01*
X158700000Y-76188464D01*
X160300000Y-76188464D01*
X160448659Y-76158894D01*
X160574686Y-76074686D01*
X160658894Y-75948659D01*
X160688464Y-75800000D01*
X160688464Y-74775030D01*
X162869000Y-74775030D01*
X162869000Y-75224970D01*
X163041184Y-75640660D01*
X163359340Y-75958816D01*
X163775030Y-76131000D01*
X164224970Y-76131000D01*
X164640660Y-75958816D01*
X164958816Y-75640660D01*
X165131000Y-75224970D01*
X165131000Y-74775030D01*
X164958816Y-74359340D01*
X164640660Y-74041184D01*
X164224970Y-73869000D01*
X163775030Y-73869000D01*
X163359340Y-74041184D01*
X163041184Y-74359340D01*
X162869000Y-74775030D01*
X160688464Y-74775030D01*
X160688464Y-74200000D01*
X160658894Y-74051341D01*
X160574686Y-73925314D01*
X160448659Y-73841106D01*
X160300000Y-73811536D01*
X158700000Y-73811536D01*
X158551341Y-73841106D01*
X158425314Y-73925314D01*
X158341106Y-74051341D01*
X158311536Y-74200000D01*
X158311536Y-74385227D01*
X158253864Y-74245995D01*
X158007745Y-74171861D01*
X157179605Y-75000000D01*
X156820395Y-75000000D01*
X155992255Y-74171861D01*
X155746136Y-74245995D01*
X155553035Y-74783223D01*
X152183126Y-74783223D01*
X152254005Y-74753864D01*
X152328139Y-74507745D01*
X151500000Y-73679605D01*
X150671861Y-74507745D01*
X150745995Y-74753864D01*
X150906445Y-74811536D01*
X150700000Y-74811536D01*
X150551341Y-74841106D01*
X150425314Y-74925314D01*
X150341106Y-75051341D01*
X150311536Y-75200000D01*
X146688464Y-75200000D01*
X146688464Y-73700000D01*
X146658894Y-73551341D01*
X146574686Y-73425314D01*
X146448659Y-73341106D01*
X146300000Y-73311536D01*
X146114773Y-73311536D01*
X146183126Y-73283223D01*
X150053035Y-73283223D01*
X150080222Y-73853454D01*
X150246136Y-74254005D01*
X150492255Y-74328139D01*
X151320395Y-73500000D01*
X151679605Y-73500000D01*
X152507745Y-74328139D01*
X152753864Y-74254005D01*
X152847947Y-73992255D01*
X156171861Y-73992255D01*
X157000000Y-74820395D01*
X157828139Y-73992255D01*
X157754005Y-73746136D01*
X157216777Y-73553035D01*
X156646546Y-73580222D01*
X156245995Y-73746136D01*
X156171861Y-73992255D01*
X152847947Y-73992255D01*
X152946965Y-73716777D01*
X152919778Y-73146546D01*
X152753864Y-72745995D01*
X152507745Y-72671861D01*
X151679605Y-73500000D01*
X151320395Y-73500000D01*
X150492255Y-72671861D01*
X150246136Y-72745995D01*
X150053035Y-73283223D01*
X146183126Y-73283223D01*
X146254005Y-73253864D01*
X146328139Y-73007745D01*
X145500000Y-72179605D01*
X144671861Y-73007745D01*
X144745995Y-73253864D01*
X144906445Y-73311536D01*
X144700000Y-73311536D01*
X144551341Y-73341106D01*
X144425314Y-73425314D01*
X144341106Y-73551341D01*
X144311536Y-73700000D01*
X140688464Y-73700000D01*
X140658894Y-73551341D01*
X140574686Y-73425314D01*
X140448659Y-73341106D01*
X140300000Y-73311536D01*
X140114773Y-73311536D01*
X140254005Y-73253864D01*
X140328139Y-73007745D01*
X139500000Y-72179605D01*
X138671861Y-73007745D01*
X138745995Y-73253864D01*
X138906445Y-73311536D01*
X138700000Y-73311536D01*
X138551341Y-73341106D01*
X138425314Y-73425314D01*
X138341106Y-73551341D01*
X138311536Y-73700000D01*
X134688464Y-73700000D01*
X134658894Y-73551341D01*
X134574686Y-73425314D01*
X134448659Y-73341106D01*
X134300000Y-73311536D01*
X134114773Y-73311536D01*
X134254005Y-73253864D01*
X134328139Y-73007745D01*
X133500000Y-72179605D01*
X132671861Y-73007745D01*
X132745995Y-73253864D01*
X132906445Y-73311536D01*
X132700000Y-73311536D01*
X132551341Y-73341106D01*
X132425314Y-73425314D01*
X132341106Y-73551341D01*
X132311536Y-73700000D01*
X128688464Y-73700000D01*
X128658894Y-73551341D01*
X128574686Y-73425314D01*
X128448659Y-73341106D01*
X128300000Y-73311536D01*
X128114773Y-73311536D01*
X128254005Y-73253864D01*
X128328139Y-73007745D01*
X127500000Y-72179605D01*
X126671861Y-73007745D01*
X126745995Y-73253864D01*
X126906445Y-73311536D01*
X126700000Y-73311536D01*
X126551341Y-73341106D01*
X126425314Y-73425314D01*
X126341106Y-73551341D01*
X126311536Y-73700000D01*
X121501557Y-73700000D01*
X121122146Y-73320589D01*
X120394045Y-73019000D01*
X119605955Y-73019000D01*
X118877854Y-73320589D01*
X118320589Y-73877854D01*
X118019000Y-74605955D01*
X115456000Y-74605955D01*
X115456000Y-71783223D01*
X126053035Y-71783223D01*
X126080222Y-72353454D01*
X126246136Y-72754005D01*
X126492255Y-72828139D01*
X127320395Y-72000000D01*
X127679605Y-72000000D01*
X128507745Y-72828139D01*
X128753864Y-72754005D01*
X128946965Y-72216777D01*
X128926295Y-71783223D01*
X132053035Y-71783223D01*
X132080222Y-72353454D01*
X132246136Y-72754005D01*
X132492255Y-72828139D01*
X133320395Y-72000000D01*
X133679605Y-72000000D01*
X134507745Y-72828139D01*
X134753864Y-72754005D01*
X134946965Y-72216777D01*
X134926295Y-71783223D01*
X138053035Y-71783223D01*
X138080222Y-72353454D01*
X138246136Y-72754005D01*
X138492255Y-72828139D01*
X139320395Y-72000000D01*
X139679605Y-72000000D01*
X140507745Y-72828139D01*
X140753864Y-72754005D01*
X140946965Y-72216777D01*
X140926295Y-71783223D01*
X144053035Y-71783223D01*
X144080222Y-72353454D01*
X144246136Y-72754005D01*
X144492255Y-72828139D01*
X145320395Y-72000000D01*
X145679605Y-72000000D01*
X146507745Y-72828139D01*
X146753864Y-72754005D01*
X146847947Y-72492255D01*
X150671861Y-72492255D01*
X151500000Y-73320395D01*
X152328139Y-72492255D01*
X152254005Y-72246136D01*
X151716777Y-72053035D01*
X151146546Y-72080222D01*
X150745995Y-72246136D01*
X150671861Y-72492255D01*
X146847947Y-72492255D01*
X146946965Y-72216777D01*
X146919778Y-71646546D01*
X146753864Y-71245995D01*
X146507745Y-71171861D01*
X145679605Y-72000000D01*
X145320395Y-72000000D01*
X144492255Y-71171861D01*
X144246136Y-71245995D01*
X144053035Y-71783223D01*
X140926295Y-71783223D01*
X140919778Y-71646546D01*
X140753864Y-71245995D01*
X140507745Y-71171861D01*
X139679605Y-72000000D01*
X139320395Y-72000000D01*
X138492255Y-71171861D01*
X138246136Y-71245995D01*
X138053035Y-71783223D01*
X134926295Y-71783223D01*
X134919778Y-71646546D01*
X134753864Y-71245995D01*
X134507745Y-71171861D01*
X133679605Y-72000000D01*
X133320395Y-72000000D01*
X132492255Y-71171861D01*
X132246136Y-71245995D01*
X132053035Y-71783223D01*
X128926295Y-71783223D01*
X128919778Y-71646546D01*
X128753864Y-71245995D01*
X128507745Y-71171861D01*
X127679605Y-72000000D01*
X127320395Y-72000000D01*
X126492255Y-71171861D01*
X126246136Y-71245995D01*
X126053035Y-71783223D01*
X115456000Y-71783223D01*
X115456000Y-70992255D01*
X126671861Y-70992255D01*
X127500000Y-71820395D01*
X128328139Y-70992255D01*
X132671861Y-70992255D01*
X133500000Y-71820395D01*
X134328139Y-70992255D01*
X138671861Y-70992255D01*
X139500000Y-71820395D01*
X140328139Y-70992255D01*
X144671861Y-70992255D01*
X145500000Y-71820395D01*
X146328139Y-70992255D01*
X146254005Y-70746136D01*
X145716777Y-70553035D01*
X145146546Y-70580222D01*
X144745995Y-70746136D01*
X144671861Y-70992255D01*
X140328139Y-70992255D01*
X140254005Y-70746136D01*
X139716777Y-70553035D01*
X139146546Y-70580222D01*
X138745995Y-70746136D01*
X138671861Y-70992255D01*
X134328139Y-70992255D01*
X134254005Y-70746136D01*
X133716777Y-70553035D01*
X133146546Y-70580222D01*
X132745995Y-70746136D01*
X132671861Y-70992255D01*
X128328139Y-70992255D01*
X128254005Y-70746136D01*
X127716777Y-70553035D01*
X127146546Y-70580222D01*
X126745995Y-70746136D01*
X126671861Y-70992255D01*
X115456000Y-70992255D01*
X115456000Y-70456000D01*
X172816709Y-70456000D01*
X172783168Y-70478411D01*
G36*
X178027522Y-74539197D02*
X177935863Y-75000000D01*
X178027522Y-75460803D01*
X178288547Y-75851453D01*
X178679197Y-76112478D01*
X179023682Y-76181000D01*
X179256318Y-76181000D01*
X179600803Y-76112478D01*
X179991453Y-75851453D01*
X180252478Y-75460803D01*
X180344137Y-75000000D01*
X180252478Y-74539197D01*
X180146773Y-74380999D01*
X180673227Y-74380999D01*
X180567522Y-74539197D01*
X180475863Y-75000000D01*
X180567522Y-75460803D01*
X180828547Y-75851453D01*
X181219197Y-76112478D01*
X181563682Y-76181000D01*
X181796318Y-76181000D01*
X182140803Y-76112478D01*
X182531453Y-75851453D01*
X182792478Y-75460803D01*
X182858875Y-75127002D01*
X182949370Y-75127002D01*
X182828086Y-75349041D01*
X183067611Y-75855134D01*
X183482577Y-76231041D01*
X183870961Y-76391904D01*
X184093000Y-76269915D01*
X184093000Y-75127000D01*
X184073000Y-75127000D01*
X184073000Y-74873000D01*
X184093000Y-74873000D01*
X184093000Y-74853000D01*
X184347000Y-74853000D01*
X184347000Y-74873000D01*
X184367000Y-74873000D01*
X184367000Y-75127000D01*
X184347000Y-75127000D01*
X184347000Y-76269915D01*
X184569039Y-76391904D01*
X184957423Y-76231041D01*
X185372389Y-75855134D01*
X185611914Y-75349041D01*
X185490630Y-75127002D01*
X185581125Y-75127002D01*
X185647522Y-75460803D01*
X185908547Y-75851453D01*
X186299197Y-76112478D01*
X186643682Y-76181000D01*
X186876318Y-76181000D01*
X187220803Y-76112478D01*
X187611453Y-75851453D01*
X187872478Y-75460803D01*
X187964137Y-75000000D01*
X187872478Y-74539197D01*
X187766773Y-74380999D01*
X188293227Y-74380999D01*
X188187522Y-74539197D01*
X188095863Y-75000000D01*
X188187522Y-75460803D01*
X188448547Y-75851453D01*
X188839197Y-76112478D01*
X189183682Y-76181000D01*
X189416318Y-76181000D01*
X189760803Y-76112478D01*
X190151453Y-75851453D01*
X190412478Y-75460803D01*
X190504137Y-75000000D01*
X190412478Y-74539197D01*
X190306773Y-74380999D01*
X190833227Y-74380999D01*
X190727522Y-74539197D01*
X190635863Y-75000000D01*
X190727522Y-75460803D01*
X190988547Y-75851453D01*
X191379197Y-76112478D01*
X191723682Y-76181000D01*
X191956318Y-76181000D01*
X192300803Y-76112478D01*
X192691453Y-75851453D01*
X192952478Y-75460803D01*
X193044137Y-75000000D01*
X192952478Y-74539197D01*
X192846773Y-74380999D01*
X193373227Y-74380999D01*
X193267522Y-74539197D01*
X193175863Y-75000000D01*
X193267522Y-75460803D01*
X193528547Y-75851453D01*
X193919197Y-76112478D01*
X194263682Y-76181000D01*
X194496318Y-76181000D01*
X194840803Y-76112478D01*
X195231453Y-75851453D01*
X195492478Y-75460803D01*
X195584137Y-75000000D01*
X195492478Y-74539197D01*
X195386773Y-74380999D01*
X195913227Y-74380999D01*
X195807522Y-74539197D01*
X195715863Y-75000000D01*
X195807522Y-75460803D01*
X196068547Y-75851453D01*
X196459197Y-76112478D01*
X196803682Y-76181000D01*
X197036318Y-76181000D01*
X197380803Y-76112478D01*
X197771453Y-75851453D01*
X198032478Y-75460803D01*
X198124137Y-75000000D01*
X198032478Y-74539197D01*
X197926773Y-74380999D01*
X198453227Y-74380999D01*
X198347522Y-74539197D01*
X198255863Y-75000000D01*
X198347522Y-75460803D01*
X198608547Y-75851453D01*
X198999197Y-76112478D01*
X199343682Y-76181000D01*
X199576318Y-76181000D01*
X199920803Y-76112478D01*
X200311453Y-75851453D01*
X200572478Y-75460803D01*
X200664137Y-75000000D01*
X200572478Y-74539197D01*
X200466773Y-74380999D01*
X200811536Y-74380999D01*
X200811536Y-75800000D01*
X200841106Y-75948659D01*
X200925314Y-76074686D01*
X201051341Y-76158894D01*
X201200000Y-76188464D01*
X201508795Y-76188464D01*
X201521475Y-76252211D01*
X201633753Y-76420247D01*
X201676168Y-76448588D01*
X202619002Y-77391423D01*
X202619001Y-81613227D01*
X202460803Y-81507522D01*
X202116318Y-81439000D01*
X201883682Y-81439000D01*
X201539197Y-81507522D01*
X201148547Y-81768547D01*
X200887522Y-82159197D01*
X200795863Y-82620000D01*
X200887522Y-83080803D01*
X201148547Y-83471453D01*
X201539197Y-83732478D01*
X201787644Y-83781897D01*
X200869864Y-84699678D01*
X200668983Y-84498797D01*
X200234915Y-84319000D01*
X199765085Y-84319000D01*
X199331017Y-84498797D01*
X198998797Y-84831017D01*
X198819000Y-85265085D01*
X198819000Y-85734915D01*
X198998797Y-86168983D01*
X199331017Y-86501203D01*
X199765085Y-86681000D01*
X200234915Y-86681000D01*
X200619002Y-86521906D01*
X200619001Y-88744000D01*
X200250166Y-88744000D01*
X199788533Y-88935215D01*
X199435215Y-89288533D01*
X199393736Y-89388671D01*
X199315953Y-89200884D01*
X199062060Y-89117545D01*
X198179605Y-90000000D01*
X199062060Y-90882455D01*
X199315953Y-90799116D01*
X199388753Y-90599298D01*
X199435215Y-90711467D01*
X199788533Y-91064785D01*
X200250166Y-91256000D01*
X200304542Y-91256000D01*
X199891541Y-91669001D01*
X168852203Y-91669001D01*
X168981476Y-91356890D01*
X168860155Y-91127000D01*
X167667000Y-91127000D01*
X167667000Y-91147000D01*
X167413000Y-91147000D01*
X167413000Y-91127000D01*
X167393000Y-91127000D01*
X167393000Y-90873000D01*
X167413000Y-90873000D01*
X167413000Y-90853000D01*
X167667000Y-90853000D01*
X167667000Y-90873000D01*
X168860155Y-90873000D01*
X168981476Y-90643110D01*
X168833462Y-90285750D01*
X171490000Y-90285750D01*
X171490000Y-91001310D01*
X171586673Y-91234699D01*
X171765302Y-91413327D01*
X171998691Y-91510000D01*
X172714250Y-91510000D01*
X172873000Y-91351250D01*
X172873000Y-90127000D01*
X171648750Y-90127000D01*
X171490000Y-90285750D01*
X168833462Y-90285750D01*
X168811645Y-90233076D01*
X168731379Y-90145001D01*
X170480933Y-90145001D01*
X170530961Y-90154952D01*
X170580989Y-90145001D01*
X170580993Y-90145001D01*
X170729173Y-90115526D01*
X170897208Y-90003248D01*
X170925549Y-89960833D01*
X171490000Y-89396382D01*
X171490000Y-89714250D01*
X171648750Y-89873000D01*
X172873000Y-89873000D01*
X172873000Y-88648750D01*
X172714250Y-88490000D01*
X172396382Y-88490000D01*
X174627016Y-86259366D01*
X174688547Y-86351453D01*
X175032000Y-86580942D01*
X175032001Y-88834367D01*
X174788533Y-88935215D01*
X174510000Y-89213748D01*
X174510000Y-88998690D01*
X174413327Y-88765301D01*
X174234698Y-88586673D01*
X174001309Y-88490000D01*
X173285750Y-88490000D01*
X173127000Y-88648750D01*
X173127000Y-89873000D01*
X173147000Y-89873000D01*
X173147000Y-90127000D01*
X173127000Y-90127000D01*
X173127000Y-91351250D01*
X173285750Y-91510000D01*
X174001309Y-91510000D01*
X174234698Y-91413327D01*
X174413327Y-91234699D01*
X174510000Y-91001310D01*
X174510000Y-90786252D01*
X174788533Y-91064785D01*
X175250166Y-91256000D01*
X175749834Y-91256000D01*
X176211467Y-91064785D01*
X176214192Y-91062060D01*
X177117545Y-91062060D01*
X177200884Y-91315953D01*
X177765306Y-91521590D01*
X178365458Y-91495579D01*
X178799116Y-91315953D01*
X178882455Y-91062060D01*
X178000000Y-90179605D01*
X177117545Y-91062060D01*
X176214192Y-91062060D01*
X176564785Y-90711467D01*
X176606264Y-90611329D01*
X176684047Y-90799116D01*
X176937940Y-90882455D01*
X177820395Y-90000000D01*
X178179605Y-90000000D01*
X179062060Y-90882455D01*
X179315953Y-90799116D01*
X179388753Y-90599298D01*
X179435215Y-90711467D01*
X179788533Y-91064785D01*
X180250166Y-91256000D01*
X180749834Y-91256000D01*
X181211467Y-91064785D01*
X181564785Y-90711467D01*
X181741123Y-90285750D01*
X186490000Y-90285750D01*
X186490000Y-91001310D01*
X186586673Y-91234699D01*
X186765302Y-91413327D01*
X186998691Y-91510000D01*
X187714250Y-91510000D01*
X187873000Y-91351250D01*
X187873000Y-90127000D01*
X186648750Y-90127000D01*
X186490000Y-90285750D01*
X181741123Y-90285750D01*
X181756000Y-90249834D01*
X181756000Y-89750166D01*
X181564785Y-89288533D01*
X181211467Y-88935215D01*
X180749834Y-88744000D01*
X180250166Y-88744000D01*
X179788533Y-88935215D01*
X179435215Y-89288533D01*
X179393736Y-89388671D01*
X179315953Y-89200884D01*
X179062060Y-89117545D01*
X178179605Y-90000000D01*
X177820395Y-90000000D01*
X176937940Y-89117545D01*
X176684047Y-89200884D01*
X176611247Y-89400702D01*
X176564785Y-89288533D01*
X176214192Y-88937940D01*
X177117545Y-88937940D01*
X178000000Y-89820395D01*
X178882455Y-88937940D01*
X178799116Y-88684047D01*
X178234694Y-88478410D01*
X177634542Y-88504421D01*
X177200884Y-88684047D01*
X177117545Y-88937940D01*
X176214192Y-88937940D01*
X176211467Y-88935215D01*
X176048000Y-88867505D01*
X176048000Y-86580942D01*
X176391453Y-86351453D01*
X176652478Y-85960803D01*
X176744137Y-85500000D01*
X176652478Y-85039197D01*
X176546773Y-84880999D01*
X177336973Y-84880999D01*
X177387001Y-84890950D01*
X177437029Y-84880999D01*
X177437033Y-84880999D01*
X177481781Y-84872098D01*
X177319000Y-85265085D01*
X177319000Y-85734915D01*
X177498797Y-86168983D01*
X177831017Y-86501203D01*
X178265085Y-86681000D01*
X178734915Y-86681000D01*
X179168983Y-86501203D01*
X179433900Y-86236286D01*
X179434474Y-86239172D01*
X179546752Y-86407208D01*
X179589167Y-86435549D01*
X182227452Y-89073835D01*
X182255791Y-89116247D01*
X182298203Y-89144586D01*
X182298205Y-89144588D01*
X182402516Y-89214286D01*
X182423826Y-89228525D01*
X182572006Y-89258000D01*
X182572010Y-89258000D01*
X182622038Y-89267951D01*
X182672066Y-89258000D01*
X183930370Y-89258000D01*
X184068362Y-89395992D01*
X184348429Y-89512000D01*
X184651571Y-89512000D01*
X184931638Y-89395992D01*
X185145992Y-89181638D01*
X185221771Y-88998690D01*
X186490000Y-88998690D01*
X186490000Y-89714250D01*
X186648750Y-89873000D01*
X187873000Y-89873000D01*
X187873000Y-88648750D01*
X188127000Y-88648750D01*
X188127000Y-89873000D01*
X188147000Y-89873000D01*
X188147000Y-90127000D01*
X188127000Y-90127000D01*
X188127000Y-91351250D01*
X188285750Y-91510000D01*
X189001309Y-91510000D01*
X189234698Y-91413327D01*
X189413327Y-91234699D01*
X189510000Y-91001310D01*
X189510000Y-90786252D01*
X189788533Y-91064785D01*
X190250166Y-91256000D01*
X190749834Y-91256000D01*
X191211467Y-91064785D01*
X191214192Y-91062060D01*
X192117545Y-91062060D01*
X192200884Y-91315953D01*
X192765306Y-91521590D01*
X193365458Y-91495579D01*
X193799116Y-91315953D01*
X193882455Y-91062060D01*
X193000000Y-90179605D01*
X192117545Y-91062060D01*
X191214192Y-91062060D01*
X191564785Y-90711467D01*
X191606264Y-90611329D01*
X191684047Y-90799116D01*
X191937940Y-90882455D01*
X192820395Y-90000000D01*
X193179605Y-90000000D01*
X194062060Y-90882455D01*
X194315953Y-90799116D01*
X194388753Y-90599298D01*
X194435215Y-90711467D01*
X194788533Y-91064785D01*
X195250166Y-91256000D01*
X195749834Y-91256000D01*
X196211467Y-91064785D01*
X196214192Y-91062060D01*
X197117545Y-91062060D01*
X197200884Y-91315953D01*
X197765306Y-91521590D01*
X198365458Y-91495579D01*
X198799116Y-91315953D01*
X198882455Y-91062060D01*
X198000000Y-90179605D01*
X197117545Y-91062060D01*
X196214192Y-91062060D01*
X196564785Y-90711467D01*
X196606264Y-90611329D01*
X196684047Y-90799116D01*
X196937940Y-90882455D01*
X197820395Y-90000000D01*
X196937940Y-89117545D01*
X196684047Y-89200884D01*
X196611247Y-89400702D01*
X196564785Y-89288533D01*
X196214192Y-88937940D01*
X197117545Y-88937940D01*
X198000000Y-89820395D01*
X198882455Y-88937940D01*
X198799116Y-88684047D01*
X198234694Y-88478410D01*
X197634542Y-88504421D01*
X197200884Y-88684047D01*
X197117545Y-88937940D01*
X196214192Y-88937940D01*
X196211467Y-88935215D01*
X195749834Y-88744000D01*
X195250166Y-88744000D01*
X194788533Y-88935215D01*
X194435215Y-89288533D01*
X194393736Y-89388671D01*
X194315953Y-89200884D01*
X194062060Y-89117545D01*
X193179605Y-90000000D01*
X192820395Y-90000000D01*
X191937940Y-89117545D01*
X191684047Y-89200884D01*
X191611247Y-89400702D01*
X191564785Y-89288533D01*
X191214192Y-88937940D01*
X192117545Y-88937940D01*
X193000000Y-89820395D01*
X193882455Y-88937940D01*
X193799116Y-88684047D01*
X193234694Y-88478410D01*
X192634542Y-88504421D01*
X192200884Y-88684047D01*
X192117545Y-88937940D01*
X191214192Y-88937940D01*
X191211467Y-88935215D01*
X190749834Y-88744000D01*
X190250166Y-88744000D01*
X189788533Y-88935215D01*
X189510000Y-89213748D01*
X189510000Y-88998690D01*
X189413327Y-88765301D01*
X189234698Y-88586673D01*
X189001309Y-88490000D01*
X188285750Y-88490000D01*
X188127000Y-88648750D01*
X187873000Y-88648750D01*
X187714250Y-88490000D01*
X186998691Y-88490000D01*
X186765302Y-88586673D01*
X186586673Y-88765301D01*
X186490000Y-88998690D01*
X185221771Y-88998690D01*
X185262000Y-88901571D01*
X185262000Y-88598429D01*
X185145992Y-88318362D01*
X184931638Y-88104008D01*
X184651571Y-87988000D01*
X184348429Y-87988000D01*
X184068362Y-88104008D01*
X183930370Y-88242000D01*
X182832459Y-88242000D01*
X181252355Y-86661897D01*
X181500803Y-86612478D01*
X181891453Y-86351453D01*
X182152478Y-85960803D01*
X182244137Y-85500000D01*
X182163552Y-85094869D01*
X182419000Y-84839421D01*
X182419000Y-85215024D01*
X182583572Y-85612337D01*
X182887663Y-85916428D01*
X183284976Y-86081000D01*
X183715024Y-86081000D01*
X184066836Y-85935275D01*
X185244331Y-85935275D01*
X185306169Y-86171042D01*
X185807122Y-86347419D01*
X186337440Y-86318664D01*
X186693831Y-86171042D01*
X186755669Y-85935275D01*
X186000000Y-85179605D01*
X185244331Y-85935275D01*
X184066836Y-85935275D01*
X184112337Y-85916428D01*
X184416428Y-85612337D01*
X184581000Y-85215024D01*
X184581000Y-84807122D01*
X184652581Y-84807122D01*
X184681336Y-85337440D01*
X184828958Y-85693831D01*
X185064725Y-85755669D01*
X185820395Y-85000000D01*
X186179605Y-85000000D01*
X186935275Y-85755669D01*
X187171042Y-85693831D01*
X187321996Y-85265085D01*
X187819000Y-85265085D01*
X187819000Y-85734915D01*
X187998797Y-86168983D01*
X188331017Y-86501203D01*
X188765085Y-86681000D01*
X189234915Y-86681000D01*
X189668983Y-86501203D01*
X190001203Y-86168983D01*
X190181000Y-85734915D01*
X190181000Y-85500000D01*
X190335863Y-85500000D01*
X190427522Y-85960803D01*
X190688547Y-86351453D01*
X191079197Y-86612478D01*
X191423682Y-86681000D01*
X191656318Y-86681000D01*
X192000803Y-86612478D01*
X192391453Y-86351453D01*
X192652478Y-85960803D01*
X192744137Y-85500000D01*
X192697410Y-85265085D01*
X193319000Y-85265085D01*
X193319000Y-85734915D01*
X193498797Y-86168983D01*
X193831017Y-86501203D01*
X194265085Y-86681000D01*
X194734915Y-86681000D01*
X195168983Y-86501203D01*
X195501203Y-86168983D01*
X195681000Y-85734915D01*
X195681000Y-85500000D01*
X195835863Y-85500000D01*
X195927522Y-85960803D01*
X196188547Y-86351453D01*
X196579197Y-86612478D01*
X196923682Y-86681000D01*
X197156318Y-86681000D01*
X197500803Y-86612478D01*
X197891453Y-86351453D01*
X198152478Y-85960803D01*
X198244137Y-85500000D01*
X198152478Y-85039197D01*
X197891453Y-84648547D01*
X197500803Y-84387522D01*
X197156318Y-84319000D01*
X196923682Y-84319000D01*
X196579197Y-84387522D01*
X196188547Y-84648547D01*
X195927522Y-85039197D01*
X195835863Y-85500000D01*
X195681000Y-85500000D01*
X195681000Y-85265085D01*
X195501203Y-84831017D01*
X195168983Y-84498797D01*
X194734915Y-84319000D01*
X194265085Y-84319000D01*
X193831017Y-84498797D01*
X193498797Y-84831017D01*
X193319000Y-85265085D01*
X192697410Y-85265085D01*
X192652478Y-85039197D01*
X192391453Y-84648547D01*
X192000803Y-84387522D01*
X191656318Y-84319000D01*
X191423682Y-84319000D01*
X191079197Y-84387522D01*
X190688547Y-84648547D01*
X190427522Y-85039197D01*
X190335863Y-85500000D01*
X190181000Y-85500000D01*
X190181000Y-85265085D01*
X190001203Y-84831017D01*
X189668983Y-84498797D01*
X189234915Y-84319000D01*
X188765085Y-84319000D01*
X188331017Y-84498797D01*
X187998797Y-84831017D01*
X187819000Y-85265085D01*
X187321996Y-85265085D01*
X187347419Y-85192878D01*
X187318664Y-84662560D01*
X187171042Y-84306169D01*
X186935275Y-84244331D01*
X186179605Y-85000000D01*
X185820395Y-85000000D01*
X185064725Y-84244331D01*
X184828958Y-84306169D01*
X184652581Y-84807122D01*
X184581000Y-84807122D01*
X184581000Y-84784976D01*
X184416428Y-84387663D01*
X184112337Y-84083572D01*
X183715024Y-83919000D01*
X183287955Y-83919000D01*
X183295472Y-83881210D01*
X183315001Y-83783031D01*
X183315001Y-83783027D01*
X183324952Y-83732999D01*
X183315001Y-83682971D01*
X183315001Y-83391316D01*
X183368547Y-83471453D01*
X183759197Y-83732478D01*
X184103682Y-83801000D01*
X184336318Y-83801000D01*
X184680803Y-83732478D01*
X185071453Y-83471453D01*
X185332478Y-83080803D01*
X185398875Y-82747002D01*
X185489370Y-82747002D01*
X185368086Y-82969041D01*
X185607611Y-83475134D01*
X185825486Y-83672502D01*
X185662560Y-83681336D01*
X185306169Y-83828958D01*
X185244331Y-84064725D01*
X186000000Y-84820395D01*
X186755669Y-84064725D01*
X186693831Y-83828958D01*
X186633000Y-83807540D01*
X186633000Y-82747000D01*
X186613000Y-82747000D01*
X186613000Y-82493000D01*
X186633000Y-82493000D01*
X186633000Y-81350085D01*
X186887000Y-81350085D01*
X186887000Y-82493000D01*
X186907000Y-82493000D01*
X186907000Y-82747000D01*
X186887000Y-82747000D01*
X186887000Y-83889915D01*
X187109039Y-84011904D01*
X187497423Y-83851041D01*
X187912389Y-83475134D01*
X188151914Y-82969041D01*
X188030630Y-82747002D01*
X188121125Y-82747002D01*
X188187522Y-83080803D01*
X188448547Y-83471453D01*
X188839197Y-83732478D01*
X189183682Y-83801000D01*
X189416318Y-83801000D01*
X189760803Y-83732478D01*
X190151453Y-83471453D01*
X190412478Y-83080803D01*
X190504137Y-82620000D01*
X190635863Y-82620000D01*
X190727522Y-83080803D01*
X190988547Y-83471453D01*
X191379197Y-83732478D01*
X191723682Y-83801000D01*
X191956318Y-83801000D01*
X192300803Y-83732478D01*
X192691453Y-83471453D01*
X192952478Y-83080803D01*
X193044137Y-82620000D01*
X193175863Y-82620000D01*
X193267522Y-83080803D01*
X193528547Y-83471453D01*
X193919197Y-83732478D01*
X194263682Y-83801000D01*
X194496318Y-83801000D01*
X194840803Y-83732478D01*
X195231453Y-83471453D01*
X195492478Y-83080803D01*
X195584137Y-82620000D01*
X195715863Y-82620000D01*
X195807522Y-83080803D01*
X196068547Y-83471453D01*
X196459197Y-83732478D01*
X196803682Y-83801000D01*
X197036318Y-83801000D01*
X197380803Y-83732478D01*
X197771453Y-83471453D01*
X198032478Y-83080803D01*
X198124137Y-82620000D01*
X198255863Y-82620000D01*
X198347522Y-83080803D01*
X198608547Y-83471453D01*
X198999197Y-83732478D01*
X199343682Y-83801000D01*
X199576318Y-83801000D01*
X199920803Y-83732478D01*
X200311453Y-83471453D01*
X200572478Y-83080803D01*
X200664137Y-82620000D01*
X200572478Y-82159197D01*
X200311453Y-81768547D01*
X199920803Y-81507522D01*
X199576318Y-81439000D01*
X199343682Y-81439000D01*
X198999197Y-81507522D01*
X198608547Y-81768547D01*
X198347522Y-82159197D01*
X198255863Y-82620000D01*
X198124137Y-82620000D01*
X198032478Y-82159197D01*
X197771453Y-81768547D01*
X197380803Y-81507522D01*
X197036318Y-81439000D01*
X196803682Y-81439000D01*
X196459197Y-81507522D01*
X196068547Y-81768547D01*
X195807522Y-82159197D01*
X195715863Y-82620000D01*
X195584137Y-82620000D01*
X195492478Y-82159197D01*
X195231453Y-81768547D01*
X194840803Y-81507522D01*
X194496318Y-81439000D01*
X194263682Y-81439000D01*
X193919197Y-81507522D01*
X193528547Y-81768547D01*
X193267522Y-82159197D01*
X193175863Y-82620000D01*
X193044137Y-82620000D01*
X192952478Y-82159197D01*
X192691453Y-81768547D01*
X192300803Y-81507522D01*
X191956318Y-81439000D01*
X191723682Y-81439000D01*
X191379197Y-81507522D01*
X190988547Y-81768547D01*
X190727522Y-82159197D01*
X190635863Y-82620000D01*
X190504137Y-82620000D01*
X190412478Y-82159197D01*
X190151453Y-81768547D01*
X189760803Y-81507522D01*
X189416318Y-81439000D01*
X189183682Y-81439000D01*
X188839197Y-81507522D01*
X188448547Y-81768547D01*
X188187522Y-82159197D01*
X188121125Y-82492998D01*
X188030630Y-82492998D01*
X188151914Y-82270959D01*
X187912389Y-81764866D01*
X187497423Y-81388959D01*
X187109039Y-81228096D01*
X186887000Y-81350085D01*
X186633000Y-81350085D01*
X186410961Y-81228096D01*
X186022577Y-81388959D01*
X185607611Y-81764866D01*
X185368086Y-82270959D01*
X185489370Y-82492998D01*
X185398875Y-82492998D01*
X185332478Y-82159197D01*
X185071453Y-81768547D01*
X184680803Y-81507522D01*
X184336318Y-81439000D01*
X184103682Y-81439000D01*
X183759197Y-81507522D01*
X183368547Y-81768547D01*
X183287361Y-81890050D01*
X183285526Y-81880827D01*
X183229125Y-81796417D01*
X183201589Y-81755206D01*
X183201587Y-81755204D01*
X183173248Y-81712792D01*
X183130837Y-81684454D01*
X177359366Y-75912984D01*
X177451453Y-75851453D01*
X177712478Y-75460803D01*
X177804137Y-75000000D01*
X177712478Y-74539197D01*
X177606773Y-74380999D01*
X178133227Y-74380999D01*
X178027522Y-74539197D01*
X178027522Y-74539197D01*
G37*
X178027522Y-74539197D02*
X177935863Y-75000000D01*
X178027522Y-75460803D01*
X178288547Y-75851453D01*
X178679197Y-76112478D01*
X179023682Y-76181000D01*
X179256318Y-76181000D01*
X179600803Y-76112478D01*
X179991453Y-75851453D01*
X180252478Y-75460803D01*
X180344137Y-75000000D01*
X180252478Y-74539197D01*
X180146773Y-74380999D01*
X180673227Y-74380999D01*
X180567522Y-74539197D01*
X180475863Y-75000000D01*
X180567522Y-75460803D01*
X180828547Y-75851453D01*
X181219197Y-76112478D01*
X181563682Y-76181000D01*
X181796318Y-76181000D01*
X182140803Y-76112478D01*
X182531453Y-75851453D01*
X182792478Y-75460803D01*
X182858875Y-75127002D01*
X182949370Y-75127002D01*
X182828086Y-75349041D01*
X183067611Y-75855134D01*
X183482577Y-76231041D01*
X183870961Y-76391904D01*
X184093000Y-76269915D01*
X184093000Y-75127000D01*
X184073000Y-75127000D01*
X184073000Y-74873000D01*
X184093000Y-74873000D01*
X184093000Y-74853000D01*
X184347000Y-74853000D01*
X184347000Y-74873000D01*
X184367000Y-74873000D01*
X184367000Y-75127000D01*
X184347000Y-75127000D01*
X184347000Y-76269915D01*
X184569039Y-76391904D01*
X184957423Y-76231041D01*
X185372389Y-75855134D01*
X185611914Y-75349041D01*
X185490630Y-75127002D01*
X185581125Y-75127002D01*
X185647522Y-75460803D01*
X185908547Y-75851453D01*
X186299197Y-76112478D01*
X186643682Y-76181000D01*
X186876318Y-76181000D01*
X187220803Y-76112478D01*
X187611453Y-75851453D01*
X187872478Y-75460803D01*
X187964137Y-75000000D01*
X187872478Y-74539197D01*
X187766773Y-74380999D01*
X188293227Y-74380999D01*
X188187522Y-74539197D01*
X188095863Y-75000000D01*
X188187522Y-75460803D01*
X188448547Y-75851453D01*
X188839197Y-76112478D01*
X189183682Y-76181000D01*
X189416318Y-76181000D01*
X189760803Y-76112478D01*
X190151453Y-75851453D01*
X190412478Y-75460803D01*
X190504137Y-75000000D01*
X190412478Y-74539197D01*
X190306773Y-74380999D01*
X190833227Y-74380999D01*
X190727522Y-74539197D01*
X190635863Y-75000000D01*
X190727522Y-75460803D01*
X190988547Y-75851453D01*
X191379197Y-76112478D01*
X191723682Y-76181000D01*
X191956318Y-76181000D01*
X192300803Y-76112478D01*
X192691453Y-75851453D01*
X192952478Y-75460803D01*
X193044137Y-75000000D01*
X192952478Y-74539197D01*
X192846773Y-74380999D01*
X193373227Y-74380999D01*
X193267522Y-74539197D01*
X193175863Y-75000000D01*
X193267522Y-75460803D01*
X193528547Y-75851453D01*
X193919197Y-76112478D01*
X194263682Y-76181000D01*
X194496318Y-76181000D01*
X194840803Y-76112478D01*
X195231453Y-75851453D01*
X195492478Y-75460803D01*
X195584137Y-75000000D01*
X195492478Y-74539197D01*
X195386773Y-74380999D01*
X195913227Y-74380999D01*
X195807522Y-74539197D01*
X195715863Y-75000000D01*
X195807522Y-75460803D01*
X196068547Y-75851453D01*
X196459197Y-76112478D01*
X196803682Y-76181000D01*
X197036318Y-76181000D01*
X197380803Y-76112478D01*
X197771453Y-75851453D01*
X198032478Y-75460803D01*
X198124137Y-75000000D01*
X198032478Y-74539197D01*
X197926773Y-74380999D01*
X198453227Y-74380999D01*
X198347522Y-74539197D01*
X198255863Y-75000000D01*
X198347522Y-75460803D01*
X198608547Y-75851453D01*
X198999197Y-76112478D01*
X199343682Y-76181000D01*
X199576318Y-76181000D01*
X199920803Y-76112478D01*
X200311453Y-75851453D01*
X200572478Y-75460803D01*
X200664137Y-75000000D01*
X200572478Y-74539197D01*
X200466773Y-74380999D01*
X200811536Y-74380999D01*
X200811536Y-75800000D01*
X200841106Y-75948659D01*
X200925314Y-76074686D01*
X201051341Y-76158894D01*
X201200000Y-76188464D01*
X201508795Y-76188464D01*
X201521475Y-76252211D01*
X201633753Y-76420247D01*
X201676168Y-76448588D01*
X202619002Y-77391423D01*
X202619001Y-81613227D01*
X202460803Y-81507522D01*
X202116318Y-81439000D01*
X201883682Y-81439000D01*
X201539197Y-81507522D01*
X201148547Y-81768547D01*
X200887522Y-82159197D01*
X200795863Y-82620000D01*
X200887522Y-83080803D01*
X201148547Y-83471453D01*
X201539197Y-83732478D01*
X201787644Y-83781897D01*
X200869864Y-84699678D01*
X200668983Y-84498797D01*
X200234915Y-84319000D01*
X199765085Y-84319000D01*
X199331017Y-84498797D01*
X198998797Y-84831017D01*
X198819000Y-85265085D01*
X198819000Y-85734915D01*
X198998797Y-86168983D01*
X199331017Y-86501203D01*
X199765085Y-86681000D01*
X200234915Y-86681000D01*
X200619002Y-86521906D01*
X200619001Y-88744000D01*
X200250166Y-88744000D01*
X199788533Y-88935215D01*
X199435215Y-89288533D01*
X199393736Y-89388671D01*
X199315953Y-89200884D01*
X199062060Y-89117545D01*
X198179605Y-90000000D01*
X199062060Y-90882455D01*
X199315953Y-90799116D01*
X199388753Y-90599298D01*
X199435215Y-90711467D01*
X199788533Y-91064785D01*
X200250166Y-91256000D01*
X200304542Y-91256000D01*
X199891541Y-91669001D01*
X168852203Y-91669001D01*
X168981476Y-91356890D01*
X168860155Y-91127000D01*
X167667000Y-91127000D01*
X167667000Y-91147000D01*
X167413000Y-91147000D01*
X167413000Y-91127000D01*
X167393000Y-91127000D01*
X167393000Y-90873000D01*
X167413000Y-90873000D01*
X167413000Y-90853000D01*
X167667000Y-90853000D01*
X167667000Y-90873000D01*
X168860155Y-90873000D01*
X168981476Y-90643110D01*
X168833462Y-90285750D01*
X171490000Y-90285750D01*
X171490000Y-91001310D01*
X171586673Y-91234699D01*
X171765302Y-91413327D01*
X171998691Y-91510000D01*
X172714250Y-91510000D01*
X172873000Y-91351250D01*
X172873000Y-90127000D01*
X171648750Y-90127000D01*
X171490000Y-90285750D01*
X168833462Y-90285750D01*
X168811645Y-90233076D01*
X168731379Y-90145001D01*
X170480933Y-90145001D01*
X170530961Y-90154952D01*
X170580989Y-90145001D01*
X170580993Y-90145001D01*
X170729173Y-90115526D01*
X170897208Y-90003248D01*
X170925549Y-89960833D01*
X171490000Y-89396382D01*
X171490000Y-89714250D01*
X171648750Y-89873000D01*
X172873000Y-89873000D01*
X172873000Y-88648750D01*
X172714250Y-88490000D01*
X172396382Y-88490000D01*
X174627016Y-86259366D01*
X174688547Y-86351453D01*
X175032000Y-86580942D01*
X175032001Y-88834367D01*
X174788533Y-88935215D01*
X174510000Y-89213748D01*
X174510000Y-88998690D01*
X174413327Y-88765301D01*
X174234698Y-88586673D01*
X174001309Y-88490000D01*
X173285750Y-88490000D01*
X173127000Y-88648750D01*
X173127000Y-89873000D01*
X173147000Y-89873000D01*
X173147000Y-90127000D01*
X173127000Y-90127000D01*
X173127000Y-91351250D01*
X173285750Y-91510000D01*
X174001309Y-91510000D01*
X174234698Y-91413327D01*
X174413327Y-91234699D01*
X174510000Y-91001310D01*
X174510000Y-90786252D01*
X174788533Y-91064785D01*
X175250166Y-91256000D01*
X175749834Y-91256000D01*
X176211467Y-91064785D01*
X176214192Y-91062060D01*
X177117545Y-91062060D01*
X177200884Y-91315953D01*
X177765306Y-91521590D01*
X178365458Y-91495579D01*
X178799116Y-91315953D01*
X178882455Y-91062060D01*
X178000000Y-90179605D01*
X177117545Y-91062060D01*
X176214192Y-91062060D01*
X176564785Y-90711467D01*
X176606264Y-90611329D01*
X176684047Y-90799116D01*
X176937940Y-90882455D01*
X177820395Y-90000000D01*
X178179605Y-90000000D01*
X179062060Y-90882455D01*
X179315953Y-90799116D01*
X179388753Y-90599298D01*
X179435215Y-90711467D01*
X179788533Y-91064785D01*
X180250166Y-91256000D01*
X180749834Y-91256000D01*
X181211467Y-91064785D01*
X181564785Y-90711467D01*
X181741123Y-90285750D01*
X186490000Y-90285750D01*
X186490000Y-91001310D01*
X186586673Y-91234699D01*
X186765302Y-91413327D01*
X186998691Y-91510000D01*
X187714250Y-91510000D01*
X187873000Y-91351250D01*
X187873000Y-90127000D01*
X186648750Y-90127000D01*
X186490000Y-90285750D01*
X181741123Y-90285750D01*
X181756000Y-90249834D01*
X181756000Y-89750166D01*
X181564785Y-89288533D01*
X181211467Y-88935215D01*
X180749834Y-88744000D01*
X180250166Y-88744000D01*
X179788533Y-88935215D01*
X179435215Y-89288533D01*
X179393736Y-89388671D01*
X179315953Y-89200884D01*
X179062060Y-89117545D01*
X178179605Y-90000000D01*
X177820395Y-90000000D01*
X176937940Y-89117545D01*
X176684047Y-89200884D01*
X176611247Y-89400702D01*
X176564785Y-89288533D01*
X176214192Y-88937940D01*
X177117545Y-88937940D01*
X178000000Y-89820395D01*
X178882455Y-88937940D01*
X178799116Y-88684047D01*
X178234694Y-88478410D01*
X177634542Y-88504421D01*
X177200884Y-88684047D01*
X177117545Y-88937940D01*
X176214192Y-88937940D01*
X176211467Y-88935215D01*
X176048000Y-88867505D01*
X176048000Y-86580942D01*
X176391453Y-86351453D01*
X176652478Y-85960803D01*
X176744137Y-85500000D01*
X176652478Y-85039197D01*
X176546773Y-84880999D01*
X177336973Y-84880999D01*
X177387001Y-84890950D01*
X177437029Y-84880999D01*
X177437033Y-84880999D01*
X177481781Y-84872098D01*
X177319000Y-85265085D01*
X177319000Y-85734915D01*
X177498797Y-86168983D01*
X177831017Y-86501203D01*
X178265085Y-86681000D01*
X178734915Y-86681000D01*
X179168983Y-86501203D01*
X179433900Y-86236286D01*
X179434474Y-86239172D01*
X179546752Y-86407208D01*
X179589167Y-86435549D01*
X182227452Y-89073835D01*
X182255791Y-89116247D01*
X182298203Y-89144586D01*
X182298205Y-89144588D01*
X182402516Y-89214286D01*
X182423826Y-89228525D01*
X182572006Y-89258000D01*
X182572010Y-89258000D01*
X182622038Y-89267951D01*
X182672066Y-89258000D01*
X183930370Y-89258000D01*
X184068362Y-89395992D01*
X184348429Y-89512000D01*
X184651571Y-89512000D01*
X184931638Y-89395992D01*
X185145992Y-89181638D01*
X185221771Y-88998690D01*
X186490000Y-88998690D01*
X186490000Y-89714250D01*
X186648750Y-89873000D01*
X187873000Y-89873000D01*
X187873000Y-88648750D01*
X188127000Y-88648750D01*
X188127000Y-89873000D01*
X188147000Y-89873000D01*
X188147000Y-90127000D01*
X188127000Y-90127000D01*
X188127000Y-91351250D01*
X188285750Y-91510000D01*
X189001309Y-91510000D01*
X189234698Y-91413327D01*
X189413327Y-91234699D01*
X189510000Y-91001310D01*
X189510000Y-90786252D01*
X189788533Y-91064785D01*
X190250166Y-91256000D01*
X190749834Y-91256000D01*
X191211467Y-91064785D01*
X191214192Y-91062060D01*
X192117545Y-91062060D01*
X192200884Y-91315953D01*
X192765306Y-91521590D01*
X193365458Y-91495579D01*
X193799116Y-91315953D01*
X193882455Y-91062060D01*
X193000000Y-90179605D01*
X192117545Y-91062060D01*
X191214192Y-91062060D01*
X191564785Y-90711467D01*
X191606264Y-90611329D01*
X191684047Y-90799116D01*
X191937940Y-90882455D01*
X192820395Y-90000000D01*
X193179605Y-90000000D01*
X194062060Y-90882455D01*
X194315953Y-90799116D01*
X194388753Y-90599298D01*
X194435215Y-90711467D01*
X194788533Y-91064785D01*
X195250166Y-91256000D01*
X195749834Y-91256000D01*
X196211467Y-91064785D01*
X196214192Y-91062060D01*
X197117545Y-91062060D01*
X197200884Y-91315953D01*
X197765306Y-91521590D01*
X198365458Y-91495579D01*
X198799116Y-91315953D01*
X198882455Y-91062060D01*
X198000000Y-90179605D01*
X197117545Y-91062060D01*
X196214192Y-91062060D01*
X196564785Y-90711467D01*
X196606264Y-90611329D01*
X196684047Y-90799116D01*
X196937940Y-90882455D01*
X197820395Y-90000000D01*
X196937940Y-89117545D01*
X196684047Y-89200884D01*
X196611247Y-89400702D01*
X196564785Y-89288533D01*
X196214192Y-88937940D01*
X197117545Y-88937940D01*
X198000000Y-89820395D01*
X198882455Y-88937940D01*
X198799116Y-88684047D01*
X198234694Y-88478410D01*
X197634542Y-88504421D01*
X197200884Y-88684047D01*
X197117545Y-88937940D01*
X196214192Y-88937940D01*
X196211467Y-88935215D01*
X195749834Y-88744000D01*
X195250166Y-88744000D01*
X194788533Y-88935215D01*
X194435215Y-89288533D01*
X194393736Y-89388671D01*
X194315953Y-89200884D01*
X194062060Y-89117545D01*
X193179605Y-90000000D01*
X192820395Y-90000000D01*
X191937940Y-89117545D01*
X191684047Y-89200884D01*
X191611247Y-89400702D01*
X191564785Y-89288533D01*
X191214192Y-88937940D01*
X192117545Y-88937940D01*
X193000000Y-89820395D01*
X193882455Y-88937940D01*
X193799116Y-88684047D01*
X193234694Y-88478410D01*
X192634542Y-88504421D01*
X192200884Y-88684047D01*
X192117545Y-88937940D01*
X191214192Y-88937940D01*
X191211467Y-88935215D01*
X190749834Y-88744000D01*
X190250166Y-88744000D01*
X189788533Y-88935215D01*
X189510000Y-89213748D01*
X189510000Y-88998690D01*
X189413327Y-88765301D01*
X189234698Y-88586673D01*
X189001309Y-88490000D01*
X188285750Y-88490000D01*
X188127000Y-88648750D01*
X187873000Y-88648750D01*
X187714250Y-88490000D01*
X186998691Y-88490000D01*
X186765302Y-88586673D01*
X186586673Y-88765301D01*
X186490000Y-88998690D01*
X185221771Y-88998690D01*
X185262000Y-88901571D01*
X185262000Y-88598429D01*
X185145992Y-88318362D01*
X184931638Y-88104008D01*
X184651571Y-87988000D01*
X184348429Y-87988000D01*
X184068362Y-88104008D01*
X183930370Y-88242000D01*
X182832459Y-88242000D01*
X181252355Y-86661897D01*
X181500803Y-86612478D01*
X181891453Y-86351453D01*
X182152478Y-85960803D01*
X182244137Y-85500000D01*
X182163552Y-85094869D01*
X182419000Y-84839421D01*
X182419000Y-85215024D01*
X182583572Y-85612337D01*
X182887663Y-85916428D01*
X183284976Y-86081000D01*
X183715024Y-86081000D01*
X184066836Y-85935275D01*
X185244331Y-85935275D01*
X185306169Y-86171042D01*
X185807122Y-86347419D01*
X186337440Y-86318664D01*
X186693831Y-86171042D01*
X186755669Y-85935275D01*
X186000000Y-85179605D01*
X185244331Y-85935275D01*
X184066836Y-85935275D01*
X184112337Y-85916428D01*
X184416428Y-85612337D01*
X184581000Y-85215024D01*
X184581000Y-84807122D01*
X184652581Y-84807122D01*
X184681336Y-85337440D01*
X184828958Y-85693831D01*
X185064725Y-85755669D01*
X185820395Y-85000000D01*
X186179605Y-85000000D01*
X186935275Y-85755669D01*
X187171042Y-85693831D01*
X187321996Y-85265085D01*
X187819000Y-85265085D01*
X187819000Y-85734915D01*
X187998797Y-86168983D01*
X188331017Y-86501203D01*
X188765085Y-86681000D01*
X189234915Y-86681000D01*
X189668983Y-86501203D01*
X190001203Y-86168983D01*
X190181000Y-85734915D01*
X190181000Y-85500000D01*
X190335863Y-85500000D01*
X190427522Y-85960803D01*
X190688547Y-86351453D01*
X191079197Y-86612478D01*
X191423682Y-86681000D01*
X191656318Y-86681000D01*
X192000803Y-86612478D01*
X192391453Y-86351453D01*
X192652478Y-85960803D01*
X192744137Y-85500000D01*
X192697410Y-85265085D01*
X193319000Y-85265085D01*
X193319000Y-85734915D01*
X193498797Y-86168983D01*
X193831017Y-86501203D01*
X194265085Y-86681000D01*
X194734915Y-86681000D01*
X195168983Y-86501203D01*
X195501203Y-86168983D01*
X195681000Y-85734915D01*
X195681000Y-85500000D01*
X195835863Y-85500000D01*
X195927522Y-85960803D01*
X196188547Y-86351453D01*
X196579197Y-86612478D01*
X196923682Y-86681000D01*
X197156318Y-86681000D01*
X197500803Y-86612478D01*
X197891453Y-86351453D01*
X198152478Y-85960803D01*
X198244137Y-85500000D01*
X198152478Y-85039197D01*
X197891453Y-84648547D01*
X197500803Y-84387522D01*
X197156318Y-84319000D01*
X196923682Y-84319000D01*
X196579197Y-84387522D01*
X196188547Y-84648547D01*
X195927522Y-85039197D01*
X195835863Y-85500000D01*
X195681000Y-85500000D01*
X195681000Y-85265085D01*
X195501203Y-84831017D01*
X195168983Y-84498797D01*
X194734915Y-84319000D01*
X194265085Y-84319000D01*
X193831017Y-84498797D01*
X193498797Y-84831017D01*
X193319000Y-85265085D01*
X192697410Y-85265085D01*
X192652478Y-85039197D01*
X192391453Y-84648547D01*
X192000803Y-84387522D01*
X191656318Y-84319000D01*
X191423682Y-84319000D01*
X191079197Y-84387522D01*
X190688547Y-84648547D01*
X190427522Y-85039197D01*
X190335863Y-85500000D01*
X190181000Y-85500000D01*
X190181000Y-85265085D01*
X190001203Y-84831017D01*
X189668983Y-84498797D01*
X189234915Y-84319000D01*
X188765085Y-84319000D01*
X188331017Y-84498797D01*
X187998797Y-84831017D01*
X187819000Y-85265085D01*
X187321996Y-85265085D01*
X187347419Y-85192878D01*
X187318664Y-84662560D01*
X187171042Y-84306169D01*
X186935275Y-84244331D01*
X186179605Y-85000000D01*
X185820395Y-85000000D01*
X185064725Y-84244331D01*
X184828958Y-84306169D01*
X184652581Y-84807122D01*
X184581000Y-84807122D01*
X184581000Y-84784976D01*
X184416428Y-84387663D01*
X184112337Y-84083572D01*
X183715024Y-83919000D01*
X183287955Y-83919000D01*
X183295472Y-83881210D01*
X183315001Y-83783031D01*
X183315001Y-83783027D01*
X183324952Y-83732999D01*
X183315001Y-83682971D01*
X183315001Y-83391316D01*
X183368547Y-83471453D01*
X183759197Y-83732478D01*
X184103682Y-83801000D01*
X184336318Y-83801000D01*
X184680803Y-83732478D01*
X185071453Y-83471453D01*
X185332478Y-83080803D01*
X185398875Y-82747002D01*
X185489370Y-82747002D01*
X185368086Y-82969041D01*
X185607611Y-83475134D01*
X185825486Y-83672502D01*
X185662560Y-83681336D01*
X185306169Y-83828958D01*
X185244331Y-84064725D01*
X186000000Y-84820395D01*
X186755669Y-84064725D01*
X186693831Y-83828958D01*
X186633000Y-83807540D01*
X186633000Y-82747000D01*
X186613000Y-82747000D01*
X186613000Y-82493000D01*
X186633000Y-82493000D01*
X186633000Y-81350085D01*
X186887000Y-81350085D01*
X186887000Y-82493000D01*
X186907000Y-82493000D01*
X186907000Y-82747000D01*
X186887000Y-82747000D01*
X186887000Y-83889915D01*
X187109039Y-84011904D01*
X187497423Y-83851041D01*
X187912389Y-83475134D01*
X188151914Y-82969041D01*
X188030630Y-82747002D01*
X188121125Y-82747002D01*
X188187522Y-83080803D01*
X188448547Y-83471453D01*
X188839197Y-83732478D01*
X189183682Y-83801000D01*
X189416318Y-83801000D01*
X189760803Y-83732478D01*
X190151453Y-83471453D01*
X190412478Y-83080803D01*
X190504137Y-82620000D01*
X190635863Y-82620000D01*
X190727522Y-83080803D01*
X190988547Y-83471453D01*
X191379197Y-83732478D01*
X191723682Y-83801000D01*
X191956318Y-83801000D01*
X192300803Y-83732478D01*
X192691453Y-83471453D01*
X192952478Y-83080803D01*
X193044137Y-82620000D01*
X193175863Y-82620000D01*
X193267522Y-83080803D01*
X193528547Y-83471453D01*
X193919197Y-83732478D01*
X194263682Y-83801000D01*
X194496318Y-83801000D01*
X194840803Y-83732478D01*
X195231453Y-83471453D01*
X195492478Y-83080803D01*
X195584137Y-82620000D01*
X195715863Y-82620000D01*
X195807522Y-83080803D01*
X196068547Y-83471453D01*
X196459197Y-83732478D01*
X196803682Y-83801000D01*
X197036318Y-83801000D01*
X197380803Y-83732478D01*
X197771453Y-83471453D01*
X198032478Y-83080803D01*
X198124137Y-82620000D01*
X198255863Y-82620000D01*
X198347522Y-83080803D01*
X198608547Y-83471453D01*
X198999197Y-83732478D01*
X199343682Y-83801000D01*
X199576318Y-83801000D01*
X199920803Y-83732478D01*
X200311453Y-83471453D01*
X200572478Y-83080803D01*
X200664137Y-82620000D01*
X200572478Y-82159197D01*
X200311453Y-81768547D01*
X199920803Y-81507522D01*
X199576318Y-81439000D01*
X199343682Y-81439000D01*
X198999197Y-81507522D01*
X198608547Y-81768547D01*
X198347522Y-82159197D01*
X198255863Y-82620000D01*
X198124137Y-82620000D01*
X198032478Y-82159197D01*
X197771453Y-81768547D01*
X197380803Y-81507522D01*
X197036318Y-81439000D01*
X196803682Y-81439000D01*
X196459197Y-81507522D01*
X196068547Y-81768547D01*
X195807522Y-82159197D01*
X195715863Y-82620000D01*
X195584137Y-82620000D01*
X195492478Y-82159197D01*
X195231453Y-81768547D01*
X194840803Y-81507522D01*
X194496318Y-81439000D01*
X194263682Y-81439000D01*
X193919197Y-81507522D01*
X193528547Y-81768547D01*
X193267522Y-82159197D01*
X193175863Y-82620000D01*
X193044137Y-82620000D01*
X192952478Y-82159197D01*
X192691453Y-81768547D01*
X192300803Y-81507522D01*
X191956318Y-81439000D01*
X191723682Y-81439000D01*
X191379197Y-81507522D01*
X190988547Y-81768547D01*
X190727522Y-82159197D01*
X190635863Y-82620000D01*
X190504137Y-82620000D01*
X190412478Y-82159197D01*
X190151453Y-81768547D01*
X189760803Y-81507522D01*
X189416318Y-81439000D01*
X189183682Y-81439000D01*
X188839197Y-81507522D01*
X188448547Y-81768547D01*
X188187522Y-82159197D01*
X188121125Y-82492998D01*
X188030630Y-82492998D01*
X188151914Y-82270959D01*
X187912389Y-81764866D01*
X187497423Y-81388959D01*
X187109039Y-81228096D01*
X186887000Y-81350085D01*
X186633000Y-81350085D01*
X186410961Y-81228096D01*
X186022577Y-81388959D01*
X185607611Y-81764866D01*
X185368086Y-82270959D01*
X185489370Y-82492998D01*
X185398875Y-82492998D01*
X185332478Y-82159197D01*
X185071453Y-81768547D01*
X184680803Y-81507522D01*
X184336318Y-81439000D01*
X184103682Y-81439000D01*
X183759197Y-81507522D01*
X183368547Y-81768547D01*
X183287361Y-81890050D01*
X183285526Y-81880827D01*
X183229125Y-81796417D01*
X183201589Y-81755206D01*
X183201587Y-81755204D01*
X183173248Y-81712792D01*
X183130837Y-81684454D01*
X177359366Y-75912984D01*
X177451453Y-75851453D01*
X177712478Y-75460803D01*
X177804137Y-75000000D01*
X177712478Y-74539197D01*
X177606773Y-74380999D01*
X178133227Y-74380999D01*
X178027522Y-74539197D01*
G36*
X203229371Y-76123000D02*
X204373000Y-76123000D01*
X204373000Y-76103000D01*
X204627000Y-76103000D01*
X204627000Y-76123000D01*
X204647000Y-76123000D01*
X204647000Y-76377000D01*
X204627000Y-76377000D01*
X204627000Y-76397000D01*
X204373000Y-76397000D01*
X204373000Y-76377000D01*
X203229371Y-76377000D01*
X203162975Y-76498554D01*
X202844110Y-76179690D01*
X202948659Y-76158894D01*
X203074686Y-76074686D01*
X203145275Y-75969042D01*
X203229371Y-76123000D01*
X203229371Y-76123000D01*
G37*
X203229371Y-76123000D02*
X204373000Y-76123000D01*
X204373000Y-76103000D01*
X204627000Y-76103000D01*
X204627000Y-76123000D01*
X204647000Y-76123000D01*
X204647000Y-76377000D01*
X204627000Y-76377000D01*
X204627000Y-76397000D01*
X204373000Y-76397000D01*
X204373000Y-76377000D01*
X203229371Y-76377000D01*
X203162975Y-76498554D01*
X202844110Y-76179690D01*
X202948659Y-76158894D01*
X203074686Y-76074686D01*
X203145275Y-75969042D01*
X203229371Y-76123000D01*
G04 #@! TD*
M02*
